<?xml version="1.0" encoding="UTF-8" standalone="no"?>
<svg
   xml:space="preserve"
   width="256"
   height="256"
   version="1.1"
   id="svg2"
   xmlns="http://www.w3.org/2000/svg"
   xmlns:svg="http://www.w3.org/2000/svg"><defs
     id="defs2" /><path
     d="M 255,128 A 127,127 0 0 1 128,255 127,127 0 0 1 1,128 127,127 0 0 1 128,1 127,127 0 0 1 255,128"
     style="fill:#6c7ae9;fill-rule:evenodd;stroke-width:2.20571"
     id="path1" /><path
     d="M 255,128 A 127,127 0 0 1 128,255 127,127 0 0 1 1,128 127,127 0 0 1 128,1 127,127 0 0 1 255,128"
     style="fill:#000000;fill-rule:evenodd;stroke-width:2.20571"
     id="path1-9" /><path
     id="path1-9-2"
     style="fill:#6c7ae9;fill-rule:evenodd;stroke-width:2.20571"
     d="M 128,1 A 127,127 0 0 0 1,128 a 127,127 0 0 0 127,127 127,127 0 0 0 1.00977,-0.004 c -0.48674,-4.4487 -0.57785,-12.11072 -0.0762,-16.08398 0.61888,-4.90167 0.65672,-4.21798 -0.42578,-7.90625 -0.53206,-1.81286 -0.96049,-4.73593 -1.09961,-7.51563 -0.20037,-4.00308 -0.0916,-5.11566 0.89844,-9.27539 0.89424,-3.75712 1.06669,-5.23809 0.84375,-7.21875 -0.15428,-1.3705 -0.42202,-2.49023 -0.5957,-2.49023 -0.17367,0 -0.67437,0.71377 -1.11133,1.58594 -1.01708,2.03023 -1.85218,1.88181 -2.47461,-0.43946 -1.18551,-4.42136 -6.13921,-13.10521 -11.13672,-19.51953 l -2.14258,-2.74804 -0.33398,1.5625 c -0.18418,0.85888 -0.44077,2.05017 -0.57031,2.64843 -0.4279,1.97606 -0.95875,1.55218 -5.4961,-4.38672 -4.95079,-6.48003 -11.546908,-11.92782 -15.199216,-12.55468 -1.856845,-0.3187 -5.558677,-1.69532 -8.970703,-3.33399 -2.017587,-0.96899 -4.114625,-2.38108 -10.742188,-7.23828 -2.281257,-1.67186 -4.589064,-3.84531 -5.962891,-5.61328 -0.57032,-0.73397 -0.902529,-1.161 -1.015624,-1.12305 -0.148497,0.0634 0.10281,0.99536 0.689453,3.20118 0.445692,1.67581 0.209538,1.65911 -4.601563,-0.32618 -5.723081,-2.3616 -6.220915,-2.69838 -7.259766,-4.91211 l -0.925781,-1.97656 -0.298828,1.67969 c -0.249169,1.40313 -0.454321,1.67773 -1.25,1.67773 -1.366147,0 -1.891996,-0.80537 -2.414062,-3.70507 -0.431139,-2.39464 -0.388087,-2.73426 0.658203,-5.27149 0.614957,-1.49125 1.117187,-2.81543 1.117187,-2.94336 v -0.002 -0.002 -0.002 c -7.03e-4,-0.002 -0.0045,-0.008 -0.0059,-0.01 -0.107195,-0.13731 -1.51196,-0.44691 -3.214844,-0.70508 -8.040908,-1.21857 -17.274917,-4.12311 -22.488281,-7.07227 -6.307478,-3.56784 -8.865642,-6.69053 -11.298828,-13.79101 -2.3671903,-6.9079 -2.3011291,-9.70994 0.330078,-13.95899 0.606217,-0.97897 1.108688,-1.9898 1.117187,-2.24609 0.0084,-0.25627 0.609471,-0.87964 1.335938,-1.38477 0.726454,-0.50514 2.531026,-1.897257 4.009766,-3.093747 2.562681,-2.073562 10.676818,-6.567098 18.808593,-10.414062 5.049696,-2.388917 11.35902,-4.951727 20.138672,-8.183594 l 7.275391,-2.677735 0.316406,-2.074218 c 0.433005,-2.836134 2.21243,-5.806752 4.189453,-6.994141 1.645635,-0.988356 4.77096,-1.744665 4.316406,-1.044922 -0.134801,0.2075 -0.09469,0.608437 0.08984,0.892578 0.256219,0.394432 0.841793,0.185787 2.474609,-0.882812 2.515377,-1.646181 6.190451,-3.033203 8.03711,-3.033203 h 1.310547 l -1.164063,1.15625 c -1.140926,1.133006 -3.063914,6.359375 -2.339844,6.359375 0.187489,0 3.309443,-0.81439 6.9375,-1.808594 7.300838,-2.000644 22.826693,-5.70144 23.933603,-5.705078 0.38877,-0.001 0.85619,-0.236321 1.03906,-0.523438 0.5359,-0.841452 4.68389,-3.640454 7.60742,-5.132812 3.89338,-1.987459 7.48242,-2.388952 7.48242,-0.835938 0,0.491344 0.19522,0.481376 1.3086,-0.06641 1.2736,-0.626607 9.08593,-1.236175 9.08593,-0.708984 0,0.130032 -0.66168,0.814524 -1.4707,1.519531 l -1.4707,1.28125 4.48437,-0.730469 c 12.53983,-2.044594 18.40526,-2.662958 27.76758,-2.923828 9.92203,-0.276476 12.79891,-0.0075 16.83594,1.572266 0.80032,0.313303 2.47551,0.763302 3.72265,1 3.24579,0.616027 7.91993,2.012446 7.91993,2.365234 0,0.165088 -1.26319,0.643621 -2.80664,1.064453 l -2.80664,0.765625 3.56835,0.667969 c 1.96273,0.36776 4.76917,1.024363 6.23633,1.458984 4.127,1.22253 25.32617,12.269256 25.32617,13.197266 0,0.388125 -13.44631,0.104337 -16.00781,-0.337891 -0.0804,-0.01388 -0.13053,-0.01086 -0.15039,0.0039 h -0.002 l -0.002,0.002 v 0.002 l -0.002,0.002 v 0.002 l -0.002,0.002 v 0.002 0.002 c -0.0179,0.165516 1.46439,1.030995 3.69336,2.134765 2.62957,1.302147 5.16594,2.375487 5.63672,2.386719 0.47077,0.01175 1.21125,0.269485 1.64648,0.572266 0.6732,0.468344 0.70959,0.644998 0.23633,1.1875 -0.30594,0.350735 -1.14108,0.785486 -1.85547,0.966796 -1.27253,0.32296 -1.21566,0.369705 2.85742,2.308594 2.28657,1.088462 5.23405,2.396503 6.54883,2.90625 1.30451,0.505766 2.374,1.044155 2.39063,1.199219 0,0.371503 -8.09841,1.558256 -12.57227,1.841797 l -3.63477,0.230468 1.61719,1.667969 c 2.7282,2.815914 3.68983,4.569147 4.98633,9.091802 0.68601,2.39299 1.53475,5.24236 1.88672,6.33008 0.35196,1.08773 0.64205,2.0218 0.64453,2.07617 0.0192,0.42099 -1.46503,-0.12105 -3.44922,-1.25781 -1.23016,-0.70476 -2.25163,-1.21139 -2.35937,-1.17774 l -0.002,0.002 h -0.002 l -0.002,0.002 v 0.002 l -0.002,0.002 v 0.002 c 0,0.10312 0.73627,1.47017 1.63672,3.03711 1.81812,3.16394 1.98517,3.89472 4.37305,19.28125 1.16213,7.48812 1.80151,10.34745 3.31837,14.8164 l 1.88086,5.53711 2.35351,0.96289 c 1.94763,0.7972 5.53929,3.19286 13.18555,8.79297 0.48748,0.35703 1.51742,0.57961 4.05469,0.79297 A 127,127 0 0 0 255,128 127,127 0 0 0 128,1 Z" /></svg>
