<?xml version="1.0" encoding="UTF-8" standalone="no"?>
<svg
   xml:space="preserve"
   width="256"
   height="256"
   version="1.1"
   id="svg2"
   xmlns="http://www.w3.org/2000/svg"
   xmlns:svg="http://www.w3.org/2000/svg"><defs
     id="defs2" /><path
     d="M 255,128 A 127,127 0 0 1 128,255 127,127 0 0 1 1,128 127,127 0 0 1 128,1 127,127 0 0 1 255,128"
     style="fill:#6c7ae9;fill-rule:evenodd;stroke-width:2.20571"
     id="path1" /><path
     id="path1-56"
     style="fill:#000000;fill-rule:evenodd;stroke-width:2.20571"
     d="m 137.0957,46.732422 c -2.33734,-0.03308 -4.21946,0.895535 -5.76562,2.835937 -1.09119,1.369426 -2.35259,3.605462 -3.07617,5.453125 -0.69761,1.781396 -0.76156,1.735452 -1.41211,-1.037109 -0.89042,-3.794804 -1.69879,-4.495305 -3.04297,-2.636719 -0.68862,0.952125 -0.93327,2.88865 -0.53516,4.222656 0.12361,0.413996 0.19175,0.786153 0.15625,0.845704 l -0.002,0.002 -0.002,0.002 -0.002,0.002 h -0.002 c -0.0843,0.01413 -0.81545,-0.35267 -1.6582,-0.837891 -0.86993,-0.500871 -1.69635,-0.912109 -1.83789,-0.912109 -0.14154,0 -0.2952,-0.105118 -0.3418,-0.234375 -0.14126,-0.392036 -0.50681,-0.02918 -0.80078,0.794922 -0.24717,0.692885 -0.22945,0.882191 0.16211,1.701172 0.24224,0.506651 0.88914,1.363871 1.4375,1.90625 l 0.99609,0.986328 -1.03516,0.205078 c -0.56964,0.112967 -1.95839,0.359916 -3.08593,0.548828 -1.12756,0.18891 -2.10553,0.422048 -2.17383,0.517578 -0.0682,0.09557 -1.8647,0.350316 -3.99219,0.566406 -9.69213,0.984428 -16.324047,2.091908 -22.103514,3.691407 -1.720997,0.476298 -4.584902,1.185669 -6.365235,1.576172 -7.984783,1.751378 -24.141104,5.939876 -31.398437,8.140625 -8.156956,2.473556 -13.262403,4.434392 -18.236328,7.001953 -1.983624,1.023961 -2.72565,1.554231 -4.515625,3.232422 -1.68955,1.584054 -2.288059,2.303894 -2.837891,3.40625 -1.824294,3.657467 -3.487837,9.312917 -3.757812,12.777338 -0.09412,1.20788 -0.229952,2.33137 -0.300782,2.4961 -0.07077,0.16469 0.01385,0.52431 0.1875,0.79883 0.844838,1.33554 1.014934,1.85241 0.757813,2.29687 -0.20837,0.36021 -0.113539,0.84293 0.548828,2.8125 1.192274,3.54523 2.217151,5.18077 4.871094,7.76563 1.872539,1.82382 3.578938,2.70679 5.501953,2.84961 0.776767,0.0579 1.491867,0.0144 1.646484,-0.0996 0.150243,-0.11072 1.050492,-0.21437 2,-0.23047 2.091308,-0.0353 4.748152,-0.27943 10.033203,-0.92578 4.742139,-0.57993 13.742067,-1.40702 17.373047,-1.59571 l 2.587891,-0.13476 -0.753907,0.52929 c -0.415405,0.2908 -1.567972,0.90517 -2.560546,1.36524 -1.82994,0.84819 -2.908459,1.73116 -2.707032,2.2168 0.170371,0.41076 1.08782,0.7207 2.132813,0.7207 1.083317,0 3.160342,-0.91577 5.011719,-2.20899 0.95871,-0.66967 1.144531,-0.7388 1.144531,-0.42382 0,1.10772 -0.97436,2.63238 -3.171875,4.96484 l -1.34961,1.43359 0.746094,0.22852 c 0.834454,0.25479 2.742294,-0.0131 3.84961,-0.53906 0.316337,-0.15019 0.601293,-0.24792 0.662109,-0.23047 h 0.002 l 0.002,0.002 h 0.002 l 0.002,0.002 c 0.09598,0.10677 -1.749705,4.67575 -2.486329,6.1543 -0.782008,1.56976 -0.747677,2.31089 0.117188,2.51172 0.389606,0.0905 1.207544,-0.19599 3.119141,-1.09766 l 2.589843,-1.22265 -1.640625,3.14843 c -3.170996,6.08281 -3.744425,7.5588 -3.734375,9.62891 0.01028,2.15621 0.919885,4.57919 1.867188,4.97852 0.766319,0.32303 1.174083,0.27698 2.552734,-0.28711 0.682244,-0.27914 1.315553,-0.48132 1.408203,-0.44922 0.09258,0.0321 -0.930426,1.62233 -2.273437,3.5332 -2.69566,3.83545 -2.788938,4.15365 -1.324219,4.49805 0.589697,0.13868 0.785603,0.28727 0.783203,0.59765 -0.0061,0.74333 -0.575356,2.68395 -0.9375,3.19532 -0.470107,0.66384 -0.446739,1.17322 0.07422,1.60937 0.546782,0.45783 1.925416,0.32999 4.134766,-0.38086 0.833919,-0.2683 1.559781,-0.45311 1.65039,-0.42187 l 0.002,0.002 h 0.002 l 0.002,0.002 0.002,0.002 0.002,0.002 v 0.002 c 0.02483,0.0686 -0.183394,0.37824 -0.482422,0.70704 -1.401289,1.54075 -3.253712,6.12606 -3.908203,9.67187 -0.597259,3.23577 -0.210123,6.89461 1.005859,9.50977 0.538628,1.15836 1.084351,1.57031 2.078125,1.57031 0.570955,0 0.963826,-0.21299 1.894531,-1.02735 0.580104,-0.50759 1.0656,-0.85308 1.158204,-0.83203 h 0.002 l 0.002,0.002 h 0.002 l 0.002,0.002 h 0.002 v 0.002 l 0.002,0.002 0.002,0.002 v 0.002 0.002 c 2.57e-4,0.002 0.002,0.006 0.002,0.008 0,0.27593 -0.823373,3.47003 -0.908203,3.52344 -0.03502,0.0221 -0.534564,0.20125 -1.109375,0.39843 -1.522898,0.5224 -3.958813,2.09743 -5.386718,3.48242 -1.90561,1.84834 -2.319686,3.11885 -1.355469,4.15625 0.488644,0.52567 0.642282,0.56496 2.501953,0.63086 l 1.982422,0.0703 -0.654297,0.36718 c -1.801846,1.01378 -4.089951,4.85807 -4.8125,8.08594 -0.366044,1.63508 -0.419321,2.37619 -0.302734,4.1836 0.180858,2.80344 0.252773,3.04508 1.011718,3.4082 0.873069,0.41768 1.605555,0.0608 2.492188,-1.21485 0.380846,-0.54797 1.255078,-1.75276 1.943359,-2.67773 l 1.251953,-1.68164 0.179688,3.17969 c 0.09873,1.74854 0.296418,3.4032 0.439453,3.67773 0.239475,0.46032 0.367308,0.49695 1.603516,0.46484 l 1.341796,-0.0352 -0.703124,0.91211 c -0.386669,0.50149 -1.332824,1.41554 -2.103516,2.03125 -0.770681,0.61574 -2.058284,1.71958 -2.859375,2.45312 -0.801093,0.73357 -1.655622,1.39295 -1.900391,1.46485 -0.674782,0.19814 -0.382347,0.57648 0.566406,0.73242 2.332471,0.38334 4.310271,-0.0685 6.261719,-1.43164 l 1.160157,-0.81055 -0.123047,0.95313 c -0.648844,5.05738 -2.416697,11.20493 -4.179688,14.52929 -1.103749,2.08122 -2.783,4.28583 -4.556641,5.98828 -0.622344,0.59738 -1.142246,1.29119 -1.480468,1.91211 a 127,127 0 0 0 2.236328,1.16797 c 0.31018,-0.1098 0.578518,-0.22221 0.75,-0.32422 0.531055,-0.31566 0.576681,-0.27671 0.130859,0.76953 A 127,127 0 0 0 128,255 127,127 0 0 0 229.82031,203.9043 c -0.90717,-0.50364 -1.72628,-0.97767 -2.33008,-1.35352 l -2.94335,-1.83203 2.1875,-0.125 c 1.20387,-0.0688 2.21444,-0.13679 2.24414,-0.15039 0.26571,-0.1205 -0.086,-0.67447 -0.70508,-1.11133 -1.28515,-0.90688 -2.99043,-1.50719 -6.63672,-2.33984 -1.92688,-0.44002 -3.58028,-0.87088 -3.67578,-0.95508 l -0.002,-0.002 -0.002,-0.002 -0.002,-0.002 -0.002,-0.002 c -1.9e-4,-8.3e-4 9e-5,-0.005 0,-0.006 v -0.002 c 1.4e-4,-9.2e-4 -2.4e-4,-0.005 0,-0.006 0.0409,-0.11591 0.82365,-0.44922 1.8418,-0.77734 1.10444,-0.35596 2.12899,-0.74091 2.27735,-0.85351 0.42262,-0.32079 0.31981,-0.74589 -0.32422,-1.34766 -0.32639,-0.30498 -0.98225,-0.93964 -1.45703,-1.41016 -1.46421,-1.45118 -5.16278,-2.77615 -7.78711,-2.78515 -0.79321,-0.003 -0.97649,-0.10397 -1.79493,-1.00196 -0.5013,-0.55004 -1.20806,-1.14308 -1.57031,-1.3164 -0.36226,-0.17332 -1.14167,-0.636 -1.73047,-1.02735 l -1.07031,-0.71093 0.77539,-0.2461 c 1.05345,-0.33505 1.41797,-0.65112 1.41797,-1.22851 0,-1.29396 -1.23886,-1.86845 -2.99219,-1.38672 -1.53439,0.42155 -4.46114,0.6368 -4.6582,0.34179 -0.24696,-0.36969 0.40056,-1.09983 2.25391,-2.53515 1.76488,-1.3668 2.06826,-1.8885 1.31054,-2.26367 -0.75903,-0.37583 -3.49819,-0.21452 -4.79687,0.2832 -0.47352,0.1815 -0.55873,-0.25632 -0.35742,-1.83203 0.17854,-1.39722 0.63922,-2.35996 1.39257,-2.9082 0.77777,-0.56602 0.66423,-1.44991 -0.24414,-1.89063 -0.8969,-0.43516 -5.31168,-1.28793 -6.02539,-1.16406 -0.5032,0.0873 -0.79437,0.0343 -0.98633,-0.17969 -0.14967,-0.16683 -0.5741,-0.31327 -0.94531,-0.32227 -0.37122,-0.0109 -0.90726,-0.0791 -1.18945,-0.15234 -0.48582,-0.126 -0.4367,-0.19906 0.90625,-1.36133 1.94308,-1.68164 3.21524,-2.45898 4.02344,-2.45898 0.80908,0 1.73696,-0.52317 1.72656,-0.97266 -0.008,-0.37599 -2.719,-1.895 -4.4082,-2.4707 l -1.11329,-0.37891 1.32032,-1.24609 c 0.77444,-0.73075 1.63648,-1.81868 2.08398,-2.63086 0.77488,-1.40635 2.48446,-3.79151 3.33985,-4.6582 0.67205,-0.68096 1.0192,-1.34539 0.8789,-1.6836 -0.0755,-0.18208 -1.00152,-0.48205 -2.45703,-0.79492 -3.95336,-0.84979 -5.78813,-1.03711 -10.16016,-1.03711 -3.6124,0 -4.13793,-0.0386 -4.01757,-0.29883 1.25849,-2.72273 2.45703,-6.76792 2.45703,-8.29492 0,-0.60619 -0.0804,-0.69091 -0.81055,-0.8789 -0.63975,-0.16477 -0.85659,-0.15167 -1.0332,0.0684 -0.13097,0.16316 -0.84345,0.33542 -1.72461,0.41602 -3.35543,0.30658 -8.11614,1.37171 -11.07813,2.47852 -1.05833,0.3954 -1.14507,0.4032 -0.99804,0.0781 0.95173,-2.10387 1.22048,-3.15425 0.99023,-3.86523 -0.16733,-0.51673 -0.42686,-0.80781 -0.86719,-0.97657 -0.99241,-0.38029 -2.08879,0.21502 -6.00976,3.26563 l -3.50977,2.73242 -0.41601,-0.89648 c -0.8952,-1.93212 -1.85213,-5.37004 -1.59961,-5.74805 0.29422,-0.44044 2.41399,-1.35447 3.14648,-1.35547 0.95303,-0.002 3.47719,-0.81557 4.06836,-1.31055 0.51015,-0.42715 0.54479,-1.05547 0.0684,-1.2246 -0.19248,-0.0683 -0.81395,0.0315 -1.38281,0.2207 -1.57462,0.52386 -2.33807,0.37477 -3.07618,-0.59961 -0.49938,-0.65927 -2.14275,-4.52682 -2.04101,-4.78906 4.6e-4,-9.3e-4 0.003,-0.005 0.004,-0.006 l 0.002,-0.002 0.002,-0.002 c 0.0256,-0.0237 0.57978,0.0877 1.23242,0.24609 2.03646,0.49413 3.76387,-0.15457 4.65235,-1.74414 0.53006,-0.94834 0.31914,-1.13642 -1.20508,-1.07421 -1.76633,0.0721 -3.37487,-0.3376 -4.15625,-1.06055 l -0.62695,-0.58008 0.99218,-2.29297 c 0.54531,-1.261 0.99024,-2.43631 0.99024,-2.61133 0,-0.40219 0.35576,-0.61814 0.54687,-0.33203 0.16009,0.23965 -0.27884,2.68906 -0.57812,3.22656 -0.29935,0.53763 1.88215,-0.58257 2.53711,-1.30273 2.3569,-2.59142 3.2522,-7.98352 2.14258,-12.91406 l -0.29297,-1.29883 1.0039,1.09961 c 0.55259,0.60395 1.30657,1.37044 1.67578,1.70508 0.36919,0.33464 0.78588,0.80695 0.92579,1.04883 0.13991,0.24185 0.40098,0.43945 0.57812,0.43945 0.26838,0 0.3035,-0.27985 0.2168,-1.67578 -0.19869,-3.20207 -1.30754,-5.16304 -4.76953,-8.42969 l -2.38086,-2.246094 1.08593,-0.136719 c 2.27742,-0.285718 4.06445,-1.167521 5.10352,-2.517578 l 0.46094,-0.59961 -0.94531,-0.90039 c -0.51951,-0.495378 -2.21384,-1.917828 -3.76563,-3.160157 -2.74894,-2.200752 -4.62981,-3.956698 -5.08984,-4.751953 -0.20645,-0.356943 -0.17201,-0.383618 0.38867,-0.277343 0.33929,0.06432 1.38115,0.228832 2.31445,0.365234 1.36713,0.199818 1.81426,0.356675 2.30274,0.808594 0.7649,0.707714 1.28711,0.733433 1.28711,0.0625 0,-0.274525 0.10789,-0.498047 0.24023,-0.498047 0.14474,0 0.0949,-0.207044 -0.125,-0.517578 -0.20111,-0.283982 -0.51172,-0.973397 -0.69141,-1.533203 -0.82647,-2.574788 -4.20054,-7.880846 -7.23047,-11.373047 -0.25633,-0.295491 -0.41159,-0.589165 -0.35156,-0.658203 l 0.002,-0.002 c 7.3e-4,-6.71e-4 0.003,-0.0014 0.004,-0.002 0.26433,-0.119456 5.58065,2.976606 7.24609,4.22461 0.96998,0.726838 1.32589,0.406058 0.72071,-0.650391 -0.24269,-0.423647 -0.65767,-1.211964 -0.92188,-1.753906 -0.66183,-1.357416 -3.07367,-3.643357 -5.27734,-5 -1.8911,-1.164213 -3.84231,-2.09631 -4.39453,-2.09961 -0.18838,-0.0012 -0.23079,-0.06817 -0.10742,-0.169921 0.40375,-0.33276 4.56522,-0.893764 6.9707,-0.939453 2.74476,-0.05213 3.22043,-0.243472 2.96484,-1.185547 -0.0974,-0.359238 -0.39475,-0.626013 -0.92773,-0.832032 -0.43182,-0.166923 -0.98032,-0.532081 -1.21875,-0.8125 -0.59144,-0.695633 -2.72822,-1.948247 -4.20703,-2.464843 -1.74897,-0.610964 -4.51697,-0.983496 -7.31446,-0.984375 h -2.42773 l 0.73047,-0.949219 c 0.40149,-0.521592 1.0431,-1.532339 1.42578,-2.246094 1.36482,-2.545589 2.88058,-4.817236 3.53906,-5.300781 0.65653,-0.482114 0.66017,-0.493508 0.1836,-0.613281 -0.30471,-0.07658 -0.48438,-0.275732 -0.48438,-0.535157 0,-0.388792 -0.0362,-0.381552 -0.60547,0.123047 -0.33289,0.295059 -0.80386,0.53711 -1.04687,0.53711 -0.24299,0 -1.93806,0.437993 -3.76563,0.972656 -1.82757,0.53465 -4.00316,1.032782 -4.83398,1.107422 -0.83084,0.07463 -1.73869,0.187703 -2.01758,0.251953 -0.11049,0.02544 -0.17986,0.02957 -0.20508,0.0078 l -0.002,-0.002 -0.002,-0.002 -0.002,-0.002 v -0.002 l -0.002,-0.002 c -2.9e-4,-8.53e-4 -0.002,-0.005 -0.002,-0.0059 -0.0122,-0.07875 0.22379,-0.310267 0.75586,-0.759765 0.57561,-0.486289 1.32191,-0.993952 1.66015,-1.128907 0.33826,-0.134955 0.6631,-0.41165 0.72071,-0.615234 0.0576,-0.203586 0.33833,-0.468998 0.625,-0.589844 0.70171,-0.295796 0.65754,-0.615394 -0.125,-0.888672 -0.33937,-0.118514 -0.62093,-0.270505 -0.64649,-0.345703 -5.6e-4,-0.0024 -0.002,-0.0076 -0.002,-0.0098 0,-0.0011 -1.8e-4,-0.0027 0,-0.0039 0.0218,-0.07552 0.37937,-0.259265 0.81054,-0.41211 l 0.8086,-0.287109 -1.6836,-0.0332 c -2.65915,-0.05283 -5.59814,0.51934 -8.40429,1.634765 -0.4461,0.177313 -0.69912,0.256365 -0.75586,0.238281 -9.5e-4,-4.2e-4 -0.005,-0.0015 -0.006,-0.002 l -0.002,-0.002 -0.002,-0.002 v -0.002 h -0.002 v -0.002 -0.002 -0.002 c 1.2e-4,-0.0019 0.001,-0.0057 0.002,-0.0078 0.0321,-0.07433 0.36892,-0.303137 1.00977,-0.683594 1.08391,-0.64351 2.72265,-2.253031 2.72265,-2.673828 0,-0.141265 -0.58919,-0.309745 -1.45898,-0.417968 -0.35279,-0.04389 -0.69539,-0.06754 -1.0293,-0.07227 z" /></svg>
