<svg xmlns="http://www.w3.org/2000/svg" xml:space="preserve" width="256" height="256"><path d="M255 128a127 127 0 0 1-127 127A127 127 0 0 1 1 128 127 127 0 0 1 128 1a127 127 0 0 1 127 127" style="fill:#6c7ae9;fill-rule:evenodd;stroke-width:2.20571"/><path d="m191.752 52.127-.016.018h.01l.002-.004.002-.004v-.004zm-.016.018c-.325 0-.595.049-.634.107l-.004.01v.002c0 .066-.14.119-.307.119-.406 0-2.108.601-5.031 1.777-2.357.948-3.273 1.255-4.356 1.46-.76.142-2.681.715-4.367 1.3-.79.274-2.782.95-4.428 1.5-2.423.811-4.547 1.593-6.279 2.313l-.022.003h-.002l-.002-.002v-.002h-.002v-.007c-.007-.054.11-.256.307-.512.534-.696.84-1.329.729-1.508-.268-.433-1.78.427-3.936 2.236-.79.663-2.378 1.977-3.53 2.922a435 435 0 0 0-2.693 2.223c-6.211 5.246-6.785 5.753-9.629 8.472-1.021.977-2.162 1.982-2.533 2.237-.37.254-.862.683-1.092.951-.408.477-.456.497-2.197.9l-2.047.477c-.24.058-.256.03-.191-.297.08-.399-.111-.724-.422-.717-.245.005-.874.312-1.572.768-.671.438-4.266 2.113-6.102 2.844-.757.3-2.777 1.006-4.488 1.568-3.083 1.012-5.444 1.816-7.059 2.406-.46.168-.854.309-.877.309v-.008c.011-.042.17-.28.375-.563.754-1.035.654-1.486-.236-1.062-.479.228-1.98 1.32-2.654 1.928l-.453.41.054-.653c.054-.646.05-.654-.277-.654-.235 0-.44.13-.703.444-.205.243-1.852 1.953-3.662 3.798-1.81 1.846-3.882 4.014-4.602 4.819-.719.804-1.322 1.446-1.342 1.427h-.002v-.004c-.01-.038.024-.23.084-.441.13-.454.161-1.824.043-1.941-.143-.144-.72.26-1.021.714-1.545 2.333-1.904 3-2.555 4.725-.503 1.334-.664 1.628-1.344 2.504l-.517.668-3.137.078c-1.725.043-4.079.08-5.23.08s-2.55.052-3.11.113c-1.386.154-1.973.211-2.062.149l-.002-.002-.002-.002-.002-.002h-.002v-.014c.012-.05.159-.138.394-.266 1.641-.886 1.993-1.187 1.842-1.58-.104-.272-1.438-.247-2.365.043a31 31 0 0 1-1.87.488c-2.482.566-4.797 1.373-7.716 2.692a57 57 0 0 0-3.883 1.928c-1.041.571-3.829 1.84-4.043 1.84h-.004v-.007c.017-.049.193-.263.426-.515.525-.57.863-1.141.863-1.46 0-.35-.742-.12-2.004.62-1.468.862-2.19 1.4-3.017 2.248-.349.357-.68.654-.746.672h-.002c-.052 0-.094-.132-.094-.293 0-.419-.19-.479-.63-.201-1.741 1.094-2.892 1.583-4.276 1.816-.494.083-1.003.203-1.131.268s-.99.165-1.914.22c-2.513.152-4.505.315-4.942.409-.21.045-.329.06-.357.023l-.006-.004v-.004h-.002c-.01-.056.104-.19.342-.428.24-.24.353-.46.328-.636-.034-.238-.1-.27-.574-.252-.333.012-.907.189-1.498.46a60 60 0 0 1-1.332.596l-.377.158.062-.457c.13-.966-.539-.833-2.576.506l-1.111.73-2.717.387c-3.004.428-3.002.427-5.29.85-1.436.266-1.93.38-3.29.76-.901.252-2.738.67-4.188.953-.395.077-.906.187-1.136.242-.23.056-.958.219-1.616.363-3.18.7-7.376 1.791-9.033 2.35-3.304 1.114-4.763 2.434-6.443 5.842-.698 1.416-1.54 3.84-1.871 5.385-.113.526-.254 1.051-.313 1.166s-.107.497-.107.851c0 .841.416 1.6 1.195 2.172.484.355.616.535.768 1.057.196.675.546 1.081 1.03 1.195.175.041.465.3.683.61.478.677 1.422 1.376 1.863 1.38.418.004.922-.475.922-.879 0-.163.045-.33.103-.365.192-.119.868.312.992.633.3.772.742 1.668 1.03 2.09.335.49 1.035.92 1.504.92.373 0 .918-.433.918-.729 0-.3.202-.295.298.01.244.769 1.434 1.897 2.014 1.91.337.008.918-.642.918-1.025 0-.086.007-.144.025-.164l.002-.002h.008l.002-.002h.012c.06.014.193.196.469.61.283.423.793.977 1.133 1.232l.617.463-.336.336a2.7 2.7 0 0 0-.488.705c-.172.414-.185.417-.705.236-.318-.11-.442-.093-.795.115l-.213.127a7.75 5.206 0 0 0-.205-.014v-.183c0-.68-.386-1.71-.758-2.024-.708-.595-1.516-.176-2.227 1.157-.29.546-.447.712-.726.773a1.2 1.2 0 0 0-.582.365l-.227.29-.07-.354c-.086-.43-.472-.84-.791-.84-.599 0-1.585 1.426-1.924 2.781-.11.44-.222.608-.5.746-.33.165-.384.16-.662-.058-.511-.403-1.084-.262-1.396.343-.507.98-.664 3.437-.284 4.43.139.362.132.42-.064.54-.611.371-.612.373-.438.806.271.67.866 1.305 2.454 2.621 2.008 1.665 3.992 3.043 4.732 3.289.77.256 1.333.192 2.684-.303.592-.217 1.267-.435 1.498-.484.23-.05.848-.206 1.375-.352 1.722-.475 2.382-.588 4.771-.818 1.081-.104 1.056-.117 1.568.871.426.82 2.048 2.526 2.815 2.963.778.443 1.677.63 2.201.457.407-.134.64-.475.49-.719a.3.3 0 0 1-.04-.095v-.004h.001v-.002h.002v-.002h.002l.002-.002h.002c.047-.01.22.08.598.29.83.465 1.73.687 2.781.69.664.001 1.078-.059 1.346-.197.43-.223.595-.646.398-1.014-.217-.406-.158-.422.53-.139.131.055.643.162 1.136.239.859.134.925.128 1.543-.16.356-.166.686-.366.733-.442.094-.153.835.018 2.031.463.362.135 1.25.413 1.975.62a254 254 0 0 1 4.845 1.448c.983.31 2.017.77 2.573 1.143.37.249.742.398.984.398.552 0 .609-.362.23-1.455-.166-.48-.292-.882-.279-.894s.723.16 1.578.387c.856.225 2.39.605 3.41.843 1.824.426 2.032.472 3.35.76.721.158 1.317.297 2.006.473.247.063.662.166.926.228.263.063 1.529.385 2.812.717s3.006.77 3.828.973 1.69.42 1.928.484c.562.15.955.149 1.607-.016.588-.148.703-.438.334-.845-.19-.21-.168-.22.508-.244a17 17 0 0 1 1.272.004c.31.016.905-.033 1.318-.108.413-.074 1.02-.182 1.35-.238a71 71 0 0 0 1.195-.215c2.37-.455 3.273-.613 4.129-.725.761-.099 4.276-1.184 4.941-1.525.239-.122.328-.247.301-.43-.048-.334-.903-.596-1.652-.505l-.54.066.54-.275c.296-.152.924-.448 1.396-.659l.86-.38.884.863c1.985 1.938 1.949 1.924 4.26 1.75l1.623-.123.856.593c1.002.698 1.516.887 2.996 1.1l1.092.156.728 1.207c.939 1.55 1.108 2.191 1.164 4.403.039 1.53.083 1.835.32 2.332.231.483.331.578.65.61.449.043.917-.39 1.134-1.046l.136-.412.22.55c.349.89.823 2.804.823 3.317 0 .26-.062.612-.14.783l-.143.313-1.504-1.486c-2.003-1.98-3.002-2.802-3.53-2.9-.709-.134-1.304.05-3.417 1.06-1.66.792-4.586 2.798-6.027 4.13-.92.852-1.2 2.687-.604 3.97.32.688 1.031 1.608 1.7 2.197 1.66 1.462 4.169 2.558 4.411 1.925.04-.1-.105-.6-.32-1.107-.287-.677-.408-1.164-.45-1.828-.055-.899-.05-.907.329-1.227.678-.57 1.283-.398 2.377.674.416.408.832.884.924 1.059.158.3.14.35-.31.916-.263.33-.552.781-.645 1.004-.162.387-.146.466.406 1.834l.578 1.43-.676.286c-.53.226-.946.299-1.931.336-1.584.06-1.69.084-2.077.471-.256.257-.316.43-.316.9v.583h-.535c-.973 0-1.159.175-1.49 1.4-.198.73-.391.873-1.188.873a6.6 6.6 0 0 0-1.457.215c-.706.196-.873.31-1.869 1.285-1.468 1.438-1.762 2.014-1.768 3.467-.004.873.042 1.159.239 1.496l.242.416 1.371.098c1.927.135 5.445.032 5.682-.165.152-.126.316-.11.927.092 1.612.535 1.658.54 3.625.465 7.155-.273 13.563-.727 16.082-1.14.362-.06 1.022-.162 1.465-.227.983-.143 1.515-.434 1.801-.982.178-.34.21-.638.178-1.657l-.041-1.24.746.07c1.727.162 3.39-.945 3.387-2.254-.001-.679-.125-.826-.612-.724-.22.046-.649.11-.95.144-.505.057-.576.031-.868-.316-.335-.398-.412-.819-.188-1.043a2 2 0 0 0 .274-.414.65.65 0 0 1 .435-.32c.442-.062.58-.224.784-.926.173-.595.168-.672-.041-1.153l-.223-.511.437-1.02c.988-2.292 1.268-2.927 1.377-2.885.039.021.057.131.078.284.051.357.62.433.965.129.278-.246 1.04-1.804 1.35-2.76.21-.65.277-.718.496-.498.071.071.251.11.4.088.506-.075.636-.738.635-3.24v-2.245l.309.203c.365.24 1.812 1.104 2.824 1.688.395.228.904.521 1.135.656.6.351 1.286.686 1.412.686.06 0 .723.29 1.474.648 2.128 1.011 3.118 1.173 3.194.518.025-.215-.026-.358-.149-.405-.103-.04-.187-.112-.187-.162v-.004h.002l.002-.002c.046-.027.274.013.543.102.564.185.659.179 3.277-.197 1.012-.146.656-.579-1.043-1.27l-.677-.275.65-.123c2.622-.498 3.544-.69 4.54-.948 1.706-.439 1.813-.468 2.395-.666.787-.266 2.846-.876 3.47-1.027.295-.072.996-.235 1.556-.363.888-.203 1.605-.414 3.35-.987.622-.204 1.435-.913 1.435-1.25 0-.369-.324-.525-1.078-.525-.298 0-.536-.043-.574-.096l-.004-.01v-.013c.022-.063.606-.694 1.298-1.405 1.21-1.24 2.33-2.456 4.579-4.97.613-.686.915-.99 1.005-.928.067.058.005.346-.134.861-.304 1.117-.386 1.317-1.356 3.328-1.146 2.38-1.164 2.433-.926 2.631.152.126.266.12.631-.035.246-.104.791-.222 1.213-.264a5.2 5.2 0 0 0 2.985-1.318c.932-.86 1.062-.883 1.638-.287.506.522 1.219.945 1.588.945.124 0 .569.23.99.51.422.279 1.089.669 1.48.867 1.204.608 2.012 1.993 2.202 3.77.102.953.232 1.115.824 1.029.377-.055.389-.043.389.371 0 .959.814 1.622 1.697 1.387l.469-.125.365.72.361.72-.359.36-.36.36-1.261-.129c-.781-.079-1.592-.085-2.133-.021-.48.056-1.374.163-1.986.234-1.461.17-1.937.373-2.639 1.14-.638.698-1.556 2.373-1.867 3.407-.92 3.054-.61 6.365.686 7.342 1.575 1.188 3.464 1.81 5.921 1.95 1.302.075 1.398-.01 1.051-.904a7 7 0 0 1-.303-1.029 24 24 0 0 0-.343-1.426c-.205-.761-.23-1.036-.131-1.4.167-.621.672-.968 1.34-.92l.51.037-.034.717c-.018.395-.097 1.06-.174 1.477-.13.704-.122.796.127 1.265.432.814 1.42 1.954 1.973 2.277.467.274.523.361.654.999.08.384.145.922.145 1.197 0 .479-.024.513-.596.803-.641.325-1.496 1.262-2.523 2.771-.824 1.21-.995 1.694-.914 2.578.079.87.314 1.16 1.023 1.256.256.034.47.106.496.162v.006l.002.004v.002l.002.002c.049.051.379.094.774.094.394 0 .725-.044.773-.096l.002-.002v-.008c0-.206.68-.358 2.154-.488a76 76 0 0 0 2.393-.248c1.178-.152 3.555-.148 3.65.008.147.237.87.126 1.246-.192.213-.178.306-.244.344-.216.02.017.024.062.024.132 0 .43.222.505 1.279.43.702-.05 1.087-.025 1.285.08.417.223 3.611.067 7.19-.351.592-.07 1.504-.173 2.03-.233 1.084-.122 1.479-.22 1.737-.428.099-.079.43-.261.736-.406a5.7 5.7 0 0 0 1.082-.722l.522-.461-.023-6.682c-.027-7.244-.216-15.039-.397-16.377-.192-1.422-.375-2.087-.668-2.436l-.281-.334.62-.42c.547-.367.622-.465.622-.826 0-.396-.023-.42-.717-.638-1.457-.459-1.694-.56-2.074-.881-.278-.235-.475-.584-.693-1.227-.355-1.043-2.44-9.247-2.368-9.32v-.004l.002-.002h.006c.04-.009.15.055.26.154.278.252.782.257.987.01.42-.506-.131-2.283-1.842-5.941-.256-.546-.36-.851-.323-.92l.002-.002v-.004h.002v-.002h.004v-.002h.004c.033 0 .093.038.17.11.063.057.4.198.752.312.504.163.704.18.936.074.52-.237.193-.798-1.488-2.555-.533-.557-.944-1.058-.938-1.14v-.01c.035-.057.249-.38.477-.719.702-1.044.874-1.682.941-3.523.032-.878.018-1.624-.031-1.7v-.002h-.002v-.004h-.002v-.002c-.069-.023-.403.084-.754.244-.362.166-.691.3-.732.3s-.865.38-1.829.845c-1.88.906-1.828.9-2.54.35l-.3-.233.72-.691c1.295-1.249 2.093-2.416 2.093-3.063 0-.159.084-.359.186-.443.758-.63-1.19-1.534-3.008-1.397-.876.066-.983.039-1.186-.289-.523-.846-1.4-2.001-1.564-2.064-.166-.064-.19-.198-.143-.758.03-.351.108-.661.174-.717l.004-.004h.002c.07-.023.103-.237.074-.486-.028-.244-.008-1.062.047-1.818l.1-1.377.193.44c.201.454.65.794.815.618.123-.132.217-.884.31-2.45.086-1.45 0-1.962-.865-5.067-.479-1.719-.63-2.239-.608-2.31v-.003h.002v-.002h.012c.029.015.087.092.159.174.31.354.695.54.933.45.175-.068.193-.202.131-.987-.103-1.308-.267-2.702-.65-5.512-.056-.41-.08-.597-.057-.635v-.002h.002v-.002h.008c.024.011.066.07.125.159.427.647.76.957 1.033.957.769 0 .696-1.292-.173-3.04-1.025-2.06-3.696-6.4-5.12-8.32-.412-.555-.735-1.024-.718-1.04.016-.017.364.135.771.337 1 .496 1.143.424 1.074-.531-.065-.918-.868-2.931-1.611-4.037-.28-.416-.508-.83-.508-.92s.303-.529.674-.97c.371-.443.833-.993 1.025-1.224.552-.661 2.262-2.383 2.788-2.808 1.296-1.047 2.449-1.367 4.986-1.375.762-.003 1.28-.053 1.357-.129l.004-.004c.119-.192-.647-.943-1.232-1.207-.262-.118-.482-.245-.508-.293v-.01c0-.04 1.018-.04 2.264-.006 1.962.056 2.277.04 2.338-.119a.7.7 0 0 0 0-.398c-.082-.258-1.682-1.309-1.993-1.309-.12 0-.217-.039-.216-.088v-.006c.051-.138 1.138-.824 2.271-1.43a181 181 0 0 0 1.715-.93l.82-.45.438.21c1.442.696 2.728.857 3.293.413.173-.137.316-.324.316-.418 0-.077.018-.143.043-.164l.012-.006h.002v-.002h.002c.034 0 .693.366 1.465.814s1.503.855 1.625.9c.121.046.249.19.283.319.042.162.196.256.496.3.24.036.76.114 1.154.175 2.025.311 4.77.603 5.674.603.411 0 .297-.415-.38-1.406a56 56 0 0 1-.73-1.084l-.007-.012v-.008h.002v-.002h.006c.06.012.318.189.654.451 1.727 1.352 3.543 2.34 4.982 2.713.603.156 1.412.194 4.069.2 1.824.003 3.476-.03 3.674-.077 1.027-.24 2.467-.864 2.642-1.148.115-.186-.247-.442-.767-.54-.241-.044-.912-.44-1.582-.929-.64-.468-1.265-.919-1.387-1.004a.7.7 0 0 1-.139-.11v-.009h.002v-.002h.004a1 1 0 0 1 .211.039c.165.041.85.12 1.522.176.672.054 1.271.13 1.332.168v.002c.072.033.54-.04 1.05-.164 2.276-.555 3.033-.725 3.243-.725.273 0 .511-.221.511-.477 0-.274-.545-.555-1.5-.773-.91-.208-2.559-.762-2.74-.922l-.006-.004v-.002l-.002-.002v-.01l.002-.002v-.004c.053-.045.422-.081.9-.082 1.74-.004 4.021-.557 4.65-1.127.105-.094.343-.228.528-.299.251-.095.327-.194.3-.39-.032-.211-.242-.337-1.058-.633-1.308-.475-1.948-.76-4.066-1.816l-1.734-.868 1.222-.004c.674-.003 1.456-.057 1.737-.119.28-.062.806-.177 1.168-.254a4.8 4.8 0 0 0 1.148-.42c.556-.317 1.783-1.645 1.783-1.93 0-.24-.926-.54-3.111-1.003-.921-.195-2.12-.489-2.664-.654-2.194-.668-3.04-.891-3.381-.891-.49 0-.438-.133.158-.422 3.15-1.524 3.726-1.932 3.045-2.148-.366-.117-3.437-.407-4.387-.414-.356-.003-.636-.028-.691-.059l-.006-.004v-.006h-.002v-.01l.002-.002c.039-.038.514-.224 1.057-.412.948-.328 1.564-.734 1.386-.912-.141-.141-1.638-.33-2.654-.332-.526-.001-1.737.072-2.691.16-1.954.182-6.903.102-7.711-.123-1.213-.337-5.415-2.48-7.783-3.969-3.043-1.912-6.803-4.936-10.292-8.279l-1.076-1.031.479.049c.715.072 1.015-.081 1.015-.51 0-.516-.526-1.052-1.716-1.744-.563-.327-1.027-.622-1.03-.656v-.004l.002-.002v-.004l.002-.002c.049-.042.335-.134.678-.213 1.176-.273 1.603-.61 1.195-.944-.082-.067-.5-.274-.927-.459-.777-.334-.782-.334-3.47-.33-1.48.002-3.245.074-3.923.158-.758.095-1.26.113-1.334.067l-.006-.004-.002-.002v-.012l.002-.002v-.002c.023-.027.124-.066.315-.113.513-.128 2.027-.857 2.193-1.057a.5.5 0 0 0 .066-.418c-.065-.207-.178-.246-.728-.246z" style="fill:#000;fill-rule:evenodd;stroke-width:2.20571"/></svg>