<?xml version="1.0" encoding="UTF-8" standalone="no"?>
<svg
   xml:space="preserve"
   width="256"
   height="256"
   version="1.1"
   id="svg2"
   xmlns="http://www.w3.org/2000/svg"
   xmlns:svg="http://www.w3.org/2000/svg"><defs
     id="defs2" /><path
     d="M 255,128 A 127,127 0 0 1 128,255 127,127 0 0 1 1,128 127,127 0 0 1 128,1 127,127 0 0 1 255,128"
     style="fill:#6c7ae9;fill-rule:evenodd;stroke-width:2.20571"
     id="path1" /><path
     id="path1-6"
     style="fill:#000000;fill-rule:evenodd;stroke-width:2.20571"
     d="m 191.75195,52.126953 -0.0156,0.01758 c 0.004,-1.1e-5 0.006,0 0.01,0 l 0.002,-0.0039 0.002,-0.0039 v -0.0039 z m -0.0156,0.01758 c -0.32514,10e-4 -0.59485,0.04929 -0.63477,0.107422 -6.5e-4,0.0022 -0.003,0.0068 -0.004,0.0098 v 0.002 c 0,0.06581 -0.13938,0.119141 -0.30664,0.11914 -0.40582,0 -2.10771,0.601189 -5.03125,1.777344 -2.35703,0.948249 -3.27312,1.255257 -4.35547,1.458985 -0.75947,0.142956 -2.68119,0.715757 -4.36719,1.300781 -0.78971,0.274017 -2.78253,0.949288 -4.42773,1.5 -2.42332,0.811186 -4.54732,1.593323 -6.2793,2.3125 -0.006,0.0026 -0.0131,0.0034 -0.0176,0.0039 -7.2e-4,1.8e-5 -0.003,6.9e-5 -0.004,0 h -0.002 l -0.002,-0.002 v -0.002 h -0.002 v -0.0039 -0.002 -0.002 c -0.007,-0.05327 0.10977,-0.255209 0.30665,-0.511718 0.53403,-0.695841 0.83939,-1.328398 0.72851,-1.507813 -0.26777,-0.433282 -1.78026,0.426926 -3.93555,2.236328 -0.7897,0.662965 -2.37765,1.976631 -3.52929,2.921875 -1.15164,0.945252 -2.36433,1.94476 -2.69336,2.222657 -6.21144,5.245994 -6.78513,5.753429 -9.62891,8.472656 -1.02169,0.976944 -2.16204,1.981833 -2.5332,2.236328 -0.37117,0.254504 -0.86225,0.682996 -1.0918,0.951172 -0.40829,0.476998 -0.4565,0.497271 -2.19726,0.90039 -0.97868,0.226642 -1.90027,0.441522 -2.04688,0.476563 -0.24121,0.05757 -0.25659,0.02914 -0.19141,-0.296875 0.0798,-0.398791 -0.1113,-0.723667 -0.42187,-0.716797 -0.24455,0.0051 -0.87383,0.311759 -1.57227,0.767578 -0.67125,0.438083 -4.26533,2.113365 -6.10156,2.84375 -0.75679,0.301026 -2.77727,1.006661 -4.48828,1.568359 -3.08299,1.012106 -5.44419,1.816468 -7.05859,2.40625 -0.46037,0.168189 -0.85463,0.308594 -0.87696,0.308594 v -0.002 -0.002 -0.0039 c 0.0111,-0.04187 0.16874,-0.279218 0.375,-0.5625 0.75413,-1.035662 0.65347,-1.486815 -0.23632,-1.0625 -0.47877,0.228317 -1.98074,1.319212 -2.6543,1.927734 l -0.45313,0.410156 0.0547,-0.652343 c 0.0537,-0.646663 0.05,-0.654297 -0.27734,-0.654297 -0.23463,0 -0.43909,0.128959 -0.70313,0.443359 -0.20467,0.243716 -1.85171,1.953131 -3.66211,3.798828 -1.81041,1.845698 -3.88206,4.013985 -4.60156,4.81836 -0.71904,0.803876 -1.32202,1.445968 -1.3418,1.427734 h -0.002 v -0.002 -0.002 c -0.0113,-0.03848 0.0235,-0.229974 0.084,-0.441407 0.13028,-0.45428 0.16066,-1.823666 0.043,-1.941406 -0.14332,-0.143325 -0.72045,0.26052 -1.02148,0.714844 -1.54534,2.332254 -1.90349,2.999047 -2.55469,4.724609 -0.50335,1.333807 -0.66429,1.627957 -1.34375,2.503907 l -0.51758,0.66796 -3.136716,0.0781 c -1.72505,0.0433 -4.078818,0.0798 -5.230468,0.0801 -1.15164,3.2e-4 -2.550008,0.0514 -3.109375,0.11328 -1.386719,0.15346 -1.973274,0.21063 -2.0625,0.14844 l -0.002,-0.002 -0.002,-0.002 -0.002,-0.002 h -0.002 v -0.002 -0.002 c -7.9e-5,-3.9e-4 -3.6e-5,-0.003 0,-0.004 3.6e-5,-7.1e-4 -1.21e-4,-0.005 0,-0.006 0.01171,-0.05 0.158832,-0.13835 0.394531,-0.26562 1.641074,-0.88604 1.992461,-1.18749 1.841797,-1.58008 -0.104377,-0.27198 -1.438525,-0.24714 -2.365234,0.043 -0.403484,0.12632 -1.243967,0.34598 -1.869141,0.48828 -2.482571,0.5651 -4.797636,1.37207 -7.716797,2.69141 -1.390896,0.62861 -2.710416,1.28401 -3.882812,1.92773 -1.041389,0.57181 -3.82891,1.83985 -4.042969,1.83985 h -0.002 -0.002 v -0.002 c 5e-5,-3.4e-4 4.3e-5,-0.003 0,-0.004 0.01728,-0.0491 0.193002,-0.2631 0.425781,-0.51563 0.524746,-0.56928 0.863281,-1.14093 0.863281,-1.45898 0,-0.35013 -0.742483,-0.12164 -2.003906,0.61914 -1.468191,0.86221 -2.189562,1.39944 -3.017578,2.24805 -0.348543,0.3572 -0.679166,0.65393 -0.746094,0.67187 h -0.002 c -0.05162,0 -0.09375,-0.13233 -0.09375,-0.29297 0,-0.41852 -0.18937,-0.47873 -0.630859,-0.20117 -1.740075,1.09398 -2.890828,1.58276 -4.275391,1.81641 -0.493559,0.0833 -1.0025,0.20282 -1.130859,0.26757 -0.128345,0.0648 -0.989482,0.16504 -1.914063,0.22071 -2.513022,0.1512 -4.504515,0.31478 -4.941406,0.4082 -0.210709,0.0451 -0.328913,0.06 -0.357422,0.0234 -9.3e-5,-1.8e-4 -0.0045,-0.003 -0.0059,-0.004 v -0.002 -0.002 h -0.002 c -0.01028,-0.0563 0.103506,-0.18944 0.341796,-0.42773 0.239819,-0.23982 0.353114,-0.46047 0.328126,-0.63672 -0.03384,-0.23805 -0.0994,-0.2693 -0.574219,-0.25195 -0.332664,0.0122 -0.906629,0.18923 -1.498047,0.46094 -0.52646,0.24188 -1.125256,0.50923 -1.332031,0.5957 l -0.376953,0.1582 0.0625,-0.45703 c 0.129658,-0.96668 -0.539011,-0.83382 -2.576172,0.50586 l -1.111328,0.73047 -2.716797,0.38672 c -3.003689,0.42713 -3.001688,0.42639 -5.289063,0.84961 -1.436941,0.26588 -1.930621,0.3791 -3.291016,0.75976 -0.901162,0.25216 -2.737912,0.67027 -4.1875,0.95313 -0.394847,0.077 -0.906391,0.18679 -1.136718,0.24219 -0.230327,0.0554 -0.957149,0.21867 -1.615235,0.36328 -3.180276,0.69889 -7.376041,1.79083 -9.033203,2.34961 -3.304551,1.11426 -4.763085,2.43409 -6.443359,5.84179 -0.6982031,1.41605 -1.5395949,3.83924 -1.8710939,5.38477 -0.112922,0.52647 -0.253325,1.05174 -0.3125,1.16601 -0.05909,0.11427 -0.1074219,0.49703 -0.1074219,0.85157 0,0.84118 0.4159316,1.59974 1.1953126,2.17187 0.4839462,0.35524 0.6160072,0.53526 0.7675782,1.05664 0.196402,0.6756 0.546445,1.08127 1.03125,1.19531 0.174295,0.041 0.464059,0.30069 0.68164,0.60938 0.477952,0.67807 1.42282,1.37656 1.863282,1.38086 0.417986,0.004 0.921892,-0.47532 0.921875,-0.87891 0,-0.16362 0.04572,-0.3295 0.103515,-0.36523 0.192245,-0.11881 0.867621,0.31206 0.992188,0.63281 0.299679,0.7716 0.741573,1.66822 1.029297,2.08985 0.3349,0.49076 1.03566,0.91993 1.503906,0.91992 0.373351,0 0.917969,-0.43312 0.917969,-0.72852 0,-0.30108 0.202473,-0.29506 0.298828,0.01 0.243879,0.76838 1.433973,1.89684 2.013672,1.91015 0.336498,0.008 0.917968,-0.64185 0.917968,-1.02539 0,-0.0859 0.0071,-0.14427 0.02539,-0.16406 l 0.002,-0.002 h 0.0039 0.002 0.002 l 0.002,-0.002 h 0.002 0.002 0.002 0.002 c 8.57e-4,-3e-5 0.0031,-7e-5 0.0039,0 0.06003,0.014 0.192363,0.1959 0.46875,0.60938 0.283215,0.42369 0.793247,0.97817 1.132812,1.23242 l 0.617188,0.46289 -0.335938,0.33594 c -0.184979,0.18497 -0.404458,0.50268 -0.488281,0.70508 -0.171591,0.41427 -0.184314,0.41787 -0.705078,0.23633 -0.317604,-0.11072 -0.442157,-0.0929 -0.794922,0.11523 l -0.212891,0.12695 a 7.7497735,5.2059544 0 0 0 -0.205078,-0.0137 v -0.18359 c 0,-0.68059 -0.385508,-1.71017 -0.757812,-2.02344 -0.708045,-0.59579 -1.516421,-0.17611 -2.226563,1.15625 -0.291168,0.5463 -0.447607,0.7122 -0.726562,0.77344 -0.195406,0.0429 -0.457593,0.20703 -0.582032,0.36523 l -0.226562,0.28906 -0.07031,-0.35351 c -0.08588,-0.42931 -0.47172,-0.83985 -0.791015,-0.83985 -0.598714,0 -1.584934,1.42648 -1.923828,2.78125 -0.109795,0.4389 -0.221724,0.60728 -0.5,0.7461 -0.330907,0.1651 -0.384409,0.16006 -0.66211,-0.0586 -0.511395,-0.40226 -1.083561,-0.26137 -1.396484,0.34375 -0.506594,0.97964 -0.663485,3.43693 -0.283203,4.42969 0.138653,0.36204 0.132064,0.41941 -0.06445,0.53906 -0.611313,0.37206 -0.612277,0.37364 -0.4375,0.80665 0.270744,0.67078 0.86546,1.30537 2.453125,2.62109 2.008588,1.66456 3.99216,3.04319 4.732421,3.28906 0.769232,0.2555 1.333341,0.19215 2.683594,-0.30273 0.592272,-0.21708 1.267711,-0.43542 1.498047,-0.48438 0.230327,-0.049 0.848533,-0.20642 1.375,-0.35156 1.722676,-0.47491 2.382238,-0.58833 4.771485,-0.81836 1.081396,-0.10411 1.055925,-0.11674 1.568359,0.87109 0.425639,0.82049 2.047397,2.52595 2.814453,2.96289 0.777681,0.44301 1.676647,0.63015 2.201172,0.45704 0.407018,-0.13432 0.640562,-0.47553 0.490234,-0.71875 -0.02577,-0.0416 -0.04035,-0.0775 -0.04102,-0.0957 v -0.002 -0.002 h 0.002 v -0.002 h 0.002 v -0.002 h 0.002 l 0.002,-0.002 h 0.002 c 0.04648,-0.0101 0.219369,0.0795 0.597656,0.29101 0.830779,0.46433 1.729267,0.68689 2.78125,0.68946 0.664272,0.001 1.078169,-0.0589 1.345704,-0.19727 0.429859,-0.22229 0.595524,-0.64542 0.398437,-1.01367 -0.217342,-0.4061 -0.158722,-0.42165 0.529297,-0.13867 0.131608,0.0541 0.643159,0.16116 1.136719,0.23828 0.858424,0.13418 0.925055,0.12791 1.542969,-0.16016 0.35526,-0.16563 0.685356,-0.36525 0.732421,-0.4414 0.0945,-0.15292 0.835499,0.0174 2.03125,0.46289 0.361945,0.13485 1.25072,0.41322 1.97461,0.61914 1.197257,0.34057 3.802037,1.11972 4.845703,1.44921 0.983121,0.3104 2.016232,0.76978 2.572266,1.14258 0.37109,0.24879 0.742942,0.39844 0.984374,0.39844 0.552107,0 0.608871,-0.36257 0.230469,-1.45508 -0.166457,-0.48054 -0.29192,-0.8819 -0.279297,-0.89453 0.01264,-0.0126 0.722713,0.16083 1.578125,0.38672 0.855404,0.2259 2.390138,0.6059 3.410157,0.84375 1.823553,0.42522 2.031625,0.47181 3.349609,0.75977 0.721098,0.15756 1.316704,0.29727 2.005859,0.47265 0.246779,0.0628 0.662559,0.16608 0.925782,0.22852 0.263237,0.0624 1.529237,0.38496 2.8125,0.71679 1.28325,0.33181 3.005528,0.76962 3.828125,0.97266 0.822604,0.20302 1.689772,0.42056 1.927734,0.48438 0.562402,0.15078 0.954995,0.14857 1.607422,-0.0156 0.587641,-0.14797 0.702283,-0.43873 0.333984,-0.8457 -0.18954,-0.20945 -0.168483,-0.21967 0.507813,-0.24414 0.388583,-0.0139 0.960967,-0.013 1.271484,0.004 0.310524,0.0159 0.904986,-0.0329 1.31836,-0.10742 0.413364,-0.0746 1.020572,-0.18202 1.349609,-0.23828 0.329038,-0.0563 0.866267,-0.15172 1.195312,-0.21484 2.370054,-0.45485 3.27346,-0.61314 4.128907,-0.72461 0.761288,-0.0992 4.275926,-1.18471 4.941406,-1.52539 0.23841,-0.12207 0.327231,-0.24717 0.300781,-0.42969 -0.0485,-0.3345 -0.903254,-0.59671 -1.652344,-0.50586 l -0.539062,0.0664 0.539062,-0.2754 c 0.29613,-0.1514 0.923825,-0.448 1.396485,-0.6582 l 0.859375,-0.38086 0.884765,0.86328 c 1.9848,1.93787 1.948628,1.92422 4.259765,1.75 l 1.62305,-0.12304 0.85547,0.59375 c 1.0027,0.69707 1.51646,0.88656 2.99609,1.09961 l 1.0918,0.15625 0.72851,1.20703 c 0.93885,1.55006 1.10823,2.19085 1.16406,4.40234 0.0386,1.53118 0.0829,1.83508 0.32032,2.33203 0.23093,0.48343 0.33094,0.57838 0.65039,0.60938 0.44794,0.0435 0.91648,-0.38941 1.13281,-1.04492 l 0.13672,-0.41211 0.21875,0.55078 c 0.34957,0.88996 0.82422,2.80345 0.82422,3.3164 0,0.26044 -0.0628,0.61218 -0.14063,0.78321 l -0.14258,0.3125 -1.5039,-1.48633 c -2.00314,-1.97953 -3.00194,-2.80145 -3.5293,-2.90039 -0.70973,-0.13314 -1.30497,0.0513 -3.41797,1.06055 -1.6591,0.79241 -4.586,2.79805 -6.02734,4.13085 -0.92026,0.85097 -1.199016,2.68613 -0.603516,3.96875 0.31953,0.68822 1.031199,1.60866 1.699219,2.19727 1.66003,1.46271 4.169407,2.55824 4.412107,1.92578 0.0389,-0.10131 -0.105,-0.6 -0.32031,-1.10742 -0.2872,-0.67683 -0.40816,-1.16434 -0.44922,-1.82813 -0.0556,-0.89841 -0.0514,-0.90722 0.32812,-1.22656 0.67836,-0.57079 1.28264,-0.39814 2.37696,0.67383 0.41624,0.40773 0.83172,0.88412 0.92383,1.05859 0.15823,0.29971 0.14028,0.3498 -0.31055,0.91602 -0.26244,0.32962 -0.55154,0.78134 -0.64453,1.00391 -0.16182,0.38728 -0.14602,0.46639 0.40625,1.83398 l 0.57812,1.42969 -0.67578,0.28711 c -0.52966,0.22565 -0.9467,0.29839 -1.93164,0.33593 -1.58339,0.0603 -1.68966,0.0841 -2.07617,0.47071 -0.25689,0.25691 -0.31641,0.43004 -0.31641,0.90039 v 0.58203 h -0.535152 c -0.97244,0 -1.158424,0.17528 -1.490235,1.40039 -0.19794,0.73079 -0.39077,0.87305 -1.1875,0.87305 -0.375119,0 -1.030581,0.0965 -1.457031,0.21484 -0.70618,0.19581 -0.87328,0.30956 -1.86914,1.28516 -1.46817,1.43837 -1.761568,2.01445 -1.767579,3.46679 -0.004,0.87333 0.04171,1.15897 0.238282,1.4961 l 0.242187,0.41601 1.371094,0.0977 c 1.92683,0.13514 5.444721,0.0325 5.681641,-0.16406 0.15277,-0.12679 0.316566,-0.1109 0.927733,0.0918 1.61135,0.53428 1.65793,0.54 3.625,0.46485 7.15463,-0.2732 13.56242,-0.72672 16.08203,-1.14063 0.36194,-0.0594 1.02133,-0.16198 1.46485,-0.22656 0.98251,-0.14308 1.51517,-0.4343 1.80078,-0.98242 0.17763,-0.34025 0.21072,-0.63784 0.17773,-1.65625 l -0.041,-1.24024 0.74609,0.0703 c 1.72725,0.1613 3.39016,-0.9457 3.38672,-2.25391 -10e-4,-0.67935 -0.12491,-0.82612 -0.61133,-0.72461 -0.22117,0.0461 -0.64918,0.1107 -0.95117,0.14453 -0.50395,0.0564 -0.57497,0.0308 -0.86719,-0.3164 -0.33465,-0.39771 -0.41196,-0.81851 -0.1875,-1.04297 0.0734,-0.0734 0.19717,-0.26046 0.27344,-0.41407 0.0763,-0.15369 0.27257,-0.29755 0.43554,-0.32031 0.44147,-0.0617 0.57915,-0.22389 0.78321,-0.92578 0.17306,-0.59524 0.1686,-0.67205 -0.041,-1.15234 l -0.22265,-0.51172 0.4375,-1.01953 c 0.98762,-2.29184 1.26794,-2.92748 1.37695,-2.88477 0.0386,0.0209 0.0565,0.13053 0.0781,0.2832 0.0508,0.35731 0.62,0.4335 0.96485,0.12891 0.27762,-0.24519 1.03984,-1.80399 1.34961,-2.75976 0.21084,-0.65058 0.27671,-0.71743 0.49609,-0.49805 0.0714,0.0714 0.251,0.10988 0.40039,0.0879 0.50521,-0.0745 0.63563,-0.73719 0.63477,-3.24024 v -2.24414 l 0.30859,0.20313 c 0.3657,0.24033 1.81183,1.1039 2.82422,1.6875 0.39485,0.22762 0.90443,0.52158 1.13477,0.65625 0.60067,0.35125 1.28647,0.68555 1.4121,0.68555 0.0593,0 0.72299,0.29116 1.47461,0.64843 2.12731,1.01119 3.11803,1.17261 3.19336,0.51758 0.0247,-0.21502 -0.0262,-0.35742 -0.14843,-0.4043 -0.10314,-0.0396 -0.1875,-0.11237 -0.1875,-0.1621 v -0.002 -0.002 h 0.002 l 0.002,-0.002 c 0.0461,-0.0271 0.27373,0.0129 0.54297,0.10156 0.56373,0.18558 0.65882,0.179 3.27734,-0.19727 1.01175,-0.14539 0.65612,-0.57827 -1.04296,-1.26953 l -0.67774,-0.27539 0.65039,-0.12305 c 2.62181,-0.49746 3.54383,-0.69029 4.54102,-0.94726 1.7049,-0.43934 1.81231,-0.46873 2.39453,-0.66602 0.78701,-0.26668 2.84569,-0.87658 3.46875,-1.02734 0.29613,-0.0716 0.99728,-0.23549 1.55664,-0.36328 0.88769,-0.20279 1.60538,-0.41412 3.34961,-0.98633 0.6222,-0.20412 1.43555,-0.91296 1.43555,-1.25 0,-0.36927 -0.32384,-0.52539 -1.07813,-0.52539 -0.29821,0 -0.53558,-0.0434 -0.57422,-0.0957 -6.3e-4,-0.001 -0.003,-0.008 -0.004,-0.01 -1.4e-4,-0.001 -1.7e-4,-0.0109 0,-0.0137 0.0219,-0.063 0.60639,-0.69401 1.29882,-1.4043 1.20882,-1.24 2.32894,-2.45598 4.57813,-4.9707 0.61318,-0.6856 0.91514,-0.99049 1.00586,-0.92774 0.0669,0.0577 0.005,0.34653 -0.13477,0.86133 -0.30335,1.11727 -0.38603,1.31678 -1.35547,3.32813 -1.14662,2.37892 -1.16454,2.43272 -0.92578,2.63086 0.15147,0.1257 0.2656,0.11901 0.63086,-0.0352 0.24527,-0.10357 0.79118,-0.22183 1.21289,-0.26367 1.12175,-0.11117 2.18774,-0.58285 2.98438,-1.31836 0.93228,-0.86075 1.06247,-0.88252 1.63867,-0.28711 0.5053,0.52214 1.21871,0.94531 1.58789,0.94531 0.12402,0 0.56873,0.23076 0.99023,0.50977 0.42151,0.27902 1.08832,0.6691 1.48047,0.86718 1.20342,0.60793 2.0113,1.99259 2.20117,3.76954 0.10186,0.95333 0.23204,1.11555 0.82422,1.02929 0.37668,-0.0549 0.38868,-0.0425 0.38868,0.3711 0,0.95865 0.81421,1.62243 1.69726,1.38672 l 0.46875,-0.125 0.36524,0.7207 0.36132,0.71875 -0.35937,0.36133 -0.35938,0.35937 -1.26172,-0.1289 c -0.78141,-0.079 -1.59206,-0.0854 -2.13281,-0.0215 -0.47982,0.0567 -1.37391,0.16326 -1.98633,0.23438 -1.46086,0.1697 -1.93732,0.37325 -2.63867,1.14062 -0.63775,0.6978 -1.55613,2.37261 -1.86719,3.40625 -0.91921,3.05454 -0.6093,6.36484 0.68555,7.3418 1.5755,1.18871 3.46464,1.81092 5.92188,1.95117 1.30137,0.0743 1.39786,-0.0102 1.05078,-0.9043 -0.11759,-0.3031 -0.25431,-0.76606 -0.30274,-1.02929 -0.0484,-0.26323 -0.20339,-0.90487 -0.34375,-1.42578 -0.2052,-0.76146 -0.22889,-1.03635 -0.13086,-1.4004 0.16734,-0.62143 0.67232,-0.96819 1.33985,-0.91992 l 0.50976,0.0371 -0.0332,0.7168 c -0.0185,0.39485 -0.0968,1.0594 -0.17383,1.47656 -0.13002,0.70414 -0.12207,0.7962 0.12696,1.26563 0.43158,0.81352 1.42007,1.95349 1.97265,2.27734 0.46683,0.27358 0.52262,0.36055 0.6543,0.99805 0.0793,0.38403 0.14453,0.92264 0.14453,1.19726 0,0.47878 -0.0236,0.51284 -0.5957,0.80274 -0.64133,0.32498 -1.49583,1.26203 -2.52344,2.77148 -0.82387,1.21018 -0.99427,1.69357 -0.91406,2.57813 0.0789,0.8708 0.31457,1.16079 1.02343,1.25586 0.25603,0.0343 0.47083,0.10645 0.4961,0.1621 v 0.002 0.002 0.002 l 0.002,0.004 v 0.002 l 0.002,0.002 c 0.0483,0.0511 0.37869,0.0937 0.77344,0.0937 0.39474,0 0.72511,-0.044 0.77344,-0.0957 l 0.002,-0.002 v -0.002 -0.004 -0.002 c 0,-0.20583 0.67952,-0.35824 2.1543,-0.48828 0.8226,-0.0726 1.89902,-0.18441 2.39258,-0.24805 1.17812,-0.15139 3.55536,-0.1473 3.65039,0.008 0.1467,0.23736 0.86915,0.12578 1.24609,-0.1914 0.21229,-0.1786 0.30572,-0.24471 0.34375,-0.2168 0.0191,0.0174 0.0234,0.0629 0.0234,0.13281 0,0.42884 0.22269,0.50424 1.2793,0.42969 0.70211,-0.0496 1.08745,-0.0254 1.28515,0.0801 0.4166,0.22297 3.61115,0.0665 7.18946,-0.35156 0.59227,-0.0692 1.50479,-0.17308 2.03125,-0.23243 1.08323,-0.12205 1.47781,-0.22006 1.73632,-0.42773 0.0987,-0.0793 0.4295,-0.26142 0.73633,-0.40625 0.30682,-0.14484 0.79495,-0.46996 1.08203,-0.72266 l 0.52149,-0.46093 -0.0234,-6.68165 c -0.0261,-7.24414 -0.21563,-15.03881 -0.39648,-16.37695 -0.19217,-1.42185 -0.37484,-2.08717 -0.66797,-2.43555 l -0.28125,-0.33398 0.62109,-0.41992 c 0.54658,-0.36782 0.62109,-0.46536 0.62109,-0.82617 0,-0.39645 -0.023,-0.42017 -0.71679,-0.63868 -1.45673,-0.45877 -1.69415,-0.55907 -2.07422,-0.88086 -0.2779,-0.23528 -0.47475,-0.58415 -0.69336,-1.22656 -0.35509,-1.04347 -2.43874,-9.24739 -2.36719,-9.32031 v -0.004 l 0.002,-0.002 h 0.002 0.004 c 0.0393,-0.009 0.15033,0.0553 0.25977,0.1543 0.27786,0.25143 0.78135,0.25634 0.98633,0.01 0.42035,-0.50649 -0.13073,-2.28365 -1.8418,-5.9414 -0.25558,-0.54639 -0.3595,-0.85111 -0.32226,-0.91993 l 0.002,-0.002 v -0.004 h 0.002 v -0.002 h 0.002 0.002 v -0.002 h 0.002 0.002 c 0.0327,2e-4 0.0926,0.038 0.16993,0.10937 0.0625,0.0577 0.39976,0.19819 0.75195,0.3125 0.50389,0.1636 0.70364,0.18002 0.93555,0.0742 0.51937,-0.23664 0.19275,-0.79806 -1.48829,-2.55468 -0.53303,-0.55702 -0.94386,-1.05856 -0.9375,-1.14063 v -0.002 -0.004 -0.004 c 0.0348,-0.0563 0.24883,-0.38033 0.47657,-0.71876 0.7027,-1.04421 0.8739,-1.68206 0.9414,-3.52343 0.0322,-0.87778 0.0178,-1.62347 -0.0312,-1.69922 v -0.002 h -0.002 v -0.004 h -0.002 v -0.002 c -0.0685,-0.0234 -0.40298,0.0836 -0.75391,0.24414 -0.36218,0.16565 -0.69145,0.29882 -0.73242,0.29882 -0.041,0 -0.86433,0.38114 -1.82813,0.84571 -1.88046,0.90643 -1.82878,0.89955 -2.54101,0.34961 l -0.29883,-0.23242 0.71875,-0.69141 c 1.29539,-1.24828 2.09375,-2.41542 2.09375,-3.0625 0,-0.15908 0.0837,-0.35877 0.18555,-0.44336 0.75826,-0.62931 -1.18967,-1.53354 -3.00781,-1.39648 -0.87559,0.066 -0.98304,0.0383 -1.18555,-0.28907 -0.52342,-0.84608 -1.40005,-2.00133 -1.56445,-2.06445 -0.16535,-0.0635 -0.18905,-0.19803 -0.14258,-0.75781 0.0291,-0.35105 0.10767,-0.66123 0.17382,-0.7168 l 0.004,-0.004 h 0.002 c 0.0706,-0.0236 0.1033,-0.23759 0.0742,-0.48632 -0.0283,-0.24353 -0.008,-1.06157 0.0469,-1.81836 l 0.0996,-1.37696 0.19336,0.43946 c 0.20133,0.45493 0.64933,0.79521 0.81445,0.61914 0.12384,-0.13205 0.21776,-0.88472 0.31055,-2.45117 0.0859,-1.44997 -3.8e-4,-1.96155 -0.86524,-5.06641 -0.47852,-1.71831 -0.62916,-2.23857 -0.60742,-2.31055 v -0.002 h 0.002 v -0.002 h 0.004 0.002 0.004 0.002 c 0.0282,0.015 0.0866,0.0922 0.15821,0.17382 0.31016,0.35371 0.69581,0.54046 0.93359,0.44922 0.17482,-0.0671 0.19287,-0.20155 0.13086,-0.98632 -0.10341,-1.30774 -0.26743,-2.70209 -0.65039,-5.51172 -0.0559,-0.41002 -0.0792,-0.59729 -0.0566,-0.63477 v -0.002 h 0.002 v -0.002 h 0.002 0.002 0.002 0.002 c 0.0238,0.0106 0.066,0.0688 0.125,0.15821 0.42696,0.64729 0.76022,0.95703 1.03321,0.95703 0.76864,0 0.69549,-1.29146 -0.17383,-3.03906 -1.02461,-2.05979 -3.69541,-6.40024 -5.11914,-8.32032 -0.41195,-0.55558 -0.73515,-1.0246 -0.71875,-1.04101 0.0164,-0.0164 0.36459,0.13622 0.77148,0.33789 1.00009,0.49571 1.14258,0.4239 1.07422,-0.53125 -0.0656,-0.91756 -0.86859,-2.931 -1.61133,-4.03711 -0.27949,-0.41623 -0.50781,-0.82951 -0.50781,-0.91992 0,-0.0904 0.30244,-0.52849 0.67383,-0.97071 0.3714,-0.44222 0.83331,-0.99233 1.02539,-1.22265 0.55182,-0.661672 2.26132,-2.383847 2.78711,-2.808592 1.29639,-1.047249 2.44901,-1.366411 4.98633,-1.375 0.76247,-0.0025 1.28104,-0.05314 1.35742,-0.128906 0.001,-0.0012 0.003,-0.0027 0.004,-0.0039 0.11868,-0.192048 -0.64751,-0.942677 -1.23242,-1.207031 -0.2622,-0.118496 -0.48165,-0.245036 -0.50781,-0.292969 v -0.002 -0.002 -0.002 -0.002 -0.002 c 0,-0.03951 1.01754,-0.04096 2.26367,-0.0059 1.96241,0.05557 2.2771,0.03938 2.33789,-0.119141 0.0384,-0.100649 0.0383,-0.280113 0,-0.398437 -0.0817,-0.257354 -1.68146,-1.308594 -1.99219,-1.308594 -0.11997,0 -0.21736,-0.03852 -0.21679,-0.08789 2e-5,-8.57e-4 8e-5,-0.0047 0,-0.0059 0.0515,-0.138001 1.1382,-0.824633 2.27148,-1.429687 0.49357,-0.263504 1.26466,-0.681729 1.71485,-0.929688 l 0.82031,-0.451172 0.4375,0.210938 c 1.44246,0.695457 2.72838,0.856221 3.29297,0.412109 0.17339,-0.136385 0.3164,-0.324036 0.3164,-0.417969 0,-0.07632 0.0177,-0.14235 0.043,-0.164062 0.003,-0.0017 0.009,-0.0043 0.0117,-0.0059 h 0.002 v -0.002 h 0.002 c 0.0343,0 0.693,0.366262 1.46484,0.814453 0.77183,0.448192 1.50358,0.854699 1.625,0.900391 0.12141,0.0457 0.24927,0.188698 0.2832,0.318359 0.0425,0.16246 0.19599,0.256466 0.4961,0.300782 0.23953,0.03535 0.75944,0.113021 1.1543,0.173828 2.02504,0.311927 4.7702,0.603515 5.67382,0.603515 0.41094,0 0.29732,-0.415436 -0.38086,-1.40625 -0.34549,-0.504764 -0.67217,-0.992877 -0.72851,-1.083984 -0.003,-0.0043 -0.006,-0.0088 -0.008,-0.01172 v -0.002 -0.002 -0.002 -0.002 h 0.002 v -0.002 h 0.002 c 7.1e-4,2.9e-5 0.003,-1.13e-4 0.004,0 0.0596,0.01235 0.31875,0.188508 0.65429,0.451171 1.72685,1.351807 3.54262,2.340544 4.98243,2.712891 0.60247,0.155759 1.41131,0.194066 4.06836,0.199219 1.82392,0.0034 3.47639,-0.03014 3.67382,-0.07617 1.02703,-0.239679 2.46718,-0.864639 2.64258,-1.148438 0.11496,-0.185992 -0.2475,-0.441497 -0.76758,-0.539062 -0.24096,-0.04521 -0.9119,-0.439926 -1.58203,-0.929688 -0.63994,-0.467676 -1.26462,-0.918879 -1.38672,-1.003906 -0.0822,-0.05723 -0.12934,-0.09239 -0.13867,-0.109375 v -0.002 -0.002 -0.002 -0.002 -0.002 h 0.002 v -0.002 h 0.004 c 0.0222,-0.0039 0.0917,0.0093 0.21094,0.03906 0.16453,0.04114 0.84955,0.1209 1.52148,0.175781 0.67193,0.05485 1.27174,0.130696 1.33203,0.167969 v 0.002 c 0.072,0.03334 0.54078,-0.03977 1.05079,-0.164062 2.27507,-0.554474 3.0324,-0.72461 3.24218,-0.72461 0.27384,0 0.51172,-0.221199 0.51172,-0.476562 0,-0.274248 -0.54565,-0.555667 -1.5,-0.773438 -0.91071,-0.207816 -2.55911,-0.762069 -2.74023,-0.921875 l -0.006,-0.0039 v -0.002 l -0.002,-0.002 v -0.002 -0.0039 -0.002 -0.002 l 0.002,-0.002 v -0.002 -0.002 c 0.0525,-0.04487 0.42144,-0.08129 0.90039,-0.08203 1.73912,-0.0038 4.02094,-0.557303 4.65039,-1.126953 0.10409,-0.09419 0.34193,-0.228316 0.52734,-0.298828 0.25117,-0.09549 0.32726,-0.19472 0.29883,-0.390625 -0.0306,-0.210934 -0.24091,-0.336714 -1.05664,-0.632812 -1.30844,-0.474927 -1.94838,-0.760886 -4.06641,-1.816406 l -1.73437,-0.867188 1.22266,-0.0039 c 0.67359,-0.0034 1.4557,-0.05704 1.73632,-0.119141 0.28063,-0.06206 0.80603,-0.177124 1.16797,-0.253906 0.36195,-0.07679 0.8787,-0.26569 1.14844,-0.419922 0.556,-0.317889 1.7832,-1.64558 1.7832,-1.929687 0,-0.241338 -0.92577,-0.540857 -3.11132,-1.003907 -0.9213,-0.1952 -2.11997,-0.488745 -2.66407,-0.654297 -2.19385,-0.667551 -3.04043,-0.890625 -3.38086,-0.890625 -0.48937,0 -0.43822,-0.133207 0.15821,-0.421875 3.14906,-1.524153 3.72545,-1.932109 3.04492,-2.148437 -0.36585,-0.116297 -3.43684,-0.406334 -4.38672,-0.414063 -0.35629,-0.003 -0.63612,-0.02762 -0.69141,-0.05859 -7.2e-4,-5.78e-4 -0.005,-0.0032 -0.006,-0.0039 v -0.0039 -0.002 h -0.002 v -0.0039 -0.002 -0.002 -0.002 l 0.002,-0.002 c 0.0386,-0.03865 0.51417,-0.224261 1.05665,-0.412109 0.9479,-0.328227 1.56466,-0.734155 1.38671,-0.912109 -0.1415,-0.141487 -1.63849,-0.329456 -2.65429,-0.332032 -0.52647,-0.0014 -1.73719,0.07154 -2.69141,0.160156 -1.95323,0.181389 -6.90285,0.101809 -7.71094,-0.123046 -1.21318,-0.33759 -5.4144,-2.479889 -7.7832,-3.96875 -3.0423,-1.91219 -6.80202,-4.935967 -10.29102,-8.279297 l -1.07617,-1.03125 0.47852,0.04883 c 0.71487,0.07204 1.01562,-0.0809 1.01562,-0.509766 0,-0.51641 -0.52644,-1.051794 -1.71679,-1.74414 -0.56252,-0.32718 -1.02673,-0.621809 -1.0293,-0.65625 v -0.002 -0.002 l 0.002,-0.002 v -0.002 -0.002 l 0.002,-0.002 c 0.0482,-0.04169 0.33481,-0.133322 0.67773,-0.212891 1.17607,-0.272875 1.60324,-0.609558 1.19531,-0.943359 -0.0823,-0.06731 -0.49998,-0.274796 -0.92773,-0.458984 -0.77637,-0.334232 -0.78131,-0.334374 -3.46875,-0.330079 -1.48067,0.0022 -3.24613,0.07377 -3.92383,0.158203 -0.75807,0.09449 -1.25967,0.112098 -1.33398,0.06641 -7.1e-4,-5.77e-4 -0.005,-0.0032 -0.006,-0.0039 l -0.002,-0.002 v -0.002 -0.002 -0.002 -0.002 -0.002 -0.002 l 0.002,-0.002 v -0.002 c 0.0226,-0.02666 0.12402,-0.06587 0.31445,-0.113281 0.51387,-0.127934 2.02784,-0.857198 2.19336,-1.056641 0.0795,-0.09591 0.10927,-0.283188 0.0664,-0.417968 -0.0658,-0.207335 -0.1785,-0.246094 -0.72851,-0.246094 z" /></svg>
