<?xml version="1.0" encoding="UTF-8" standalone="no"?>
<svg
   xml:space="preserve"
   width="256"
   height="256"
   version="1.1"
   id="svg2"
   xmlns="http://www.w3.org/2000/svg"
   xmlns:svg="http://www.w3.org/2000/svg"><defs
     id="defs2" /><path
     id="path2"
     style="fill:#ffffff;fill-rule:evenodd;stroke-width:0.915874"
     d="m 128.58398,62.34375 a 66.630135,66.630135 0 0 0 -66.628902,66.63086 66.630135,66.630135 0 0 0 66.628902,66.62891 66.630135,66.630135 0 0 0 66.63086,-66.62891 66.630135,66.630135 0 0 0 -66.63086,-66.63086 z M 128,76.925781 a 53.249536,52.048499 0 0 1 53.24805,52.048829 53.249536,52.048499 0 0 1 -10.59375,31.08594 c -0.363,-0.19758 -0.69599,-0.38702 -0.93946,-0.53516 l -1.23437,-0.75 0.91797,-0.0508 c 0.50476,-0.0282 0.9289,-0.0565 0.9414,-0.0625 0.11141,-0.0494 -0.0373,-0.27604 -0.29687,-0.45508 -0.53885,-0.37166 -1.25435,-0.61774 -2.7832,-0.95898 -0.80791,-0.18034 -1.50092,-0.35613 -1.54102,-0.39063 v -0.002 l -0.002,-0.002 v -0.002 -0.002 -0.002 -0.002 c 0.0352,-0.0513 0.35793,-0.18614 0.77148,-0.3164 0.46308,-0.14588 0.89288,-0.30351 0.95508,-0.34961 0.1772,-0.13146 0.13331,-0.30611 -0.13672,-0.55274 -0.13685,-0.12499 -0.4103,-0.38529 -0.60937,-0.57812 -0.61392,-0.59474 -2.16528,-1.13663 -3.26563,-1.14063 -0.33258,-0.001 -0.40879,-0.0421 -0.75195,-0.41015 -0.21019,-0.22542 -0.50827,-0.47002 -0.66016,-0.54102 -0.15189,-0.071 -0.47773,-0.25953 -0.72461,-0.41992 l -0.44922,-0.29102 0.32618,-0.10156 c 0.44169,-0.13731 0.59374,-0.26728 0.59374,-0.50391 0,-0.53031 -0.51875,-0.76578 -1.2539,-0.56835 -0.63833,0.17143 -1.85158,0.2593 -1.95117,0.14257 l -0.002,-0.002 c -0.10355,-0.15151 0.16823,-0.45082 0.94532,-1.03906 0.73999,-0.56015 0.86652,-0.77398 0.54882,-0.92774 -0.31825,-0.15403 -1.46719,-0.0888 -2.01171,0.11524 -0.19856,0.0744 -0.23479,-0.10422 -0.1504,-0.75 0.0749,-0.57262 0.26812,-0.96672 0.58399,-1.19141 0.32611,-0.23197 0.27931,-0.59477 -0.10156,-0.77539 -0.37606,-0.17835 -2.2281,-0.52736 -2.52735,-0.47656 -0.21098,0.0358 -0.33161,0.0135 -0.41211,-0.0742 -0.0628,-0.0684 -0.24084,-0.12881 -0.39648,-0.13281 -0.15565,-0.004 -0.38168,-0.0306 -0.5,-0.0606 -0.2037,-0.0516 -0.18223,-0.0823 0.38086,-0.55859 0.81471,-0.68919 1.34864,-1.00782 1.6875,-1.00782 0.33924,0 0.72665,-0.21422 0.72265,-0.39843 -0.003,-0.1541 -1.13939,-0.77774 -1.84765,-1.01367 l -0.4668,-0.1543 0.55274,-0.51172 c 0.32471,-0.29948 0.68737,-0.74527 0.875,-1.07813 0.3249,-0.57636 1.04173,-1.553 1.40039,-1.9082 0.28181,-0.27908 0.42598,-0.55084 0.36718,-0.68945 -0.0317,-0.0746 -0.41902,-0.19795 -1.02929,-0.32617 -1.6576,-0.34824 -2.42664,-0.42579 -4.25977,-0.42579 -1.51464,0 -1.73604,-0.0164 -1.68554,-0.12304 0.52766,-1.11586 1.03124,-2.77263 1.03124,-3.39844 0,-0.24844 -0.0337,-0.28237 -0.33984,-0.35937 -0.26824,-0.0675 -0.35959,-0.0629 -0.43359,0.0273 -0.0549,0.0669 -0.3532,0.13692 -0.72266,0.16992 -1.40689,0.12565 -3.40261,0.56202 -4.64453,1.01563 -0.26349,0.0962 -0.38479,0.13609 -0.42578,0.125 -9.7e-4,-3.7e-4 -0.005,-0.002 -0.006,-0.002 h -0.002 l -0.002,-0.002 -0.002,-0.002 -0.002,-0.002 c -3.8e-4,-7.8e-4 -0.002,-0.005 -0.002,-0.006 -1.9e-4,-9.2e-4 1.1e-4,-0.005 0,-0.006 -3e-4,-0.0159 0.007,-0.041 0.0215,-0.0723 0.39909,-0.86223 0.51251,-1.2926 0.41601,-1.58398 -0.0702,-0.21178 -0.17865,-0.3312 -0.36328,-0.4004 -0.4161,-0.15586 -0.87551,0.0877 -2.51953,1.3379 l -1.47266,1.11914 -0.17382,-0.36719 c -0.37534,-0.79184 -0.77775,-2.20055 -0.67188,-2.35547 0.12337,-0.1805 1.01318,-0.55428 1.32031,-0.55469 0.39959,-8.2e-4 1.45721,-0.33426 1.70508,-0.53711 0.21393,-0.17506 0.22904,-0.43265 0.0293,-0.50195 -0.0807,-0.0279 -0.34156,0.0123 -0.58008,0.0898 -0.66022,0.21469 -0.97958,0.15324 -1.28906,-0.24609 -0.20612,-0.26597 -0.87724,-1.80645 -0.85742,-1.95703 2.4e-4,-10e-4 0.002,-0.005 0.002,-0.006 v -0.002 h 0.002 v -0.002 c 0.0107,-0.01 0.24394,0.0367 0.51758,0.10156 0.85386,0.20251 1.57864,-0.0634 1.95117,-0.71484 0.22225,-0.38865 0.13323,-0.46495 -0.50586,-0.43945 -0.7406,0.0296 -1.41455,-0.13927 -1.74218,-0.43555 L 141.20898,127.5 141.625,126.56055 c 0.22864,-0.51679 0.41602,-0.99862 0.41602,-1.07032 0,-0.16488 0.14841,-0.25201 0.22851,-0.13476 0.0671,0.0982 -0.1167,1.10197 -0.24219,1.32226 -0.008,0.0138 -0.0116,0.0245 -0.0117,0.0332 1e-4,10e-4 -2e-4,0.005 0,0.006 3.2e-4,8.5e-4 0.002,0.005 0.002,0.006 l 0.002,0.002 0.002,0.002 0.002,0.002 c 8.4e-4,4.9e-4 0.005,0.002 0.006,0.002 0.11499,0.0395 0.8265,-0.33426 1.0625,-0.58789 0.98826,-1.06204 1.36368,-3.27228 0.89843,-5.29297 l -0.12304,-0.53125 0.41992,0.45117 c 0.2317,0.24752 0.54831,0.56012 0.70312,0.69727 0.15479,0.13714 0.32998,0.33254 0.38868,0.43164 0.0587,0.0991 0.16788,0.17968 0.24218,0.17968 0.1125,0 0.12625,-0.11539 0.0898,-0.6875 -0.0833,-1.31229 -0.54843,-2.1163 -2,-3.45507 l -0.99805,-0.91993 0.45508,-0.0566 c 0.95489,-0.1171 1.70495,-0.47796 2.14062,-1.03125 l 0.19336,-0.24609 -0.39648,-0.36914 c -0.21782,-0.20302 -0.92749,-0.78577 -1.57813,-1.29492 -1.1526,-0.90193 -1.94188,-1.62135 -2.13476,-1.94727 -0.0325,-0.0549 -0.0511,-0.0903 -0.0488,-0.11133 1.7e-4,-8.2e-4 0.002,-0.005 0.002,-0.006 v -0.002 l 0.002,-0.002 v -0.002 l 0.002,-0.002 0.002,-0.002 0.002,-0.002 h 0.002 c 0.0256,-0.0119 0.089,-0.005 0.19922,0.0156 0.14226,0.0264 0.57938,0.0925 0.9707,0.14844 0.57323,0.0819 0.76198,0.14682 0.9668,0.33203 0.32071,0.29003 0.53906,0.30036 0.53906,0.0254 0,-0.11251 0.0461,-0.20312 0.10156,-0.20312 0.009,0 0.0174,-0.004 0.0234,-0.008 l 0.002,-0.002 c 0.001,-0.002 0.005,-0.008 0.006,-0.01 0.009,-0.0331 -0.0196,-0.10443 -0.084,-0.19335 -0.0843,-0.11638 -0.21572,-0.39754 -0.29102,-0.62696 -0.34653,-1.05523 -1.76084,-3.23089 -3.03125,-4.66211 -0.0992,-0.11175 -0.16114,-0.22477 -0.15039,-0.26367 v -0.002 h 0.002 v -0.002 l 0.002,-0.002 v -0.002 h 0.002 0.002 c 0.14259,-0.0283 2.34233,1.22495 3.03516,1.73242 0.4067,0.29788 0.55647,0.16538 0.30273,-0.26758 -0.10176,-0.17363 -0.27593,-0.49664 -0.38671,-0.71875 -0.27749,-0.55631 -1.28892,-1.49284 -2.21289,-2.04883 -0.79291,-0.47713 -1.61026,-0.86032 -1.8418,-0.86132 -0.0321,-1.7e-4 -0.0551,-0.003 -0.0664,-0.0117 l -0.002,-0.002 c -6.2e-4,-7.1e-4 -0.003,-0.005 -0.004,-0.006 v -0.002 l -0.002,-0.002 c -1e-4,-8.8e-4 -2e-5,-0.005 0,-0.006 1.5e-4,-9.5e-4 -2.8e-4,-0.005 0,-0.006 0.004,-0.009 0.0148,-0.0215 0.0293,-0.0332 0.16929,-0.13638 1.91328,-0.36607 2.92187,-0.38477 1.15082,-0.0214 1.3513,-0.10024 1.24414,-0.48633 -0.0408,-0.14722 -0.1652,-0.25739 -0.38867,-0.34179 -0.18105,-0.0684 -0.41172,-0.21711 -0.51172,-0.33204 -0.24799,-0.28509 -1.14362,-0.79804 -1.76367,-1.00976 -0.73332,-0.25039 -1.89346,-0.40394 -3.06641,-0.4043 h -1.01953 l 0.30664,-0.38867 c 0.16834,-0.21377 0.43721,-0.6274 0.59766,-0.919922 0.57225,-1.04326 1.20828,-1.975657 1.48437,-2.173828 0.13765,-0.09879 0.20699,-0.149639 0.2168,-0.181641 1.9e-4,-9.64e-4 0.002,-0.0049 0.002,-0.0059 v -0.002 c -1.5e-4,-8.7e-4 -0.002,-0.005 -0.002,-0.0059 v -0.002 l -0.002,-0.002 c -6.1e-4,-7.68e-4 -0.003,-0.0051 -0.004,-0.0059 -0.0182,-0.01602 -0.0661,-0.02805 -0.13476,-0.04492 -0.12779,-0.03139 -0.20118,-0.114382 -0.20118,-0.220703 0,-0.04979 -0.002,-0.08278 -0.0117,-0.09961 -5.1e-4,-7.56e-4 -0.003,-0.0052 -0.004,-0.0059 v -0.002 h -0.002 l -0.002,-0.002 c -7.3e-4,-3.22e-4 -0.005,-0.0017 -0.006,-0.002 h -0.002 c -8.8e-4,-5.8e-5 -0.005,-3.1e-5 -0.006,0 -0.0328,0.0039 -0.0976,0.05548 -0.2207,0.162109 -0.13957,0.120924 -0.33755,0.220703 -0.43946,0.220703 -0.10188,0 -0.81379,0.179317 -1.58007,0.398438 -0.76628,0.219116 -1.67703,0.422535 -2.02539,0.453125 -0.34836,0.03059 -0.72878,0.07719 -0.84571,0.103515 -0.0393,0.0088 -0.0681,0.01087 -0.082,0.0059 l -0.002,-0.002 h -0.002 l -0.002,-0.002 -0.002,-0.002 v -0.002 h -0.002 v -0.002 -0.002 -0.002 c 0.007,-0.03769 0.10921,-0.133936 0.31836,-0.306641 0.24135,-0.199296 0.55349,-0.40758 0.69531,-0.46289 0.14183,-0.05531 0.27853,-0.168514 0.30273,-0.251954 0.0242,-0.08344 0.14152,-0.192657 0.26172,-0.242187 0.29422,-0.121226 0.27537,-0.253236 -0.0527,-0.365234 -0.13786,-0.04705 -0.25275,-0.106953 -0.26953,-0.138672 l -0.002,-0.002 v -0.002 -0.002 -0.002 -0.002 h 0.002 c 0.0209,-0.03336 0.16549,-0.108235 0.33789,-0.167969 l 0.33789,-0.117187 -0.70508,-0.01367 c -1.11495,-0.02165 -2.34685,0.212787 -3.52344,0.669922 -0.17535,0.06812 -0.28055,0.101882 -0.3125,0.09961 h -0.002 l -0.002,-0.002 h -0.002 -0.002 V 97.25 h -0.002 v -0.002 -0.002 -0.002 c 0.0135,-0.03046 0.15512,-0.125327 0.42382,-0.28125 0.45447,-0.26373 1.14063,-0.923248 1.14063,-1.095703 -1.2e-4,-9.1e-4 2.4e-4,-0.0049 0,-0.0059 -3.6e-4,-9.2e-4 -0.001,-0.0049 -0.002,-0.0059 l -0.002,-0.002 c -0.0409,-0.05408 -0.27691,-0.118011 -0.60742,-0.158204 -0.14792,-0.01799 -0.29164,-0.0274 -0.43164,-0.0293 v 0.002 c -0.98002,-0.01356 -1.76774,0.366873 -2.41602,1.162109 -0.45753,0.561233 -0.98763,1.477146 -1.29101,2.234375 -0.2925,0.730071 -0.31904,0.710499 -0.5918,-0.425781 -0.37335,-1.555227 -0.7118,-1.841783 -1.27539,-1.080078 -0.28869,0.39021 -0.39153,1.183751 -0.22461,1.730468 0.0502,0.164366 0.0782,0.314404 0.0664,0.345704 h -0.002 v 0.002 l -0.002,0.002 h -0.002 c -0.0504,-0.0037 -0.35105,-0.151106 -0.69336,-0.34375 -0.36475,-0.205273 -0.71219,-0.373047 -0.77148,-0.373047 -0.0593,0 -0.12308,-0.04469 -0.14258,-0.09766 -0.0592,-0.160668 -0.21269,-0.01157 -0.33594,0.326172 -0.10361,0.283965 -0.0958,0.361622 0.0684,0.697265 0.10156,0.20764 0.37164,0.55897 0.60156,0.78125 l 0.41797,0.40429 -0.43359,0.084 c -0.23884,0.0463 -0.82217,0.14721 -1.29493,0.22461 -0.45799,0.075 -0.85574,0.16767 -0.90625,0.20898 l -0.002,0.002 -0.002,0.002 c -0.0286,0.0392 -0.7818,0.14382 -1.67383,0.23242 -4.06379,0.40345 -6.84432,0.85619 -9.26758,1.51172 -0.72159,0.1952 -1.92345,0.48643 -2.66992,0.64648 -3.34792,0.71776 -10.121152,2.43401 -13.164062,3.33594 -3.420111,1.01374 -5.560975,1.81882 -7.646485,2.87109 -0.83171,0.41965 -1.144011,0.63645 -1.894531,1.32422 -0.7084,0.6492 -0.958913,0.94471 -1.189453,1.39649 -0.7649,1.49894 -1.461029,3.81649 -1.574219,5.23633 -0.03941,0.49502 -0.09725,0.95593 -0.126953,1.02343 -0.02969,0.0675 0.0053,0.21366 0.07813,0.32617 0.35424,0.54735 0.426169,0.75926 0.318359,0.94141 -0.08736,0.14762 -0.04725,0.34515 0.230469,1.15234 0.4999,1.45294 0.928246,2.12425 2.041016,3.1836 0.78513,0.74746 1.502293,1.10947 2.308593,1.16797 0.32569,0.0237 0.624653,0.006 0.689453,-0.041 0.06299,-0.0454 0.439771,-0.0887 0.837891,-0.0957 0.87686,-0.0145 1.991081,-0.11402 4.207031,-0.37891 1.98832,-0.23768 5.762727,-0.577 7.285161,-0.65429 l 1.08398,-0.0547 -0.3164,0.21679 c -0.17417,0.11917 -0.6561,0.372 -1.07227,0.56055 -0.76727,0.34762 -1.219268,0.70917 -1.134767,0.9082 0.07143,0.16834 0.456387,0.29493 0.894537,0.29493 0.45422,0 1.32335,-0.37625 2.09961,-0.90625 0.27637,-0.18869 0.40117,-0.25929 0.45117,-0.24414 10e-4,4.3e-4 0.005,0.001 0.006,0.002 9.2e-4,6.1e-4 0.005,0.003 0.006,0.004 l 0.002,0.002 c 7.2e-4,8.7e-4 0.003,0.005 0.004,0.006 0.007,0.0126 0.0117,0.0344 0.0117,0.0586 0,0.45398 -0.40869,1.07728 -1.33008,2.0332 l -0.56641,0.58789 0.31446,0.0938 c 0.34988,0.10441 1.14899,-0.005 1.61328,-0.22071 0.12848,-0.0597 0.24507,-0.0997 0.27539,-0.0957 l 0.002,0.002 h 0.002 0.002 c 0.0402,0.0438 -0.73412,1.91749 -1.04297,2.52344 -0.32793,0.64334 -0.3138,0.947 0.0488,1.0293 0.16335,0.0371 0.50708,-0.0797 1.30859,-0.44922 l 1.08594,-0.50196 -0.6875,1.29102 c -1.32955,2.49293 -1.57041,3.09691 -1.56641,3.94531 0.004,0.88368 0.386,1.87736 0.7832,2.04102 0.32131,0.13238 0.49227,0.11399 1.07032,-0.11719 0.27712,-0.11082 0.53481,-0.19258 0.58593,-0.18555 h 0.002 0.002 c 0.0388,0.0131 -0.39002,0.66609 -0.95312,1.44922 -1.13026,1.57188 -1.16883,1.70065 -0.55469,1.8418 0.24728,0.0568 0.32896,0.11889 0.32812,0.24609 -0.003,0.30464 -0.24073,1.09903 -0.39257,1.3086 -0.19712,0.27207 -0.18718,0.48141 0.0312,0.66015 0.22927,0.18764 0.80608,0.13508 1.73243,-0.15625 0.34418,-0.10827 0.64586,-0.18372 0.6914,-0.17382 l 0.002,0.002 h 0.002 v 0.002 h 0.002 v 0.002 0.002 0.002 c -0.001,0.0376 -0.0856,0.15883 -0.20312,0.28516 -0.58754,0.63145 -1.36425,2.51166 -1.63867,3.96484 -0.25042,1.32612 -0.088,2.82472 0.42187,3.89648 0.22584,0.47473 0.45441,0.64454 0.87109,0.64454 0.2394,0 0.40469,-0.0881 0.79493,-0.42188 0.23943,-0.20477 0.44114,-0.34603 0.48437,-0.3418 h 0.002 v 0.002 h 0.002 0.002 v 0.002 h 0.002 v 0.002 0.002 0.002 0.002 c 0,0.11308 -0.34526,1.42146 -0.38086,1.44336 -0.0147,0.009 -0.22383,0.0833 -0.46484,0.16406 -0.63853,0.21411 -1.66107,0.85817 -2.25977,1.42579 -0.79899,0.7575 -0.97263,1.27797 -0.56835,1.70312 0.20489,0.21545 0.27104,0.23277 1.05078,0.25977 l 0.83007,0.0293 -0.27343,0.14844 c -0.75549,0.41548 -1.71463,1.99157 -2.01758,3.31445 -0.15344,0.6701 -0.17585,0.97411 -0.12695,1.71485 0.0758,1.14893 0.10561,1.24766 0.42382,1.39648 0.36607,0.17118 0.67318,0.0248 1.04493,-0.49804 0.15968,-0.22458 0.52586,-0.71858 0.81445,-1.09766 l 0.52539,-0.6875 0.0742,1.30273 c 0.0414,0.7166 0.12555,1.39531 0.18555,1.50782 0.10041,0.1887 0.15354,0.20265 0.67187,0.18945 l 0.5625,-0.0156 -0.29492,0.375 c -0.16212,0.20553 -0.55966,0.5797 -0.88281,0.83204 -0.32313,0.25235 -0.86139,0.70522 -1.19727,1.00586 -0.33589,0.30063 -0.69425,0.5701 -0.79687,0.5996 -0.28293,0.0812 -0.16148,0.23689 0.23632,0.30079 0.97798,0.15711 1.80678,-0.0292 2.625,-0.58789 l 0.48828,-0.33204 -0.0527,0.39063 c -0.27205,2.07267 -1.01275,4.59265 -1.75195,5.95508 -0.46279,0.85294 -1.16649,1.7554 -1.91016,2.45312 -0.26082,0.24472 -0.47927,0.53077 -0.62109,0.78516 A 53.249536,52.048499 0 0 1 74.75,128.97461 53.249536,52.048499 0 0 1 128,76.925781 Z m -23.72656,98.208989 c 0.004,-1.1e-4 0.007,0.001 0.01,0.002 h 0.002 l 0.002,0.002 h 0.002 l 0.002,0.002 0.002,0.002 h 0.002 l 0.002,0.002 v 0.002 l 0.002,0.002 c 0.0128,0.0382 -0.0287,0.15205 -0.125,0.37304 a 53.249536,52.048499 0 0 1 -0.36914,-0.18164 c 0.13001,-0.045 0.24255,-0.091 0.31445,-0.13281 0.0695,-0.0404 0.11864,-0.0663 0.14844,-0.0703 0.002,-2.7e-4 0.004,-0.002 0.006,-0.002 z" /></svg>
