<?xml version="1.0" encoding="UTF-8" standalone="no"?>
<svg
   xml:space="preserve"
   width="256"
   height="256"
   version="1.1"
   id="svg2"
   xmlns="http://www.w3.org/2000/svg"
   xmlns:svg="http://www.w3.org/2000/svg"><defs
     id="defs2" /><path
     id="path2"
     style="fill:#ffffff;fill-rule:evenodd;stroke-width:0.915874"
     d="m 128.58398,62.34375 a 66.630135,66.630135 0 0 0 -66.628902,66.63086 66.630135,66.630135 0 0 0 66.628902,66.62891 66.630135,66.630135 0 0 0 66.63086,-66.62891 66.630135,66.630135 0 0 0 -66.63086,-66.63086 z M 128,73.085938 a 53.25038,53.25038 0 0 1 53.25,53.250002 53.25038,53.25038 0 0 1 -37.43555,50.8457 28.512015,28.512015 0 0 1 1.11914,-1.16602 c 3.67302,-3.64283 7.3501,-8.91038 9.75391,-13.96874 0.94761,-1.99334 1.40512,-2.70516 1.41602,-2.20704 0.005,0.26075 0.014,0.41527 0.0488,0.45118 7.2e-4,6.2e-4 0.005,0.003 0.006,0.004 l 0.002,0.002 h 0.002 l 0.002,0.002 c 8.2e-4,1.4e-4 0.005,-5e-5 0.006,0 h 0.002 c 8.8e-4,-1.5e-4 0.005,2.4e-4 0.006,0 l 0.002,-0.002 c 0.0631,-0.0288 0.1807,-0.27026 0.39258,-0.75196 0.24906,-0.56646 0.68196,-2.15485 0.96289,-3.5293 0.39162,-1.91954 0.55801,-2.34176 0.7207,-1.82226 0.11656,0.37234 0.36142,0.62565 0.54297,0.56445 0.52538,-0.17736 0.72149,-1.72041 1.05273,-8.2832 0.17066,-3.38497 0.37693,-6.22144 0.45703,-6.30273 0.0113,-0.0114 0.0225,-0.0164 0.0332,-0.0176 0.005,-7e-5 0.013,1.3e-4 0.0176,0.002 0.0553,0.028 0.0997,0.19408 0.10351,0.43164 0.01,0.57359 0.62801,1.5957 0.9668,1.5957 h 0.002 l 0.004,-0.002 h 0.002 c 7.7e-4,-6.1e-4 0.005,-0.003 0.006,-0.004 0.0957,-0.11366 0.17383,-1.37675 0.17383,-2.90039 0,-2.37069 -0.15956,-3.44897 -0.8711,-5.875 -1.06082,-3.61809 -1.11064,-4.21481 -0.26953,-3.24414 l 0.60156,0.69532 -0.16015,-1.61914 c -0.10524,-1.06124 -0.51342,-2.27674 -1.18555,-3.53126 -0.56353,-1.05243 -1.91654,-3.76692 -3.00586,-6.0332 -1.08933,-2.26629 -2.52946,-5.09951 -3.20117,-6.29492 -1.19289,-2.12333 -1.36193,-2.8342 -0.50195,-2.11133 0.2348,0.19708 0.70599,0.31452 1.04687,0.26172 0.60714,-0.0943 0.60301,-0.11826 -0.18359,-1.13672 -0.44194,-0.57234 -1.44805,-1.56551 -2.23633,-2.20703 l -1.43359,-1.16602 1.26953,-0.0937 1.26953,-0.0957 -1.16211,-0.72851 c -1.49897,-0.94048 -4.75882,-2.4668 -5.26953,-2.4668 -0.49639,0 -0.52881,-0.58506 -0.0332,-0.59766 0.20293,-0.005 0.10773,-0.21172 -0.2168,-0.46875 -0.46668,-0.37019 -1.08871,-0.43019 -3.15625,-0.30273 -2.21806,0.13669 -2.50099,0.10247 -2.03516,-0.24219 0.29769,-0.22055 0.44888,-0.49476 0.33399,-0.61133 -0.11489,-0.11614 -1.6842,-0.21765 -3.48633,-0.22265 -2.55183,-0.008 -3.67989,0.12665 -5.09375,0.59961 l -1.81641,0.60742 v -0.85156 c 0,-1.05492 -0.18531,-1.06295 -1.22265,-0.0566 l -0.82032,0.79492 0.1875,-0.94336 c 0.1174,-0.59289 0.12211,-0.87777 -0.12695,-0.88477 -0.22013,-0.006 -0.63791,0.20545 -1.35742,0.61719 -1.03314,0.59121 -1.17265,0.80225 -1.25195,1.90625 -0.10146,1.40674 0.0935,1.31433 -3.83399,1.83594 -5.89989,0.78366 -13.78921,3.06112 -17.44336,5.03515 -1.56271,0.84446 -2.02108,1.2868 -3.0039,2.90821 -0.9388,1.54803 -1.18381,2.25501 -1.28321,3.71289 -0.1174,1.71911 -0.0462,1.9508 1.55469,5.12109 1.96985,3.90111 2.96664,5.16028 4.27148,5.39844 0.51825,0.0944 2.5767,0.0602 4.57422,-0.0781 4.11034,-0.28428 4.45872,-0.14556 4.30274,1.71485 -0.10482,1.25704 0.39033,1.46064 1.15429,0.47656 0.32034,-0.41175 0.64506,-0.74805 0.72266,-0.74805 0.28931,0 0.86098,1.79482 1.04883,3.29883 0.20209,1.61931 0.34323,1.72708 1.69336,1.29102 0.58114,-0.18785 0.68504,-0.0489 1.10937,1.5 0.25786,0.93922 0.52169,1.87754 0.58789,2.08593 0.0935,0.29433 0.2737,0.27592 0.81836,-0.0859 0.67842,-0.4499 0.70827,-0.43456 1.02149,0.47656 0.46835,1.36103 0.41388,1.70191 -0.25196,1.52539 -0.36646,-0.0973 -0.64571,0.0193 -0.75976,0.32031 -0.24235,0.64026 -0.59626,0.59993 -2.27344,-0.26172 -1.63944,-0.84278 -2.34099,-0.94036 -2.0957,-0.29297 0.23942,0.6323 -0.25626,0.56116 -3.16406,-0.45898 -1.41303,-0.49603 -3.95018,-1.23266 -5.63868,-1.63477 -1.68849,-0.4021 -4.85356,-1.26012 -7.03515,-1.90625 -3.467566,-1.02727 -4.272629,-1.16339 -6.392581,-1.08789 l -2.425781,0.0859 1.017578,0.66211 1.015625,0.66016 -1.451172,0.0234 c -2.758538,0.0449 -4.864142,1.11488 -3.326171,1.69141 0.704414,0.26416 -0.746443,0.64631 -9.167969,2.41406 A 253.25378,253.25378 0 0 0 76.478516,139.79688 53.25038,53.25038 0 0 1 74.75,126.33594 53.25038,53.25038 0 0 1 128,73.085938 Z" /></svg>
