<?xml version="1.0" encoding="UTF-8" standalone="no"?>
<svg
   xml:space="preserve"
   width="256"
   height="256"
   version="1.1"
   id="svg2"
   xmlns="http://www.w3.org/2000/svg"
   xmlns:svg="http://www.w3.org/2000/svg"><defs
     id="defs2" /><path
     id="path2"
     style="fill:#ffffff;fill-rule:evenodd;stroke-width:0.915874"
     d="m 128.58398,62.34375 a 66.630135,66.630135 0 0 0 -66.628902,66.63086 66.630135,66.630135 0 0 0 66.628902,66.62891 66.630135,66.630135 0 0 0 66.63086,-66.62891 66.630135,66.630135 0 0 0 -66.63086,-66.63086 z M 128,76.925781 a 53.249744,52.0485 0 0 1 53.24805,52.048829 53.249744,52.0485 0 0 1 -2.11524,14.52344 c -1.06384,-0.0874 -1.49482,-0.1779 -1.69922,-0.32422 -3.20599,-2.2951 -4.71266,-3.27876 -5.52929,-3.60547 l -0.98633,-0.39453 -0.78906,-2.26758 c -0.63601,-1.83152 -0.90336,-3.00341 -1.39063,-6.07227 -1.00121,-6.30587 -1.07166,-6.60566 -1.83398,-7.90234 -0.37755,-0.64218 -0.68555,-1.20379 -0.68555,-1.24609 v -0.002 h 0.002 v -0.002 h 0.002 0.002 c 0.0667,-8e-5 0.48666,0.20457 0.98633,0.48438 0.83195,0.46589 1.45331,0.6862 1.44531,0.51367 -10e-4,-0.0223 -0.12196,-0.40382 -0.26953,-0.84961 -0.14758,-0.44578 -0.50337,-1.61303 -0.79102,-2.59375 -0.5436,-1.85353 -0.94594,-2.57251 -2.08984,-3.72656 l -0.67969,-0.6836 1.52539,-0.0957 c 1.83189,-0.11348 5.11283,-0.57859 5.26563,-0.74219 l 0.002,-0.002 v -0.002 l 0.002,-0.002 v -0.002 l 0.002,-0.002 v -0.002 -0.002 l -0.002,-0.002 c -0.0332,-0.0709 -0.47208,-0.28748 -1.00195,-0.48828 -0.55128,-0.20892 -1.78541,-0.74532 -2.74414,-1.19141 -1.7078,-0.79461 -1.73277,-0.81295 -1.19922,-0.94531 0.29954,-0.0743 0.65102,-0.25274 0.7793,-0.39649 0.19843,-0.22233 0.18266,-0.29439 -0.0996,-0.48633 -0.18249,-0.12409 -0.49402,-0.22937 -0.69141,-0.23437 -0.19739,-0.005 -1.26072,-0.44486 -2.36328,-0.97852 -0.90537,-0.43822 -1.51593,-0.78431 -1.54687,-0.86718 v -0.002 l -0.002,-0.002 v -0.002 -0.002 -0.002 h 0.002 v -0.002 l 0.002,-0.002 h 0.002 c 0.01,-0.004 0.0311,-0.007 0.0606,-0.002 1.07401,0.18128 6.71289,0.29773 6.71289,0.13867 0,-0.38033 -8.88873,-4.90717 -10.61914,-5.4082 -0.61516,-0.17813 -1.79229,-0.44694 -2.61523,-0.59766 l -1.4961,-0.27343 1.17774,-0.31446 c 0.62692,-0.16708 1.14215,-0.35647 1.17382,-0.42968 l 0.002,-0.002 v -0.002 -0.002 -0.002 -0.002 -0.002 c -0.0597,-0.1553 -1.98066,-0.71633 -3.32032,-0.96485 -0.52291,-0.097 -1.22498,-0.28175 -1.56054,-0.41015 -1.69268,-0.64747 -2.90035,-0.757844 -7.06055,-0.644535 -3.92552,0.106912 -6.38476,0.36128 -11.64258,1.199215 l -1.8789,0.29883 0.61523,-0.52539 c 0.32861,-0.2799 0.60059,-0.55201 0.61719,-0.617186 v -0.002 -0.002 c 0,-8.44e-4 1e-4,-0.0031 0,-0.0039 v -0.002 l -0.002,-0.002 c -4e-4,-7.88e-4 -0.001,-0.0051 -0.002,-0.0059 -0.14672,-0.189915 -3.2832,0.05195 -3.80469,0.302736 -0.46678,0.22449 -0.54882,0.22871 -0.54882,0.0273 0,-0.636467 -1.50622,-0.470773 -3.13868,0.34375 -1.2258,0.61161 -2.96475,1.75867 -3.18945,2.10352 -0.0767,0.11762 -0.27254,0.21443 -0.43555,0.21484 -0.46411,0.001 -6.974,1.51797 -10.03515,2.33789 -1.52121,0.40746 -2.82961,0.74024 -2.9082,0.74024 -0.30359,0 0.50208,-2.14113 0.98046,-2.60547 l 0.48828,-0.47461 h -0.54882 c -0.77428,0 -2.31644,0.56949 -3.3711,1.24414 -0.68462,0.4379 -0.92968,0.52298 -1.03711,0.36133 -0.0773,-0.11645 -0.0936,-0.28024 -0.0371,-0.36524 0.19059,-0.28678 -1.12054,0.0227 -1.81054,0.42774 -0.82895,0.48663 -1.57431,1.7029 -1.75586,2.86523 l -0.13281,0.85157 -3.050786,1.09765 c -3.681215,1.32452 -6.32608,2.37446 -8.443359,3.35352 -3.409574,1.5766 -6.812214,3.41777 -7.886719,4.26758 -0.620022,0.49036 -1.377049,1.06055 -1.68164,1.26757 -0.304602,0.20702 -0.555594,0.46334 -0.558594,0.56836 -0.0036,0.10504 -0.214569,0.51871 -0.46875,0.91992 -1.103234,1.7414 -1.131206,2.88964 -0.138672,5.72071 1.020204,2.91 2.091677,4.19013 4.736328,5.65234 2.185919,1.20866 6.058214,2.39904 9.429688,2.89844 0.713993,0.10581 1.302756,0.23276 1.347656,0.28906 l 0.002,0.002 h 0.002 v 0.002 0.002 c 0,0.0524 -0.210899,0.59587 -0.46875,1.20703 -0.438702,1.03983 -0.45617,1.17876 -0.27539,2.16016 0.21889,1.18838 0.438905,1.51758 1.011718,1.51758 0.333621,0 0.418967,-0.11245 0.523438,-0.6875 l 0.125,-0.6875 0.388672,0.81054 c 0.435581,0.90725 0.645291,1.04387 3.044922,2.01172 2.017278,0.81363 2.114608,0.82157 1.927728,0.13477 -0.23444,-0.86164 -0.33937,-1.24971 -0.29492,-1.30664 l 0.002,-0.002 v -0.002 h 0.002 l 0.002,-0.002 c 7.4e-4,-2.4e-4 0.003,1.5e-4 0.004,0 h 0.002 c 0.0534,0.002 0.19395,0.17424 0.42187,0.46094 0.57603,0.72457 1.54348,1.6156 2.5,2.30078 2.77886,1.99063 3.65795,2.56772 4.50391,2.96484 1.43062,0.67158 2.98122,1.23658 3.75977,1.36719 1.53138,0.25691 4.29723,2.48881 6.37304,5.14453 1.90246,2.43394 2.12528,2.60868 2.30469,1.79883 0.0543,-0.24519 0.16303,-0.73394 0.24023,-1.08594 l 0.13868,-0.64062 0.89843,1.12695 c 2.0954,2.62879 4.17286,6.18799 4.66993,8 0.26097,0.95132 0.61065,1.01174 1.0371,0.17969 0.18321,-0.35744 0.394,-0.6504 0.4668,-0.6504 h 0.002 0.002 l 0.002,0.002 h 0.002 c 0.0728,0.0403 0.18052,0.48419 0.24219,1.01953 0.0935,0.81174 0.0214,1.41725 -0.35351,2.95703 -0.41511,1.70479 -0.46096,2.16214 -0.37696,3.80274 0.0583,1.13921 0.23784,2.3371 0.46094,3.08007 0.45388,1.51156 0.43722,1.23138 0.17773,3.24024 -0.21037,1.62836 -0.17087,4.76857 0.0332,6.59179 A 53.249744,52.0485 0 0 1 128,181.02344 53.249744,52.0485 0 0 1 74.75,128.97461 53.249744,52.0485 0 0 1 128,76.925781 Z" /></svg>
