<svg width="400" height="164" viewBox="0 0 400 164" fill="none" xmlns="http://www.w3.org/2000/svg">
<g clip-path="url(#clip0_41_2)">
<path d="M7.41854 121V39.4075H40.5218C45.8059 39.4075 50.3517 40.2623 54.1594 41.9718C58.0448 43.6814 61.0365 46.1292 63.1346 49.3151C65.2327 52.4234 66.2817 56.1145 66.2817 60.3884C66.2817 64.5846 65.155 68.2368 62.9015 71.3451C60.7257 74.4534 57.6951 76.8235 53.8097 78.4553C58.7053 79.9318 62.5518 82.3795 65.3492 85.7987C68.2244 89.2178 69.662 93.2974 69.662 98.0375C69.662 102.7 68.4964 106.78 66.1652 110.276C63.9116 113.696 60.6868 116.338 56.4906 118.203C52.3721 120.068 47.5154 121 41.9205 121H7.41854ZM16.3937 74.9585H40.0555C45.3396 74.9585 49.5358 73.7152 52.6441 71.2286C55.8301 68.7419 57.4231 65.3617 57.4231 61.0878C57.4231 56.8139 55.8301 53.4336 52.6441 50.947C49.5358 48.4604 45.3396 47.2171 40.0555 47.2171H16.3937V74.9585ZM16.3937 113.19H41.2212C47.1269 113.19 51.8282 111.792 55.325 108.994C58.8218 106.197 60.5702 102.467 60.5702 97.8044C60.5702 93.142 58.8218 89.412 55.325 86.6146C51.8282 83.8171 47.1269 82.4184 41.2212 82.4184H16.3937V113.19ZM82.3935 121V39.4075L91.019 37.426V121H82.3935ZM128.108 122.166C123.679 122.166 119.755 121.233 116.335 119.368C112.916 117.425 110.235 114.783 108.293 111.442C106.428 108.023 105.495 104.06 105.495 99.5528V62.6031H114.004V97.8044C114.004 103.011 115.481 107.129 118.434 110.16C121.386 113.113 125.349 114.589 130.323 114.589C133.82 114.589 136.928 113.812 139.648 112.258C142.445 110.626 144.699 108.373 146.408 105.497V62.6031H155.034V121H146.408V114.239C141.823 119.524 135.723 122.166 128.108 122.166ZM197.092 122.049C191.497 122.049 186.407 120.728 181.823 118.086C177.316 115.366 173.702 111.714 170.982 107.129C168.34 102.545 167.019 97.4159 167.019 91.7433C167.019 86.1483 168.301 81.0974 170.866 76.5904C173.43 72.0056 176.888 68.3923 181.24 65.7502C185.591 63.0305 190.448 61.6706 195.81 61.6706C201.016 61.6706 205.679 63.0305 209.797 65.7502C213.993 68.3923 217.296 72.0056 219.705 76.5904C222.191 81.0974 223.435 86.1483 223.435 91.7433V94.4242H175.528C175.994 98.2318 177.199 101.651 179.142 104.681C181.162 107.712 183.765 110.121 186.951 111.908C190.137 113.618 193.634 114.473 197.442 114.473C200.472 114.473 203.425 114.006 206.3 113.074C209.175 112.141 211.584 110.82 213.527 109.111L218.889 114.822C215.625 117.231 212.206 119.057 208.632 120.301C205.135 121.466 201.288 122.049 197.092 122.049ZM175.761 87.5471H214.809C214.343 84.0502 213.177 80.942 211.312 78.2222C209.525 75.4247 207.272 73.2489 204.552 71.6948C201.832 70.063 198.84 69.247 195.577 69.247C192.235 69.247 189.166 70.0241 186.368 71.5782C183.571 73.1324 181.24 75.3082 179.375 78.1056C177.51 80.8254 176.305 83.9725 175.761 87.5471Z" fill="white"/>
<path d="M294.121 121V62.6031H302.747V69.4802C307.331 64.1184 313.47 61.4375 321.163 61.4375C325.592 61.4375 329.478 62.4088 332.819 64.3515C336.238 66.2165 338.88 68.8585 340.745 72.2777C342.688 75.6191 343.659 79.5433 343.659 84.0503V121H335.15V85.7987C335.15 80.5923 333.674 76.5127 330.721 73.5598C327.846 70.5292 323.883 69.014 318.832 69.014C315.335 69.014 312.227 69.791 309.507 71.3452C306.787 72.8993 304.534 75.114 302.747 77.9891V121H294.121Z" fill="white"/>
<path d="M280.09 65.5193L265.947 90.7628L246.423 68.4608L280.09 65.5193Z" fill="url(#paint0_linear_41_2)"/>
<path d="M257.808 121.673L247.907 98.2482L246.424 68.4609L266.084 89.4637" fill="url(#paint1_linear_41_2)"/>
<path d="M248.393 98.2449L227.703 77.8819L233.102 52.6496L246.425 52.1809" fill="url(#paint2_linear_41_2)"/>
<path d="M265.197 39.3973L267.68 51.792L232.881 52.8856L248.423 33.2117L265.197 39.3973Z" fill="url(#paint3_linear_41_2)"/>
<path d="M220.981 95.0613L226.885 85.7124L220.981 80.5969" fill="url(#paint4_linear_41_2)"/>
<path d="M242.649 95.7433V99.3535L246.454 107.656L248.22 111.878L246.454 112.901L226.692 121.673H257.757L257.838 121.544L248.391 98.2481L226.692 76.2104" fill="url(#paint5_linear_41_2)"/>
<path d="M243.568 91.8627L229.246 73.647L220.981 80.5969L242.649 99.3536L248.22 111.878L257.758 121.673L248.352 98.1541" fill="url(#paint6_linear_41_2)"/>
<mask id="mask0_41_2" style="mask-type:luminance" maskUnits="userSpaceOnUse" x="204" y="33" width="70" height="90">
<path d="M204.941 33.4348H273.877V122.993H204.941V33.4348Z" fill="white"/>
</mask>
<g mask="url(#mask0_41_2)">
<path d="M282.445 63.344L307.148 91.6727L282.861 85.8638L262.243 102.933L265.902 89.6807" fill="url(#paint7_linear_41_2)"/>
</g>
<mask id="mask1_41_2" style="mask-type:luminance" maskUnits="userSpaceOnUse" x="275" y="65" width="45" height="30">
<path d="M277.078 65.3031L319.914 67.0952L318.764 94.4577L275.927 92.6655L277.078 65.3031Z" fill="white"/>
</mask>
<g mask="url(#mask1_41_2)">
<path d="M250.699 87.1347L317.312 94.6871L278.86 63.039" fill="url(#paint8_linear_41_2)"/>
</g>
<mask id="mask2_41_2" style="mask-type:luminance" maskUnits="userSpaceOnUse" x="269" y="56" width="13" height="68">
<path d="M281.453 56.8921H269.418V123.084H281.453V56.8921Z" fill="white"/>
</mask>
<g mask="url(#mask2_41_2)">
<path d="M270.787 121V62.603H279.412V121H270.787ZM275.1 51.4132C273.545 51.4132 272.186 50.8304 271.02 49.6647C269.854 48.4991 269.271 47.1393 269.271 45.5851C269.271 43.9533 269.854 42.5934 271.02 41.5055C272.186 40.3399 273.545 39.7571 275.1 39.7571C276.731 39.7571 278.091 40.3399 279.179 41.5055C280.345 42.5934 280.928 43.9533 280.928 45.5851C280.928 47.1393 280.345 48.4991 279.179 49.6647C278.091 50.8304 276.731 51.4132 275.1 51.4132Z" fill="white"/>
</g>
</g>
<defs>
<linearGradient id="paint0_linear_41_2" x1="280.092" y1="78.7975" x2="243.351" y2="67.9542" gradientUnits="userSpaceOnUse">
<stop stop-color="#4285F4"/>
<stop offset="0.39" stop-color="#4183F2"/>
<stop offset="0.53" stop-color="#3F7CEC"/>
<stop offset="0.63" stop-color="#3B70E2"/>
<stop offset="0.71" stop-color="#365FD4"/>
<stop offset="0.78" stop-color="#2F49C1"/>
<stop offset="0.84" stop-color="#272FAA"/>
<stop offset="0.87" stop-color="#231F9D"/>
</linearGradient>
<linearGradient id="paint1_linear_41_2" x1="265.933" y1="94.5086" x2="248.79" y2="95.0198" gradientUnits="userSpaceOnUse">
<stop stop-color="#4285F4"/>
<stop offset="0.45" stop-color="#4183F2"/>
<stop offset="0.61" stop-color="#3F7CEC"/>
<stop offset="0.72" stop-color="#3B70E2"/>
<stop offset="0.82" stop-color="#365FD4"/>
<stop offset="0.9" stop-color="#2F49C1"/>
<stop offset="0.97" stop-color="#272FAA"/>
<stop offset="1" stop-color="#231F9D"/>
</linearGradient>
<linearGradient id="paint2_linear_41_2" x1="238.048" y1="65.2267" x2="238.048" y2="53.2746" gradientUnits="userSpaceOnUse">
<stop offset="0.34" stop-color="#4285F4"/>
<stop offset="1" stop-color="#231F9D"/>
</linearGradient>
<linearGradient id="paint3_linear_41_2" x1="267.68" y1="43.0428" x2="232.881" y2="43.0428" gradientUnits="userSpaceOnUse">
<stop offset="0.59" stop-color="#4285F4"/>
<stop offset="1" stop-color="#231F9D"/>
</linearGradient>
<linearGradient id="paint4_linear_41_2" x1="224.452" y1="82.1375" x2="217.712" y2="91.8467" gradientUnits="userSpaceOnUse">
<stop stop-color="#4285F4"/>
<stop offset="0.2" stop-color="#4081F0"/>
<stop offset="0.4" stop-color="#3D75E6"/>
<stop offset="0.6" stop-color="#3761D5"/>
<stop offset="0.79" stop-color="#2E45BE"/>
<stop offset="0.98" stop-color="#2422A0"/>
<stop offset="1" stop-color="#231F9D"/>
</linearGradient>
<linearGradient id="paint5_linear_41_2" x1="247.776" y1="88.1112" x2="226.58" y2="118.623" gradientUnits="userSpaceOnUse">
<stop stop-color="#4285F4"/>
<stop offset="0.2" stop-color="#4081F0"/>
<stop offset="0.4" stop-color="#3D75E6"/>
<stop offset="0.6" stop-color="#3761D5"/>
<stop offset="0.79" stop-color="#2E45BE"/>
<stop offset="0.98" stop-color="#2422A0"/>
<stop offset="1" stop-color="#231F9D"/>
</linearGradient>
<linearGradient id="paint6_linear_41_2" x1="236.614" y1="104.622" x2="247.451" y2="94.5437" gradientUnits="userSpaceOnUse">
<stop stop-color="#231F9D"/>
<stop offset="0.08" stop-color="#262BA7"/>
<stop offset="0.36" stop-color="#3252C8"/>
<stop offset="0.61" stop-color="#3B6EE0"/>
<stop offset="0.83" stop-color="#407FEE"/>
<stop offset="1" stop-color="#4285F4"/>
</linearGradient>
<linearGradient id="paint7_linear_41_2" x1="281.523" y1="89.5257" x2="269.059" y2="83.2596" gradientUnits="userSpaceOnUse">
<stop stop-color="#4285F4"/>
<stop offset="0.45" stop-color="#4183F2"/>
<stop offset="0.61" stop-color="#3F7CEC"/>
<stop offset="0.72" stop-color="#3B70E2"/>
<stop offset="0.82" stop-color="#365FD4"/>
<stop offset="0.9" stop-color="#2F49C1"/>
<stop offset="0.97" stop-color="#272FAA"/>
<stop offset="1" stop-color="#231F9D"/>
</linearGradient>
<linearGradient id="paint8_linear_41_2" x1="264.013" y1="74.8056" x2="309.157" y2="102.452" gradientUnits="userSpaceOnUse">
<stop stop-color="#231F9D"/>
<stop offset="0.03" stop-color="#272FAA"/>
<stop offset="0.1" stop-color="#2F49C1"/>
<stop offset="0.18" stop-color="#365FD4"/>
<stop offset="0.28" stop-color="#3B70E2"/>
<stop offset="0.39" stop-color="#3F7CEC"/>
<stop offset="0.55" stop-color="#4183F2"/>
<stop offset="1" stop-color="#4285F4"/>
</linearGradient>
<clipPath id="clip0_41_2">
<rect width="399.339" height="163.213" fill="white"/>
</clipPath>
</defs>
</svg>
