<svg width="400" height="164" fill="none" xmlns:xlink="http://www.w3.org/1999/xlink"><g clip-path="url(#a)"><path fill="#fff" d="M7.419 121V39.408h33.103q7.926 0 13.637 2.564 5.828 2.564 8.976 7.343 3.147 4.663 3.147 11.073 0 6.295-3.38 10.957-3.264 4.662-9.092 7.11 7.343 2.215 11.54 7.344 4.311 5.128 4.312 12.238 0 6.995-3.497 12.239-3.38 5.13-9.674 7.927Q50.312 121 41.92 121zm8.975-46.041h23.662q7.926 0 12.588-3.73 4.78-3.73 4.78-10.141t-4.78-10.141q-4.662-3.73-12.588-3.73H16.394zm0 38.231H41.22q8.859 0 14.104-4.196t5.245-11.19-5.245-11.19-14.104-4.196H16.394zm66 7.81V39.408l8.625-1.982V121zm45.714 1.166q-6.643 0-11.773-2.798-5.129-2.915-8.042-7.926-2.798-5.128-2.798-11.89V62.604h8.509v35.201q0 7.81 4.43 12.356 4.428 4.43 11.889 4.429 5.245 0 9.325-2.331 4.196-2.448 6.76-6.761V62.603h8.626V121h-8.626v-6.761q-6.877 7.927-18.3 7.927m68.984-.117q-8.393 0-15.269-3.963-6.76-4.08-10.841-10.957-3.963-6.876-3.963-15.386 0-8.393 3.847-15.153 3.846-6.876 10.374-10.84 6.527-4.08 14.57-4.08 7.81 0 13.987 4.08 6.294 3.963 9.908 10.84 3.73 6.76 3.73 15.153v2.681h-47.907q.7 5.712 3.614 10.257a22.45 22.45 0 0 0 7.809 7.227q4.779 2.565 10.491 2.565 4.545 0 8.858-1.399t7.227-3.963l5.362 5.711q-4.896 3.613-10.257 5.479-5.246 1.748-11.54 1.748m-21.331-34.502h39.048q-.7-5.245-3.497-9.325-2.68-4.196-6.76-6.527-4.08-2.448-8.975-2.448-5.012 0-9.209 2.331-4.195 2.331-6.993 6.528-2.798 4.08-3.614 9.441M294.121 121V62.603h8.626v6.877q6.876-8.043 18.416-8.043 6.644 0 11.656 2.915 5.128 2.797 7.926 7.926 2.914 5.011 2.914 11.772V121h-8.509V85.799q0-7.81-4.429-12.24-4.312-4.545-11.889-4.545-5.245 0-9.325 2.331t-6.76 6.644V121z"/><path fill="url(#b)" d="m280.09 65.52-14.143 25.243-19.524-22.302z"/><path fill="url(#c)" d="m257.808 121.673-9.901-23.425-1.483-29.787 19.66 21.003"/><path fill="url(#d)" d="m248.393 98.245-20.69-20.363 5.399-25.232 13.323-.47"/><path fill="url(#e)" d="m265.197 39.397 2.483 12.395-34.799 1.094 15.542-19.674z"/><path fill="url(#f)" d="m220.981 95.061 5.904-9.349-5.904-5.115"/><path fill="url(#g)" d="M242.649 95.743v3.61l3.805 8.303 1.766 4.222-1.766 1.023-19.762 8.772h31.065l.081-.129-9.447-23.296-21.699-22.038"/><path fill="url(#h)" d="m243.568 91.863-14.322-18.216-8.265 6.95 21.668 18.757 5.571 12.524 9.538 9.795-9.406-23.519"/><mask id="i" width="70" height="90" x="204" y="33" maskUnits="userSpaceOnUse" style="mask-type:luminance"><path fill="#fff" d="M204.941 33.435h68.936v89.558h-68.936z"/></mask><g mask="url(#i)"><path fill="url(#j)" d="m282.445 63.344 24.703 28.329-24.287-5.81-20.618 17.07 3.659-13.252"/></g><mask id="k" width="45" height="30" x="275" y="65" maskUnits="userSpaceOnUse" style="mask-type:luminance"><path fill="#fff" d="m277.078 65.303 42.836 1.792-1.15 27.363-42.837-1.793z"/></mask><g mask="url(#k)"><path fill="url(#l)" d="m250.699 87.135 66.613 7.552L278.86 63.04"/></g><mask id="m" width="13" height="68" x="269" y="56" maskUnits="userSpaceOnUse" style="mask-type:luminance"><path fill="#fff" d="M281.453 56.892h-12.035v66.192h12.035z"/></mask><g mask="url(#m)"><path fill="#fff" d="M270.787 121V62.603h8.625V121zm4.313-69.587q-2.332 0-4.08-1.748-1.749-1.749-1.749-4.08 0-2.448 1.749-4.08 1.748-1.748 4.08-1.748 2.447 0 4.079 1.749 1.749 1.63 1.749 4.08 0 2.33-1.749 4.079-1.632 1.748-4.079 1.748"/></g></g><defs><linearGradient id="b" x1="280.092" x2="243.351" y1="78.797" y2="67.954" gradientUnits="userSpaceOnUse"><stop stop-color="#4285F4"/><stop offset=".39" stop-color="#4183F2"/><stop offset=".53" stop-color="#3F7CEC"/><stop offset=".63" stop-color="#3B70E2"/><stop offset=".71" stop-color="#365FD4"/><stop offset=".78" stop-color="#2F49C1"/><stop offset=".84" stop-color="#272FAA"/><stop offset=".87" stop-color="#231F9D"/></linearGradient><linearGradient id="c" x1="265.933" x2="248.79" y1="94.509" y2="95.02" gradientUnits="userSpaceOnUse"><stop stop-color="#4285F4"/><stop offset=".45" stop-color="#4183F2"/><stop offset=".61" stop-color="#3F7CEC"/><stop offset=".72" stop-color="#3B70E2"/><stop offset=".82" stop-color="#365FD4"/><stop offset=".9" stop-color="#2F49C1"/><stop offset=".97" stop-color="#272FAA"/><stop offset="1" stop-color="#231F9D"/></linearGradient><linearGradient id="d" x1="238.048" x2="238.048" y1="65.227" y2="53.275" gradientUnits="userSpaceOnUse"><stop offset=".34" stop-color="#4285F4"/><stop offset="1" stop-color="#231F9D"/></linearGradient><linearGradient id="e" x1="267.68" x2="232.881" y1="43.043" y2="43.043" gradientUnits="userSpaceOnUse"><stop offset=".59" stop-color="#4285F4"/><stop offset="1" stop-color="#231F9D"/></linearGradient><linearGradient id="f" x1="224.452" x2="217.712" y1="82.138" y2="91.847" gradientUnits="userSpaceOnUse"><stop stop-color="#4285F4"/><stop offset=".2" stop-color="#4081F0"/><stop offset=".4" stop-color="#3D75E6"/><stop offset=".6" stop-color="#3761D5"/><stop offset=".79" stop-color="#2E45BE"/><stop offset=".98" stop-color="#2422A0"/><stop offset="1" stop-color="#231F9D"/></linearGradient><linearGradient id="g" x1="247.776" x2="226.58" y1="88.111" y2="118.623" gradientUnits="userSpaceOnUse"><stop stop-color="#4285F4"/><stop offset=".2" stop-color="#4081F0"/><stop offset=".4" stop-color="#3D75E6"/><stop offset=".6" stop-color="#3761D5"/><stop offset=".79" stop-color="#2E45BE"/><stop offset=".98" stop-color="#2422A0"/><stop offset="1" stop-color="#231F9D"/></linearGradient><linearGradient id="h" x1="236.614" x2="247.451" y1="104.622" y2="94.544" gradientUnits="userSpaceOnUse"><stop stop-color="#231F9D"/><stop offset=".08" stop-color="#262BA7"/><stop offset=".36" stop-color="#3252C8"/><stop offset=".61" stop-color="#3B6EE0"/><stop offset=".83" stop-color="#407FEE"/><stop offset="1" stop-color="#4285F4"/></linearGradient><linearGradient id="j" x1="281.523" x2="269.059" y1="89.526" y2="83.26" gradientUnits="userSpaceOnUse"><stop stop-color="#4285F4"/><stop offset=".45" stop-color="#4183F2"/><stop offset=".61" stop-color="#3F7CEC"/><stop offset=".72" stop-color="#3B70E2"/><stop offset=".82" stop-color="#365FD4"/><stop offset=".9" stop-color="#2F49C1"/><stop offset=".97" stop-color="#272FAA"/><stop offset="1" stop-color="#231F9D"/></linearGradient><linearGradient id="l" x1="264.013" x2="309.157" y1="74.806" y2="102.452" gradientUnits="userSpaceOnUse"><stop stop-color="#231F9D"/><stop offset=".03" stop-color="#272FAA"/><stop offset=".1" stop-color="#2F49C1"/><stop offset=".18" stop-color="#365FD4"/><stop offset=".28" stop-color="#3B70E2"/><stop offset=".39" stop-color="#3F7CEC"/><stop offset=".55" stop-color="#4183F2"/><stop offset="1" stop-color="#4285F4"/></linearGradient><clipPath id="a"><path fill="#fff" d="M0 0h399.339v163.213H0z"/></clipPath></defs></svg>