<svg xmlns="http://www.w3.org/2000/svg" xml:space="preserve" width="297mm" height="210mm" viewBox="0 0 297 210"><g style="fill:#000"><path d="m62.725 44.122-3.292 5.1-3.293 5.101 1.558.939c2.743 1.652 2.782 1.592 4.195-6.419zm-6.961 11.529c-.708-.095-.947.218-1.357 1.025-1.628 3.209-2.913 9.184-3.841 17.853-.544 5.08-1.723 12.045-2.621 15.476-.899 3.432-1.81 8.385-2.025 11.008-.549 6.678-3.031 9.445-6.153 6.856-1.276-1.059-1.27-1.297.48-18.122.987-9.502 1.581-17.92 1.342-19.017-.34-1.555-.846-2.056-2.406-2.38-2.353-.488-2.416-.349-3.922 8.642-1.374 8.204-2.545 11.66-5.909 17.445-2.92 5.021-3.834 9.047-3.962 17.439-.047 3.066-.023 3.103 1.928 2.972 1.086-.073 2.99-.191 4.233-.262l2.258-.127-2.669.97c-1.467.533-3.217 1.053-3.888 1.156-1.033.157-1.193.566-1.033 2.65.297 3.872 2.844 10.368 5.49 13.998l2.416 3.319 2.327-1.264 2.327-1.265-1.884 1.671-1.885 1.674 2.412 3.38c1.326 1.86 3.164 4.003 4.085 4.76 2.133 1.758 3.428 1.88 8.211.772 2.136-.496 5.976-1.08 8.532-1.297 3.807-.324 8.703-1.516 8.77-2.136.008-.078.743-1.577 1.633-3.33l1.616-3.189-2.042-1.12c-2.204-1.21-3.813-3.326-1.704-2.241 3.14 1.615 4.312 1.627 5.24.056.5-.847 1.99-2.083 3.312-2.748 3.224-1.621 4.279-4.405 4.62-12.195.301-6.883-.791-15.957-3.11-25.84-1.145-4.88-1.551-8.532-1.462-13.134.162-8.261-.95-10.996-4.628-11.388-3.254-.347-3.676.835-3.12 8.723.236 3.333.198 9.5-.085 13.703s-.29 9.42-.014 11.593c.603 4.758-.405 9.513-2.35 11.083-1.504 1.214-4.083.859-8.215-1.133-2.024-.976-3.017-2.145-1.71-2.012.61.062 2.195-9.92 3.253-20.494.573-5.73.62-9.542.152-12.479-.556-3.488-.453-5.564.588-11.865l1.262-7.638-2.574-.953c-.9-.334-1.493-.537-1.918-.594zm14.504 1.78c-.427.024-2.022 8.66-1.674 9.085.459.56 3.38-.196 3.194-.826-.121-.41-.41-2.424-.64-4.477s-.624-3.754-.875-3.78zm-26.92-.796c-.129-.019-.464.176-1.042.588-1.414 1.008-4.09 5.26-5.173 8.222-.499 1.363-.353 1.58 1.257 1.863 1.598.282 1.807.135 1.696-1.2-.107-1.29 1.417-5.609 3.172-8.99.16-.305.196-.468.09-.483" style="fill:#000;stroke-width:2.41026"/><g style="fill:#000"><path d="M4176.296 1214.44c-15.108.407-27.038 5.837-35.812 16.25-9.086 10.837-13.657 25.81-13.657 44.906 0 19.044 4.57 33.976 13.657 44.813 9.13 10.837 21.666 16.25 37.656 16.25 16.034 0 28.601-5.413 37.687-16.25s13.626-25.77 13.625-44.813c0-19.095-4.539-34.069-13.625-44.906s-21.653-16.25-37.687-16.25c-.625 0-1.23-.016-1.844 0m1.125 22c.242-.01.474 0 .719 0 7.883 0 13.992 3.411 18.313 10.25s6.5 16.491 6.5 28.906c0 12.363-2.18 21.943-6.5 28.782s-10.43 10.28-18.313 10.28c-7.84 0-13.898-3.441-18.219-10.28-4.32-6.839-6.5-16.42-6.5-28.782 0-12.414 2.18-22.067 6.5-28.906 4.185-6.625 10.013-10.043 17.5-10.25m-171.791 89.172c-13.308 11.176-33.107 11.047-41.356 11.047q-24.92 0-39.484-16.413-14.565-16.492-14.564-44.662 0-28.485 14.831-44.82 14.832-16.335 40.62-16.334 9.955 0 19.041 2.21 9.153 2.209 17.237 6.549l-6.921 20.46c-3.03-1.658-6.499-3.293-9.715-4.442q-8.217-2.76-16.501-2.762-15.367 0-23.718 10.18-8.284 10.1-8.284 28.959 0 18.702 8.017 28.88c5.345 6.787 13.377 10.18 22.782 10.18 9.555 0 15.473-2.409 18.629-4.946v-20.384h-20.7v-20.358h40.085m17.581-52.396h16.229l51.277 70.803v-70.802h21.885v117.81h-16.227l-51.278-70.802v70.802h-21.885zm223.126 0h32.737l22.715 73.548 22.849-73.547h27.67l12.5 117.81h-24.32l-7.5-73.668-22.982 74.021h-16.301l-22.982-76.521-7.5 76.168h-24.386l12.5-117.81m131.024-.001h69.414v22.963h-43.693v24.436h33.588v20.463h-33.588v26.986h45.163v22.963h-70.884z" style="font-style:normal;font-variant:normal;font-weight:700;font-stretch:normal;font-size:148.7px;line-height:125%;font-family:&quot;Bitstream Vera Sans&quot;;text-align:start;writing-mode:lr-tb;text-anchor:start;fill:#000;fill-opacity:1;stroke:none;stroke-width:1pt;stroke-linecap:butt;stroke-linejoin:miter;stroke-opacity:1" transform="translate(-1112.094 -285.518)scale(.30853)"/><text xml:space="preserve" x="4474.618" y="1215.743" style="font-style:normal;font-weight:400;font-size:30.6896px;font-family:&quot;Bitstream Vera Sans&quot;;fill:#000;fill-opacity:1;stroke:none;stroke-width:1pt;stroke-linecap:butt;stroke-linejoin:miter;stroke-opacity:1" transform="translate(-1112.094 -285.518)scale(.30853)"><tspan x="4474.618" y="1215.743" style="letter-spacing:11.0626;fill:#000"><tspan style="letter-spacing:.252382;fill:#000">TM</tspan></tspan></text></g></g></svg>