<?xml version="1.0" encoding="UTF-8" standalone="no"?>
<svg
   xml:space="preserve"
   width="297mm"
   height="210mm"
   viewBox="0 0 297 210"
   version="1.1"
   id="svg4"
   xmlns="http://www.w3.org/2000/svg"
   xmlns:svg="http://www.w3.org/2000/svg"><defs
     id="defs4" /><g
     style="fill:#000000"
     id="g4"><path
       d="m 62.725,44.122 -3.292,5.1 -3.293,5.101 1.558,0.939 c 2.743,1.652 2.782,1.592 4.195,-6.419 z m -6.961,11.529 c -0.708,-0.095 -0.947,0.218 -1.357,1.025 -1.628,3.209 -2.913,9.184 -3.841,17.853 -0.544,5.08 -1.723,12.045 -2.621,15.476 -0.899,3.432 -1.81,8.385 -2.025,11.008 -0.549,6.678 -3.031,9.445 -6.153,6.856 -1.276,-1.059 -1.27,-1.297 0.48,-18.122 0.987,-9.502 1.581,-17.92 1.342,-19.017 -0.34,-1.555 -0.846,-2.056 -2.406,-2.38 -2.353,-0.488 -2.416,-0.349 -3.922,8.642 -1.374,8.204 -2.545,11.66 -5.909,17.445 -2.92,5.021 -3.834,9.047 -3.962,17.439 -0.047,3.066 -0.023,3.103 1.928,2.972 1.086,-0.073 2.99,-0.191 4.233,-0.262 l 2.258,-0.127 -2.669,0.97 c -1.467,0.533 -3.217,1.053 -3.888,1.156 -1.033,0.157 -1.193,0.566 -1.033,2.65 0.297,3.872 2.844,10.368 5.49,13.998 l 2.416,3.319 2.327,-1.264 2.327,-1.265 -1.884,1.671 -1.885,1.674 2.412,3.38 c 1.326,1.86 3.164,4.003 4.085,4.76 2.133,1.758 3.428,1.88 8.211,0.772 2.136,-0.496 5.976,-1.08 8.532,-1.297 3.807,-0.324 8.703,-1.516 8.77,-2.136 0.008,-0.078 0.743,-1.577 1.633,-3.33 l 1.616,-3.189 -2.042,-1.12 c -2.204,-1.21 -3.813,-3.326 -1.704,-2.241 3.14,1.615 4.312,1.627 5.24,0.056 0.5,-0.847 1.99,-2.083 3.312,-2.748 3.224,-1.621 4.279,-4.405 4.62,-12.195 0.301,-6.883 -0.791,-15.957 -3.11,-25.84 -1.145,-4.88 -1.551,-8.532 -1.462,-13.134 0.162,-8.261 -0.95,-10.996 -4.628,-11.388 -3.254,-0.347 -3.676,0.835 -3.12,8.723 0.236,3.333 0.198,9.5 -0.085,13.703 -0.283,4.203 -0.29,9.42 -0.014,11.593 0.603,4.758 -0.405,9.513 -2.35,11.083 -1.504,1.214 -4.083,0.859 -8.215,-1.133 -4.441475,-3.34545 0.900906,-16.418186 1.543,-22.506 0.573,-5.73 0.62,-9.542 0.152,-12.479 -0.556,-3.488 -0.453,-5.564 0.588,-11.865 l 1.262,-7.638 -2.574,-0.953 c -0.9,-0.334 -1.493,-0.537 -1.918,-0.594 z m 14.504,1.78 c -0.427,0.024 -2.022,8.66 -1.674,9.085 0.459,0.56 3.38,-0.196 3.194,-0.826 -0.121,-0.41 -0.41,-2.424 -0.64,-4.477 -0.23,-2.053 -0.624,-3.754 -0.875,-3.78 z m -26.92,-0.796 c -0.129,-0.019 -0.464,0.176 -1.042,0.588 -1.414,1.008 -4.09,5.26 -5.173,8.222 -0.499,1.363 -0.353,1.58 1.257,1.863 1.598,0.282 1.807,0.135 1.696,-1.2 -0.107,-1.29 1.417,-5.609 3.172,-8.99 0.16,-0.305 0.196,-0.468 0.09,-0.483"
       style="fill:#000000;stroke-width:2.41026"
       id="path1" /><g
       style="fill:#000000"
       id="g3"><path
         d="m 4176.296,1214.44 c -15.108,0.407 -27.038,5.837 -35.812,16.25 -9.086,10.837 -13.657,25.81 -13.657,44.906 0,19.044 4.57,33.976 13.657,44.813 9.13,10.837 21.666,16.25 37.656,16.25 16.034,0 28.601,-5.413 37.687,-16.25 9.086,-10.837 13.626,-25.77 13.625,-44.813 0,-19.095 -4.539,-34.069 -13.625,-44.906 -9.086,-10.837 -21.653,-16.25 -37.687,-16.25 -0.625,0 -1.23,-0.016 -1.844,0 m 1.125,22 c 0.242,-0.01 0.474,0 0.719,0 7.883,0 13.992,3.411 18.313,10.25 4.321,6.839 6.5,16.491 6.5,28.906 0,12.363 -2.18,21.943 -6.5,28.782 -4.32,6.839 -10.43,10.28 -18.313,10.28 -7.84,0 -13.898,-3.441 -18.219,-10.28 -4.32,-6.839 -6.5,-16.42 -6.5,-28.782 0,-12.414 2.18,-22.067 6.5,-28.906 4.185,-6.625 10.013,-10.043 17.5,-10.25 m -171.791,89.172 c -13.308,11.176 -33.107,11.047 -41.356,11.047 q -24.92,0 -39.484,-16.413 -14.565,-16.492 -14.564,-44.662 0,-28.485 14.831,-44.82 14.832,-16.335 40.62,-16.334 9.955,0 19.041,2.21 9.153,2.209 17.237,6.549 l -6.921,20.46 c -3.03,-1.658 -6.499,-3.293 -9.715,-4.442 q -8.217,-2.76 -16.501,-2.762 -15.367,0 -23.718,10.18 -8.284,10.1 -8.284,28.959 0,18.702 8.017,28.88 c 5.345,6.787 13.377,10.18 22.782,10.18 9.555,0 15.473,-2.409 18.629,-4.946 v -20.384 h -20.7 v -20.358 h 40.085 m 17.581,-52.396 h 16.229 l 51.277,70.803 v -70.802 h 21.885 v 117.81 h -16.227 l -51.278,-70.802 v 70.802 h -21.885 z m 223.126,0 h 32.737 l 22.715,73.548 22.849,-73.547 h 27.67 l 12.5,117.81 h -24.32 l -7.5,-73.668 -22.982,74.021 h -16.301 l -22.982,-76.521 -7.5,76.168 h -24.386 l 12.5,-117.81 m 131.024,-10e-4 h 69.414 v 22.963 h -43.693 v 24.436 h 33.588 v 20.463 h -33.588 v 26.986 h 45.163 v 22.963 h -70.884 z"
         style="font-style:normal;font-variant:normal;font-weight:700;font-stretch:normal;font-size:148.7px;line-height:125%;font-family:'Bitstream Vera Sans';text-align:start;writing-mode:lr-tb;text-anchor:start;fill:#000000;fill-opacity:1;stroke:none;stroke-width:1pt;stroke-linecap:butt;stroke-linejoin:miter;stroke-opacity:1"
         transform="matrix(0.30853,0,0,0.30853,-1112.094,-285.518)"
         id="path2" /><text
         xml:space="preserve"
         x="4474.6182"
         y="1215.743"
         style="font-style:normal;font-weight:400;font-size:30.6896px;font-family:'Bitstream Vera Sans';fill:#000000;fill-opacity:1;stroke:none;stroke-width:1pt;stroke-linecap:butt;stroke-linejoin:miter;stroke-opacity:1"
         transform="matrix(0.30853,0,0,0.30853,-1112.094,-285.518)"
         id="text3"><tspan
           x="4474.6182"
           y="1215.743"
           style="letter-spacing:11.0626;fill:#000000"
           id="tspan3"><tspan
             style="letter-spacing:0.252382;fill:#000000"
             id="tspan2">TM</tspan></tspan></text></g></g></svg>
