<svg xmlns="http://www.w3.org/2000/svg" xmlns:xlink="http://www.w3.org/1999/xlink" xml:space="preserve" width="3796" height="4096"><defs><linearGradient id="b"><stop offset=".393" style="stop-color:#40373b;stop-opacity:1"/><stop offset="1" style="stop-color:#2c2e3b;stop-opacity:1"/></linearGradient><linearGradient id="a"><stop offset=".455" style="stop-color:#353746;stop-opacity:1"/><stop offset="1" style="stop-color:#463a3d;stop-opacity:1"/></linearGradient><linearGradient xlink:href="#a" id="c" x1="1092.197" x2="1584.191" y1="2227.502" y2="2391.163" gradientUnits="userSpaceOnUse"/><linearGradient xlink:href="#b" id="d" x1="1471.65" x2="1573.481" y1="2246.072" y2="2273.443" gradientUnits="userSpaceOnUse"/></defs><path d="M1321.5 2471.95a5.46 5.46 0 0 0-4.422.81l-5.137 3.556c-14.153 9.8-28.257 22.58-36.181 33.102-9.263 12.299-14.784 26.679-15.897 41.58-.55 7.362.788 25.27 2.332 32.666.094.452.174 1.055.705 2.094.532 1.038 2.107 2.752 4.082 3.185 1.976.433 3.32-.126 4.188-.53.868-.406 1.47-.829 2.117-1.31 2.59-1.923 5.975-5.153 12.717-11.507 33.495-31.568 44.852-41.033 76.953-64.137 8.884-6.394 15.111-10.962 19.127-14.047 2.008-1.542 3.444-2.692 4.512-3.646.534-.478.95-.843 1.51-1.54.28-.348.648-.682 1.066-1.898.209-.608.476-1.55.2-2.93-.278-1.38-1.43-2.962-2.56-3.646-1.53-.929-1.548-.659-1.853-.729a12 12 0 0 0-.809-.154 40 40 0 0 0-1.779-.24c-1.35-.157-3.052-.317-4.867-.455-13.092-.995-30.495-3.911-45.938-7.733z" style="fill:#585d70;fill-opacity:1;stroke-width:1.33626"/><path d="M2083.584 2083.505c-.321.016 38.44 22.451 39.578 23.378 5.514 4.491 22.75 18.646 26.853 22.938 2.41 2.52.628 5.82.82 6.751s.786 1.955 1.016 3.04c1.058 4.99 2.643 10.157-3.682 12.95-7.123 3.146-40.7 1.887-70.049-.511 0 0 40.579 21.113 61.748 30.453 21.536 9.503 34.383 14.812 45.188 18.674 12.356 4.416 16.86 6.163 37.123 14.404 17.232 8.403 27.09 13.9 44.9 18.14 0 0 20.53 3.213 44.902 7.7 25.474 4.69 25.004 4.648 62.932 5.4 40.958.813 45.878 1.1 97.582 5.66 27.922 2.465 45.828 10.35 63.992 13.865 16.744 3.239 23.958 4.211 41.366 5.568 22.283 1.738 46.695-5.625 53.982-2.462v-.01c2.752 1.194 4.107 1.414 3.086.502-3.272-2.924-10.565-12.722-17.705-15.824s-11.747-3.546-21.797-3.94c-27.915-1.093-54.44-5.018-66.203-7.553-2.806-.604-9.24-1.864-14.295-2.797-5.056-.934-12.693-2.682-16.97-3.886-10.566-2.975-46.297-14.947-54.704-18.33-3.824-1.54-8.583-2.906-10.842-3.114-5.513-.507-36.784-11.073-44.328-14.978-3.351-1.735-8.435-4.943-11.299-7.129-3.963-3.027-6.834-4.527-12.021-6.283-3.748-1.27-15.247-5.572-25.553-9.563s-26.057-9.728-35.002-12.746c-21.34-7.2-46.743-14.79-53.387-17.603-2.916-1.235-8.96-3.289-13.433-4.565-4.473-1.275-14.177-4.12-21.567-6.324-7.389-2.203-21.676-6.073-31.746-8.598-19.186-4.81-25.774-7.13-46.037-16.214-10.401-4.663-54.448-27.34-54.448-26.994m-150.789 48.816s-89.096 2.791-96.675 3.963c-7.784 1.204-6.469 14.4.509 15.064 28.365 2.693 98.733 7.574 111.722 11.854 12.144-.155 23.934-7.026 35.697-12.817l10.283-5.648s-10.458-6.575-30.424-10.134c-10.112-1.802-31.112-2.282-31.112-2.282" style="fill:#554852;fill-opacity:1;stroke-width:1.33626"/><path d="M1122.674 2368.643c-.345.344-5.494 5.066-4.311 7.677 3.639 8.027 11.438 25.188 16.71 40.934 2.764 8.25 2.831 23.275 6.108 32.625s9.727 20.925 10.973 24.5 2.07 8.65 3.662 12.5 11.48 9.278 12.919 12.853c19.951 42 50.399 77.083 76.116 115.881 9.695 14.584 21.338 32.674 25.104 38.724s8.639 12.045 9.856 13.97c.642 1.016 3.988 3.825 6.683 8.949a296 296 0 0 0-3.443-12.96c-3.597-12.321-13.522-58.428-13.522-62.814 0-9.544 29.74-39.205 73.54-73.35 29.234-22.788 29.242-22.793 47.155-25.837 24.364-4.14 37.908-4.648 74.91-2.801 18.813.938 45.994 2.288 60.403 2.998 16.026.79 28.452 2.085 32.004 3.338 27.697 9.775 95.708 10.545 123.367 15.148 79.435 13.753 159.084 28.697 237.95 45.23 4.963 2.532 5.736 2.236 7.767 1.099 0-1.632 6.527-.21 7.857 1.92.7 1.12 2.878 2.112 5.49 2.501 7.046 1.048 36.527 1.025 36.527.129 0-1.358-4.025-5.151-5.756-5.151-.887 0-1.89-.45-2.23-1-4.35-3.289-37.44-12.956-40.963-12.956-55.546-1.269-196.9-106.012-299.137-109.696-2.897-1.626-6.12-.43-3.097-2.96a424 424 0 0 0 6.678-5.706c-5.232 4.376-10.536 8.832-10.713 8.324-.464-1.325-1.29-1.197-3.3.508-6.05 5.131-40.14 26.103-49.35 30.36-26.237 12.125-45.14 8.606-75.839 8.666-22.819.044-37.777-3.434-53.025-7.672-1.569-.436-2.932-.169-4.137.51q-.529.57-1.144 1.15c-2.292 2.156-4.76 4.043-4.76 5.39 0 6.053-30.212 9.261-40.688 6.836-4.092.152-6.179 1.86-8.093 3.559-1.778 1.577-11.922 9.013-22.541 16.522-26.651 18.844-48.116 36.611-69.928 57.884-10.189 9.937-19.182 18.067-19.986 18.067-1.926 0-1.168-2.715-3.246-19.307-4.49-41.859 22.318-66.073 54.822-88.451-2.065-.536-3.75-2.123-5.176-2.46-5.75-1.356-18.023-6.657-27.406-11.056-29.037-11.785-59.024-21.409-84.89-39.431-13.082-9.313-11.42-17.02-33.17-30.407-14.045-8.643-24.725-16.362-35.36-25.634-3.584-2.444-7.814.117-11.39.896" style="fill:#33363f;fill-opacity:1;stroke-width:.11811"/><path d="M931.787 2644.28c-.415.04-3.536.786-5.425 3.904-1.903 3.144-8.133 6.951-10.927 10.546-3.368 4.333-5.782 9.266-8.46 13.363-.465.715-.98 1.357-1.442 2.088a163 163 0 0 0-8.128 14.46c-6.717 13.465-11.102 26.61-13.336 27.99-24.315 28.406-42.032 76.628-58.424 108.738a2008 2008 0 0 1-7.075 17c-.374.881-1.086 1.28-1.461 2.222-1.6 4.237-4.04 7.347-5.525 11.827-.925 3.21-.074 7.423-1.387 11.951-4.429 15.277-5.594 25.8-3.254 29.371 2.362 3.605 7.188 4.366 10.79 1.703l2.886-2.134v.105c4.449-13.317 17.961-42.257 24.906-51.95 1.422-1.982 5.14-7.594 8.264-12.468 11.468-17.896 43.557-56.384 63.266-75.88 24.71-24.446 35.352-27.581 38.824-33.11-.053-.071-.099-.154-.147-.211-3.339-3.957-9.931-25.535-16.068-50.926-.797-3.3-2.205-8.49-3.014-11.515a232 232 0 0 1-2.642-11.235c-.757-3.716-1.837-5.836-2.22-5.84" style="fill:#313540;fill-opacity:1;stroke-width:1.47269"/><path d="M1184.639 2191.953c-1.98.081-3.519.181-5.602.256a86876 86876 0 0 0-64.719 2.338c-12.024.45-24.854 5.436-33.222 15.084s-11.492 22.005-11.492 33.934c0 7.095 1.454 18.163 6.841 26.652s11.594 14.06 21.701 23.775c28.963 27.837 66.865 55.69 104.403 78.47 37.537 22.78 73.666 40.479 103.6 46.925 14.868 3.202 27.256 5.383 41.083 1.101 13.827-4.281 23.589-16.062 29.225-26.96l-1.783 3.445 35.94-1.563c28.964-1.26 46.368-2.215 58.806-3.97 6.219-.878 11.274-1.762 17.137-4.364 5.862-2.602 13.381-9.192 16.19-16.508 4.244-11.063 1.555-12.944.937-16.046-.619-3.103-1.43-5.795-2.407-8.684-1.953-5.777-4.606-12.099-7.806-18.6-17.857-36.272-52.656-69.812-99.852-100.722-10.185-6.67-20.13-13.336-27.832-18.62-7.702-5.283-15.171-11.106-13.014-9.203-6.71-5.919-11.488-7.497-17.794-10.148s-13.46-5.18-21.024-7.54c-53.455-16.675-111.983-3.596-129.316 10.948" style="fill:url(#c);stroke-width:5.89077"/><path d="M1705.2 2149.377c-.208-.01-.61.027-1.163.098h.076l-8 2.935c-4.4 1.615-10.025 3.814-12.5 4.887s-13.275 5.4-24 9.613c-29.9 11.748-37.864 17.28-58.974 40.967-34.102 40.105-28.223 59.202-23.6 112.5 3.183 35.401 3.2 41.645.14 57.156-2.618 13.278-3.66 16.657-8.628 27.998-8.16 18.625-22.922 32.793-42.197 40.496-29.515 11.796-37.582 13.604-61.74 13.842-22.15.218-23.34.585-25.057 7.742-.862 3.593-2.27 5.99-5.067 8.621-1.019.96-1.898 1.97-2.56 2.914 27.51 8.36 66.125 13.702 94.203 8.866 20.405-3.866 40.278-10.513 52-16.91 19.004-10.374 33.668-19.691 45.238-28.143-.27-.7.314-1.497 1.951-2.867 21.57-18.056 37.313-34.69 45.409-47.975 1.954-3.208 3.454-4.676 5.093-4.611 15.709-19.37 16.037-23.318 27.543-27.258 14.577-4.991 110.186-36.772 197.256-41.355 25.853-1.362 54.447-.668 89.5 2.177 15.928 1.293 60.105 8.63 78.195 11.516-4.453-.997-4.087-1.292-1.244-1.762 2.403-.396 5.775-.732 7.492-.732 2 0 2.962-.509 2.674-1.39-.248-.76-10.294-3.926-22.41-7.061-12.078-3.125-34.605-9.737-50.062-14.694-101.175-28.282-200.93-29.787-304.96-36.873l-9.115-7.404c-16.825-13.668-30.264-20.79-36.933-34.309-1.002-2.03-1.984-4.433-2.783-6.73-3.97-7.76-5.354-13.832-5.354-15.592 0-6.626 31.145-37.445 45-44.53 1.925-.983 4.727-2.813 6.227-4.064s4.081-2.573 5.738-2.937c2.946-.647 3.759-4.099 2.765-5.092q-.036-.035-.154-.039" style="fill:#a2aac1;fill-opacity:1;stroke-width:2.0827"/><path d="M2221.268 2214.881c-115.279-24.658-147.553-30.926-208.648-40.52-27.045-4.247-35.057-5.841-44.526-8.86-3.643-1.16-10.433-2.943-15.088-3.961-10.142-2.219-14.612-3.47-13.615-3.813.405-.14 5.704-1.085 11.775-2.102 8.396-1.405 12.127-2.396 15.58-4.138 4.043-2.04 6.194-5.804 10.018-5.409 2.361.244 13.913 1.721 26.663 2.136 41.367 1.348 72.198 2.236 85.974 4.685 7.866 1.4 18.132 8.973 38.398 17.785 28.634 12.451 36.11 15.524 49.31 20.267 13.47 4.84 51.314 20.084 60.902 24.532 10.88 5.046 9.418 4.994-16.743-.602z" style="fill:#645864;fill-opacity:1;stroke:#000;stroke-width:1.3908;stroke-opacity:0"/><path d="M1749.025 2149.262c-17.129-.152-33.816.853-46.437 5.246-13.048 4.54-39.53 26.515-53.363 44.693-5.046 6.63-5.466 6.683-4.827 12.123.36 3.066 2.418 9.149 4.573 13.516 6.669 13.518 24.897 24.162 41.722 37.83l9.116 7.404c104.029 7.086 203.785 8.592 304.959 36.873 15.457 4.957 37.984 11.569 50.062 14.694 12.116 3.135 22.162 6.3 22.41 7.06.288.882-.674 1.39-2.674 1.39-1.717 0-5.089.337-7.492.733-3.955.653-3.118.968 8.817 3.305 36.269 7.1 57.21 10.598 91.459 15.273l37.447 5.112c45.339 11.396 96.595 33.754 138.518 52.507 4.282 1.75 2.354-.893 3.713-1.627-7.618-4.914-28.139-14.602-40.713-23.343-18.812-13.078-28.423-18.99-43.196-26.57-10.45-5.363-25.975-13.697-34.5-18.522a14265 14265 0 0 0-29-16.363c-7.425-4.175-23.175-13.201-35-20.059-11.825-6.857-31.276-17.773-43.226-24.258s-28.15-15.37-36-19.748c-25.126-14.012-58.307-30.333-82.774-40.715-59.577-25.279-91.893-36.801-124.5-44.39-24.14-5.619-43.6-10.725-51.5-13.514-.45-.159-1-.337-1.635-.531-4.41-1.347-12.913-3.449-20.365-5.01a421 421 0 0 1-6.508-1.414c-14.386-.235-31.957-1.544-49.086-1.695" style="fill:#8b848c;fill-opacity:1;stroke-width:2.0827"/><path d="M1565.338 2223.21c-3.105-.267-3.686.297-5.23.653-2.418.558-7.223 1.92-11.858 3.297-10.44 3.103-12.14 3.529-19.37 4.8-3.59.633-8.23 1.627-11.187 2.425-5.15 1.389-9.924 2.15-24.322 3.763-6.42.72-10.115 1.15-12.7 1.59-1.291.22-2.275.376-3.712.934-1.437.557-4.328 2.457-5.309 5.4-1.577 4.733.317 6.111.866 7.022.548.91.98 1.401 1.425 1.904.89 1.006 1.833 1.896 2.973 2.916 2.281 2.04 5.285 4.458 8.756 7.045 2.307 1.72 9.652 8.176 15.437 13.775 7.191 6.96 11.973 11.371 16.375 14.545 4.403 3.174 8.744 5.006 13.018 5.951 9.08 2.009 18.404-1.676 24.844-8.572s10.989-16.674 14.267-28.99c1.543-5.797 2.77-12.4 3.504-18.08.367-2.84.612-5.426.684-7.7.036-1.136.035-2.184-.061-3.298-.096-1.115.022-2.143-1.207-4.44-.19-.356-.496-1.194-1.817-2.488-1.32-1.293-3.827-2.317-5.377-2.451z" style="fill:url(#d);fill-opacity:1;stroke:#000;stroke-width:.944882;stroke-opacity:0"/><path d="M1882.198 2023.025c-11.608-.654-35.537 2.455-31.078 2.31 2.7-.088 7.384.913 13.119 2.633 6.744 1.522 14.87 3.57 18.559 4.785 13.866 4.566 34.929 17.118 45.474 27.1 16.99 14.325 11.994 26.71-14.252 50.242-7.935 7.114-14.194 11.22-21.984 14.428-8.57 3.527-14.759 5.31-23.89 6.877a156 156 0 0 1-4.358.689 108 108 0 0 1-2.494.904s16.363-1.03 23.326-1.47c9.075-.574 26.4-1.33 38.5-1.682 23.585-.685 30.593-1.742 43.845-6.611 13.237-4.864 26.206-15.276 28.471-22.862 1.887-6.318 2.408-13.793 1.213-17.416-1.382-4.189-3.974-6.536-20.121-18.236-20.77-15.05-82.722-41.038-94.33-41.691" style="fill:#eb5e30;fill-opacity:1"/><path d="M1345.37 1680.39c-3.05.013-7.076.85-9.61 2-2.397 1.088-4.813 1.979-5.369 1.979-1.943 0-37.323 16.102-42.921 19.535-3.108 1.905-6.033 3.464-6.5 3.474-.468.01-2.734 1.468-5.036 3.25s-6.504 4.59-9.34 6.24c-2.835 1.65-7.816 4.913-11.068 7.25-3.252 2.338-6.156 4.25-6.453 4.25-2.194 0-32.201 20.87-39.54 27.5-9.76 8.817-30.906 26.863-32.673 27.881-2.898 1.671-29.795 28.483-35.76 35.647-6.192 7.439-14.044 16.627-17.921 20.973-6.352 7.119-19.664 23.206-23.428 28.31-2.356 3.196-4.891 6.044-5.633 6.328-1.827.701-22.28 29.495-25.83 36.362-1.564 3.025-4.752 8.425-7.086 12-11.858 18.162-28.154 48.297-41.098 76-4.754 10.175-9.022 18.892-9.486 19.373-.478.494-4.453-.018-9.172-1.184-10.826-2.673-26.864-6.381-44.326-10.248-7.7-1.705-19.334-4.458-25.854-6.117-8.656-2.203-12.153-2.718-12.96-1.91-1.258 1.257-.748 1.67 12.314 9.978 10.201 6.49 17.591 10.727 42.156 24.172 10.261 5.616 19.937 11.245 21.5 12.508l2.844 2.297-5.385 15.314c-2.961 8.424-10.644 30.842-17.074 49.817-7.469 22.04-12.207 34.598-13.117 34.773-.784.15-5.78-3.275-11.106-7.611-12.272-9.995-22.618-21.516-29.45-32.793-.624-1.028-1.494-1.524-1.934-1.102s31.565 71.195 31.55 73.182c-.036 4.803-1.582 4.904-6.158.404-5.512-7.01-12.373-11.833-17.008-19.402-32.566-58.829-48.828-94.58-51.84-130.127-1.307-15.426-3.532-16.37-4.601-7.824-2.919 23.327.905 63.449 8.58 90.01 4.063 14.06 14.88 38.77 19.477 44.49.663.824 3.2 4.804 5.636 8.843s5.099 8.412 5.916 9.717c1.338 2.135 1.316 2.502-.22 3.656-1.567 1.178-1.335 1.9 2.824 8.784 2.492 4.124 7.288 11.1 10.656 15.5 8.198 10.71 8.137 11.458-1.102 13.578-8.307 1.905-11.476 4.333-11.476 8.787 0 4.837 2.635 7.627 10.012 10.592 9.47 3.806 9.82 4.025 9.82 6.132 0 1.164-1.588 2.746-4.197 4.186-2.309 1.273-4.486 3.228-4.84 4.342-.909 2.863 1.934 5.605 6.639 6.4 5.682.96 6.101 2.51 3.93 14.576-7.614 42.29-13.67 95.621-16.055 141.407-.602 11.55-1.054 37.874-1.006 58.5.13 55.99-1.358 68.82-11.967 103.222-7.559 24.51-10.704 32.38-22.49 56.277-5.154 10.45-11.249 23.276-13.543 28.5-2.295 5.226-5.21 11.75-6.477 14.5-3.31 7.183-7.17 15.75-11.49 25.5a988 988 0 0 1-7.285 16c-3.619 7.713-14.564 35.074-19 47.5-1.375 3.85-5.885 15.585-10.024 26.077s-8.042 21.067-8.676 23.5c-5.803 22.288-16.891 52.336-25.617 69.423-6.348 12.432-8.323 17.74-15.83 42.55-4.271 14.116-6.203 18.907-9.883 24.5-6.618 10.06-7.606 10.93-15.26 13.44-6.957 2.283-12.786 4.735-34.847 14.653-6.555 2.947-12.786 5.358-13.846 5.358s-3.204-.91-4.765-2.022c-6.573-4.68-16.947-6.265-25.073-3.83-3.18.953-4.605.853-8.367-.584-2.494-.952-5.096-2.526-5.783-3.498s-2.786-2.562-4.666-3.531c-5.233-2.697-10.766-1.4-25.785 6.047-11.032 5.469-14.085 7.496-18.43 12.236-8.03 8.76-13.8 22.605-13.83 33.182-.02 7.319 3.65 19 5.969 19 .514 0 2.46-2.363 4.324-5.25 4.79-7.417 23.624-26.99 25.31-26.303l2.77 1.125c.83.337 1.648-.177 1.988-1.25.319-1.002 2.72-3.116 5.338-4.697l4.76-2.876 3.502 1.89c3.044 1.641 3.502 2.38 3.502 5.638 0 3.956 1.758 5.399 5.25 4.312 3.85-1.197 4.196.343 4.478 19.955.15 10.426.553 18.28.895 17.456s1.366-3.975 2.277-7c1.094-3.632 3.786-8.219 7.924-13.5 5.497-7.017 6.94-8.237 11.723-9.918 6.752-2.374 6.343-1.985 4.9-4.68-1.09-2.038-.846-2.608 2.405-5.586 2.922-2.678 4.446-3.316 7.912-3.316 5.825 0 8.8 2.195 8.482 6.261-.23 2.95.013 3.203 3.754 3.889 4.926.903 17.46-.501 23.455-2.627 2.45-.87 4.976-1.38 5.611-1.137.635.244 1.74 4.868 2.453 10.278 1.388 10.506 3.061 15.77 5.286 16.623 2.518.966 3.788-.905 5.695-8.381 1.04-4.074 3.18-11.232 4.76-15.907 2.495-7.387 3.289-8.686 6.056-9.93 2.643-1.186 3.184-1.989 3.184-4.714 0-4.196 2.102-5.356 9.713-5.356 8.272 0 10.676 1.853 10.015 7.713-.636 5.645.557 6.144 6.774 2.838 2.638-1.402 5.8-2.55 7.025-2.55 1.484 0 4.076-2.102 7.75-6.288 3.037-3.458 7.16-7.17 9.164-8.25 2.005-1.079 3.823-2.863 4.04-3.963.464-2.361 1.59-21.838 2.081-36 .205-5.895 1.803-17.59 3.893-28.49 1.95-10.17 3.545-19.52 3.545-20.779v-2.291l-2.887 2.135c-3.602 2.663-8.427 1.901-10.789-1.703-2.34-3.572-1.175-14.095 3.254-29.372a5344 5344 0 0 0 4.62-16c.546-1.925 2.236-6.425 3.753-10a2008 2008 0 0 0 7.074-17c16.393-32.11 34.694-79.114 59.008-107.519 2.234-1.38 9.25-13.017 15.967-26.48 5.225-10.474 10.698-19.102 18.42-29.036 2.794-3.594 6.637-9.107 8.541-12.25s3.785-5.715 4.18-5.715 1.244 2.588 1.888 5.75c.645 3.163 1.834 8.225 2.643 11.25s2.122 8.2 2.92 11.5c6.136 25.391 13.127 47.043 16.467 51 1.565 1.856 5.765 11.716 7.455 17.5.964 3.304 18.476 44.214 19.476 45.5.428.55 5.55 10.45 11.385 22 11.637 23.037 16.771 32.665 25.228 47.307l5.6 9.693-.517 14.5c-1.108 31.089-5.347 58.452-10.588 68.352-1.704 3.218-3.114 6.818-3.133 8s-.679 3.273-1.465 4.648c-1.653 2.891-1.946 7.606-.527 8.483.535.33 1.464 2.424 2.064 4.65.6 2.23 2.894 6.007 5.104 8.405 3.23 3.504 5.09 4.594 9.53 5.587 5.455 1.221 5.602 1.194 12.749-2.484 7.032-3.618 7.487-3.712 16.639-3.43l9.408.29 2.338 4.244c1.286 2.334 2.596 6.734 2.91 9.779s.97 5.781 1.457 6.082c1.829 1.13 5.87-5.467 7.266-11.856.738-3.381 2.474-3.488 10.275-.628 4.404 1.614 7.14 3.56 11.451 8.14 6.213 6.601 8.49 7.01 9.02 1.623.324-3.297 1.528-4.43 3.316-3.119.55.404 5.926 6.36 11.947 13.234 27.049 30.884 61.322 59.77 85.25 71.848 3.303 1.668 7.31 4.122 8.905 5.455 3.348 2.8 5.779 3.686 11.67 4.254 2.325.224 7.6.993 11.72 1.707 8.838 1.533 9.75 2.999 4.65 7.477-5.404 4.745-7.03 8.873-10.572 26.832-3.34 16.942-4.318 32.135-2.24 34.783.923 1.175 1.616 4.933 3.172 17.176 1.316 10.355 7.814 21.468 12.55 21.468 1.213 0 2.763.675 3.448 1.5s1.928 1.5 2.762 1.5c1.27 0 1.398-1.01.789-6.25-.4-3.437-1.031-8.95-1.404-12.25-.374-3.3-1.024-6.544-1.446-7.209-1.215-1.915 1.197-18.416 3.283-22.453 1.041-2.014 2.184-5.389 2.54-7.5 1.85-10.993 4.143-12.848 7.962-6.435 2.735 4.591 12.351 14.911 14.543 15.607 1.034.328 3.384-.528 5.623-2.049 3.569-2.422 4.355-2.56 10.823-1.912 6.54.657 11.525 2.61 11.525 4.518 0 .46 1.688 2.476 3.75 4.478 3.663 3.557 3.755 3.825 3.93 11.516.211 9.28 4.227 23.747 7.965 28.69 3.015 3.987 5.835 4.17 7.697.5 1.242-2.45 2.499-14.294 3.209-30.25.283-6.363 3.88-21.833 5.44-23.391.746-.746 1.67-.677 3.13.234 1.087.678 2.049 1.11 2.21.996l.01-.01c3.779-7.906 6.957-9.858 16.5-10.125 6.081-.17 7.293.104 9.468 2.14 2.461 2.306 2.503 2.31 3.142.294 1.48-4.66 2.286-23.407 1.348-31.334-.54-4.563-1.083-14.37-1.209-21.795-.125-7.425-.997-18.45-1.935-24.5-3.967-25.572-6.74-42.499-8.188-50-2.737-14.172-3.367-20.487-4.943-49.5-3.346-61.59-4.499-73.355-9.057-92.5-1.31-5.5-3.517-15.85-4.906-23-1.39-7.15-5.043-22-8.12-33-3.075-11-6.243-22.475-7.04-25.5-3.7-14.044-6.744-24.173-9.567-31.852-2.683-7.298-2.908-8.657-1.78-10.765 1.725-11.235-20.718-46.4-25.831-56.383-6.322-12.375-12.49-24.075-13.707-26s-5.295-8.45-9.06-14.5c-3.767-6.05-14.78-22.931-24.475-37.516-19.048-28.653-22.565-33.714-39.615-56.984-3.83-5.225-7.617-10.455-8.418-11.621s-4.017-5.16-7.147-8.873c-3.13-3.714-8.006-11.293-10.836-16.844-2.83-5.55-5.932-11.233-6.894-12.627-.963-1.394-2.927-5.46-4.366-9.035s-3.918-9.65-5.51-13.5-3.915-9.925-5.162-13.5-4.945-14.15-8.222-23.5-8.22-23.75-10.983-32c-5.273-15.745-12.385-34.72-16.023-42.746-1.184-2.611-1.87-5.029-1.525-5.373.344-.344 3.456 1.843 6.917 4.861 10.635 9.273 22.816 18.116 36.86 26.76 21.75 13.387 22.838 14.094 35.92 23.406 18.475 13.151 31.28 19.714 62.515 32.04 8.8 3.472 18.475 7.474 21.5 8.892 9.383 4.399 22.25 9.293 28 10.65 3.025.714 8.492 2.139 12.149 3.166 14.688 4.128 42.926 8.844 52.951 8.844 2.2 0 5.214.624 6.7 1.387 7.248 3.72 44.202-.068 44.202-6.612 0-1.346 1.583-3.763 3.875-5.92 2.796-2.63 4.205-5.028 5.067-8.62 1.717-7.158 2.907-7.525 25.056-7.743 24.159-.238 32.226-2.046 61.74-13.842 19.276-7.703 34.039-21.871 42.198-40.496 4.969-11.342 6.01-14.72 8.629-27.998 3.058-15.511 3.042-21.755-.14-57.156-4.624-53.298-10.503-72.395 23.599-112.5 21.11-23.687 29.074-29.22 58.974-40.967 10.725-4.214 21.525-8.54 24-9.613s8.1-3.272 12.5-4.887l8-2.935-5.58-.05c-7.742-.066-33.47-7.16-50.83-14.011-23.973-8.922-35.297-34.357-7.672-60.568 18.058-16.895 43.66-33.727 54.082-40.409 9.505-6.092 15.472-11.236 13.713-11.822-.514-.171-5.659.826-11.433 2.217-9.505 2.29-14.475 3.895-20.28 6.549-1.1.503-5.825 2.343-10.5 4.092-11.178 4.18-31.212 13.697-38.054 18.078-8.414 5.387-28.814 22.767-36.334 30.957-8.806 9.588-17.14 21.158-23.32 32.369-8.067 14.633-24.555 46.49-27.68 53.484-4.286 9.367-10.223 17.882-15.803 26.516-2.492 3.85-5.118 8.125-5.834 9.5-2.702 5.188-9.474 13.245-13.4 15.945-2.242 1.541-10.15 5.613-17.575 9.047l-17.566 8.125c-5.08 2.352-6.557 2.357-9.549.023-15.67-12.224-54.591-35.022-72.885-42.693-7.153-3-34.753-12.762-50.636-17.91-5.575-1.807-12.1-4.607-14.5-6.223s-8.864-5.57-14.364-8.787-15.85-9.455-23-13.863c-7.15-4.409-20.2-12.374-29-17.7s-18.025-11.046-20.5-12.715c-3.729-2.513-12.122-7.513-23.5-13.998-1.1-.626-10.55-5.74-21-11.365s-19.675-10.759-20.5-11.408c-3.624-2.851-32.03-16.263-54-25.496-6.875-2.89-15.65-6.706-19.5-8.479-9.26-4.264-19.876-8.223-27.67-10.32-8.143-2.19-8.655-4.295-2.978-12.2 5.96-8.296 26.392-39.99 28.43-44.097.985-1.987 3.283-5.362 5.107-7.5s4.114-5.462 5.088-7.387c2.347-4.639 18.245-27.447 26.139-37.5 21.92-27.912 35.846-46.433 37.039-49.253 1.788-4.23 7.103-12.536 15.193-23.747a5364 5364 0 0 0 9.072-12.605c8.276-11.567 16.797-22.07 35.922-44.291 9.878-11.476 29.072-30.779 41.158-41.39 5.225-4.588 10.407-9.16 11.516-10.159 1.11-.999 4.26-3.517 7-5.598s5.884-4.595 6.984-5.591 5.783-4.636 10.405-8.088c4.622-3.453 10.247-7.743 12.5-9.535s6.345-4.777 9.095-6.631c4.665-3.146 7.373-6.046 15.047-16.112 6.003-7.874 8.453-12 8.453-14.232 0-2.072-.453-2.266-5.25-2.246zm524.45 325.082-10.7.106c18.905 4.13 36.453 13.284 55.373 17.164 3.823.445 5.992 2.082 3.85 2.904-.777.298-3.374-.337-5.772-1.41-4.354-1.95-8.008-2.164-8.055-.471-.014.493 3.492 2.433 7.79 4.312 24.028 10.508 43.452 21.59 64.222 36.64 16.147 11.7 18.739 14.047 20.121 18.235 1.196 3.623.675 11.098-1.213 17.416-2.265 7.586-15.234 17.999-28.47 22.862-13.253 4.869-20.261 5.927-43.846 6.611-12.1.351-29.425 1.108-38.5 1.682s-22.125 1.396-29 1.828c-7.913.497-15.069 1.574-19.5 2.933-6.355 1.95-30.678 5.828-47.75 7.612-3.712.388-6.75 1.054-6.75 1.48 0 1.464 7.523 3.752 23 6.994 8.525 1.787 18.425 4.28 22 5.542 7.9 2.788 27.36 7.895 51.5 13.513 32.607 7.59 64.923 19.112 124.5 44.39 24.467 10.382 57.648 26.703 82.774 40.716 7.85 4.377 24.05 13.264 36 19.748s31.401 17.4 43.226 24.258c11.825 6.857 27.575 15.884 35 20.058 7.425 4.175 20.475 11.538 29 16.363s24.05 13.16 34.5 18.522c14.773 7.58 24.384 13.493 43.195 26.57 13.307 9.25 29.957 20.487 37 24.97 22.912 14.586 24.671 15.798 28.764 19.796 4.47 4.367 4.983 4.787 23.236 19.076.364.284 134.211 104.991 282.805 133.525 2.75.591 8.6 1.436 13 1.88 4.4.442 8.675.867 9.5.944s4.875-.3 9-.837c4.125-.538 12.675-1.468 19-2.065 11.286-1.065 25.506-3.727 45.63-8.543 13.972-3.343 21.833-4.65 28.854-4.8 7.785-.167 8.549-2.272 2.073-5.708-2.49-1.32-4.738-2.952-4.996-3.625-.525-1.368 2.775-3.938 9.29-7.236 2.394-1.211 9.552-5.658 15.907-9.88 6.354-4.224 12.608-8.354 13.896-9.179 4.55-2.912 2.265-2.878-4.295.065-16.727 7.505-35.29 12.272-52.642 13.52l-8.217.592-18.617-8.52c-10.24-4.685-20.252-9.2-22.25-10.035s-3.63-2.105-3.63-2.82c0-.716 3.04-2.864 6.75-4.774 14.355-7.387 37.46-24.324 49.831-36.527 10.446-10.305 9.742-11.343-2.293-3.389-16.786 11.095-64.444 33.295-74.318 34.62-3.213.43-6.444-.844-23.348-9.208-10.79-5.339-19.885-10.136-20.209-10.66-.898-1.453 1.18-3.443 8.965-8.59 8.185-5.412 26.387-22.64 30.926-29.273 1.693-2.475 4.905-6.633 7.136-9.24 4.688-5.478 11.557-16.479 11.557-18.508 0-.762-3.037 1.364-6.75 4.725s-8.417 7.103-10.455 8.316c-5.944 3.54-24.7 16.686-28.236 19.791-3.596 3.157-12.286 8.711-23.301 14.895-12.641 7.095-10.332 7.286-30.989-2.577-10.047-4.797-18.269-9.258-18.269-9.914s2.66-3.283 5.912-5.838c7.398-5.812 24.688-23.352 30.213-30.65 2.29-3.025 5.424-8.2 6.965-11.5 5.688-12.184 4.695-14.944-2.455-6.82-7.955 9.037-63.113 42.32-70.135 42.32-1.254 0-7.843-2.194-14.64-4.875-6.799-2.68-13.373-5.185-14.61-5.566-3.25-1.002-2.772-3.67 1.365-7.614 6.618-6.308 17.437-21.171 21.371-29.36 6.556-13.644 9.288-28.094 3.797-20.083-2.879 4.2-20.623 21.445-30.834 29.967-4.703 3.924-11.53 8.802-15.174 10.84l-6.623 3.703-10.326-3.395c-14.14-4.649-21.826-8.184-21.826-10.039 0-.842 2.024-4.55 4.498-8.238 2.474-3.689 5.921-10.337 7.66-14.774 2.76-7.043 3.173-9.335 3.252-18.066.113-12.413-1.413-13.269-5.57-3.125-3.006 7.335-9.838 16.366-20.295 26.822-10.233 10.233-8.925 10.101-26.617 2.684-8.37-3.51-15.663-7.089-16.207-7.955-.726-1.155-.16-3.315 2.119-8.09 3.855-8.079 6.133-17.479 6.133-25.336 0-12.025-2.644-13.986-4.74-3.514-1.917 9.571-14.307 31.014-17.92 31.014-1.711 0-17.309-5.117-21.641-7.1-2.105-.963-2.705-1.82-2.344-3.347 3.762-15.895 4.428-24.505 2.365-30.553-1.677-4.919-3.93-4.503-5.004.924-.48 2.433-2.821 8.958-5.199 14.5-4.905 11.435-4.448 11.21-14.49 7.135-11.714-4.754-11.298-4.289-13.15-14.74-.909-5.126-3.046-12.694-4.748-16.819s-3.098-7.613-3.098-7.75c0-.138-.418-.25-.924-.25-.53 0-.702 3.913-.404 9.25.565 10.144-.93 16.983-3.84 17.543-.916.176-8.34-2.824-16.5-6.668l-14.836-6.988-.68-4.319c-1.027-6.516-5.373-20.17-6.545-20.56-.572-.19-1.558 2.682-2.213 6.449-1.995 11.49-1.922 11.299-4.332 11.225-1.227-.038-8.755-3.3-16.73-7.25l-14.5-7.182-3.318-9c-1.826-4.95-3.675-9.675-4.11-10.5-1.462-2.776-2.573-.948-2.254 3.707.379 5.507-.43 9.293-1.984 9.293-.62 0-3.424-1.493-6.23-3.318-2.807-1.826-6.954-3.85-9.217-4.5-6.166-1.77-8.972-4.464-10.315-9.907-2.875-11.652-3.128-12.275-4.986-12.275-1.507 0-1.92.996-2.297 5.535-.252 3.044-.89 5.967-1.418 6.494-1.004 1.004-20.326-6.586-22.64-8.894-.677-.675-1.681-3.307-2.231-5.85-1.262-5.835-3.088-6.515-5.027-1.873-.825 1.974-2.165 3.588-2.979 3.588-3.257 0-19.623-7.35-21.402-9.611-1.057-1.343-2.939-2.389-4.299-2.389-1.331 0-14.318-6.234-28.857-13.854s-30.486-15.301-35.436-17.072c-18.641-6.669-23.5-8.97-23.5-11.13 0-1.676 5.253-.998 16.5 2.13 11.678 3.248 16.233 4.41 45.5 11.606 10.175 2.502 22.55 5.612 27.5 6.912s16.418 4.205 25.482 6.455 16.94 4.441 17.5 4.869c1.047.8 9.072 3.539 20.518 7.002 16.012 4.844 15.19 4.436 16.383 8.127 1.425 4.408 4.736 5.182 6.414 1.5.758-1.664 1.965-2.545 3.482-2.545 4.862 0 20.214 3.954 21.342 5.496.641.877 1.462 3.562 1.822 5.967.83 5.537 3.153 7.812 5.166 5.059.766-1.047 1.391-2.857 1.391-4.022s.626-2.973 1.39-4.02c1.36-1.858 1.732-1.834 16.17 1.05 8.128 1.623 15.378 3.55 16.11 4.283.732.732 1.348 2.311 1.371 3.51.055 2.9 4.046 10.796 6.074 12.02 3.232 1.95 4.885.075 4.9-5.562.023-7.518.695-8.21 7.133-7.357 8.643 1.145 29.016 5.435 33.352 7.023 2.2.806 5.35 1.49 7 1.524 1.65.032 4.996.657 7.436 1.386 3.909 1.17 4.566 1.79 5.533 5.235 1.316 4.692 3.786 5.186 4.543.908.455-2.57.957-2.986 3.51-2.91 2.916.087 16.144 2.528 25.884 4.777l4.906 1.133 3.737 12.5c2.054 6.875 4.121 12.39 4.594 12.256s.97-4.41 1.107-9.5c.339-12.6.678-13.762 4.02-13.737 5.21.038 36.436 6.758 37.712 8.116.706.75 2.312 5.64 3.567 10.865s2.707 10.057 3.228 10.738c2.043 2.667 2.87-.297 2.606-9.35-.173-5.946.138-9.808.845-10.515.824-.824 2.914-.673 7.946.57 10.664 2.637 19.137 4.335 27.826 5.578 4.4.63 8.534 1.67 9.186 2.311 1.296 1.276 2.464 4.294 8.49 21.918 2.21 6.463 4.49 11.75 5.066 11.75 1.108 0 .654-8.19-1.21-21.865-.553-4.052-.76-7.764-.46-8.25.845-1.367 3.784-1.082 15.809 1.539 32.372 7.055 39.958 8.75 48.992 10.951 5.43 1.323 10.214 2.957 10.629 3.629s2.014 6.006 3.553 11.857c2.029 7.715 2.817 13.158 2.87 19.805.042 5.042.379 9.472.75 9.844 2.173 2.173 6.437-13.216 7.4-26.703.425-5.964 1.146-9.87 1.874-10.149 1.336-.512 30.166 6.537 33.131 8.102 1.672.882 9.064 2.998 25.266 7.232 4.11 1.075 4.52 1.523 7.634 8.323 3.798 8.292 15.28 39.431 18.872 51.185l2.445 8 .101-9.074c.112-9.957-2.46-26.244-6.591-41.72-1.889-7.076-2.314-10.1-1.526-10.888.788-.787 5.068-.095 15.406 2.497 7.873 1.973 17.688 4.309 21.813 5.189 10.858 2.316 11.494 2.719 14.486 9.178 2.699 5.824 11.94 28.772 17.647 43.818 1.668 4.4 3.643 9.35 4.386 11 1.33 2.951 1.354 2.906 1.417-2.79.144-13.028-2.345-28.88-7.145-45.501-1.465-5.073-1.788-7.61-1.06-8.338 1.075-1.076 21.464 2.562 29.751 5.309l3.983 1.32 24.017 47.95c13.21 26.372 24.578 48.12 25.26 48.33 1.53.469 1.164-1.879-2.916-18.78-3.783-15.67-9.883-31.817-19.967-52.853-4.322-9.019-7.859-16.98-7.859-17.69 0-2.02 2.053-2.246 8-.883 3.025.694 10.791 1.836 17.258 2.54 6.466.702 12.154 1.526 12.638 1.831.485.305 5.941 10.455 12.125 22.555s11.695 22.45 12.243 23c2.17 2.177-.364-8.602-5.756-24.5-3.078-9.075-5.688-17.58-5.801-18.902-.163-1.91.7-2.886 4.201-4.75 2.424-1.291 5.012-2.348 5.75-2.348 3.237 0-.76-18.18-5.926-26.95-3.934-6.679-23.478-26.45-33.843-34.235-31.855-23.928-58.368-35.281-94.118-40.3-5.686-.798-12.311-2.148-14.724-3-97.03-25.264-194.417-44.088-294.563-55.58-18.512-2.188-52.274-3.951-85.984-4.49-23.497-.375-38.605-1.046-43.5-1.931-163.295-29.52-175.353-36.094-248-48.912-18.862-3.328-60.151-10.08-71-11.61-8.105-1.142-26.042-5.282-27.92-6.443-.488-.302-8.242-2.327-17.232-4.502s-19.048-4.632-22.348-5.46c-16.263-4.077-35.408-7.69-50.787-9.58-19.773-2.429-25.096-2.942-35.713-3.445-29.378-1.39-32.838-2.86-9.357-3.97 7.777-.368 15.652-1.122 17.5-1.674 5.462-1.633 41.918-2.286 58.6-1.05 8.382.62 19.857 2.017 25.5 3.103 31.618 6.085 37.518 6.722 69.564 7.511 14.131.349 40.093 1.788 57.693 3.2 36.924 2.96 60.468 3.468 68.23 1.472 9.203-2.366 13.92-10.788 9.985-17.826-7.799-13.949-69.257-59.58-139.031-88.347-4.3-1.773-9.025-4.234-10.5-5.47-3.227-2.701-13.155-7.75-18.684-9.503-2.2-.697-4.492-1.657-5.094-2.131-21.427-10.525-45.17-15.165-68.406-19.78-17.076-3.285-33.386-5.105-44.8-4.993zm-827.444 65.084h.06c2.647.065 25.998 11.157 31.266 14.883 1.42 1.004 14.24 7.731 28.49 14.947 23.74 12.022 31.802 16.341 50.427 27.012 3.575 2.048 15.725 8.197 27 13.664 23.678 11.48 54.832 27.825 56.957 29.883 2.96 2.865-.428 3.493-21.042 3.908-33.26.668-50.86 1.548-60.415 3.021-4.95.763-15.3 1.4-23 1.412-38.232.064-60.17 2.264-95.185 9.547-6.702 1.394-14.206 2.535-16.674 2.535-4.853 0-5.914-.671-17.037-10.796-3.243-2.952-7.595-6.494-9.674-7.87-4.454-2.947-5.167-4.343-3.594-7.043.64-1.097 3.755-6.9 6.92-12.894s6.163-11.572 6.662-12.397c.5-.825 1.618-3.525 2.487-6 1.675-4.771 14.472-28.89 26.793-50.5 5.371-9.421 7.988-13.084 9.508-13.306.016 0 .032 0 .05-.01zm231.744 121.617 12 2.698c20.95 4.708 63.5 19.946 63.5 22.742 0 1.062-.313.996-5.963-1.23-4.283-1.689-5.037-1.76-5.037-.475 0 .83 1.238 1.95 2.75 2.486s3.65 1.512 4.75 2.17 5.375 3.186 9.5 5.619c7.616 4.492 28.153 18.029 44.5 29.33 34.35 23.748 61.484 53.124 75.127 81.332 6.667 13.785 9.277 23.866 7.264 28.065-1.945 4.055-5.285 5.421-13.391 5.476-3.85.026-10.15.468-14 .983s-23.65 1.612-44 2.439c-20.35.828-39.852 1.782-43.338 2.121-6.154.599-6.382.725-7.836 4.28-2.702 6.609-9.553 16.226-12.728 17.869-1.704.881-5.348 2.202-8.098 2.935s-5.45 1.273-6 1.203-4.375-.466-8.5-.88c-15.545-1.562-35.225-7.7-55-17.153-7.975-3.813-17.65-8.362-21.5-10.11-16.206-7.355-38.498-19.887-58.283-32.765-10.575-6.883-35.295-25.82-54.75-41.94-24.116-19.981-39.388-34.935-43.043-42.148-2.43-4.796-2.607-5.964-2.176-14.287.586-11.319 2.958-16.887 9.512-22.33 4.295-3.567 5.446-4.003 12.24-4.621 8.952-.814 66.612-2.542 97.506-2.922 12.103-.149 22.565-.616 23.25-1.04 3.451-2.132.708-4.013-11.256-7.714-2.2-.68-7.6-2.775-12-4.656-6.08-2.6-9.92-3.544-16-3.94-4.4-.286-8.315-.818-8.701-1.181-.823-.775-.063-.8 50.701-1.68zm290.795 38.537c.289-.01.484.022.588.086 3.523 2.177-6.945 94.656-52.688 48.731-8.632-8.714-17.315-16.926-19.295-18.25-7.821-5.23-15.911-12.296-15.056-13.15.488-.488 4.885-1.288 9.771-1.776 17.998-1.796 26.982-3.091 30.885-4.453 2.2-.767 7.335-1.89 11.41-2.496s10.15-1.958 13.5-3.006c12.233-3.827 18.863-5.636 20.885-5.685zm-625.613 104.8c.64-.044 1.226 2.916 1.607 8.609.322 4.812 1.283 11.718 2.135 15.347s1.776 12.854 2.053 20.5.745 15.477 1.039 17.402.71 6.2.93 9.5c.218 3.3 1.154 10.5 2.077 16 2.553 15.196 5.655 37.779 5.702 41.5.027 2.148 2.474 23.146 3.73 32 .585 4.126 1.733 9.75 2.55 12.5.819 2.75 2.837 10.176 4.485 16.5 4.491 17.232 5.042 19.236 6.172 22.5 1.111 3.21 4.979 19.445 6.79 28.5 1.646 8.24 1.928 8.477 10.263 8.655 36.342 2.65 72.623 19.627 100.248 42.664 2.299 2.3 3.379 1.27 1.197-1.14-.913-1.01-1.66-2.137-1.66-2.506 0-.986 2.777-.821 3.168.187.183.473 3.482 3.472 7.332 6.662 10.464 8.67 17.203 15.326 33.39 32.979 14.244 15.533 26.194 30.47 33.018 41.273 1.832 2.9 6.764 9.249 10.961 14.108 36.738 42.53 50.3 57.922 78.48 89.052 3.768 4.162 8.197 10.221 9.842 13.467 2.85 5.622 2.957 6.284 2.268 14-1.075 12.034-.832 36.663.48 48.6 1.557 14.154 3.339 23.61 9.239 49 9.309 40.062 16.886 74.439 19.287 87.5.91 4.95 2.72 14.625 4.021 21.5 1.302 6.875 2.641 14.3 2.977 16.5s2.216 12.266 4.18 22.369c3.835 19.732 3.77 21.574-.848 24.459-5.319 3.322-11.475 2.442-18.065-2.584-1.795-1.37-7.951-5.473-13.681-9.117l-10.418-6.627h-7.694c-4.774 0-9.16-.608-11.564-1.602-9.087-3.757-29.321-14.018-35.828-18.17-37.56-23.965-43.498-29.085-71.633-61.777-25.349-29.456-36.666-44.419-58.293-77.065-43.987-66.398-66.3-107.612-88.11-162.74-3.513-8.881-7.574-18.824-9.025-22.098-3.195-7.212-12.744-30.589-16.154-39.548-16.59-43.588-32.208-105.237-37.822-149.307-3.08-24.183-3.447-27.758-4.533-44.193-2.984-45.137 1.284-134.768 6.623-139.09 1.426-1.155 4.402-11.323 4.402-15.04 0-1.214.639-4.833 1.418-8.04.78-3.207 1.7-7.518 2.045-9.58.402-2.402.821-3.583 1.219-3.61m736.521 51.997c-1.64-.065-3.139 1.403-5.094 4.611-8.095 13.286-23.839 29.92-45.408 47.975-3.023 2.53-2.451 3.102.445 4.729 92.906 10.942 246.2 107.278 301.745 108.547 3.523 0 36.26 9.71 40.609 13 .34.55 1.344 1 2.23 1 1.731 0 5.27 2.776 5.27 4.134 0 .896-28.785.273-35.83-.775-2.612-.389-4.79-1.382-5.49-2.502-1.186-1.899-7.68-2.726-7.68-.979 0 2.08 22.444 15.121 26.022 15.121 1.02 0 3.273 1.297 5.007 2.881 16.47 9.523 35.817 23.818 53.256 29.826 1.634.327 4.825 1.632 7.092 2.899 2.268 1.267 8.623 4.623 14.123 7.459 10.266 5.293 22.15 12.653 26.399 16.35l2.398 2.085-.736-2.5c-.405-1.375-.81-3.4-.899-4.5-.237-2.918 3.076-2.05 7.338 1.924 1.925 1.795 4.883 3.807 6.574 4.47 2.065.808 3.767 2.63 5.186 5.55 2.967 6.107 13.13 16.635 19.303 19.994 4.745 2.583 5.814 2.778 12.21 2.242l7.01-.588 7.873 7.11c9.855 8.898 11.844 12.02 11.844 18.584 0 6.199 2.35 11.823 8.299 19.865 9.817 13.27 23.61 18.836 34.514 13.93l4.265-1.92 4.211 4.064c2.316 2.236 7.361 6.074 11.211 8.53 7.357 4.691 16.016 13.176 21.17 20.746 3.65 5.36 9.284 16.354 10.434 20.36.886 3.09-.917 14.399-3.729 23.378-1.325 4.232-1.4 5.528-.385 6.75 2.233 2.69 5.037 1.627 11.19-4.238 6.395-6.097 9.233-10.606 10.318-16.391.948-5.054-2.262-20.271-5.103-24.188-1.266-1.744-3.525-5.146-5.022-7.558-2.62-4.224-2.652-4.436-.855-5.75 1.026-.75 2.39-1.363 3.03-1.363.642 0 6.365 4.162 12.718 9.25 6.353 5.087 13 10.378 14.771 11.76 2.88 2.245 3.238 3.09 3.379 8 .378 13.17 12.69 28.686 21.09 26.577 4.146-1.04 6.494-4.124 6.494-8.529 0-2.167.414-4.197.92-4.51 1.72-1.062 5.08 4.579 5.08 8.526 0 3.003.846 4.779 4.016 8.441 2.208 2.551 4.734 6.033 5.615 7.737 2.233 4.317 7.369 19.36 7.369 21.58 0 1.009.316 2.149.701 2.535.386.385 1.398.568 2.25.406 1.736-.33 2.617-5.34 3.654-20.777.78-11.594-.511-18.543-5.175-27.866-5.853-11.698-13.724-19.182-21.737-20.668-2.404-.445-4.391-1.597-5.392-3.125-.872-1.33-3.657-3.612-6.192-5.07-2.534-1.458-7.227-4.702-10.427-7.209-18.658-14.613-24.365-18.9-35.442-26.621-10.152-7.077-12.904-9.558-16-14.428-7.06-11.104-20.46-20.652-45.478-32.408-12.769-6-25.855-13.24-32.762-18.125-2.475-1.75-8.367-5.27-13.094-7.824-6.01-3.248-11.27-7.22-17.5-13.215-4.898-4.714-10.256-9.267-11.906-10.12-3.792-1.957-18.513-12.874-33.861-25.109-6.525-5.2-18.9-14.644-27.5-20.988-13.679-10.088-21.776-15.676-47.028-32.449-3.086-2.05-5.756-3.302-5.933-2.783-.178.519 1.285 3.048 3.25 5.62 7.12 9.327 4.584 8.74-19.928-4.609-29.163-15.881-20.98-9.132-29.066-14.5-13.879-6.67-27.143-16.595-40.657-23.5-.266 0-4.095-2.137-8.51-4.75-4.414-2.612-11.342-6.707-15.396-9.101a4560 4560 0 0 1-12.871-7.63 386 386 0 0 0-11-6.269c-8.863-4.816-22.717-12.778-24.164-13.886-.734-.563-3.811-2.047-6.836-3.299s-6.4-3.093-7.5-4.09-8.075-4.946-15.5-8.773c-62.486-32.212-84.627-44.075-96.5-51.7-12.787-8.212-27.193-17.945-29.064-19.636-1.215-1.098-2.249-1.688-3.233-1.727m-573.232 284.1c-7.552.18-28.011 3.47-29.543 5.002-.435.434-7.38 34.294-9.4 45.828-1.019 5.812-2.32 12.337-2.891 14.5s-1.957 8.207-3.08 13.432-2.563 11.32-3.201 13.546c-1.053 3.671-.863 4.831 2.038 12.5 2.15 5.685 5.333 11.32 9.72 17.203 3.587 4.813 7.054 8.75 7.704 8.74 1.14-.01 2.438-3.563 8.754-23.99 1.616-5.224 3.374-10.4 3.906-11.5.533-1.1 2.494-6.5 4.358-12 9.734-28.728 17.838-52.018 21.053-60.5 1.98-5.224 3.607-10.547 3.607-11.828.01-2.787-7.004-9.884-10.672-10.804-.46-.116-1.274-.155-2.353-.13m-40.479 257.762c1.825 0 20.91 28.54 20.033 29.958-1.016 1.644-9.48.944-18.154-1.5l-5.13-1.445.437-11.256c.525-13.545.92-15.758 2.814-15.758" style="fill:#1f1e24;fill-opacity:1"/><path d="M1886.497 2044.511c-4.112-.079-8.225.42-12.095 1.568-22.254 6.603-33.272 20.4-30.318 37.966 2.908 17.292 14.63 31.216 29.066 34.522 2.167.496 4.882.756 6.033.576a462 462 0 0 1 6.62-.94c10.88-1.476 25.405-12.86 31.008-24.304 5.313-10.85 5.29-26.948-.049-35.127-5.617-8.605-17.93-14.026-30.265-14.26m7.88 14.235c1.195-.04 2.42.436 3.972 1.38 3.321 2.02 4.934 6.462 4.207 11.597-.393 2.78-.65 2.829-12.125 2.256-4.172-.208-7.586-.849-7.586-1.422 0-1.99 3.995-8.817 6.438-11.003 2.07-1.854 3.559-2.757 5.095-2.808m-15.718 30.592 8.633.68c4.748.374 9.018 1.028 9.489 1.455 1.35 1.224-1.878 7.795-5.056 10.295-3.166 2.49-3.893 2.587-8.013 1.079-3-1.099-5.053-5.364-5.053-10.5z" style="fill:#312624;fill-opacity:1;stroke-width:1.04638"/><path d="M1650.85 2089.085c-1.706-.066-3.044.444-3.944 1.528-.818.986-1.462 4.927-1.658 10.146-.27 7.211-.031 8.862 1.549 10.639 1.028 1.157 3.13 4.351 4.67 7.101s3.948 6.238 5.353 7.75c2.928 3.152 7.446 3.654 10.93 1.213 2.46-1.723 5.255-9.934 5.24-15.394-.017-6.387-7.137-19.069-10.705-19.069-.75 0-3.129-.9-5.285-2-2.37-1.209-4.445-1.848-6.15-1.914" style="fill:#6a5a5a;fill-opacity:1"/><path d="M1654.162 2094.086c-1.64.037-3.456.7-5.258 1.983-2.66 1.894-2.904 2.578-2.904 8.139 0 4.61.421 6.391 1.75 7.4 2.504 1.9 5.597 1.693 8.473-.568 3.362-2.645 4.732-12.326 2.148-15.182-1.102-1.218-2.568-1.808-4.209-1.772" style="fill:#3c2925;fill-opacity:1"/><path d="M1853.46 2131.936c-.287-.464-.147-.968.311-1.12s.832-.86.832-1.571c0-.91-2.254-2.553-7.601-5.539-8.74-4.88-23.946-14.366-30.41-18.969-8.491-6.046-16.886-14.825-24.205-25.31-8.95-12.825-10.057-14.76-9.782-17.12.451-3.87 14.17-14.072 28.865-21.462 11.05-5.558 37.586-14.84 42.423-14.84 2.633 0 22.486 4.635 28.903 6.748 13.866 4.566 34.93 17.119 45.475 27.1 7.678 7.269 9.982 11.361 9.97 17.704-.131 12.632-15.661 24.613-24.222 32.538-7.935 7.115-14.193 11.222-21.983 14.43-8.57 3.527-14.759 5.308-23.891 6.875-9.177 1.575-13.936 1.749-14.686.536zm33.922-14.421c7.4-1.91 13.641-5.683 20.346-12.301 9.323-9.203 12.77-17.527 12.745-30.773-.027-14.665-7.332-23.626-23.12-28.362-5.58-1.674-16.692-1.673-22.95 0-15.43 4.129-26.884 14.135-30.037 26.239-2.864 10.994 4.167 30.19 13.915 37.99 9.489 7.592 18.73 9.88 29.1 7.204z" style="fill:#beb3b5;fill-opacity:1;stroke:#beb4b6;stroke-width:1.33626;stroke-opacity:1"/><path d="M1129.183 2692.778c-.818 0-2.356 3.08-10.8 21.618-2.909 6.384-14.502 41.514-19.49 59.054-1.483 5.22-4.632 14.949-6.996 21.619-9.225 26.034-8.733 24.162-7.145 27.247.795 1.544 1.687 3.045 1.984 3.335s1.767 2.425 3.27 4.745c2.97 4.583 7.478 9.985 8.321 9.97.29 0 3.85-5.536 7.91-12.293s8.33-13.958 9.49-16 2.703-4.365 3.428-5.161c.725-.797 1.318-1.88 1.318-2.408 0-.527 1.578-3.459 3.507-6.515s4.896-8.625 6.591-12.376 8.185-16.966 14.42-29.365c11.031-21.936 12.47-25.507 10.282-25.507-.58 0-1.055-.458-1.055-1.017 0-.56-4.053-7.797-9.005-16.082-8.213-13.744-13.684-20.864-16.03-20.864z" style="fill:#585f71;fill-opacity:1;stroke:#000;stroke-width:2.81831;stroke-opacity:0"/><path d="M2073.254 2096.302c-7.848-.275-13.11 8.083-8.559 14.725 2.145 3.129 5.862 6.412 9.207 8.133 1.43.735 2.823 1.562 3.098 1.838 1.108 1.11 3.611 2.466 24.791 13.412 4.01 2.072 9.635 4.611 12.5 5.642 9.72 3.499 23.448 1.872 23.86-2.828.687-7.864-1.407-11.128-10.542-16.426a771 771 0 0 1-14.609-8.746c-10.246-6.315-28.794-13.89-38.144-15.578a11 11 0 0 0-1.602-.172" style="fill:#18100d;fill-opacity:1"/></svg>