<svg xmlns="http://www.w3.org/2000/svg" xmlns:xlink="http://www.w3.org/1999/xlink" xml:space="preserve" width="800" height="800" viewBox="0 0 198.686 198.686"><defs><linearGradient id="d"><stop offset="0" style="stop-color:#1c2a76;stop-opacity:1"/><stop offset="1" style="stop-color:#1e2d7f;stop-opacity:0"/></linearGradient><linearGradient id="c"><stop offset="0" style="stop-color:#bdbdbd;stop-opacity:1"/><stop offset="1" style="stop-color:#fff;stop-opacity:1"/></linearGradient><linearGradient id="b"><stop offset="0" style="stop-color:#0b102d;stop-opacity:1"/><stop offset=".036" style="stop-color:#8192f3;stop-opacity:1"/><stop offset=".073" style="stop-color:#0b102d;stop-opacity:1"/><stop offset=".927" style="stop-color:#0b102d;stop-opacity:1"/><stop offset=".961" style="stop-color:#8192f3;stop-opacity:1"/><stop offset="1" style="stop-color:#0b102d;stop-opacity:1"/></linearGradient><linearGradient xlink:href="#a" id="g" x1="-84.748" x2="-84.804" y1="44.996" y2="-22.561" gradientTransform="translate(169.084 57.58)" gradientUnits="userSpaceOnUse"/><linearGradient xlink:href="#b" id="f" x1="12" x2="116" y1="66" y2="66" gradientUnits="userSpaceOnUse"/><linearGradient id="a" x1="180" x2="180" y1="358.605" y2="7.759" gradientUnits="userSpaceOnUse"><stop offset="0" style="stop-color:#1e2d7f;stop-opacity:1"/><stop offset="1" style="stop-color:#3550ec;stop-opacity:1"/></linearGradient><linearGradient xlink:href="#c" id="j" x1="239.092" x2="239.092" y1="182.671" y2="130.741" gradientUnits="userSpaceOnUse"/><radialGradient xlink:href="#d" id="h" cx="17.735" cy="108.652" r="6.354" fx="17.735" fy="108.652" gradientTransform="matrix(1 0 0 .66638 0 35.953)" gradientUnits="userSpaceOnUse"/><radialGradient xlink:href="#d" id="i" cx="17.735" cy="108.652" r="6.354" fx="17.735" fy="108.652" gradientTransform="matrix(-1 0 0 .66638 128 35.953)" gradientUnits="userSpaceOnUse"/></defs><g transform="translate(-18.035 -18.035)scale(1.83402)"><rect width="104" height="100" x="12" y="16" rx="8" ry="8" style="display:inline;fill:url(#f);fill-opacity:1;stroke:none;stroke-width:.25;stroke-linecap:butt;stroke-linejoin:miter;stroke-miterlimit:4;stroke-dasharray:none;stroke-dashoffset:0;stroke-opacity:1;marker:none;marker-start:none;marker-mid:none;marker-end:none;paint-order:normal"/><rect width="104" height="100" x="12" y="12" rx="8" ry="8" style="display:inline;fill:url(#g);fill-opacity:1;stroke:none;stroke-width:.25;stroke-linecap:butt;stroke-linejoin:miter;stroke-miterlimit:4;stroke-dasharray:none;stroke-dashoffset:0;stroke-opacity:1;marker:none;marker-start:none;marker-mid:none;marker-end:none;paint-order:normal"/><path d="M12 103.532V104c0 4.432 3.568 8 8 8h4.708v-8.458a.01.01 0 0 0-.01-.01z" style="display:inline;fill:url(#h);fill-opacity:1;stroke:none;stroke-width:.25;stroke-linecap:butt;stroke-linejoin:miter;stroke-miterlimit:4;stroke-dasharray:none;stroke-dashoffset:0;stroke-opacity:1;marker:none;marker-start:none;marker-mid:none;marker-end:none;paint-order:normal"/><path d="M116 103.532V104c0 4.432-3.568 8-8 8h-4.708v-8.458a.01.01 0 0 1 .01-.01z" style="display:inline;fill:url(#i);fill-opacity:1;stroke:none;stroke-width:.25;stroke-linecap:butt;stroke-linejoin:miter;stroke-miterlimit:4;stroke-dasharray:none;stroke-dashoffset:0;stroke-opacity:1;marker:none;marker-start:none;marker-mid:none;marker-end:none;paint-order:normal"/></g><path d="M226.778 113.11v16.162h-9.397l20.66 24.505 22.711-24.505H250.42v-16.163h-1.234zm-12.225 47.854c-2.68 0-4.84 1.774-4.84 3.977v4.105c0 2.203 2.16 3.977 4.84 3.977h49.028c2.681 0 4.84-1.774 4.84-3.977v-4.105c0-2.203-2.159-3.977-4.84-3.977zm24.514.508a6.72 5.522 0 0 1 6.72 5.522 6.72 5.522 0 0 1-6.72 5.521 6.72 5.522 0 0 1-6.72-5.521 6.72 5.522 0 0 1 6.72-5.522m-.06.89h.001a5.37 4.413 0 0 0-5.37 4.413 5.37 4.413 0 0 0 .174 1.116 25.544 20.988 0 0 1 .514-.094c.697-.12.92-.164.939-.187l.001-.002v-.003q-.005-.004-.016-.008c-.155-.048.058-.138.336-.14l.146-.002-.102-.055-.103-.055.245-.006c.214-.006.295.005.645.09.22.054.539.125.71.158s.425.094.568.135c.293.085.343.091.319.039q-.037-.081.211.024c.17.071.205.075.23.022.011-.025.04-.035.076-.027.068.014.073-.014.026-.127-.032-.075-.035-.076-.103-.039-.055.03-.074.03-.083.006l-.06-.173c-.042-.129-.052-.14-.11-.124-.137.036-.152.027-.172-.107-.018-.12-.073-.264-.103-.273h-.002a.3.3 0 0 0-.073.062c-.077.081-.127.064-.116-.04.016-.154-.02-.166-.434-.142-.202.012-.41.014-.462.007-.131-.02-.232-.124-.43-.448-.163-.263-.169-.282-.157-.424.01-.121.035-.18.13-.308a.6.6 0 0 1 .302-.24c.369-.164 1.164-.353 1.76-.418.395-.043.376-.036.387-.152.008-.092.022-.11.126-.158a.4.4 0 0 1 .137-.051c.025 0 .024.024.013.073l-.02.078.083-.066c.105-.082.124-.081.124.006v.07l.183-.05c.142-.04.256-.05.513-.05.18.001.336.01.352.019.012.01-.003.032-.033.05q-.019.012-.02.017v.002h.001c.008.01.07.01.224.001.208-.01.271-.006.318.026q.034.023.033.033v.001l-.001.001-.001.001-.01.002c-.05 0-.047.05.004.05s.38.126.531.204l.118.06-.128.008-.128.007.144.097a1.6 1.6 0 0 1 .226.183c.05.054.069.074.06.084q-.01.007-.042.01a.2.2 0 0 1-.106-.022q-.034-.023-.047-.022h-.002l-.001.001v.001q-.016.022.102.195c.068.1.213.334.323.522s.246.413.303.5c.068.104.11.205.12.293l.016.134-.06-.058q-.035-.032-.05-.034h-.002l-.002.001-.001.002c-.012.018.014.108.083.3.072.2.087.29.087.487a1 1 0 0 1-.017.24h-.001c-.035 0-.097-.084-.098-.132q0-.027-.008-.034l-.001-.001h-.005a5 5 0 0 0-.046.522c-.034.544-.053.672-.106.686-.019.005-.044-.015-.056-.046q-.005-.015-.01-.016l-.001-.001h-.002c-.013.003-.03.054-.06.168a1.7 1.7 0 0 1-.096.292.2.2 0 0 1-.039.062h-.004q-.005-.007-.005-.037 0-.009-.003-.012h-.001l-.001-.001h-.001q-.026.002-.137.195c-.243.42-.613.856-.984 1.158a2.876 2.363 0 0 0-.113.097 5.37 4.413 0 0 0 3.776-4.214 5.37 4.413 0 0 0-5.37-4.413z" style="color:#000;fill:url(#j);fill-opacity:1;stroke-width:2.47131;-inkscape-stroke:none" transform="matrix(1.60299 0 0 1.9509 -283.879 -179.764)"/></svg>