<?xml version="1.0" encoding="UTF-8" standalone="no"?>
<svg
   xml:space="preserve"
   width="256"
   height="256"
   version="1.1"
   id="svg1"
   xmlns="http://www.w3.org/2000/svg"
   xmlns:svg="http://www.w3.org/2000/svg"><defs
     id="defs1" /><path
     d="M 128.586,1.754 A 126.247,126.247 0 0 0 2.34,128 126.247,126.247 0 0 0 128.586,254.246 126.247,126.247 0 0 0 254.832,128 126.247,126.247 0 0 0 128.586,1.754 m -3.068,19.482 a 106.764,107.18 0 0 1 106.763,107.18 106.764,107.18 0 0 1 -90.398,105.777 c 5.51,-5.9 10.88,-13.805 14.494,-21.441 1.56,-3.291 2.31,-4.467 2.328,-3.645 0.023,1.103 0.095,1.055 0.772,-0.488 0.409,-0.936 1.121,-3.56 1.584,-5.83 0.644,-3.17 0.92,-3.87 1.187,-3.012 0.193,0.615 0.594,1.037 0.893,0.936 0.864,-0.293 1.184,-2.842 1.73,-13.682 0.28,-5.592 0.618,-10.276 0.75,-10.41 0.132,-0.134 0.248,0.174 0.256,0.688 0.016,0.946 1.035,2.632 1.592,2.632 h 0.008 l 0.002,-0.002 c 0.163,-0.098 0.295,-2.217 0.295,-4.795 0,-3.915 -0.262,-5.7 -1.432,-9.707 -1.745,-5.975 -1.827,-6.96 -0.443,-5.357 l 0.988,1.148 -0.264,-2.673 c -0.173,-1.753 -0.843,-3.76 -1.949,-5.832 -0.927,-1.739 -3.153,-6.223 -4.945,-9.967 a 300.957,302.128 0 0 0 -2.817,-5.711 c 12.095,-4.287 23.278,-8.288 23.803,-8.555 0.888,-0.45 1.766,-1.204 2.23,-1.916 0.315,-0.48 0.384,-0.683 0.477,-1.441 0.09,-0.733 0.075,-0.987 -0.088,-1.49 -0.255,-0.785 -1.06,-1.905 -1.822,-2.532 -0.331,-0.272 -5.624,-3.854 -11.764,-7.957 -6.14,-4.103 -11.159,-7.486 -11.156,-7.515 0.006,-0.051 -4.375,-23.275 -10.71,-56.774 q -2.675,-14.14 -2.712,-15.08 c -0.02,-0.517 -0.12,-1.17 -0.22,-1.451 -0.89,-2.471 -4.21,-4.326 -8.02,-4.477 -3.657,-0.145 -6.693,1.484 -7.25,3.891 -0.146,0.626 -0.274,0.923 -2.397,5.508 l -2.593,5.605 -2.582,5.578 -2.59,5.608 a 412.765,414.37 0 0 1 -1.422,3.062 c -0.067,0.137 -0.381,0.81 -0.695,1.494 -0.315,0.686 -1.16,2.512 -1.875,4.061 -2.09,4.513 -3.79,8.191 -5.184,11.211 a 450.595,452.348 0 0 1 -1.422,3.062 c -0.067,0.137 -0.38,0.812 -0.695,1.497 -0.315,0.686 -1.159,2.51 -1.875,4.058 a 10247.663,10287.532 0 0 0 -4.902,10.596 l -1.04,2.252 -16.054,5.715 c -10.931,3.892 -16.29,5.85 -16.791,6.138 -2.31,1.324 -3.047,3.523 -1.858,5.53 a 8.154,8.186 0 0 0 0.87,1.173 c 0.224,0.242 6.488,4.488 14.44,9.836 -2.555,0.929 -4.79,1.883 -6.476,2.797 -2.57,1.394 -3.326,2.13 -4.943,4.807 -1.545,2.557 -1.944,3.722 -2.107,6.13 -0.194,2.84 -0.077,3.223 2.556,8.46 3.242,6.443 4.88,8.522 7.027,8.916 0.853,0.156 4.24,0.098 7.526,-0.131 6.763,-0.47 7.336,-0.242 7.08,2.832 -0.172,2.076 0.642,2.414 1.898,0.789 0.528,-0.68 1.062,-1.236 1.19,-1.236 0.476,0 1.416,2.965 1.724,5.449 0.333,2.675 0.567,2.853 2.788,2.133 0.956,-0.31 1.128,-0.08 1.826,2.478 0.424,1.552 0.857,3.103 0.967,3.447 0.153,0.487 0.451,0.454 1.347,-0.144 1.117,-0.743 1.167,-0.72 1.682,0.785 0.77,2.248 0.677,2.812 -0.418,2.52 -0.603,-0.16 -1.06,0.036 -1.248,0.533 -0.399,1.057 -0.98,0.99 -3.74,-0.434 -2.697,-1.392 -3.855,-1.553 -3.452,-0.484 0.394,1.045 -0.419,0.925 -5.203,-0.76 -2.324,-0.819 -6.499,-2.033 -9.277,-2.697 -2.778,-0.664 -7.989,-2.083 -11.578,-3.15 -5.706,-1.697 -7.027,-1.921 -10.516,-1.797 l -3.99,0.14 1.672,1.094 1.674,1.09 -2.391,0.04 c -4.54,0.075 -8.001,1.843 -5.47,2.796 1.158,0.436 -1.228,1.064 -15.085,3.984 a 416.968,418.59 0 0 0 -6.447,1.43 106.764,107.18 0 0 1 -10.877,-47.133 106.764,107.18 0 0 1 106.764,-107.18 m -6.182,38.252 c 0.023,-0.02 1.081,0.438 2.351,1.02 5.149,2.358 8.234,3.347 11.862,3.8 3.587,0.448 6.447,0.27 12.183,-0.76 1.438,-0.257 2.646,-0.426 2.684,-0.372 0.084,0.12 2.526,13.846 2.469,13.875 -0.413,0.204 -3.745,1.105 -5.578,1.51 -3.523,0.775 -6.872,1.144 -9.9,1.091 -5.532,-0.096 -10.553,-1.379 -16.233,-4.152 -2.457,-1.2 -5.684,-3.061 -5.748,-3.307 v -0.007 l 0.002,-0.002 v -0.002 c 0.033,-0.063 1.367,-2.937 2.965,-6.385 1.596,-3.448 2.92,-6.286 2.943,-6.309 m -12.206,26.317 0.004,0.002 c 0.065,0 0.303,0.16 0.556,0.379 1.789,1.54 4.608,3.304 7.432,4.65 11.634,5.545 26.605,6.095 37.324,1.371 l 1.123,-0.494 1.123,6.264 1.125,6.265 -0.716,0.526 c -2.07,1.51 -5.544,3.137 -8.57,4.013 -4.192,1.214 -8.481,1.75 -13.526,1.688 -1.337,-0.016 -6.869,-0.576 -8.037,-0.813 -4.826,-0.979 -8.17,-2.059 -11.861,-3.834 -4.26,-2.047 -7.247,-4.202 -10.024,-7.224 a 21,21 0 0 1 -1.027,-1.19 l -0.244,-0.33 2.62,-5.607 c 1.442,-3.084 2.651,-5.633 2.69,-5.662 v -0.002 h 0.002 z"
     style="fill:#000000;fill-rule:evenodd;stroke-width:1.13069"
     id="path1" /></svg>
