<svg xmlns="http://www.w3.org/2000/svg" xml:space="preserve" width="1964" height="608" fill="none"><path fill="#fff" fill-opacity=".5" fill-rule="evenodd" d="M375.454 129.376h52.224v104.448h109.495c45.884 0 83.081 37.197 83.081 83.081 0 89.315-72.404 161.719-161.719 161.719-45.884 0-83.08-37.197-83.08-83.081V286.048h-104.45v-52.224h104.448zm52.224 156.672v109.495c0 17.042 13.815 30.857 30.857 30.857 60.472 0 109.495-49.023 109.495-109.495 0-17.042-13.815-30.857-30.857-30.857z" clip-rule="evenodd" style="fill:#5835ce;fill-opacity:1"/><path fill="#fff" fill-opacity=".7" d="M427.678 179.968c0-14.421-11.69-26.112-26.112-26.112-14.42 0-26.112 11.691-26.112 26.112v53.856h-53.856c-14.42 0-26.112 11.691-26.112 26.112s11.691 26.112 26.112 26.112h53.856v53.856c0 14.421 11.691 26.112 26.112 26.112s26.112-11.691 26.112-26.112v-53.856h53.856c14.421 0 26.112-11.691 26.112-26.112s-11.69-26.112-26.112-26.112h-53.856z"/><path fill="#fff" d="M483.826 255.606c3.333 1.924 3.333 6.736 0 8.66l-14.376 8.3c-3.334 1.925-7.5-.481-7.5-4.33v-16.6c0-3.849 4.166-6.255 7.5-4.33zm-77.93 86.59c-1.924 3.333-6.736 3.333-8.66 0l-8.3-14.376c-1.925-3.333.481-7.5 4.33-7.5h16.6c3.85 0 6.255 4.167 4.33 7.5zm-8.66-164.52c1.924-3.333 6.736-3.333 8.66 0l8.3 14.376c1.925 3.333-.48 7.5-4.33 7.5h-16.6c-3.849 0-6.255-4.167-4.33-7.5zm-77.93 86.59c-3.334-1.924-3.334-6.736 0-8.66l14.376-8.3c3.333-1.925 7.5.481 7.5 4.33v16.6c0 3.849-4.167 6.255-7.5 4.33z"/><path fill="#fff" d="M731.77 478.624q-28.106 0-48.51-13.86-20.406-13.86-31.57-36.96-10.78-23.485-10.78-51.59 0-29.26 12.32-52.36 12.705-23.485 35.805-36.96 23.484-13.86 55.825-13.86 31.954 0 54.285 13.86 22.715 13.474 34.649 36.96c8.21 15.4 12.32 32.597 12.32 51.59v98.56H801.84v-36.575h-.77q-5.775 10.78-15.015 20.405-9.24 9.24-22.715 15.015-13.476 5.775-31.57 5.775m11.935-37.73q17.325 0 30.03-8.47 13.09-8.855 20.02-23.485 7.314-15.015 7.315-33.495 0-18.48-6.93-32.725-6.93-14.63-19.635-23.1-12.706-8.855-30.415-8.855-18.48 0-31.57 8.855-13.09 8.47-20.02 23.1t-6.93 33.11q0 18.095 6.93 33.11 6.93 14.63 19.635 23.485 13.09 8.47 31.57 8.47m175.789 37.73q-12.705 0-22.71-6.16-10.02-6.16-16.17-16.555c-3.85-6.93-5.78-14.502-5.78-22.715s2.06-15.657 6.16-22.33c4.11-6.673 9.76-12.448 16.94-17.325l85.47-55.825q3.855-1.925 4.62-4.235c.77-1.54 1.16-3.08 1.16-4.62q0-3.465-2.7-6.16-2.31-2.695-6.54-2.695h-95.48v-37.73h108.57c8.47 0 15.91 2.053 22.33 6.16q10.005 6.16 15.78 16.555c4.11 6.93 6.16 14.502 6.16 22.715s-2.05 15.657-6.16 22.33c-4.1 6.673-9.75 12.448-16.94 17.325l-85.08 55.825q-3.465 1.925-5.01 4.235c-.77 1.54-1.15 3.08-1.15 4.62 0 2.31.9 4.363 2.69 6.16q2.7 2.695 6.93 2.695h100.87v37.73zm183.96 0q-12.705 0-22.71-6.16-10.02-6.16-16.17-16.555c-3.85-6.93-5.78-14.502-5.78-22.715s2.05-15.657 6.16-22.33 9.75-12.448 16.94-17.325l85.47-55.825q3.855-1.925 4.62-4.235c.77-1.54 1.16-3.08 1.16-4.62q0-3.465-2.7-6.16-2.31-2.695-6.54-2.695h-95.48v-37.73h108.57c8.47 0 15.91 2.053 22.33 6.16q10.005 6.16 15.78 16.555c4.11 6.93 6.16 14.502 6.16 22.715s-2.05 15.657-6.16 22.33-9.75 12.448-16.94 17.325l-85.08 55.825q-3.465 1.925-5.01 4.235c-.77 1.54-1.15 3.08-1.15 4.62 0 2.31.89 4.363 2.69 6.16q2.7 2.695 6.93 2.695h100.87v37.73zm163.55 0v-196.35h44.28v196.35zm165.14 0q-26.175 0-41.19-15.015c-9.76-10.01-14.63-23.613-14.63-40.81V232.994h43.89v187.88c0 5.903 1.79 10.78 5.39 14.63 3.59 3.593 8.34 5.39 14.24 5.39h41.2v37.73zm-89.7-158.62v-37.73h138.98v37.73zm273.17 158.62q-33.12 0-58.14-12.32c-16.43-8.47-29.26-20.02-38.5-34.65q-13.86-22.33-13.86-51.205c0-20.277 4.11-38.115 12.32-53.515s19.51-27.463 33.88-36.19 30.93-13.09 49.67-13.09c21.04 0 38.37 4.492 51.97 13.475q20.4 13.475 30.03 36.19c6.67 15.143 10.01 32.083 10.01 50.82 0 2.567-.13 5.518-.38 8.855-.26 3.337-.65 5.903-1.16 7.7h-139.37c1.54 10.267 5.26 18.865 11.17 25.795 5.9 6.673 13.34 11.807 22.33 15.4q13.47 5.005 30.03 5.005h52.74v37.73zm-63.91-113.96h97.02a72.8 72.8 0 0 0-2.31-14.63c-1.03-4.877-2.83-9.497-5.39-13.86a35.3 35.3 0 0 0-9.24-11.165c-3.6-3.337-7.96-5.903-13.09-7.7-5.14-2.053-11.04-3.08-17.71-3.08-7.7 0-14.51 1.54-20.41 4.62-5.9 2.823-10.91 6.673-15.01 11.55q-6.165 6.93-9.63 16.17a88.5 88.5 0 0 0-4.23 18.095" style="fill:#5835ce;fill-opacity:1"/><path fill="url(#a)" d="M1268.934 246.469c5.64 5.647 12.32 8.47 20.02 8.47 7.95 0 14.63-2.823 20.02-8.47 5.64-5.647 8.47-12.32 8.47-20.02s-2.83-14.373-8.47-20.02c-5.39-5.647-12.07-8.47-20.02-8.47-7.7 0-14.38 2.823-20.02 8.47-5.65 5.647-8.47 12.32-8.47 20.02s2.82 14.373 8.47 20.02" style="fill:url(#a)"/><defs><linearGradient id="a" x1="1459.63" x2="1459.63" y1="161.55" y2="218.53" gradientTransform="translate(-170.676 36.409)" gradientUnits="userSpaceOnUse"><stop stop-color="#59CAFD"/><stop offset="1" stop-color="#2B50EF"/></linearGradient></defs></svg>