<svg xmlns="http://www.w3.org/2000/svg" xml:space="preserve" width="256" height="256"><path d="M128.586 1.754A126.247 126.247 0 0 0 2.34 128a126.247 126.247 0 0 0 126.246 126.246A126.247 126.247 0 0 0 254.832 128 126.247 126.247 0 0 0 128.586 1.754M71.73 33.242h10.614v48.516H33.826v24.258h48.518v50.86c0 21.315 17.278 38.593 38.592 38.593 41.487 0 75.119-33.633 75.119-75.12 0-21.313-17.278-38.591-38.592-38.591h-50.861V33.242h21.984c52.334 0 94.758 42.424 94.758 94.758s-42.424 94.76-94.758 94.76-94.76-42.426-94.76-94.76V71.145c0-20.934 16.97-37.903 37.904-37.903m34.872 72.774h50.86c7.917 0 14.333 6.417 14.333 14.334 0 28.089-22.77 50.86-50.86 50.86-7.916 0-14.333-6.417-14.333-14.333z" style="fill:#fff;fill-rule:evenodd;stroke-width:1.16311"/></svg>