<svg xmlns="http://www.w3.org/2000/svg" xml:space="preserve" width="2100" height="608" fill="none"><path fill="url(#a)" d="M100 181.6c0-45.066 36.534-81.6 81.6-81.6H304c112.666 0 204 91.334 204 204s-91.334 204-204 204-204-91.334-204-204z" style="fill:url(#a)"/><path fill="#fff" fill-opacity=".5" fill-rule="evenodd" d="M204.448 100h52.224v104.448h109.495c45.884 0 83.081 37.197 83.081 83.081 0 89.315-72.404 161.719-161.719 161.719-45.884 0-83.081-37.197-83.081-83.081V256.672H100v-52.224h104.448zm52.224 156.672v109.495c0 17.042 13.815 30.857 30.857 30.857 60.472 0 109.495-49.023 109.495-109.495 0-17.042-13.815-30.857-30.857-30.857z" clip-rule="evenodd"/><path fill="#fff" fill-opacity=".7" d="M256.672 150.592c0-14.421-11.691-26.112-26.112-26.112s-26.112 11.691-26.112 26.112v53.856h-53.856c-14.421 0-26.112 11.691-26.112 26.112s11.691 26.112 26.112 26.112h53.856v53.856c0 14.421 11.691 26.112 26.112 26.112s26.112-11.691 26.112-26.112v-53.856h53.856c14.421 0 26.112-11.691 26.112-26.112s-11.691-26.112-26.112-26.112h-53.856z"/><path fill="#fff" d="M312.82 226.23c3.333 1.924 3.333 6.736 0 8.66l-14.376 8.3c-3.334 1.925-7.5-.481-7.5-4.33v-16.6c0-3.849 4.166-6.255 7.5-4.33zm-77.93 86.59c-1.924 3.333-6.736 3.333-8.66 0l-8.3-14.376c-1.925-3.333.481-7.5 4.33-7.5h16.6c3.849 0 6.255 4.167 4.33 7.5zm-8.66-164.52c1.924-3.333 6.736-3.333 8.66 0l8.3 14.376c1.925 3.333-.481 7.5-4.33 7.5h-16.6c-3.849 0-6.255-4.167-4.33-7.5zm-77.93 86.59c-3.334-1.924-3.334-6.736 0-8.66l14.376-8.3c3.333-1.925 7.5.481 7.5 4.33v16.6c0 3.849-4.167 6.255-7.5 4.33z"/><defs><linearGradient id="a" x1="100" x2="508" y1="100" y2="508" gradientUnits="userSpaceOnUse"><stop offset=".138" stop-color="#0047AB" style="stop-color:#5bcefa;stop-opacity:1"/><stop offset=".175" stop-color="#0047AB" style="stop-color:#5bcefa;stop-opacity:1"/><stop offset=".175" stop-color="#0047AB" style="stop-color:#f5a9b8;stop-opacity:1"/><stop offset=".33" stop-color="#0047AB" style="stop-color:#f5a9b8;stop-opacity:1"/><stop offset=".33" stop-color="#0047AB" style="stop-color:#e5e5e5;stop-opacity:1"/><stop offset=".491" stop-color="#0047AB" style="stop-color:#e5e5e5;stop-opacity:1"/><stop offset=".491" stop-color="#0047AB" style="stop-color:#f5a9b8;stop-opacity:1"/><stop offset=".713" stop-color="#0047AB" style="stop-color:#f5a9b8;stop-opacity:1"/><stop offset=".713" stop-color="#0047AB" style="stop-color:#5bcefa;stop-opacity:1"/><stop offset=".869" stop-color="#0047AB" style="stop-color:#5bcefa;stop-opacity:1"/><stop offset=".869" stop-color="#8A2BE2" style="stop-color:#5bcefa;stop-opacity:1"/></linearGradient><linearGradient id="b" x1="1459.63" x2="1459.63" y1="161.55" y2="218.53" gradientTransform="translate(227.187)" gradientUnits="userSpaceOnUse"><stop offset="0" stop-color="#59CAFD" style="stop-color:#5bcefa;stop-opacity:1"/><stop offset=".16" stop-color="#59CAFD" style="stop-color:#5bcefa;stop-opacity:1"/><stop offset=".16" stop-color="#59CAFD" style="stop-color:#f5a9b8;stop-opacity:1"/><stop offset=".395" stop-color="#59CAFD" style="stop-color:#f5a9b8;stop-opacity:1"/><stop offset=".395" stop-color="#59CAFD" style="stop-color:#e5e5e5;stop-opacity:1"/><stop offset=".6" stop-color="#59CAFD" style="stop-color:#e5e5e5;stop-opacity:1"/><stop offset=".606" stop-color="#59CAFD" style="stop-color:#f5a9b8;stop-opacity:1"/><stop offset=".812" stop-color="#59CAFD" style="stop-color:#f5a9b8;stop-opacity:1"/><stop offset=".812" stop-color="#59CAFD" style="stop-color:#5bcefa;stop-opacity:1"/><stop offset=".998" stop-color="#59CAFD" style="stop-color:#5bcefa;stop-opacity:1"/><stop offset="1" stop-color="#2B50EF" style="stop-color:#5bcefa;stop-opacity:1"/></linearGradient></defs><path fill="#fff" d="M1317.357 442.215q-12.705 0-22.71-6.16-10.02-6.16-16.17-16.555c-3.85-6.93-5.78-14.502-5.78-22.715s2.06-15.657 6.16-22.33c4.11-6.673 9.76-12.448 16.94-17.325l85.47-55.825q3.855-1.925 4.62-4.235c.77-1.54 1.16-3.08 1.16-4.62q0-3.465-2.7-6.16-2.31-2.695-6.54-2.695h-95.48v-37.73h108.57c8.47 0 15.91 2.053 22.33 6.16q10.005 6.16 15.78 16.555c4.11 6.93 6.16 14.502 6.16 22.715s-2.05 15.657-6.16 22.33c-4.1 6.673-9.75 12.448-16.94 17.325l-85.08 55.825q-3.465 1.925-5.01 4.235c-.77 1.54-1.15 3.08-1.15 4.62 0 2.31.9 4.363 2.69 6.16q2.7 2.695 6.93 2.695h100.87v37.73zm183.96 0q-12.705 0-22.71-6.16-10.02-6.16-16.17-16.555c-3.85-6.93-5.78-14.502-5.78-22.715s2.05-15.657 6.16-22.33 9.75-12.448 16.94-17.325l85.47-55.825q3.855-1.925 4.62-4.235c.77-1.54 1.16-3.08 1.16-4.62q0-3.465-2.7-6.16-2.31-2.695-6.54-2.695h-95.48v-37.73h108.57c8.47 0 15.91 2.053 22.33 6.16q10.005 6.16 15.78 16.555c4.11 6.93 6.16 14.502 6.16 22.715s-2.05 15.657-6.16 22.33-9.75 12.448-16.94 17.325l-85.08 55.825q-3.465 1.925-5.01 4.235c-.77 1.54-1.15 3.08-1.15 4.62 0 2.31.89 4.363 2.69 6.16q2.7 2.695 6.93 2.695h100.87v37.73zm163.55 0v-196.35h44.28v196.35zm165.14 0q-26.175 0-41.19-15.015c-9.76-10.01-14.63-23.613-14.63-40.81V196.585h43.89v187.88c0 5.903 1.79 10.78 5.39 14.63 3.59 3.593 8.34 5.39 14.24 5.39h41.2v37.73zm-89.7-158.62v-37.73h138.98v37.73zm273.17 158.62q-33.12 0-58.14-12.32c-16.43-8.47-29.26-20.02-38.5-34.65q-13.86-22.33-13.86-51.205c0-20.277 4.11-38.115 12.32-53.515s19.51-27.463 33.88-36.19 30.93-13.09 49.67-13.09c21.04 0 38.37 4.492 51.97 13.475q20.4 13.475 30.03 36.19c6.67 15.143 10.01 32.083 10.01 50.82 0 2.567-.13 5.518-.38 8.855-.26 3.337-.65 5.903-1.16 7.7h-139.37c1.54 10.267 5.26 18.865 11.17 25.795 5.9 6.673 13.34 11.807 22.33 15.4q13.47 5.005 30.03 5.005h52.74v37.73zm-63.91-113.96h97.02a72.8 72.8 0 0 0-2.31-14.63c-1.03-4.877-2.83-9.497-5.39-13.86a35.3 35.3 0 0 0-9.24-11.165c-3.6-3.337-7.96-5.903-13.09-7.7-5.14-2.053-11.04-3.08-17.71-3.08-7.7 0-14.51 1.54-20.41 4.62-5.9 2.823-10.91 6.673-15.01 11.55q-6.165 6.93-9.63 16.17a88.5 88.5 0 0 0-4.23 18.095"/><path fill="url(#b)" d="M1666.797 210.06c5.64 5.647 12.32 8.47 20.02 8.47 7.95 0 14.63-2.823 20.02-8.47 5.64-5.647 8.47-12.32 8.47-20.02s-2.83-14.373-8.47-20.02c-5.39-5.647-12.07-8.47-20.02-8.47-7.7 0-14.38 2.823-20.02 8.47-5.65 5.647-8.47 12.32-8.47 20.02s2.82 14.373 8.47 20.02" style="fill:url(#b)"/><path fill="#fff" d="M925.961 446.835q-28.106 0-48.51-13.86-20.406-13.86-31.57-36.96-10.78-23.485-10.78-51.59 0-29.26 12.32-52.36 12.705-23.485 35.805-36.96 23.484-13.86 55.825-13.86 31.955 0 54.285 13.86 22.714 13.474 34.65 36.96c8.21 15.4 12.32 32.597 12.32 51.59v98.56H996.03V405.64h-.77q-5.775 10.78-15.015 20.405-9.24 9.24-22.715 15.015-13.476 5.775-31.57 5.775m11.935-37.73q17.325 0 30.03-8.47 13.09-8.855 20.02-23.485 7.315-15.015 7.315-33.495t-6.93-32.725q-6.93-14.63-19.635-23.1-12.706-8.855-30.415-8.855-18.48 0-31.57 8.855-13.09 8.47-20.02 23.1t-6.93 33.11q0 18.095 6.93 33.11 6.93 14.63 19.635 23.485 13.09 8.47 31.57 8.47"/><path d="M572.844 188.102v51.908h-35.687v39.743h35.687v108.28q0 27.17 15.411 42.987 15.817 15.816 43.394 15.815h51.503v-39.743H639.76q-9.327 0-15.004-5.678-5.677-6.082-5.677-15.409V279.753h64.48V240.01h-64.48v-51.908zm211.693 51.908q-27.577 0-43.393 15.817-15.41 15.41-15.41 42.986v148.022h46.636V300.842q0-9.733 5.272-15.411 5.678-5.678 15.41-5.678h41.365v-39.742z" style="font-weight:500;font-size:429.826px;line-height:1.25;font-family:MuseoModerno;-inkscape-font-specification:&quot;MuseoModerno Medium&quot;;fill:#fff;stroke-width:8.44872"/><path d="M1155.05 247.71q-27.575 0-48.07 11.178-20.494 10.806-31.671 30.182-11.18 19.003-11.179 43.596v109.549h42.85V333.038q.001-14.532 6.337-25.338 6.706-11.178 17.512-17.14 11.178-6.334 23.848-6.334 13.042 0 23.847 6.334 11.178 5.962 17.885 17.14 6.707 10.806 6.708 25.338v109.177h42.478v-109.55q0-24.591-11.178-43.595-11.18-19.376-31.672-30.182-20.122-11.178-47.695-11.178" style="font-weight:500;font-size:429.826px;line-height:1.25;font-family:MuseoModerno;-inkscape-font-specification:&quot;MuseoModerno Medium&quot;;fill:#fff;stroke-width:7.76282"/></svg>