<?xml version="1.0" encoding="UTF-8" standalone="no"?>
<svg
   xml:space="preserve"
   width="478.933"
   height="603.733"
   version="1.1"
   id="svg34"
   sodipodi:docname="bootc-logo-full-vert.svg"
   inkscape:version="1.4.2 (ebf0e940d0, 2025-05-08)"
   xmlns:inkscape="http://www.inkscape.org/namespaces/inkscape"
   xmlns:sodipodi="http://sodipodi.sourceforge.net/DTD/sodipodi-0.dtd"
   xmlns="http://www.w3.org/2000/svg"
   xmlns:svg="http://www.w3.org/2000/svg"><defs
     id="defs34" /><sodipodi:namedview
     id="namedview34"
     pagecolor="#ffffff"
     bordercolor="#000000"
     borderopacity="0.25"
     inkscape:showpageshadow="2"
     inkscape:pageopacity="0.0"
     inkscape:pagecheckerboard="0"
     inkscape:deskcolor="#d1d1d1"
     inkscape:zoom="8.7058356"
     inkscape:cx="90.858596"
     inkscape:cy="227.03162"
     inkscape:window-width="1536"
     inkscape:window-height="888"
     inkscape:window-x="0"
     inkscape:window-y="0"
     inkscape:window-maximized="1"
     inkscape:current-layer="svg34" /><path
     d="M50.688 549.201v115.2h12.8l.012-6.667.01-6.668 4.523 4.903c5.287 5.73 9.886 8.342 16.684 9.468 23.079 3.826 39.62-14.093 39.553-42.847-.034-14.415-4.65-26.789-12.932-34.662-11.78-11.2-31.903-10.429-42.781 1.638-2.199 2.44-4.239 4.434-4.534 4.434s-.535-10.08-.535-22.4v-22.4h-6.4zm284.873 9.6-.303 11.467-.303 11.466-5.066.325-5.069.326v8.298l5.069.325 5.066.326.533 29.334c.548 30.142.748 31.547 5.201 36.643 2.846 3.256 7.487 5.113 14.944 5.984 3.88.453 10.054.888 13.72.965l6.668.14v-10.666h-9.634c-5.88 0-11.037-.587-13.235-1.505-5.299-2.215-6.133-7.583-5.728-36.895l.33-24 14.135-.297 14.132-.299v-8.408l-14.132-.299-14.135-.297-.303-11.466-.303-11.467h-5.794zm-172.456 24.74c-7.785 4.107-14.289 11.798-17.494 20.688-3.704 10.273-3.767 26.448-.146 36.996 4.737 13.798 14.644 22.315 28.133 24.181 15.082 2.087 29.012-3.032 35.959-13.215 5.87-8.604 7.91-15.987 7.974-28.857.05-9.888-.357-12.893-2.584-19.105-3.186-8.889-9.678-16.573-17.478-20.688-8.097-4.272-26.27-4.27-34.364 0m93.45.18c-7.561 3.934-9.15 5.362-13.557 12.199-6.325 9.811-8.453 27.356-5.062 41.74 3.658 15.52 14.69 25.988 29.285 27.787 22.619 2.788 39.17-9.221 42.814-31.068.622-3.728.85-11.3.508-16.824-1.03-16.628-7.69-27.778-20.443-34.221-6.401-3.234-23.573-4.802-33.545.387m-169.159 5.978c8.005-.128 15.828 4.612 20.333 13.504 2.832 5.591 3.214 7.524 3.562 17.998.334 10.049.057 12.616-1.924 17.883-2.805 7.46-6.398 11.922-11.838 14.697-2.676 1.366-6.224 2.083-10.265 2.076-11.26-.018-19.035-7.213-22.172-20.517-3.765-15.968-.334-32.348 8.375-39.994 4.258-3.739 9.127-5.57 13.93-5.647m186.163.237c15.302-.12 25.564 14.66 24.35 35.968-.81 14.178-5.59 23.133-14.913 27.928-6.124 3.15-14.028 2.711-20.764-1.152-4.673-2.68-6.059-4.26-9.023-10.282-3.018-6.13-3.563-8.483-3.936-17.011-.861-19.708 7.343-33.37 21.159-35.227a25 25 0 0 1 3.127-.224m-92.536.006c7.904.37 15.706 5.261 20.268 14.523 2.192 4.45 2.463 6.536 2.463 18.87 0 13.538-.078 14.003-3.31 19.732-1.89 3.349-5.217 7.218-7.755 9.017-3.546 2.514-5.788 3.222-11.09 3.502-10.598.56-16.923-3.297-22.279-13.586-2.26-4.341-2.5-6.174-2.5-19.2 0-14.138.062-14.506 3.315-20.267 4.978-8.814 12.984-12.962 20.888-12.591"
     style="fill:#9232a9;fill-opacity:1"
     transform="translate(-5.657 -84.853)"
     id="path1" /><path
     d="m 137.649,185.939 c -1.021,-2.814 -8.993,-5.95 -11.218,-9.47 -2.226,-3.519 -1.675,-9.607 -1.615,-11.877 l -0.532,-5.136 7.973,-1.123 c 3.727,-0.525 26.445,0.826 53.17,1.082 l 51.725,-2.796 1.863,9.334 c 1.988,9.955 -10.454,22.564 -14.565,23.325 l -1.354,3.534 -38.324,3.79 -45.468,-6.106 z"
     style="fill:#79278c;fill-opacity:1;stroke:#79278c;stroke-width:0.5;stroke-opacity:1"
     id="path2"
     sodipodi:nodetypes="ccccccccccccc" /><path
     d="m 228.755,187.856 c 0,-0.19 1.708,-2.672 3.41,-6.407 5.007,-10.985 11.504,-24.962 18.882,-49.436 8.805,-29.209 16.338,-51.219 20.833,-60.87 18.507,-39.737 44.977,-60.916 87.596,-60.017 5.428,0.114 45.04,7.398 59.233,20.538 13.117,12.144 25.024,35.238 29.041,56.416 1.925,10.147 1.535,41.67 -0.393,54.91 -1.536,10.548 -8.5,33.251 -9.547,34.394 -0.673,0.733 -23.61,-11.001 -24.144,-12.205 -0.908,-2.042 0.15,3.237 -2.25,7.093 -2.557,4.107 -4.266,2.893 -4.835,0.627 -0.322,-1.285 -4.067,-8.003 -7.224,-11.198 -12.463,-12.61 -32.608,-18.852 -49.574,-15.362 -10.262,2.111 -24.287,10.502 -36.398,21.777 l -4.88,4.543 -8.023,-4.135 c -4.024,-2.074 -3.362,-6.2 -4.142,-6.499 -0.779,-0.299 1.111,-0.638 -0.222,0.14 -4.75,2.771 -19.232,7.616 -21.265,7.49 -2.728,-0.171 0.91,0.402 0.66,11.865 l 1.896,8.73 -24.427,1.78 c -12.297,0.897 -25.562,0.185 -25.562,-0.005 z M 334.717,119.71 c 1.98,-3.286 4.296,-8.81 7.359,-9.45 l 8.598,-4.826 c 9.21,11.972 18.742,15.375 32.21,6.866 2.604,-1.646 5.663,-4.983 6.258,-4.983 1.902,0 12.44,10.563 15.007,15.132 2.62,4.666 1.073,3.711 2.968,1.428 1.754,-2.113 0.033,-3.177 -7.713,-11.128 -3.593,-3.689 -8.92,-9.854 -8.466,-9.854 1.629,0 11.619,4.37 17.137,8.519 6.048,4.546 5.887,5.107 5.887,2.296 0,-2.51 -5.913,-5.12 -13.706,-9.103 -5.795,-2.96 -8.775,-7.434 -5.766,-6.935 1.904,0.317 10.73,1.76 14.132,2.891 5.398,1.797 9.195,2.827 9.446,4.972 0.379,3.236 2.231,6.463 5.755,6.463 3.539,0 5.832,-2.624 5.832,-6.02 0,-2.803 -0.262,-4.687 -2.362,-6.299 -2.027,-1.557 -5.652,1.882 -7.994,3.522 -1.755,1.23 -3.419,-3.104 -7.28,-4.813 -2.361,-1.044 -7.255,-2.394 -10.876,-3 -6.125,-1.026 -9.543,1.28 -10.3,-1.261 -3.29,-11.034 -3.8,-18.322 -11.042,-21.836 -4.551,-2.209 -15.479,-2.934 -20.339,-1.35 -8.813,2.873 -14.112,9.815 -14.306,20.061 l -0.104,5.478 -10.196,3.805 c -8.55,3.191 -16.83,4.8 -17.247,7.015 -0.666,3.534 -0.094,0.198 8.212,-4.01 4.595,-2.328 13.727,-4.524 15.327,-3.061 1.174,1.072 -2.385,4.773 -4.908,6.11 -5.134,2.722 -13.73,9.149 -13.73,11.624 0,3.255 -0.41,-2.453 4.403,-5.829 6.586,-4.62 19.146,-8.327 20.415,-8.327 0.477,0 -7.424,5.107 -9.822,7.76 -4.626,5.118 -10.156,15.577 -9.121,17.251 1.273,2.06 2.839,-3.315 6.332,-9.108 z m -29.91,-4.169 c 5.436,-2.811 6.189,-9.358 1.603,-13.944 -3.525,-3.525 -6.618,-3.987 -10.67,-1.594 -10.224,6.04 -1.495,21 9.066,15.538 z M 412.564,87.614 c 2.413,-2.155 2.897,-3.26 2.897,-6.601 0,-3.341 -0.484,-4.446 -2.897,-6.601 -2.002,-1.789 -3.885,-2.588 -6.098,-2.588 -3.638,0 -1.556,2.061 1.056,4.425 4.445,4.022 3.608,9.588 -2.108,9.588 -4.424,0 -5.155,-2.193 -1.23,0.9 3.91,3.083 4.765,4.107 8.38,0.877 z"
     style="fill:#d8d8d8;fill-opacity:1;stroke:#d8d8d8;stroke-width:0.918924;stroke-opacity:1"
     id="path3"
     sodipodi:nodetypes="cccccccscccccscccccccccccccccscscscsccccsscccccccccccsccscsscccsccccscscscc" /><path
     d="m 413.096,394.505 c 0.666,-0.98 2.032,-1.19 2.392,-1.949 0.509,-1.074 0.556,-1.323 0.556,-2.956 0,-1.664 -3.903,-2.654 -4.435,-3.685 -0.557,-1.079 -0.566,-1.137 -0.398,-2.37 0.507,-3.724 4.433,-9.289 4.515,-66.717 l -0.542,-103.015 h 7.32 l 7.807,-2.754 1.44,76.218 c 0.715,37.778 -0.42,105.82 -0.566,109.098 -0.01,0.224 -8.052,9.959 -11.6,6.667 l -8.166,-6.067 z"
     style="fill:#932fa9;fill-opacity:1;stroke:#932fa9;stroke-width:0.176777;stroke-opacity:1"
     id="path4"
     sodipodi:nodetypes="ccscccccccsccc" /><path
     d="M 84.993,392.52 68.191,391.559 76.343,305.605 75.940971,229.67064 99.486269,228.46456 418.843,213.813 416.167,314.1 l -0.123,75.5 -303.784,2.32 c -8.525,0.065 -24.766,4.057 -27.266,0.6 z"
     style="fill:#932faa;fill-opacity:1;stroke:#932faa;stroke-opacity:1"
     id="path5"
     sodipodi:nodetypes="ccccccccccc" /><path
     d="m 43.54,308.819 0.375,-112.502 118.123,-2.768 115.618,3.2 2.765,7.732 c 1.43,3.996 3.563,9.295 3.56,9.707 -0.002,0.413 -5.534,5.293 -13.536,5.293 -20.945,0 -18.562,-1.628 -18.56,15.07 v 8.601 h -7.498 l -16.62,0.91 2.579,-8.836 c -0.001,-3.035 -4.273,-7.696 -3.321,-8.748 0.848,-0.937 0.01,2.076 0.318,0.179 0.445,-2.742 -1.577,-4.41 2.904,-4.253 l -2.516,-2.925 -33.303,-5.311 -27.588,6.27 -3.249,3.249 -3.248,3.248 -1.016,80.649 -2.267,79.399 2.19,2.332 2.192,2.332 29.986,6 31.29,-3.977 2.445,-2.906 c 2.244,-2.666 -3.82,-2.907 0.473,-8.416 l 5.386,-9.776 h 15.263 l 3.92,9.288 c 2.504,5.937 0.374,8.342 2.072,10.5 l 2.073,2.635 29.891,2.652 h 34.753 l -1.235,-7.387 c -0.51,-3.054 2.125,-2.39 2.249,-70.75 0.15,-82.379 0.752,-99.975 2.21,-105.388 0.606,-2.252 4.138,-7.42 3.956,-10.634 l -4.27,-12.005 18.922,5.264 50.381,-3.17 -4.364,14.195 -5.184,13.23 -28.356,0.54 c -4.966,0.094 -4.51,-2.95 -6.39,-1.07 -2.223,2.223 -0.508,0.22 -1.152,24.464 -0.365,13.729 -7.415,52.352 -7.416,86.746 l 5.248,54.284 2.904,1.716 c 1.889,1.115 -0.213,9.965 3.75,9.965 l 80.004,-0.88 -0.035,12.8 v 10.5 l -192.025,4.947 H 40.323 Z m 91.803,86.828 c 1.1,-1.1 1.996,-2.787 1.991,-3.75 -0.005,-0.962 -5.721,-40.628 -5.676,-87.84 0.076,-77.886 -1.567,-79.755 -3.04,-81.383 -2.353,-2.599 -5.693,-1.874 -36.078,-0.986 -20.94,0.612 -29.645,-6.499 -31.33,-5.135 -1.993,1.615 -0.686,3.176 -1.24,89.711 l 5.295,83.803 5.851,2.984 27.755,-1.06 c 33.468,-1.28 34.549,5.58 36.472,3.656 z"
     style="fill:#932fa9;fill-opacity:1;stroke:#932fa9;stroke-opacity:1"
     id="path6"
     sodipodi:nodetypes="ccccccscccccsccccccccccccccccccccccccccccccccsccccccccccccsccscccccc" /><path
     d="m 282.495,207.889 c 0.802,2.174 1.436,3.939 1.63,4.543 0.497,1.562 -1.246,1.793 -16.163,2.137 l -16.723,0.385 -2.572,2.99 c -3.223,3.747 -3.221,5.196 0.002,8.945 l 2.572,2.992 28.893,0.317 28.895,0.316 v 154.569 h 4.982 c 3.14,0 5.705,0.653 6.934,1.765 1.888,1.709 1.956,-0.86 2.136,-80 0.103,-44.97 0.273,-83.113 0.375,-84.76 0.085,-1.36 -2.102,-3.462 -1.238,-5.107 v -5.719 c -1.093,4.062 -3.534,7.212 -7.408,9.606 -6.966,4.305 -15.656,1.959 -23.049,-6.225 -1.262,-1.396 -2.627,-3.695 -4.043,-6.754 z m 102.184,0 c -0.07,0.4503 -0.1207,0.90338 -0.152,1.358 l -0.297,4.634 -19.89,0.534 c -17.614,0.472 -20.15,0.767 -22.136,2.566 -2.97,2.691 -2.97,8.178 0,10.87 2.037,1.845 4.11,0.475 27.382,-0.353 19.2,-0.683 27.122,3.834 29.31,4.956 l 2.933,1.504 v 151.125 h 4.87 c 2.678,0 5.798,0.496 6.933,1.103 2.031,1.087 2.063,-0.108 2.063,-76.746 v -77.85 c 0.123,-3.029 4.768,-15.49 5.784,-7.964 l 2.786,-8.641 c -2.885,5.515 -8.28,10.705 -13.524,12.896 -5.156,2.155 -8.99,1.803 -13.463,-1.236 -6.038,-4.103 -9.139,-11.937 -7.97,-18.756 z m -189.576,6.588 c -33.965,0.07 -26.902,3.586 -29.887,7.586 -1.867,2.5 -2.778,-1.162 -1.625,1.624 0.728,1.755 -7.17,4.837 -6.197,5.32 0.973,0.482 14.613,-1.886 30.16,-1.592 l 28.149,2.63 -0.008,8.364 v 7.459 l -5.666,2.863 c -15.777,7.97 -26.879,20.592 -33.075,37.602 -2.406,6.606 -2.75,9.215 -2.75,20.882 0,11.667 0.344,14.278 2.75,20.885 6.197,17.012 17.309,29.642 33.075,37.596 l 5.666,2.86 0.312,8.263 0.31,8.264 h 5.159 c 3.506,0 5.627,0.567 6.623,1.771 1.27,1.537 1.505,0.695 1.775,-6.402 l 0.31,-8.17 7.157,-0.008 c 7.828,-0.008 21.478,-2.915 29.022,-6.18 16.883,-7.308 31.79,-26.04 35.822,-45.012 6.171,-29.043 -8.514,-59.776 -34.426,-72.047 -7.759,-3.674 -21.94,-6.87 -30.521,-6.878 l -7.256,-0.008 0.236,-11.368 c 0.233,-11.18 0.19,-11.408 -2.668,-13.867 -2.901,-2.495 -2.96,-2.499 -32.447,-2.437 m -129.591,2.967 -2.52,0.588 c -2.953,0.688 -2.48,3.792 -1.971,5.867 1.453,5.935 1.17,3.641 32.534,4.217 l 30.123,0.258 -0.509,79.642 0.274,77.067 h 4.59 c 2.523,0 5.52,0.68 6.658,1.511 1.138,0.832 2.18,1.402 2.318,1.264 0.138,-0.138 0.276,-38.108 0.307,-84.379 0.055,-83.62 0.04,-84.143 -2.149,-86.33 -2.131,-2.13 -3.283,-2.2 -35.863,-2.2 z m 171.485,30.326 c 25.329,-0.712 49.347,14.889 58.352,41.11 1.948,5.672 2.45,9.434 2.45,18.335 0,8.901 -0.502,12.664 -2.45,18.336 -3.249,9.46 -9.066,18.223 -16.86,25.399 -8.014,7.379 -15.052,11.203 -25.552,13.888 -10.225,2.616 -18.922,2.602 -29.037,-0.048 -11.167,-2.926 -17.753,-6.823 -26.963,-15.954 -18.738,-18.575 -23.089,-44.472 -11.473,-68.287 4.494,-9.214 17.072,-21.86 26.275,-26.418 8.227,-4.073 16.816,-6.123 25.258,-6.36 m 1.742,9.701 c -1.353,0.007 -2.736,0.363 -4.11,1.074 -4.783,2.473 -5.845,6.32 -5.43,19.682 0.383,12.375 1.466,15.144 6.763,17.315 1.173,0.48 2.774,0.664 3.555,0.408 0.781,-0.256 1.769,-0.467 2.197,-0.467 0.428,0 1.83,-0.98 3.113,-2.176 2.179,-2.03 2.334,-3.136 2.334,-16.533 0,-12.875 -0.217,-14.576 -2.105,-16.465 -1.893,-1.893 -4.062,-2.85 -6.317,-2.838 m 30.452,23.608 c -3.003,-0.072 -5.686,1.285 -7.522,3.906 -2.252,3.216 -2.154,6.081 0.403,11.715 4.012,8.843 2.489,20.05 -3.71,27.29 -15.633,18.266 -45.4,7.444 -45.31,-16.472 0.014,-3.823 0.825,-7.937 2.133,-10.818 2.759,-6.08 2.662,-8.991 -0.418,-12.573 -3.33,-3.872 -9.039,-4.042 -12.93,-0.386 -3.651,3.43 -7.142,14.835 -7.185,23.474 -0.064,12.676 4.621,23.555 13.869,32.205 6.034,5.645 11.698,8.79 19.709,10.948 7.402,1.993 12.878,1.995 20.494,0.011 13.306,-3.465 23.762,-11.874 29.662,-23.859 3.275,-6.652 3.443,-7.59 3.443,-19.281 0,-11.37 -0.227,-12.746 -3.035,-18.375 -2.368,-4.748 -3.8,-6.335 -6.514,-7.23 -0.99711,-0.33592 -2.03831,-0.52293 -3.09,-0.555"
     style="fill:#772b89;fill-opacity:1"
     id="path7"
     sodipodi:nodetypes="ccccccccccsccccccccccccccccsccscscccccccccccccccccscccccscccccccccccccccccccscscccccssscccccccccccsscscccccccccccccccsccc" /><path
     d="m 340.004,221.736 c -1.592,57.27 -1.292,114.544 -1.102,171.827 l 2.52,2.04 c 2.359,1.91 4.625,2.038 36.048,2.038 H 411 l 2.618,-2.619 c 2.948,-2.948 3.31,-6.51 0.977,-9.594 -2.142,-2.831 -10.647,-3.664 -38.092,-3.732 l -22.135,-0.055 v -77.334 l -0.07,-74.308 h -5.38 c -4.532,0 -7.408,-4.197 -8.914,-8.263 m -93.721,0.231 -1.271,24.17 16.039,0.316 0.519,-12.011 -0.46,-4.927 -4.923,-2.54 c -3.814,-1.968 -5.912,-0.531 -8,-2.619 z M 59.97,222.553 v 170.151 l 4.637,4.937 h 33.83 c 30.667,0 34.035,-0.175 36.035,-1.867 3.57,-3.021 3.926,-6.96 0.941,-10.43 l -2.578,-2.996 -28.433,-0.496 -28.432,-0.496 V 226.975 h -5.19 c -3.634,0 -6.03,-0.662 -8,-2.21 z m 92.799,0 v 170.151 l 2.32,2.468 2.318,2.47 H 225.4 l 2.617,-2.62 c 3.282,-3.282 3.316,-6.05 0.119,-9.767 l -2.5,-2.907 -28.434,-0.496 -28.433,-0.496 V 226.975 h -5.19 c -3.635,0 -6.031,-0.662 -8,-2.21 z m 94.133,145.877 c -0.965,0.249 -1.332,3.563 -1.332,11.967 0,10.144 0.281,11.98 2.21,14.434 l 2.211,2.81 h 68.207 l 2.62,-2.619 c 3.288,-3.288 3.314,-6.052 0.093,-9.797 l -2.523,-2.933 -28.41,-0.46 -28.408,-0.46 v -10.285 c 0,0 -13.935,-2.846 -14.668,-2.657"
     style="fill:#b265de;fill-opacity:1"
     id="path8"
     sodipodi:nodetypes="cccscccccccsccccccccccccsccccccscccccccccccccscccscccccccccc" /><path
     d="m 302.33,225.405 c -3.566,-0.935 -9.172,-4.233 -12.567,-7.63 -2.387,-2.387 -3.12,-5.422 -4.359,-8.103 -1.336,-2.892 -4.02,-11.464 -4.19,-12.81 -0.04,-0.319 -0.565,-2.164 -1.337,-4.72 -1.63,-5.389 -2.336,-11.024 -3.8,-17.092 -0.57,-2.366 -0.976,-4.835 -1.224,-5.396 -0.33,-0.747 -0.9,-0.907 -0.9,-0.907 l 21.304,-8.93 c 0,0 0.872,1.062 1.348,1.915 1.37,2.452 8.207,8.68 15.933,19.628 3.923,5.56 7.149,12.829 7.927,14.133 2.74,4.589 3.723,7.685 3.462,11.284 -0.465,6.413 -2.92,14.251 -8.54,17.175 -3.12,1.623 -9.874,2.287 -13.057,1.453 z"
     style="fill:#a0a0a0;stroke:#a0a0a0;stroke-width:0.229731;stroke-opacity:1"
     id="path9"
     sodipodi:nodetypes="ccccccccccccscc" /><path
     d="m 395.373,231.663 c -4.906,-2.017 -9.71,-8.87 -11.362,-14.237 -0.887,-2.88 4.06,-9.782 4.857,-12.408 0.47,-1.549 3.288,-7.79 4.019,-8.271 0.484,-0.32 9.28,-17.22 13.694,-23.848 2.474,-3.716 4.344,-6.683 4.56,-7.403 0.283,-0.945 4.191,-0.025 4.56,0.087 0.783,0.237 18.839,7.65 19.519,8.014 0.58,0.311 4.557,2.632 3.969,4.763 -0.334,1.207 -2.936,7.252 -4.654,13.596 -4.878,18.012 -6.855,25.288 -9.923,29.371 -2.374,3.16 -8.863,3.784 -11.47,5.308 -5.367,3.137 -12.207,7.386 -16.024,5.817 z"
     style="fill:#a0a0a0;stroke:none;stroke-width:0.324889"
     id="path10"
     sodipodi:nodetypes="cccccccccccccc" /><circle
     cx="423.28598"
     cy="105.595"
     r="8.1379995"
     style="fill:#f1f1f1;fill-opacity:1;fill-rule:evenodd;stroke:none;stroke-width:8.1806;stroke-linecap:round;stroke-linejoin:round;stroke-dasharray:none;stroke-opacity:1"
     id="circle10" /><path
     d="m 385.096,78.201 2.163,8.553 c 2.793,4.916 2.905,10.533 0.045,15.58 l -4.42,9.966 c 3.867,-2.704 7.317,-3.737 10.111,-2.038 3.943,2.398 9.67,8.934 11.868,13.541 1.851,3.884 2.154,4.067 4.396,2.647 0.884,-0.56 1.133,-1.512 0.625,-2.385 -4.686,-8.055 -9.108,-13.367 -13.701,-16.461 -3.888,-2.618 -4.814,-3.658 -3.256,-3.658 3.349,0 12.538,4.96 17.848,9.633 3.877,3.413 5.002,3.935 5.972,2.765 2.319,-2.793 -10.05,-12.02 -21.758,-16.228 -1.865,-0.671 -1.905,-0.821 -0.304,-1.205 2.478,-0.595 14.18,2.471 19.826,5.197 2.524,1.218 4.864,1.94 5.2,1.605 2.683,-2.683 -9.073,-8.913 -18.723,-9.921 -6.268,-0.656 -7.755,-0.576 -8.46,-4.336 -1.091,-5.813 -3.403,-9.765 -7.432,-13.255 m -35.098,0.66 c -5,4.25 -7.118,8.862 -7.118,15.136 0,1.55 -3.011,2.275 -7.105,3.248 -5.77,1.37 -15.369,5.834 -18.381,8.547 -1.404,1.264 -1.573,2.03 -0.682,3.103 0.97,1.169 1.766,1.012 4.416,-0.875 4.597,-3.273 14.628,-7.22 18.395,-7.238 2.878,-0.014 2.63,0.251 -2.48,2.63 -3.183,1.482 -8.25,5.274 -11.518,8.622 -4.803,4.918 -5.604,6.252 -4.54,7.535 1.096,1.32 2.207,0.665 7.249,-4.258 5.012,-4.894 13.19,-10.299 15.584,-10.299 l 0.015,0.002 h 0.002 l 0.002,0.002 h 0.002 l 0.002,0.002 v 0.002 h 0.004 l 0.002,0.002 0.002,0.002 0.002,0.002 0.002,0.002 0.002,0.006 c 0.078,0.246 -1.867,2.422 -4.527,5.045 -5.344,5.27 -11.713,16.391 -10.506,18.344 1.468,2.375 3.326,0.874 5.693,-4.598 1.353,-3.126 4.55,-7.735 7.104,-10.242 l 4.644,-4.559 4.411,-3.59 c -0.718,-1.203 -2.663,-5.703 -3.106,-7.087 -1.366,-4.276 -1.57,-8.82 0.698,-12.403 z"
     style="fill:#656560;fill-opacity:1"
     id="path11"
     sodipodi:nodetypes="cccccccccsccccccccccsccccccccccccccccccccccccccccccc" /><path
     d="m 364.453,115.58 c -11.577,-2.096 -21.227,-17.928 -18.29,-28.507 1.845,-6.643 8.634,-12.029 15.74,-13.895 3.013,-0.79 9.376,-0.625 12.355,0.106 4.085,1.004 8.984,6.092 11.92,9.194 3.396,3.588 4.665,6.729 4.665,11.649 0,4.436 -2.953,9.663 -5.749,13.19 -4.578,5.773 -13.205,9.608 -20.64,8.263 m 6.592,-23.969 c 3.982,-3.966 4.268,-1.774 3.796,-4.05 -0.555,-2.677 -0.706,-1.64 -4.095,-2.717 -3.449,-1.098 -3.42,-0.519 -5.962,1.23 -1.726,1.189 -0.829,-0.645 -1.266,1.707 -0.336,1.812 -1.133,0.107 2.013,3.168 2.931,2.852 4.3,6.293 4.3,7.978 0,1.74 -4.12,5.957 -6.87,5.96 -1.854,0.002 -4.58,-5.589 -4.38,-5.718 1.99,-1.276 0.386,1.933 1.568,2.762 1.473,1.297 3.965,-0.187 3.965,-0.187 0,0 -8.075,4.812 6.93,-10.133"
     style="fill:#ffffff;fill-opacity:1;stroke:none;stroke-width:0.229731"
     id="path12"
     sodipodi:nodetypes="ccccssccccccccsscccc" /><ellipse
     cx="367.879"
     cy="94.126999"
     rx="22.962999"
     ry="21.695999"
     style="fill:none;fill-opacity:1;fill-rule:evenodd;stroke:#60605b;stroke-width:4.88829;stroke-linecap:round;stroke-linejoin:round;stroke-dasharray:none;stroke-opacity:1"
     id="ellipse12" /><path
     d="m 86.488,189.277 c -0.976,-0.877 -6.17,-11.516 -7.197,-15.052 -1.628,-5.601 -2.374,-6.778 -6.028,-8.404 -2.155,-0.96 -3.32,-3.313 -19.08,-4.081 -14.352,-0.7 -22.875,-0.368 -28.75,-4.41 -2.482,-1.708 -2.249,-9.104 -2.72,-12.486 -0.926,-6.636 -0.286,-15.83 5.761,-18.915 5.095,-2.6 19.33,-0.933 35.968,1.962 4.306,0.749 7.818,1.687 8.25,1.687 1.06,0 -1.252,-0.294 -2.481,-7.19 -1.406,-7.886 -0.432,-16.744 0.974,-20.3 1.29,-3.264 5.826,-7.172 9.479,-8.597 2.225,-0.869 3.485,-3.849 7.628,-3.877 4.903,-0.034 9.744,1.517 12.848,3.074 3.684,1.847 3.468,8.203 5.35,13.215 1.738,4.633 3.389,12.857 4.462,20.54 2.464,17.637 1.388,21.017 8.512,36.406 4.354,9.406 11.562,23.826 12.73,25.467 0.554,0.777 1.645,1.41 1.477,1.578 -0.168,0.168 -11.098,0.528 -23.34,0.628 l -22.258,0.182 z"
     style="fill:#d7d8da;fill-opacity:1;stroke:#d7d8da;stroke-width:0.459462;stroke-opacity:1"
     id="path13"
     sodipodi:nodetypes="ccccccccscccccccccsccc" /><path
     d="m 46.829,192.776 -1.714,-2.434 0.42,-2.128 c 0.132,-0.666 0.856,-4.111 2.566,-7.22 1.71,-3.109 4.638,-6.856 6.33,-10.038 l 3.06,-5.753 6.599,-0.407 c 6.122,-0.377 9.403,0.074 11.852,2.558 1.499,1.52 2.165,3.348 3.349,6.87 1.05,3.124 3.909,4.909 4.908,11.124 0.362,2.254 -1.084,5.348 -0.964,5.663 0.209,0.55 0.585,1.604 -0.905,1.736 -0.852,0.075 -7.98,-1.678 -14.237,-1.604 -6.257,0.074 -12.937,2.064 -15,2.13 -3.75,0.12 -7.326,-0.372 -7.326,-0.372 z"
     style="fill:#79278c;fill-opacity:1;stroke:#79278c;stroke-width:0.25;stroke-opacity:1"
     id="path14"
     sodipodi:nodetypes="cccsccccccccsscc" /><path
     d="m 283.707,213.863 c 0,0 -30.46,0.037 -32.468,1.09 -3.847,2.019 -6.16,7.382 -4.228,9.748 4.23,5.18 5.249,4.893 41.978,5.237 21.49,0.2 34.38,-0.372 34.38,-0.372 0,0 0.449,-2.769 0.087,-7.478 -0.217,-2.615 -1.28,-3.04 -1.28,-3.04 0,0 0.53,0.723 -3.573,2.801 -2.437,1.235 -5.81,4.309 -8.682,4.126 -18.871,-1.202 -26.214,-12.112 -26.214,-12.112 m 97.583,0.043 c 0,0 -32.639,1.07 -34.425,1.362 -3.594,0.588 -4.657,1.766 -6.394,4.33 -1.904,2.813 0.122,5.88 1.733,8.252 2.518,3.706 7.722,1.984 35.23,1.961 l 24.651,-0.021 3.783,1.791 c 3.318,1.572 -0.588,-1.405 3.27,-1.43 4.989,-0.032 9.863,-2.19 4.513,-0.786 C 393.468,234.658 384.158,214 384.23,213.881 Z m -285.88,0.661 c -33.187,0.224 -32.993,0.202 -35.16,3.766 -1.718,2.824 -1.908,4.637 -0.728,6.912 1.54,2.967 3.41,4.11 7.396,4.525 1.91,0.199 17.452,0.343 34.54,0.32 28.285,-0.04 31.224,-0.128 32.82,-0.989 2.672,-1.441 3.47,-2.967 3.47,-6.637 0,-3.017 -0.144,-3.386 -2.076,-5.318 -1.928,-1.928 -2.37,-2.102 -6.186,-2.43 -2.26,-0.193 -17.594,-0.26 -34.076,-0.149 m 99.248,0.12 c -30.155,0.008 -36.123,-0.147 -37.966,0.68 -5.214,2.34 -5.724,9.57 -0.915,12.974 0.942,0.668 5.253,1.26 9.19,1.457 3.024,0.151 18.487,0.276 34.364,0.276 26.585,0 29.008,-0.078 30.65,-0.974 5.005,-2.736 5.015,-10.312 0.017,-13.335 -1.74,-1.052 -2.886,-1.087 -35.34,-1.078"
     style="fill:#65067c;fill-opacity:1;stroke-width:0.653893"
     id="path15"
     sodipodi:nodetypes="cccccccccccccccccccccccccccssccccccsccc" /><path
     d="m 283.982,214.188 c -0.74,-1.127 -0.182,1.645 -7.381,1.906 v 13.889 c 2.473,0.009 5.148,0.014 8.037,0.014 31.355,0 33.89,-0.14 35.53,-1.952 0.97,-1.072 1.84,-3.083 1.765,-4.462 -0.075,-1.364 0.717,-5.773 -0.043,-4.26 -7.697,15.316 -27.309,11.033 -37.908,-5.135"
     style="fill:#65067c;fill-opacity:1"
     id="path16"
     sodipodi:nodetypes="cccscccc" /><path
     d="m 327.453,12.975 c -20.738,5.833 -37.021,18.222 -50.311,37.918 -11.04,16.361 -16.306,29.49 -29.03,72.373 -4.766,16.066 -9.251,30.17 -9.964,31.344 -0.713,1.174 -1.907,4.293 -2.653,6.933 -2.063,7.305 -5.863,20.357 -9.304,24.83 l -3.707,3.057 1.966,-0.152 c 1.714,-0.132 3.906,-0.864 4.86,-1.918 4.245,-4.691 12.533,-26.272 19.949,-51.95 14.109,-48.85 21.427,-67.606 32.35,-82.913 13.26,-18.584 26.338,-28.603 45.843,-34.77 z m 78.767,7.828 v 5.71 c 16.384,10.85 27.624,27.723 34.514,51.497 6.834,23.586 5.233,59.274 -4.22,94.012 -1.384,5.09 -4.018,14.803 -5.853,21.582 -6.28,23.208 -8.856,28.063 -17.52,33.031 -6.71,3.85 -11.848,4.078 -16.786,0.75 -7.43,-5.006 -10.546,-14.32 -7.487,-22.367 0.53,-1.392 6.095,-9.703 12.37,-18.469 13.933,-19.466 15,-21.347 12.623,-22.26 -0.95,-0.364 -1.813,-0.531 -1.918,-0.37 -0.105,0.16 -1.43,2.451 -2.946,5.091 -3.644,6.348 -13.222,19.32 -15.754,21.334 -1.105,0.88 -3.718,4.787 -5.806,8.682 -3.235,6.032 -3.792,8.084 -3.76,13.865 0.052,9.331 3.35,14.624 11.695,18.772 8.486,4.217 16.203,2.59 25.21,-5.319 4.884,-4.289 11.53,-18.153 13.812,-28.814 0.908,-4.245 2.59,-11.08 3.736,-15.186 6.532,-23.4 8.507,-32.356 9.992,-45.334 3.627,-31.684 1.144,-53.513 -8.672,-76.265 C 431.683,42.74 420.59,29.417 406.22,20.803 M 86.091,89.513 c -7.715,0.525 -14.041,4.34 -17.123,10.706 -2.177,4.498 -2.367,6.066 -1.826,15.133 0.599,10.042 0.586,10.112 -1.76,9.524 -1.3,-0.327 -6.804,-1.096 -12.232,-1.711 -18.568,-2.104 -27.775,1.296 -32.815,12.12 -5.27,11.32 -1.807,19.739 10.33,25.108 5.942,2.629 21.155,4.748 31.756,4.426 4.317,-0.131 9.196,0.32 10.842,1.002 3.673,1.521 7.092,8.892 8.1,17.465 0.665,5.662 0.864,5.992 3.65,5.992 h 1.475 l -0.54,-9.21 c -2.237,-10.239 -4.355,-14.574 -8.7,-17.814 -2.572,-1.916 -5.088,-2.262 -20.801,-2.85 -19.373,-0.723 -25.977,-2.427 -31.28,-8.071 -5.345,-5.69 -1.498,-18.215 6.805,-22.155 5.032,-2.388 18.678,-2.263 31.668,0.29 5.573,1.094 10.307,1.825 10.52,1.624 0.213,-0.201 -0.24,-2.911 -1.005,-6.023 -1.977,-8.039 -1.797,-19.828 0.366,-23.914 2.35,-4.442 7.693,-6.812 15.345,-6.807 8.711,0.006 12.327,2.411 15.211,10.12 2.967,7.928 4.1,13.215 5.471,25.505 1.402,12.574 4.09,20.554 13.154,39.037 8.655,17.65 10.838,20.585 14.938,20.094 l 2.408,-0.434 -3.408,-3.88 c -3.777,-4.3 -12.091,-22.043 -12.793,-25.688 -0.224,-1.164 -1.172,-2.96 -2.106,-3.992 -2.284,-2.525 -6.85,-15.687 -6.878,-19.826 -0.036,-5.24 -3.04,-21.552 -5.463,-29.67 -2.917,-9.77 -6.835,-13.766 -15.2,-15.502 -2.812,-0.584 -5.537,-0.775 -8.109,-0.6 m 210.053,68.806 c -0.0367,-6.7e-4 -0.072,0 -0.106,0.002 -0.572,0.037 -0.931,0.507 -0.931,1.478 0,0.8 3.958,7.068 8.798,13.926 4.84,6.858 10.781,15.291 13.202,18.738 2.42,3.448 4.72,7.974 5.111,10.06 2.218,11.824 -8.783,23.813 -19.262,20.991 -6.005,-1.617 -12.971,-7.306 -15.802,-12.904 -2.748,-5.432 -7.972,-22.063 -10.805,-34.399 -1.52,-6.62 -2.289,-8.267 -3.858,-8.267 -2.195,0 -2.172,0.23 1.465,13.695 1.163,4.306 1.892,8.054 1.617,8.328 -0.484,0.484 4.876,16.136 8.225,24.02 1.823,4.29 8.855,10.6 14.582,13.086 8.53,3.7 17.938,0.693 23.764,-7.596 5.39,-7.67 5.26,-22.761 -0.24,-27.994 -2.916,-2.773 -16.833,-21.788 -21.327,-29.139 -1.535,-2.51 -3.33,-4 -4.433,-4.025"
     style="fill:#000000"
     id="path17"
     sodipodi:nodetypes="cccscccccccccccccccccccccccccccccccccccccccccscccccccscccccccccccccccccsscccccscccccccc" /><path
     d="m 229.699,370.272 c -7.094,-0.825 -18.534,-2.2 -25.287,-6.174 -6.687,-3.935 -18.745,-15.99 -22.283,-21.97 -14.843,-25.088 -11.669,-57.258 7.794,-78.044 11.783,-12.582 30.23,-20.668 47.585,-20.757 27.663,-0.142 54.724,21.799 62.864,48.708 1.71,5.654 2.046,7.103 2.057,16.212 0.01,8.394 -1.186,13.079 -2.454,17.679 -6.857,24.88 -28.024,43.789 -53.69,46.646 -3.5,0.39 -9.31,-1.015 -9.893,-1.062 -0.583,-0.047 -3.861,-0.909 -6.693,-1.238 z"
     style="fill:#d7a0e3;fill-opacity:1;stroke:#d7a0e3;stroke-width:0.707107;stroke-opacity:1"
     id="path18"
     sodipodi:nodetypes="ccsccccccsc" /><path
     d="m 207.105,282.057 c -5.27,0 -9.184,4.535 -11.725,13.582 -7.084,25.225 7.42,49.565 33.477,56.182 6.36,1.615 17.157,0.435 25.103,-2.746 9.747,-3.902 18.622,-12.133 23.283,-21.592 5.174,-10.499 5.52,-25.921 1.327,-35.264 -3.57,-7.955 -5.922,-10.162 -10.832,-10.162 -7.114,0 -11.256,8.287 -7.106,14.213 1.094,1.562 1.96,5.494 2.268,10.29 0.416,6.492 0.112,8.558 -1.864,12.64 -3.138,6.483 -9.82,12.033 -16.996,14.119 -11.358,3.302 -23.238,-2.138 -29.33,-13.43 -3.79,-7.027 -4.035,-14.086 -0.771,-22.244 2.875,-7.186 2.836,-9.036 -0.272,-12.648 -1.93,-2.244 -3.483,-2.94 -6.562,-2.94"
     style="fill:#772b89;fill-opacity:1;stroke-width:1.00157;stroke-dasharray:none"
     id="path19"
     sodipodi:nodetypes="ccsscsscccccccc" /><path
     d="m 359.31,145.62 c -5.13,0.048 -10.173,0.847 -14.871,2.47 -3.956,1.367 -10.676,4.76 -14.934,7.541 -8.556,5.588 -21.184,16.139 -21.184,18.137 0,0.703 2.547,5.284 5.526,9.512 l 5.416,7.687 37.463,-0.28 37.463,-0.28 6.332,-8.86 c 7.137,-9.985 9.968,-8.117 0.271,-17.998 -10.62,-10.822 -26.094,-18.075 -41.482,-17.93"
     style="fill:#f1f1f1;fill-opacity:1"
     id="path20"
     sodipodi:nodetypes="cccsccccccc" /><path
     d="m 358.745,9.014 c -30,0 -52.954,9.103 -70.363,27.906 -17.455,18.854 -25.61,36.51 -41.055,88.893 -7.764,26.334 -7.83,26.543 -8.935,28.01 -0.646,0.858 -9.112,1.169 -36.838,1.138 v 4.454 h 34.357 l -2.062,7.025 c -3.306,8.783 -7.298,17.647 -10.7,22.115 l -1.331,1.748 c -7.957,0.015 -16.468,0.025 -25.3,0.028 -17.837,0.005 -37.285,0.063 -55.48,0.156 -4.875,-10.34 -13.665,-19.17 -16.449,-30.436 0,-0.058 -0.01,-1.182 -0.91,-2.527 -0.9,-1.345 -2.691,-2.91 -2.691,-2.91 l -2.346,-5.867 c -1.29,-3.227 -3.364,-12.826 -4.608,-21.332 -1.244,-8.506 -3.005,-17.958 -3.914,-21 -3.616,-12.112 -9.816,-16.883 -21.828,-16.801 -9.306,0.063 -15.51,3.352 -18.988,10.066 -2.25,4.342 -2.438,5.802 -1.963,15.299 0.518,10.357 0.494,10.492 -1.78,9.865 -1.267,-0.35 -6.917,-1.15 -12.554,-1.781 -18.058,-2.02 -27.198,1.316 -32.611,11.9 -7.5,14.663 2.436,26.244 24.681,28.772 5.248,0.596 9.679,1.221 9.848,1.39 0.17,0.17 -1.039,2.434 -2.684,5.032 -1.645,2.598 -5.684,10.434 -7.896,14.394 l -4.022,7.2 V 425.014 H 436.056 V 188.239 l 3.133,-9.88 c 7.229,-22.797 9.504,-35.978 10.353,-60.013 0.7,-19.795 -0.902,-32.347 -6.117,-47.953 C 429.857,29.792 401.192,9.014 358.745,9.014 m 4.27,4.445 c 9.453,0.24 17.564,1.716 26.25,4.67 11.61,3.949 18.832,8.608 28.715,18.528 7.814,7.843 9.906,10.764 14.588,20.357 3.006,6.16 6.769,15.519 8.36,20.799 2.601,8.624 7.626,12.043 8.075,30.604 0.565,23.39 -5.189,34.257 -9.715,52.279 -6.473,25.777 -10.163,39.745 -13.125,48.115 1.014,13.759 -0.617,8.277 3.66,5.002 0.501,0 0.789,46.201 0.64,102.668 l -0.273,102.666 -192.268,0.27 -192.267,0.27 v -222.94 l 116,0.002 h 116 l 2.765,7.732 v -7.734 l 0.793,0.115 c -2.358,-7.457 -3.785,-16.358 -5.207,-22.781 -1.058,-4.782 -1.793,-6.133 -3.34,-6.133 -2.218,0 -2.213,0.067 1.387,13.742 1.14,4.331 1.906,8.043 1.701,8.248 -0.15,0.151 -19.545,0.286 -47.092,0.352 1.006,-1.362 2.19,-3.792 4.287,-8.133 4.979,-10.305 11.84,-30.03 17.485,-49.944 6.61,-23.316 16.922,-53.554 21.26,-62.337 18.196,-36.85 43.34,-54.236 81.35,-56.252 3.52,-0.187 6.819,-0.244 9.97,-0.164 M 87.633,94.365 c 0.857333,-0.04 1.705667,-0.03633 2.545,0.011 5.584,0.319 10.568,2.551 12.45,6.188 2.588,5.006 5.667,17.88 7.036,29.42 1.593,13.426 3.427,19.052 12.143,37.246 5.817,12.143 9.261,19.568 12.293,23.295 -18.113,0.103 -34.553,0.241 -46.32,0.394 l -1.682,-10.845 c -2.243,-10.265 -4.354,-14.577 -8.742,-17.848 -2.627,-1.958 -5.015,-2.285 -20.801,-2.853 -15.263,-0.55 -18.6,-0.984 -23.152,-3.018 -8.312,-3.714 -10.147,-5.953 -10.147,-12.385 0,-6.336 3.162,-11.613 8.807,-14.69 4.606,-2.51 18.407,-2.427 31.726,0.19 5.574,1.095 10.266,1.867 10.43,1.715 0.164,-0.152 -0.45,-4.544 -1.367,-9.758 -2.593,-14.75 -0.437,-22.403 7.17,-25.447 2.43,-0.972 5.043,-1.495 7.611,-1.615 m 208.785,64.002 c -0.691,-0.02 -1.162,0.439 -1.162,1.45 0,0.81 4.36,7.648 9.69,15.2 8.38,11.875 12.702,17.951 14.927,21.73 h 73.746 v -2.546 h 1.952 l 1.423,-2.817 c 3.9,-7.713 11.983,-15.33 14.42,-19.111 3.827,-5.938 4.198,-7.007 2.723,-7.832 -0.94,-0.526 -1.83,-0.79 -1.977,-0.59 -0.147,0.2 -1.416,2.284 -2.818,4.631 -1.402,2.347 -5.373,8.226 -8.822,13.066 l -6.272,8.8 h -74.062 l -9.117,-13.067 c -5.015,-7.187 -9.96,-14.387 -10.989,-16 -1.17,-1.835 -2.651,-2.885 -3.662,-2.914 m -228.035,6.584 c 7.463,0.525 10.728,5.082 12.576,16.54 0.705,4.372 1.053,7.582 1.783,9.499 -1.341333,0.02 -2.592667,0.0407 -3.754,0.062 l -29.79,0.54 -3.336,-1.44 7.537,-13.67 6.656,-11.201 4.865,-0.317 c 1.152762,-0.0813 2.309661,-0.0856 3.463,-0.013"
     style="fill:#000000"
     id="path21"
     sodipodi:nodetypes="ccccccccsccccsccscccsccccsscccccscccccccccccccccccccccccscccccccccccccccccccsccsccccsccccccccsscccccccccccccccc" /><path
     d="m 238.392,153.823 c -39.015,1.233 -77.999,0.977 -117.024,0.793 1.213,1.714 3.221,5.435 3.221,5.435 l 111.322,-0.636 z M 54.925,165.126 c 0,0 -1.039,2.433 -2.684,5.03 -1.645,2.599 -5.684,10.435 -7.896,14.395 l -4.022,7.2 V 425.014 H 436.056 V 190.222 c 0,0 -6.262,21.501 -6.233,23.591 0.501,0 0.789,46.201 0.64,102.668 l -0.27,102.666 -192.27,0.27 -192.267,0.27 v -222.94 l 116,0.002 h 116 l -1.9,-6.811 -58.76,-0.2 c 0,0 -14.353,-0.576 -23.184,-0.574 -17.838,0.005 -57.596,0.758 -57.596,0.758 l -6.937,0.037 c -28.304,0.163 -85.575,0.698 -85.575,0.698 l 3.826,0.214 12.526,-25.591 z m 339.264,25.28 -74.002,-0.06 4.896,6.4 63.613,0.035 z M 73.568,218.76 c 3.22,0.22 10.778,5.438 25.443,2.155 19.12,-4.28 26.587,8.476 29.534,8.426 0,0 -55.41,-10.61 -54.977,-10.58 m 100.105,11.204 c 2.88,0.042 6.249,0.078 10.195,0.118 z"
     style="baseline-shift:baseline;display:inline;overflow:visible;vector-effect:none;fill:#65067c;fill-opacity:1;stop-color:#000000"
     id="path22"
     sodipodi:nodetypes="ccccccccccccccccccccccccccccccccccccccccc" /><circle
     cx="237.508"
     cy="308.24701"
     r="64.920998"
     style="fill:none;fill-rule:evenodd;stroke:#65067c;stroke-width:5.89606;stroke-linecap:round;stroke-linejoin:round;stroke-dasharray:none;stroke-opacity:1"
     id="circle22" /><path
     d="m 237.518,258.337 c -5.50026,-6.4e-4 -9.95953,5.20362 -9.96,11.624 v 16.797 c 9.5e-4,6.41999 4.46007,11.62364 9.96,11.623 5.49993,6.4e-4 9.95905,-5.20301 9.96,-11.623 v -16.797 c 0,-6.42077 -4.45941,-11.62564 -9.96,-11.625"
     style="baseline-shift:baseline;display:inline;overflow:visible;vector-effect:none;fill:#772b89;fill-opacity:1;stroke-width:0.88728;stroke-linecap:round;stop-color:#000000"
     id="path23"
     sodipodi:nodetypes="cccccsc" /><path
     d="m 366.517,91.995 c -1.506,-0.607 -2.77,-2.042 -3.337,-3.233 -0.241,-0.506 -0.818,-1.427 -0.574,-1.94 0.545,-1.143 3.996,-2.428 6.543,-2.419 1.745,0.006 2.705,1.165 3.782,1.796 1.07,0.627 2.61,1.645 2.04,2.513 -0.69,1.048 -3.046,2.473 -3.926,2.9 -1.04,0.503 -3.033,1.439 -3.972,1.06 z"
     style="fill:#808080;fill-opacity:1;stroke:#808080;stroke-width:0.162444;stroke-opacity:1"
     id="path24"
     sodipodi:nodetypes="ccccccccc" /><path
     d="m 368.315,81.342 c -4.091,0.008 -7.613,2.118 -8.47,5.535 -0.66,2.625 -0.24,3.481 3.056,6.248 4.578,3.844 5.112,7.64 1.213,8.62 -3.273,0.82 -4.861,-0.126 -4.861,-2.9 0,-1.252 -0.56,-1.972 -1.334,-1.714 -2.15,0.716 -2.21,3.987 -0.117,6.299 1.472,1.627 2.708,1.975 5.16,1.457 4.09,-0.865 6.637,-0.858 10.851,0.021 2.58,0.54 3.864,0.2 5.522,-1.459 2.313,-2.313 2.071,-6.584 -0.373,-6.584 -0.823,0 -1.165,0.808 -0.85,2.012 0.659,2.518 -1.156,3.711 -4.402,2.897 -4.43,-1.112 -4.309,-3.932 0.355,-8.239 3.715,-3.43 4.155,-4.32 3.455,-6.968 -0.601,-2.275 -1.856,-3.403 -5.002,-4.502 -1.35023,-0.476191 -2.77126,-0.720636 -4.203,-0.723 m 0.365,3.8 c 0.628,0 1.263,0.022 1.873,0.118 0.93,0.147 1.8,0.431 2.499,0.873 1.292,0.818 1.304,1.241 0.085,2.709 -2.535,3.055 -4.667,3.618 -7.218,1.906 -1.32,-0.885 -2.4,-2.22 -2.4,-2.967 0,-1.552 2.52,-2.57 5.161,-2.638"
     style="fill:#000000;fill-opacity:1"
     id="path25"
     sodipodi:nodetypes="ccccscccccscccccccccccsc" /><circle
     cx="300.33398"
     cy="107.746"
     r="8.8590002"
     style="fill:#f1f1f1;fill-opacity:1;fill-rule:evenodd;stroke:none;stroke-width:8.90567;stroke-linecap:round;stroke-linejoin:round;stroke-dasharray:none;stroke-opacity:1"
     id="circle25" /><path
     d="m 323.466,40.444 c -2.681,0.095 -6.181,0.876 -8.102,2.047 -3.535,2.156 -6.413,7.606 -5.404,10.236 1.08,2.815 3.679,1.757 4.92,-2.004 1.313,-3.976 5.866,-6.639 9.424,-5.51 1.501,0.477 2.234,0.076 2.63,-1.441 0.303,-1.156 0.281,-2.37 -0.046,-2.697 -0.5,-0.5 -1.813,-0.689 -3.422,-0.631 m 85.652,2.443 c -2.714,-0.054 -4.73,0.956 -4.406,3.23 0.288,2.026 0.897,2.313 4.262,2.02 4.457,-0.388 8.342,2.538 8.342,6.283 0,1.68 0.573,2.126 2.4,1.864 2.932,-0.42 2.87,-4.26 -0.133,-8.336 -2.328,-3.16 -6.975,-4.99 -10.465,-5.06"
     style="fill:#000000"
     id="path26"
     sodipodi:nodetypes="ccscccsccccsccc" /><path
     d="m 325.435,67.258 c -10.314,0.107 -15.138,11.166 -11.244,18.797 3.177,6.229 11.3,9.049 17.068,6.422 12.369,-5.633 8.12,-25.363 -5.824,-25.219 m 1.953,3.674 c 4.94,-0.043 7.345,6.298 3.656,9.637 -2.213,2.003 -6.585,1.173 -7.793,-1.479 -1.22,-2.677 -0.603,-5.956 1.41,-7.502 0.458,-0.35 1.685,-0.647 2.727,-0.656"
     style="fill:#8c26a9;fill-opacity:1;stroke-width:0.623359"
     id="path27"
     sodipodi:nodetypes="cccccsccc" /><path
     d="m 327.714,70.905 -0.326,0.027 c -2.97,0.256 -7.832,3.007 -8.957,5.818 -1.043,2.608 -1.056,4.144 -0.05,6.55 2.254,5.396 8.57,7.629 12.952,3.548 2.104,-1.959 2.427,-3.955 2.367,-7.912 -0.014,-0.986 -0.305,-2.075 -0.718,-3.103 0.503,4.398 -4.482,8.284 -8.68,4.751 -3.727,-3.135 -1.65,-8.353 3.289,-9.42 l 0.123,-0.027 z m 5.268,4.928 c -0.123,-1.074 -0.573,-2.179 -1.442,-3.213 -0.779,-0.928 -1.55,-1.16 -1.64,-1.112 l -0.002,0.002 -0.002,0.002 h -0.002 v 0.002 l -0.002,0.002 v 0.008 l 0.004,0.01 c 0.02,0.028 0.094,0.074 0.228,0.125 0.49,0 1.962,1.945 2.858,4.174 m -2.858,-4.174 h -0.012 v 0.002 h -0.002 v 0.004 h 0.002 v 0.002 l 0.002,0.002 c 0.03,0.022 0.19,0.074 0.215,0.076 v -0.002 h -0.002 l -0.002,-0.002 c -0.0655,-0.03095 -0.13256,-0.05833 -0.201,-0.082"
     style="fill:#000000;stroke-width:0.60854"
     id="path28"
     sodipodi:nodetypes="cccccccccccccccccccccccccccccccccccc" /><path
     d="m 326.646,81.797 c -0.289,-0.067 -0.849,-0.29 -1.244,-0.494 -1.798,-0.932 -3.142,-2.61 -3.125,-5.23 0.015,-2.332 1.186,-4.032 2.8,-5.156 0.537,-0.374 1.516,-0.618 2.467,-0.615 3.006,0.009 5.482,2.794 5.473,6.156 -0.006,2.47 -1.646,4.81 -3.74,5.339 -0.65,0.164 -1.925,0.164 -2.631,0 z"
     style="fill:#fefefe;fill-opacity:1;stroke:#fefefe;stroke-width:0.0858213;stroke-opacity:1"
     id="path29"
     sodipodi:nodetypes="cccscccc" /><path
     d="m 405.294,67.801 c -6.587,0.172 -12.685,5.597 -12.646,13.56 0.023,4.778 3.293,9.693 7.863,11.821 7.442,3.466 15.737,-0.396 18.066,-8.41 1.405,-4.83 -0.293,-9.967 -4.527,-13.693 -2.667,-2.348 -5.762,-3.356 -8.756,-3.278 m -3.863,5.725 c 0.42133,0.024 0.847,0.106667 1.277,0.248 2.477,0.817 4.13,2.803 4.475,5.379 0.268,1.996 0.105,2.409 -1.625,4.139 -2.65,2.65 -5.2,2.672 -7.803,0.07 -1.483,-1.483 -1.851,-2.282 -1.851,-4.012 0,-3.454 2.58,-6.001 5.527,-5.824"
     style="fill:#8924a8;fill-opacity:1;stroke-width:0.647699"
     id="path30"
     sodipodi:nodetypes="cccccccccscsc" /><path
     d="m 404.905,72.702 c -3.233,0.043 -6.626,1.257 -7.422,2.544 -0.02,0.034 0.935,-0.216 1.473,-0.97 1.633,-0.963 2.093,-1.024 3.83,-0.503 3.731,1.118 5.51,4.685 3.997,8.008 -1.679,3.684 -7.815,3.591 -9.844,-0.149 -0.418,-0.77 -0.77,-1.135 -0.781,-0.808 1.915,4.261 5.445,8.146 10.267,8.326 4.51,0.069 7.77,-3.47 7.77,-8.436 0,-3.145 -1.576,-5.758 -4.332,-7.183 -1.158,-0.599 -3.017,-0.852 -4.957,-0.826 z"
     style="fill:#000000;stroke-width:0.60854"
     id="path31"
     sodipodi:nodetypes="ccccccccsccc" /><path
     d="m 397.644,75.03 c 1.11,-1.087 2.18,-1.546 3.61,-1.55 2.088,-0.004 4.474,1.5 5.446,3.432 0.519,1.03 0.712,1.747 0.797,2.959 0.162,2.295 -2.344,4.084 -3.219,4.637 -5.016,3.165 -11.692,-4.522 -6.634,-9.478 z"
     style="fill:#fefefe;fill-opacity:1;stroke:#fefefe;stroke-width:0.108259;stroke-opacity:1"
     id="path32"
     sodipodi:nodetypes="cccccc" /><path
     fill="none"
     d="m 47.818,190.907 c -0.778,-0.346 -1.485,-0.698 -1.57,-0.783 -0.204,-0.2 6.208,-11.833 10.523,-19.093 l 3.31,-5.568 0.851,-0.143 c 0.468,-0.078 2.641,-0.158 4.829,-0.176 4.497,-0.04 5.103,0.054 7.363,1.129 2.725,1.297 4.363,3.484 5.825,7.778 1.178,3.463 1.408,4.425 2.106,8.824 0.597,3.754 1.233,7.163 1.437,7.695 0.063,0.162 -0.096,0.267 -0.497,0.327 -0.324,0.048 -6.516,0.173 -13.76,0.277 -7.244,0.104 -14.482,0.228 -16.086,0.276 l -2.917,0.085 z"
     style="fill:#000000;fill-opacity:0;stroke:none;stroke-width:0.176777"
     id="path33"
     sodipodi:nodetypes="cccccccccccsccc" /><path
     d="M430.062 579.623c-6.526.077-12.933.963-17.234 2.637-8.992 3.5-17.368 12.068-20.861 21.34-2.252 5.977-2.608 8.699-2.578 19.734.044 16.721 2.214 22.699 11.673 32.166 5.343 5.347 7.839 6.983 13.428 8.8 8.755 2.844 25.065 2.591 34.065-.53l5.867-2.035.324-6.274c.365-7.057 1.26-6.781-9.393-2.879-3.916 1.435-8.572 2.16-14.01 2.184-6.883.03-9.027-.427-13.845-2.943-10.054-5.253-14.34-14.41-14.111-30.15.166-11.487 2.936-18.53 9.591-24.388 9.012-7.932 18.81-8.342 39.633-1.66 2.398.77 2.451.636 2.135-5.445l-.324-6.234-6.4-2.098c-4.785-1.568-11.433-2.3-17.96-2.225"
     style="fill:#000"
     transform="translate(-5.657 -84.853)"
     id="path34" /></svg>
