<svg xmlns="http://www.w3.org/2000/svg" xmlns:xlink="http://www.w3.org/1999/xlink" xml:space="preserve" width="399.339" height="163.213" viewBox="0 0 105.658 43.183"><defs><linearGradient id="c"><stop offset="0" style="stop-color:#040415;stop-opacity:1"/><stop offset="1" style="stop-color:#040415;stop-opacity:0"/></linearGradient><linearGradient id="b"><stop offset="0" style="stop-color:#24219e;stop-opacity:1"/><stop offset="1" style="stop-color:#24219e;stop-opacity:0"/></linearGradient><linearGradient id="a"><stop offset="0" style="stop-color:#040414;stop-opacity:1"/><stop offset="1" style="stop-color:#24219e;stop-opacity:0"/></linearGradient><linearGradient xlink:href="#a" id="m" x1="55.886" x2="62.716" y1="31.502" y2="31.502" gradientUnits="userSpaceOnUse"/><linearGradient xlink:href="#b" id="k" x1="62.765" x2="66.375" y1="24.036" y2="24.036" gradientUnits="userSpaceOnUse"/><linearGradient xlink:href="#c" id="g" x1="67.963" x2="72.159" y1="23.939" y2="23.939" gradientUnits="userSpaceOnUse"/><clipPath id="d" clipPathUnits="userSpaceOnUse"><path d="M114.312 155.713h13.854v16.553h-13.854z" style="fill:#000;fill-rule:evenodd;stroke-width:.264583"/></clipPath><clipPath id="h" clipPathUnits="userSpaceOnUse"><path d="M68.792 121.888h7.377v15.653h-7.377z" style="fill:#000;fill-rule:evenodd;stroke-width:.264583"/></clipPath><clipPath id="j" clipPathUnits="userSpaceOnUse"><path d="M-18.839 36.755h68.516v23.306h-68.516z" style="fill:#3c70e1;fill-opacity:1;fill-rule:evenodd;stroke-width:1.2027"/></clipPath><clipPath id="i" clipPathUnits="userSpaceOnUse"><path d="M21.652 39.885h27.417v7.813H21.652z" style="fill:#3c70e1;fill-opacity:1;fill-rule:evenodd;stroke-width:.456432"/></clipPath><clipPath id="l" clipPathUnits="userSpaceOnUse"><path d="M80.655 55.265h12.304v2.242H80.655z" style="fill:#fff;fill-opacity:1;fill-rule:evenodd;stroke:none;stroke-width:.289618;stroke-opacity:1"/></clipPath></defs><g style="fill:#a3daeb;fill-opacity:1"><path fill="#000" d="M110.28 171.94h-2.82v-15.775h2.82zm4.856-15.32a37 37 0 0 1 2.58-.513q1.608-.273 3.7-.273 1.88 0 3.125.53 1.244.528 1.984 1.487.744.955 1.046 2.29.306 1.332.306 2.94v8.86h-2.82v-8.252q0-1.455-.198-2.485-.198-1.033-.653-1.67a2.6 2.6 0 0 0-1.215-.926q-.757-.29-1.877-.29-.456 0-.943.034-.483.029-.926.074-.438.045-.79.108-.347.058-.5.09v13.317h-2.82z" clip-path="url(#d)" style="fill:#fff;fill-opacity:1;stroke-width:.264583" transform="translate(-39.158 -139.555)"/></g><path fill="#24219e" d="M59.771 14.077c.006 0-.003.013-.007.014-.004 0 .002-.015.007-.014" style="stroke-width:.0608403"/><path d="M54.783 25.765c.678-.525 1.274-1.672 1.651-2.406l3.037 2.036 2.099 1.458.6.957 1.197 2.166c-1.643.431-3.291 1.126-4.886 1.697-.483.172-1.472.332-1.783.71h8.914c.227 0 .564.051.764-.072.317-.195.399-.933.5-1.252.335-1.067.584-2.304 1.1-3.308.25-.488 1.063-.822 1.531-1.126 1.14-.74 2.28-1.481 3.433-2.204.425-.266.948-.759 1.453-.874.621-.141 1.691.247 2.31.374 1.681.346 4.857 1.652 6.572 1.776-.675-.873-3.063-2.475-3.93-3.19-.997-.823-1.943-1.722-2.905-2.578-.594-.527-1.393-1.632-2.18-1.887-.312-.102-.798.028-1.122.066-.725.086-1.452.16-2.178.24-2.705.304-5.418.549-8.121.86l-.529-5.354 4.886-.12c-.16-.515-.21-1.481-.59-1.891-.175-.19-.613-.227-.862-.292-.66-.173-1.322-.336-1.981-.506-.267-.07-.647-.24-.924-.16-.385.113-.707.555-.99.801-.73.636-1.497 1.245-2.176 1.928-.432.434-.515 1.36-.692 1.925-.487 1.557-.897 3.163-1.484 4.692-.364.948-2.026 1.134-2.596 1.944-.137.194-.069.593-.099.823-.116.9-.019 1.86-.019 2.767" style="fill:#3c70e1;stroke:none;stroke-width:.0630219;stroke-opacity:1"/><path fill="#24219e" d="M68.03 27.7c-.042-.13-.095-.275-.05-.394a423 423 0 0 1 1.587-4.128 1.2 1.2 0 0 1 .204-.357c.781-.89 1.57-1.775 2.388-2.643-.023.235-.052.457-.135.663-.684 1.69-1.383 3.375-2.059 5.066-.057.145.025.329.042.494l-1.424.95c-.173.115-.345.23-.552.348" style="stroke-width:.0967191;fill:url(#g);fill-opacity:1"/><path d="M71.347 137.55h-2.82v-15.776h2.82zm4.855-15.32a37 37 0 0 1 2.58-.513q1.608-.273 3.7-.273 1.881 0 3.125.529 1.245.53 1.985 1.488.743.955 1.046 2.29.306 1.332.305 2.94v8.86h-2.819v-8.252q0-1.456-.198-2.485-.199-1.034-.654-1.67a2.6 2.6 0 0 0-1.215-.926q-.756-.29-1.877-.29-.454 0-.943.033-.483.03-.926.075-.438.045-.79.107-.345.059-.5.091v13.316h-2.819z" clip-path="url(#h)" style="fill:#fff;fill-opacity:1;stroke-width:.264583" transform="translate(2.393 -105.155)"/><path fill="#2930ab" d="M54.762 24.502c.01-.342.587.119.917.203-.323.671-.795 1.05-.955 1.09z" style="stroke-width:.0993847;stroke:#040415;stroke-opacity:1"/><path d="M10.239 32.059q-.59 0-1.278-.033-.685-.03-1.373-.091-.689-.058-1.362-.15-.674-.09-1.236-.243V11.157q.562-.153 1.236-.244t1.362-.15q.688-.061 1.362-.09.673-.033 1.262-.033 1.684 0 3.157.273 1.476.273 2.555.926 1.083.653 1.699 1.715.62 1.063.62 2.609 0 1.728-.762 2.836-.757 1.108-2.02 1.654 1.714.545 2.724 1.728t1.01 3.336q0 3.158-2.15 4.75-2.146 1.592-6.806 1.592m-2.552-9.98v7.4q.306.033.727.062.367.029.857.045.494.017 1.136.017 1.21 0 2.288-.165 1.083-.17 1.894-.596.815-.426 1.305-1.182.493-.757.493-1.91 0-1.034-.363-1.745-.364-.715-1.052-1.136-.69-.426-1.646-.608-.952-.182-2.13-.182zm0-2.369h2.862q1.01 0 1.909-.149.9-.153 1.557-.545.662-.397 1.04-1.034.38-.637.38-1.608 0-.91-.395-1.53-.394-.624-1.082-1-.685-.38-1.615-.562-.926-.182-1.962-.182-1.041 0-1.63.029-.59.028-1.064.09zm19.567 12.47q-2.414-.058-3.428-1.12-1.01-1.063-1.01-3.308V8.82l2.613-.484v18.96q0 .698.11 1.153.116.454.368.727.253.273.674.41.42.136 1.036.227zm14.907-.757q-.9.244-2.373.517-1.472.273-3.412.273-1.684 0-2.835-.53-1.152-.533-1.856-1.504-.7-.972-1.01-2.29-.306-1.32-.306-2.928v-8.859h2.61v8.252q0 2.881.841 4.126.846 1.244 2.839 1.244.42 0 .868-.029.452-.033.842-.079.394-.045.716-.09.325-.046.466-.104v-13.32h2.61zm3.676-7.404q0-2.092.563-3.655t1.488-2.592q.926-1.033 2.13-1.546 1.21-.517 2.472-.517 2.95 0 4.523 1.989 1.572 1.984 1.572 6.048v.471q0 .29-.03.534H48.56q.169 2.455 1.32 3.729 1.152 1.273 3.593 1.273 1.377 0 2.314-.256.941-.257 1.42-.5l.367 2.364q-.478.273-1.672.575-1.194.306-2.709.306-1.909 0-3.301-.62-1.39-.625-2.288-1.716-.895-1.092-1.332-2.592-.436-1.505-.436-3.295m10.024-1.546q.027-1.91-.888-3.138-.91-1.228-2.51-1.228-.898 0-1.587.38-.685.377-1.163.984-.478.608-.746 1.398-.264.785-.348 1.604z" style="fill:#fff;fill-opacity:1;stroke-width:.254528"/><path fill="#4384f0" d="M29.977 40.744c1.086-1.13 1.564-1.099 3.06-.734 2.887.705 4.903.8 8.117 1.941 1.89.67 1.46.58 1.849 1.49.535 1.253 1.042 2.824 1.597 4.502-1.056 0-1.98-.015-2.905.003-1.94.038-3.88.126-5.821.134a98 98 0 0 1-5.678-.163c-.163-.47-.258-.867-.263-1.265-.02-1.823-.014-3.647-.018-5.505-.001-.036-2.379 4.835-2.379 4.835s2.573-2.796 2.63-2.818c.084-.042-1.396.514-1.666.405z" clip-path="url(#i)" style="stroke-width:.178197" transform="matrix(.62661 0 0 .53794 42.794 -11.883)"/><path d="M14.966 59.148-7.725 60.57 3.483 39.804Z" clip-path="url(#j)" style="fill:#4384f0;fill-rule:evenodd;stroke:none;stroke-width:.264999" transform="matrix(.24751 0 0 .19615 60.877 2.105)"/><path fill="#24219e" d="M65.266 27.958c-.16-.09-.319-.18-.529-.284.092-.51.06 1.523-.039 1.054-.391-1.854-1.13-6.186-1.526-8.04-.113-.53-.283-1.057-.407-1.616.634-.036 2.834-.263 3.61-.26-.35 1.428-.75 8.855-.75 8.855-1.34 6.089-1.182-7.224-.917-7.398 1.47-.96.602 2.382.409 3.768-.164 1.172.287 2.35.402 3.525.013.131-.164.264-.253.396" style="stroke-width:.12246;fill:url(#k);fill-opacity:1"/><path fill="#3967d9" d="M62.32 30.371c.301-.126.602-.252.94-.38.205.133.373.268.542.4.837.66 1.674 1.32 2.48 1.985a6 6 0 0 1-.656-.011c-.1-.1-.184-.199-.294-.258-.72-.39-1.452-.763-2.167-1.161-.3-.167-.564-.382-.845-.575" style="stroke-width:.0640498"/><path fill="#3353c8" d="M63.256 29.946c.266.138.537.268.772.427.544.37 1.069.755 1.606 1.13.06.042.145.062.24.092.18.241.341.481.514.733.003.024-.007.038-.044.05a.2.2 0 0 1-.055-.007l-2.105-1.425c-.142-.096-.283-.193-.44-.298a12 12 0 0 1-.488-.702" style="stroke-width:.0497817"/><path fill="#24219e" d="M92.465 57.184c.07.374 2.074 1.446 4.014 2.207-4.031.091-13.994-2.417-17.488-1.092 1.131-.136 1.566-3.504 3.098-4.179.143 1.413 7.805 1.139 8.744 1.162 1.008-.002-4.776-.004-3.77-.002.753-.021 1.387-.047 2.13-.063 2.668.005-.863.424 2.66-.21 0 0 .57 1.87.304.517z" clip-path="url(#l)" style="stroke-width:.264583" transform="matrix(.2592 0 0 .39345 38.448 -7.867)"/><path fill="#24219e" d="M61.102 30.502c.271-.1 1.161 1.224 1.614 1.89-1.678-.035-5.193-.02-6.774.112 3.235-.545.392-.02-.056.004 1.573-.15.238-.012.025-.001 1.396-.54 1.69-.705 3.176-1.257z" style="stroke-width:.254977;fill:url(#m)"/><path fill="#24219e" d="M98.657 56.085c.022.004-.014.059-.03.063-.014.005.01-.068.03-.063m-.255.251c.025 0-.02.068-.038.075-.018.008.014-.076.038-.075m-.281.273c.032-.005-.05.083-.077.097s.045-.092.077-.097" style="stroke-width:.264583"/></svg>