<svg xmlns="http://www.w3.org/2000/svg" xml:space="preserve" width="256" height="256"><path d="M523.688 105.4a126.247 126.247 0 0 0-126.244 126.25 126.247 126.247 0 0 0 126.244 126.244A126.247 126.247 0 0 0 649.936 231.65 126.247 126.247 0 0 0 523.688 105.4m-1.106 20.354A100.896 100.896 0 0 1 623.477 226.65a100.9 100.9 0 0 1-70.931 96.34 54 54 0 0 1 2.12-2.21c6.96-6.902 13.927-16.883 18.482-26.467 1.795-3.777 2.662-5.125 2.683-4.182.009.494.026.787.092.855l.011.008.004.004h.004l.004.004h.027l.004-.004c.12-.054.343-.512.744-1.425.472-1.073 1.292-4.082 1.824-6.687.742-3.637 1.058-4.437 1.366-3.452.22.705.685 1.185 1.029 1.07.995-.337 1.367-3.26 1.994-15.695.324-6.414.715-11.788.866-11.942a.1.1 0 0 1 .063-.034c.01 0 .025 0 .034.004.104.053.188.368.196.818.019 1.087 1.19 3.024 1.832 3.024h.004l.008-.004h.004l.01-.008c.182-.216.33-2.61.33-5.496 0-4.492-.302-6.535-1.65-11.132-2.01-6.855-2.105-7.986-.51-6.146l1.139 1.317-.304-3.068c-.199-2.01-.972-4.314-2.246-6.69-1.068-1.995-3.631-7.138-5.695-11.432s-4.793-9.662-6.066-11.927c-2.26-4.023-2.58-5.37-.95-4 .444.373 1.337.595 1.983.495 1.15-.178 1.142-.224-.348-2.153-.837-1.085-2.744-2.967-4.237-4.182l-2.716-2.21 2.405-.177 2.405-.181-2.201-1.38c-2.84-1.783-9.017-4.675-9.985-4.675-.94 0-1.002-1.108-.063-1.132.385-.01.204-.401-.41-.888-.885-.702-2.063-.815-5.98-.574-4.203.26-4.74.194-3.857-.459.564-.418.85-.937.633-1.158-.218-.22-3.191-.412-6.606-.422-4.835-.015-6.972.24-9.651 1.136l-3.442 1.151v-1.613c0-2-.35-2.014-2.316-.108l-1.555 1.507.356-1.788c.222-1.123.231-1.663-.24-1.676-.418-.012-1.21.389-2.573 1.17-1.957 1.12-2.222 1.52-2.372 3.611-.192 2.665.177 2.49-7.264 3.479-11.18 1.484-26.127 5.8-33.051 9.54-2.961 1.6-3.83 2.438-5.692 5.51-1.778 2.933-2.243 4.273-2.431 7.035-.222 3.257-.088 3.696 2.946 9.703 3.732 7.392 5.62 9.778 8.093 10.229.982.179 4.882.114 8.667-.148 7.788-.539 8.448-.276 8.153 3.25-.199 2.38.74 2.767 2.187.902.607-.78 1.222-1.417 1.369-1.417.548 0 1.631 3.4 1.987 6.25.383 3.068.65 3.273 3.209 2.446 1.1-.356 1.298-.092 2.102 2.842.488 1.78.988 3.558 1.114 3.953.177.557.518.523 1.55-.163 1.286-.852 1.342-.823 1.936.903.887 2.579.784 3.225-.478 2.89-.694-.184-1.223.037-1.44.607-.459 1.213-1.13 1.137-4.307-.496-3.106-1.597-4.436-1.782-3.97-.555.453 1.198-.486 1.063-5.996-.87-2.677-.94-7.484-2.335-10.684-3.097s-9.196-2.388-13.33-3.612c-6.57-1.946-8.095-2.204-12.112-2.061l-4.596.163 1.928 1.254 1.924 1.25-2.75.045c-5.226.085-9.215 2.113-6.301 3.205 1.334.5-1.415 1.225-17.371 4.574a480 480 0 0 0-9.66 2.157 101 101 0 0 1-3.274-25.505 100.896 100.896 0 0 1 100.895-100.895" style="fill:#fff;fill-rule:evenodd;stroke-width:1.73534"/><path d="M128.586 1.754A126.247 126.247 0 0 0 2.34 128a126.247 126.247 0 0 0 126.246 126.246A126.247 126.247 0 0 0 254.832 128 126.247 126.247 0 0 0 128.586 1.754m0 23.379a102.87 102.87 0 0 1 99.35 76.21c-1.11.106-2.542.456-3.4.844l-1.8.801.461-1.482c.26-.81.35-1.845.203-2.299a3.24 3.24 0 0 1-.08-1.557h-.007c-.17-.064-1.622 1.297-3.436 3.24q-3.637 3.88-3.732 3.323a2.03 2.03 0 0 0-.602-.95c-.275-.226-.42-.647-.322-.931.445-1.45-.81-.323-2.69 2.406-.113.162-1.37 1.07-2.787 2.01-2.56 1.693-2.592 1.7-2.373.664.421-2.009.389-3.801-.057-3.955-.267-.097-.786.383-1.248 1.152-1.458 2.406-2.032 3.111-3.166 3.84l-1.127.727.471-1.051c.446-.972.412-1.036-.406-1.117a9 9 0 0 0-1.877.08c-1.393.21-1.401.202-.883-1.467.26-.826.372-1.62.242-1.781-.121-.162-1.07-.407-2.115-.569-2.794-.405-3.896-1.457-1.92-1.822 1.572-.291 1.498-1.207-.162-2.04-2.819-1.418-6.106-5.452-5.644-6.934.47-1.515.307-4.454-.317-5.702-.713-1.45-.518-1.895.64-1.482.446.162.836.08.917-.195.227-.713-3.936-6.188-5.912-7.776-.91-.743-1.55-1.412-1.48-1.556l.001-.002v-.004l.002-.002h.008c.162-.09.414-.428.568-.752.413-.859-2.236-3.168-5.152-4.496a14 14 0 0 1-1.79-.906v-.008l.067.008c.324.08 1.213-.041 1.975-.268l1.377-.414-1.11-.795c-2.065-1.482-5.71-2.38-8.423-2.088-3.767.405-5.079.438-8.149.162-3.515-.3-8.448-.29-10.392.041-.98.162-1.078.128-.932-.326.081-.292.3-.469.47-.404.179.056.406-.136.487-.436.13-.405-.016-.552-.615-.56-.43 0-1.2-.074-1.701-.147l-.373-.031c-.349 0-.608.064-.649.178-.04.145-.526.218-1.068.162-2.35-.268-10.628 2.488-16.104 5.355l-3.984 2.088.3-2.088c.163-1.142.129-2.205-.066-2.36-.324-.258-1.425.108-1.506.497a15.4 15.4 0 0 1-1.78 1.715l-1.743 1.54-.258-1.028c-.534-2.13-1.637-1.481-3.047 1.783-.632 1.474-.696 1.975-.388 3.343l.355 1.622-1.32.85c-.721.469-4.982 2.835-9.461 5.265-4.488 2.43-9.523 5.451-11.192 6.715l-3.402 2.54-1.305.932c-1.514 1.086-2.414 3.519-3.078 8.346-.437 3.159-.487 4.93-.187 7.102.221 1.558.509 2.887.658 2.994l.006.004c.146.048.544-.05.892-.237.81-.429 1.854-.056 2.883 1.037.446.47 1.505 1.216 2.348 1.637l1.547.762.326-1.037c.178-.567.211-1.184.082-1.354-.348-.437.063-1.66.492-1.506.194.065.618.55.942 1.077.445.712 1.076 1.135 2.453 1.62 1.66.584 1.878.577 2.064-.038.131-.6.148-1.22.049-1.825-.203-1.409.3-1.515 1.58-.324.486.438 1.596 1.053 2.47 1.37 1.572.55 1.603.543 1.919-.47.178-.566.26-1.392.187-1.837-.069-.417-.062-.795.002-.864l.006-.006c.105-.016 1.012.408 2.041.975 2.69 1.458 3.467 1.464 3.912.014.203-.632.243-1.295.106-1.473-.576-.737.43-.778 2.367-.098 1.134.405 2.38.663 2.777.59.875-.162 1.287-1.293.85-2.338-.446-1.093.26-1.54 1.7-1.086.673.211 1.143.462 1.054.56-.09.096-.77.808-1.532 1.577-1.093 1.126-1.708 2.211-3.045 5.403l-1.675 3.986-1.328.21c-.73.114-1.785.163-2.352.114-1.199-.113-1.635.193-2.023 1.416-.397 1.247 1.668 5.138 3.418 6.434 1.206.89 1.27 1.043.947 2.088a4.9 4.9 0 0 0-.242 1.832c.064.388-.048.97-.25 1.31-.292.478-.568.511-1.256.139-.81-.438-.91-.397-1.217.6a4.9 4.9 0 0 0-.217 1.814c.178 1.102-.463 1.782-1.055 1.11-.267-.292-.793-.65-1.166-.78-.623-.219-.72-.096-1.052 1.41-.203.907-.34 1.944-.3 2.309.058.567-.08.583-1.01.056-1.07-.59-1.08-.582-1.46.633-.243.762-.228 1.547.031 2.106.235.486.342 1.32.245 1.863-.138.729.007 1.07.558 1.353.405.203 1.507.892 2.463 1.54 2.357 1.587 3.28 1.633 4.47.224 1.183-1.385 10.707-6.237 10.618-5.402-.032.324.308.673.875.867.729.26 1.07.147 1.652-.582l.73-.918.73 1.266.728 1.261.478-.783c.26-.437.462-1.03.446-1.322-.017-.397.471-.412 1.986-.08 2.47.567 4.745.26 5.037-.672.113-.365.055-.722-.13-.787-.187-.065-.487-.42-.657-.793-.405-.859-.29-.81 2.674 1.15 2.575 1.701 3.67 2.917 4.974 5.533.956 1.912 1.343 3.53 1.051 4.438-.324 1.077.568 1.596 1.565.916.68-.47.954-.996 1.367-2.664.283-1.142.488-2.392.447-2.756-.113-1.093.598-.575 1.318.94.6 1.287.683 1.336 1.274.923.34-.243.68-.81.744-1.256l.123-.808.914 1.133c.502.631 1.58 1.928 2.39 2.892s1.855 2.349 2.325 3.094l.867 1.344.317-1.467c.17-.81.411-1.433.54-1.385.406.146 2.837 4.796 2.715 5.201-.21.664-4.862 1.116-8.402.817-3.661-.308-6.429-1.004-7.717-1.944-.753-.55-.81-.541-.69.196.074.437.051.841-.054.898s-.212.616-.236 1.248c-.049 1.345-.405 1.459-2.373.754-1.264-.445-1.264-.446-1.385.729-.154 1.474.064 3.02.525 3.814.551.94.276 1.321-1.773 2.39-1.037.543-1.96 1.215-2.049 1.507-.243.777.623 6.204.97 6.115.17-.049.438-.496.6-1.006s.544-1.11.852-1.336c1.247-.891 6.64.348 6.69 1.539q.072 1.2-3.622 1.945c-1.15.243-2.906.89-3.894 1.442-1.701.947-1.847 1.116-2.414 2.955a17 17 0 0 0-.592 4.683c.032 4.066.527 4.99 1.588 2.916.907-1.757 3.693-4.673 4.754-4.972.51-.146 1.783-.124 2.836.062 1.036.178 2.307.373 2.826.43.81.097.898.21.68.906a2.2 2.2 0 0 0 0 1.346c.202.421.122.488-.364.342-.55-.179-.582-.139-.234.347.34.478.282.728-.414 1.797-1.19 1.823-2.171 3.946-1.863 4.051.623.227 4.017-1.029 5.507-2.033 2.13-1.434 2.957-1.077 2.641 1.135-.227 1.595-.104 2.362.285 1.828.138-.187 1.886.326 4.55 1.314 7.947 2.973 11.486 3.337 15.147 1.563 1.32-.648 1.563-.649 1.66-.106.13.73 2.374 1.653 5.176 2.147 2.017.348 6.65.413 7.395.105.405-.162.762-.023 1.361.527.454.422.787.874.746 1.012-.178.567 1.523 3.856 2.592 5.006.585.623 1.647 1.424 2.46 1.863a102.87 102.87 0 0 1-69.706 27.465 103 103 0 0 1-22.533-2.496l.123-.039-28.229-83.953 3.95-1.154 1.994-3.508.709.21 1.802.175.864-.047 1.156-.198 1.121-.334.793-.343 1.543-.955 1.264-1.184 1.03-1.416.735-1.57.42-1.7.084-1.796-.228-1.584-.332-1.118-.354-.812-.943-1.512-1.192-1.275-1.404-1.014-1.603-.74-1.672-.418-1.817-.082-1.58.228-1.127.338-.795.342-1.539.953-1.28 1.196-1.007 1.39-.535 1.147-3.188-1.278-30.628 16.705 2.347 5.66c-1.475.356-3.208.996-4.697 2.149-1.696 1.312-3.05 3.392-3.147 6.273-.095 2.882.986 6.503 3.838 11.19 2.865 4.707 6.635 8.66 10.467 12.2 3.832 3.538 7.732 6.668 10.879 9.685 1.573 1.508 2.958 2.987 4.053 4.459s1.897 2.93 2.344 4.41.547 2.979.214 4.605-1.11 3.39-2.472 5.334l-.426.612a1 1 0 0 0-.106.957A102.87 102.87 0 0 1 25.717 128 102.87 102.87 0 0 1 128.586 25.133m9.103 73.012h.268q.074 0 .098.033v.006q.006.074-.342.302c-.64.43-.84.42-.703-.01.048-.161.355-.323.68-.331m-5.158 1.84h.008c.646-.03 1.311.347 1.166.831-.074.228-.171.356-.234.329a.1.1 0 0 1-.034-.036c-.056-.113-.324-.056-.6.147-.372.267-.614.218-.962-.195-.365-.43-.35-.624.063-.891q.265-.177.593-.186m-4.148 3.003v.008q.332 0 .762.137c.712.25.713.285-.073 1.103-.947.98-.914.988-1.336-.033-.3-.729-.001-1.19.647-1.215m102.185 11.569h.002q.41 3.101.63 6.224a103 103 0 0 0-.632-6.224m-158.41 31.51 27.06 80.464a102.9 102.9 0 0 1-30.833-15.35 1 1 0 0 0 .85-.425l.427-.611c1.485-2.119 2.396-4.135 2.795-6.084.4-1.95.276-3.823-.258-5.59-.533-1.768-1.464-3.43-2.658-5.034s-2.654-3.154-4.275-4.708c-3.244-3.11-7.141-6.235-10.907-9.713s-7.394-7.304-10.111-11.768c-2.73-4.484-3.624-7.765-3.547-10.076s1.042-3.719 2.367-4.744c1.278-.989 2.91-1.528 4.258-1.823l1.002 2.415z" style="fill:#fff;fill-rule:evenodd;stroke-width:1.09564"/><path d="m417.788 100.133 1.782 1.06-.975 1.345-1.715-1.261z" style="fill-rule:evenodd;stroke-width:.880357"/><path d="m376.09 60.89-4.821 7.647 20.113 22.317-8.266 5.166" style="fill:none;fill-rule:evenodd;stroke:#000;stroke-width:1.121;stroke-opacity:1"/></svg>