<?xml version="1.0" encoding="UTF-8" standalone="no"?>
<svg
   xml:space="preserve"
   width="256"
   height="256"
   version="1.1"
   id="svg2"
   sodipodi:docname="logo-dakotaraptor-menu.svg"
   inkscape:version="1.4.2 (ebf0e940d0, 2025-05-08)"
   xmlns:inkscape="http://www.inkscape.org/namespaces/inkscape"
   xmlns:sodipodi="http://sodipodi.sourceforge.net/DTD/sodipodi-0.dtd"
   xmlns="http://www.w3.org/2000/svg"
   xmlns:svg="http://www.w3.org/2000/svg"><sodipodi:namedview
     id="namedview1"
     pagecolor="#000000"
     bordercolor="#000000"
     borderopacity="0.25"
     inkscape:showpageshadow="2"
     inkscape:pageopacity="0.0"
     inkscape:pagecheckerboard="0"
     inkscape:deskcolor="#d1d1d1"
     inkscape:zoom="2.5664062"
     inkscape:cx="128"
     inkscape:cy="128"
     inkscape:window-width="1536"
     inkscape:window-height="888"
     inkscape:window-x="0"
     inkscape:window-y="0"
     inkscape:window-maximized="1"
     inkscape:current-layer="svg2" /><defs
     id="defs2" /><path
     id="path2"
     style="fill:#ffffff;fill-rule:evenodd;stroke-width:1.73535"
     d="M 128.58365,1.7535 A 126.24698,126.24697 0 0 0 2.339,128.00185 126.24698,126.24697 0 0 0 128.58365,254.2465 126.24698,126.24697 0 0 0 254.832,128.00185 126.24698,126.24697 0 0 0 128.58365,1.7535 Z m -1.1065,27.629199 a 100.89458,98.618525 0 0 1 100.89137,98.619151 100.89458,98.618525 0 0 1 -4.00783,27.51818 c -2.01571,-0.1656 -2.8323,-0.33707 -3.21959,-0.61431 -6.07453,-4.34863 -8.92928,-6.21241 -10.47658,-6.83144 l -1.86884,-0.74753 -1.49507,-4.29648 c -1.20508,-3.47026 -1.71164,-5.69069 -2.63489,-11.50539 -1.89703,-11.94801 -2.03052,-12.51603 -3.47492,-14.97291 -0.71536,-1.21676 -1.29894,-2.28087 -1.29894,-2.36102 v -0.004 h 0.004 v -0.004 h 0.004 0.004 c 0.12638,-1.5e-4 0.92209,0.38761 1.86884,0.91778 1.57633,0.88274 2.75365,1.30017 2.73849,0.97327 -0.002,-0.0423 -0.23108,-0.76513 -0.51069,-1.60979 -0.27962,-0.84464 -0.95375,-3.05628 -1.49878,-4.91449 -1.02998,-3.51196 -1.79231,-4.87424 -3.95971,-7.06087 l -1.28784,-1.29525 2.89023,-0.18133 c 3.47096,-0.21501 9.6875,-1.096275 9.97701,-1.406255 l 0.004,-0.0038 v -0.0038 l 0.004,-0.0038 v -0.0038 l 0.004,-0.0038 v -0.0038 -0.0038 l -0.004,-0.0038 c -0.0629,-0.134337 -0.89447,-0.544701 -1.89844,-0.925165 -1.04453,-0.39585 -3.38289,-1.41219 -5.19944,-2.257416 -3.23584,-1.505581 -3.28315,-1.540331 -2.27221,-1.791119 0.56755,-0.14078 1.23352,-0.478877 1.47657,-0.751247 0.37598,-0.421258 0.3461,-0.557793 -0.18871,-0.92147 -0.34577,-0.235119 -0.93604,-0.434597 -1.31005,-0.444071 -0.374,-0.0095 -2.38874,-0.842895 -4.47781,-1.854044 -1.71544,-0.830314 -2.87229,-1.486065 -2.93092,-1.643083 v -0.0038 l -0.004,-0.0038 V 88.9766 88.9728 88.969 h 0.004 v -0.0038 l 0.004,-0.0038 h 0.004 c 0.0189,-0.0076 0.0589,-0.01326 0.11482,-0.0038 2.03498,0.343479 12.71921,0.564122 12.71921,0.262744 0,-0.720627 -16.84186,-9.297825 -20.12054,-10.247148 -1.16557,-0.337511 -3.39593,-0.846837 -4.95519,-1.132412 l -2.83473,-0.51808 2.23152,-0.595821 c 1.18785,-0.316573 2.16408,-0.675419 2.22409,-0.814133 l 0.004,-0.0038 v -0.0038 -0.0038 -0.0038 -0.0038 -0.0038 c -0.11311,-0.294253 -3.75284,-1.357261 -6.29115,-1.828142 -0.99078,-0.18379 -2.32102,-0.533844 -2.95682,-0.777129 -3.20719,-1.226789 -5.49542,-1.43592 -13.37793,-1.221228 -7.43785,0.202571 -12.09748,0.684533 -22.0597,2.272204 l -3.56003,0.566206 1.1657,-0.995479 c 0.62264,-0.530339 1.13797,-1.045917 1.16942,-1.169409 v -0.0038 -0.0038 c 0,-0.0016 1.9e-4,-0.0059 0,-0.0074 v -0.0038 l -0.004,-0.0038 c -7.6e-4,-0.0015 -0.002,-0.0097 -0.004,-0.01118 -0.27799,-0.35984 -6.22082,0.09843 -7.20891,0.573607 -0.88443,0.42535 -1.03987,0.433346 -1.03987,0.05173 0,-1.205941 -2.8539,-0.891994 -5.94699,0.651318 -2.32258,1.158844 -5.61744,3.332227 -6.04319,3.98563 -0.14533,0.222859 -0.51639,0.406289 -0.82526,0.407066 -0.87937,0.0019 -13.21393,2.876163 -19.014026,4.429701 -2.882302,0.772031 -5.361384,1.402564 -5.510292,1.402564 -0.575225,0 0.951313,-4.056891 1.85772,-4.936696 l 0.925165,-0.899264 h -1.039873 c -1.467062,0 -4.389059,1.079037 -6.387368,2.357326 -1.297179,0.829708 -1.761505,0.990912 -1.965057,0.684627 -0.146464,-0.220643 -0.177348,-0.530983 -0.0703,-0.692036 0.361119,-0.543374 -2.123135,0.04301 -3.430508,0.810458 -1.570647,0.922038 -2.982913,3.226557 -3.326904,5.428874 l -0.25164,1.613506 -5.780456,2.079764 c -6.976221,2.509625 -11.987561,4.498992 -15.99926,6.354059 -6.460267,2.987251 -12.907395,6.475793 -14.943306,8.085963 -1.174783,0.92911 -2.609154,2.00947 -3.186276,2.40172 -0.577142,0.39225 -1.052708,0.87791 -1.058392,1.0769 -0.0068,0.19902 -0.406553,0.98282 -0.888161,1.74301 -2.090345,3.29951 -2.143344,5.47513 -0.262748,10.83928 1.933025,5.5137 3.963191,7.93922 8.974125,10.70973 4.141755,2.2901 11.478759,4.54556 17.866835,5.4918 1.352834,0.20048 2.468388,0.44102 2.553462,0.54769 l 0.0038,0.004 h 0.0038 v 0.004 0.004 c 0,0.0993 -0.399599,1.12902 -0.888161,2.28701 -0.831227,1.97021 -0.864325,2.23345 -0.521793,4.09295 0.41474,2.25167 0.831612,2.87542 1.916946,2.87542 0.632126,0 0.793834,-0.21306 0.99178,-1.30263 l 0.236843,-1.30264 0.736434,1.53577 c 0.825314,1.719 1.22266,1.97786 5.769344,3.81169 3.822224,1.54162 4.006639,1.55666 3.652549,0.25535 -0.444203,-1.63258 -0.643018,-2.36788 -0.558797,-2.47575 l 0.0038,-0.004 v -0.004 h 0.0038 l 0.0038,-0.004 c 0.0014,-4.6e-4 0.0057,2.8e-4 0.0076,0 h 0.0038 c 0.101179,0.004 0.367485,0.33014 0.799335,0.87336 1.091429,1.37287 2.924498,3.06115 4.736858,4.35939 5.265225,3.77173 6.930875,4.86516 8.533752,5.61761 2.710657,1.27247 5.648645,2.343 7.123798,2.59047 2.901572,0.48678 8.142142,4.71565 12.075272,9.74756 3.60467,4.61169 4.02686,4.94278 4.36679,3.40832 0.10289,-0.46457 0.3089,-1.39063 0.45518,-2.05758 l 0.26276,-1.21381 1.70229,2.13528 c 3.97025,4.98088 7.9065,11.72465 8.84832,15.15795 0.49447,1.8025 1.15703,1.91698 1.96504,0.34046 0.34713,-0.67725 0.74653,-1.23234 0.88446,-1.23234 h 0.004 0.004 l 0.004,0.004 h 0.004 c 0.13794,0.0764 0.34204,0.91742 0.45889,1.93175 0.17716,1.53804 0.0406,2.68532 -0.66981,5.60281 -0.78653,3.23014 -0.8734,4.0967 -0.71424,7.20522 0.11046,2.15851 0.45064,4.4282 0.87336,5.83594 0.85999,2.86401 0.82842,2.33314 0.33675,6.13942 -0.39859,3.08532 -0.32375,9.03521 0.0629,12.48974 a 100.89458,98.618525 0 0 1 -0.80478,0.006 A 100.89458,98.618525 0 0 1 26.582089,128.00128 100.89458,98.618525 0 0 1 127.47715,29.382131 Z" /></svg>
