<?xml version="1.0" encoding="UTF-8" standalone="no"?>
<svg
   xml:space="preserve"
   width="256"
   height="256"
   version="1.1"
   id="svg2"
   sodipodi:docname="logo-archillobator-menu.svg"
   inkscape:version="1.4.2 (ebf0e940d0, 2025-05-08)"
   xmlns:inkscape="http://www.inkscape.org/namespaces/inkscape"
   xmlns:sodipodi="http://sodipodi.sourceforge.net/DTD/sodipodi-0.dtd"
   xmlns="http://www.w3.org/2000/svg"
   xmlns:svg="http://www.w3.org/2000/svg"><sodipodi:namedview
     id="namedview1"
     pagecolor="#000000"
     bordercolor="#000000"
     borderopacity="0.25"
     inkscape:showpageshadow="2"
     inkscape:pageopacity="0.0"
     inkscape:pagecheckerboard="0"
     inkscape:deskcolor="#d1d1d1"
     inkscape:zoom="2.5664062"
     inkscape:cx="128"
     inkscape:cy="128"
     inkscape:window-width="1536"
     inkscape:window-height="888"
     inkscape:window-x="0"
     inkscape:window-y="0"
     inkscape:window-maximized="1"
     inkscape:current-layer="svg2" /><defs
     id="defs2" /><path
     id="path2"
     style="fill:#ffffff;fill-rule:evenodd;stroke-width:1.73535"
     d="M 128.58364,1.7535 A 126.24698,126.24697 0 0 0 2.339,128.00185 126.24698,126.24697 0 0 0 128.58364,254.2465 126.24698,126.24697 0 0 0 254.832,128.00185 126.24698,126.24697 0 0 0 128.58364,1.7535 Z m -1.10649,27.629199 a 100.89419,98.618523 0 0 1 100.89137,98.619151 100.89419,98.618523 0 0 1 -20.07243,58.89986 c -0.68779,-0.37436 -1.31873,-0.7333 -1.78004,-1.01399 l -2.33881,-1.42106 1.73932,-0.0962 c 0.95639,-0.0534 1.76002,-0.10705 1.78371,-0.11842 0.21109,-0.0936 -0.0707,-0.52303 -0.5625,-0.86226 -1.02098,-0.7042 -2.37667,-1.17046 -5.27344,-1.81702 -1.53079,-0.3417 -2.84386,-0.67478 -2.91984,-0.74014 v -0.004 l -0.004,-0.004 v -0.004 -0.004 -0.004 -0.004 c 0.0667,-0.0972 0.67818,-0.35269 1.46176,-0.5995 0.87741,-0.2764 1.69177,-0.57507 1.80963,-0.66242 0.33574,-0.24908 0.25258,-0.58 -0.25905,-1.0473 -0.2593,-0.23682 -0.77742,-0.73003 -1.1546,-1.09539 -1.16322,-1.12688 -4.10265,-2.15362 -6.18753,-2.1612 -0.63016,-0.002 -0.77455,-0.0798 -1.42475,-0.77713 -0.39826,-0.42711 -0.96305,-0.89056 -1.25084,-1.02509 -0.28779,-0.13453 -0.90517,-0.49174 -1.37295,-0.79564 l -0.85115,-0.55141 0.61802,-0.19243 c 0.83689,-0.26017 1.12499,-0.50643 1.12499,-0.95478 0,-1.0048 -0.9829,-1.45096 -2.37582,-1.07688 -1.20947,0.32482 -3.50827,0.49131 -3.69697,0.27014 l -0.004,-0.004 c -0.1962,-0.28708 0.31876,-0.85419 1.79114,-1.96875 1.40209,-1.06134 1.64184,-1.4665 1.03988,-1.75783 -0.60301,-0.29185 -2.77995,-0.16826 -3.81168,0.21835 -0.37622,0.14097 -0.44486,-0.19747 -0.28497,-1.42106 0.14192,-1.08497 0.50802,-1.83169 1.10651,-2.25742 0.6179,-0.43952 0.52922,-1.12693 -0.19243,-1.46916 -0.71253,-0.33793 -4.22167,-0.99921 -4.78867,-0.90296 -0.39976,0.0678 -0.62832,0.0256 -0.78085,-0.14059 -0.11899,-0.1296 -0.45633,-0.24406 -0.75122,-0.25164 -0.29492,-0.008 -0.72319,-0.058 -0.94738,-0.11482 -0.38596,-0.0978 -0.34528,-0.15594 0.72164,-1.05839 1.54366,-1.30583 2.55532,-1.90956 3.19737,-1.90956 0.64278,0 1.37682,-0.40589 1.36924,-0.75492 -0.006,-0.29198 -2.15885,-1.47362 -3.50082,-1.92064 l -0.88447,-0.29236 1.0473,-0.96958 c 0.61524,-0.56744 1.30239,-1.41209 1.6579,-2.04278 0.6156,-1.09205 1.97381,-2.94253 2.65338,-3.61555 0.53396,-0.52878 0.80712,-1.0437 0.69571,-1.30633 -0.0601,-0.14134 -0.79393,-0.37506 -1.95024,-0.61801 -3.14072,-0.65982 -4.59786,-0.80676 -8.07117,-0.80676 -2.86985,0 -3.28935,-0.0311 -3.19366,-0.23313 0.99978,-2.11426 1.95393,-5.25342 1.95393,-6.43917 0,-0.47073 -0.0639,-0.53502 -0.64391,-0.68091 -0.50824,-0.1279 -0.68133,-0.11918 -0.82154,0.0517 -0.10402,0.12675 -0.66922,0.25942 -1.36925,0.32195 -2.6657,0.23808 -6.44707,1.06488 -8.80019,1.92436 -0.49925,0.18227 -0.72908,0.25785 -0.80675,0.23684 -0.002,-7e-4 -0.009,-0.004 -0.0114,-0.004 h -0.004 l -0.004,-0.004 -0.004,-0.004 -0.004,-0.004 c -7.2e-4,-0.001 -0.004,-0.009 -0.004,-0.0114 -3.6e-4,-0.002 2.1e-4,-0.009 0,-0.0114 -5.7e-4,-0.0301 0.0133,-0.0777 0.0407,-0.13699 0.75618,-1.63371 0.97108,-2.44915 0.78824,-3.00124 -0.13301,-0.40127 -0.3385,-0.62754 -0.68833,-0.75865 -0.7884,-0.29532 -1.65886,0.16617 -4.77386,2.53497 l -2.79031,2.12049 -0.32934,-0.69573 c -0.71118,-1.50034 -1.47364,-4.16948 -1.27304,-4.46302 0.23375,-0.342 1.91971,-1.05021 2.50164,-1.05099 0.75712,-0.002 2.76104,-0.63334 3.23069,-1.01769 0.40535,-0.33169 0.43397,-0.81976 0.0555,-0.95106 -0.15291,-0.0529 -0.64717,0.0233 -1.0991,0.17015 -1.25095,0.40678 -1.85606,0.29035 -2.44244,-0.46628 -0.39055,-0.50395 -1.66215,-3.42276 -1.62459,-3.70807 4.5e-4,-0.002 0.004,-0.009 0.004,-0.0114 v -0.004 h 0.004 v -0.004 c 0.0203,-0.0189 0.4622,0.0695 0.98068,0.19243 1.61784,0.38371 2.99112,-0.12012 3.69696,-1.35443 0.42111,-0.7364 0.25244,-0.88097 -0.95847,-0.83265 -1.40325,0.0561 -2.68021,-0.26388 -3.30098,-0.82525 l -0.49895,-0.44923 0.78825,-1.78002 c 0.43322,-0.97918 0.78826,-1.89212 0.78826,-2.02798 0,-0.3124 0.28119,-0.47749 0.43296,-0.25533 0.12714,0.18606 -0.22111,2.08795 -0.45888,2.50534 -0.0152,0.0262 -0.022,0.0464 -0.0222,0.0629 1.9e-4,0.002 -3.8e-4,0.009 0,0.0114 6e-4,0.002 0.004,0.009 0.004,0.0114 l 0.004,0.004 0.004,0.004 0.004,0.004 c 0.002,9.3e-4 0.009,0.004 0.0114,0.004 0.21788,0.0748 1.56601,-0.63334 2.01317,-1.1139 1.8725,-2.01229 2.58382,-6.20013 1.70229,-10.02882 l -0.23313,-1.00658 0.79564,0.85485 c 0.43901,0.46899 1.03891,1.06129 1.33223,1.32115 0.29329,0.25984 0.62523,0.63008 0.73645,0.81785 0.11122,0.18777 0.31809,0.34044 0.45887,0.34044 0.21316,0 0.23921,-0.21863 0.17015,-1.30263 -0.15783,-2.48645 -1.03913,-4.00985 -3.78949,-6.54647 l -1.89104,-1.74303 0.86226,-0.10724 c 1.80927,-0.22188 3.23044,-0.90562 4.05592,-1.95396 l 0.36637,-0.46628 -0.75123,-0.69942 c -0.41271,-0.38467 -1.75736,-1.48883 -2.99015,-2.453541 -2.18388,-1.708926 -3.67936,-3.072042 -4.04482,-3.689576 -0.0616,-0.104022 -0.0968,-0.171096 -0.0925,-0.210942 3.3e-4,-0.0016 0.004,-0.0095 0.004,-0.01137 v -0.0038 l 0.004,-0.0038 v -0.0038 l 0.004,-0.0038 0.004,-0.0038 0.004,-0.0038 h 0.004 c 0.0485,-0.02255 0.16863,-0.0095 0.37747,0.02956 0.26955,0.05002 1.09778,0.175263 1.83923,0.281255 1.08612,0.15518 1.44376,0.278186 1.83184,0.629112 0.60766,0.549532 1.02138,0.569105 1.02138,0.04813 0,-0.213177 0.0873,-0.38486 0.19243,-0.38486 0.017,0 0.033,-0.0076 0.0443,-0.01516 l 0.004,-0.0038 c 0.002,-0.0038 0.009,-0.01516 0.0114,-0.01895 0.017,-0.06272 -0.0371,-0.197868 -0.15916,-0.366348 -0.15972,-0.220511 -0.40873,-0.753236 -0.55141,-1.187928 -0.65658,-1.99939 -3.33633,-6.121706 -5.74343,-8.8335 -0.18796,-0.211738 -0.30532,-0.425881 -0.28496,-0.499587 v -0.0038 h 0.004 v -0.0038 l 0.004,-0.0038 v -0.0038 h 0.004 0.004 c 0.27017,-0.05362 4.43812,2.320965 5.75085,3.282491 0.77059,0.564406 1.05437,0.313352 0.5736,-0.506996 -0.19281,-0.328984 -0.52282,-0.941005 -0.73272,-1.361846 -0.52577,-1.054065 -2.44217,-2.828548 -4.19286,-3.882006 -1.50236,-0.904039 -3.05103,-1.630085 -3.48974,-1.63198 -0.0608,-3.22e-4 -0.1044,-0.0057 -0.12581,-0.02217 l -0.004,-0.0038 c -0.001,-0.0013 -0.006,-0.0095 -0.008,-0.01137 v -0.0038 l -0.004,-0.0038 c -1.9e-4,-0.0017 -4e-5,-0.0095 0,-0.01137 2.8e-4,-0.0018 -5.3e-4,-0.0095 0,-0.01137 0.008,-0.01705 0.028,-0.04074 0.0555,-0.06291 0.32076,-0.258405 3.62518,-0.693608 5.53619,-0.72904 2.18051,-0.04055 2.56037,-0.189929 2.35733,-0.92147 -0.0773,-0.278944 -0.31301,-0.487688 -0.73643,-0.647605 -0.34304,-0.1296 -0.7801,-0.411367 -0.96958,-0.62913 -0.46987,-0.540172 -2.16686,-1.512081 -3.3417,-1.913236 -1.38945,-0.474424 -3.58762,-0.765362 -5.81006,-0.766044 h -1.93174 l 0.581,-0.73643 c 0.31896,-0.405039 0.8284,-1.188762 1.13241,-1.743016 1.08427,-1.976709 2.28938,-3.743362 2.8125,-4.118845 0.26081,-0.187181 0.39219,-0.283527 0.41078,-0.344163 3.6e-4,-0.0018 0.004,-0.0093 0.004,-0.01118 v -0.0038 c -2.8e-4,-0.0016 -0.004,-0.0095 -0.004,-0.01118 v -0.0038 l -0.004,-0.0038 c -0.001,-0.0015 -0.006,-0.0097 -0.008,-0.01118 -0.0345,-0.03035 -0.12524,-0.05315 -0.25533,-0.08511 -0.24213,-0.05948 -0.38119,-0.216724 -0.38119,-0.418175 0,-0.09434 -0.004,-0.156847 -0.0222,-0.188736 -9.6e-4,-0.0014 -0.006,-0.0099 -0.008,-0.01118 v -0.0038 h -0.004 l -0.004,-0.0038 c -0.001,-6.1e-4 -0.009,-0.0032 -0.0114,-0.0038 h -0.004 c -0.002,-1.1e-4 -0.009,-5.9e-5 -0.0114,0 -0.0622,0.0074 -0.18493,0.10512 -0.41817,0.307155 -0.26445,0.22912 -0.63957,0.418175 -0.83266,0.418175 -0.19304,0 -1.54193,0.33976 -2.99383,0.754938 -1.4519,0.415168 -3.17754,0.800595 -3.83759,0.858555 -0.66006,0.05796 -1.38085,0.146255 -1.60241,0.196134 -0.0745,0.01667 -0.12903,0.0206 -0.15537,0.01118 l -0.004,-0.0038 h -0.004 l -0.004,-0.0038 -0.004,-0.0038 v -0.0038 h -0.004 v -0.0038 -0.0038 -0.0038 c 0.0133,-0.07141 0.20692,-0.253774 0.60321,-0.581006 0.45729,-0.377614 1.04872,-0.772259 1.31743,-0.877057 0.26873,-0.104799 0.52774,-0.319291 0.5736,-0.477388 0.0458,-0.158098 0.26814,-0.365036 0.49589,-0.458882 0.55747,-0.229693 0.52175,-0.479818 -0.0998,-0.692025 -0.26121,-0.08915 -0.4789,-0.202648 -0.51069,-0.262748 l -0.004,-0.0038 v -0.0038 -0.0038 -0.0038 -0.0038 h 0.004 c 0.0396,-0.06321 0.31356,-0.205078 0.64021,-0.318258 l 0.64022,-0.22204 -1.33595,-0.0259 c -2.11254,-0.04102 -4.44668,0.403177 -6.67601,1.26933 -0.33225,0.12907 -0.53157,0.19304 -0.59211,0.188736 h -0.004 l -0.004,-0.0038 h -0.004 -0.004 v 3.53e-4 h -0.004 V 67.8858 67.882 67.8782 c 0.0256,-0.05771 0.29391,-0.237462 0.80303,-0.532896 0.86111,-0.499701 2.1612,-1.749318 2.1612,-2.076076 -2.2e-4,-0.0017 4.6e-4,-0.0093 0,-0.01118 -6.8e-4,-0.0017 -0.002,-0.0093 -0.004,-0.01118 l -0.004,-0.0038 c -0.0775,-0.102468 -0.52467,-0.223601 -1.1509,-0.299756 -0.28027,-0.03409 -0.55258,-0.05192 -0.81785,-0.05552 v 0.0038 c -1.85688,-0.02569 -3.34941,0.69513 -4.57774,2.201898 -0.8669,1.063392 -1.8713,2.798812 -2.44613,4.233566 -0.55421,1.383297 -0.6045,1.346213 -1.12131,-0.806745 -0.7074,-2.946756 -1.34867,-3.489706 -2.41653,-2.04647 -0.547,0.739347 -0.74185,2.242903 -0.42558,3.278792 0.0951,0.311431 0.14817,0.595714 0.12581,0.65502 h -0.004 v 0.0038 l -0.004,0.0038 h -0.004 c -0.0955,-0.007 -0.66515,-0.286307 -1.31374,-0.651318 -0.6911,-0.38894 -1.34941,-0.706828 -1.46175,-0.706828 -0.11236,0 -0.23321,-0.08468 -0.27016,-0.185041 -0.11216,-0.304424 -0.40299,-0.02192 -0.63652,0.618012 -0.19631,0.538041 -0.18151,0.685181 0.1296,1.321138 0.19243,0.393424 0.70417,1.059104 1.13981,1.480268 l 0.79194,0.766026 -0.82154,0.159158 c -0.45254,0.08773 -1.5578,0.278925 -2.45356,0.425578 -0.86777,0.142106 -1.62141,0.317692 -1.71711,0.395964 l -0.004,0.0038 -0.004,0.0038 c -0.0542,0.07427 -1.48131,0.272502 -3.17148,0.440377 -7.69983,0.764434 -12.96822,1.62226 -17.559678,2.86432 -1.36723,0.369854 -3.64444,0.92166 -5.05881,1.224914 -6.34345,1.35997 -19.17698,4.611823 -24.94252,6.320748 -6.48023,1.920777 -10.53661,3.446196 -14.48812,5.439978 -1.57588,0.795128 -2.16761,1.205909 -3.58965,2.509056 -1.34223,1.230067 -1.81689,1.789983 -2.25371,2.645989 -1.44929,2.840108 -2.76827,7.231268 -2.98274,9.921498 -0.0747,0.93794 -0.18426,1.81125 -0.24054,1.93914 -0.0563,0.1279 0.01,0.40483 0.14804,0.61801 0.67119,1.03709 0.80748,1.4386 0.6032,1.78373 -0.16552,0.2797 -0.0895,0.65397 0.43668,2.18339 0.94719,2.75295 1.75879,4.0249 3.8672,6.0321 1.48762,1.41625 2.84646,2.10216 4.3742,2.213 0.61709,0.0449 1.18355,0.0114 1.30633,-0.0777 0.11935,-0.086 0.83325,-0.16806 1.58759,-0.18133 1.66142,-0.0275 3.77259,-0.21604 7.97124,-0.71793 3.76736,-0.45035 10.91889,-1.09327 13.80351,-1.23972 l 2.05386,-0.10364 -0.59949,0.41076 c -0.33001,0.2258 -1.24314,0.70485 -2.03168,1.0621 -1.45378,0.65865 -2.3102,1.3437 -2.15009,1.72081 0.13534,0.31896 0.86473,0.55881 1.69492,0.55881 0.86063,0 2.5074,-0.71289 3.97822,-1.71711 0.52365,-0.35752 0.76011,-0.49129 0.85485,-0.46258 0.002,8.1e-4 0.009,0.002 0.0114,0.004 0.002,0.001 0.009,0.006 0.0114,0.008 l 0.004,0.004 c 0.001,0.002 0.006,0.009 0.008,0.0114 0.0133,0.0239 0.0222,0.0652 0.0222,0.11103 0,0.86017 -0.77436,2.04117 -2.52016,3.85239 l -1.0732,1.1139 0.59582,0.17773 c 0.66294,0.19783 2.17704,-0.009 3.05675,-0.41819 0.24344,-0.11312 0.46435,-0.18891 0.5218,-0.18133 l 0.004,0.004 h 0.004 0.004 c 0.0762,0.083 -1.39097,3.63315 -1.97616,4.78127 -0.62135,1.21896 -0.59458,1.79432 0.0925,1.95026 0.30951,0.0703 0.96079,-0.15101 2.47944,-0.85116 l 2.05758,-0.95108 -1.30264,2.44615 c -2.51915,4.72346 -2.97552,5.86785 -2.96794,7.47535 0.008,1.67434 0.73137,3.55711 1.48396,3.8672 0.6088,0.25083 0.93273,0.21599 2.02798,-0.22204 0.52507,-0.20998 1.01333,-0.36489 1.11019,-0.35157 h 0.004 0.004 c 0.0735,0.0248 -0.73899,1.26207 -1.80592,2.7459 -2.14155,2.97831 -2.21463,3.22229 -1.051,3.48974 0.46854,0.10762 0.6233,0.22526 0.62171,0.46627 -0.006,0.57722 -0.45612,2.08238 -0.74382,2.47946 -0.37349,0.51551 -0.35466,0.91215 0.0591,1.25082 0.43441,0.35553 1.52732,0.25594 3.28251,-0.29605 0.65214,-0.20515 1.22374,-0.34811 1.31003,-0.32935 l 0.004,0.004 h 0.004 v 0.004 h 0.004 v 0.004 0.004 0.004 c -0.002,0.0712 -0.16219,0.30094 -0.38486,0.5403 -1.11324,1.19644 -2.58491,4.75895 -3.10486,7.51236 -0.47448,2.51265 -0.16674,5.35211 0.79933,7.38282 0.42791,0.8995 0.86099,1.22124 1.6505,1.22124 0.4536,0 0.76678,-0.16693 1.50618,-0.79935 0.45366,-0.38799 0.83585,-0.65564 0.91776,-0.64763 h 0.004 v 0.004 h 0.004 0.004 v 0.004 h 0.004 v 0.004 0.004 0.004 0.004 c 0,0.21426 -0.65418,2.6933 -0.72163,2.7348 -0.0279,0.017 -0.4241,0.15783 -0.88076,0.31085 -1.20985,0.40568 -3.1473,1.62601 -4.28168,2.7015 -1.51388,1.43527 -1.84288,2.42143 -1.07688,3.22698 0.38822,0.40822 0.51356,0.44104 1.99096,0.4922 l 1.57277,0.0555 -0.51808,0.28126 c -1.43146,0.78723 -3.24878,3.77351 -3.82279,6.28003 -0.29073,1.26967 -0.33319,1.84569 -0.24054,3.2492 0.14362,2.17692 0.2001,2.36399 0.80303,2.64597 0.69361,0.32434 1.2755,0.047 1.97987,-0.94366 0.30256,-0.42552 0.99637,-1.36152 1.54318,-2.07978 l 0.99547,-1.30264 0.14059,2.46834 c 0.0784,1.35777 0.23789,2.64375 0.35157,2.85693 0.19026,0.35754 0.29092,0.38397 1.27303,0.35896 l 1.06579,-0.0296 -0.5588,0.71053 c -0.30717,0.38943 -1.06041,1.09838 -1.6727,1.5765 -0.61225,0.47814 -1.63211,1.33621 -2.26852,1.90585 -0.63642,0.56962 -1.31542,1.08019 -1.50986,1.13609 -0.53608,0.15385 -0.30596,0.44884 0.44777,0.56992 1.85302,0.29768 3.42338,-0.0553 4.9737,-1.1139 l 0.92516,-0.62913 -0.0998,0.74014 c -0.51547,3.92718 -1.9189,8.70189 -3.3195,11.28334 -0.87686,1.61611 -2.2102,3.32604 -3.61926,4.64804 -0.49419,0.46368 -0.90809,1.00567 -1.17681,1.48767 A 100.89419,98.618523 0 0 1 26.582089,128.00185 100.89419,98.618523 0 0 1 127.47715,29.382699 Z M 82.521422,215.46348 c 0.008,-2.1e-4 0.0133,0.002 0.019,0.004 h 0.004 l 0.004,0.004 h 0.004 l 0.004,0.004 0.004,0.004 h 0.004 l 0.004,0.004 v 0.004 l 0.004,0.004 c 0.0242,0.0724 -0.0544,0.28809 -0.23684,0.70681 a 100.89419,98.618523 0 0 1 -0.69943,-0.34416 c 0.24634,-0.0853 0.45957,-0.17242 0.5958,-0.25164 0.13169,-0.0765 0.2248,-0.12562 0.28126,-0.1332 0.004,-5.1e-4 0.008,-0.004 0.0114,-0.004 z" /></svg>
