<?xml version="1.0" encoding="UTF-8" standalone="no"?>
<svg
   xml:space="preserve"
   width="256"
   height="256"
   version="1.1"
   id="svg2"
   xmlns="http://www.w3.org/2000/svg"
   xmlns:svg="http://www.w3.org/2000/svg"><defs
     id="defs2" /><path
     id="path1"
     style="fill:#ffffff;fill-rule:evenodd;stroke-width:1.14264"
     d="M 128.58594,1.7539062 A 126.2465,126.2465 0 0 0 2.3398438,128 126.2465,126.2465 0 0 0 128.58594,254.24609 126.2465,126.2465 0 0 0 254.83203,128 126.2465,126.2465 0 0 0 128.58594,1.7539062 Z M 127.91602,26.691406 A 101.309,101.309 0 0 1 229.22461,128 101.309,101.309 0 0 1 127.91602,229.31055 101.309,101.309 0 0 1 26.605469,128 101.309,101.309 0 0 1 127.91602,26.691406 Z m 50.84375,40.78125 -0.002,0.01758 0.0137,-0.0098 v 0.0039 l -0.002,0.002 -0.002,0.0039 c -0.003,0 -0.007,-10e-6 -0.01,0 l -0.002,0.0059 c -0.25937,8e-4 -0.47406,0.03957 -0.50586,0.08594 -10e-4,0.0018 -0.003,0.0054 -0.004,0.0078 v 0.002 c 0,0.0525 -0.11072,0.09375 -0.24414,0.09375 -0.32373,0 -1.68153,0.47974 -4.01367,1.417969 -1.88022,0.756426 -2.61121,1.001546 -3.47461,1.164062 -0.60584,0.114037 -2.13748,0.570431 -3.48242,1.03711 -0.62996,0.218586 -2.22081,0.757957 -3.5332,1.197265 -1.9331,0.64709 -3.6262,1.272009 -5.00782,1.845703 h -0.002 c -0.004,7.71e-4 -0.009,0.0017 -0.0117,0.002 -10e-4,1.5e-5 -0.003,5.5e-5 -0.004,0 h -0.002 l -0.002,-0.002 h -0.002 v -0.0039 -0.002 -0.002 c -0.006,-0.04249 0.0871,-0.203584 0.24414,-0.408203 0.426,-0.555079 0.67043,-1.060004 0.58203,-1.203125 -0.2136,-0.345633 -1.42134,0.341781 -3.14063,1.785156 -0.62995,0.528853 -1.89577,1.576049 -2.81445,2.330078 -0.91867,0.754036 -1.88597,1.551756 -2.14844,1.773438 -4.95492,4.184768 -5.41313,4.588658 -7.68164,6.757812 -0.81501,0.77932 -1.72541,1.582136 -2.02148,1.785156 -0.29609,0.20302 -0.68603,0.543883 -0.86914,0.757813 -0.3257,0.3805 -0.36529,0.39718 -1.75391,0.71875 -0.7807,0.1808 -1.51586,0.352959 -1.63281,0.380859 -0.0812,0.0195 -0.1325,0.02356 -0.1582,0.0059 l -0.002,-0.002 c -0.0288,-0.02784 -0.0206,-0.09999 0.008,-0.242187 0.0637,-0.31812 -0.0882,-0.575313 -0.33593,-0.570313 -0.19508,0.004 -0.69676,0.247719 -1.25391,0.611328 -0.53546,0.34946 -3.40436,1.686892 -4.86914,2.269532 -0.6037,0.24013 -2.21519,0.80193 -3.58008,1.25 -2.45933,0.80736 -4.34304,1.449442 -5.63086,1.919922 -0.36724,0.13416 -0.68142,0.246093 -0.69922,0.246093 v -0.002 -0.002 -0.0039 c 0.009,-0.0334 0.13429,-0.221286 0.29883,-0.447266 0.60157,-0.82616 0.52229,-1.186136 -0.1875,-0.847656 -0.38192,0.18213 -1.57987,1.051679 -2.11719,1.537109 l -0.36132,0.328125 0.043,-0.521484 c 0.0428,-0.51549 0.0404,-0.521484 -0.22071,-0.521484 -0.18716,0 -0.3499,0.102715 -0.56054,0.353515 -0.16325,0.19442 -1.47771,1.55892 -2.92188,3.03125 -1.44418,1.472326 -3.09793,3.202097 -3.67187,3.843757 -0.57358,0.64126 -1.05452,1.15327 -1.07032,1.13867 h -0.002 v -0.002 -0.002 c -0.009,-0.0307 0.0202,-0.18485 0.0684,-0.35351 0.1039,-0.36238 0.1271,-1.45493 0.0332,-1.54883 -0.11433,-0.11433 -0.57432,0.20789 -0.81445,0.57031 -1.23274,1.86046 -1.51764,2.39304 -2.03711,3.76953 -0.40153,1.06399 -0.53026,1.2993 -1.07227,1.99805 l -0.41406,0.5332 -2.50195,0.0605 c -1.37608,0.0345 -3.253196,0.0643 -4.171876,0.0645 -0.91867,2e-4 -2.034259,0.0404 -2.480469,0.0898 -1.1062,0.12214 -1.573331,0.16874 -1.644531,0.11914 l -0.002,-0.002 -0.002,-0.002 -0.002,-0.004 h -0.002 v -0.002 -0.002 c -6e-5,0 -3e-5,-0.003 0,-0.004 3e-5,-10e-4 -9e-5,-0.003 0,-0.004 0.009,-0.0399 0.126433,-0.11138 0.314453,-0.2129 1.3091,-0.7068 1.58894,-0.94659 1.46875,-1.25976 -0.0833,-0.21701 -1.147458,-0.19629 -1.886718,0.0352 -0.32186,0.10076 -0.991525,0.27516 -1.490235,0.38867 -1.98037,0.45079 -3.82761,1.09404 -6.15625,2.14648 -1.10953,0.50145 -2.162426,1.02556 -3.097656,1.53906 -0.83072,0.45614 -3.053859,1.4668 -3.224609,1.4668 h -0.002 -0.002 v -0.002 c 4e-5,0 4e-5,-0.003 0,-0.004 0.0138,-0.0392 0.154154,-0.20871 0.339844,-0.41015 0.4186,-0.45412 0.6875,-0.91036 0.6875,-1.16407 0,-0.27931 -0.591406,-0.0968 -1.597656,0.49414 -1.17118,0.68779 -1.747693,1.11602 -2.408203,1.79297 -0.27804,0.28494 -0.54035,0.52086 -0.59375,0.53516 h -0.002 c -0.0412,0 -0.07617,-0.10428 -0.07617,-0.23242 0,-0.33386 -0.149763,-0.38157 -0.501953,-0.16016 -1.38807,0.87268 -2.30763,1.26089 -3.41211,1.44727 -0.39371,0.0665 -0.79799,0.16324 -0.90039,0.21484 -0.10239,0.0517 -0.789794,0.13138 -1.527344,0.17578 -2.00466,0.12061 -3.592896,0.25167 -3.941406,0.32617 -0.152666,0.0327 -0.248473,0.0433 -0.28125,0.0234 l -0.002,-0.002 h -0.002 v -0.002 -0.002 h -0.002 l -0.002,-0.002 h -0.002 v -0.002 -0.002 h -0.002 c -0.008,-0.0449 0.08339,-0.15171 0.273437,-0.3418 0.19132,-0.1913 0.281619,-0.36721 0.261719,-0.50781 -0.027,-0.18987 -0.08022,-0.21497 -0.458984,-0.20117 -0.26537,0.01 -0.723533,0.15044 -1.195313,0.36719 -0.41997,0.19295 -0.89755,0.40561 -1.0625,0.47461 l -0.300781,0.12695 0.05078,-0.36523 c 0.10343,-0.77113 -0.429627,-0.66438 -2.054687,0.40429 l -0.886719,0.58203 -2.167969,0.3086 c -2.39607,0.34073 -2.39409,0.34012 -4.21875,0.67773 -1.14626,0.21209 -1.53981,0.30377 -2.625,0.60742 -0.71887,0.20115 -2.185447,0.53413 -3.341797,0.75977 -0.31497,0.0614 -0.72252,0.14916 -0.90625,0.19336 -0.18373,0.0442 -0.764102,0.1737 -1.289062,0.28906 -2.53693,0.55751 -5.883148,1.42925 -7.205078,1.875 -2.63607,0.88885 -3.800255,1.94181 -5.140625,4.66016 -0.55697,1.1296 -1.227748,3.06204 -1.492188,4.29492 -0.0901,0.41997 -0.200847,0.83849 -0.248047,0.92969 -0.0471,0.0911 -0.08594,0.39686 -0.08594,0.67968 0,0.67102 0.331415,1.27604 0.953125,1.73243 0.38605,0.28338 0.490418,0.42784 0.611328,0.84375 0.15667,0.53893 0.437479,0.86212 0.824219,0.95312 0.13903,0.0327 0.369399,0.24008 0.542969,0.48633 0.38126,0.5409 1.134968,1.09856 1.486328,1.10156 0.33344,0.003 0.736338,-0.37922 0.736328,-0.70117 0,-0.13052 0.03593,-0.26252 0.08203,-0.29102 0.15336,-0.0948 0.691616,0.24804 0.791016,0.50391 0.23906,0.61551 0.590792,1.33163 0.820312,1.66797 0.26715,0.39148 0.827652,0.73243 1.201172,0.73242 0.29782,0 0.732422,-0.34444 0.732422,-0.58008 0,-0.23998 0.161381,-0.23555 0.238281,0.008 0.19454,0.61294 1.143039,1.51283 1.605469,1.52343 0.26843,0.006 0.732422,-0.51241 0.732422,-0.81836 0,-0.0685 0.0052,-0.11506 0.01953,-0.13086 l 0.002,-0.002 h 0.0039 0.002 0.002 l 0.002,-0.002 h 0.002 0.002 0.002 0.002 c 0.001,-3e-5 0.0029,-5e-5 0.0039,0 0.0479,0.0112 0.152566,0.1565 0.373046,0.48633 0.22592,0.33799 0.633427,0.7796 0.904297,0.98242 l 0.492188,0.37109 -0.267578,0.26758 c -0.14756,0.14755 -0.323725,0.40104 -0.390625,0.5625 -0.13689,0.33047 -0.14709,0.33232 -0.5625,0.1875 -0.25336,-0.0883 -0.351413,-0.0742 -0.632813,0.0918 l -0.169922,0.10156 a 6.1820614,4.1528349 0 0 0 -0.164062,-0.01 v -0.14648 c 0,-0.54291 -0.308479,-1.36534 -0.605469,-1.61523 -0.56482,-0.47527 -1.208901,-0.14097 -1.775391,0.92187 -0.23227,0.43578 -0.357548,0.56829 -0.580078,0.61719 -0.15587,0.0342 -0.36359,0.16481 -0.46289,0.29101 l -0.181641,0.23243 -0.05664,-0.28321 c -0.0685,-0.34246 -0.376159,-0.66992 -0.630859,-0.66992 -0.4776,0 -1.264816,1.13804 -1.535156,2.21875 -0.0876,0.35012 -0.176458,0.48496 -0.398438,0.5957 -0.26397,0.13167 -0.305824,0.1275 -0.527344,-0.0469 -0.407949,-0.32089 -0.865614,-0.20927 -1.115234,0.27344 -0.40412,0.78147 -0.527969,2.74127 -0.224609,3.5332 0.11064,0.2888 0.104005,0.33624 -0.05273,0.43164 -0.48765,0.2968 -0.487086,0.29716 -0.347656,0.64258 0.21597,0.53508 0.690541,1.04223 1.957031,2.09179 1.60227,1.32784 3.184881,2.42692 3.775391,2.62305 0.61362,0.20382 1.063525,0.15258 2.140625,-0.24219 0.47246,-0.17316 1.009619,-0.34762 1.193359,-0.38672 0.18373,-0.0391 0.677687,-0.16352 1.097657,-0.27929 1.37419,-0.37884 1.90072,-0.46885 3.80664,-0.65235 0.86264,-0.0831 0.84122,-0.0946 1.25,0.69336 0.33953,0.65451 1.634204,2.0167 2.246094,2.36524 0.62036,0.35329 1.337449,0.50137 1.755859,0.36328 0.32473,-0.10715 0.510545,-0.37825 0.390625,-0.57227 -0.0206,-0.0332 -0.0327,-0.0617 -0.0332,-0.0762 v -0.002 -0.002 h 0.002 v -0.002 h 0.002 v -0.002 h 0.002 l 0.0039,-0.004 h 0.002 0.002 c 0.0421,-0.003 0.18228,0.069 0.47461,0.23242 0.66272,0.37041 1.37957,0.54879 2.21875,0.55079 0.52989,7.9e-4 0.858845,-0.0478 1.072265,-0.15821 0.34286,-0.17732 0.47558,-0.51484 0.318359,-0.80859 -0.17337,-0.32395 -0.126964,-0.33512 0.421876,-0.10938 0.10498,0.0432 0.512529,0.12796 0.90625,0.18946 0.68477,0.10703 0.739501,0.10283 1.232421,-0.12696 0.28339,-0.13213 0.546385,-0.29281 0.583985,-0.35351 0.0754,-0.12199 0.66528,0.0138 1.61914,0.36914 0.28873,0.10757 0.998712,0.32988 1.576172,0.49414 0.95506,0.27168 3.032695,0.89341 3.865235,1.15625 0.78425,0.24761 1.609184,0.61472 2.052734,0.91211 0.29603,0.19846 0.592556,0.31836 0.785156,0.31836 0.44042,0 0.485454,-0.29061 0.183594,-1.16211 -0.13275,-0.38334 -0.232756,-0.70279 -0.222656,-0.71289 0.0101,-0.0101 0.575442,0.1284 1.257812,0.30859 0.68236,0.1802 1.907023,0.48214 2.720703,0.67188 1.45467,0.3392 1.620515,0.37771 2.671875,0.60742 0.57523,0.12569 1.04986,0.23705 1.59961,0.37695 0.19685,0.0501 0.528301,0.13184 0.738281,0.18164 0.20999,0.0498 1.220471,0.30757 2.244141,0.57227 1.02366,0.26469 2.398497,0.61342 3.054687,0.77539 0.6562,0.16195 1.34729,0.33582 1.53711,0.38672 0.448639,0.12029 0.7608,0.11929 1.28125,-0.0117 0.46876,-0.11804 0.561378,-0.35113 0.267578,-0.67578 -0.0527,-0.0581 -0.08362,-0.1 -0.08008,-0.12696 v -0.002 c 0.001,-0.002 0.0029,-0.008 0.0039,-0.01 0.002,-0.002 0.0078,-0.006 0.0098,-0.008 0.04475,-0.0295 0.184103,-0.0384 0.470703,-0.0488 0.309971,-0.011 0.767926,-0.01 1.015626,0.004 0.247709,0.0127 0.721031,-0.0265 1.050781,-0.0859 0.32974,-0.0595 0.813702,-0.14455 1.076172,-0.18945 0.26248,-0.0449 0.690645,-0.12147 0.953125,-0.17187 1.89063,-0.36284 2.612521,-0.48923 3.294922,-0.57813 0.60728,-0.0791 3.410538,-0.94503 3.941398,-1.2168 0.19014,-0.0974 0.26134,-0.19619 0.24024,-0.34179 -0.0387,-0.26684 -0.72081,-0.4768 -1.318357,-0.4043 l -0.429688,0.0527 0.429688,-0.21874 c 0.23622,-0.12078 0.736227,-0.35773 1.113277,-0.5254 l 0.68555,-0.30468 0.70703,0.68945 c 1.58329,1.54585 1.55484,1.53545 3.39844,1.39648 l 1.29296,-0.0996 0.6836,0.47461 c 0.79986,0.55605 1.20835,0.70701 2.38867,0.87696 l 0.87109,0.125 0.58204,0.96289 c 0.74893,1.23651 0.88323,1.74759 0.92773,3.51172 0.0308,1.22143 0.0664,1.46295 0.25586,1.85937 0.18421,0.38564 0.2647,0.46163 0.51953,0.48633 0.35732,0.0347 0.73173,-0.31108 0.9043,-0.83398 l 0.10742,-0.32813 0.17578,0.43945 c 0.27886,0.70993 0.65625,2.2373 0.65625,2.64649 0,0.20776 -0.0492,0.48662 -0.11133,0.62305 l -0.11328,0.25 -1.20117,-1.18555 c -1.59793,-1.57909 -2.39376,-2.23555 -2.81445,-2.31445 -0.56614,-0.10622 -1.04101,0.0425 -2.72657,0.84765 -1.32348,0.63211 -3.65882,2.23174 -4.80859,3.29492 -0.7341,0.67883 -0.95551,2.14286 -0.48047,3.16602 0.25489,0.549 0.82258,1.28241 1.35547,1.75195 1.32422,1.16682 3.32592,2.04163 3.51953,1.53711 0.031,-0.0808 -0.0841,-0.47998 -0.25586,-0.88476 -0.2291,-0.53991 -0.32657,-0.92753 -0.35937,-1.45704 -0.0444,-0.71667 -0.041,-0.72377 0.26172,-0.97851 0.54112,-0.45532 1.02353,-0.31801 1.89648,0.53711 0.33204,0.32525 0.66478,0.70458 0.73828,0.84375 0.12622,0.23909 0.11158,0.2788 -0.24805,0.73047 -0.20935,0.26294 -0.43947,0.62324 -0.51367,0.80078 -0.12908,0.30894 -0.11828,0.37195 0.32227,1.46289 l 0.46289,1.14062 -0.53906,0.23047 c -0.42252,0.17998 -0.75532,0.23768 -1.54102,0.26758 -1.26308,0.0481 -1.34793,0.0666 -1.65625,0.375 -0.20491,0.20494 -0.25391,0.34355 -0.25391,0.71875 v 0.46484 h -0.42578 c -0.77572,0 -0.92476,0.1399 -1.18945,1.11719 -0.1579,0.58295 -0.31171,0.69531 -0.94727,0.69531 -0.29923,0 -0.82192,0.0775 -1.16211,0.17188 -0.56332,0.1562 -0.69583,0.24714 -1.49023,1.02539 -1.17118,1.1474 -1.405152,1.60708 -1.410152,2.76563 -0.003,0.69665 0.03267,0.92442 0.189453,1.19335 l 0.193359,0.33204 1.09375,0.0762 c 1.53705,0.1078 4.34421,0.0259 4.5332,-0.13086 0.12187,-0.10115 0.25074,-0.0875 0.73828,0.0742 1.28538,0.4262 1.32343,0.43109 2.89258,0.37109 5.70731,-0.21793 10.81821,-0.57998 12.82812,-0.91016 0.28873,-0.0474 0.81614,-0.13014 1.16993,-0.18164 0.78375,-0.11413 1.2077,-0.34596 1.43554,-0.7832 0.14169,-0.27142 0.16888,-0.5079 0.14258,-1.32031 l -0.0332,-0.99024 0.5957,0.0566 c 1.37784,0.12867 2.70417,-0.75525 2.70117,-1.79882 -7.9e-4,-0.54192 -0.10022,-0.65913 -0.48828,-0.57813 -0.17643,0.0368 -0.51691,0.0882 -0.75781,0.11524 -0.402,0.045 -0.4583,0.025 -0.69141,-0.25196 -0.26695,-0.31726 -0.32944,-0.65297 -0.15039,-0.83203 0.0586,-0.0585 0.15795,-0.20754 0.21875,-0.33008 0.0609,-0.1226 0.21766,-0.23766 0.34766,-0.25586 0.35216,-0.0492 0.46027,-0.17838 0.62305,-0.73828 0.13809,-0.47483 0.13594,-0.53484 -0.0313,-0.91797 l -0.17773,-0.4082 0.34766,-0.81445 c 0.75091,-1.74252 0.99189,-2.28524 1.08789,-2.30274 h 0.002 c 0.001,0 0.005,-6e-5 0.006,0 l 0.002,0.002 h 0.002 l 0.002,0.002 h 0.002 c 0.001,7.8e-4 0.005,0.004 0.006,0.004 0.0253,0.0269 0.0391,0.11032 0.0547,0.2207 0.0405,0.28503 0.49444,0.34454 0.76953,0.10156 0.22146,-0.19559 0.82907,-1.43875 1.07617,-2.20117 0.16819,-0.51898 0.22149,-0.57149 0.39649,-0.39649 0.057,0.057 0.19919,0.0878 0.31836,0.0703 0.40301,-0.0594 0.50654,-0.58924 0.50586,-2.58594 v -1.78906 l 0.24609,0.16211 c 0.29172,0.19171 1.44631,0.88016 2.25391,1.3457 0.31497,0.18158 0.72055,0.41601 0.90429,0.52344 0.47916,0.28019 1.02674,0.54687 1.12696,0.54687 0.0473,0 0.57621,0.23258 1.17578,0.51758 1.69698,0.80663 2.48872,0.93464 2.54883,0.41211 0.0197,-0.17152 -0.0216,-0.28487 -0.11915,-0.32227 -0.0823,-0.0316 -0.15039,-0.0892 -0.15039,-0.1289 v -0.002 -0.002 h 0.004 l 0.002,-0.002 c 0.0368,-0.0216 0.21687,0.009 0.43164,0.0801 0.4497,0.14804 0.52642,0.14194 2.61524,-0.15821 0.80708,-0.11598 0.52334,-0.46028 -0.83203,-1.01171 l -0.54102,-0.21876 0.51953,-0.0996 c 2.09144,-0.39683 2.82564,-0.55088 3.6211,-0.75586 1.36002,-0.35047 1.44571,-0.37387 1.91015,-0.53125 0.6278,-0.21274 2.27056,-0.6981 2.76758,-0.81836 0.23623,-0.0571 0.79598,-0.18908 1.24219,-0.29102 0.70811,-0.16177 1.28048,-0.3287 2.67187,-0.78515 0.49633,-0.16284 1.14453,-0.72919 1.14453,-0.99805 0,-0.29457 -0.25767,-0.41992 -0.85937,-0.41992 -0.23789,0 -0.42819,-0.0345 -0.45899,-0.0762 v -0.002 l -0.002,-0.002 v -0.002 -0.002 c -1.2e-4,-0.001 -1.4e-4,-0.008 0,-0.01 0.0175,-0.0503 0.4828,-0.5545 1.03516,-1.1211 0.96428,-0.98916 1.85814,-1.95883 3.65234,-3.96484 0.48914,-0.54691 0.73034,-0.79024 0.80274,-0.74024 l 0.002,0.002 0.002,0.002 c 0.0455,0.0557 -0.003,0.28576 -0.11133,0.68359 -0.24199,0.89126 -0.3087,1.04983 -1.08203,2.6543 -0.91467,1.89769 -0.92874,1.94155 -0.73828,2.09961 0.12083,0.10027 0.21253,0.0937 0.50391,-0.0293 0.19565,-0.0826 0.6304,-0.17558 0.9668,-0.20898 0.89483,-0.0887 1.74537,-0.46601 2.38085,-1.05273 0.74369,-0.68664 0.84701,-0.70348 1.30665,-0.22852 0.40309,0.41652 0.97307,0.75391 1.26757,0.75391 0.0989,0 0.45284,0.18368 0.78907,0.40625 0.33625,0.22258 0.86882,0.53339 1.18164,0.6914 0.95998,0.48495 1.6044,1.59033 1.75586,3.00781 0.0813,0.76051 0.1858,0.88912 0.6582,0.82032 0.30059,-0.0438 0.30859,-0.0331 0.30859,0.29687 0,0.76472 0.65105,1.29349 1.35547,1.10547 l 0.37305,-0.0996 0.29101,0.57617 0.28907,0.57227 -0.28711,0.28906 -0.28711,0.28516 -1.00586,-0.10156 c -0.62334,-0.063 -1.26981,-0.0685 -1.70117,-0.0176 -0.38276,0.0452 -1.09546,0.1308 -1.58399,0.1875 -1.16534,0.13538 -1.546,0.29801 -2.10547,0.91015 -0.50874,0.55664 -1.24209,1.89226 -1.49023,2.7168 -0.73325,2.43663 -0.48604,5.07614 0.54687,5.85547 1.25679,0.94824 2.76445,1.44477 4.72461,1.55664 1.03811,0.0593 1.11476,-0.007 0.83789,-0.7207 -0.0938,-0.24179 -0.20358,-0.61034 -0.24218,-0.82032 -0.0386,-0.20998 -0.16147,-0.72314 -0.27344,-1.13867 -0.16372,-0.60743 -0.18172,-0.82678 -0.10352,-1.11719 0.13348,-0.49572 0.53587,-0.77092 1.06836,-0.73242 l 0.40625,0.0293 -0.0273,0.57031 c -0.0148,0.31497 -0.0752,0.84692 -0.13672,1.17969 -0.10373,0.5617 -0.0991,0.63334 0.0996,1.00781 0.34428,0.64895 1.13342,1.56002 1.57422,1.81836 0.3724,0.21824 0.41644,0.28639 0.52148,0.79492 0.0633,0.30635 0.11524,0.73601 0.11524,0.95508 0,0.38193 -0.0182,0.40938 -0.47461,0.64063 -0.51159,0.25924 -1.19394,1.00682 -2.01367,2.21093 -0.65721,0.96537 -0.79252,1.35102 -0.72852,2.05664 0.0629,0.69465 0.25094,0.92616 0.81641,1.00196 0.20423,0.0274 0.37628,0.0845 0.39648,0.1289 v 0.002 0.002 0.002 l 0.002,0.004 v 0.002 l 0.002,0.002 c 0.0385,0.0408 0.30228,0.0742 0.61718,0.0742 0.31489,0 0.57664,-0.035 0.61524,-0.0762 l 0.004,-0.002 v -0.002 -0.004 -0.002 c 0,-0.1642 0.54035,-0.28494 1.7168,-0.38867 0.65619,-0.0579 1.51644,-0.14647 1.91016,-0.19727 0.92512,-0.11884 2.77824,-0.11592 2.9082,0.002 v 0.002 h 0.002 v 0.002 c 0.11702,0.18935 0.69345,0.0987 0.99415,-0.1543 0.15875,-0.13353 0.23768,-0.18583 0.27148,-0.17383 h 0.002 l 0.002,0.002 0.002,0.002 c 0.0107,0.017 0.0156,0.0545 0.0156,0.10352 0,0.34175 0.17863,0.40325 1.02149,0.34375 0.56008,-0.0396 0.86768,-0.0217 1.02539,0.0625 0.33231,0.17787 2.87992,0.0542 5.73437,-0.2793 0.47246,-0.0552 1.20114,-0.13825 1.6211,-0.18555 0.8641,-0.0974 1.17854,-0.17613 1.38476,-0.34179 0.0787,-0.0633 0.34313,-0.20869 0.58789,-0.32422 0.24476,-0.11554 0.63428,-0.3746 0.86328,-0.57618 l 0.41602,-0.36718 -0.0195,-5.33008 c -0.0208,-5.77872 -0.17214,-11.997 -0.31641,-13.06445 -0.15329,-1.13422 -0.29937,-1.66545 -0.5332,-1.94336 l -0.22461,-0.26563 0.49609,-0.33594 c 0.43599,-0.29341 0.4961,-0.37038 0.4961,-0.6582 0,-0.31625 -0.0188,-0.33547 -0.57227,-0.50976 -1.16205,-0.36598 -1.35111,-0.44644 -1.65429,-0.70313 -0.22169,-0.18769 -0.37836,-0.46606 -0.55274,-0.97852 -0.28326,-0.83239 -1.94577,-7.37539 -1.88867,-7.43359 v -0.004 l 0.002,-0.002 h 0.002 0.002 c 9.8e-4,-2.2e-4 0.003,-0.002 0.004,-0.002 0.0358,1.3e-4 0.12128,0.0509 0.20312,0.125 0.22165,0.20075 0.62359,0.20429 0.78711,0.008 0.33531,-0.40404 -0.10382,-1.82046 -1.46875,-4.73828 -0.20072,-0.42905 -0.28361,-0.67458 -0.25781,-0.73438 l 0.002,-0.002 v -0.004 h 0.004 v -0.002 h 0.002 0.002 v -0.002 h 0.002 0.002 c 0.0261,2e-4 0.0731,0.031 0.13476,0.0879 0.0499,0.046 0.31867,0.1588 0.59961,0.25 0.40196,0.1305 0.5611,0.14299 0.7461,0.0586 0.4143,-0.18877 0.15348,-0.63583 -1.1875,-2.03711 -0.41856,-0.43739 -0.74305,-0.83545 -0.74805,-0.91015 v -0.002 -0.004 -0.002 c 0.0278,-0.0449 0.19919,-0.30425 0.38086,-0.57421 0.56055,-0.83298 0.69805,-1.34168 0.75195,-2.81055 0.0253,-0.68928 0.0142,-1.27772 -0.0234,-1.35352 l -0.002,-0.002 v -0.002 h -0.002 v -0.006 h -0.002 v -0.002 c -0.0546,-0.0187 -0.32163,0.0673 -0.60157,0.19532 -0.28891,0.13214 -0.55128,0.23828 -0.58398,0.23828 -0.0327,0 -0.69015,0.30518 -1.45899,0.67578 -1.50006,0.72306 -1.45919,0.71603 -2.02734,0.27734 l -0.23828,-0.18554 0.57422,-0.55078 c 1.03334,-0.99577 1.66992,-1.92718 1.66992,-2.44336 0,-0.1269 0.0672,-0.28602 0.14844,-0.35352 0.60487,-0.50201 -0.95005,-1.22262 -2.40039,-1.11328 -0.69847,0.0526 -0.78376,0.0306 -0.94531,-0.23047 -0.41753,-0.67492 -1.11691,-1.59608 -1.24805,-1.64648 -0.13188,-0.0507 -0.15038,-0.15893 -0.11328,-0.60547 0.0232,-0.28003 0.0859,-0.52797 0.13867,-0.57227 l 0.002,-0.002 h 0.002 c 0.0566,-0.0188 0.0837,-0.19025 0.0605,-0.38867 -0.0226,-0.19426 -0.006,-0.84747 0.0371,-1.45117 l 0.0801,-1.09766 0.1543,0.35156 c 0.16061,0.3629 0.51671,0.63264 0.64843,0.49219 0.0988,-0.10534 0.17405,-0.70551 0.24805,-1.95508 0.0685,-1.15665 4.5e-4,-1.56425 -0.68945,-4.04101 -0.38172,-1.37072 -0.50168,-1.78635 -0.48438,-1.84376 v -0.002 h 0.002 v -0.002 h 0.002 0.002 0.004 0.002 c 0.0225,0.012 0.0679,0.0736 0.125,0.13867 0.24741,0.28218 0.55641,0.43218 0.74609,0.35938 0.13943,-0.0535 0.15302,-0.16109 0.10352,-0.78711 -0.0825,-1.04319 -0.21404,-2.15523 -0.51953,-4.39649 -0.0429,-0.31686 -0.0601,-0.46966 -0.0449,-0.50586 v -0.004 h 0.002 v -0.002 h 0.002 0.002 0.002 0.002 c 0.019,0.008 0.0525,0.0557 0.0996,0.12696 0.34059,0.51635 0.60645,0.76367 0.82422,0.76367 0.61315,0 0.55479,-1.02976 -0.13867,-2.42383 -0.81734,-1.64312 -2.94631,-5.10701 -4.08203,-6.63867 -0.32862,-0.4432 -0.58732,-0.81698 -0.57422,-0.83008 0.0131,-0.0131 0.29065,0.10866 0.61523,0.26953 0.79782,0.39543 0.91193,0.3381 0.85743,-0.42383 -0.0523,-0.73195 -0.69267,-2.33835 -1.28516,-3.2207 -0.22295,-0.33203 -0.40625,-0.66032 -0.40625,-0.73242 0,-0.0721 0.2428,-0.42263 0.53906,-0.77539 0.29627,-0.35276 0.66319,-0.79088 0.81641,-0.97461 0.44019,-0.52782 1.80519,-1.90142 2.22461,-2.24024 1.03415,-0.8354 1.95252,-1.09065 3.97656,-1.09765 0.60823,-0.002 1.02308,-0.0412 1.08398,-0.10157 h 0.002 v -0.002 -0.002 c 0.0947,-0.1532 -0.51584,-0.75201 -0.98242,-0.96289 -0.20916,-0.0945 -0.38535,-0.19618 -0.40625,-0.23438 v -0.002 -0.002 -0.002 -0.002 -0.002 c 0,-0.0316 0.81259,-0.0316 1.80664,-0.004 1.56543,0.0443 1.81673,0.0307 1.86523,-0.0957 0.0306,-0.0803 0.0306,-0.22396 0,-0.31836 -0.0652,-0.20529 -1.34197,-1.042973 -1.58984,-1.042973 -0.0785,0 -0.14489,-0.02323 -0.16602,-0.05273 -6e-4,-9.97e-4 -0.003,-0.0049 -0.004,-0.0059 -2.5e-4,-9.58e-4 1.7e-4,-0.0049 0,-0.0059 -8e-5,-9.95e-4 -0.002,-0.0049 -0.002,-0.0059 2e-5,-0.001 7e-5,-0.0049 0,-0.0059 0.0411,-0.11009 0.90652,-0.656012 1.81055,-1.138672 0.39373,-0.210196 1.01002,-0.544387 1.36914,-0.742187 l 0.6543,-0.359375 0.34961,0.167968 c 1.15066,0.554781 2.17462,0.682395 2.625,0.328126 0.13832,-0.1088 0.2539,-0.259085 0.2539,-0.333985 0,-0.06086 0.013,-0.113559 0.0332,-0.130859 l 0.01,-0.0039 h 0.002 0.002 v -0.002 h 0.002 c 0.0274,0 0.55226,0.290908 1.16797,0.648438 0.61569,0.357526 1.19997,0.68235 1.29687,0.71875 0.0968,0.0365 0.19947,0.150476 0.22657,0.253906 0.0339,0.12959 0.15513,0.204934 0.39453,0.240234 0.19107,0.0282 0.60689,0.09017 0.92187,0.138672 1.61539,0.24883 3.80456,0.480469 4.52539,0.480469 0.32781,0 0.23631,-0.330714 -0.30468,-1.121094 -0.2756,-0.402646 -0.53508,-0.792534 -0.58008,-0.865234 -0.001,-0.0015 -0.003,-0.0025 -0.004,-0.0039 l -0.002,-0.002 v -0.002 -0.002 -0.002 -0.002 -0.002 h 0.002 v -0.002 h 0.002 0.002 c 0.0476,0.01 0.25576,0.149845 0.52344,0.359375 1.37751,1.078346 2.82606,1.867041 3.9746,2.164061 0.4806,0.12421 1.12459,0.15421 3.24414,0.15821 1.45497,0.003 2.77416,-0.0237 2.93165,-0.0605 0.81927,-0.1912 1.9675,-0.689628 2.10742,-0.916018 0.0917,-0.14837 -0.19841,-0.351888 -0.61328,-0.429687 -0.19221,-0.0361 -0.72715,-0.351498 -1.26172,-0.742188 -0.51048,-0.373066 -1.00807,-0.732981 -1.10547,-0.800781 -0.0615,-0.0427 -0.10083,-0.07154 -0.11133,-0.08594 v -0.002 -0.002 -0.002 -0.0039 -0.002 h 0.002 v -0.002 h 0.004 c 0.0177,-0.0031 0.0728,0.007 0.16797,0.03125 0.13125,0.0328 0.67688,0.09682 1.21289,0.140625 0.536,0.04367 1.0144,0.105066 1.0625,0.134766 v 0.002 c 0.0662,0.02358 0.43936,-0.03321 0.83984,-0.130859 1.81484,-0.44231 2.4186,-0.578125 2.58594,-0.578125 0.21844,0 0.4082,-0.17715 0.4082,-0.38086 0,-0.21877 -0.43597,-0.443477 -1.19726,-0.617187 -0.72648,-0.16578 -2.04107,-0.606895 -2.18555,-0.734375 l -0.006,-0.0039 v -0.002 l -0.002,-0.002 v -0.0039 -0.002 -0.002 -0.002 l 0.002,-0.002 v -0.002 -0.002 c 0.0419,-0.0358 0.33669,-0.06581 0.71875,-0.06641 1.38731,-0.003 3.20883,-0.444027 3.71094,-0.898437 0.083,-0.0751 0.27202,-0.181982 0.41992,-0.238282 0.20039,-0.0762 0.26098,-0.15622 0.23828,-0.3125 -0.0244,-0.16826 -0.19304,-0.267706 -0.84375,-0.503906 -1.04376,-0.37885 -1.55261,-0.607219 -3.24218,-1.449219 l -1.38477,-0.691406 0.97656,-0.0039 c 0.53732,-0.003 1.16092,-0.04425 1.38477,-0.09375 0.22386,-0.0495 0.64292,-0.141825 0.93164,-0.203125 0.28873,-0.0612 0.70083,-0.212908 0.91601,-0.335938 0.44352,-0.25358 1.42188,-1.312432 1.42188,-1.539062 0,-0.19253 -0.73899,-0.431411 -2.48242,-0.800781 -0.73493,-0.15572 -1.69096,-0.389425 -2.125,-0.521485 -1.75005,-0.53251 -2.4257,-0.710937 -2.69727,-0.710937 -0.39037,0 -0.34883,-0.105658 0.12695,-0.335938 2.51208,-1.21583 2.97255,-1.542283 2.42969,-1.714843 -0.29183,-0.0928 -2.74227,-0.324079 -3.5,-0.330079 -0.2842,-0.002 -0.50668,-0.02218 -0.55078,-0.04687 h -0.002 -0.002 v -0.002 h -0.002 v -0.0039 -0.002 h -0.004 v -0.002 -0.002 -0.002 -0.002 l 0.004,-0.002 c 0.0308,-0.0308 0.41101,-0.180238 0.84375,-0.330078 0.75615,-0.261834 1.24742,-0.584612 1.10547,-0.726562 -0.11287,-0.11287 -1.30688,-0.263525 -2.11719,-0.265625 -0.41997,-0.001 -1.38529,0.05825 -2.14648,0.128906 -1.55811,0.1447 -5.50773,0.07979 -6.15235,-0.09961 -0.96777,-0.2693 -4.31742,-1.978346 -6.20703,-3.166016 -2.42687,-1.52538 -5.42773,-3.936512 -8.21093,-6.603516 l -0.85743,-0.822265 0.38086,0.03906 c 0.57026,0.05747 0.81055,-0.06609 0.81055,-0.408203 0,-0.411945 -0.41959,-0.838335 -1.36914,-1.390625 -0.44873,-0.260994 -0.81831,-0.495968 -0.82031,-0.523437 v -0.002 -0.002 h 0.002 v -0.002 -0.002 l 0.002,-0.002 c 0.0385,-0.03326 0.26552,-0.106452 0.53907,-0.169922 0.93818,-0.217674 1.28047,-0.485677 0.95507,-0.751953 -0.0657,-0.05369 -0.39901,-0.22026 -0.74023,-0.367188 -0.61932,-0.266618 -0.62378,-0.265118 -2.76758,-0.261718 -1.18114,0.0018 -2.59024,0.05765 -3.13086,0.125 -0.60471,0.07538 -1.00515,0.08917 -1.06445,0.05273 l -0.004,-0.002 -0.004,-0.002 v -0.002 -0.002 -0.002 -0.002 -0.002 l 0.004,-0.002 v -0.002 c 0.018,-0.02127 0.0981,-0.05202 0.25,-0.08984 0.40992,-0.102054 1.61796,-0.682699 1.75,-0.841797 0.0634,-0.07651 0.085,-0.226469 0.0508,-0.333984 -0.0525,-0.165396 -0.14132,-0.197266 -0.58007,-0.197266 z" /></svg>
