<?xml version="1.0" encoding="UTF-8" standalone="no"?>
<svg
   xml:space="preserve"
   width="256"
   height="256"
   version="1.1"
   id="svg2"
   xmlns="http://www.w3.org/2000/svg"
   xmlns:svg="http://www.w3.org/2000/svg"><defs
     id="defs2" /><path
     id="path1"
     style="fill:#ffffff;fill-rule:evenodd;stroke-width:1.09564"
     d="M 128.58594,1.7539062 A 126.2465,126.2465 0 0 0 2.3398438,128 126.2465,126.2465 0 0 0 128.58594,254.24609 126.2465,126.2465 0 0 0 254.83203,128 126.2465,126.2465 0 0 0 128.58594,1.7539062 Z m -0.002,19.4824218 a 106.764,106.764 0 0 1 103.11524,79.097652 c -1.1517,0.10928 -2.6382,0.47148 -3.5293,0.875 l -1.86719,0.83204 0.47852,-1.53907 c 0.26904,-0.840662 0.36226,-1.915946 0.21094,-2.386716 -0.159,-0.523559 -0.18782,-1.078008 -0.084,-1.615234 h -0.008 c -0.17653,-0.06725 -1.68137,1.345694 -3.56445,3.363281 -2.51638,2.684519 -3.8077,3.833969 -3.875,3.447269 -0.11077,-0.38028 -0.32676,-0.72152 -0.62305,-0.98438 -0.28584,-0.23538 -0.43682,-0.67257 -0.33594,-0.96679 0.46236,-1.504791 -0.84067,-0.33694 -2.79101,2.49609 -0.11769,0.16813 -1.42143,1.11077 -2.89258,2.08594 -2.65649,1.75698 -2.68987,1.7655 -2.46289,0.68945 0.43713,-2.08484 0.40384,-3.9438 -0.0586,-4.10352 -0.27743,-0.10088 -0.81575,0.39669 -1.29493,1.19532 -1.51319,2.49676 -2.11019,3.22778 -3.28711,3.98437 l -1.16796,0.75586 0.48828,-1.0918 c 0.46237,-1.0088 0.42719,-1.07605 -0.42188,-1.16015 -0.65088,-0.0408 -1.30426,-0.0127 -1.94922,0.084 -1.44594,0.21857 -1.45404,0.21028 -0.91601,-1.52148 0.26905,-0.85748 0.38646,-1.68148 0.25195,-1.84961 -0.1261,-0.16814 -1.11086,-0.42172 -2.19531,-0.58985 -2.90028,-0.42033 -4.0434,-1.51233 -1.99219,-1.89062 1.63088,-0.30264 1.55538,-1.25326 -0.16797,-2.119141 -2.9255,-1.471158 -6.33855,-5.656903 -5.85937,-7.195313 0.48758,-1.572037 0.31918,-4.623351 -0.32813,-5.917968 -0.73978,-1.504784 -0.53808,-1.9678 0.66406,-1.539063 0.46237,0.168132 0.86708,0.08466 0.95118,-0.201172 0.23538,-0.739782 -4.08551,-6.422616 -6.13672,-8.070312 -0.95166,-0.777875 -1.61681,-1.477288 -1.53321,-1.619141 v -0.002 l 0.002,-0.002 h 0.008 c 0.16814,-0.09247 0.43011,-0.444985 0.58984,-0.78125 0.42873,-0.891101 -2.32127,-3.287331 -5.34765,-4.666016 -0.64121,-0.268217 -1.26201,-0.582854 -1.85742,-0.941406 v -0.0078 l 0.0684,0.0078 c 0.33627,0.08407 1.26056,-0.04196 2.05079,-0.277344 l 1.42773,-0.429687 -1.15039,-0.824219 c -2.14368,-1.538411 -5.92792,-2.470607 -8.74414,-2.167969 -3.90907,0.420331 -5.27092,0.453794 -8.45703,0.167969 -3.64847,-0.311043 -8.76757,-0.3017 -10.78516,0.04297 -1.01719,0.168133 -1.11812,0.132879 -0.9668,-0.337891 0.0841,-0.302638 0.31175,-0.487172 0.48829,-0.419922 0.18494,0.05885 0.4198,-0.14208 0.5039,-0.453125 0.13451,-0.420331 -0.0166,-0.571678 -0.63867,-0.580078 -0.44555,0 -1.24442,-0.07668 -1.76563,-0.152344 l -0.38671,-0.0332 c -0.36149,0 -0.62988,0.06785 -0.67188,0.185547 -0.042,0.151319 -0.54613,0.226819 -1.10937,0.167969 -2.43792,-0.277418 -11.03002,2.580699 -16.71289,5.55664 l -4.13672,2.167969 0.3125,-2.167969 c 0.16809,-1.185333 0.13348,-2.287539 -0.0684,-2.447265 -0.33627,-0.269011 -1.4784,0.110154 -1.5625,0.513672 -0.56773,0.642427 -1.18627,1.238102 -1.84961,1.78125 l -1.8086,1.597656 -0.26757,-1.066406 c -0.55484,-2.21094 -1.69936,-1.538257 -3.16211,1.849609 -0.65572,1.530003 -0.7218,2.049986 -0.40235,3.470703 l 0.36914,1.681641 L 118,76.097656 c -0.74818,0.487583 -5.1695,2.94286 -9.81836,5.464844 -4.65727,2.521984 -9.885427,5.657317 -11.617187,6.96875 l -3.53125,2.638672 -1.353515,0.966797 c -1.572041,1.126486 -2.505973,3.649818 -3.195313,8.660161 -0.45396,3.27857 -0.504399,5.11811 -0.193359,7.37109 0.23355,1.64316 0.536983,3.04033 0.689453,3.11133 0.15132,0.0504 0.564301,-0.0508 0.925781,-0.24414 0.84066,-0.44555 1.924548,-0.0587 2.992188,1.07617 0.462369,0.48758 1.563209,1.26208 2.4375,1.69922 l 1.605468,0.78906 0.337891,-1.07617 c 0.18497,-0.58847 0.218434,-1.22776 0.08398,-1.4043 -0.36149,-0.45396 0.0662,-1.72223 0.511719,-1.5625 0.20176,0.0673 0.640293,0.57076 0.976562,1.11719 0.462361,0.73978 1.117752,1.17724 2.546882,1.68164 1.72336,0.60529 1.94923,0.59788 2.14258,-0.041 0.1362,-0.622 0.15344,-1.26416 0.0508,-1.89257 -0.21017,-1.46275 0.31042,-1.57171 1.63867,-0.33594 0.50439,0.45396 1.65654,1.09206 2.56445,1.41992 1.63089,0.57165 1.66433,0.5645 1.99219,-0.48633 0.18536,-0.58846 0.26906,-1.44584 0.19336,-1.9082 -0.0742,-0.44686 -0.0644,-0.84799 0.008,-0.90039 0.10929,-0.0168 1.0515,0.42129 2.11914,1.00976 2.79099,1.51316 3.59819,1.52041 4.06055,0.0156 0.21017,-0.65572 0.25228,-1.34436 0.10937,-1.5293 -0.59687,-0.765 0.4459,-0.80772 2.45508,-0.10156 1.17693,0.42033 2.47087,0.68898 2.88281,0.61328 0.90791,-0.16813 1.33678,-1.34327 0.88282,-2.42773 -0.46236,-1.13495 0.26924,-1.59773 1.76562,-1.12696 0.69775,0.21857 1.1843,0.4792 1.0918,0.58008 -0.0925,0.10088 -0.79767,0.84004 -1.58789,1.63867 -1.13489,1.16852 -1.77306,2.29522 -3.16016,5.60742 l -1.74023,4.13672 -1.37891,0.21875 c -0.75659,0.11769 -1.85098,0.16759 -2.43945,0.11719 -1.24418,-0.11769 -1.69804,0.2013 -2.10156,1.4707 -0.41192,1.29462 1.73299,5.33072 3.54882,6.67579 1.25259,0.92472 1.3187,1.08351 0.98243,2.16796 -0.20466,0.61153 -0.29026,1.25664 -0.25196,1.90039 0.0673,0.40352 -0.0496,1.00825 -0.25976,1.36133 -0.30264,0.49599 -0.58818,0.52928 -1.30274,0.14258 -0.84067,-0.45396 -0.94227,-0.41096 -1.26172,0.62305 -0.19386,0.60764 -0.27076,1.24652 -0.22656,1.88281 0.18494,1.14334 -0.48007,1.85009 -1.09375,1.15234 -0.27742,-0.30264 -0.82423,-0.67409 -1.21094,-0.80859 -0.64731,-0.22698 -0.74712,-0.10074 -1.09179,1.46289 -0.21016,0.94154 -0.35255,2.01819 -0.31055,2.39648 0.0588,0.58848 -0.084,0.60503 -1.05078,0.0586 -1.10967,-0.61368 -1.11856,-0.60474 -1.51367,0.65625 -0.2522,0.79022 -0.23578,1.60549 0.0332,2.18555 0.24395,0.5044 0.35283,1.37035 0.25195,1.93359 -0.14292,0.7566 0.008,1.11007 0.58008,1.4043 0.42033,0.21016 1.56466,0.92513 2.55664,1.59765 2.44633,1.6477 3.40486,1.69713 4.64063,0.23438 1.22737,-1.43753 11.11203,-6.4733 11.01953,-5.60742 -0.0336,0.33626 0.31974,0.69863 0.9082,0.90039 0.75659,0.26901 1.10957,0.15113 1.71485,-0.60547 l 0.75781,-0.95117 0.75586,1.3125 0.75586,1.31054 0.49609,-0.81445 c 0.26902,-0.45396 0.47969,-1.06845 0.46289,-1.37109 -0.0168,-0.41194 0.48851,-0.42866 2.06055,-0.084 2.56402,0.58846 4.92587,0.2695 5.22851,-0.69726 0.1177,-0.37829 0.0586,-0.74911 -0.13476,-0.81641 -0.19335,-0.0673 -0.5051,-0.43556 -0.68164,-0.82227 -0.42033,-0.8911 -0.30143,-0.84104 2.77539,1.19336 2.67331,1.76539 3.80864,3.02685 5.16211,5.74219 0.99199,1.98396 1.39442,3.66393 1.09179,4.60547 -0.33627,1.11808 0.58904,1.65732 1.62305,0.95117 0.70616,-0.48759 0.99118,-1.03385 1.41992,-2.76562 0.29423,-1.18533 0.50489,-2.48108 0.46289,-2.85938 -0.11769,-1.13489 0.62095,-0.59743 1.36914,0.97461 0.62209,1.33665 0.70664,1.38773 1.32032,0.95898 0.35308,-0.2522 0.70613,-0.84037 0.77343,-1.30273 l 0.12696,-0.83984 0.94922,1.17578 c 0.52121,0.65571 1.63978,2.00156 2.48046,3.00195 0.84066,1.00039 1.92453,2.43753 2.41211,3.21094 l 0.90039,1.39453 0.32813,-1.52148 c 0.17654,-0.84066 0.428,-1.4879 0.5625,-1.4375 0.42033,0.15132 2.94251,4.9781 2.81641,5.39843 -0.21857,0.68934 -5.04506,1.1587 -8.71875,0.84766 -3.79979,-0.31945 -6.67312,-1.04241 -8.00977,-2.01758 -0.78184,-0.57165 -0.84093,-0.56187 -0.71484,0.20313 0.0757,0.45396 0.0506,0.87284 -0.0586,0.93164 -0.10929,0.0589 -0.21894,0.6392 -0.24414,1.29492 -0.0504,1.39549 -0.42008,1.51457 -2.46289,0.7832 -1.31143,-0.46236 -1.3114,-0.4631 -1.4375,0.75586 -0.15973,1.53 0.0658,3.13515 0.54492,3.95899 0.57165,0.97517 0.28703,1.37079 -1.83984,2.48046 -1.07605,0.56325 -2.03445,1.26182 -2.12695,1.56446 -0.2522,0.80703 0.64632,6.4382 1.00781,6.3457 0.17654,-0.0504 0.45492,-0.51335 0.62305,-1.04297 0.16813,-0.52962 0.56336,-1.15133 0.88281,-1.38672 1.29462,-0.92473 6.89296,0.36188 6.94336,1.59766 0.0505,0.82945 -1.20217,1.50197 -3.75782,2.01758 -1.19373,0.25219 -3.01735,0.92444 -4.04296,1.49609 -1.76539,0.98357 -1.9174,1.16006 -2.50586,3.06836 -0.42922,1.58343 -0.63568,3.21896 -0.61328,4.85938 0.0336,4.22012 0.54716,5.17943 1.64843,3.02734 0.94154,-1.82424 3.83234,-4.85107 4.9336,-5.16211 0.52962,-0.15133 1.8505,-0.12695 2.94336,0.0664 1.07605,0.18494 2.39556,0.38641 2.93359,0.44531 0.84066,0.10088 0.93206,0.21843 0.70508,0.94141 -0.14676,0.45392 -0.14676,0.94255 0,1.39648 0.21017,0.43712 0.12745,0.50483 -0.37696,0.35352 -0.57164,-0.18495 -0.60562,-0.14307 -0.24414,0.36132 0.35308,0.49599 0.29328,0.75556 -0.42968,1.86524 -1.23578,1.89149 -2.25305,4.09384 -1.9336,4.20312 0.64731,0.23539 4.16998,-1.06695 5.7168,-2.10937 2.21094,-1.48797 3.06808,-1.11727 2.74023,1.17773 -0.23539,1.65611 -0.10859,2.45328 0.29493,1.89844 0.14291,-0.19335 1.95883,0.33768 4.72461,1.36328 8.24689,3.08523 11.92091,3.46213 15.7207,1.62109 1.37027,-0.67253 1.62178,-0.67261 1.72265,-0.10937 0.13452,0.7566 2.46241,1.7157 5.3711,2.22852 2.09324,0.36148 6.90237,0.42882 7.67578,0.10937 0.42033,-0.16813 0.79002,-0.0248 1.41211,0.54687 0.47077,0.43714 0.81544,0.90788 0.77344,1.05079 -0.18495,0.58846 1.58173,4.00158 2.6914,5.19531 0.6073,0.64673 1.70784,1.47749 2.55078,1.93359 a 106.764,106.764 0 0 1 -72.34375,28.50586 106.764,106.764 0 0 1 -23.38671,-2.59179 l 0.12695,-0.0391 -29.298833,-87.13476 4.099609,-1.19727 2.070312,-3.64062 0.734376,0.21875 1.871093,0.17968 0.896485,-0.0469 1.201172,-0.20508 1.162109,-0.34766 0.824219,-0.35546 1.601562,-0.99219 1.310547,-1.22852 1.070313,-1.46875 0.761718,-1.63086 0.435547,-1.76367 0.08789,-1.86523 -0.236328,-1.64258 -0.345704,-1.16016 -0.367187,-0.84375 -0.978516,-1.56836 -1.236328,-1.32422 -1.457031,-1.05078 -1.664062,-0.76953 -1.736329,-0.43359 -1.884765,-0.0859 -1.640625,0.23828 -1.167969,0.34961 -0.826172,0.35547 -1.597656,0.99023 -1.328125,1.24024 -1.044922,1.44336 -0.556641,1.18945 -3.30664,-1.32617 -31.789063,17.33789 2.435547,5.875 c -1.53058,0.36921 -3.32927,1.03409 -4.875,2.23047 -1.75992,1.36216 -3.166325,3.51939 -3.265625,6.50976 -0.0992,2.99034 1.023765,6.74874 3.984375,11.61329 2.97327,4.88535 6.884188,8.9887 10.861328,12.66211 3.97713,3.6734 8.024946,6.92231 11.291016,10.05273 1.63304,1.56521 3.070411,3.09959 4.207031,4.62695 1.13663,1.52736 1.970164,3.04253 2.433594,4.57813 0.46342,1.53561 0.568256,3.09142 0.222656,4.77929 -0.34559,1.68787 -1.152386,3.51767 -2.566406,5.53516 l -0.443359,0.63477 A 1.04504,1.04504 0 0 0 65.164062,213.68555 106.764,106.764 0 0 1 21.820312,128 106.764,106.764 0 0 1 128.58398,21.236328 Z m 9.44922,75.777344 h 0.27735 c 0.0505,0 0.0848,0.01078 0.10156,0.0332 v 0.0078 c 0.005,0.05044 -0.1128,0.155574 -0.35352,0.3125 -0.66416,0.445517 -0.87338,0.435812 -0.73047,-0.0098 0.0504,-0.168132 0.36881,-0.33535 0.70508,-0.34375 z m -5.35351,1.908203 h 0.006 0.002 c 0.67009,-0.03017 1.36167,0.362807 1.21094,0.865234 -0.0766,0.236701 -0.17874,0.367941 -0.24414,0.339841 -0.0121,-0.006 -0.0242,-0.0187 -0.0332,-0.0371 -0.0588,-0.117687 -0.33721,-0.0578 -0.62304,0.15235 -0.3867,0.27742 -0.63852,0.22561 -1,-0.20313 -0.3783,-0.44555 -0.36239,-0.646408 0.0664,-0.923826 0.18282,-0.121879 0.38862,-0.186459 0.61524,-0.193359 z m -4.30469,3.119145 v 0.008 c 0.22978,0 0.49203,0.0473 0.78906,0.14258 0.7398,0.2606 0.74124,0.29546 -0.0742,1.14453 -0.98358,1.01715 -0.94958,1.02407 -1.38672,-0.0352 -0.31105,-0.7566 -6.5e-4,-1.23456 0.67188,-1.25976 z M 234.4316,114.04688 A 106.764,106.764 0 0 1 235.34961,128 a 106.764,106.764 0 0 1 -0.01,0.14453 c 0,-0.0485 0.008,-0.096 0.008,-0.14453 -2.6e-4,-4.67095 -0.30663,-9.33219 -0.91602,-13.95312 z M 70.019531,146.75 98.105469,230.26367 a 106.764,106.764 0 0 1 -32.001953,-15.93164 1.04504,1.04504 0 0 0 0.880859,-0.44141 l 0.445313,-0.63476 c 1.54078,-2.19835 2.48615,-4.29132 2.90039,-6.31445 0.41424,-2.02313 0.285962,-3.96854 -0.267578,-5.80274 -0.55354,-1.83421 -1.520776,-3.55773 -2.759766,-5.22265 -1.239,-1.66492 -2.752467,-3.2755 -4.435546,-4.88868 -3.366171,-3.22636 -7.412133,-6.47034 -11.320313,-10.08007 -3.90819,-3.60973 -7.674261,-7.57956 -10.494141,-12.21289 -2.83254,-4.65413 -3.76124,-8.05796 -3.68164,-10.45704 0.0796,-2.39905 1.081821,-3.85943 2.457031,-4.92382 1.32557,-1.02598 3.019822,-1.58666 4.419922,-1.89258 l 1.039062,2.50586 z" /></svg>
