<?xml version="1.0" encoding="UTF-8" standalone="no"?>
<svg
   xml:space="preserve"
   width="256"
   height="256"
   version="1.1"
   id="svg2"
   sodipodi:docname="logo-deinonychus-menu.svg"
   inkscape:version="1.4.2 (ebf0e940d0, 2025-05-08)"
   xmlns:inkscape="http://www.inkscape.org/namespaces/inkscape"
   xmlns:sodipodi="http://sodipodi.sourceforge.net/DTD/sodipodi-0.dtd"
   xmlns="http://www.w3.org/2000/svg"
   xmlns:svg="http://www.w3.org/2000/svg"><sodipodi:namedview
     id="namedview1"
     pagecolor="#000000"
     bordercolor="#000000"
     borderopacity="0.25"
     inkscape:showpageshadow="2"
     inkscape:pageopacity="0.0"
     inkscape:pagecheckerboard="0"
     inkscape:deskcolor="#d1d1d1"
     inkscape:zoom="2.5664062"
     inkscape:cx="128"
     inkscape:cy="128"
     inkscape:window-width="1536"
     inkscape:window-height="888"
     inkscape:window-x="0"
     inkscape:window-y="0"
     inkscape:window-maximized="1"
     inkscape:current-layer="svg2" /><defs
     id="defs2" /><path
     id="path2"
     style="fill:#ffffff;fill-rule:evenodd;stroke-width:1.73534"
     d="M 128.5831,1.7536779 A 126.2468,126.2468 0 0 0 2.3386432,128.00184 126.2468,126.2468 0 0 0 128.5831,254.24632 126.2468,126.2468 0 0 0 254.83127,128.00184 126.2468,126.2468 0 0 0 128.5831,1.7536779 Z m -1.10649,20.3536551 a 100.89564,100.89564 0 0 1 100.89492,100.894917 100.89564,100.89564 0 0 1 -70.93064,96.33939 54.022862,54.022862 0 0 1 2.12048,-2.2093 c 6.95942,-6.90222 13.92653,-16.88286 18.48112,-26.46714 1.79548,-3.77686 2.66234,-5.12557 2.68299,-4.18176 0.009,0.49405 0.0265,0.78682 0.0925,0.85486 0.001,0.001 0.009,0.006 0.0114,0.008 l 0.004,0.004 h 0.004 l 0.004,0.004 c 0.002,2.7e-4 0.009,-9e-5 0.0114,0 h 0.004 c 0.002,-2.8e-4 0.009,4.6e-4 0.0114,0 l 0.004,-0.004 c 0.11956,-0.0546 0.34238,-0.51207 0.74384,-1.42477 0.4719,-1.07329 1.29213,-4.08288 1.82442,-6.6871 0.74202,-3.63703 1.05729,-4.43703 1.36554,-3.45271 0.22085,0.70549 0.6848,1.18544 1.02879,1.06948 0.99546,-0.33605 1.36704,-3.25973 1.99465,-15.69451 0.32336,-6.41364 0.71418,-11.78801 0.86595,-11.94203 0.0214,-0.0216 0.0426,-0.0311 0.0629,-0.0333 0.009,-1.3e-4 0.0246,2.4e-4 0.0333,0.004 0.10477,0.053 0.1889,0.36773 0.19612,0.81784 0.0189,1.08681 1.18992,3.02344 1.83183,3.02344 h 0.004 l 0.008,-0.004 h 0.004 c 0.001,-10e-4 0.009,-0.006 0.0114,-0.008 0.18133,-0.21535 0.32936,-2.60858 0.32936,-5.49548 0,-4.49185 -0.30232,-6.53491 -1.6505,-11.1316 -2.00998,-6.85534 -2.10438,-7.98597 -0.51069,-6.14681 l 1.1398,1.31746 -0.30345,-3.06785 c -0.1994,-2.01078 -0.97279,-4.31383 -2.24631,-6.69082 -1.06774,-1.99409 -3.63134,-7.13734 -5.69532,-11.43135 -2.064,-4.29403 -4.79267,-9.66225 -6.06539,-11.927233 -2.26021,-4.023159 -2.5805,-5.370073 -0.95106,-4.000422 0.44488,0.373415 1.33767,0.595933 1.98355,0.495891 1.15037,-0.178674 1.14254,-0.224072 -0.34786,-2.153789 -0.83736,-1.084436 -2.74368,-2.966235 -4.23726,-4.181748 l -2.71628,-2.209305 2.40543,-0.177538 2.40543,-0.181326 -2.2019,-1.380337 c -2.84016,-1.781966 -9.01673,-4.673946 -9.98439,-4.673946 -0.94053,0 -1.00196,-1.108536 -0.0629,-1.13241 0.3845,-0.0095 0.20412,-0.401154 -0.41078,-0.88816 -0.88423,-0.701413 -2.06282,-0.815098 -5.98027,-0.573594 -4.20265,0.258992 -4.73873,0.194154 -3.8561,-0.458887 0.56405,-0.417885 0.85051,-0.937442 0.63282,-1.158312 -0.21768,-0.220055 -3.19112,-0.41239 -6.60569,-0.421864 -4.83505,-0.01516 -6.97243,0.239969 -9.65133,1.136105 l -3.44162,1.150903 v -1.613485 c 0,-1.998799 -0.35112,-2.014014 -2.31661,-0.107242 l -1.55429,1.506167 0.35526,-1.787422 c 0.22245,-1.123373 0.23137,-1.663146 -0.24053,-1.676409 -0.41709,-0.01137 -1.20868,0.389274 -2.57196,1.169414 -1.95753,1.12019 -2.22187,1.520056 -2.37212,3.611849 -0.19224,2.665407 0.17716,2.490314 -7.26442,3.478629 -11.17876,1.484832 -26.126969,5.800027 -33.050634,9.540301 -2.960929,1.600033 -3.829421,2.438152 -5.69161,5.510303 -1.778782,2.933107 -2.243012,4.272657 -2.43135,7.034957 -0.222442,3.25727 -0.08754,3.69626 2.945734,9.70313 3.732354,7.39159 5.621012,9.77739 8.093345,10.22865 0.981949,0.17886 4.882177,0.11406 8.666959,-0.14798 7.788026,-0.53864 8.448116,-0.2758 8.152576,3.24919 -0.19861,2.38177 0.73957,2.76754 2.18708,0.90296 0.60696,-0.78016 1.22222,-1.41736 1.36925,-1.41736 0.54817,0 1.63133,3.40072 1.98726,6.25042 0.38291,3.06818 0.65033,3.27237 3.20848,2.44615 1.10111,-0.35592 1.29797,-0.0926 2.10197,2.84211 0.48857,1.77958 0.98846,3.55745 1.1139,3.9523 0.17715,0.55768 0.51859,0.52279 1.55058,-0.16276 1.28542,-0.85244 1.34198,-0.82338 1.93545,0.90296 0.8874,2.5788 0.7842,3.22467 -0.4774,2.89021 -0.69434,-0.18435 -1.22345,0.0366 -1.43954,0.60691 -0.45919,1.21313 -1.12976,1.13671 -4.30758,-0.49589 -3.10631,-1.59685 -4.43557,-1.78174 -3.97081,-0.5551 0.45364,1.19804 -0.48554,1.06325 -5.99507,-0.86965 -2.67733,-0.93985 -7.484565,-2.33557 -10.683834,-3.09747 -3.19925,-0.76187 -9.196236,-2.3876 -13.329782,-3.61185 -6.570137,-1.9464 -8.095522,-2.20432 -12.11228,-2.06126 l -4.596225,0.16275 1.928046,1.25453 1.924345,1.25083 -2.749594,0.0443 c -5.226712,0.0851 -9.216285,2.11241 -6.30223,3.20478 1.334682,0.50052 -1.414315,1.22459 -17.370919,4.57402 A 479.85012,479.85012 0 0 0 29.856785,148.50723 100.89564,100.89564 0 0 1 26.581697,123.00225 100.89564,100.89564 0 0 1 127.47661,22.107333 Z" /></svg>
