<svg xmlns="http://www.w3.org/2000/svg" xml:space="preserve" width="256" height="256"><path d="M128.586 1.754A126.247 126.247 0 0 0 2.34 128a126.247 126.247 0 0 0 126.246 126.246A126.247 126.247 0 0 0 254.832 128 126.247 126.247 0 0 0 128.586 1.754m-.67 24.937A101.31 101.31 0 0 1 229.225 128a101.31 101.31 0 0 1-101.309 101.31A101.31 101.31 0 0 1 26.606 128a101.31 101.31 0 0 1 101.31-101.309m50.844 40.782-.002.017.013-.01v.004l-.002.002-.002.004h-.01l-.002.006c-.259 0-.474.04-.505.086l-.004.008v.002c0 .052-.111.094-.245.094-.323 0-1.681.48-4.013 1.418-1.88.756-2.611 1.001-3.475 1.164-.606.114-2.137.57-3.482 1.037-.63.218-2.221.758-3.533 1.197-1.934.647-3.627 1.272-5.008 1.846h-.002l-.012.002h-.006l-.002-.002h-.002v-.008c-.006-.043.087-.204.244-.408.426-.555.67-1.06.582-1.203-.213-.346-1.421.341-3.14 1.785-.63.529-1.896 1.576-2.815 2.33s-1.886 1.551-2.148 1.773c-4.955 4.185-5.413 4.589-7.682 6.758-.815.78-1.725 1.582-2.021 1.785a5.4 5.4 0 0 0-.87.758c-.325.38-.365.397-1.753.719-.781.18-1.516.353-1.633.38q-.121.032-.158.006l-.002-.002c-.03-.027-.021-.1.008-.242.063-.318-.089-.575-.336-.57-.195.004-.697.248-1.254.611-.536.35-3.405 1.687-4.87 2.27-.603.24-2.215.802-3.58 1.25-2.459.807-4.343 1.45-5.63 1.92a15 15 0 0 1-.7.246v-.008c.01-.033.135-.221.3-.447.6-.826.522-1.186-.188-.848-.382.182-1.58 1.052-2.117 1.537l-.362.328.043-.521c.043-.516.04-.522-.22-.522-.188 0-.35.103-.561.354-.163.194-1.478 1.559-2.922 3.031s-3.098 3.202-3.672 3.844c-.573.641-1.054 1.153-1.07 1.138h-.002v-.004c-.01-.03.02-.184.068-.353.104-.362.127-1.455.033-1.549-.114-.114-.574.208-.814.57-1.233 1.86-1.518 2.393-2.037 3.77-.402 1.064-.53 1.3-1.072 1.998l-.414.533-2.502.06c-1.376.035-3.254.065-4.172.065-.919 0-2.034.04-2.48.09-1.107.122-1.574.169-1.645.12l-.002-.003-.002-.002-.002-.004h-.002v-.012c.009-.04.126-.111.314-.213 1.31-.707 1.59-.946 1.469-1.26-.083-.216-1.147-.196-1.887.036-.322.1-.991.275-1.49.388-1.98.451-3.828 1.094-6.156 2.147a45 45 0 0 0-3.098 1.539c-.83.456-3.054 1.467-3.225 1.467h-.004v-.006c.014-.04.155-.209.34-.41.419-.455.688-.91.688-1.164 0-.28-.592-.097-1.598.494-1.171.687-1.748 1.116-2.408 1.793-.278.285-.54.52-.594.535h-.002c-.041 0-.076-.105-.076-.233 0-.334-.15-.381-.502-.16-1.388.873-2.308 1.261-3.412 1.447-.394.067-.798.164-.9.215-.103.052-.79.132-1.528.176-2.004.12-3.593.252-3.941.326-.153.033-.249.044-.281.024l-.002-.002h-.002v-.004h-.002l-.002-.002h-.002v-.004h-.002c-.008-.045.083-.152.273-.342.191-.191.282-.367.262-.508-.027-.19-.08-.215-.46-.201-.265.01-.723.15-1.195.367-.42.193-.897.406-1.062.475l-.3.127.05-.366c.103-.77-.43-.664-2.055.405l-.886.582-2.168.308c-2.396.341-2.394.34-4.22.678a24 24 0 0 0-2.624.607c-.719.202-2.186.535-3.342.76-.315.062-.722.15-.906.194s-.764.173-1.29.289c-2.536.557-5.882 1.429-7.204 1.875-2.636.889-3.8 1.941-5.141 4.66-.557 1.13-1.228 3.062-1.492 4.295-.09.42-.201.838-.248.93-.047.09-.086.396-.086.68 0 .67.331 1.275.953 1.732.386.283.49.427.611.843.157.54.438.862.825.953.139.033.369.24.542.487.382.54 1.135 1.098 1.487 1.101.333.003.736-.379.736-.7 0-.131.036-.263.082-.292.154-.095.692.248.791.504.24.616.591 1.332.82 1.668.268.391.828.732 1.202.732.298 0 .732-.344.732-.58 0-.24.161-.235.238.008.195.613 1.143 1.513 1.606 1.524.268.006.732-.513.732-.819 0-.068.005-.115.02-.13l.002-.002h.008l.002-.002h.012c.048.01.152.156.373.486.226.338.633.78.904.982l.492.371-.267.268a2.1 2.1 0 0 0-.391.562c-.137.33-.147.333-.563.188-.253-.088-.351-.074-.632.092l-.17.101a6.182 4.153 0 0 0-.164-.01v-.146c0-.543-.309-1.366-.606-1.615-.565-.476-1.209-.141-1.775.921-.232.436-.358.569-.58.618a.94.94 0 0 0-.463.29l-.182.233-.056-.283c-.069-.343-.377-.67-.631-.67-.478 0-1.265 1.138-1.535 2.219-.088.35-.177.485-.399.595-.264.132-.306.128-.527-.046-.408-.321-.866-.21-1.116.273-.404.781-.527 2.741-.224 3.533.11.289.104.336-.053.432-.487.297-.487.297-.347.642.215.535.69 1.043 1.957 2.092 1.602 1.328 3.184 2.427 3.775 2.623.614.204 1.063.153 2.14-.242.473-.173 1.01-.348 1.194-.387s.678-.163 1.098-.279c1.374-.379 1.9-.469 3.806-.652.863-.083.841-.095 1.25.693.34.655 1.634 2.017 2.246 2.365.62.354 1.338.502 1.756.364.325-.108.51-.379.39-.573a.2.2 0 0 1-.032-.076v-.004h.002v-.002h.002v-.002h.002l.003-.004h.004c.043-.003.183.07.475.233.663.37 1.38.548 2.219.55.53.001.859-.048 1.072-.158.343-.177.476-.515.318-.809-.173-.323-.126-.335.422-.109.105.043.513.128.907.19.684.107.74.102 1.232-.127.283-.133.546-.293.584-.354.075-.122.665.014 1.62.37.288.107.998.33 1.575.493.955.272 3.033.894 3.866 1.157.784.247 1.609.614 2.052.912.296.198.593.318.785.318.44 0 .486-.29.184-1.162-.133-.383-.233-.703-.223-.713s.576.129 1.258.309a147 147 0 0 0 5.393 1.279c.575.126 1.05.237 1.6.377a231 231 0 0 1 2.982.754c1.023.265 2.398.613 3.054.775.657.162 1.348.336 1.538.387.448.12.76.12 1.28-.012.47-.118.562-.35.268-.676-.052-.058-.083-.1-.08-.126v-.002l.004-.01.01-.008c.045-.03.184-.039.47-.05.31-.01.769-.01 1.016.005.248.012.721-.027 1.051-.086.33-.06.814-.145 1.076-.19s.691-.121.953-.172c1.891-.362 2.613-.489 3.295-.578.608-.079 3.41-.945 3.942-1.216.19-.098.261-.197.24-.342-.039-.267-.72-.477-1.318-.405l-.43.053.43-.219c.236-.12.736-.357 1.113-.525l.685-.305.708.69c1.583 1.546 1.554 1.535 3.398 1.396l1.293-.1.684.475c.8.556 1.208.707 2.388.877l.871.125.582.963c.75 1.237.884 1.748.928 3.512.03 1.221.066 1.463.256 1.86.184.385.265.46.52.486.357.034.731-.312.904-.834l.107-.329.176.44c.279.71.656 2.237.656 2.646 0 .208-.049.487-.111.623l-.113.25-1.202-1.185c-1.598-1.58-2.393-2.236-2.814-2.315-.566-.106-1.041.043-2.727.848-1.323.632-3.658 2.232-4.808 3.295-.734.679-.956 2.143-.48 3.166.254.549.822 1.282 1.355 1.752 1.324 1.167 3.326 2.042 3.52 1.537.03-.08-.085-.48-.257-.885-.229-.54-.326-.927-.359-1.457-.044-.716-.04-.723.262-.978.54-.456 1.023-.318 1.896.537.332.325.665.704.739.844.126.239.111.278-.248.73-.21.263-.44.623-.514.8-.13.31-.118.373.322 1.464l.463 1.14-.539.23c-.423.18-.755.239-1.541.268-1.263.049-1.348.067-1.656.375-.205.205-.254.344-.254.72v.464h-.426c-.776 0-.925.14-1.19 1.117-.157.583-.311.696-.947.696-.299 0-.822.077-1.162.171-.563.157-.696.248-1.49 1.026-1.171 1.147-1.405 1.607-1.41 2.765-.003.697.032.925.19 1.194l.193.332 1.093.076c1.537.108 4.345.026 4.534-.13.121-.102.25-.088.738.073 1.285.427 1.323.431 2.892.371 5.708-.217 10.819-.58 12.829-.91.288-.047.816-.13 1.17-.181.783-.114 1.207-.346 1.435-.784.142-.271.169-.507.143-1.32l-.034-.99.596.057c1.378.128 2.704-.756 2.701-1.8 0-.541-.1-.658-.488-.577a11 11 0 0 1-.758.115c-.402.045-.458.025-.691-.252-.267-.317-.33-.653-.15-.832.058-.059.157-.208.218-.33a.52.52 0 0 1 .348-.256c.352-.05.46-.179.623-.738.138-.475.136-.535-.031-.918l-.178-.409.347-.814c.751-1.743.992-2.285 1.088-2.303h.008l.002.002h.002l.002.002h.002l.006.004c.026.027.04.11.055.22.04.286.494.345.77.102.221-.195.829-1.438 1.076-2.2.168-.52.221-.572.396-.397.057.057.2.088.319.07.403-.06.506-.59.505-2.586v-1.789l.247.162c.291.192 1.446.88 2.253 1.346l.905.523c.479.28 1.026.547 1.127.547.047 0 .576.233 1.175.518 1.697.806 2.49.934 2.55.412.019-.172-.022-.285-.12-.322-.082-.032-.15-.09-.15-.13v-.003h.004l.002-.002c.037-.022.217.009.431.08.45.148.527.142 2.616-.158.807-.116.523-.46-.832-1.012l-.541-.219.52-.1c2.09-.396 2.825-.55 3.62-.755 1.36-.35 1.446-.374 1.91-.532.628-.212 2.27-.698 2.768-.818.236-.057.796-.189 1.242-.29.708-.163 1.28-.33 2.672-.786.496-.163 1.145-.73 1.145-.998 0-.295-.258-.42-.86-.42-.238 0-.428-.035-.459-.076v-.002l-.002-.002v-.014c.018-.05.483-.555 1.035-1.121.965-.99 1.858-1.96 3.653-3.965.489-.547.73-.79.802-.74l.002.002.002.002c.046.055-.003.285-.11.683-.243.891-.31 1.05-1.083 2.654-.915 1.898-.929 1.942-.738 2.1.12.1.212.094.504-.03.195-.082.63-.175.966-.208a4.14 4.14 0 0 0 2.381-1.053c.744-.687.847-.703 1.307-.228.403.416.973.753 1.268.753.098 0 .452.184.789.407.336.222.868.533 1.181.691.96.485 1.605 1.59 1.756 3.008.081.76.186.89.658.82.3-.044.309-.033.309.297 0 .765.651 1.294 1.355 1.106l.373-.1.291.576.29.572-.288.29-.287.285-1.006-.102c-.623-.063-1.27-.068-1.7-.017l-1.585.187c-1.165.135-1.546.298-2.105.91-.509.557-1.242 1.892-1.49 2.717-.734 2.437-.486 5.076.546 5.855 1.257.949 2.765 1.445 4.725 1.557 1.038.06 1.115-.007.838-.72a5.6 5.6 0 0 1-.242-.821c-.039-.21-.162-.723-.274-1.139-.163-.607-.181-.826-.103-1.117.133-.496.536-.77 1.068-.732l.406.03-.027.57c-.015.314-.075.846-.137 1.18-.103.56-.099.632.1 1.007.344.649 1.133 1.56 1.574 1.818.373.218.417.287.522.795.063.307.115.736.115.955 0 .382-.018.41-.475.64-.511.26-1.194 1.008-2.013 2.212-.658.965-.793 1.35-.729 2.056.063.695.251.927.817 1.002.204.028.376.085.396.13v.005l.002.004v.002l.002.002c.039.041.302.074.617.074s.577-.035.615-.076l.004-.002v-.008c0-.164.54-.285 1.717-.388a61 61 0 0 0 1.91-.198c.926-.118 2.779-.116 2.909.002v.002h.002v.002c.117.19.693.1.994-.154.159-.133.237-.186.271-.174h.002l.002.002.002.002a.2.2 0 0 1 .016.104c0 .341.178.403 1.021.343.56-.04.868-.021 1.026.063.332.178 2.88.054 5.734-.28l1.621-.185c.864-.097 1.179-.176 1.385-.342.079-.063.343-.208.588-.324a4.4 4.4 0 0 0 .863-.576l.416-.367-.02-5.33c-.02-5.779-.171-11.997-.316-13.065-.153-1.134-.3-1.665-.533-1.943l-.225-.266.497-.336c.436-.293.496-.37.496-.658 0-.316-.02-.335-.573-.51-1.162-.366-1.35-.446-1.654-.703-.222-.187-.378-.466-.553-.978-.283-.833-1.945-7.376-1.888-7.434v-.004l.002-.002h.004l.004-.002c.035 0 .12.051.203.125.221.2.623.204.787.008.335-.404-.104-1.82-1.469-4.738-.2-.43-.283-.675-.258-.735l.002-.002v-.004h.004v-.002h.004v-.002h.004q.04.001.135.088c.05.046.319.16.6.25.402.13.56.143.746.059.414-.189.153-.636-1.188-2.037-.418-.438-.743-.836-.748-.91v-.008c.028-.045.2-.305.381-.575.56-.832.698-1.341.752-2.81.025-.69.014-1.278-.023-1.354l-.002-.002v-.002h-.002v-.006h-.002v-.002c-.055-.018-.322.068-.602.196-.289.132-.551.238-.584.238s-.69.305-1.459.676c-1.5.723-1.46.716-2.027.277l-.239-.185.575-.551c1.033-.996 1.67-1.927 1.67-2.444 0-.126.067-.286.148-.353.605-.502-.95-1.223-2.4-1.113-.699.052-.784.03-.946-.23-.417-.676-1.117-1.597-1.248-1.647-.132-.051-.15-.16-.113-.606.023-.28.086-.528.139-.572l.002-.002h.002c.056-.019.083-.19.06-.389-.022-.194-.006-.847.037-1.45l.08-1.099.155.352c.16.363.516.633.648.492.099-.105.174-.705.248-1.955.069-1.157 0-1.564-.69-4.04-.381-1.372-.5-1.787-.484-1.845v-.002h.002v-.002h.01c.023.012.068.074.125.139.248.282.557.432.746.36.14-.054.153-.162.104-.788-.083-1.043-.214-2.155-.52-4.396-.042-.317-.06-.47-.044-.506v-.004h.002v-.002h.008a.5.5 0 0 1 .1.127c.34.516.606.764.823.764.614 0 .555-1.03-.138-2.424-.818-1.643-2.947-5.107-4.082-6.639-.329-.443-.588-.817-.575-.83s.291.109.616.27c.797.395.912.338.857-.424-.052-.732-.693-2.339-1.285-3.221-.223-.332-.406-.66-.406-.732 0-.073.242-.423.539-.776l.816-.974c.44-.528 1.805-1.902 2.225-2.24 1.034-.836 1.952-1.091 3.976-1.098.609-.002 1.023-.042 1.084-.102h.002v-.004c.095-.153-.516-.752-.982-.963-.21-.094-.385-.196-.406-.234v-.01c0-.032.812-.032 1.806-.004 1.566.044 1.817.03 1.866-.096a.56.56 0 0 0 0-.318c-.066-.205-1.342-1.043-1.59-1.043-.079 0-.145-.023-.166-.053l-.004-.006v-.006l-.002-.006v-.006c.04-.11.906-.656 1.81-1.138a170 170 0 0 0 1.37-.742l.654-.36.35.168c1.15.555 2.174.683 2.624.328.139-.108.254-.259.254-.334 0-.06.013-.113.033-.13l.01-.004h.004v-.002h.002c.028 0 .553.29 1.168.648.616.358 1.2.682 1.297.719s.2.15.227.254c.034.13.155.205.394.24.191.028.607.09.922.139 1.616.248 3.805.48 4.526.48.327 0 .236-.33-.305-1.121a43 43 0 0 1-.58-.865l-.004-.004-.002-.002v-.01h.002v-.002h.004c.047.01.256.15.523.36 1.378 1.078 2.826 1.866 3.975 2.163.48.125 1.124.155 3.244.159 1.455.003 2.774-.024 2.932-.061.819-.191 1.967-.69 2.107-.916.092-.148-.198-.352-.613-.43-.192-.036-.727-.351-1.262-.742-.51-.373-1.008-.733-1.105-.8a.7.7 0 0 1-.112-.087v-.012h.002v-.002h.004a.7.7 0 0 1 .168.032c.131.033.677.097 1.213.14s1.014.105 1.063.135v.002c.066.024.439-.033.84-.13 1.814-.443 2.418-.579 2.585-.579.219 0 .409-.177.409-.38 0-.22-.436-.444-1.198-.618-.726-.166-2.04-.607-2.185-.734l-.006-.004v-.002l-.002-.002v-.01l.002-.002v-.004c.042-.036.336-.066.719-.066 1.387-.003 3.208-.445 3.71-.899a1.6 1.6 0 0 1 .42-.238c.2-.076.261-.156.239-.313-.025-.168-.193-.267-.844-.504-1.044-.378-1.553-.607-3.242-1.449l-1.385-.691.977-.004c.537-.003 1.16-.044 1.384-.094s.643-.142.932-.203.7-.213.916-.336c.443-.254 1.422-1.312 1.422-1.539 0-.193-.74-.431-2.483-.8a32 32 0 0 1-2.125-.522c-1.75-.533-2.425-.711-2.697-.711-.39 0-.349-.106.127-.336 2.512-1.216 2.973-1.542 2.43-1.715-.292-.093-2.743-.324-3.5-.33-.284-.002-.507-.022-.551-.047h-.004v-.002h-.002v-.006h-.004v-.008l.004-.002c.03-.03.411-.18.844-.33.756-.262 1.247-.585 1.105-.726-.113-.113-1.307-.264-2.117-.266-.42-.001-1.385.058-2.146.129-1.559.144-5.508.08-6.153-.1-.968-.27-4.317-1.978-6.207-3.166-2.427-1.525-5.428-3.936-8.21-6.603l-.858-.823.38.04c.57.057.811-.067.811-.409 0-.412-.42-.838-1.369-1.39-.449-.261-.818-.496-.82-.524v-.004h.002v-.004l.002-.002c.038-.033.265-.106.539-.17.938-.217 1.28-.485.955-.752-.066-.053-.4-.22-.74-.367-.62-.266-.624-.265-2.768-.262-1.181.002-2.59.058-3.13.125-.605.076-1.006.09-1.065.053l-.004-.002-.004-.002v-.01l.004-.002v-.002c.018-.021.098-.052.25-.09.41-.102 1.618-.682 1.75-.842.063-.076.085-.226.05-.333-.052-.166-.14-.198-.58-.198z" style="fill:#fff;fill-rule:evenodd;stroke-width:1.14264"/></svg>