<?xml version="1.0" encoding="UTF-8" standalone="no"?>
<svg
   xml:space="preserve"
   width="256"
   height="256"
   version="1.1"
   id="svg2"
   xmlns="http://www.w3.org/2000/svg"
   xmlns:svg="http://www.w3.org/2000/svg"><defs
     id="defs2" /><path
     id="path1"
     style="fill:#ffffff;fill-rule:evenodd;stroke-width:1.13069"
     d="M 128.58594,1.7539062 A 126.2465,126.2465 0 0 0 2.3398438,128 126.2465,126.2465 0 0 0 128.58594,254.24609 126.2465,126.2465 0 0 0 254.83203,128 126.2465,126.2465 0 0 0 128.58594,1.7539062 Z M 125.51758,21.236328 A 106.764,107.17937 0 0 1 232.28125,128.41602 106.764,107.17937 0 0 1 141.88281,234.19336 c 5.50981,-5.90043 10.8793,-13.80505 14.49414,-21.44141 1.55942,-3.29133 2.30963,-4.46737 2.32813,-3.64453 0.0227,1.10302 0.0947,1.05443 0.77148,-0.48828 0.4094,-0.93592 1.12163,-3.5599 1.58399,-5.83008 0.64479,-3.17065 0.92017,-3.87 1.1875,-3.01172 0.19251,0.61438 0.59415,1.03682 0.89257,0.93555 0.86421,-0.29285 1.18488,-2.84217 1.73047,-13.68164 0.27994,-5.59189 0.61802,-10.27598 0.75,-10.41016 0.13199,-0.13503 0.24786,0.17439 0.25586,0.6875 0.016,0.94689 1.03528,2.63282 1.5918,2.63282 h 0.008 l 0.002,-0.002 c 0.16309,-0.0987 0.29493,-2.21755 0.29492,-4.79492 0,-3.91585 -0.26144,-5.70004 -1.43164,-9.70703 -1.74521,-5.97588 -1.82709,-6.96089 -0.44336,-5.35742 l 0.98828,1.14844 -0.26367,-2.67383 c -0.17317,-1.75284 -0.84291,-3.76017 -1.94922,-5.83203 -0.92725,-1.7385 -3.15302,-6.22311 -4.94531,-9.9668 a 300.95679,302.12769 0 0 0 -2.81641,-5.71094 c 12.09459,-4.28718 23.27731,-8.288 23.80273,-8.55469 0.88773,-0.44981 1.76559,-1.20373 2.23047,-1.91601 0.31441,-0.48104 0.38327,-0.68271 0.47657,-1.44141 0.0907,-0.73253 0.0752,-0.98725 -0.0879,-1.49023 -0.25472,-0.78486 -1.06062,-1.90421 -1.82226,-2.53125 -0.33122,-0.27259 -5.62432,-3.85383 -11.76367,-7.95703 -6.13935,-4.1032 -11.15925,-7.48613 -11.15625,-7.51563 0.006,-0.0506 -4.37488,-23.274396 -10.71094,-56.773436 -1.78276,-9.42672 -2.68634,-14.453318 -2.71094,-15.080078 -0.0202,-0.51733 -0.12066,-1.170142 -0.2207,-1.451172 -0.88858,-2.47103 -4.20965,-4.326342 -8.01953,-4.476562 -3.65687,-0.14515 -6.69264,1.483725 -7.25,3.890625 -0.14544,0.62619 -0.27382,0.922722 -2.39649,5.507812 l -2.59375,5.605469 -2.58203,5.578125 c -0.71036,1.53511 -1.87527,4.058802 -2.58984,5.607422 a 412.76476,414.37065 0 0 1 -1.42188,3.0625 c -0.0672,0.13672 -0.3809,0.809711 -0.69531,1.494141 -0.3144,0.68528 -1.15875,2.511927 -1.875,4.060546 -2.08988,4.5125 -3.78894,8.191348 -5.18359,11.210938 a 450.59452,452.3476 0 0 1 -1.42188,3.0625 c -0.0673,0.13672 -0.3809,0.811664 -0.69531,1.496094 -0.3144,0.68611 -1.15875,2.510824 -1.875,4.058594 a 10247.663,10287.532 0 0 0 -4.90234,10.595703 l -1.03907,2.251953 -16.054684,5.714846 c -10.93112,3.89221 -16.289976,5.85089 -16.791016,6.13867 -2.3093,1.32328 -3.046952,3.52243 -1.857422,5.5293 a 8.1544157,8.1861412 0 0 0 0.869141,1.17382 c 0.22447,0.24137 6.488746,4.48795 14.441406,9.83594 -2.55561,0.92833 -4.790193,1.8829 -6.476563,2.79688 -2.570739,1.39417 -3.326769,2.12885 -4.943359,4.80664 -1.54514,2.55712 -1.944332,3.72228 -2.107422,6.13086 -0.19335,2.83899 -0.07631,3.22239 2.556641,8.45898 3.24159,6.44343 4.880294,8.52275 7.027344,8.91602 0.85243,0.15613 4.23924,0.0978 7.52539,-0.13086 6.76312,-0.46922 7.336478,-0.24157 7.080078,2.83203 -0.17233,2.07608 0.641648,2.41448 1.898438,0.78906 0.5271,-0.68021 1.061673,-1.23633 1.189453,-1.23633 0.47581,0 1.416089,2.96553 1.724609,5.44922 0.3329,2.67526 0.56608,2.85268 2.78711,2.13281 0.956666,-0.31057 1.128426,-0.0794 1.826176,2.47852 0.42453,1.55199 0.85751,3.10295 0.96679,3.44727 0.15385,0.48611 0.45152,0.45381 1.34766,-0.14454 1.1164,-0.74266 1.16632,-0.71957 1.68164,0.78516 0.77089,2.24823 0.67741,2.81153 -0.41797,2.51953 -0.60275,-0.16035 -1.05974,0.0361 -1.24805,0.53321 -0.39847,1.05745 -0.98034,0.98927 -3.740231,-0.4336 -2.69684,-1.39249 -3.854692,-1.55364 -3.451171,-0.48437 0.393429,1.04478 -0.418926,0.92556 -5.203126,-0.75977 -2.324429,-0.81862 -6.498963,-2.03309 -9.277343,-2.69726 -2.77755,-0.66418 -7.988505,-2.08282 -11.578125,-3.1504 -5.70557,-1.6963 -7.026875,-1.92093 -10.515625,-1.79687 l -3.990235,0.14062 1.671875,1.09375 1.673829,1.08985 -2.390626,0.041 c -4.53957,0.0743 -8.001093,1.84213 -5.470703,2.79493 1.15843,0.43631 -1.227354,1.06437 -15.083984,3.98437 A 416.96806,418.59031 0 0 0 29.630859,175.54883 106.764,107.17937 0 0 1 18.753906,128.41602 106.764,107.17937 0 0 1 125.51758,21.236328 Z m -6.18164,38.251953 c 0.0227,-0.0211 1.08132,0.437222 2.35156,1.019531 5.14821,2.357951 8.23387,3.347592 11.86133,3.800782 3.5871,0.44729 6.44692,0.269824 12.18359,-0.759766 1.43753,-0.25825 2.6458,-0.427047 2.6836,-0.373047 0.0841,0.12068 2.52595,13.8463 2.46875,13.875 -0.41276,0.20423 -3.74465,1.105516 -5.57813,1.509766 -3.52237,0.77557 -6.87149,1.144097 -9.90039,1.091797 C 129.8747,79.556134 124.85418,78.27316 119.17383,75.5 c -2.45725,-1.20007 -5.68335,-3.061051 -5.74805,-3.306641 v -0.0078 l 0.002,-0.002 v -0.002 c 0.0336,-0.06245 1.36759,-2.936456 2.96485,-6.384766 1.59684,-3.447423 2.92,-6.286066 2.94336,-6.308594 z m -12.20508,26.316407 0.004,0.002 c 0.0647,0 0.30276,0.160326 0.55664,0.378906 1.78808,1.54102 4.60786,3.304321 7.43164,4.650391 11.63391,5.544639 26.60494,6.095424 37.32422,1.371093 l 1.12304,-0.49414 1.12305,6.263671 1.125,6.265631 -0.7168,0.52539 c -2.07055,1.51063 -5.54393,3.13767 -8.57031,4.01367 -4.19154,1.21358 -8.48058,1.75 -13.52539,1.6875 -1.33665,-0.016 -6.86859,-0.5762 -8.03711,-0.8125 -4.82539,-0.97896 -8.16998,-2.0592 -11.86133,-3.83398 -4.25879,-2.04737 -7.24674,-4.2025 -10.02344,-7.224617 -0.43294,-0.47091 -0.89367,-1.007163 -1.02734,-1.189453 l -0.24414,-0.330078 2.62109,-5.607422 c 1.4409,-3.08372 2.65076,-5.632609 2.68946,-5.662109 v -0.002 h 0.002 z" /></svg>
