<svg xmlns="http://www.w3.org/2000/svg" xml:space="preserve" width="256" height="256"><path d="M128.586 1.754A126.247 126.247 0 0 0 2.34 128a126.247 126.247 0 0 0 126.246 126.246A126.247 126.247 0 0 0 254.832 128 126.247 126.247 0 0 0 128.586 1.754m-3.068 19.482a106.764 107.18 0 0 1 106.763 107.18 106.764 107.18 0 0 1-90.398 105.777c5.51-5.9 10.88-13.805 14.494-21.441 1.56-3.291 2.31-4.467 2.328-3.645.023 1.103.095 1.055.772-.488.409-.936 1.121-3.56 1.584-5.83.644-3.17.92-3.87 1.187-3.012.193.615.594 1.037.893.936.864-.293 1.184-2.842 1.73-13.682.28-5.592.618-10.276.75-10.41s.248.174.256.688c.016.946 1.035 2.632 1.592 2.632h.008l.002-.002c.163-.098.295-2.217.295-4.795 0-3.915-.262-5.7-1.432-9.707-1.745-5.975-1.827-6.96-.443-5.357l.988 1.148-.264-2.673c-.173-1.753-.843-3.76-1.949-5.832-.927-1.739-3.153-6.223-4.945-9.967a300.957 302.128 0 0 0-2.817-5.711c12.095-4.287 23.278-8.288 23.803-8.555.888-.45 1.766-1.204 2.23-1.916.315-.48.384-.683.477-1.441.09-.733.075-.987-.088-1.49-.255-.785-1.06-1.905-1.822-2.532-.331-.272-5.624-3.854-11.764-7.957s-11.159-7.486-11.156-7.515c.006-.051-4.375-23.275-10.71-56.774q-2.675-14.14-2.712-15.08c-.02-.517-.12-1.17-.22-1.451-.89-2.471-4.21-4.326-8.02-4.477-3.657-.145-6.693 1.484-7.25 3.891-.146.626-.274.923-2.397 5.508l-2.593 5.605-2.582 5.578-2.59 5.608a412.765 414.37 0 0 1-1.422 3.062c-.067.137-.381.81-.695 1.494-.315.686-1.16 2.512-1.875 4.061-2.09 4.513-3.79 8.191-5.184 11.211a450.595 452.348 0 0 1-1.422 3.062c-.067.137-.38.812-.695 1.497-.315.686-1.159 2.51-1.875 4.058a10247.663 10287.532 0 0 0-4.902 10.596l-1.04 2.252-16.054 5.715c-10.931 3.892-16.29 5.85-16.791 6.138-2.31 1.324-3.047 3.523-1.858 5.53a8.154 8.186 0 0 0 .87 1.173c.224.242 6.488 4.488 14.44 9.836-2.555.929-4.79 1.883-6.476 2.797-2.57 1.394-3.326 2.13-4.943 4.807-1.545 2.557-1.944 3.722-2.107 6.13-.194 2.84-.077 3.223 2.556 8.46 3.242 6.443 4.88 8.522 7.027 8.916.853.156 4.24.098 7.526-.131 6.763-.47 7.336-.242 7.08 2.832-.172 2.076.642 2.414 1.898.789.528-.68 1.062-1.236 1.19-1.236.476 0 1.416 2.965 1.724 5.449.333 2.675.567 2.853 2.788 2.133.956-.31 1.128-.08 1.826 2.478.424 1.552.857 3.103.967 3.447.153.487.451.454 1.347-.144 1.117-.743 1.167-.72 1.682.785.77 2.248.677 2.812-.418 2.52-.603-.16-1.06.036-1.248.533-.399 1.057-.98.99-3.74-.434-2.697-1.392-3.855-1.553-3.452-.484.394 1.045-.419.925-5.203-.76-2.324-.819-6.499-2.033-9.277-2.697s-7.989-2.083-11.578-3.15c-5.706-1.697-7.027-1.921-10.516-1.797l-3.99.14 1.672 1.094 1.674 1.09-2.391.04c-4.54.075-8.001 1.843-5.47 2.796 1.158.436-1.228 1.064-15.085 3.984a416.968 418.59 0 0 0-6.447 1.43 106.764 107.18 0 0 1-10.877-47.133 106.764 107.18 0 0 1 106.764-107.18m-6.182 38.252c.023-.02 1.081.438 2.351 1.02 5.149 2.358 8.234 3.347 11.862 3.8 3.587.448 6.447.27 12.183-.76 1.438-.257 2.646-.426 2.684-.372.084.12 2.526 13.846 2.469 13.875-.413.204-3.745 1.105-5.578 1.51-3.523.775-6.872 1.144-9.9 1.091-5.532-.096-10.553-1.379-16.233-4.152-2.457-1.2-5.684-3.061-5.748-3.307v-.007l.002-.002v-.002c.033-.063 1.367-2.937 2.965-6.385 1.596-3.448 2.92-6.286 2.943-6.309M107.13 85.805l.004.002c.065 0 .303.16.556.379 1.789 1.54 4.608 3.304 7.432 4.65 11.634 5.545 26.605 6.095 37.324 1.371l1.123-.494 1.123 6.264 1.125 6.265-.716.526c-2.07 1.51-5.544 3.137-8.57 4.013-4.192 1.214-8.481 1.75-13.526 1.688-1.337-.016-6.869-.576-8.037-.813-4.826-.979-8.17-2.059-11.861-3.834-4.26-2.047-7.247-4.202-10.024-7.224a21 21 0 0 1-1.027-1.19l-.244-.33 2.62-5.607c1.442-3.084 2.651-5.633 2.69-5.662v-.002h.002z" style="fill:#fff;fill-rule:evenodd;stroke-width:1.13069"/></svg>