<?xml version="1.0" encoding="UTF-8" standalone="no"?>
<!-- Created with Inkscape (http://www.inkscape.org/) -->

<svg
   version="1.1"
   id="svg1"
   width="2644"
   height="1012"
   viewBox="0 0 2644 1012"
   xmlns="http://www.w3.org/2000/svg"
   xmlns:svg="http://www.w3.org/2000/svg">
  <defs
     id="defs1" />
  <g
     id="g1">
    <path
       d="m 315.88521,82.71291 c -14.85197,0.0459 -22.85421,0.87569 -43.33398,4.48828 -6.23333,1.09954 -14.74858,2.56306 -18.92383,3.25195 -4.17525,0.68889 -8.18441,1.61982 -8.91016,2.06836 -0.72574,0.44853 -3.91051,1.35245 -7.07617,2.00977 -23.15126,4.80714 -63.50905,16.31023 -107.75586,30.71289 -59.77228,19.45633 -54.28612,17.56524 -81.97265,28.25586 -18.70146,7.22121 -24.51535,10.51764 -31.04688,17.60351 -8.4872195,9.20754 -12.7164295,23.2811 -14.2773395,47.51953 -1.0687,16.59528 -0.79238,16.94936 14.6308595,18.76758 6.6,0.77806 13.32735,1.95005 14.95117,2.60547 1.80907,0.73011 3.2602,0.6944 3.74609,-0.0918 0.43614,-0.70568 5.4641,-1.28125 11.17383,-1.28125 8.688,0 10.77526,0.43432 12.79492,2.66602 2.86374,3.1644 6,3.49221 6,0.62695 0,-1.64197 0.75541,-1.48075 3.87305,0.82422 4.67792,3.45854 7.35756,2.32251 6.13281,-2.59765 l -0.875,-3.51954 3.83985,3.66602 c 5.41855,5.17203 11.122,4.82012 8.26953,-0.50977 -1.72068,-3.2151 -0.50728,-3.15762 3.73047,0.17579 4.79449,3.77135 7.49842,3.49526 6.69921,-0.68555 -0.51252,-2.68111 -0.008,-3.5132 2.51563,-4.14649 3.4567,-0.86757 10.47982,-0.15245 14.14844,1.43946 1.8043,0.78294 2.33203,0.37549 2.33203,-1.79688 0,-2.37602 0.87531,-2.84981 5.66797,-3.0664 7.84487,-0.35454 10.52774,-0.17381 14,0.93945 2.49239,0.79911 3,0.46587 3,-1.9668 0,-2.53035 0.51927,-2.81421 3.82617,-2.08789 3.12575,0.68653 3.95768,0.33969 4.54297,-1.89844 0.48404,-1.85101 1.41155,-2.47476 2.85742,-1.91992 1.1772,0.45173 3.03447,0.0805 4.12695,-0.82617 1.16457,-0.96651 3.62133,-1.323 5.93946,-0.85937 2.8159,0.56318 4.29152,0.19052 5.125,-1.29883 0.90464,-1.6165 4.39403,-2.25597 15.375,-2.81641 13.47535,-0.68775 14.20703,-0.59094 14.20703,1.89258 0,4.35218 -9.26292,13.7793 -20.94336,21.31445 -11.6142,7.49242 -13.50798,8.13265 -16.16797,5.47266 -1.30267,-1.30268 -1.80489,-1.02541 -2.42188,1.33398 -0.84132,3.21721 -2.59312,3.93547 -3.43554,1.40821 -0.76471,-2.29414 -3.69922,-0.0292 -3.69922,2.85547 0,1.8067 -0.71003,2.27712 -2.66602,1.76562 -2.0464,-0.53514 -2.66601,-0.0407 -2.66601,2.125 0,3.93904 -2.43697,3.53278 -3.46875,-0.57812 -1.40221,-5.58685 -4.85962,-3.45027 -6.58985,4.07226 l -1.53125,6.66211 -2.20508,-4.95703 c -1.21272,-2.72644 -2.20507,-5.5771 -2.20507,-6.33399 0,-0.75689 -0.87197,-1.375 -1.9375,-1.375 -2.09661,0 -4.71046,7.60549 -4.72266,13.74415 -0.009,4.6949 -2.17652,3.55457 -3.34375,-1.75977 -0.48135,-2.19159 -1.63067,-3.98438 -2.55469,-3.98438 -2.09648,10e-6 -4.77539,5.68775 -4.77539,10.14063 0,1.89333 -0.58025,2.99121 -1.33398,2.52539 -0.73333,-0.45323 -1.33203,-3.18807 -1.33203,-6.07812 0,-9.36347 -6.47394,-5.7113 -8.02539,4.52734 l -0.8418,5.55078 -1.31836,-4.66602 c -1.84189,-6.52217 -4.81928,-5.93149 -6.70703,1.33204 -1.40096,5.39054 -1.57157,5.57656 -1.66797,1.83007 -0.059,-2.29354 -0.96481,-4.88147 -2.01367,-5.75195 -2.28686,-1.89792 -4.1436,0.89746 -5.87305,8.8418 l -1.10742,5.08008 -1.00586,-5.66602 c -1.15435,-6.49522 -3.99305,-7.50398 -6.37891,-2.26758 -1.28482,2.81988 -1.74608,3.04563 -2.70507,1.33203 -2.79478,-4.99399 -7.68946,0.52127 -7.68946,8.66407 0,6.09766 -2.39651,4.64484 -3.40234,-2.0625 -0.52115,-3.47526 -1.61085,-6 -2.58789,-6 -1.9059,0 -4.3118,5.35799 -5.08985,11.33398 l -0.51953,4 -0.20117,-4.25391 c -0.10987,-2.34005 -0.88979,-4.68309 -1.73437,-5.20507 -2.12856,-1.31552 -5.13086,3.19764 -5.13086,7.71289 0,4.38475 -2.02755,5.00169 -3.08985,0.93945 -0.90795,-3.47199 -4.09479,-2.66461 -4.66211,1.18164 -0.25332,1.71742 -3.01859,4.43424 -7.02343,6.89844 -5.96387,3.66961 -6.52151,4.42124 -5.72852,7.72851 2.4469,10.2052 11.85533,22.27214 20.26953,25.99414 7.53342,3.33239 13.31892,2.64023 25.23047,-3.01757 22.46071,-10.6685 62.28561,-19.95995 106.33594,-24.80664 38.85098,-4.27462 119.97057,-2.6925 133.33398,2.5996 2.93333,1.16164 7.38561,2.13773 9.89453,2.16993 2.50892,0.0322 5.58128,0.98081 6.82618,2.10742 1.2449,1.12662 6.09197,2.73505 10.77148,3.57617 8.53263,1.53371 15.31155,5.06319 28.63672,14.91016 9.87692,7.2988 10.0442,7.4865 9.17578,10.22265 -0.44468,1.40107 0.0892,3.82726 1.18555,5.39258 1.52763,2.181 1.64493,3.4034 0.5039,5.23047 -1.19918,1.9202 -0.82915,3.25157 1.90039,6.83594 4.7756,6.27122 5.61715,9.76281 3.23243,13.40234 -2.59838,3.96564 -1.32208,5.77685 4.87304,6.91602 2.75,0.50567 5,1.30711 5,1.78125 0,0.47414 -2.40064,3.10064 -5.33398,5.83593 -2.93333,2.73529 -5.33203,5.61948 -5.33203,6.41016 0,0.81492 2.5988,1.4375 6,1.4375 6.5646,0 6.74948,0.16738 4.38281,3.95703 -2.07912,3.3292 -1.06377,4.23323 5.19336,4.625 15.32797,0.95973 14.63785,0.83395 11.50586,2.0957 -5.12548,2.06488 -7.64888,15.74226 -3.12305,16.92579 1.71904,0.44954 2.52321,1.67137 2.33203,3.54101 -0.22328,2.18349 0.33576,2.75187 2.375,2.41406 1.46666,-0.24296 4.73709,-0.77328 7.26758,-1.17773 l 4.60156,-0.73438 -3.60156,4.2793 c -2.55695,3.03876 -3.60156,5.77738 -3.60156,9.44727 v 5.16797 l 6.66797,-0.78907 c 7.24961,-0.85861 7.26964,-0.84318 5.37109,4.15039 -2.34391,6.16493 -0.64643,7.58819 8.20703,6.88672 l 7.92578,-0.62695 -0.90625,7.25195 c -0.49837,3.98879 -0.42512,7.25196 0.16211,7.25196 0.58724,0 2.54051,-1.35 4.33985,-3 l 3.27148,-3 -0.83984,7.45703 c -0.86426,7.67904 -0.2544,9.83368 2.32031,8.19336 0.81438,-0.51884 3.13177,-0.95169 5.14844,-0.96289 2.90435,-0.0162 3.66601,0.59437 3.66601,2.9375 0,1.95793 0.61826,2.72208 1.82813,2.25781 1.00537,-0.3858 2.18672,0.23285 2.625,1.375 0.43828,1.14214 1.71488,2.07617 2.83789,2.07617 1.12302,0 2.04297,0.84978 2.04297,1.88867 0,1.03888 0.67948,2.11587 1.50976,2.39258 1.0438,0.34794 0.8368,1.80104 -0.66797,4.71094 -2.0236,3.9132 -2.95738,9.67383 -1.56836,9.67383 0.3341,0 2.81797,-1.4987 5.51954,-3.33204 2.70156,-1.83332 6.09184,-3.33398 7.5332,-3.33398 2.25331,0 2.54865,0.74825 2.11133,5.33398 -0.39218,4.11233 -0.042,5.3348 1.52734,5.3418 2.66249,0.0119 8.03516,7.96483 8.03516,11.89453 0,2.41656 0.56898,2.92534 2.66601,2.37696 2.21494,-0.57922 2.66797,-0.041 2.66797,3.17773 0,3.84475 2.88938,5.41492 4.66797,2.53711 0.54861,-0.88764 1.70431,-0.86612 3.43945,0.0625 1.43731,0.76923 3.29499,0.97633 4.12891,0.46094 1.09491,-0.67669 1.29188,0.96426 0.70703,5.90234 -0.47249,3.98948 -0.26118,7.17708 0.50781,7.65234 0.72496,0.44806 3.28852,-1.33527 5.69532,-3.96289 2.40681,-2.62762 4.78332,-4.77734 5.28125,-4.77734 1.88428,0 0.79766,6.77544 -1.75782,10.9668 -3.45492,5.66659 -3.45555,8.2151 -0.004,7.3125 2.39223,-0.6256 2.66601,-0.0405 2.66601,5.68161 0,4.0432 0.73224,6.987 2,8.0391 1.6352,1.3571 2,1.273 2,-0.4609 0,-1.1664 1.64936,-2.9845 3.66602,-4.0411 2.01667,-1.0567 3.51731,-2.2774 3.33398,-2.7109 -0.77216,-1.82563 -0.23243,-3.45313 1.14453,-3.45313 0.86843,0 1.16671,1.24044 0.72266,3.00973 -1.04188,4.1512 1.10046,7.5557 3.34375,5.3125 0.91054,-0.9106 3.06542,-1.6562 4.78711,-1.6562 1.72169,0 4.55979,-1.5428 6.30659,-3.4277 3.1736,-3.42437 3.1774,-3.42427 5.836,-0.76567 2.1043,2.10437 2.7212,4.70367 2.9531,12.42777 0.261,8.6898 -0.3644,11.5294 -5.6777,25.7656 -5.0063,13.4133 -21.84045,49.2115 -29.08205,61.8437 -1.91524,3.3409 -2.24987,11.1284 -1.35352,31.4903 0.2917,6.6264 2.3717,13.0675 2.79883,8.666 0.10671,-1.1 0.0876,-3.0507 -0.043,-4.334 -0.32032,-3.149 0.82362,-2.9415 5.50781,1 3.68274,3.0988 9.08985,4.5308 9.08985,2.4063 0,-0.5106 -1.45794,-3.0619 -3.24024,-5.668 -4.0799,-5.9656 -6.15411,-15.5582 -3.11133,-14.3906 2.48351,0.953 5.01758,-1.3766 5.01758,-4.6133 0,-1.32 0.74936,-2.4479 1.66602,-2.5059 1.33334,-0.084 1.33334,-0.2393 0,-0.7773 -2.59379,-1.0466 -1.95891,-3.1172 0.95508,-3.1172 1.44115,0 4.73987,-1.8627 7.33207,-4.1387 2.5922,-2.276 4.7129,-3.7647 4.7129,-3.3086 0,0.4561 -1.155,5.1676 -2.5684,10.4707 -5.2719,19.7813 -11.24467,49.965 -11.77345,59.4942 -0.4293,7.7364 0.0664,11.5332 2.3125,17.6933 1.57288,4.3138 2.53726,8.8799 2.14258,10.1485 -1.10569,3.5541 0.92627,5.5824 5.27347,5.2636 3.6693,-0.2692 3.9938,0.087 4.6133,5.043 0.5862,4.6892 1.2293,5.5155 5.3144,6.8359 5.1768,1.6732 6.3422,4.1794 6.5528,14.0782 0.15,7.05 2.0492,13.0859 4.1172,13.0859 0.761,0 2.6943,-2.6957 4.2949,-5.9902 2.9926,-6.1597 4.9931,-5.9603 5.0351,0.5019 0.033,5.0939 2.9043,13.2872 4.9297,14.0645 1.0244,0.3931 2.9583,0.029 4.2988,-0.8086 3.6993,-2.3103 6.5984,-0.4375 9.3829,6.0586 1.3866,3.2348 3.2372,6.3238 4.1132,6.8652 2.1543,1.3315 3.9164,-1.7734 3.9414,-6.9453 0.025,-5.113 0.3412,-5.3417 8.9258,-6.4805 l 6.75,-0.8965 0.9317,7.461 c 0.5127,4.1036 1.5447,7.8402 2.2929,8.3027 0.7482,0.4624 3.5565,-1.2563 6.2403,-3.8183 2.6838,-2.562 5.6301,-4.3801 6.5468,-4.0411 1.2051,0.4455 1.6661,-1.4013 1.6661,-6.666 0,-4.8456 0.669,-7.8348 2,-8.9394 1.1,-0.913 2,-2.3954 2,-3.293 0,-3.6054 4.1619,-9.896 6.0644,-9.166 1.5309,0.5875 1.9356,-0.6339 1.9356,-5.8438 0,-3.6229 0.3962,-6.982 0.8789,-7.4648 0.4828,-0.4828 4.2446,2.7174 8.3613,7.1113 9.5513,10.1944 13.342,10.6955 17.5645,2.3223 3.6186,-7.1755 3.1433,-6.8121 6.5292,-5 3.8568,2.0641 4.8563,0.7582 2.6192,-3.4219 -1.118,-2.089 -1.3358,-3.7738 -0.5586,-4.332 0.6995,-0.5023 1.9555,-2.1134 2.7891,-3.5801 1.1905,-2.0944 2.7837,-2.6241 7.4257,-2.4707 l 5.9102,0.1953 1.7441,-9.8262 c 2.0442,-11.5047 4.1234,-13.0637 11.4161,-8.5566 l 4.6406,2.8672 1.291,-3.3945 c 0.7101,-1.8679 2.5124,-4.161 4.0059,-5.0938 2.2213,-1.3872 2.7167,-3.0936 2.7167,-9.375 v -7.6777 h 4.6661 c 2.5666,0 4.74,-0.45 4.83,-1 0.09,-0.55 0.2728,-3.1013 0.4082,-5.668 0.1353,-2.5667 0.9087,-5.8747 1.7168,-7.3516 1.1045,-2.0185 1.015,-3.7633 -0.3574,-7.0273 -2.4618,-5.8547 -1.2263,-8.7464 3.3457,-7.832 3.3242,0.6648 3.7084,0.2287 5.8086,-6.5918 1.2368,-4.0166 2.2481,-8.4061 2.2481,-9.7539 0,-1.3478 0.9383,-3.2293 2.0859,-4.1817 1.4047,-1.1658 2.0207,-3.7242 1.8828,-7.8301 -0.2989,-8.8972 -0.3166,-8.8595 3.9766,-8.8105 3.5638,0.041 5.0576,1.7209 15.4492,17.3789 20.055,30.2189 23.1204,38.9269 24.1758,68.668 0.5644,15.9047 0.1894,22.1415 -2.1094,35.1719 -1.537,8.7115 -2.7949,18.0292 -2.7949,20.705 0,5.3644 -6.7731,20.5903 -13.5293,30.4102 -5.5501,8.0667 -22.3412,25.7129 -24.4668,25.7129 -1.0415,0 -2.0027,-3.0452 -2.584,-8.1836 -4.4313,-39.1671 -39.6801,-56.0948 -70.1289,-33.6797 -7.7357,5.6946 -15.957,15.8799 -15.957,19.7695 0,3.4296 3.8893,2.3965 9.7011,-2.5781 6.1178,-5.2367 12.0742,-7.3113 21.0371,-7.3223 7.6101,-0.01 17.3472,5.7622 19.8282,11.752 1.4988,3.6185 1.3885,4.5668 -0.916,7.8457 -7.584,10.7907 -7.1698,20.7612 1.1933,28.7168 2.8978,2.7567 6.1438,5.0117 7.2129,5.0117 3.0693,0 2.2625,2.541 -1.0566,3.3281 -1.65,0.3912 -12.6006,0.9361 -24.334,1.211 -22.9643,0.538 -38.9441,2.2068 -45.3281,4.7324 -12.329,4.8777 -24.6719,19.8527 -24.6719,29.9355 0,4.6097 0.1793,4.8014 3.6679,3.9649 2.0167,-0.4835 5.3155,-1.7107 7.3321,-2.7266 3.2007,-1.6124 3.6679,-1.5885 3.6679,0.1778 0,1.7813 0.6775,1.7592 5.6661,-0.1778 3.1166,-1.2101 6.4172,-2.7792 7.3339,-3.4863 2.266,-1.7478 2.1163,1.3908 -0.2714,5.7051 -1.2947,2.3392 -1.4298,3.824 -0.4571,4.998 1.0796,1.3009 17.3378,1.6699 73.4688,1.6699 h 72.0859 l 3.086,-2.8984 c 3.9952,-3.7533 3.8961,-5.5849 -0.9141,-16.8887 -4.1731,-9.8067 -4.9201,-14.153 -2.668,-15.5449 0.7334,-0.4533 1.3606,-2.7401 1.3926,-5.0801 0.032,-2.3401 0.8328,-6.4198 1.7793,-9.0683 3.28,-9.178 19.6254,-32.1731 31.0332,-43.6582 13.3356,-13.426 16.9931,-19.2171 19.3066,-30.5684 1.4822,-7.2729 1.3923,-10.0767 -0.6796,-21.332 -1.312,-7.1276 -2.9905,-16.2597 -3.7286,-20.293 -0.7379,-4.0334 -1.0757,-16.6334 -0.75,-28 0.5136,-17.9231 1.0646,-22.0522 4.1446,-31.1016 3.9831,-11.7032 7.1735,-18.3774 13.5996,-28.4531 l 4.3926,-6.8887 8.1347,2.5333 c 10.0644,3.1324 30.4908,4.9279 50.709,4.4589 15.1356,-0.3512 15.4057,-0.3041 21.0137,3.6407 20.3408,14.3084 63.00145,26.4765 92.82425,26.4765 8.7304,0 10.1836,0.3294 10.3164,2.334 0.069,1.0429 0.1186,1.579 0.2168,1.6035 8e-4,2e-4 0.01,0 0.01,0 0,0 0,0 0,0 0.1046,-0.01 0.2657,-0.5633 0.5528,-1.6699 0.5195,-2.0022 1.5952,-2.2769 6.5117,-1.666 3.2393,0.4025 8.7393,1.0752 12.2226,1.4941 24.0075,2.8871 54.0832,16.7306 71.125,32.7383 2.635,2.4751 10.6456,9.8807 17.8028,16.457 14.654,13.4646 21.6779,23.9843 29.4043,44.043 3.6187,9.3947 8.6679,28.1001 8.6679,32.1113 0,0.6888 -3.7606,-0.045 -15.6308,-3.0527 -8.7238,-2.2104 -19.2126,-1.8557 -28.8614,0.9746 -7.96,2.335 -19.8262,14.7886 -23.4707,24.6328 -5.3364,14.4138 -1.6112,38.0149 7.5606,47.9063 5.1983,5.6061 6.5613,2.7175 3.7031,-7.8418 -2.0266,-7.4866 -2.1442,-9.8382 -0.7949,-15.8672 1.8852,-8.4241 8.9411,-16.1905 16.6406,-18.3164 6.5117,-1.798 9.4656,-0.698 12.8555,4.7871 6.4863,10.495 19.311,13.1859 28.7617,6.0351 3.6434,-2.7567 6.7851,-3.974 10.3242,-4 6.1684,-0.045 9.9475,-1.8101 13.8867,-6.4863 2.8786,-3.4172 3.096,-3.4602 6.668,-1.3574 4.7221,2.7801 8.3555,9.767 8.3555,16.0781 0,4.5637 -0.3764,5.0461 -4.9981,6.3633 -2.75,0.7838 -7.7,1.7489 -11,2.1465 -20.1509,2.4281 -31.7774,8.0796 -40.0136,19.4492 -4.9735,6.8657 -7.7136,15.2433 -5.6582,17.2988 2.2568,2.2568 14.5706,-1.3288 22.7285,-6.6191 3.8806,-2.5165 7.3019,-4.3288 7.6035,-4.0273 0.3015,0.3015 -0.4624,3.3569 -1.6973,6.791 -3.262,9.0712 -2.3252,9.5749 18.7676,10.0898 15.1236,0.3691 18.4488,0.064 23.6035,-2.168 9.2565,-4.0075 17.6714,-12.3324 23.3047,-23.0527 9.9224,-18.8822 11.6624,-37.0996 4.8066,-50.3555 -4.6918,-9.0718 -6.18,-13.9465 -7.9941,-26.1875 -1.9819,-13.3729 -5.0054,-22.5988 -8.9355,-27.2695 -4.0095,-4.765 -6.1273,-4.9926 -13.1426,-1.416 -2.7881,1.4215 -5.132,2.4565 -5.3028,2.3437 0,0 0,0 0,0 0,0 0,0 0,0 0,0 0,0 0,0 0,0 0,0 0,0 0,0 0,0 0,0 0,0 0,0 0,0 -0.067,-0.1722 -2.9909,-4.0555 -6.5,-8.6308 -10.4115,-13.5748 -15.8269,-27.5922 -20.0879,-52 -3.8913,-22.2894 -13.8768,-34.4575 -34.1387,-41.6016 -16.766,-5.9114 -45.8478,-23.8642 -57.8027,-35.6836 -6.4663,-6.393 -19.5313,-26.0495 -19.5313,-29.3848 0,-2.4202 -5.71,-13.349 -9.8945,-18.9375 -1.8913,-2.5258 -3.4262,-5.2258 -3.4102,-6 0.016,-0.7742 2.4854,-3.1459 5.4883,-5.2714 3.0029,-2.1255 11.1462,-8.5907 18.0957,-14.3672 6.9495,-5.7764 14.5304,-11.4098 16.8457,-12.5176 2.3153,-1.1078 6.009,-3.0072 8.209,-4.2207 2.2,-1.2135 7.5615,-2.4721 11.916,-2.7969 6.034,-0.4501 8.7305,-1.3592 11.334,-3.8242 1.8789,-1.7788 5.3295,-4.0525 7.668,-5.05274 3.7629,-1.6095 4.8111,-1.53327 9.1133,0.66014 4.6041,2.3473 5.0986,2.3589 9.3808,0.2305 2.4867,-1.23595 4.5367,-3.0043 4.5547,-3.9297 0.043,-2.2307 10.5001,-0.7148 13.5938,1.9707 1.9725,1.7122 2.3947,1.6208 3.6875,-0.79492 0.8229,-1.5375 2.2776,-2.41391 3.3359,-2.00781 1.0422,0.4 2.4949,-0.43295 3.2656,-1.87305 1.3737,-2.5669 2.8024,-2.67022 11.7598,-0.85352 1.6189,0.3283 4.4672,2.00782 6.3281,3.73242 4.2867,3.97288 15.9169,5.68098 20.0859,2.94922 1.5395,-1.0087 4.4152,-1.52573 6.3887,-1.14843 2.4759,0.4733 3.5916,0.12058 3.6016,-1.13672 0.01,-1.0022 2.0898,-3.83959 4.6269,-6.30469 l 4.6133,-4.48047 0.8594,5.37305 c 0.8489,5.3086 0.9183,5.36364 5.707,4.65234 2.6658,-0.3959 5.568,-1.69632 6.4512,-2.89062 3.0035,-4.06145 7.667,-8.17188 9.2715,-8.17188 0.8797,0 2.5603,0.96071 3.7344,2.13477 1.3613,1.36136 3.2876,1.8456 5.3183,1.33593 2.4551,-0.61621 3.8016,0.0398 5.8789,2.86524 2.4872,3.3831 2.8289,3.48689 4.4434,1.36719 1.1062,-1.4523 3.4642,-2.2536 6.416,-2.1836 2.5667,0.061 5.9578,-0.31097 7.5371,-0.82617 2.232,-0.7282 3.0769,-0.28954 3.7949,1.97266 1.0017,3.1563 9.169,7.2713 12.1563,6.125 1.0144,-0.3892 1.8437,-1.59022 1.8437,-2.66992 0,-3.3766 2.5537,-3.738 6.1934,-0.875 4.6301,3.642 5.8066,3.47492 5.8066,-0.83008 v -3.58594 l 2.7188,2.91797 c 3.2942,3.5358 2.8918,3.52471 8.25,0.25781 7.1147,-4.33787 7.5265,-3.8476 6.7148,7.99412 -0.4384,6.3963 -0.2204,10.666 0.543,10.666 1.7496,0 7.1074,-7.4383 7.1074,-9.8672 0,-1.0863 0.6007,-2.34558 1.334,-2.79878 0.7333,-0.4532 1.332,0.0419 1.332,1.09958 0,1.0578 1.196,2.2368 2.6582,2.6192 2.1547,0.5634 2.5099,1.4466 1.8672,4.6601 -0.9742,4.8713 0.6172,6.0134 5.8379,4.1934 4.1289,-1.4393 5.6367,-5.0046 5.6367,-13.32618 0,-4.2582 2.1729,-6.2724 4.3828,-4.0625 2.1405,2.1405 4.9512,1.8232 4.9512,-0.5586 0,-1.123 0.9,-2.38649 2,-2.80859 1.1,-0.4221 2,-2.20412 2,-3.95899 0,-2.51451 0.7071,-3.1914 3.334,-3.1914 4.844,0 5.3023,0.34758 4.8672,3.66797 -0.4461,3.40419 1.765,4.08176 2.9805,0.91406 1.3646,-3.55628 3.4843,-0.68201 3.4843,4.72265 0,2.83011 0.3654,6.09388 0.8106,7.25388 1.3362,3.4823 3.1894,2.3837 3.1894,-1.89059 0,-4.639 1.3276,-5.11899 3.6914,-1.33399 2.5453,4.07568 4.3086,3.18928 4.3086,-2.16406 0,-4.1421 0.2849,-4.59332 2,-3.16992 1.1,0.913 2,3.31604 2,5.33984 0,3.65202 0.036,3.66732 4.875,2.00391 2.8189,-0.9691 5.6506,-3.15208 6.711,-5.17578 2.3484,-4.4818 4.1248,-4.45705 4.6601,0.0644 0.6359,5.3722 3.4648,5.33471 4.4766,-0.0586 0.4836,-2.5662 0.4826,-5.30502 0,-6.08594 -1.5114,-2.44551 1.245,-1.54685 3.5644,1.16211 1.216,1.42009 2.4005,4.82455 2.6309,7.56445 0.583,6.93341 3.2483,7.17161 5.2559,0.4707 1.9295,-6.44 7.2769,-10.97235 9.2558,-7.8457 0.6596,1.042 1.2552,4.59453 1.3242,7.89453 0.069,3.30008 0.4291,5.25068 0.7989,4.33398 0.3699,-0.9167 2.6408,-1.666 5.0468,-1.666 3.9352,0 4.5796,-0.57028 6.4278,-5.66798 1.1301,-3.1167 2.4449,-7.46601 2.9218,-9.66601 3.8544,-17.78024 6.4086,-18.07639 5.168,-0.59961 -0.6284,8.85289 -0.435,11.93359 0.75,11.93359 0.8786,0 2.396,-1.8978 3.3711,-4.2168 1.7435,-4.14674 1.7988,-4.16904 3.3359,-1.29687 2.3047,4.3062 4.0862,2.20755 4.1582,-4.89844 l 0.064,-6.25586 2.0332,5.79492 c 1.1164,3.18719 1.6961,6.66391 1.2891,7.72461 -0.5996,1.5624 0.2053,1.75362 4.2402,1.01172 5.686,-1.0454 6.93,-2.38398 6.959,-7.48828 0.015,-2.66988 0.5484,-3.42271 2.0215,-2.85742 1.396,0.53571 2,-0.10027 2,-2.10352 0,-1.57846 1.5225,-4.39366 3.3847,-6.25586 l 3.3868,-3.38476 2.6132,3.32422 c 1.4378,1.82787 2.6238,5.02699 2.6348,7.11132 0.011,2.08434 0.6119,4.69102 1.334,5.79102 1.1671,1.77778 1.458,1.77778 2.625,0 0.7222,-1.1 1.3258,-4.1013 1.3398,-6.66797 l 0.024,-4.66601 2.5918,4.24804 c 3.0855,5.06035 7.5455,7.91662 8.4453,5.40821 0.3267,-0.91081 0.047,-2.71909 -0.6211,-4.01758 -1.2813,-2.49025 -0.4554,-4.97266 1.6543,-4.97266 0.69,0 1.2539,2.1013 1.2539,4.66797 0,3.20396 0.6098,4.66602 1.9473,4.66602 2.6553,0 7.3867,-5.28514 7.3867,-8.25196 0,-1.32839 0.6785,-2.41406 1.5078,-2.41406 0.9785,0 1.2414,1.63739 0.75,4.66602 -0.8149,5.02156 -1.1174,4.85349 9.3437,5.22851 1.6152,0.0579 3.802,1.28172 4.8575,2.7207 1.6258,2.21645 2.2427,2.34728 4.0449,0.85157 1.17,-0.97101 3.0043,-1.42887 4.0761,-1.01758 2.3195,0.89006 3.9734,-3.26646 2.7872,-7.00391 -1.2296,-3.87415 1.3617,-4.49666 3.0742,-0.73828 1.7379,3.81443 5.0859,4.35223 5.9726,0.95899 0.3751,-1.43555 0.6687,-0.92189 0.7637,1.33398 0.1613,3.82401 2.5011,4.78605 5.1641,2.12305 1.1691,-1.1691 2.0964,-1.08955 3.8183,0.33203 1.334,1.10134 2.468,1.32734 2.7442,0.54492 0.2588,-0.73334 1.3509,-2.83464 2.4277,-4.66797 1.0768,-1.83333 2.3369,-4.38267 2.8008,-5.66601 1.0606,-2.93393 4.5332,-3.07006 4.5332,-0.17774 0,1.47468 0.8141,1.94228 2.5801,1.48047 1.492,-0.39016 2.8799,0.10662 3.291,1.17773 1.4446,3.76451 5.8608,2.03692 7.5019,-2.93554 2.393,-7.25131 3.8624,-3.62835 2.3164,5.71289 -0.7517,4.54167 -0.9743,9.2817 -0.4941,10.5332 0.7846,2.0446 1.208,1.96018 4.1719,-0.82422 2.5364,-2.38291 3.2988,-4.44969 3.2988,-8.94531 0,-3.55799 0.5226,-5.52298 1.334,-5.02148 0.7334,0.45323 1.334,1.98872 1.334,3.41211 0,1.69908 0.9153,2.58789 2.666,2.58789 2.0741,0 2.666,0.88889 2.666,4 0,4.33542 2.5496,5.31056 6.1035,2.33398 5.1191,-4.28731 5.8965,-5.41075 5.8965,-8.50781 0,-4.28078 1.7391,-3.14107 4.6875,3.07226 2.5843,5.44584 2.6138,5.43473 8.9102,-3.63672 l 2.2636,-3.26171 0.068,6.38086 c 0.065,5.95871 0.2478,6.28598 2.7383,4.95312 1.4666,-0.78494 2.666,-2.30666 2.666,-3.38086 0,-3.27219 2.4775,-2.18525 4.666,2.04688 2.2601,4.37062 4.3212,5.11772 5.5176,2 0.4221,-1.1 1.9047,-2 3.2929,-2 1.6431,0 2.5235,-0.93894 2.5235,-2.69141 0,-2.16443 0.6181,-2.53838 3.1523,-1.90234 2.4382,0.61196 3.3156,0.16486 3.875,-1.97461 0.9779,-3.73925 3.6387,-3.51739 3.6387,0.30273 0,3.66523 2.3205,6.3144 4.7227,5.39258 1.0441,-0.40065 1.9068,0.52642 2.1718,2.33398 0.688,4.69283 3.0451,4.36207 5.4922,-0.76953 1.2305,-2.58034 2.7779,-4.6914 3.4375,-4.6914 0.6597,0 1.5289,-1.26034 1.9317,-2.80079 1.165,-4.45483 3.5781,-1.56089 3.5781,4.29102 0,3.4226 0.5076,5.02042 1.416,4.45898 2.3337,-1.44227 3.9642,-7.18179 4.1035,-14.4414 0.072,-3.76235 0.3969,-7.29176 0.7207,-7.84375 1.0293,-1.75464 5.5565,1.55534 6,4.38672 0.2346,1.49733 0.9732,2.64353 1.6406,2.54883 0.6674,-0.0948 1.7531,0.79543 2.4141,1.97656 1.8902,3.3776 3.7051,1.09791 3.7051,-4.6543 0,-2.89005 0.45,-5.25014 1,-5.24414 1.8607,0.0194 3.8709,6.17607 2.8594,8.75781 -1.4299,3.64224 -1.4278,13.89844 0,13.89844 0.6574,0 3.1159,-2.18997 5.4648,-4.86523 3.2139,-3.66044 4.544,-4.42423 5.3711,-3.08594 0.9065,1.46683 1.4658,1.47378 3.1992,0.0352 1.8464,-1.53237 2.1016,-1.16643 2.1016,3.00782 0,2.61318 0.5299,5.07732 1.1758,5.47656 0.646,0.39923 3.4287,-1.06657 6.1836,-3.25586 2.7548,-2.18928 6.0861,-3.98047 7.4023,-3.98047 2.1212,0 2.3365,1.06145 1.8984,9.33399 -0.395,7.4585 -0.1086,9.33399 1.4239,9.33399 1.0548,0 1.916,-0.53441 1.916,-1.18751 0,-0.6531 2.1148,-1.43453 4.6992,-1.73633 5.4698,-0.6385 9.7572,2.60219 7.0391,5.32034 -2.2898,2.2902 -0.4902,3.3129 4.0644,2.3125 5.9311,-1.3027 15.7023,-8.25893 18.9258,-13.47463 3.2989,-5.33772 5.9009,-4.70942 4.7305,1.14257 -0.7728,3.8642 -0.6969,3.94979 1.6367,1.83789 3.7882,-3.4283 5.1264,-2.73391 8.4707,4.39649 3.2957,7.02698 5.4129,8.05908 9.3047,4.53708 2.2444,-2.0312 2.4841,-2.0072 3.4375,0.334 1.2156,2.9852 8.4622,3.6735 10.0918,0.959 1.6769,-2.7933 4.705,-2.0762 5.1738,1.2246 0.3513,2.4738 1.1223,2.9174 4.3945,2.5313 2.1823,-0.2575 5.679,-1.9069 7.7696,-3.6661 3.8044,-3.2011 10.2617,-4.375 10.2617,-1.8652 0,0.7333 -0.5367,1.334 -1.1934,1.334 -1.5814,0 -6.883,10.795 -6.0019,12.2207 0.3778,0.6113 3.329,-0.3658 6.5605,-2.1699 3.3631,-1.8776 6.2148,-2.7313 6.668,-1.9981 0.4354,0.7046 1.9766,1.2793 3.4258,1.2793 2.1918,0 2.404,0.4347 1.2558,2.5801 -0.7591,1.4184 -1.3808,3.8402 -1.3808,5.3809 0,2.3563 0.4106,2.5809 2.58,1.4199 1.4184,-0.7591 3.6885,-1.3809 5.045,-1.3809 1.3565,0 6.4503,-2.9993 11.3203,-6.666 4.8699,-3.6667 9.3952,-6.666 10.0566,-6.666 0.6614,0 0.9382,1.8 0.6153,4 -0.836,5.6964 1.1815,4.9602 6.4003,-2.334 l 4.5313,-6.334 1.1641,7.0156 c 0.6395,3.8579 1.7175,6.6715 2.3964,6.252 0.6788,-0.4195 0.9255,-2.0765 0.5489,-3.6816 -0.6141,-2.6166 1.2666,-7.7649 2.2695,-6.2129 0.2232,0.3454 1.3062,2.3803 2.4062,4.5215 3.0049,5.8491 4.5049,5.4798 7.6114,-1.8731 3.4589,-8.1869 6.111,-8.9279 4.9023,-1.3691 -0.8261,5.1663 1.3111,13.3476 3.4863,13.3476 0.5554,0 1.7548,-1.8 2.6661,-4 1.8956,-4.5764 1.828,-4.545 5.3183,-2.3652 2.2019,1.3751 2.9296,1.2169 4.6055,-1 1.8258,-2.4154 1.9942,-1.8409 2.0332,6.9531 0.038,8.5599 1.4783,12.7561 3.6367,10.5977 0.4119,-0.4119 1.8074,-3.9227 3.1016,-7.8008 1.9268,-5.7737 2.5361,-6.5684 3.3613,-4.3848 1.5041,3.9795 6.1186,8.668 8.5332,8.668 1.169,0 3.1481,-1.6514 4.3984,-3.668 l 2.2735,-3.666 0.057,5.334 c 0.031,2.9334 0.6585,6.232 1.3946,7.332 1.1722,1.7518 1.5553,1.7165 3.0937,-0.289 1.6145,-2.1047 1.9972,-1.9639 4.7285,1.7304 3.3084,4.4749 7.304,4.3883 10.627,-0.2304 2.4458,-3.3995 4.1664,-3.2122 4.1914,0.457 0.041,5.9539 1.8392,6.3906 6.5332,1.5898 5.2269,-5.3458 5.6059,-5.4329 8.7109,-2.0019 2.1769,2.4055 2.1901,2.894 0.2051,6.873 -2.866,5.7451 -2.6955,7.4057 0.8633,8.3965 2.3472,0.6535 3.9693,-0.2556 7.4472,-4.1777 2.445,-2.7572 5.2494,-4.8474 6.2325,-4.6446 0.9831,0.2028 2.1676,-0.2472 2.6328,-1 1.6226,-2.6254 3.3554,-1.3406 3.3554,2.4883 0,4.0816 3.1819,6.4904 4.9571,3.752 0.5873,-0.906 1.3334,2.13 1.709,6.9531 0.6975,8.9586 3.2387,12.2673 4.7617,6.1992 0.6241,-2.4864 1.7379,-3.4277 4.0508,-3.4277 1.7538,0 3.1875,-0.6007 3.1875,-1.334 0,-0.7333 0.6693,-1.334 1.4882,-1.334 0.9018,0 1.1606,1.1829 0.6563,3 -2.544,9.1664 -2.6992,8.639 2.75,9.3457 3.4022,0.4412 5.5977,0.052 6.582,-1.1699 0.8123,-1.008 3.3111,-2.2001 5.5528,-2.6484 l 4.0761,-0.8145 0.9336,7.4766 c 0.5138,4.1125 1.268,7.4785 1.6758,7.4785 0.4077,0 1.8266,-0.9817 3.1524,-2.1816 2.2317,-2.0197 2.473,-2.0197 3.248,0 1.3805,3.5975 3.0407,2.4824 4.0117,-2.6934 l 0.9141,-4.8731 1.8769,3.5801 c 1.0318,1.9693 2.448,3.2266 3.1465,2.7949 0.6985,-0.4317 1.2695,0.1498 1.2695,1.293 0,1.1433 0.9,2.0801 2,2.0801 1.1,0 2,0.9 2,2 0,2.5105 3.7758,2.597 6.5606,0.1504 1.2854,-1.129 3.7772,-1.5913 6.3984,-1.1875 4.2491,0.6547 4.2734,0.6989 2.334,4.4492 -2.9588,5.7217 -2.5172,6.2492 4.6504,5.5605 l 6.6094,-0.6347 -0.7754,4.7734 c -0.4264,2.6249 -0.4017,5.7441 0.055,6.9336 0.6818,1.7767 1.4637,1.4101 4.3808,-2.0566 2.9921,-3.5559 3.7354,-3.8888 4.7246,-2.1211 0.7062,1.2618 0.6211,3.1314 -0.2148,4.6933 -1.9926,3.7233 -1.8052,3.9971 2.2773,3.3282 6.1529,-1.0082 14.1859,-4.9016 17.0235,-8.252 2.1221,-2.5054 3.4581,-2.983 6.332,-2.2617 2.9179,0.7324 3.6445,1.6815 3.6445,4.7695 0,4.4129 1.1567,4.7026 6.9004,1.7324 l 4.1036,-2.121 -0.6192,4.2207 c -0.5519,3.7601 -0.3157,4.1366 2.1641,3.4453 8.6615,-2.4147 8.554,-2.4254 9.0097,0.7929 0.3359,2.3719 1.1588,3.0186 3.4414,2.7012 3.455,-0.4804 3.8659,1.8271 1,5.6133 -4.2717,5.6433 1.9821,6.5589 7.7637,1.1367 l 3.9082,-3.666 -0.9297,5.1719 c -0.9008,5.013 -0.822,5.1541 2.4981,4.5195 2.3223,-0.444 3.4258,-0.07 3.4258,1.1602 0,0.9983 0.628,1.8144 1.3945,1.8144 0.8578,0 1.0723,1.7111 0.5586,4.4492 l -0.8359,4.4492 6.4414,-0.3007 c 3.5425,-0.1653 7.7914,-0.7375 9.4414,-1.2715 3.3436,-1.0821 3.6948,0.01 1.6992,5.2539 -1.1238,2.9558 -0.9422,3.4199 1.334,3.4199 1.4485,0 2.6328,-0.6007 2.6328,-1.334 0,-0.7334 0.6006,-1.332 1.334,-1.332 0.7333,0 1.3339,0.9 1.3339,2 0,2.834 3.1537,2.4782 6.0098,-0.6777 2.302,-2.5438 2.5499,-2.5623 4.9668,-0.375 1.951,1.7656 2.3483,3.3446 1.7051,6.7734 -0.7983,4.2552 -0.6583,4.4563 2.9062,4.1738 2.0598,-0.163 4.9454,-0.2052 6.4121,-0.092 2.2414,0.1731 2.0053,0.6093 -1.4765,2.7324 -3.8485,2.3468 -6.7341,7.5677 -4.7324,8.5625 0.4812,0.2388 3.9429,0.3367 7.6933,0.2168 6.067,-0.194 6.7467,0.059 6.1641,2.2872 -0.3602,1.3772 -2.7314,3.3711 -5.2695,4.4316 -9.2742,3.8751 -2.1458,7.5527 11.8359,6.1055 6.4593,-0.6686 10.0639,-1.9229 14.8867,-5.1778 3.5001,-2.3622 6.635,-4.2949 6.9649,-4.2949 0.3299,0 0.5996,2.0993 0.5996,4.666 0,2.5666 0.3696,4.668 0.8203,4.668 0.4508,0 3.7651,-1.604 7.3672,-3.5645 4.9234,-2.6796 6.9292,-3.186 8.0781,-2.0371 1.1494,1.149 1.1404,2.3809 -0.035,4.961 -0.8601,1.8878 -1.5644,4.0043 -1.5644,4.7031 0,1.9334 4.4988,1.5159 7.4121,-0.6875 2.8609,-2.1639 12.5879,-2.7719 12.5879,-0.7871 0,0.6901 -0.5988,1.6249 -1.3321,2.0781 -0.7333,0.4532 -1.3339,1.4715 -1.3339,2.2637 0,0.9423 2.2754,1.1719 6.58,0.6621 4.5075,-0.5339 6.7641,-0.2773 7.1661,0.8144 0.4486,1.2187 1.0025,1.2003 2.3535,-0.074 2.5464,-2.4023 3.9004,-2.0553 3.9004,1 0,3.9288 2.0568,3.2771 7.3476,-2.332 l 4.7168,-5 -0.8984,3.8848 c -0.7521,3.2551 -0.5417,3.7499 1.3008,3.0429 3.0656,-1.1764 2.8524,3.5053 -0.4961,10.8848 -2.7434,6.0458 -3.3505,9.5598 -1.6368,9.4668 0.55,-0.03 3.0763,-1.8298 5.6153,-4 6.8496,-5.8547 8.3216,-5.2927 7.2519,2.7715 l -0.8906,6.7168 4.5215,-0.4981 c 2.4877,-0.2741 5.8301,-1.1968 7.4258,-2.0508 5.9388,-3.1784 10.9026,-1.2827 6.4082,2.4473 -1.1,0.9129 -2,2.5923 -2,3.7324 0,1.1402 -1.9009,3.6597 -4.2246,5.5996 -4.3955,3.6696 -4.2829,7.4321 0.1797,6.0157 1.4351,-0.4554 2.6978,0.022 3.1464,1.1914 0.6134,1.5986 1.4782,1.6774 4.7735,0.4336 4.9512,-1.8689 5.7007,-1.2204 4.3828,3.7832 -0.5662,2.1514 -0.8143,5.2601 -0.5508,6.9101 0.4035,2.5259 1.3139,3 5.7637,3 7.7631,0 16.9508,-5.3058 25.7754,-14.8867 5.7092,-6.1985 7.519,-7.5595 6.8008,-5.1133 -1.213,4.1311 -7.34,13.334 -8.877,13.334 -1.237,0 -5.1699,8.6264 -5.1699,11.3399 0,2.4066 6.0933,3.2419 9.7637,1.3378 1.713,-0.8887 4.9045,-1.3525 7.0937,-1.0312 3.5893,0.5268 3.9217,0.9844 3.3828,4.6562 l -0.5976,4.0704 6.7851,-0.6504 c 6.3049,-0.6058 6.6909,-0.4767 5.4512,1.8398 -0.7337,1.3709 -1.0063,3.0235 -0.6055,3.6719 0.9834,1.5913 11.5619,0.1599 14.0606,-1.9024 2.5401,-2.0965 5.3339,-1.1299 5.3339,1.8457 0,1.2589 0.6225,2.9113 1.3829,3.6719 0.9549,0.955 0.9549,2.5078 0,5.0195 -0.7606,2.0005 -1.3829,6.2985 -1.3829,9.5508 0,6.3428 1.5246,7.3315 6.8809,4.4649 2.4441,-1.308 2.6078,-1.146 1.7109,1.6679 -1.7928,5.625 -1.3658,6.8153 2.6446,7.3829 2.5917,0.3668 4.2946,-0.1463 5.0664,-1.5254 1.484,-2.6514 5.0293,-2.7052 5.0293,-0.076 0,1.1 0.9,2 2,2 1.1,0 2,-0.6006 2,-1.334 0,-0.7333 0.5491,-1.332 1.2187,-1.332 0.6835,0 0.5873,1.6675 -0.2187,3.8027 -0.7895,2.0918 -1.0502,4.8063 -0.5801,6.0313 0.7845,2.0444 1.2672,2.0575 5.8848,0.1699 2.7666,-1.131 6.3631,-3.6836 7.9922,-5.6719 3.2668,-3.9871 10.3722,-5.3194 11.58,-2.1719 0.8344,2.1745 5.2478,2.4023 8.8789,0.459 2.1571,-1.1544 2.5782,-0.9357 2.5782,1.334 0,1.7455 0.8739,2.7129 2.4511,2.7129 2.9157,0 12.0971,-6.6796 12.1661,-8.8516 0.027,-0.8355 1.167,-2.9007 2.5332,-4.5879 l 2.4843,-3.0664 2.084,4.586 c 1.1458,2.5226 2.4467,6.4109 2.8926,8.6406 0.4458,2.2296 2.0426,6.0799 3.5488,8.5566 3.6643,6.0254 5.0072,3.5804 4.2578,-7.7558 -0.5434,-8.2213 -0.4364,-8.6686 1.5098,-6.25 2.3401,2.9082 4.7214,10.4841 4.7324,15.0625 0.011,4.4037 1.5542,3.6176 5.6738,-2.8887 2.7542,-4.35 3.6661,-7.4701 3.6661,-12.5391 0,-3.7116 0.6006,-7.119 1.3339,-7.5722 0.7333,-0.4532 1.3321,-1.8504 1.3321,-3.1035 0,-1.2532 1.5528,-4.5608 3.4492,-7.3516 3.1131,-4.5813 3.609,-4.8529 5.1152,-2.793 0.9175,1.2548 2.5167,1.9449 3.5528,1.5352 1.3877,-0.5487 1.2696,-0.7726 -0.4493,-0.8496 -1.3017,-0.059 -2.3235,-1.1358 -2.3125,-2.4375 0.016,-1.8177 0.2731,-1.9346 1.1661,-0.5254 0.7048,1.1123 1.463,1.2941 1.9707,0.4726 0.4541,-0.7348 -0.07,-1.6791 -1.166,-2.0996 -1.0959,-0.4205 -1.9922,-1.6836 -1.9922,-2.8066 0,-3.2515 -3.533,-2.3701 -6.5137,1.625 l -2.7344,3.666 -0.043,-3.5039 c -0.025,-2.0423 1.0719,-4.2658 2.627,-5.332 2.3129,-1.5856 3.5251,-5.5806 3.9082,-12.877 0.068,-1.2908 0.7385,-1.3666 2.7227,-0.3047 2.2403,1.199 2.7576,0.9173 3.4609,-1.8847 1.2259,-4.8844 -0.097,-16.2627 -3.0527,-26.2598 -2.833,-9.5817 -7.5506,-17.972 -15.375,-27.3438 -2.75,-3.2938 -5,-6.7155 -5,-7.6035 0,-0.888 -3.2955,-7.0018 -7.3243,-13.5859 -4.0289,-6.584 -7.3339,-13.1819 -7.3339,-14.6621 0,-1.4801 -2.4085,-5.5948 -5.3418,-9.1445 -2.9334,-3.5498 -5.334,-7.2487 -5.334,-8.2188 0,-2.4903 -19.8117,-22.1936 -28.2696,-28.1152 -3.8849,-2.7198 -10.3106,-7.3954 -14.2812,-10.3887 -3.9705,-2.9932 -10.2705,-7.5871 -14,-10.209 -8.6621,-6.0896 -41.3277,-25.0531 -47.4492,-27.5469 -2.5666,-1.0456 -16.6654,-7.5081 -31.3321,-14.3593 -27.7906,-12.9817 -36.9446,-16.6613 -68,-27.3438 -29.5677,-10.1708 -43.2768,-15.23484 -53.7285,-19.84374 -5.351,-2.3595 -18.5517,-7.24851 -29.334,-10.86523 -10.7824,-3.61673 -19.6054,-6.63363 -19.6054,-6.70313 0,-0.0695 -1.1994,-0.33979 -2.666,-0.60156 -1.4667,-0.26177 -8.6024,-2.27868 -15.8575,-4.48047 -9.6939,-2.94193 -14.3464,-5.1227 -17.5507,-8.22851 -4.1599,-4.03189 -7.8945,-4.47016 -6.4707,-0.75977 0.4477,1.16662 -3.6719,0.31974 -12.3926,-2.54687 -7.1841,-2.36154 -15.1619,-4.67305 -17.7285,-5.13672 -6.5227,-1.17832 -22.0562,-5.76968 -30.0254,-8.875 -3.6808,-1.4343 -8.0877,-2.60743 -9.793,-2.60743 -4.9787,10e-6 -21.4836,-5.21223 -30.4648,-9.61914 -5.9817,-2.93513 -10.8932,-4.24963 -17.668,-4.73437 -7.4608,-0.53382 -9.3864,-1.11322 -9.4024,-2.82617 -0.016,-1.70459 -0.2579,-1.78008 -1.1582,-0.35938 -0.9211,1.45339 -4.0282,0.90551 -16.3125,-2.875 -19.4066,-5.97244 -29.3524,-8.8144 -38.5097,-11.0039 -11.6016,-2.77396 -31.8807,-8.35219 -33.0996,-9.10547 -0.6107,-0.37744 -5.0488,-1.31517 -9.8614,-2.08399 -4.8126,-0.76882 -13.3751,-2.95124 -19.0273,-4.84961 -5.6521,-1.89837 -11.5352,-3.12318 -13.0742,-2.7207 -1.5391,0.40247 -8.2292,-0.50031 -14.8672,-2.00781 -34.5283,-7.84144 -64.5399,-13.5256 -84.0703,-15.92188 -5.8666,-0.71981 -15.4654,-2.18987 -21.3321,-3.26562 -5.8667,-1.07574 -21.1445,-3.50721 -33.9511,-5.4043 -12.8065,-1.89709 -25.0221,-4.34775 -27.1446,-5.44531 -2.1809,-1.1278 -5.2624,-1.64173 -7.0878,-1.1836 -1.7765,0.44586 -12.0629,-0.38096 -22.8575,-1.83593 -10.7946,-1.45497 -27.1263,-2.97538 -36.2929,-3.37891 -32.9579,-1.45086 -60.9189,-4.63209 -75.5879,-8.59961 -2.7928,-0.75538 -15.5788,-2.62243 -28.4121,-4.14844 -23.7535,-2.82452 -28.6127,-3.65665 -22.6661,-3.88086 2.4051,-0.0907 2.8286,-0.44601 1.5196,-1.27539 -0.9979,-0.63221 -2.7979,-0.90188 -4,-0.59961 -1.2022,0.30228 -6.6875,-0.60047 -12.1875,-2.00585 -9.6222,-2.4587 -10.0309,-2.72349 -10.8242,-7.04493 l -0.8243,-4.49218 -0.1757,4.14453 c -0.1716,4.05035 -0.3617,4.16738 -8.5079,5.23437 -18.9297,2.47942 -55.3425,0.85162 -74.0195,-3.30859 -6.7574,-1.50521 -14.844,-2.73633 -17.9707,-2.73633 -3.1268,0 -9.8054,-1.17884 -14.8418,-2.61914 -5.0365,-1.44029 -12.8356,-2.97017 -17.3301,-3.40039 -17.5285,-1.67786 -25.0313,-3.64625 -26.2656,-6.89258 -0.75,-1.97282 -1.8671,-2.76327 -3.1894,-2.25586 -1.1193,0.42951 -1.728,1.27699 -1.3536,1.88281 0.3744,0.60581 0.067,1.47954 -0.6835,1.94336 -0.7506,0.46382 -1.6727,0.0569 -2.0489,-0.90625 -0.4539,-1.16204 -3.4816,-1.80143 -9,-1.89843 -5.9208,-0.10406 -10.5339,-1.15953 -16.0136,-3.66602 -4.2332,-1.93628 -9.0281,-3.5262 -10.6563,-3.5332 -4.9694,-0.0211 -26.9446,-4.8545 -54.2949,-11.94336 -33.4625,-8.67308 -34.4914,-9.02828 -39.8379,-13.67969 -2.9039,-2.52629 -5.4384,-3.67451 -7.1289,-3.23242 -4.9114,1.28436 -40.3379,-7.57551 -60.3653,-15.0957 -3.6667,-1.37681 -11.4673,-3.8153 -17.3339,-5.41993 -10.988,-3.0054 -54.1348,-17.2774 -70.6661,-23.375 -5.1333,-1.89344 -12.0339,-4.23943 -15.3339,-5.21289 -3.3,-0.97346 -12.7954,-4.85179 -21.1016,-8.61914 -8.3062,-3.76735 -17.0068,-7.17792 -19.334,-7.57812 -2.3271,-0.4002 -6.9305,-1.55269 -10.2305,-2.56055 -31.5792,-9.64472 -38.5483,-12.09424 -42.1269,-14.80859 -4.871,-3.69469 -5.8731,-3.86272 -5.8731,-0.98633 0,1.52254 -0.6759,1.86159 -2.3339,1.16992 -1.2834,-0.53535 -4.7724,-1.46093 -7.7539,-2.05664 -2.9816,-0.5957 -13.18105,-2.98541 -22.66615,-5.30859 -20.4576,-5.01064 -39.3368,-9.01921 -71.914,-15.27344 -13.2,-2.53416 -25.4988,-5.28886 -27.3321,-6.1211 -1.8333,-0.83224 -7.2333,-1.74738 -12,-2.0332 -4.7667,-0.28582 -15.2673,-1.72105 -23.3339,-3.18945 -8.0667,-1.46839 -18.0085,-3.26857 -22.0938,-4.00195 -28.8152,-5.1728 -106.9745,-7.31926 -148.9043,-4.0879 -11.5417,0.88944 -18.8496,0.9108 -21.0859,0.0606 -1.8825,-0.71571 -7.8837,-1.30078 -13.336,-1.30078 -6.5655,0 -9.914,-0.51665 -9.914,-1.5293 0,-1.08732 -2.8535,-1.28722 -9.8789,-0.69336 l -9.8789,0.83399 -1.3848,-3.97266 c -1.5622,-4.4812 -1.4628,-4.436 -6.0566,-2.68945 -2.1593,0.82096 -3.6567,0.82096 -4.1641,0 -1.4088,-2.27954 -3.2304,-1.36588 -4.0879,2.05078 -0.7838,3.12295 -4.5488,4.83476 -4.5488,2.06836 0,-0.69555 -1.3841,-2.7601 -3.0781,-4.58789 -2.5386,-2.7392 -4.3553,-3.33255 -10.334,-3.37695 -11.5366,-0.0856 -18.4082,1.23848 -19.2032,3.69921 -0.583,1.80464 -5.6698,5.69523 -10.3847,7.94336 -0.55,0.26225 -1,-1.44995 -1,-3.80273 0,-3.98579 -0.2565,-4.22528 -3.7754,-3.52148 l -3.7774,0.75585 0.9063,-5.9707 c 0.4983,-3.28324 0.4379,-6.25933 -0.1348,-6.61328 -0.5727,-0.35393 -4.96624,-0.34101 -9.76172,0.0273 -9.74653,0.74866 -11.45703,-0.52502 -11.45703,-8.5332 0,-2.24821 -0.5987,-4.08789 -1.33203,-4.08789 -0.73333,0 -1.33399,1.17203 -1.33399,2.60547 0,1.90834 -1.21367,2.83428 -4.5332,3.45703 -5.95376,1.11693 -9.59226,0.24581 -8.95117,-2.14258 1.75875,-6.55223 1.71238,-7.91992 -0.26758,-7.91992 -1.13449,0 -2.25394,-1.35 -2.48828,-3 -0.60936,-4.29058 -3.09717,-3.70657 -6.66797,1.56445 -3.84734,5.67923 -6.83272,6.99148 -5.83789,2.56641 2.49099,-11.08007 0.0712,-18.96289 -3.44922,-11.23633 -0.86157,1.89094 -1.91927,3.41949 -2.35156,3.39649 -2.10422,-0.11217 -5.88855,-7.58364 -6.47461,-12.78321 -0.36215,-3.21296 -1.22099,-5.84179 -1.90821,-5.84179 -0.68721,0 -3.30874,2.18426 -5.82617,4.85351 -4.97843,5.27867 -5.00943,5.2566 -5.14843,-3.48633 -0.0726,-4.56865 -0.64279,-6.07332 -2.42969,-6.42968 -1.43069,-0.28533 -2.33203,0.34656 -2.33203,1.63281 0,3.73026 -2.44753,2.22528 -4.18164,-2.57031 -2.31681,-6.40703 -5.15235,-6.08356 -5.15235,0.58789 0,7.15216 -1.70212,7.65381 -6.20312,1.82812 -2.08812,-2.70268 -10.17949,-11.25161 -17.98047,-18.99805 -11.55822,-11.4774 -16.87872,-15.61701 -28.74219,-22.36328 -12.61914,-7.17598 -19.25889,-9.83309 -41.11523,-16.45703 -6.58985,-1.99717 -28.23425,-3.88844 -43.95899,-3.83984 z"
       id="path2" />
  </g>
</svg>
