<?xml version="1.0" encoding="UTF-8" standalone="no"?>
<!-- Created with Inkscape (http://www.inkscape.org/) -->

<svg
   version="1.1"
   id="svg1"
   width="2644"
   height="1012"
   viewBox="0 0 2644 1012"
   sodipodi:docname="Achillobator_size_inspyrenet_bria.png"
   inkscape:export-filename="seal.svg"
   inkscape:export-xdpi="96"
   inkscape:export-ydpi="96"
   xml:space="preserve"
   xmlns:inkscape="http://www.inkscape.org/namespaces/inkscape"
   xmlns:sodipodi="http://sodipodi.sourceforge.net/DTD/sodipodi-0.dtd"
   xmlns="http://www.w3.org/2000/svg"
   xmlns:svg="http://www.w3.org/2000/svg"><defs
     id="defs1" /><sodipodi:namedview
     id="namedview1"
     pagecolor="#ffffff"
     bordercolor="#000000"
     borderopacity="0.25"
     inkscape:showpageshadow="2"
     inkscape:pageopacity="0.0"
     inkscape:pagecheckerboard="0"
     inkscape:deskcolor="#d1d1d1"><inkscape:page
       x="0"
       y="0"
       width="2644"
       height="1012"
       id="page2"
       margin="0"
       bleed="0" /></sodipodi:namedview><g
     inkscape:groupmode="layer"
     inkscape:label="Image"
     id="g1"><path
       style="fill:#000000;stroke-width:1.26117"
       d="m 1137.3376,813.03011 c -10.3019,-11.7331 -10.6629,-28.5937 -0.8393,-39.1936 4.6539,-5.0217 4.8508,-7.9977 1.163,-17.5835 -3.1939,-8.3016 -18.5054,-29.2182 -26.5757,-36.3041 -3.0379,-2.6673 -15.2729,-10.1373 -27.1889,-16.6 -31.6643,-17.1735 -38.5728,-22.0117 -58.235,-40.7843 -21.0358,-20.0842 -25.9925,-27.4509 -33.1561,-49.2781 -6.8421,-20.847 -8.967,-21.3296 -18.50682,-4.2038 l -6.7912,12.1912 1.043,22.701 c 0.8463,18.4173 0.3717,27.2485 -2.5145,46.7981 -3.8593,26.1408 -4.4006,43.7449 -1.8704,60.8218 3.0974,20.905 6.6552,60.4318 5.6703,62.9982 -0.8583,2.2368 -7.2593,2.5826 -47.8112,2.5826 -42.3474,0 -46.9732,-0.2736 -48.4226,-2.8634 -1.1742,-2.0983 -2.2074,-2.3949 -3.8671,-1.1107 -2.8405,2.1982 -14.8764,2.51 -14.8764,0.3853 0,-0.9207 -1.3504,-0.8516 -3.2525,0.1665 -4.9922,2.6718 -5.6604,2.1645 -4.5383,-3.4455 2.6103,-13.0523 12.9556,-19.9147 31.5026,-20.8969 23.514,-1.2452 32.0182,-11.6263 35.2395,-43.0168 1.9975,-19.4662 1.0055,-26.3476 -6.5559,-45.4742 -6.0181,-15.2234 -7.4778,-22.0206 -12.0449,-56.0883 -1.9827,-14.7891 -3.7903,-27.0747 -4.0172,-27.3015 -0.2269,-0.2269 -7.1704,0.427 -15.4301,1.4531 -19.6663,2.443 -71.9408,0.8895 -95.372,-2.8345 -9.9753,-1.5852 -18.5802,-2.4389 -19.1223,-1.8969 -1.327,1.327 2.2414,20.9928 6.5526,36.1121 3.1422,11.02 3.2761,13.1682 1.3108,21.0195 -1.384,5.5294 -2.5902,26.6773 -3.28,57.5103 -0.8907,39.8092 -1.5767,49.6186 -3.7361,53.4121 -1.9858,3.4885 -2.3077,6.4226 -1.2914,11.7708 1.6086,8.4658 0.2946,18.97 -2.6823,21.4405 -1.3006,1.0795 -9.828,1.5832 -21.8913,1.293 -25.1045,-0.6039 -25.2815,-0.8067 -17.4529,-20.0182 5.6975,-13.9817 5.7368,-14.2603 5.1925,-36.7894 -0.5698,-23.5791 -2.4051,-35.6767 -9.3338,-61.5251 -2.2531,-8.4054 -4.9271,-22.4043 -5.9424,-31.1089 -1.7009,-14.5838 -2.8464,-17.8702 -14.5891,-41.8543 -9.0063,-18.3956 -13.1452,-25.2989 -14.1145,-23.5419 -2.6613,4.8245 -11.6113,37.9176 -12.724,47.0473 -0.7513,6.1651 -3.9327,14.737 -9.5421,25.7102 -7.4117,14.4988 -9.5455,17.2383 -17.894,22.9746 -9.6806,6.6514 -24.5223,21.3197 -44.3189,43.801 -6.1081,6.9365 -14.1992,15.8911 -17.9805,19.8994 -6.4159,6.8011 -6.8749,7.938 -6.8749,17.0306 0,10.5561 -3.4288,20.9447 -7.4182,22.4755 -2.4041,0.9226 -36.945,-9.8477 -44.4309,-13.8541 -4.8786,-2.6108 -4.5897,-6.1078 0.8816,-10.6702 16.2528,-13.5529 19.0983,-16.9839 21.8006,-26.2864 3.1108,-10.7093 4.9124,-13.8177 16.1744,-27.9084 4.4244,-5.5358 13.6877,-21.0814 20.5849,-34.5459 6.8973,-13.4643 16.0133,-29.154 20.2579,-34.866 6.55,-8.8143 8.0606,-12.3641 9.9871,-23.468 4.2036,-24.2299 5.9815,-45.3955 4.2056,-50.0664 -0.9185,-2.416 -6.3369,-10.5232 -12.0406,-18.0159 -16.788,-22.0537 -29.326,-43.2604 -33.1314,-56.038 -7.842,-26.3318 -17.5134,-32.4104 -90.65,-56.9737 -53.46334,-17.956 -72.13975,-25.064 -137.43539,-52.3066 -94.13178,-39.2736 -120.46271,-46.7831 -154.70337,-44.1206 -34.08495,2.6503 -46.66794,9.7846 -75.70771,42.9244 -10.539546,12.0276 -23.166446,25.416 -28.05979,29.7522 -8.59894,7.6199 -9.17581,7.8529 -17.22183,6.9561 -5.91595,-0.6593 -9.44368,-2.1345 -12.19131,-5.0976 -4.49174,-4.8442 -4.77336,-5.9982 -1.46381,-5.9982 4.47459,0 15.92773,-13.2618 20.89602,-24.1959 0.37359,-0.8221 -3.95907,1.0551 -9.62813,4.1717 -5.66907,3.1166 -10.30738,6.2872 -10.30738,7.0457 0,1.6165 -11.77488,6.8089 -12.89667,5.6871 -0.41924,-0.4192 -1.19493,-4.9545 -1.72376,-10.0784 -0.84843,-8.2205 -0.39136,-10.2683 3.88673,-17.413 2.66653,-4.4533 4.85983,-8.935 4.87399,-9.9594 0.0141,-1.0243 2.01667,-4.8078 4.45,-8.4078 2.43334,-3.5999 8.70297,-13.2524 13.93252,-21.4499 16.29082,-25.5365 22.114204,-30.4972 55.16802,-46.9948 l 28.99882,-14.4737 25.04088,-23.6107 c 33.64893,-31.7272 37.68227,-31.0707 12.49004,2.033 -10.39972,13.6656 -11.79762,17.3563 -2.611,6.8933 10.12006,-11.5261 31.42573,-27.1658 49.83614,-36.583 17.953,-9.1832 22.08446,-10.7154 21.96364,-8.1454 -0.0328,0.6937 -7.71974,6.9129 -17.08266,13.8204 -19.05401,14.0574 -34.19065,27.3732 -36.9259,32.4841 -1.7409,3.2529 -1.45558,3.3534 6.76046,2.3803 7.32535,-0.8676 10.48515,-2.5663 21.63691,-11.6325 7.18236,-5.8391 19.49074,-14.2971 27.35198,-18.7956 7.86138,-4.4985 18.4552,-10.6491 23.54187,-13.668 21.46422,-12.7394 42.39584,-22.8905 60.39827,-29.2913 21.58239,-7.6736 20.31656,-7.341 20.31656,-5.3384 0,0.8185 -10.0263,7.3747 -22.2807,14.5692 -12.25428,7.1946 -28.71253,16.8537 -36.57391,21.4645 -22.14297,12.9877 -45.65848,28.8524 -51.95134,35.0492 l -5.70868,5.6214 7.14818,0.5258 c 7.52451,0.5535 7.35463,0.6421 28.65162,-14.9626 20.60397,-15.0969 81.59575,-44.7406 107.37733,-52.1884 12.70918,-3.6714 35.23883,-7.4119 54.66676,-9.0761 10.43946,-0.8942 13.07354,-0.6754 12.50223,1.0388 -0.39816,1.1943 -5.59329,3.1983 -11.54462,4.4531 -28.27894,5.9625 -54.15082,13.043 -67.15284,18.3781 -22.7119,9.3193 -71.90216,37.6634 -83.69787,48.2279 -3.4551,3.0944 -3.55221,3.5765 -1.0073,5.0008 1.54897,0.8669 9.47012,1.9555 17.60239,2.4191 l 14.78607,0.8431 14.8079,-10.7796 c 37.009,-26.9412 74.58302,-46.5505 107.60736,-56.1584 13.49588,-3.9266 42.89918,-9.0811 52.23488,-9.157 5.7053,-0.047 4.5387,2.9014 -1.6815,4.249 -17.536,3.799 -62.22701,18.5903 -75.59276,25.0187 -23.15368,11.136 -78.69039,47.3945 -78.69039,51.375 0,2.0837 12.88751,6.7675 18.62103,6.7675 3.64365,0 8.34503,-2.5888 16.46078,-9.0642 6.24821,-4.9854 15.8558,-11.9066 21.35008,-15.3804 5.49441,-3.4739 16.10866,-10.3116 23.58727,-15.1951 20.4042,-13.3237 43.49889,-24.4811 77.96689,-37.6668 29.1383,-11.147 41.0127,-14.2555 29.5078,-7.7248 -2.7746,1.575 -17.0125,9.6058 -31.6401,17.8465 -55.95125,31.5209 -84.61888,50.052 -104.50059,67.5507 -6.21743,5.4722 -6.44116,5.9749 -3.36303,7.556 1.81356,0.9315 5.71221,2.1508 8.66373,2.7095 5.67589,1.0745 5.57941,1.1284 34.99114,-19.5296 19.69631,-13.834 68.49695,-45.6999 80.84875,-52.7925 23.4081,-13.4413 30.975,-17.3413 30.975,-15.9642 0,2.537 -40.5012,35.5557 -70.5796,57.5402 -33.30787,24.3448 -43.44515,32.6993 -41.76502,34.4198 0.63841,0.6537 7.78255,1.6017 15.87573,2.1066 l 14.71499,0.9181 29.5263,-30.3849 c 35.9203,-36.9645 62.1701,-59.9593 65.1012,-57.0282 0.4481,0.4481 -4.6151,6.7522 -11.2514,14.0091 -6.6364,7.2569 -19.1072,21.8965 -27.7131,32.5324 -8.6058,10.6358 -19.4607,23.9786 -24.1221,29.6506 -4.6614,5.6719 -7.9993,10.7886 -7.4176,11.3704 1.2378,1.2376 11.8139,-0.4594 15.8616,-2.5453 1.5359,-0.7914 4.5259,-4.2861 6.6444,-7.766 11.3817,-18.6957 44.1215,-60.9778 47.2161,-60.9778 2.5437,0 1.3712,3.0679 -5.8916,15.4155 -3.989,6.7816 -12.3852,22.0354 -18.6585,33.8974 -11.3971,21.5503 -11.4024,21.5667 -6.7899,21.0195 2.5388,-0.3012 5.4351,-2.0611 6.4364,-3.9108 4.1367,-7.6425 26.3642,-40.7862 31.0124,-46.2429 2.7574,-3.237 5.4828,-5.4268 6.0565,-4.8662 0.5737,0.5605 -1.3236,6.2357 -4.2164,12.6117 -6.2367,13.7468 -16.6773,38.1497 -16.6773,38.9801 0,1.4536 8.0603,-2.083 12.754,-5.5961 4.2792,-3.2027 7.8106,-4.0038 20.1787,-4.5775 16.2581,-0.754 32.7446,-4.4259 37.3316,-8.3143 1.5859,-1.3444 6.4727,-3.7682 10.8595,-5.3864 4.6841,-1.7278 9.9625,-5.3519 12.7889,-8.7808 3.5266,-4.2784 7.2168,-6.473 13.8087,-8.2119 4.9478,-1.3051 11.2023,-4.0042 13.8988,-5.9978 2.9629,-2.1907 8.3103,-3.9234 13.5142,-4.3793 4.7363,-0.4151 10.8877,-2.1276 13.6698,-3.8057 2.7822,-1.6782 9.8765,-3.8747 15.7651,-4.8812 6.6488,-1.1364 12.8058,-3.4309 16.245,-6.0542 4.7999,-3.661 7.6323,-4.3109 21.2429,-4.8744 11.3381,-0.4694 18.0027,-1.6628 23.9695,-4.2921 9.0742,-3.9984 12.0456,-4.2758 37.978,-3.5438 9.8866,0.279 22.0952,-0.4375 27.7432,-1.6281 7.749,-1.6338 13.2052,-1.6983 23.5419,-0.2785 7.4001,1.0165 30.859,2.2456 52.1308,2.7316 52.4352,1.1978 104.50902,3.7756 120.94992,5.9875 20.352,2.7381 37.7487,7.4681 65.7031,17.8639 30.1519,11.2132 38.1954,15.1772 94.4765,46.5591 23.8763,13.3133 94.867,50.1173 157.7574,81.7865 62.8903,31.6693 115.1027,58.139 116.0275,58.8217 6.2975,4.648 61.9696,28.0625 94.1674,39.6048 88.2942,31.652 162.6101,46.4114 276.6163,54.9372 54.5582,4.08 248.8088,1.4592 327.904,-4.4241 80.5513,-5.9917 131.2997,-5.0863 184.9715,3.3 30.3735,4.7458 41.275,7.6973 68.384,18.514 37.4704,14.951 60.9348,28.299 88.001,50.0599 41.5772,33.428 71.533,71.9408 89.7702,115.4135 8.1977,19.5412 9.155,23.6467 5.5138,23.6467 -1.2831,0 -6.0182,-8.9817 -11.0427,-20.9462 -21.3956,-50.9485 -59.3403,-95.2806 -111.1463,-129.856 -20.2541,-13.5175 -61.0441,-32.2356 -90.5658,-41.5595 -12.9512,-4.0904 -33.5938,-7.4943 -69.1822,-11.4079 -24.3318,-2.6757 -104.7474,-2.7033 -126.1169,-0.043 -41.7136,5.1924 -77.5194,8.7274 -105.9382,10.459 -17.1099,1.0425 -51.1615,4.1331 -75.6702,6.868 -167.9897,18.7453 -220.2844,22.1399 -344.7196,22.376 -75.1708,0.1426 -86.6593,-0.2061 -118.5499,-3.5988 -58.0384,-6.1741 -65.3774,-7.1437 -111.8236,-14.773 -53.8197,-8.8405 -92.8938,-13.7338 -121.0723,-15.1622 -25.3116,-1.283 -140.2645,1.7634 -170.2362,4.5113 l -21.4182,1.9638 -11.0094,8.0263 c -9.2847,6.7689 -18.3327,11.2282 -28.9709,14.2785 -1.56,0.4472 -2.102,7.0303 -2.102,25.5287 v 24.926 l 7.72,7.4968 c 4.2459,4.1231 15.3924,18.0109 24.7698,30.8614 11.5597,15.8412 21.8802,27.7537 32.0505,36.9944 43.6228,39.6351 58.3597,53.9838 59.3026,57.7406 1.4916,5.9428 -2.1098,16.7887 -8.9135,26.8434 -9.3826,13.866 -22.7023,22.372 -35.0334,22.372 -5.6572,0 -5.9142,0.2434 -4.8831,4.6243 0.5987,2.5434 1.1806,5.1162 1.2932,5.7172 0.2674,1.4267 -2.4106,1.6265 -6.101,0.4552 -1.6185,-0.5137 -2.9427,-1.6398 -2.9427,-2.5023 0,-0.8625 -0.8147,-1.5681 -1.8104,-1.5681 -1.0604,0 -1.5903,2.555 -1.2791,6.1668 0.478,5.5481 0.09,6.2261 -3.874,6.7569 -3.34,0.4472 -5.6556,-0.834 -9.5752,-5.2983 z"
       id="path2" /></g></svg>
