<?xml version="1.0" encoding="UTF-8" standalone="no"?>
<svg
   xml:space="preserve"
   width="400"
   height="164"
   fill="none"
   version="1.1"
   id="svg68"
   sodipodi:docname="bluefin-logo-light-blue-red-hat.svg"
   inkscape:version="1.4.2 (ebf0e940d0, 2025-05-08)"
   xmlns:inkscape="http://www.inkscape.org/namespaces/inkscape"
   xmlns:sodipodi="http://sodipodi.sourceforge.net/DTD/sodipodi-0.dtd"
   xmlns="http://www.w3.org/2000/svg"
   xmlns:svg="http://www.w3.org/2000/svg"><sodipodi:namedview
     id="namedview68"
     pagecolor="#ffffff"
     bordercolor="#000000"
     borderopacity="0.25"
     inkscape:showpageshadow="2"
     inkscape:pageopacity="0.0"
     inkscape:pagecheckerboard="0"
     inkscape:deskcolor="#d1d1d1"
     inkscape:zoom="1.2904699"
     inkscape:cx="263.08247"
     inkscape:cy="102.67578"
     inkscape:window-width="1536"
     inkscape:window-height="888"
     inkscape:window-x="0"
     inkscape:window-y="0"
     inkscape:window-maximized="1"
     inkscape:current-layer="svg68" /><path
     fill="#fff"
     d="M7.419 121V39.408h33.103q7.926 0 13.637 2.564 5.828 2.564 8.976 7.343 3.147 4.663 3.147 11.073 0 6.295-3.38 10.957-3.264 4.663-9.092 7.11 7.343 2.216 11.54 7.344 4.311 5.128 4.312 12.239 0 6.994-3.497 12.238-3.38 5.13-9.674 7.927Q50.312 121 41.92 121Zm8.975-46.041h23.662q7.926 0 12.588-3.73 4.78-3.73 4.78-10.141t-4.78-10.141q-4.662-3.73-12.589-3.73H16.394Zm0 38.231H41.22q8.859 0 14.104-4.196t5.245-11.19-5.245-11.19-14.104-4.196H16.394Zm66 7.81V39.408l8.625-1.982V121Zm45.714 1.166q-6.643 0-11.773-2.798-5.129-2.915-8.042-7.926-2.798-5.128-2.798-11.89V62.604h8.509v35.201q0 7.81 4.43 12.356 4.428 4.43 11.889 4.429 5.245 0 9.325-2.331 4.196-2.448 6.76-6.761V62.603h8.626V121h-8.626v-6.761q-6.877 7.927-18.3 7.927m68.984-.117q-8.393 0-15.269-3.963-6.76-4.08-10.841-10.957-3.963-6.876-3.963-15.386 0-8.392 3.847-15.153 3.846-6.877 10.374-10.84 6.527-4.08 14.57-4.08 7.81 0 13.987 4.08 6.294 3.963 9.908 10.84 3.73 6.76 3.73 15.153v2.681h-47.907q.7 5.712 3.614 10.257a22.45 22.45 0 0 0 7.809 7.227q4.779 2.565 10.491 2.565 4.545 0 8.858-1.399t7.227-3.963l5.362 5.711q-4.896 3.613-10.257 5.479-5.246 1.748-11.54 1.748m-21.331-34.502h39.048q-.7-5.245-3.497-9.325-2.68-4.196-6.76-6.527-4.08-2.448-8.975-2.448-5.013 0-9.209 2.331t-6.993 6.528q-2.798 4.08-3.614 9.441M294.121 121V62.603h8.626v6.877q6.876-8.043 18.416-8.043 6.644 0 11.656 2.915 5.129 2.796 7.926 7.926 2.914 5.011 2.914 11.772V121h-8.509V85.799q0-7.81-4.429-12.24-4.312-4.545-11.889-4.545-5.245 0-9.325 2.331t-6.76 6.644V121Z"
     style="fill:#000000;fill-opacity:1"
     id="path1" /><path
     fill="url(#a)"
     d="m280.09 65.52-14.143 25.243-19.524-22.302Z"
     style="fill:url(#a)"
     id="path2" /><path
     fill="url(#b)"
     d="m257.808 121.673-9.901-23.425-1.483-29.787 19.66 21.003"
     style="fill:url(#b)"
     id="path3" /><path
     fill="url(#c)"
     d="m248.393 98.245-20.69-20.363 5.399-25.232 13.323-.47"
     style="fill:url(#c)"
     id="path4" /><path
     fill="url(#d)"
     d="m265.197 39.397 2.483 12.395-34.799 1.094 15.542-19.674z"
     style="fill:url(#d)"
     id="path5" /><path
     fill="url(#e)"
     d="m220.981 95.061 5.904-9.349-5.904-5.115"
     style="fill:url(#e)"
     id="path6" /><path
     fill="url(#f)"
     d="M242.649 95.743v3.61l3.805 8.303 1.766 4.222-1.766 1.023-19.762 8.772h31.065l.081-.129-9.447-23.296-21.699-22.038"
     style="fill:url(#f)"
     id="path7" /><path
     fill="url(#g)"
     d="m243.568 91.863-14.322-18.216-8.265 6.95 21.668 18.757 5.571 12.524 9.538 9.795-9.406-23.519"
     style="fill:url(#g)"
     id="path8" /><g
     mask="url(#h)"
     id="g9"><path
       fill="url(#i)"
       d="m282.445 63.344 24.703 28.329-24.287-5.81-20.618 17.07 3.659-13.252"
       style="fill:url(#i)"
       id="path9" /></g><g
     mask="url(#j)"
     id="g10"><path
       fill="url(#k)"
       d="m250.699 87.135 66.613 7.552L278.86 63.04"
       style="fill:url(#k)"
       id="path10" /></g><g
     mask="url(#l)"
     style="fill:#000000;fill-opacity:1"
     id="g11"><path
       fill="#fff"
       d="M270.787 121V62.603h8.625V121Zm4.313-69.587q-2.332 0-4.08-1.748-1.749-1.749-1.749-4.08 0-2.448 1.749-4.08 1.748-1.748 4.08-1.748 2.447 0 4.079 1.749 1.749 1.63 1.749 4.08 0 2.33-1.749 4.079-1.632 1.748-4.079 1.748"
       style="fill:#000000;fill-opacity:1"
       id="path11" /></g><defs
     id="defs68"><linearGradient
       id="a"
       x1="280.092"
       x2="243.351"
       y1="78.798"
       y2="67.954"
       gradientUnits="userSpaceOnUse"><stop
         stop-color="#4285F4"
         id="stop11" /><stop
         offset=".39"
         stop-color="#4183F2"
         id="stop12" /><stop
         offset=".53"
         stop-color="#3F7CEC"
         id="stop13" /><stop
         offset=".63"
         stop-color="#3B70E2"
         id="stop14" /><stop
         offset=".71"
         stop-color="#365FD4"
         id="stop15" /><stop
         offset=".78"
         stop-color="#2F49C1"
         id="stop16" /><stop
         offset=".84"
         stop-color="#272FAA"
         id="stop17" /><stop
         offset=".87"
         stop-color="#231F9D"
         id="stop18" /></linearGradient><linearGradient
       id="b"
       x1="265.933"
       x2="248.79"
       y1="94.509"
       y2="95.02"
       gradientUnits="userSpaceOnUse"><stop
         stop-color="#4285F4"
         id="stop19" /><stop
         offset=".45"
         stop-color="#4183F2"
         id="stop20" /><stop
         offset=".61"
         stop-color="#3F7CEC"
         id="stop21" /><stop
         offset=".72"
         stop-color="#3B70E2"
         id="stop22" /><stop
         offset=".82"
         stop-color="#365FD4"
         id="stop23" /><stop
         offset=".9"
         stop-color="#2F49C1"
         id="stop24" /><stop
         offset=".97"
         stop-color="#272FAA"
         id="stop25" /><stop
         offset="1"
         stop-color="#231F9D"
         id="stop26" /></linearGradient><linearGradient
       id="c"
       x1="238.048"
       x2="238.048"
       y1="65.227"
       y2="53.275"
       gradientUnits="userSpaceOnUse"><stop
         offset=".34"
         stop-color="#4285F4"
         id="stop27" /><stop
         offset="1"
         stop-color="#231F9D"
         id="stop28" /></linearGradient><linearGradient
       id="d"
       x1="267.68"
       x2="232.881"
       y1="43.043"
       y2="43.043"
       gradientUnits="userSpaceOnUse"><stop
         offset=".59"
         stop-color="#4285F4"
         id="stop29" /><stop
         offset="1"
         stop-color="#231F9D"
         id="stop30" /></linearGradient><linearGradient
       id="e"
       x1="224.452"
       x2="217.712"
       y1="82.137"
       y2="91.847"
       gradientUnits="userSpaceOnUse"><stop
         stop-color="#4285F4"
         id="stop31" /><stop
         offset=".2"
         stop-color="#4081F0"
         id="stop32" /><stop
         offset=".4"
         stop-color="#3D75E6"
         id="stop33" /><stop
         offset=".6"
         stop-color="#3761D5"
         id="stop34" /><stop
         offset=".79"
         stop-color="#2E45BE"
         id="stop35" /><stop
         offset=".98"
         stop-color="#2422A0"
         id="stop36" /><stop
         offset="1"
         stop-color="#231F9D"
         id="stop37" /></linearGradient><linearGradient
       id="f"
       x1="247.776"
       x2="226.58"
       y1="88.111"
       y2="118.623"
       gradientUnits="userSpaceOnUse"><stop
         stop-color="#4285F4"
         id="stop38" /><stop
         offset=".2"
         stop-color="#4081F0"
         id="stop39" /><stop
         offset=".4"
         stop-color="#3D75E6"
         id="stop40" /><stop
         offset=".6"
         stop-color="#3761D5"
         id="stop41" /><stop
         offset=".79"
         stop-color="#2E45BE"
         id="stop42" /><stop
         offset=".98"
         stop-color="#2422A0"
         id="stop43" /><stop
         offset="1"
         stop-color="#231F9D"
         id="stop44" /></linearGradient><linearGradient
       id="g"
       x1="236.614"
       x2="247.451"
       y1="104.622"
       y2="94.544"
       gradientUnits="userSpaceOnUse"><stop
         stop-color="#231F9D"
         id="stop45" /><stop
         offset=".08"
         stop-color="#262BA7"
         id="stop46" /><stop
         offset=".36"
         stop-color="#3252C8"
         id="stop47" /><stop
         offset=".61"
         stop-color="#3B6EE0"
         id="stop48" /><stop
         offset=".83"
         stop-color="#407FEE"
         id="stop49" /><stop
         offset="1"
         stop-color="#4285F4"
         id="stop50" /></linearGradient><linearGradient
       id="i"
       x1="281.523"
       x2="269.059"
       y1="89.526"
       y2="83.26"
       gradientUnits="userSpaceOnUse"><stop
         stop-color="#4285F4"
         id="stop51" /><stop
         offset=".45"
         stop-color="#4183F2"
         id="stop52" /><stop
         offset=".61"
         stop-color="#3F7CEC"
         id="stop53" /><stop
         offset=".72"
         stop-color="#3B70E2"
         id="stop54" /><stop
         offset=".82"
         stop-color="#365FD4"
         id="stop55" /><stop
         offset=".9"
         stop-color="#2F49C1"
         id="stop56" /><stop
         offset=".97"
         stop-color="#272FAA"
         id="stop57" /><stop
         offset="1"
         stop-color="#231F9D"
         id="stop58" /></linearGradient><linearGradient
       id="k"
       x1="264.013"
       x2="309.157"
       y1="74.806"
       y2="102.452"
       gradientUnits="userSpaceOnUse"><stop
         stop-color="#231F9D"
         id="stop59" /><stop
         offset=".03"
         stop-color="#272FAA"
         id="stop60" /><stop
         offset=".1"
         stop-color="#2F49C1"
         id="stop61" /><stop
         offset=".18"
         stop-color="#365FD4"
         id="stop62" /><stop
         offset=".28"
         stop-color="#3B70E2"
         id="stop63" /><stop
         offset=".39"
         stop-color="#3F7CEC"
         id="stop64" /><stop
         offset=".55"
         stop-color="#4183F2"
         id="stop65" /><stop
         offset="1"
         stop-color="#4285F4"
         id="stop66" /></linearGradient><mask
       id="h"
       width="70"
       height="90"
       x="204"
       y="33"
       maskUnits="userSpaceOnUse"><path
         fill="#fff"
         d="M204.941 33.435h68.936v89.558h-68.936z"
         id="path66" /></mask><mask
       id="j"
       width="45"
       height="30"
       x="275"
       y="65"
       maskUnits="userSpaceOnUse"><path
         fill="#fff"
         d="m277.078 65.303 42.836 1.792-1.15 27.363-42.837-1.792z"
         id="path67" /></mask><mask
       id="l"
       width="13"
       height="68"
       x="269"
       y="56"
       maskUnits="userSpaceOnUse"><path
         fill="#fff"
         d="M281.453 56.892h-12.035v66.192h12.035z"
         id="path68" /></mask></defs></svg>
