<?xml version="1.0" encoding="UTF-8" standalone="no"?>
<!-- Created with Inkscape (http://www.inkscape.org/) -->

<svg
   version="1.1"
   id="svg1"
   width="2644"
   height="1012"
   viewBox="0 0 2644 1012"
   sodipodi:docname="Achillobator_size_inspyrenet_bria.png"
   inkscape:export-filename="Achillobator.svg"
   inkscape:export-xdpi="96"
   inkscape:export-ydpi="96"
   xml:space="preserve"
   xmlns:inkscape="http://www.inkscape.org/namespaces/inkscape"
   xmlns:sodipodi="http://sodipodi.sourceforge.net/DTD/sodipodi-0.dtd"
   xmlns="http://www.w3.org/2000/svg"
   xmlns:svg="http://www.w3.org/2000/svg"><defs
     id="defs1" /><sodipodi:namedview
     id="namedview1"
     pagecolor="#ffffff"
     bordercolor="#000000"
     borderopacity="0.25"
     inkscape:showpageshadow="2"
     inkscape:pageopacity="0.0"
     inkscape:pagecheckerboard="0"
     inkscape:deskcolor="#d1d1d1"><inkscape:page
       x="0"
       y="0"
       width="2644"
       height="1012"
       id="page2"
       margin="0"
       bleed="0" /></sodipodi:namedview><g
     inkscape:groupmode="layer"
     inkscape:label="Image"
     id="g1"><path
       style="fill:#000000"
       d="m 1296.284,912.7759 c 3.0757,-5.9233 18.0721,-17.8519 23.4885,-18.6835 2.3155,-0.3555 8.8427,-0.8811 14.5048,-1.1679 8.3235,-0.4217 11.2595,-1.1779 15.3333,-3.9492 6.4871,-4.4132 12.3719,-9.6587 12.3719,-11.0279 0,-0.5903 0.8049,-2.0205 1.7886,-3.1782 3.818,-4.4935 6.0024,-16.6832 4.8358,-26.9853 -2.7804,-24.5538 -6.9384,-34.0076 -30.7442,-69.9018 -8.2261,-12.4032 -18.6144,-26.4775 -23.085,-31.2763 -4.4707,-4.7988 -10.2602,-11.0988 -12.8656,-14 -2.6053,-2.9012 -9.8053,-9.8582 -15.9999,-15.4599 -6.1946,-5.6017 -16.4441,-14.9717 -22.7767,-20.8222 -11.8195,-10.9197 -24.3165,-18.7167 -41.0763,-25.6279 -5.2311,-2.1572 -11.1384,-5.0529 -13.1272,-6.4351 -4.2813,-2.9752 -18.3347,-9.1848 -32.2828,-14.2644 -22.5968,-8.2293 -55.6816,-23.9577 -66.8099,-31.7613 -12.7917,-8.9701 -25.0082,-23.2902 -32.8512,-38.508 -5.7032,-11.0659 -11.0055,-19.0207 -11.0055,-16.511 0,0.4083 -1.95,-0.4466 -4.3334,-1.8998 -2.8018,-1.7083 -6.7082,-2.6438 -11.0532,-2.647 -7.7613,-0.01 -21.8337,3.3462 -24.2959,5.7872 -2.3197,2.2997 -3.5265,28.349 -1.8936,40.8745 1.9048,14.6117 10.9124,43.1469 17.2565,54.6666 3.0289,5.5 7.3704,14.5 9.6477,20 2.2773,5.5 4.6411,11.2 5.2527,12.6667 0.6117,1.4667 2.9005,6.5667 5.0863,11.3333 2.1858,4.7667 4.3361,9.7167 4.7784,11 0.4422,1.2834 1.4229,2.3334 2.1793,2.3334 0.8428,0 1.3752,4.6434 1.3752,11.9936 v 11.9936 l -9.8753,13.6731 c -11.0791,15.3396 -12.9295,17.2195 -28.5256,28.9803 -23.1743,17.4754 -33.47757,29.9973 -48.79539,59.3028 -8.29432,15.8684 -11.05744,19.2184 -20.3142,24.6292 -4.30258,2.5149 -12.92288,7.7439 -19.15621,11.62 -7.32427,4.5544 -15.3424,8.2079 -22.66667,10.3282 -6.23333,1.8045 -14.30276,4.5554 -17.93205,6.1131 -8.22749,3.5312 -20.27453,4.9721 -43.40128,5.191 -17.39221,0.1647 -18.13081,0.058 -21.87405,-3.1606 -4.50751,-3.8757 -5.05159,-3.9551 -9.90491,-1.4453 -6.28922,3.2523 -13.40319,4.0597 -14.33662,1.6272 -1.67959,-4.3769 9.77157,-19.1837 18.19573,-23.5277 2.62429,-1.3533 10.3685,-3.0754 17.31912,-3.8514 10.78206,-1.2038 13.42868,-2.0129 18.58651,-5.6819 3.30782,-2.353 9.61422,-6.6365 14.01422,-9.5188 7.65135,-5.0121 19.33333,-16.0755 19.33333,-18.3095 0,-0.5839 2.97909,-2.8946 6.62019,-5.135 3.6411,-2.2404 8.80885,-6.1379 11.48388,-8.661 4.52608,-4.2691 6.04031,-6.3404 9.97156,-13.6398 0.833,-1.5466 6.10676,-5.8501 11.71946,-9.5631 5.6127,-3.7131 12.60492,-8.4436 15.53825,-10.5122 8.53433,-6.0184 25.42787,-22.8412 31.62592,-31.4935 3.13908,-4.382 8.16606,-11.039 11.17107,-14.7932 9.80624,-12.2511 11.60644,-17.7893 8.00244,-24.6201 -1.027,-1.9465 -3.509,-7.3969 -5.5156,-12.112 -2.00665,-4.7151 -5.66639,-12.0161 -8.1328,-16.2243 -2.4664,-4.2083 -4.48436,-8.1959 -4.48436,-8.8613 0,-0.6655 -1.5,-2.6191 -3.33334,-4.3414 -1.83333,-1.7224 -3.33333,-3.6946 -3.33333,-4.3828 0,-0.6882 -1.55009,-3.1336 -3.44465,-5.4342 -1.89455,-2.3007 -7.68382,-10.783 -12.86503,-18.8497 -11.90564,-18.536 -24.6592,-34.5505 -37.6952,-47.3333 -5.6089,-5.5 -12.31156,-13.1513 -14.8948,-17.0029 -2.58324,-3.8516 -6.39172,-8.2098 -8.46329,-9.6849 -2.07156,-1.4751 -4.13646,-4.3665 -4.58864,-6.4253 -1.08371,-4.934 -7.03209,-11.3075 -13.75382,-14.7367 -5.92216,-3.0212 -54.04927,-11.8216 -67.62791,-12.3663 -4.4,-0.1764 -13.1,0.141 -19.33333,0.7055 -10.0319,0.9085 -13.55344,0.5481 -30.66667,-3.1389 -29.36281,-6.3261 -38.64943,-7.9174 -46.66667,-7.9966 -9.68397,-0.096 -31.79455,-3.3147 -36,-5.2411 -3.39605,-1.5557 -29.49734,-8.9611 -36.55059,-10.3701 -2.84709,-0.5687 -4.35982,-0.125 -5.66666,1.6622 -2.51185,3.4352 -2.3596,3.8829 3.05857,8.9946 4.63559,4.3734 4.94548,5.2411 7.29256,20.4173 1.9215,12.4245 2.27253,19.7816 1.62431,34.0431 -0.54804,12.0575 -0.28528,20.9464 0.7791,26.3565 0.88331,4.4898 2.14806,14.9028 2.81056,23.1401 1.53249,19.0544 3.19391,27.9058 6.81074,36.2849 2.12382,4.9202 3.17248,11.0359 3.96102,23.1002 1.47963,22.6378 0.0197,25.6409 -5.33099,10.966 -1.61253,-4.4225 -3.49964,-8.041 -4.19358,-8.041 -0.69394,0 -1.26986,-1.65 -1.27982,-3.6666 -0.0302,-6.114 -4.6289,-19.6667 -6.67327,-19.6667 -2.83812,0 -4.04315,8.366 -2.48578,17.2576 3.34008,19.0699 0.72564,38.8712 -6.39163,48.4091 -6.27391,8.4076 -6.82298,6.7019 -6.86691,-21.3334 -0.0225,-14.3398 -0.67072,-27.7222 -1.46893,-30.3245 -0.78579,-2.5618 -1.42871,-9.2384 -1.42871,-14.8367 0,-7.3826 -0.54477,-10.631 -1.98302,-11.8247 -3.55638,-2.9515 -6.01698,-0.5889 -6.01698,5.7774 0,10.4112 -1.50394,14.3944 -7.9663,21.099 -5.2163,5.4118 -6.99618,6.4429 -11.12191,6.4429 -5.26859,0 -6.16815,-1.2975 -2.82387,-4.073 3.85659,-3.2007 5.91208,-9.0734 5.91208,-16.8912 0,-5.4286 1.20295,-10.8873 4,-18.1512 3.85513,-10.0116 4,-11.1738 4,-32.0896 0,-17.3374 -0.53628,-23.7987 -2.66666,-32.1284 -1.5101,-5.9044 -2.66989,-14.8157 -2.67411,-20.5466 -0.01,-13.0675 -1.8984,-20.12 -5.38857,-20.12 -1.43219,0 -2.6499,0.45 -2.706,1 -0.0561,0.55 -0.36374,2.2 -0.68361,3.6666 -0.31987,1.4667 -0.96489,5.5787 -1.43336,9.1378 -0.48898,3.715 -2.11421,7.9742 -3.81574,10 -4.71535,5.6141 -24.95327,40.0167 -31.18185,53.0065 -3.12667,6.5206 -8.00965,16.6557 -10.85105,22.5224 -5.0102,10.3446 -8.55519,20.1556 -12.76695,35.3333 -1.11923,4.0334 -2.7924,8.5334 -3.71816,10 -0.92575,1.4667 -2.79473,5.6667 -4.15327,9.3334 -3.17656,8.5734 -5.79859,12.6666 -8.11401,12.6666 -2.45045,0 -2.3987,-6.3531 0.10048,-12.3344 1.07092,-2.5631 1.61847,-4.9889 1.21678,-5.3905 -0.4017,-0.4017 2.05294,-7.7671 5.45474,-16.3675 4.05717,-10.2573 5.73363,-16.0886 4.87285,-16.9494 -2.20503,-2.205 -4.74241,-0.221 -6.65962,5.2072 -4.77697,13.5252 -11.00999,28.6577 -13.72931,33.3319 -6.2524,10.7473 -22.27723,23.1694 -29.88914,23.1694 -4.98694,0 -4.70913,-1.7665 1.48034,-9.4132 3.22915,-3.9894 5.89407,-8.414 5.92204,-9.8325 0.0559,-2.8354 4.53372,-12.852 8.08586,-18.0876 1.24383,-1.8334 3.03577,-5.7334 3.98208,-8.6667 1.89796,-5.8832 4.06058,-9.6494 9.58095,-16.6855 2.0219,-2.5771 4.06448,-6.6271 4.53907,-9 0.73608,-3.6804 0.48185,-4.3145 -1.72982,-4.3145 -1.62424,0 -3.30515,1.5831 -4.5,4.2381 -2.8221,6.2708 -10.59086,11.8056 -19.47321,13.8734 -7.95271,1.8514 -18.20908,1.2135 -17.44296,-1.0849 0.23516,-0.7054 3.70836,-3.475 7.71822,-6.1546 4.95322,-3.31 8.24913,-6.7726 10.2802,-10.8 2.84287,-5.6371 12.40581,-14.5666 18.51074,-17.2846 3.55312,-1.5819 14.08845,-17.2873 17.63897,-26.295 1.47139,-3.7329 5.47187,-11.8209 8.88997,-17.9731 3.41809,-6.1523 8.09078,-15.686 10.38376,-21.186 3.98779,-9.5652 4.16183,-10.7535 4.00312,-27.3333 -0.0913,-9.5333 -0.57694,-23.7876 -1.07931,-31.6761 l -0.9134,-14.3428 -7.49424,-4.9744 c -10.92768,-7.2534 -17.18491,-14.2978 -21.62018,-24.34 -2.87354,-6.5062 -13.80628,-21.5513 -18.71184,-25.7502 -8.22738,-7.0424 -21.65167,-12.8186 -42.33832,-18.2175 -36.09414,-9.4199 -81.27518,-24.2521 -101.74488,-33.401 -15.22438,-6.8046 -33.60637,-13.1309 -59.36069,-20.4296 -25.72276,-7.2897 -32.03179,-8.5142 -49.15325,-9.5399 -34.74907,-2.0819 -69.97809,-6.2562 -78,-9.2422 -2.56666,-0.9555 -7.66666,-2.142 -11.33333,-2.6368 -3.66667,-0.4948 -10.86667,-1.7327 -16,-2.7507 -33.47985,-6.6401 -31.76986,-6.4676 -55.639236,-5.6126 -13.78579,0.4937 -26.50564,1.68 -31.6941,2.9558 -11.65126,2.8648 -34.72794,5.8999 -45.10256,5.932 -7.5731303,0.023 -8.8004103,-0.3633 -12.0000003,-3.7801 -1.96026,-2.0933 -5.34179001,-6.7171 -7.51452,-10.2751 -3.46614,-5.6761 -4.01712,-7.9945 -4.49464,-18.9125 -0.87627,-20.0353 0.0837,-21.5474 31.4926803,-49.6038 10.70736,-9.5645 14.12351,-12.1604 40.55707,-30.8183 19.14493,-13.5133 42.494626,-27.512 61.401966,-36.81185 12.63891,-6.21665 32.75539,-7.38363 42.0438,-2.43903 7.88275,4.19631 11.28167,4.17772 22.55555,-0.12342 4.98336,-1.90122 12.06066,-4.30984 15.72732,-5.35249 11.59027,-3.29579 39.279,-6.13494 60,-6.15229 35.58411,-0.0298 63.24171,8.11869 114.00001,33.58668 43.30528,21.7285 66.72113,30.1556 105.56585,37.992 24.71542,4.986 42.72308,6.4735 67.76749,5.598 29.00173,-1.0139 38.88365,-2.6323 115.33333,-18.8885 12.46667,-2.6509 44.26667,-8.4124 70.66667,-12.8033 75.66497,-12.5849 117.16545,-20.8249 133.55715,-26.518 15.46336,-5.37071 35.85492,-23.35396 43.71352,-38.55081 4.88187,-9.4405 11.44675,-29.72499 12.76909,-39.45454 2.19786,-16.1715 2.29094,-16.40656 8.18878,-20.678925 4.32337,-3.13183 6.90205,-3.98773 12.01434,-3.98773 6.91375,0 14.67066,2.62278 18.88127,6.384175 3.30299,2.9506 8.87586,11.72448 8.87586,13.97407 0,0.95951 1.2,4.0983 2.66667,6.97508 1.46666,2.87678 2.66891,6.45365 2.67165,7.94859 0.003,1.49494 1.1012,4.51808 2.44103,6.71808 1.33983,2.2 2.87825,5.76647 3.41872,7.9255 1.85653,7.4164 12.96146,28.08253 19.53236,36.34946 6.3092,7.93766 12.4336,12.85908 31.7581,25.51995 8.3997,5.5033 26.8558,14.7365 30.8448,15.431 0.3667,0.064 5.3545,2.4349 11.0841,5.2689 5.7295,2.834 16.2295,6.9159 23.3333,9.0708 15.1842,4.6062 36.2595,6.343 77.5826,6.3936 27.587,0.034 34.638,-1.11 56.3,-9.1323 10.9487,-4.0547 21.9487,-3.6669 68.3666,2.4103 22,2.8804 44.5,5.6153 50,6.0776 5.5,0.4623 16,1.9827 23.3334,3.3785 7.3333,1.3959 32.8333,5.2592 56.6666,8.5851 23.8334,3.326 60.7334,8.4739 82,11.4397 21.2667,2.9658 45.2667,6.233 53.3334,7.2603 46.6436,5.9402 106.4999,14.4592 117.5093,16.7245 60.3155,12.4104 90.7175,14.2983 257.1573,15.9692 66,0.6626 130.2,1.8316 142.6667,2.5979 143.4536,8.8168 322.598,40.8326 452.6667,80.8983 53.8639,16.592 108,37.5251 108,41.761 0,2.739 -5.9847,2.7759 -16.8395,0.1037 -6.3097,-1.5533 -16.9521,-3.9722 -23.6497,-5.3752 -6.6976,-1.403 -23.2775,-5.0022 -36.8442,-7.9982 -160.4313,-35.4288 -296.1882,-51.4638 -412,-48.6635 -37.3593,0.9033 -73.6607,2.6663 -64.3333,3.1244 2.3833,0.1171 4.3333,0.7191 4.3333,1.338 0,0.6188 -10.65,1.5314 -23.6666,2.0279 -13.0167,0.4966 -30.5667,1.4636 -39,2.1491 -8.4334,0.6854 -21.5819,1.6045 -29.2191,2.0423 -7.6371,0.4379 -14.9996,1.3923 -16.361,2.1209 -1.3871,0.7424 -5.6869,0.9496 -9.7809,0.4714 -5.2299,-0.6109 -7.3057,-0.4035 -7.3057,0.73 0,1.1335 -1.8945,1.3229 -6.6667,0.6666 -3.7567,-0.5167 -6.6666,-0.3912 -6.6666,0.2875 0,1.4764 -25.5645,4.9286 -37,4.9964 -4.5834,0.027 -8.3334,0.422 -8.3334,0.8774 0,0.8585 -21.8826,3.195 -28.3333,3.0253 -2.0167,-0.053 -3.6667,0.4857 -3.6667,1.1973 0,0.7949 -3.125,0.9403 -8.1029,0.3771 -5.4538,-0.617 -8.7137,-0.4098 -9.9713,0.6338 -1.8489,1.5346 -34.7988,5.2227 -42.1268,4.7153 -2.0894,-0.1446 -3.799,0.1546 -3.799,0.6651 0,0.5104 -2.1,1.3219 -4.6667,1.8035 -2.5666,0.4815 -4.6758,1.5982 -4.687,2.4817 -0.014,1.1319 -0.3506,1.0855 -1.1385,-0.1571 -0.9163,-1.4452 -4.0402,-1.48139 -17.3162,-0.201 -8.9091,0.85921 -18.8968,1.293 -22.1949,0.9638 -3.2982,-0.32909 -5.9967,-0.1491 -5.9967,0.4001 0,0.5492 -7.65,1.40761 -17,1.90751 -9.35,0.5 -18.2,1.0929 -19.6667,1.3177 -6.9733,1.0689 -50.8306,3.315 -75.3333,3.85819 -4.7666,0.10561 -9.4843,0.7174 -10.4837,1.35951 -0.9994,0.6421 -7.5994,0.77209 -14.6667,0.2889 -9.0765,-0.6206 -12.2623,-0.4703 -10.8496,0.5118 1.5466,1.0751 0.9421,1.36339 -2.6666,1.27199 -16.2138,-0.4108 -35.0487,0.46171 -32.6667,1.51331 1.6446,0.726 -1.5494,0.8674 -8.3333,0.36889 -7.9747,-0.5861 -11,-0.37899 -11,0.7527 0,1.1161 -2.9456,1.3696 -10.3334,0.88911 -7.0814,-0.46061 -9.0745,-0.30501 -6.3333,0.4944 3.3191,0.9679 2.5248,1.18069 -4.6667,1.2503 -4.7666,0.046 -10.7666,0.42959 -13.3333,0.8521 -2.5667,0.4226 -9.9643,0.7175 -16.4393,0.6554 -6.4749,-0.062 -11.4805,0.3569 -11.1235,0.9312 0.357,0.5742 -3.0453,0.868 -7.5607,0.6528 -6.2243,-0.2966 -7.7261,-0.036 -6.2098,1.0754 1.5215,1.1158 0.3337,1.3434 -4.9644,0.9512 -3.8305,-0.2836 -7.1305,-0.044 -7.3334,0.5316 -0.2029,0.5759 -5.0176,1.2239 -10.6994,1.4401 -5.6818,0.2161 -10.3318,0.872 -10.3333,1.4574 0,0.5854 -2.4029,0.7064 -5.3362,0.2689 -3.3685,-0.5024 -5.3333,-0.2747 -5.3333,0.618 0,0.898 -2.0667,1.1254 -5.6667,0.6234 -4.2609,-0.5941 -5.1705,-0.4317 -3.6667,0.6546 1.496,1.0807 0.2359,1.2739 -5,0.7665 -3.85,-0.373 -7,-0.1786 -7,0.4321 0,0.6106 -1.8,0.8461 -4,0.5232 -2.2,-0.3229 -4,-0.053 -4,0.5995 0,0.6526 -2.479,0.9501 -5.5089,0.6612 -4.0042,-0.3819 -5.2423,-0.094 -4.5327,1.0541 0.7003,1.1331 -0.2863,1.4211 -3.4911,1.0189 -2.457,-0.3083 -5.5572,-0.01 -6.8893,0.6717 -3.2179,1.6372 -12.9513,3.3772 -31.578,5.6453 -18.9347,2.3055 -46.1904,9.8508 -55.3333,15.3181 -2.2,1.3155 -8.5,4.0405 -13.9999,6.0554 -20.9971,7.6924 -67.1038,29.7856 -80.3608,38.5068 -7.5486,4.966 -11.6393,12.3718 -11.6393,21.0721 0,7.5562 4.7713,14.5883 15.2828,22.5246 4.0611,3.0662 7.3839,5.9638 7.3839,6.4392 0,0.4753 2.4319,3.8071 5.4042,7.404 5.0236,6.0793 10.1493,15.5055 15.1591,27.8778 2.3307,5.7557 17.6972,29.701 23.6587,36.8669 2.1353,2.5666 6.4241,7.9666 9.5306,12 3.2174,4.1772 9.3637,9.7436 14.2812,12.9337 4.748,3.0802 10.9687,7.5802 13.8237,10 2.855,2.4198 6.5075,5.2996 8.1166,6.3996 1.6092,1.1 5.2733,4.269 8.1425,7.0422 4.4558,4.3066 10.5209,7.7479 28.3305,16.0744 1.7125,0.8007 4.0423,3.277 5.1773,5.5029 1.135,2.2259 4.6599,8.3476 7.8332,13.6038 3.1733,5.2561 6.1586,11.1061 6.6339,13 0.4753,1.8938 1.3992,3.4434 2.053,3.4434 0.6538,0 1.1888,0.9131 1.1888,2.0292 0,1.1161 1.8,5.9991 4,10.8511 2.2,4.852 3.9983,9.4888 3.9963,10.3041 0,0.8152 1.152,3.8822 2.5646,6.8156 1.4125,2.9333 5.668,12.9012 9.4565,22.1508 5.8857,14.3698 7.7252,17.5171 12.6387,21.6243 3.1628,2.6438 6.859,7.0621 8.2139,9.8186 1.565,3.184 5.3474,6.9679 10.3714,10.3757 l 7.9081,5.3639 -5.8045,0.6666 c -8.3373,0.9576 -8.6807,4.6921 -0.6783,7.3765 3.6518,1.2251 4.0343,1.9262 4.3939,8.0543 0.3138,5.3477 -0.6888,9.3633 -4.9315,19.7507 -2.929,7.171 -7.2081,15.9722 -9.5093,19.5582 -5.5029,8.5755 -17.4536,19.5109 -32.0439,29.3214 l -11.8069,7.9389 h -23.5075 c -21.4886,0 -23.7987,-0.229 -26.8977,-2.6666 -4.3158,-3.3949 -10.4896,-3.393 -16.0627,0.01 -2.4011,1.4639 -5.8654,2.6616 -7.6985,2.6616 h -3.333 z"
       id="path2" /></g></svg>
