<?xml version="1.0" encoding="UTF-8" standalone="no"?>
<!-- Created with Inkscape (http://www.inkscape.org/) -->

<svg
   version="1.1"
   id="svg1"
   width="1928"
   height="1153"
   viewBox="0 0 1928 1153"
   sodipodi:docname="output-onlinepngtools(9).png"
   xmlns:inkscape="http://www.inkscape.org/namespaces/inkscape"
   xmlns:sodipodi="http://sodipodi.sourceforge.net/DTD/sodipodi-0.dtd"
   xmlns="http://www.w3.org/2000/svg"
   xmlns:svg="http://www.w3.org/2000/svg">
  <defs
     id="defs1" />
  <sodipodi:namedview
     id="namedview1"
     pagecolor="#ffffff"
     bordercolor="#000000"
     borderopacity="0.25"
     inkscape:showpageshadow="2"
     inkscape:pageopacity="0.0"
     inkscape:pagecheckerboard="0"
     inkscape:deskcolor="#d1d1d1"
     showgrid="false">
    <inkscape:page
       x="0"
       y="0"
       width="1928"
       height="1153"
       id="page2"
       margin="0"
       bleed="0" />
  </sodipodi:namedview>
  <g
     inkscape:groupmode="layer"
     inkscape:label="Image"
     id="g1">
    <path
       style="fill:#000000"
       d="m 880.80575,927.90811 c -5.225,-0.455 -11.3,-1.2997 -13.5,-1.8771 -2.2,-0.5775 -7.7086,-1.0607 -12.2415,-1.0738 l -8.2415,-0.024 4.4764,-5.886 c 6.5828,-8.6558 12.6742,-12.2056 22.2852,-12.9866 4.2468,-0.3451 7.6888,-1.0774 7.6489,-1.6274 -0.4838,-6.6697 -1.912,-9.7808 -5.5421,-12.0724 -7.2549,-4.5798 -9.8716,-12.1443 -7.1335,-20.6222 1.4655,-4.5378 1.4457,-4.9316 -0.3491,-6.9491 -1.0465,-1.1763 -3.7028,-2.9653 -5.9028,-3.9756 -8.1733,-3.7532 -28.1571,-1.6751 -37.7192,3.9224 -3.6289,2.1243 -4.5886,0.8598 -2.3406,-3.0839 3.0233,-5.3037 8.6966,-10.6641 15.0598,-14.2292 6.8691,-3.8485 19.0472,-7.49 25.0484,-7.49 4.6917,0 13.7191,2.4739 17.0921,4.684 4.5059,2.9524 4.8523,1.8175 4.5065,-14.7621 -0.2764,-13.2496 -0.5789,-15.7036 -2.1475,-17.4219 -1.0041,-1.1 -4.7873,-6.05 -8.407,-11 -3.6197,-4.95 -11.8712,-14.3036 -18.3368,-20.7857 -13.5872,-13.6218 -18.1618,-16.3293 -34.2557,-20.2739 -5.775,-1.4155 -14.3418,-4.3002 -19.0373,-6.4106 -18.1724,-8.1673 -41.9415,-20.0541 -48.5485,-24.2787 -11.6284,-7.4356 -28.0484,-15.752 -31.0627,-15.7328 -1.5683,0.01 -4.8167,1.3499 -7.2187,2.9776 -2.4019,1.6278 -5.7769,3.4757 -7.5,4.1066 -1.723,0.6309 -4.0456,2.5535 -5.1612,4.2723 -1.8208,2.8052 -2.5376,3.1266 -7,3.1382 -5.6618,0.015 -7.4716,0.8362 -7.4716,3.3911 0,2.672 -3.2482,5.096 -6.8287,5.096 -1.7442,0 -3.1713,0.2178 -3.1713,0.4841 0,1.4156 6.317,13.093 11.0982,20.5159 3.0113,4.675 6.7546,10.705 8.3185,13.4001 6.2328,10.7406 7.2887,23.893 2.9793,37.112 -1.4322,4.3933 -3.2038,10.6879 -3.9368,13.9879 -0.733,3.3 -2.0667,8.475 -2.9638,11.5 -1.1297,3.8091 -1.4722,7.6018 -1.1142,12.3366 0.4371,5.78 0.141,7.6869 -1.9159,12.3378 -4.7617,10.767 -6.7374,19.2783 -6.2044,26.728 0.412,5.7576 0.888,7.2071 2.8666,8.7286 l 2.3725,1.8245 -2.5,0.038 c -4.7215,0.071 -5.0969,0.9715 -4.8854,11.721 0.1723,8.7574 -0.079,10.4929 -1.9634,13.5413 -2.5693,4.1573 -3.0115,4.2696 -22.77117,5.7802 -13.82104,1.0566 -52.00052,0.7884 -80.37999,-0.5647 -15.51053,-0.7395 -14.45643,-0.1018 -14.75641,-8.9272 -0.14103,-4.149 -0.33623,-9.6812 -0.43378,-12.2937 -0.21697,-5.8103 2.2064,-14.7272 6.20065,-22.8156 6.32843,-12.8151 23.28701,-25.5049 38.29028,-28.6518 9.26838,-1.9441 19.05103,0.8794 32.51741,9.3852 2.07917,1.3133 3.67037,1.7437 4.26146,1.1526 1.84517,-1.8452 4.92039,-15.3963 4.92039,-21.682 0,-3.5128 0.675,-8.3001 1.5,-10.6384 0.825,-2.3383 1.5,-5.6897 1.5,-7.4476 0,-1.7579 0.64039,-5.1888 1.4231,-7.6243 0.79919,-2.4868 1.62915,-10.3404 1.89311,-17.9137 l 0.47002,-13.4857 -4.55492,-9.0143 c -5.23314,-10.3566 -9.06642,-16.3274 -14.1495,-22.0394 -7.91323,-8.8924 -12.66604,-14.8638 -14.27986,-17.9413 -3.08319,-5.8794 -12.37964,-13.2718 -23.15131,-18.4095 -5.58285,-2.6629 -11.27564,-5.1894 -12.65064,-5.6144 -1.375,-0.4251 -6.325,-2.6999 -11,-5.0551 -4.675,-2.3552 -13.225,-6.305 -19,-8.7775 -17.60694,-7.5381 -21.07305,-9.2316 -33,-16.1232 -21.0535,-12.165 -23.29182,-13.0509 -32.97579,-13.051 -10.1979,-10e-5 -12.45013,1.0134 -22.52421,10.136 -5.46317,4.9472 -7.69182,6.3413 -10.15113,6.3499 -2.4195,0.01 -4.21891,1.0942 -7.75,4.6759 -2.52938,2.5652 -4.59887,4.9804 -4.59887,5.3667 0,1.4002 -8.02017,5.9681 -10.47856,5.9681 -3.42285,0 -3.1776,-1.4856 0.49651,-3.0074 5.48079,-2.2703 8.75147,-7.7291 10.44314,-17.4298 0.83691,-4.7992 1.80113,-9.1781 2.14271,-9.7307 0.83682,-1.3541 -5.55123,-7.8321 -7.72324,-7.8321 -2.60742,0 -7.31841,-4.4022 -13.49857,-12.6137 -3.05751,-4.0625 -5.91677,-7.3863 -6.35392,-7.3863 -0.43714,0 -1.03016,0.9 -1.31782,2 -0.28766,1.1 -0.91485,2 -1.39377,2 -0.92594,0 -4.38892,-3.2132 -10.66835,-9.8989 -2.11852,-2.2556 -4.23868,-4.1011 -4.71145,-4.1011 -0.47278,0 -1.36001,1.9125 -1.97163,4.25 -2.60827,9.9683 -4.73088,15.6813 -8.36549,22.5159 -4.26151,8.0134 -14.55347,19.2341 -17.64205,19.2341 -2.81102,0 -2.43923,-1.1461 1.63937,-5.0538 4.09717,-3.9255 5.1144,-6.0267 6.99365,-14.4462 1.95239,-8.7472 1.78994,-13.8457 -0.5074,-15.9248 -1.48201,-1.3412 -2.06861,-3.7017 -2.58568,-10.405 -0.36784,-4.7686 -1.11216,-10.4118 -1.65404,-12.5404 -0.68825,-2.7036 -0.6269,-5.3639 0.20353,-8.8255 1.02823,-4.2861 0.94836,-5.4883 -0.59145,-8.903 -0.97912,-2.1713 -2.94465,-4.5044 -4.36785,-5.1846 -1.9328,-0.9238 -3.09377,-2.8233 -4.58764,-7.5061 -1.67823,-5.2608 -2.78724,-6.8902 -6.89317,-10.1279 -5.77906,-4.557 -7.60683,-8.3473 -7.60683,-15.7744 0,-4.7409 -0.39784,-5.86 -3.01287,-8.475 -4.45629,-4.4563 -4.98713,-5.9681 -4.98713,-14.20246 0,-8.34508 -1.17918,-12.63084 -3.47525,-12.63084 -2.60946,0 -5.5228,-3.80123 -5.55655,-7.25 -0.039,-3.9842 -1.14142,-5.45062 -7.2182,-9.6015 -2.6125,-1.78452 -4.75,-3.60135 -4.75,-4.0374 0,-2.22947 -9.25743,-9.77844 -15.92991,-12.99004 -6.78188,-3.26427 -7.59148,-3.96356 -8.21654,-7.097 -0.38135,-1.91176 -1.58192,-4.16176 -2.66792,-5 -2.23487,-1.72498 -15.47723,-10.31816 -21.39597,-13.88417 -2.15447,-1.29806 -5.57602,-4.48639 -7.60344,-7.08517 -11.0785,-14.20064 -21.49328,-29.79548 -25.24097,-37.7952 -1.09261,-2.33227 -3.12373,-4.98558 -4.5136,-5.89626 -2.82077,-1.84824 -5.02812,-6.44212 -6.59982,-13.7354 -0.71465,-3.31626 -1.63372,-5.0248 -2.87799,-5.35018 -2.36645,-0.61884 -3.94769,-5.2607 -3.9777,-11.6769 -0.0317,-6.78881 -1.49613,-12.77662 -3.47929,-14.22674 -1.87997,-1.37467 -5.46392,-17.46803 -5.48371,-24.62404 -0.009,-3.40419 -0.5798,-5.31666 -2.01314,-6.75 -2.7484,-2.7484 -9.16816,-2.67488 -12.9873,0.14873 -2.68173,1.98269 -3.34834,2.05997 -8.62629,1 -3.14599,-0.6318 -12.57017,-1.14873 -20.94264,-1.14873 -16.98091,0 -16.79903,-0.0364 -52.44377,10.49827 -10.725,3.16973 -24.585681,7.25823 -30.801511,9.08554 -23.37826,6.87267 -44.55557,9.45285 -53.43166,6.50994 -5.19195,-1.72141 -7.50789,-5.52317 -9.74678,-15.99994 -1.52505,-7.13639 -1.72958,-10.13161 -0.97716,-14.30969 0.52338,-2.90627 1.1963,-6.96134 1.49538,-9.01127 0.30289,-2.07599 2.11965,-5.79165 4.10097,-8.38732 1.95645,-2.56308 5.53412,-8.00401 7.95038,-12.09094 9.28584,-15.70632 22.78613,-29.68216 39.41038,-40.79858 12.40973,-8.29822 40.848081,-22.37949 53.500001,-26.49057 5.5,-1.78715 12.27075,-4.52501 15.0461,-6.08413 2.77536,-1.55913 10.20036,-4.75959 16.5,-7.11215 l 11.4539,-4.27737 18.5,0.0506 c 23.75291,0.065 31.85126,2.27814 45.44834,12.42042 2.77841,2.07246 6.17666,4.09283 7.55166,4.48971 1.375,0.39688 4.525,1.97289 7,3.50225 2.475,1.52937 5.68003,3.39369 7.12229,4.14294 3.40148,1.76707 19.10669,20.23188 25.3993,29.86228 2.69532,4.125 8.70702,14.925 13.35934,24 18.14782,35.39992 27.53538,45.00982 48.74286,49.89732 11.07641,2.55268 17.23027,2.64082 26.6788,0.38211 6.54532,-1.56469 15.94038,-1.72324 103.69741,-1.75 l 96.5,-0.0294 8,2.69558 c 12.57259,4.2363 16.19385,4.96342 29,5.82294 10.72107,0.71958 13.97169,1.43914 30.5,6.75152 32.05208,10.30189 58.90006,21.04918 66.12636,26.47054 5.3454,4.01026 10.9214,6.4737 19.7625,8.73103 7.1032,1.81361 23.9682,8.18839 39.1111,14.78355 2.475,1.07793 7.5301,3.81459 11.2335,6.08147 15.7948,9.66806 26.8815,14.00062 42.7,16.68669 5.1884,0.88102 13.5168,2.90988 18.5076,4.50858 10.9974,3.52277 29.2685,7.70254 52.0589,11.90918 9.35,1.72582 21.95,4.44526 28,6.04321 6.05,1.59795 16.4,3.64795 23,4.55554 6.6,0.9076 14.6357,2.30721 17.8569,3.11025 3.2213,0.80304 10.5502,2.32235 16.2864,3.37623 5.7361,1.05388 12.1009,2.36624 14.1438,2.91636 2.043,0.55011 9.78915,1.89727 17.21365,2.99368 12.4711,1.84165 22.695,4.03769 41.9992,9.02122 7.4082,1.91249 23.0901,4.05994 44.5,6.09377 17.3593,1.64904 30.4013,3.65654 44.2085,6.8048 7.0353,1.60417 16.6165,3.44339 21.2915,4.08717 7.8214,1.07705 21.9853,4.16191 49,10.67206 5.775,1.39169 15.675,3.5888 22,4.88247 6.325,1.29366 18.7,4.13753 27.5,6.31969 8.8,2.18217 18.025,4.28 20.5,4.66185 10.0472,1.55013 20.0968,3.81892 31,6.99858 16.243,4.73686 26.4882,7.05342 42,9.49672 23.8891,3.7627 35.3629,6.1287 41.5,8.5576 7.7364,3.0619 12.8779,4.1102 24.2265,4.9397 5.0746,0.371 13.3996,1.563 18.5,2.6489 5.1004,1.086 16.2485,3.2633 24.7735,4.8386 8.525,1.5752 19.325,3.8453 24,5.0446 4.675,1.1993 12.7663,2.5872 17.9806,3.0843 7.9965,0.7623 10.1098,1.3517 13.5,3.7653 2.3943,1.7046 7.6582,3.7978 13.0194,5.1773 4.95,1.2736 14.625,4.7906 21.5,7.8154 l 12.5,5.4998 14.5,0.7451 c 16.8863,0.8678 32.0176,3.0303 41.0839,5.8714 3.5289,1.1059 13.1661,3.4119 21.4161,5.1245 34.7027,7.2039 64.0737,14.0528 70.5,16.4396 27.1607,10.0878 41.2653,14.4318 46.9424,14.4576 4.7806,0.022 35.8867,8.0687 51.5576,13.3377 10.4653,3.5187 55.0661,19.9156 66.6529,24.504 1.459,0.5778 2.9396,1.5146 3.2901,2.0817 0.3505,0.5671 5.2317,2.4342 10.8471,4.1491 5.6155,1.7149 11.0783,3.9595 12.1397,4.9881 3.0577,2.9632 0.8248,6.4254 -6.1263,9.4995 -3.1547,1.3951 -7.1617,4.0934 -8.9045,5.9961 l -3.1687,3.4594 h -11.1809 c -11.8198,0 -15.0494,0.8584 -15.0494,4 0,4.1807 -6.9895,5.3561 -21.5,3.6155 -8.5341,-1.0237 -11.4483,-1.0533 -13,-0.1319 -3.981,2.364 -7.0177,2.3684 -19.4021,0.028 -22.5749,-4.2665 -31.0739,-6.4807 -36.3883,-9.48 -8.9284,-5.0389 -13.4589,-6.1791 -28.2096,-7.0997 -7.7,-0.4805 -15.2375,-1.1642 -16.75,-1.5192 -2.4301,-0.5705 -2.75,-0.3592 -2.75,1.816 0,3.3954 -2.9739,5.7715 -7.2233,5.7715 -1.9612,0 -8.0843,-1.8128 -13.6069,-4.0285 -5.5227,-2.2157 -16.0326,-5.3572 -23.3555,-6.9811 -7.3229,-1.624 -15.7893,-3.6308 -18.8143,-4.4596 -7.1219,-1.9514 -8.9996,-1.9124 -10.5631,0.2192 -2.2081,3.0107 -11.9055,2.0345 -29.9369,-3.0135 -8.8,-2.4636 -19.375,-5.0792 -23.5,-5.8125 -6.4446,-1.1456 -40.8048,-12.2416 -58,-18.73 -3.025,-1.1415 -13.6,-4.1647 -23.5,-6.7183 -9.9,-2.5536 -20.9571,-5.5247 -24.5714,-6.6024 -5.0972,-1.52 -7.1869,-1.7255 -9.3151,-0.9164 -4.959,1.8854 -8.1582,1.1253 -26.738,-6.3525 -23.5663,-9.4848 -30.1871,-12.5382 -36.5534,-16.8584 -5.6964,-3.8655 -15.9964,-7.7256 -20.7663,-7.7823 -6.0178,-0.072 -31.4393,-7.0182 -53.0558,-14.4979 -21.2151,-7.3408 -22.2651,-7.5968 -29.4319,-7.1776 -4.4556,0.2607 -9.4617,-0.1028 -12.5,-0.9076 -10.0229,-2.655 -40.3212,-7.8714 -54.5681,-9.395 -5.775,-0.6176 -15,-1.7389 -20.5,-2.4918 -5.5,-0.753 -15.4,-1.6748 -22,-2.0486 -7.6156,-0.4313 -14.0095,-1.377 -17.5,-2.5884 -6.4691,-2.2451 -24.3266,-4.5295 -46,-5.8843 -8.525,-0.5329 -19.775,-1.4076 -25,-1.9436 -13.6133,-1.3967 -54.0525,-1.2429 -62.5,0.2376 -11.6961,2.0498 -26.3765,1.52 -41,-1.4799 -7.15,-1.4667 -15.92495,-2.9694 -19.49995,-3.3393 -3.575,-0.3698 -9.5988,-1.2562 -13.3862,-1.9696 -5.7757,-1.088 -7.7591,-1.0699 -12.2988,0.1126 -2.9769,0.7753 -10.0354,1.4097 -15.6856,1.4097 -5.8908,0 -12.162,0.5855 -14.7012,1.3727 -2.4355,0.7549 -7.1282,2.2139 -10.4282,3.2421 -3.4596,1.0779 -9.3871,1.9293 -14,2.011 -24.3724,0.4314 -39.5772,2.8059 -45.1408,7.0494 -1.9669,1.5002 -7.7033,3.7957 -13.5768,5.4328 -5.5941,1.5593 -10.5272,3.4716 -10.9626,4.2496 -0.4354,0.778 -2.3277,1.7027 -4.2052,2.0549 -5.7908,1.0864 -5.9937,1.856 -5.2392,19.8729 0.3735,8.918 1.1006,18.6896 1.6158,21.7146 0.5153,3.025 1.3961,8.425 1.9575,12 1.1476,7.3083 4.954,19.5351 8.504,27.3158 3.5827,7.8526 6.5473,16.802 6.5473,19.7647 0,1.4574 0.8489,3.7289 1.8864,5.0479 3.3632,4.2756 7.6679,12.2116 10.5078,19.3716 3.1942,8.0534 15.8526,29.5106 19.7196,33.4267 1.4376,1.4558 6.5638,5.3025 11.3916,8.5481 11.4573,7.7024 21.3786,17.5446 24.8615,24.6634 l 2.7423,5.6052 0.5979,39.3783 0.5979,39.3783 4.3475,4.0699 c 2.6314,2.4633 4.3475,4.9564 4.3475,6.3157 0,3.7481 1.8463,6.1131 4.7852,6.1297 1.4932,0.01 3.3898,0.467 4.2148,1.019 2.5441,1.7023 -1.6417,3.9657 -7.334,3.9657 h -4.9517 l 0.5437,7.75 c 0.2991,4.2625 1.4613,10.45 2.5827,13.75 1.1215,3.3 2.1786,7.7456 2.3492,9.8791 0.3034,3.7942 0.2116,3.9114 -4.1899,5.3553 -5.3903,1.7682 -32.6701,2.4882 -47,1.2404 z"
       id="path1" />
  </g>
</svg>
