<?xml version="1.0" encoding="UTF-8" standalone="no"?>
<!-- Created with Inkscape (http://www.inkscape.org/) -->

<svg
   version="1.1"
   id="svg1"
   width="415"
   height="121"
   viewBox="0 0 415 121"
   xmlns="http://www.w3.org/2000/svg"
   xmlns:svg="http://www.w3.org/2000/svg">
  <defs
     id="defs1" />
  <g
     id="g1">
    <path
       style="fill:#000000"
       d="m 105.17559,119.61875 c 0,-2.52182 3.23214,-4.29467 9.02455,-4.95001 3.2865,-0.37182 5.97545,-1.06792 5.97545,-1.54688 0,-0.47895 -0.41786,-0.87083 -0.92857,-0.87083 -1.72479,0 -4.19065,-3.24692 -3.61169,-4.75569 0.79681,-2.07645 -1.24905,-4.24431 -4.00546,-4.24431 -1.26546,0 -3.70436,1.18099 -5.41979,2.62443 -4.1891,3.52489 -4.88314,2.41172 -1.1484,-1.84192 3.00692,-3.42468 3.00771,-3.42896 0.9681,-5.17533 -1.94454,-1.66497 -2.14353,-1.66279 -4.19775,0.046 -1.18604,0.98658 -1.59394,1.15323 -0.90644,0.37032 1.58996,-1.81061 1.59855,-4.27492 0.0204,-5.85308 -0.67628,-0.67628 -1.968095,-3.11841 -2.870695,-5.42694 l -1.6411,-4.19734 -0.68598,3.12325 c -0.6638,3.02227 -4.57262,7.762 -4.57262,5.54465 0,-0.60279 0.45,-1.37409 1,-1.71401 1.29549,-0.80066 1.30258,-6.23159 0.009,-6.66667 -0.54522,-0.18333 -1.15999,-1.68333 -1.36616,-3.33333 -0.20617,-1.65 -0.89062,-4.86864 -1.521,-7.15254 -0.79013,-2.86267 -0.83517,-4.97046 -0.14503,-6.78568 0.82537,-2.1709 0.69587,-2.72547 -0.7377,-3.15915 -7.44932,-2.25351 -14.84411,-6.98143 -20.5368,-13.13037 C 58.424834,40.3126 55.581857,37.81312 50.421717,35.17623 c -4.17268,-2.13229 -6.07427,-2.42517 -15.745823,-2.42517 -10.335944,0 -11.414267,0.1962 -17.862274,3.25 -7.9657141,3.77259 -10.1618941,4.00762 -11.6400531,1.24565 -0.917917,-1.71514 -0.67049,-2.18114 1.714816,-3.22964 1.533131,-0.67392 3.1181201,-1.68446 3.5221981,-2.24566 0.404078,-0.56119 0.741578,-0.6772 0.75,-0.2578 0.0084,0.41939 1.806371,-0.36811 3.995441,-1.75 2.189071,-1.3819 4.439071,-2.51255 5,-2.51255 0.56093,0 1.019872,-0.45 1.019872,-1 0,-0.55 0.385471,-0.8875 0.856603,-0.75 1.028226,0.30009 10.446137,-6.28059 9.846545,-6.88019 -0.452215,-0.45221 -9.437789,1.75102 -16.703148,4.09556 -2.475,0.79868 -6.7500001,1.58321 -9.5000001,1.74339 -4.587928,0.26724 -5.02743401,0.0974 -5.33288001,-2.06047 -0.812241,-5.73829 0.452148,-7.10785 11.27519311,-12.21306 20.232833,-9.54379048 36.845326,-12.3948605 46.104559,-7.9125405 2.298076,1.11248 6.028218,4.21656 8.289205,6.89796 4.443594,5.2698305 11.044884,9.0798405 15.729644,9.0785305 1.61386,-4.5e-4 6.30928,-0.72239 10.43428,-1.60432 13.479675,-2.88196 41.100885,-0.30496 77.499995,7.2306 52.59943,10.88944 67.98058,12.76418 104,12.67615 35.88004,-0.0877 55.83228,-3.92782 81.09866,-15.60871 18.67178,-8.63214 36.11086,-15.5278105 42.83836,-16.9389205 4.49771,-0.94341 6.58843,-0.88162 11.2495,0.33243 5.58806,1.45551 5.73074,1.57964 5.96147,5.18619 0.16766,2.6208805 -0.28912,4.0630605 -1.57139,4.9611905 -0.99427,0.69642 -1.80624,1.71621 -1.80438,2.26621 0.002,0.55 -0.95553,1.48995 -2.12753,2.08878 -1.17201,0.59883 -2.95104,1.83099 -3.95342,2.73812 -1.00238,0.90714 -3.2379,1.93243 -4.96782,2.27841 -1.72993,0.34599 -3.10961,0.91383 -3.06597,1.26188 0.271,2.16099 -0.52363,3.27011 -3.40748,4.75604 -1.7875,0.92103 -3.83802,2.50759 -4.5567,3.52568 -0.76676,1.0862 -2.52291,1.85109 -4.25,1.85109 -1.93163,0 -2.9433,0.50859 -2.9433,1.47968 0,1.98756 -7.13195,5.52032 -11.14444,5.52032 -1.77326,0 -5.23351,0.97274 -7.68945,2.16163 -2.45593,1.1889 -6.08551,2.50898 -8.06572,2.93351 -1.98022,0.42454 -5.40039,1.24107 -7.60039,1.81452 -2.2,0.57344 -5.5975,1.05336 -7.55,1.06648 -1.9525,0.0131 -3.9831,0.45696 -4.51245,0.98631 -0.52934,0.52934 -4.33184,1.4839 -8.45,2.12124 -4.11815,0.63734 -8.43992,1.5981 -9.60393,2.13502 -1.16401,0.53693 -3.18901,0.9264 -4.5,0.8655 -7.82632,-0.36356 -14.33207,0.0431 -15.44326,0.96528 -0.70325,0.58365 -3.90253,0.98041 -7.1095,0.88168 -3.20697,-0.0987 -7.47098,0.14256 -9.47556,0.5362 -2.19274,0.43058 -4.48341,0.26684 -5.75,-0.41102 -1.47067,-0.78707 -2.1053,-0.80246 -2.1053,-0.051 0,1.10254 -7.63372,1.17434 -9.5,0.0893 -0.55,-0.31975 -1.9,-0.66326 -3,-0.76335 -1.1,-0.10008 -4.7,-0.45416 -8,-0.78684 -3.3,-0.33267 -8.925,-0.83983 -12.5,-1.12702 -12.13507,-0.97484 -17.49635,-1.3954 -19,-1.49045 -0.825,-0.0522 -2.175,-0.35003 -3,-0.66196 -3.21636,-1.21609 -4.86757,-1.41876 -15.70053,-1.92716 -14.01182,-0.65759 -20.66252,1.18588 -30.21917,8.37628 -6.13974,4.61953 -7.64253,6.90206 -5.91709,8.98726 2.1612,2.61183 9.00032,5.25293 13.66371,5.2766 6.01564,0.0305 9.60342,3.67003 10.53412,10.68594 0.63244,4.76756 2.47565,7.17302 4.52559,5.90609 0.38838,-0.24003 0.74044,1.22101 0.78236,3.24675 0.0419,2.02575 0.85774,6.36678 1.81295,9.64673 1.20524,4.13846 1.39725,6.07672 0.62741,6.33333 -0.61014,0.20338 -1.10935,1.45729 -1.10935,2.78645 0,1.37207 -0.58843,2.41667 -1.36133,2.41667 -0.91286,0 -1.20389,0.82359 -0.88342,2.5 0.57471,3.00643 -0.7894,3.22473 -3.23869,0.51829 -1.38699,-1.5326 -1.65888,-2.9633 -1.19974,-6.31311 0.32653,-2.38227 0.34174,-5.29483 0.0338,-6.47236 -0.47063,-1.7997 -1.06125,-2.04299 -3.70525,-1.52632 -1.72996,0.33806 -4.20202,1.29807 -5.49348,2.13336 -1.90166,1.22997 -2.72158,1.28546 -4.31254,0.29189 -4.38073,-2.73581 -7.48668,1.12437 -5.7571,7.15508 1.37115,4.7809 1.08874,5.48856 -1.08274,2.71317 -6.69227,-8.55345 -1.03714,-18.98743 10.29579,-18.99626 l 4.79533,-0.004 -0.62097,-3.75 c -1.12608,-6.80044 -2.60621,-9.27771 -6.86281,-11.48624 -3.63517,-1.8861 -5.82964,-2.13846 -19.10685,-2.19729 -13.51414,-0.0599 -15.42099,-0.28776 -19.25,-2.30042 l -4.25,-2.23395 0.022,4.23395 c 0.0251,4.84309 2.70785,11.35534 5.81725,14.12124 1.16692,1.03801 2.40132,3.37791 2.7431,5.19978 0.53031,2.82676 0.0556,4.01638 -3.23725,8.11271 -5.55279,6.90771 -6.45767,8.76651 -5.02339,10.31907 0.92508,1.00137 0.82893,1.15341 -0.44738,0.70741 -1.10109,-0.38478 -1.58514,-0.0289 -1.5,1.10282 0.11187,1.48695 -1.44322,1.67602 -14.12429,1.71721 -10.60258,0.0345 -14.25,-0.26722 -14.25,-1.17857 z M 131.5867,107.1743 c 3.26729,-3.88296 3.27959,-7.99263 0.0417,-13.92327 l -2.45685,-4.5 0.37657,5.6885 c 0.33835,5.11124 0.0982,5.9738 -2.36608,8.5 -2.16163,2.21589 -2.56557,3.28815 -1.90676,5.0615 1.14899,3.09278 3.24435,2.81831 6.31145,-0.82673 z"
       id="path1" />
  </g>
</svg>
