<?xml version="1.0" encoding="UTF-8" standalone="no"?>
<!-- Created with Inkscape (http://www.inkscape.org/) -->

<svg
   version="1.1"
   id="svg1"
   width="2644"
   height="1012"
   viewBox="0 0 2644 1012"
   sodipodi:docname="Achillobator_size_inspyrenet_bria.png"
   inkscape:export-filename="Human.svg"
   inkscape:export-xdpi="96"
   inkscape:export-ydpi="96"
   xml:space="preserve"
   xmlns:inkscape="http://www.inkscape.org/namespaces/inkscape"
   xmlns:sodipodi="http://sodipodi.sourceforge.net/DTD/sodipodi-0.dtd"
   xmlns="http://www.w3.org/2000/svg"
   xmlns:svg="http://www.w3.org/2000/svg"><defs
     id="defs1" /><sodipodi:namedview
     id="namedview1"
     pagecolor="#ffffff"
     bordercolor="#000000"
     borderopacity="0.25"
     inkscape:showpageshadow="2"
     inkscape:pageopacity="0.0"
     inkscape:pagecheckerboard="0"
     inkscape:deskcolor="#d1d1d1"><inkscape:page
       x="0"
       y="0"
       width="2644"
       height="1012"
       id="page2"
       margin="0"
       bleed="0" /></sodipodi:namedview><g
     inkscape:groupmode="layer"
     inkscape:label="Image"
     id="g1"><path
       style="fill:#000000;stroke-width:3.17917"
       d="m 843.09881,1005.1697 c -15.11317,-6.35485 -15.62089,-8.18985 -3.98796,-14.41565 6.06841,-3.2475 12.52214,-3.3928 20.90563,-0.4705 6.66992,2.3253 16.27199,3.1439 21.33832,1.8191 8.07193,-2.111 8.88802,-4.4276 6.59997,-18.7358 -1.61756,-10.1165 -0.57734,-19.657 2.73505,-25.0811 4.56371,-7.473 4.15041,-9.6403 -2.82247,-14.8104 -10.68522,-7.9226 -6.50842,-11.7241 7.16872,-6.5241 13.05339,4.9629 16.74187,10.4603 19.85047,29.5862 2.19935,13.5297 2.91276,14.1277 9.27048,7.77 3.7883,-3.7883 8.19337,-13.8472 9.789,-22.353 2.68068,-14.2881 1.61725,-16.5646 -13.97185,-29.9082 -9.28033,-7.9436 -24.3579,-25.3986 -33.50598,-38.7888 -20.19922,-29.567 -44.87885,-53.6394 -100.64384,-98.1679 -138.09532,-110.2694 -150.48117,-127.8972 -150.48117,-214.1682 0,-40.5286 -0.77149,-44.8782 -8.71393,-49.1288 -13.14205,-7.0334 -51.18275,-1.0551 -100.01888,15.7187 -49.22304,16.9066 -62.33743,17.1517 -64.19757,1.1998 -0.92228,-7.9092 3.59451,-15.7721 17.04522,-29.6723 10.06499,-10.4014 23.06147,-24.6341 28.88105,-31.6283 13.57689,-16.3173 52.29018,-45.1905 73.70286,-54.9692 23.70582,-10.826 66.60604,-19.0949 75.2769,-14.5095 3.9266,2.0767 10.42293,3.7757 14.43601,3.7757 26.63864,0 61.03129,56.5717 61.14797,100.5808 0.035,13.4568 1.50534,26.7319 3.26533,29.5003 5.35851,8.4267 22.03647,12.5964 72.97007,18.2433 80.82071,8.9603 168.79205,32.5757 206.82679,55.5214 8.6435,5.2145 33.2329,18.4871 54.6427,29.4947 21.4099,11.0076 44.3,23.6663 50.8669,28.1306 30.8691,20.9855 77.8987,39.2841 122.1513,47.5271 61.1759,11.3955 116.9018,22.6939 148.3613,30.0803 41.7458,9.8014 98.903,21.3456 127.1672,25.6843 11.657,1.7894 35.5009,6.1471 52.9864,9.6837 17.4854,3.5366 46.098,8.6227 63.5835,11.3023 32.0887,4.9177 95.5664,18.0309 122.9283,25.3947 20.6001,5.544 74.3914,17.4554 98.5545,21.8235 11.074,2.002 30.1491,5.5012 42.3889,7.7761 12.2398,2.275 32.3246,5.4089 44.6328,6.9643 12.3082,1.5554 23.3889,4.4628 24.624,6.461 1.2348,1.9981 6.8514,3.6331 12.4814,3.6331 11.0712,0 63.6595,12.502 108.0723,25.6925 15.22,4.5202 32.1399,8.2186 37.6002,8.2186 21.1224,0 61.1168,34.1689 53.8177,45.9789 -4.694,7.5951 -40.181,10.3843 -71.7712,5.6409 -16.6999,-2.5075 -47.5312,-6.6543 -68.5138,-9.215 -32.5347,-3.9706 -79.5506,-14.6484 -131.4059,-29.8438 -35.3731,-10.3655 -87.0999,-20.695 -92.7591,-18.5234 -3.5213,1.3513 -16.8122,-0.5695 -29.5353,-4.2682 -12.723,-3.6987 -28.9457,-6.7249 -36.0502,-6.7249 -13.1539,0 -22.2759,-2.239 -104.4675,-25.6407 -25.6451,-7.3018 -55.2115,-14.6475 -65.7028,-16.3238 -10.4912,-1.6762 -25.7513,-6.1158 -33.9113,-9.8655 -8.1599,-3.7498 -25.9595,-8.085 -39.5547,-9.6338 -13.5951,-1.5488 -34.0982,-7.5272 -45.5623,-13.2853 -24.4625,-12.2868 -64.6267,-22.0792 -111.992,-27.3047 -18.6513,-2.0577 -48.2176,-6.5306 -65.7031,-9.9399 -73.1185,-14.2567 -129.9689,-20.2936 -173.7948,-18.4553 -56.5404,2.3716 -77.3338,11.9857 -112.46306,51.9985 l -24.51178,27.9192 -2.90322,45.4004 c -1.59658,24.9703 -6.17396,56.2738 -10.17178,69.5635 -6.71283,22.3148 -6.7532,25.6818 -0.52933,44.0139 7.59251,22.36355 5.91676,27.62125 -5.50824,17.28165 -10.05796,-9.10225 -12.00013,-8.87435 -14.77427,1.7336 -2.14404,8.1994 -4.94394,8.702 -42.83401,7.692 -22.29684,-0.5945 -46.28437,-3.4965 -53.3059,-6.4486 z"
       id="path2" /></g></svg>
