<?xml version="1.0" encoding="UTF-8" standalone="no"?>
<!-- Created with Inkscape (http://www.inkscape.org/) -->

<svg
   version="1.1"
   width="718.59705"
   height="292"
   id="svg2"
   style="display:inline"
   sodipodi:docname="Deinonychus_Scale.svg"
   inkscape:version="1.4.2 (ebf0e940d0, 2025-05-08)"
   xmlns:inkscape="http://www.inkscape.org/namespaces/inkscape"
   xmlns:sodipodi="http://sodipodi.sourceforge.net/DTD/sodipodi-0.dtd"
   xmlns="http://www.w3.org/2000/svg"
   xmlns:svg="http://www.w3.org/2000/svg">
  <sodipodi:namedview
     id="namedview1"
     pagecolor="#ffffff"
     bordercolor="#000000"
     borderopacity="0.25"
     inkscape:showpageshadow="2"
     inkscape:pageopacity="0.0"
     inkscape:pagecheckerboard="0"
     inkscape:deskcolor="#d1d1d1"
     inkscape:zoom="1.0158684"
     inkscape:cx="233.79013"
     inkscape:cy="153.07101"
     inkscape:window-width="1536"
     inkscape:window-height="888"
     inkscape:window-x="0"
     inkscape:window-y="0"
     inkscape:window-maximized="1"
     inkscape:current-layer="svg2" />
  <defs
     id="defs4">
    <marker
       refX="0"
       refY="0"
       orient="auto"
       id="Arrow2Lend"
       style="overflow:visible">
      <path
         d="M 8.7185878,4.0337352 -2.2072895,0.01601326 8.7185884,-4.0017078 c -1.7454984,2.3720609 -1.7354408,5.6174519 -6e-7,8.035443 z"
         transform="matrix(-1.1,0,0,-1.1,-1.1,0)"
         id="path3691"
         style="font-size:12px;fill-rule:evenodd;stroke-width:0.625;stroke-linejoin:round" />
    </marker>
    <marker
       refX="0"
       refY="0"
       orient="auto"
       id="Arrow2Lstart"
       style="overflow:visible">
      <path
         d="M 8.7185878,4.0337352 -2.2072895,0.01601326 8.7185884,-4.0017078 c -1.7454984,2.3720609 -1.7354408,5.6174519 -6e-7,8.035443 z"
         transform="matrix(1.1,0,0,1.1,1.1,0)"
         id="path3688"
         style="font-size:12px;fill-rule:evenodd;stroke-width:0.625;stroke-linejoin:round" />
    </marker>
    <marker
       refX="0"
       refY="0"
       orient="auto"
       id="Arrow1Lstart"
       style="overflow:visible">
      <path
         d="M 0,0 5,-5 -12.5,0 5,5 0,0 z"
         transform="matrix(0.8,0,0,0.8,10,0)"
         id="path3670"
         style="fill-rule:evenodd;stroke:#000000;stroke-width:1pt;marker-start:none" />
    </marker>
    <marker
       refX="0"
       refY="0"
       orient="auto"
       id="Arrow2Lstart-1"
       style="overflow:visible">
      <path
         d="M 8.7185878,4.0337352 -2.2072895,0.01601326 8.7185884,-4.0017078 c -1.7454984,2.3720609 -1.7354408,5.6174519 -6e-7,8.035443 z"
         transform="matrix(1.1,0,0,1.1,1.1,0)"
         id="path3688-7"
         style="font-size:12px;fill-rule:evenodd;stroke-width:0.625;stroke-linejoin:round" />
    </marker>
    <marker
       refX="0"
       refY="0"
       orient="auto"
       id="Arrow2Lend-4"
       style="overflow:visible">
      <path
         d="M 8.7185878,4.0337352 -2.2072895,0.01601326 8.7185884,-4.0017078 c -1.7454984,2.3720609 -1.7354408,5.6174519 -6e-7,8.035443 z"
         transform="matrix(-1.1,0,0,-1.1,-1.1,0)"
         id="path3691-0"
         style="font-size:12px;fill-rule:evenodd;stroke-width:0.625;stroke-linejoin:round" />
    </marker>
  </defs>
  <path
     d="m 84.094454,91.015623 c 0.47452,-8.37159 15.27413,-10.03819 18.203846,-10.84638 2.9297,-0.8082 16.9721,-8.89015 33.64113,-9.39527 16.66902,-0.50513 22.42742,0.40409 25.86225,2.82868 3.43483,2.42459 4.64712,5.25327 12.52702,9.19322 7.87991,3.93995 15.15367,7.07171 22.7305,7.47581 7.57683,0.4041 36.87391,-2.02049 52.93679,-1.81844 16.06288,0.20205 24.95303,3.63688 29.90323,4.64712 4.9502,1.010248 8.08195,-0.10102 13.2342,0.8082 5.15224,0.909218 9.29424,3.232778 13.63829,3.737898 4.34405,0.50512 47.88558,0.60615 54.25012,-0.50512 6.36453,-1.11127 11.6178,-2.52561 15.86083,-2.62664 4.24302,-0.10102 15.75981,-1.515358 22.83152,-3.333798 7.07171,-1.81844 21.1141,-2.52561 29.8022,-3.63688 8.6881,-1.11127 26.56942,-2.92971 39.80362,-2.82868 13.2342,0.10102 26.36737,0.60614 28.58991,1.41434 2.22254,0.80819 3.3338,2.12151 6.76863,2.22254 3.43483,0.10102 11.61781,-0.4041 17.7803,1.51536 6.16249,1.91947 16.26493,0.90922 20.20489,1.81844 3.93995,0.90922 22.52844,3.939948 28.5899,6.061468 6.06147,2.12151 7.37479,3.939949 9.39528,4.445069 2.02048,0.50512 9.29424,1.91946 13.03215,3.33381 3.7379,1.41434 14.04239,2.52561 16.9721,3.23278 2.92971,0.70717 8.284,2.62663 14.24444,2.32356 5.96044,-0.30307 9.29425,-1.11127 9.59732,-0.20205 0.30307,0.90922 -3.93995,2.12151 -4.5461,3.43483 -0.60615,1.31332 -0.50512,2.62663 -1.31332,3.23278 -0.80819,0.60615 -2.22253,-0.20205 -3.7379,0.50512 -1.51537,0.70717 -5.35429,0.10103 -6.06147,1.01025 -0.70717,0.90922 -3.7379,1.21229 -6.76863,0.4041 -3.03073,-0.8082 -5.15225,-2.12152 -6.06147,-2.12152 -0.90922,0 -1.91946,1.51537 -4.04097,1.2123 -2.12152,-0.30308 -12.22396,-5.45532 -14.14342,-5.55635 -1.91946,-0.10102 -3.7379,1.31332 -6.66761,0.20205 -2.92971,-1.11127 -11.11269,-5.65737 -12.62805,-5.55634 -1.51537,0.10102 -1.01025,2.52561 -2.32357,2.72766 -1.31331,0.20205 -13.53727,-8.284 -15.55776,-8.18298 -2.02048,0.10102 -1.21229,2.52561 -3.13175,2.22254 -1.91947,-0.30308 -11.51679,-9.294249 -33.33806,-10.102439 -21.82127,-0.808198 -38.99651,-1.222488 -54.99796,-0.0795 -16.00145,1.14296 -56.71943,13.858399 -73.5781,17.715899 -16.85868,3.85749 -17.00155,2.14305 -29.85985,4.57184 -12.85831,2.42879 -18.85886,5.14332 -23.00209,5.7148 -4.14323,0.57148 -6.00054,2.28592 -10.14378,3.28602 -4.14323,1.00009 -6.42915,-0.28574 -9.71516,2.71453 -3.28602,3.00027 -8.28647,9.71516 -11.71535,18.28737 -3.42889,8.57221 -5.57194,14.71562 -9.85804,16.85867 -4.2861,2.14305 -25.43088,-3.57175 -25.43088,-3.57175 0,0 2.00018,2.8574 2.42879,6.57202 0.42861,3.71463 -1.4287,12.57257 -1.00009,16.2872 0.42861,3.71462 8.00073,19.5732 7.85786,22.57347 -0.14287,3.00027 -6.28629,5.28619 -7.71499,7.85786 -1.4287,2.57166 0.85722,5.57193 -3.57175,7.57211 -4.42897,2.00018 -8.00072,-1.00009 -13.00118,-1.00009 -5.00045,0 -5.42906,1.00009 -8.85794,1.4287 -3.42889,0.42861 -4.71472,-1.00009 -6.14342,-0.14287 -1.4287,0.85722 -2.8574,-1.28583 2.14305,-3.28601 5.00046,-2.00018 12.57257,-0.85722 13.42979,-3.14314 0.85722,-2.28592 -0.57148,-3.42889 -0.57148,-5.00046 0,-1.57157 2.00018,-3.85749 -0.85722,-5.42906 -2.8574,-1.57157 -7.28637,0.85722 -8.14359,0.28574 -0.85722,-0.57148 3.00027,-4.00036 7.1435,-3.71462 4.14323,0.28574 5.57194,1.28583 7.00064,3.71462 1.4287,2.42879 0.85722,6.28628 3.71462,6.00054 2.8574,-0.28574 6.85776,-3.28601 6.14341,-7.71498 -0.71435,-4.42897 -3.57175,-12.71544 -8.00072,-19.71607 -4.42898,-7.00064 -7.14351,-7.00064 -9.85804,-11.42961 -2.71453,-4.42898 -2.14305,-6.28629 -5.42906,-10.85813 -3.28602,-4.57184 -5.85768,-6.71489 -7.28638,-6.42915 -1.4287,0.28574 -3.00027,13.71552 -5.7148,18.71598 -2.71453,5.00045 -6.28629,9.42942 -10.42952,9.5723 -4.14323,0.14287 -13.00118,-9.00082 -13.8584,-8.42934 -0.85722,0.57148 -0.28574,4.85758 0.71435,8.14359 1.00009,3.28602 2.14305,5.42907 1.71444,6.28629 -0.42861,0.85722 -2.00018,0.42861 -3.42888,1.57157 -1.4287,1.14296 -1.93314,3.34383 -3.00027,2.57166 -1.41864,-1.02653 1.73895,-3.40437 1.59608,-5.26168 -0.14287,-1.85731 -2.4533,-2.59617 -2.4533,-4.59635 0,-2.00019 0.71435,-10.71526 -2.14305,-12.4297 -2.85741,-1.71444 -3.28602,0.14287 -2.71454,3.00027 0.57148,2.8574 2.00019,5.14332 1.71445,7.1435 -0.28575,2.00019 -2.28593,2.57167 -2.28593,5.14333 0,2.57166 2.44898,4.84811 0.85722,4.71471 -1.66923,-0.13989 -3.14314,-2.71453 -3.00027,-8.42934 0.14287,-5.7148 -0.17754,-11.81636 -0.74902,-16.10247 -0.57148,-4.2861 -2.25125,-10.04275 -1.39403,-12.32868 0.85722,-2.28592 11.83371,-4.46364 11.83371,-7.0353 0,-2.57166 -5.26168,-7.25171 -9.26205,-10.25198 -4.00036,-3.00027 -5.00045,-11.42961 -8.5722,-13.14405 -3.57176,-1.71444 -14.00127,-5.28619 -21.00191,-9.14368 -7.00063,-3.8575 -12.4297,-12.14396 -20.57329,-13.71553 -8.1436,-1.571569 -21.85913,-2.000179 -34.14596,-1.857309 -12.286826,0.14287 -16.992316,0.32394 -20.287556,-0.71435 -2.72364,-0.85819 -4.77079,-3.990438 -4.62025,-6.646428 z"
     id="path4799"
     style="color:#000000;display:inline;overflow:visible;visibility:visible;fill:#000000;fill-opacity:1;fill-rule:nonzero;stroke:none;stroke-width:1.5;marker:none;enable-background:accumulate" />
</svg>
