<?xml version="1.0" encoding="UTF-8" standalone="no"?>
<!-- Created with Inkscape (http://www.inkscape.org/) -->

<svg
   version="1.1"
   id="svg1"
   width="2644"
   height="1012"
   viewBox="0 0 2644 1012"
   sodipodi:docname="Achillobator_size_inspyrenet_bria.png"
   inkscape:export-filename="Concavenator.svg"
   inkscape:export-xdpi="96"
   inkscape:export-ydpi="96"
   xml:space="preserve"
   xmlns:inkscape="http://www.inkscape.org/namespaces/inkscape"
   xmlns:sodipodi="http://sodipodi.sourceforge.net/DTD/sodipodi-0.dtd"
   xmlns="http://www.w3.org/2000/svg"
   xmlns:svg="http://www.w3.org/2000/svg"><defs
     id="defs1" /><sodipodi:namedview
     id="namedview1"
     pagecolor="#ffffff"
     bordercolor="#000000"
     borderopacity="0.25"
     inkscape:showpageshadow="2"
     inkscape:pageopacity="0.0"
     inkscape:pagecheckerboard="0"
     inkscape:deskcolor="#d1d1d1"><inkscape:page
       x="0"
       y="0"
       width="2644"
       height="1012"
       id="page2"
       margin="0"
       bleed="0" /></sodipodi:namedview><g
     inkscape:groupmode="layer"
     inkscape:label="Image"
     id="g1"><path
       style="fill:#000000;stroke-width:3.42803"
       d="m 1187.0738,993.00264 c -29.7815,-1.43973 -32.8441,-2.54837 -39.8628,-14.43059 -4.1818,-7.0789 -17.5365,-23.45104 -29.6776,-36.38291 l -22.0743,-23.51213 -100.32232,0.27424 c -55.17726,0.15088 -110.60634,2.35474 -123.17571,4.89939 -12.56942,2.54489 -51.64881,6.337 -86.84313,8.42669 -35.1943,2.08981 -82.50093,6.10599 -105.12586,8.92487 -52.68122,6.56362 -404.50605,11.05602 -404.50605,5.16539 0,-8.06175 10.07625,-10.52161 58.74219,-14.34184 26.76796,-2.10142 80.54957,-7.07341 119.51472,-11.04847 38.96511,-3.97552 99.64101,-9.05205 134.83534,-11.28123 35.19432,-2.22931 73.24532,-6.20169 84.55777,-8.82754 24.60271,-5.71106 86.82496,-13.97735 127.97931,-17.00229 16.34023,-1.20112 45.13557,-5.0526 63.98967,-8.55875 18.85409,-3.50651 43.53581,-7.7651 54.84828,-9.46405 48.44557,-7.27563 146.82989,-37.04833 169.11549,-51.17692 6.2848,-3.98436 21.2147,-15.45794 33.1777,-25.49646 19.7329,-16.55872 24.8215,-18.51308 54.8483,-21.06656 20.7615,-1.76586 37.8832,-6.0076 45.9379,-11.38102 15.0204,-10.02017 58.0051,-65.5968 58.0051,-74.9972 0,-3.54484 -7.0467,-24.1829 -15.6593,-45.86274 -11.2145,-28.22905 -19.721,-63.41827 -29.969,-123.97525 -7.8704,-46.50658 -16.3009,-93.8132 -18.7347,-105.12569 -8.4022,-39.05672 5.7811,-89.16678 36.6413,-129.45459 11.8951,-15.52891 24.3515,-33.33301 27.6807,-39.5648 10.8137,-20.24072 42.0022,-57.14128 51.2785,-60.67008 4.974,-1.89193 10.0393,-7.24752 11.2562,-11.90104 2.6232,-10.03073 25.1325,-29.18855 82.5312,-70.2418 39.149,-28.000386 67.894,-40.110889 95.2061,-40.110889 3.6717,0 10.1979,-4.113618 14.5029,-9.141489 4.3048,-5.027535 11.3688,-9.141154 15.6978,-9.141154 4.3288,0 13.3507,-4.713862 20.0486,-10.474989 l 12.1779,-10.474993 27.4112,8.987241 c 21.7991,7.147072 29.1711,7.887864 36.0072,3.618951 15.0055,-9.371168 23.195,-6.097757 65.6666,26.247303 22.8326,17.388612 47.0676,34.146136 53.8557,37.238885 7.5229,3.427685 14.3364,11.666584 17.4499,21.100824 3.535,10.71118 14.3424,22.46791 35.0941,38.17749 16.4923,12.48484 31.3438,22.69999 33.0033,22.69999 1.6596,0 12.9347,16.96868 25.0559,37.70819 12.1213,20.7395 26.7316,44.90702 32.4674,53.70537 15.621,23.9618 43.1995,94.08122 48.3927,123.04017 4.6333,25.8369 24.0973,80.27141 32.3643,90.51263 2.4802,3.07222 15.1033,10.70779 28.0514,16.96733 12.9482,6.25988 36.6157,19.59282 52.5947,29.62938 34.6335,21.75348 60.5017,26.78412 95.0775,18.48973 47.961,-11.50587 104.0259,7.11209 158.5299,52.64404 46.3047,38.68247 55.2015,67.16718 29.9587,95.91728 -9.7601,11.11608 -18.0945,16.1566 -26.7157,16.1566 -6.8917,0 -16.253,4.11363 -20.803,9.14113 -11.781,13.01794 -24.8485,11.40193 -55.0985,-6.8138 -25.7711,-15.51869 -39.989,-18.36766 -22.2696,-4.46267 21.6407,16.98243 43.442,24.98854 68.0446,24.98854 h 25.3208 v 16.60087 c 0,9.13022 -4.2813,23.52781 -9.5141,31.99469 -12.5066,20.23596 -23.3828,21.02474 -82.9211,6.01247 -58.9359,-14.8601 -82.9221,-11.50923 -135.7875,18.96991 -49.326,28.43847 -68.8813,56.37518 -51.2182,73.17001 16.7288,15.90629 121.3993,78.85124 140.2192,84.32198 24.2419,7.0477 31.4901,14.4499 26.6074,27.17429 -5.6898,14.82722 -78.5846,4.1454 -116.2483,-17.0352 -11.1319,-6.25985 -28.4672,-16.02739 -38.5227,-21.70477 -10.0555,-5.6775 -23.7422,-14.19549 -30.415,-18.92891 -6.6728,-4.73341 -13.2669,-8.60638 -14.6536,-8.60638 -1.3868,0 -12.9865,-6.17044 -25.7771,-13.71205 -12.7907,-7.54162 -24.8122,-13.71206 -26.7145,-13.71206 -1.9023,0 -7.9489,9.24196 -13.4368,20.53794 l -9.978,20.5376 16.4815,6.88652 c 9.0647,3.78724 20.0251,6.88618 24.3562,6.88618 8.4784,0 23.0036,13.62738 23.0036,21.58179 0,2.67555 3.0852,6.04835 6.8562,7.49542 27.7761,10.65862 -45.0946,17.28842 -85.9017,7.81547 -29.3898,-6.82276 -66.4481,-32.14173 -72.097,-49.25785 -3.5388,-10.72278 -7.8291,-15.13434 -14.8994,-15.32158 -55.5374,-1.46989 -384.4008,0.699 -386.2492,2.54745 -4.4519,4.45198 5.7757,10.19114 35.8031,20.09088 35.3664,11.66013 73.1311,34.33394 73.1311,43.90775 0,5.62813 -8.1659,6.84783 -45.8446,6.84783 -52.8969,0 -81.632,-9.48944 -129.8519,-42.88142 -62.5719,-43.33075 -74.3576,-46.47359 -111.2494,-29.66771 -17.9448,8.17475 -26.8223,9.3156 -55.7401,7.16284 -30.3531,-2.26019 -33.368,-1.80221 -25.6507,3.8955 4.8098,3.55111 18.1791,9.92656 29.7095,14.16737 26.4666,9.73492 41.5324,23.04523 41.5324,36.69312 0,11.67411 6.5308,11.00773 -71.1106,7.25405 z"
       id="path2" /></g></svg>
