<?xml version="1.0" encoding="UTF-8" standalone="no"?>
<!-- Created with Inkscape (http://www.inkscape.org/) -->

<svg
   version="1.1"
   id="svg1"
   width="230"
   height="308"
   viewBox="0 0 230 308"
   xmlns="http://www.w3.org/2000/svg"
   xmlns:svg="http://www.w3.org/2000/svg">
  <defs
     id="defs1" />
  <g
     id="g1">
    <path
       id="path17"
       d="m 196.01096,13.609947 v 0.002 c -2.82326,-0.06427 -7.02219,0.912413 -12.00391,2.900391 -6.90803,2.756678 -8.75711,3.103756 -13.73828,2.572265 -19.82626,-2.115466 -21.54597,-2.060908 -28.33984,0.904297 -9.53932,4.16346 -17.98478,13.208018 -21.90625,23.460938 -2.91521,7.621983 -10.92174,22.895045 -15.76953,30.080078 -4.915233,7.284979 -19.233393,35.710584 -19.246103,38.208984 -0.003,0.66597 -0.63964,2.42576 -1.41406,3.91015 -6.76477,12.96669 -8.36123,44.52174 -3.55664,70.30078 3.50803,18.8223 5.25864,33.55152 4.25586,35.79883 -0.6058,1.35766 -0.48299,3.2803 0.35742,5.63086 0.70193,1.96325 1.29617,5.65091 1.32031,8.19336 0.0396,4.17624 -0.36744,5.00385 -4.20703,8.57422 -3.41304,3.17372 -4.27236,4.66793 -4.36133,7.58984 -0.0609,2.00113 -0.86218,4.78679 -1.78125,6.18946 -2.36959,3.61646 -10.46691,9.25321 -14.60351,10.16601 -2.34231,0.51685 -5.98734,3.27982 -9.00781,6.49414 -0.0804,0.0856 -0.17049,0.15988 -0.25,0.2461 -0.20163,0.14231 -0.38618,0.31504 -0.54883,0.51367 -0.18468,0.17501 -0.36186,0.36127 -0.53125,0.56054 -0.56504,0.66468 -1.6112,2.5631 -3.58203,3.75782 -5.34016,3.2372 -12.20633,8.54918 -12.07422,9.34179 0.0638,0.38266 -0.88847,1.20232 -2.11719,1.82032 -1.22872,0.61799 -2.44267,1.75439 -2.69727,2.52539 -0.38137,1.15488 0.74861,1.27822 6.41993,0.70703 3.78616,-0.3816 8.45976,-1.09447 10.38476,-1.58594 1.925,-0.49149 4.85,-1.11198 6.5,-1.37891 1.65,-0.26692 6.6,-1.41966 11,-2.5625 l 6.79492,-2.15624 c -0.0017,3.3e-4 -0.0041,-3.4e-4 -0.0059,0 0.0045,-0.001 0.0092,-0.002 0.01368,-0.004 l 0.0039,-0.002 c 2.24208,-0.43222 7.91927,-2.01511 13.19141,-4.51758 7.02567,-3.3348 13.19993,-7.5448 18.111333,-12.34961 1.15979,-1.13463 4.08479,-2.50144 6.5,-3.03711 2.4152,-0.53567 8.52858,-1.86673 13.58593,-2.95899 5.05735,-1.09225 10.74028,-2.6308 12.62891,-3.41992 5.37795,-2.24705 9.7854,-0.8908 11.94922,3.67969 1.94543,4.10921 3.33059,4.91441 12.22656,7.10352 7.2064,1.77335 25.20609,3.1192 28.9961,2.16796 2.17569,-0.54606 2.60112,-1.1091 2.14648,-2.84765 -0.32814,-1.25481 0.0708,-2.87331 0.94727,-3.8418 1.37443,-1.51873 1.20534,-1.86275 -1.82618,-3.73633 -2.82972,-1.74886 -4.89929,-2.05328 -13.55273,-1.99218 -6.77238,0.0478 -10.71677,-0.34679 -11.71094,-1.17188 -2.07215,-1.71972 -1.90139,-2.26585 1.28906,-4.08008 1.83324,-1.04247 3.2526,-3.08196 4.17383,-6 1.74104,-5.51488 4.79312,-11.87763 6.78516,-14.14453 0.94982,-1.08088 1.67169,-4.44104 1.93164,-9 0.22816,-4.00133 1.95552,-14.28409 3.83984,-22.84961 3.98797,-18.12798 6.0084,-34.84927 7.9043,-65.42578 1.61992,-26.1258 0.9079,-36.81667 -3.5625,-53.499995 -3.68816,-13.764015 -5.36582,-17.268164 -10.93164,-22.833985 -3.19078,-3.19078 -4.21099,-4.974229 -4.14649,-7.24414 0.25327,-8.907803 8.56145,-21.932918 18.54688,-29.076172 7.61487,-5.447436 9.84199,-7.710465 9.47852,-9.628906 -0.25114,-1.325632 -1.61469,-2.0047 -3.81055,-2.054688 z" />
  </g>
</svg>
