<?xml version="1.0" encoding="UTF-8" standalone="no"?>
<!-- Created with Inkscape (http://www.inkscape.org/) -->

<svg
   version="1.1"
   id="svg1"
   width="2644"
   height="1012"
   viewBox="0 0 2644 1012"
   sodipodi:docname="Achillobator_size_inspyrenet_bria.png"
   inkscape:export-filename="Dimetrodon.svg"
   inkscape:export-xdpi="96"
   inkscape:export-ydpi="96"
   xml:space="preserve"
   xmlns:inkscape="http://www.inkscape.org/namespaces/inkscape"
   xmlns:sodipodi="http://sodipodi.sourceforge.net/DTD/sodipodi-0.dtd"
   xmlns="http://www.w3.org/2000/svg"
   xmlns:svg="http://www.w3.org/2000/svg"><defs
     id="defs1" /><sodipodi:namedview
     id="namedview1"
     pagecolor="#ffffff"
     bordercolor="#000000"
     borderopacity="0.25"
     inkscape:showpageshadow="2"
     inkscape:pageopacity="0.0"
     inkscape:pagecheckerboard="0"
     inkscape:deskcolor="#d1d1d1"><inkscape:page
       x="0"
       y="0"
       width="2644"
       height="1012"
       id="page2"
       margin="0"
       bleed="0" /></sodipodi:namedview><g
     inkscape:groupmode="layer"
     inkscape:label="Image"
     id="g1"><path
       style="fill:#000000;stroke-width:1.8493"
       d="m 1252.6152,996.49148 c 0.1183,-4.2174 4.9607,-24.27751 9.8307,-40.72627 10.356,-34.97901 12.9874,-54.55371 13.1085,-97.50907 0.061,-21.86798 -0.304,-51.82665 -0.8126,-66.57481 l -0.9246,-26.81491 6.7324,-16.64374 c 15.5733,-38.5002 16.4806,-57.179 4.4578,-91.78098 -9.6116,-27.66256 -13.958,-51.62488 -13.997,-77.16763 -0.052,-33.90878 -2.5834,-52.58205 -8.5102,-62.77356 -10.7692,-18.51803 -13.6643,-25.82683 -15.6844,-39.59764 -1.775,-12.09883 -1.6195,-16.17414 1.0228,-26.81483 1.7139,-6.90149 4.6037,-15.38199 6.4217,-18.84586 3.2084,-6.11234 3.191,-6.65731 -0.5892,-18.49304 -4.4085,-13.80337 -4.9707,-43.64961 -1.1354,-60.27688 1.173,-5.08562 2.967,-23.21006 3.9866,-40.27656 l 1.854,-31.02978 -6.029,-19.8259 c -7.1333,-23.45637 -7.5943,-36.7739 -1.9146,-55.31283 3.7679,-12.29878 8.4523,-19.49925 33.1917,-51.01818 l 8.3857,-10.68373 -4.1756,-7.42935 c -3.799,-6.75941 -3.9804,-8.24279 -2.0114,-16.44994 1.9013,-7.9256 1.719,-10.02641 -1.5013,-17.30635 -6.0373,-13.648207 -9.3439,-27.249498 -10.2415,-42.125233 -0.8376,-13.886394 -0.7626,-14.176147 5.9811,-23.116237 7.1097,-9.425338 22.3109,-19.841001 33.4905,-22.946923 9.5801,-2.661488 35.1376,-2.212848 45.1227,0.792288 12.4005,3.732061 20.4369,10.605158 26.2198,22.425387 4.4048,9.003086 4.7338,10.831725 2.6498,14.725693 -2.0245,3.782955 -1.8941,5.187017 0.8733,9.410633 2.8252,4.311844 2.9491,5.884238 0.9424,11.964562 -2.2023,6.673076 -2.0394,7.328983 3.4874,14.033753 7.0233,8.52072 7.2693,12.774607 1.11,19.203577 -4.1685,4.35088 -4.6959,6.46682 -4.7618,19.10472 -0.069,12.93253 -0.4751,14.47449 -4.5272,17.12958 -3.5912,2.35303 -5.5861,2.52263 -10.3084,0.87635 -3.2206,-1.12274 -6.5068,-2.0412 -7.3028,-2.0412 -0.7959,0 -5.7267,7.91527 -10.9574,17.58956 l -9.5104,17.58964 4.1475,6.91363 c 2.2812,3.80259 9.266,14.4033 15.5216,23.5573 6.2556,9.15407 14.6455,22.469 18.6441,29.58881 l 7.27,12.94515 -0.1609,32.36279 c -0.1774,35.6976 -2.7136,62.20131 -6.9021,72.12278 -1.5028,3.5599 -3.6483,16.45869 -4.7679,28.66412 -1.1194,12.20535 -3.7005,29.10991 -5.7358,37.56543 -2.0352,8.45567 -3.7004,18.15976 -3.7004,21.56489 0,3.40498 -1.7255,10.6995 -3.8344,16.21041 l -3.8341,10.01955 3.9949,20.196 c 2.9648,14.9884 4.2544,30.03744 5.0016,58.36087 1.0635,40.32096 -1.049,66.55353 -9.064,112.55341 -2.0382,11.69681 -4.1408,24.59575 -4.6729,28.6642 -0.9187,7.02748 -0.8194,7.21237 1.9899,3.69859 2.721,-3.40347 2.7379,-2.96052 0.2093,5.54789 -1.5112,5.08555 -3.6223,12.57529 -4.6914,16.64366 -1.0692,4.06846 -3.9558,13.63867 -6.4148,21.26695 -2.459,7.62843 -6.5875,26.35264 -9.1748,41.60935 -5.8515,34.50571 -6.0031,35.19662 -21.3137,97.08831 -6.919,27.97066 -13.1409,54.63127 -13.8262,59.24564 -1.2279,8.26842 -1.1098,8.51749 8.1472,17.17634 5.1662,4.83245 15.2588,11.59738 22.4276,15.03295 7.169,3.43572 14.3053,7.30123 15.8585,8.59018 3.8708,3.21243 9.9508,15.48499 9.9508,20.08589 0,3.7116 -0.8778,3.7721 -54.5544,3.7721 -42.4454,0 -54.5399,-0.5131 -54.4895,-2.3115 z"
       id="path2" /></g></svg>
