<?xml version="1.0" encoding="UTF-8" standalone="no"?>
<!-- Created with Inkscape (http://www.inkscape.org/) -->

<svg
   version="1.1"
   id="svg1"
   width="2644"
   height="1012"
   viewBox="0 0 2644 1012"
   sodipodi:docname="Achillobator_size_inspyrenet_bria.png"
   inkscape:export-filename="amargasaurus.svg"
   inkscape:export-xdpi="96"
   inkscape:export-ydpi="96"
   xml:space="preserve"
   xmlns:inkscape="http://www.inkscape.org/namespaces/inkscape"
   xmlns:sodipodi="http://sodipodi.sourceforge.net/DTD/sodipodi-0.dtd"
   xmlns="http://www.w3.org/2000/svg"
   xmlns:svg="http://www.w3.org/2000/svg"><defs
     id="defs1" /><sodipodi:namedview
     id="namedview1"
     pagecolor="#ffffff"
     bordercolor="#000000"
     borderopacity="0.25"
     inkscape:showpageshadow="2"
     inkscape:pageopacity="0.0"
     inkscape:pagecheckerboard="0"
     inkscape:deskcolor="#d1d1d1"><inkscape:page
       x="0"
       y="0"
       width="2644"
       height="1012"
       id="page2"
       margin="0"
       bleed="0" /></sodipodi:namedview><g
     inkscape:groupmode="layer"
     inkscape:label="Image"
     id="g1"><path
       style="fill:#000000;stroke-width:0.752566"
       d="m 1184.5544,980.67638 c 0.6481,-3.27773 2.1853,-6.38595 4.4902,-9.07859 1.9275,-2.25209 3.2477,-4.35173 2.9334,-4.66604 -1.3715,-1.37164 -9.962,-1.39014 -19.2339,-0.0413 -12.13,1.76438 -31.9631,1.75818 -33.7317,-0.0103 -0.9591,-0.95908 -0.8366,-2.07352 0.5706,-5.19451 2.4924,-5.52686 5.941,-8.50366 14.0643,-12.14039 5.2953,-2.37062 6.6346,-3.35635 5.5188,-4.06204 -0.8103,-0.5124 -2.2776,-0.93864 -3.2607,-0.94707 -2.6488,-0.0225 -3.2369,-2.80664 -1.0936,-5.17654 4.8565,-5.37018 12.1069,-7.26475 33.9872,-8.88138 22.4439,-1.65822 40.6007,-7.40746 46.3605,-14.67969 l 3.1057,-3.92145 -0.757,-15.03514 c -0.7675,-15.24531 -1.3776,-17.81677 -5.8037,-24.45674 -1.2469,-1.87057 -2.267,-4.0601 -2.267,-4.86541 0,-3.97934 -3.5104,-8.48677 -9.2114,-11.8281 -3.2711,-1.91715 -6.0745,-3.48573 -6.2296,-3.48573 -0.1553,0 -0.244,8.2406 -0.1971,18.31243 0.08,17.26462 -0.048,18.56419 -2.2271,22.71254 -3.8519,7.32989 -9.9676,13.82617 -14.5738,15.48066 -2.3022,0.82702 -5.9921,2.20364 -8.1995,3.05933 -2.2075,0.85561 -5.2983,1.57554 -6.8681,1.59978 -2.9874,0.046 -27.9908,7.79556 -35.7773,11.08883 -5.419,2.29181 -20.7466,4.34674 -25.6126,3.4338 -2.1203,-0.39766 -3.4868,-1.23781 -3.4868,-2.14353 0,-1.49657 3.6434,-7.28334 5.3128,-8.4382 0.4918,-0.34024 -5.1307,-0.84614 -12.4945,-1.12444 -7.3635,-0.27822 -14.6301,-1.00467 -16.1478,-1.61436 -1.5178,-0.6097 -2.7594,-0.74625 -2.7594,-0.30359 0,0.44266 -2.8611,0.0928 -6.358,-0.77743 -5.9763,-1.48728 -9.6968,-3.74739 -9.6968,-5.89057 0,-2.18766 4.5639,-6.43703 10.4469,-9.72698 8.1178,-4.53977 15.1729,-6.91167 25.1745,-8.46382 5.1732,-0.80289 9.2762,-2.09186 11.5395,-3.62523 6.3218,-4.28308 12.4297,-6.35927 23.5787,-8.01477 8.8137,-1.30871 12.2098,-2.31925 17.2308,-5.12716 3.4976,-1.95592 6.5995,-4.46618 7.0383,-5.69587 0.4316,-1.20922 0.7216,-11.29376 0.6444,-22.41001 -0.1103,-15.90038 -0.4563,-20.71589 -1.6219,-22.57699 -0.8149,-1.30111 -2.0042,-7.2035 -2.6428,-13.11641 -1.6088,-14.89306 -6.6099,-25.23611 -18.5245,-38.3109 -3.0705,-3.36961 -11.4135,-12.48922 -18.54,-20.26579 -7.1264,-7.77656 -14.1926,-16.13006 -15.7029,-18.56325 -1.51,-2.43327 -3.5568,-5.32718 -4.5484,-6.43098 -3.8354,-4.27022 -10.0164,-17.57537 -13.4536,-28.96033 -4.3066,-14.26476 -6.0193,-24.47001 -8.0216,-47.80138 -2.8626,-33.35547 -2.7296,-32.64415 -14.1648,-75.75838 -3.9116,-14.74819 -5.3043,-24.83137 -7.9969,-57.89886 -1.4064,-17.27311 -3.0014,-34.34073 -3.5443,-37.9279 -3.1632,-20.89787 -3.7989,-43.44348 -1.9198,-68.0768 2.3177,-30.3817 11.3881,-54.35034 30.3625,-80.23321 3.1908,-4.35262 6.5845,-8.77372 7.5417,-9.82484 4.5163,-4.95994 15.473,-22.67791 17.3348,-28.03211 4.4165,-12.70031 9.1755,-25.1385 10.3537,-27.06018 0.6767,-1.10379 2.0547,-4.26457 3.062,-7.02401 1.0075,-2.75936 4.0026,-9.53253 6.6555,-15.05133 10.1738,-21.16374 16.0075,-38.75009 16.6981,-50.33864 0.5181,-8.69222 0.3968,-9.4651 -2.2065,-14.04785 -2.8049,-4.93759 -11.5996,-24.66026 -14.2436,-31.94202 -0.8015,-2.2075 -3.7011,-8.60257 -6.4437,-14.21122 -5.2587,-10.75442 -6.3216,-11.93399 -24.2843,-26.95339 -8.4565,-7.070823 -48.0477,-33.198272 -57.5015,-37.947038 -1.7137,-0.860788 -5.8764,-3.398667 -9.2503,-5.639732 -3.374,-2.240995 -8.0904,-5.114593 -10.4812,-6.38575 -9.6453,-5.128445 -22.8082,-15.143298 -22.8082,-17.353284 0,-1.947868 3.2889,-1.719915 7.7455,0.536731 2.0866,1.056603 5.8257,2.86562 8.3092,4.020139 2.4833,1.154509 7.2245,3.675374 10.5359,5.602028 3.3112,1.926643 6.6978,3.783445 7.5256,4.126247 0.8279,0.342791 4.7215,2.150159 8.6525,4.016296 3.9309,1.866136 7.4934,3.393019 7.9167,3.393019 0.4232,0 1.2708,0.652545 1.8835,1.45019 0.6128,0.797654 2.4147,1.7644 4.0044,2.148432 6.2086,1.499937 1.736,-2.131641 -9.9827,-8.105597 -6.5849,-3.35689 -14.6819,-7.90661 -17.9932,-10.110426 -3.3112,-2.203887 -9.1813,-5.522633 -13.0444,-7.375 -3.8633,-1.852291 -7.2497,-3.696681 -7.5258,-4.098703 -0.2758,-0.401946 -1.4059,-1.012428 -2.511,-1.356576 -1.1051,-0.344148 -2.6182,-1.600709 -3.3623,-2.792323 -1.3413,-2.147675 -1.3007,-2.161898 4.6339,-1.623738 4.2744,0.387573 8.7422,1.865237 15.6188,5.165692 5.2974,2.542471 9.9351,4.622716 10.3059,4.622716 0.829,0 39.8381,19.320716 40.5371,20.077565 1.6386,1.773806 40.2311,18.652438 52.6798,23.039673 7.0749,2.493476 10.0086,3.056396 13.5462,2.599216 21.1641,-2.734899 46.9969,-0.78244 59.6388,4.50757 8.891,3.72039 18.874,11.1361 28.9518,21.506163 12.0846,12.43488 18.5068,23.19741 23.4828,39.35208 2.6487,8.59949 2.7185,9.47224 2.7146,33.91221 -0.01,26.81516 0.1192,25.75976 -7.0504,60.20532 -3.3673,16.17777 -3.9709,29.24361 -2.0164,43.64886 1.8347,13.52256 12.2652,51.18137 14.5703,52.60605 0.3831,0.23676 4.969,-0.21102 10.1911,-0.99512 29.7298,-4.46393 68.1682,2.65129 70.7916,13.10399 1.381,5.50201 -2.6755,9.00039 -13.8546,11.94871 -9.5218,2.51116 -28.8807,11.21174 -30.3938,13.65999 -1.0932,1.76883 -7.6284,5.44693 -14.2891,8.04208 -3.4493,1.34394 -6.2714,3.03818 -6.2714,3.76509 0,2.51576 5.525,14.22508 7.024,14.88606 3.5266,1.55511 37.066,1.52448 54.1848,-0.0497 46.8011,-4.30318 71.6754,-4.45053 101.2769,-0.60003 29.2499,3.80483 43.6784,6.84105 69.8065,14.68943 50.7707,15.25038 67.4787,21.60032 93.7687,35.63642 6.3083,3.36805 23.5573,20.17999 27.0153,26.3308 1.593,2.83356 3.6567,7.49894 4.5859,10.36759 1.8254,5.63506 1.447,7.31154 -2.4444,10.83333 -2.7847,2.52012 -12.5371,2.83929 -21.9841,0.71953 -3.6409,-0.81691 -7.7486,-1.61372 -9.1282,-1.77063 -1.3797,-0.15691 -2.5087,-0.35959 -2.5087,-0.45042 0,-0.0908 -0.903,-0.28695 -2.0069,-0.43573 -7.0461,-0.95011 -20.6009,-5.57629 -23.3207,-7.9593 -1.8013,-1.5782 -4.5404,-2.13615 -13.7598,-2.8027 -6.3312,-0.45778 -17.0592,-2.01183 -23.8401,-3.45345 -6.7811,-1.4417 -13.3532,-2.62895 -14.6052,-2.6385 -1.2517,-0.0101 -2.5201,-0.41233 -2.8185,-0.89525 -0.2984,-0.48292 -1.7577,-0.87937 -3.2428,-0.88103 -1.485,0 -7.2386,-0.8842 -12.7851,-1.96119 -9.9671,-1.93516 -13.184,-2.47753 -21.0212,-3.54361 -2.2076,-0.30028 -6.2715,-0.99151 -9.0307,-1.53614 -7.5968,-1.4992 -12.4653,-1.81767 -45.6558,-2.98686 -16.8324,-0.59287 -33.0878,-1.21947 -36.1232,-1.39233 -3.0353,-0.17278 -11.5542,0.0406 -18.9307,0.47502 -12.7339,0.74933 -15.8105,1.4274 -24.7181,5.44754 -1.6557,0.74721 -4.5907,1.76266 -6.5223,2.25665 -4.8566,1.24187 -19.5261,-0.23271 -26.1302,-2.62669 -9.9409,-3.60344 -10.1443,-3.62526 -9.0797,-0.97351 2.0732,5.16334 7.105,25.19373 9.5333,37.95025 7.6179,40.01825 9.8303,76.48673 7.4874,123.42091 -2.2152,44.37516 -1.9854,49.43143 4.1266,90.80964 2.8849,19.5294 9.8202,44.73209 16.7057,60.70705 6.9969,16.23331 30.3963,53.50493 44.4862,70.85971 6.0988,7.51197 8.5744,10.63128 9.0569,11.41191 0.2837,0.45944 3.2644,2.56844 6.6234,4.68669 3.3589,2.11825 8.0981,5.35586 10.5314,7.19476 2.4333,1.83883 4.9296,3.64498 5.5471,4.01367 2.5474,1.52078 2.477,4.92734 -0.1671,8.06962 -2.8622,3.4015 -3.3525,3.43529 -23.5328,1.61784 -7.0951,-0.63897 -19.7132,-6.01973 -28.0959,-11.981 -2.4834,-1.76603 -6.3214,-4.0372 -8.529,-5.047 -2.2075,-1.0098 -4.6037,-2.66829 -5.3249,-3.68562 -0.7212,-1.0174 -1.895,-1.84973 -2.6088,-1.84973 -0.7137,0 -3.1677,-1.35463 -5.4532,-3.01027 -2.2856,-1.65565 -4.7668,-3.01026 -5.5138,-3.01026 -0.7471,0 -2.1677,-0.89428 -3.1568,-1.98723 -0.9891,-1.09295 -3.4297,-2.27252 -5.4235,-2.62118 -1.9937,-0.34867 -4.6251,-1.26055 -5.8475,-2.02644 -1.2223,-0.76588 -2.8107,-1.39256 -3.5298,-1.39256 -0.7192,0 -3.028,-1.16896 -5.1306,-2.59771 -2.1026,-1.42874 -4.0709,-2.34988 -4.3738,-2.04691 -0.303,0.303 -1.8903,-0.14169 -3.5272,-0.98819 -1.6369,-0.84648 -3.2369,-1.27845 -3.5554,-0.9599 -0.3186,0.31857 -1.5786,-0.0756 -2.8,-0.87583 -1.2215,-0.80035 -3.0636,-1.39661 -4.0939,-1.32519 -1.0302,0.0716 -3.0182,-0.16278 -4.418,-0.52055 -2.8534,-0.7294 -6.1805,1.66151 -9.4469,6.78874 -1.7541,2.75327 -1.9409,5.73066 -2.3291,37.12672 -0.2321,18.77323 -0.7779,34.58484 -1.2128,35.13669 -0.435,0.55184 -1.104,2.58376 -1.4867,4.51543 -0.3828,1.93159 -1.8798,7.31235 -3.3267,11.9573 -4.0498,13.00047 -5.1216,13.77327 -27.817,20.05358 -18.1378,5.01922 -37.7662,13.20669 -43.5474,18.16477 -2.3379,2.0049 -2.3524,2.1058 -0.5016,3.5065 1.6883,1.278 0.4081,1.4458 -11.2457,1.4741 l -13.151,0.031 z"
       id="path2" /></g></svg>
