<?xml version="1.0" encoding="UTF-8" standalone="no"?>
<!-- Created with Inkscape (http://www.inkscape.org/) -->

<svg
   version="1.1"
   id="svg1"
   width="2644"
   height="1012"
   viewBox="0 0 2644 1012"
   sodipodi:docname="Achillobator_size_inspyrenet_bria.png"
   inkscape:export-filename="quokka.svg"
   inkscape:export-xdpi="96"
   inkscape:export-ydpi="96"
   xml:space="preserve"
   xmlns:inkscape="http://www.inkscape.org/namespaces/inkscape"
   xmlns:sodipodi="http://sodipodi.sourceforge.net/DTD/sodipodi-0.dtd"
   xmlns="http://www.w3.org/2000/svg"
   xmlns:svg="http://www.w3.org/2000/svg"><defs
     id="defs1" /><sodipodi:namedview
     id="namedview1"
     pagecolor="#ffffff"
     bordercolor="#000000"
     borderopacity="0.25"
     inkscape:showpageshadow="2"
     inkscape:pageopacity="0.0"
     inkscape:pagecheckerboard="0"
     inkscape:deskcolor="#d1d1d1"><inkscape:page
       x="0"
       y="0"
       width="2644"
       height="1012"
       id="page2"
       margin="0"
       bleed="0" /></sodipodi:namedview><g
     inkscape:groupmode="layer"
     inkscape:label="Image"
     id="g1"><path
       style="fill:#000000;stroke-width:2.86861"
       d="m 1815.0499,954.10073 c -29.0148,-5.7128 -34.8447,-10.8657 -37.3548,-33.0177 -1.0562,-9.3199 -4.44,-25.8161 -7.52,-36.6583 -8.163,-28.7346 -6.9031,-57.7865 4.4179,-101.8969 14.6896,-57.2343 15.2777,-61.7879 7.5975,-58.841 -17.8812,6.8617 -75.6886,10.4802 -115.1481,7.2074 -48.5301,-4.0253 -48.2005,-4.1914 -57.9159,29.2125 -4.3913,15.0995 -5.5961,33.1015 -4.6125,68.9345 1.4496,52.8112 -0.063,48.6276 30.9039,85.4947 7.8505,9.3466 14.7352,21.1572 15.2995,26.2464 1.0166,9.1724 0.6942,9.2628 -37.0301,10.3569 -48.0926,1.3953 -58.03,-2.2921 -63.4709,-23.5502 -2.2244,-8.691 -7.7026,-26.9894 -12.1742,-40.6632 -6.0189,-18.4062 -8.3012,-35.7851 -8.79,-66.9342 -0.7154,-45.5826 -3.9759,-66.9345 -10.2205,-66.9345 -2.1848,0 -9.8678,5.1764 -17.0735,11.5031 -7.2056,6.3267 -23.7839,16.895 -36.8407,23.4854 -34.7134,17.5212 -47.4064,28.563 -54.656,47.5452 -6.0858,15.9358 -6.074,17.9188 0.2065,34.3611 3.6653,9.5973 13.3655,25.1925 21.5562,34.6561 10.0161,11.5725 14.8922,20.8826 14.8922,28.4334 v 11.2271 l -38.5803,-0.9414 c -37.0037,-0.9028 -38.9575,-1.3798 -47.8103,-11.673 -5.0763,-5.9022 -9.2298,-14.5135 -9.2298,-19.1362 0,-4.6225 -3.4423,-20.4421 -7.6497,-35.154 -12.2656,-42.8913 -9.4062,-63.4773 13.5473,-97.5329 6.3804,-9.4664 18.8806,-32.1629 27.7782,-50.4368 10.9656,-22.5209 21.2696,-37.5837 31.9836,-46.7544 10.2995,-8.8161 13.9412,-14.0284 10.453,-14.9616 -2.9444,-0.7877 -11.3775,-3.6494 -18.7401,-6.3597 -7.3629,-2.7102 -28.0169,-6.1586 -45.8978,-7.6626 -20.9406,-1.7616 -38.1251,-5.5996 -48.2854,-10.7837 -16.6196,-8.4802 -35.8608,-28.3703 -35.8608,-37.0705 0,-18.6885 -56.5777,-56.2779 -97.8754,-65.0269 -30.2903,-6.4171 -94.9276,-7.4487 -129.2603,-2.0631 -12.8643,2.0178 -40.6015,5.6161 -61.63786,7.9962 -21.0367,2.3801 -52.0178,7.5023 -68.8468,11.3827 -40.65111,9.3726 -77.61291,14.4079 -137.69341,18.7576 -27.3477,1.9796 -83.2856,6.985 -124.3068,11.1227 -107.3157,10.825 -215.4599,13.1719 -312.7179,6.7866 -61.9076,-4.0645 -83.5894,-6.8282 -90.8396,-11.5786 -15.7188,-10.2995 -12.4781,-14.1904 15.3202,-18.3938 4.1973,-0.6348 -23.4868,-10.321 -61.5203,-21.5247 -38.0333,-11.2039 -71.5381,-21.8456 -74.4549,-23.6482 -11.045,-6.8265 0.2553,-7.6759 25.1861,-1.8939 14.2304,3.3003 26.4575,5.4159 27.1718,4.7019 0.7143,-0.7142 -10.296,-5.3184 -24.4672,-10.2312 -33.9547,-11.771 -58.1133,-24.1652 -50.3878,-25.8502 6.0172,-1.3127 135.5632,35.3887 201.753,57.1577 35.2068,11.5792 36.0132,11.6601 70.759,7.1004 19.3307,-2.537 47.1947,-7.0054 61.9202,-9.9306 14.7257,-2.9248 31.8694,-5.8169 38.0975,-6.4271 10.1964,-0.9985 6.7702,-4.014 -34.4234,-30.2968 -25.1609,-16.0534 -61.6678,-38.963 -81.1267,-50.9105 -33.7214,-20.7048 -45.5232,-32.518 -26.7736,-26.8 10.7636,3.2825 70.4646,34.1643 77.7741,40.2309 3.7613,3.1216 5.4157,3.2099 5.4157,0.2894 0,-2.3127 -4.7333,-7.1127 -10.5184,-10.6666 -41.3511,-25.4036 -87.5426,-61.3958 -83.7113,-65.2272 4.0648,-4.0645 134.6834,74.0662 182.2006,108.9853 5.259,3.8646 15.2378,10.8958 22.1749,15.625 l 12.613,8.5981 40.9346,-7.6752 c 22.5137,-4.2215 49.5401,-8.7969 60.0584,-10.1675 10.5184,-1.3707 39.2745,-7.7453 63.903,-14.1661 38.1589,-9.9484 44.2836,-12.5815 41.4297,-17.8118 -6.9673,-12.7688 -58.4965,-65.4715 -95.6499,-97.8284 -21.2427,-18.5002 -37.7995,-34.4603 -36.7932,-35.4669 1.0066,-1.0066 19.3287,10.5048 40.716,25.5811 39.024,27.5089 51.4199,32.1454 33.7105,12.6093 -80.5249,-88.8298 -84.2271,-101.4514 -9.0551,-30.87 23.1472,21.7338 60.6144,56.4985 83.2604,77.2549 l 41.1746,37.7395 14.2725,-3.9725 c 15.146,-4.2157 101.32691,-34.8915 103.15201,-36.7165 1.8935,-1.8936 -79.66551,-110.2305 -104.81061,-139.2224 -26.6164,-30.6885 -32.5238,-44.5487 -9.8864,-23.1971 7.8887,7.4409 19.3084,17.2565 25.3769,21.813 12.2708,9.2122 20.9323,11.2593 14.823,3.5028 -2.0711,-2.6293 -4.8009,-9.1339 -6.0662,-14.4543 -1.2654,-5.3205 -7.6759,-15.6475 -14.2453,-22.9489 -12.9099,-14.3483 -24.399,-33.9452 -21.5631,-36.7808 2.2235,-2.2235 35.1956,34.7845 94.20871,105.7388 82.1442,98.7666 72.339,89.1112 87.8637,86.5214 27.83986,-4.644 88.76806,-19.6649 89.47656,-22.0591 0.8724,-2.9483 -50.2868,-66.8978 -123.78896,-154.7364 -70.73481,-84.5318 -71.60801,-92.0157 -3.3382,-28.6093 21.0981,19.5952 39.0582,34.9297 39.9113,34.0765 2.2094,-2.2091 -16.5685,-32.8688 -49.7687,-81.26 -26.4056,-38.4877 -31.6703,-48.9716 -21.407,-42.6285 5.9589,3.6827 160.28286,183.7995 183.72576,214.4326 34.1769,44.6597 32.5143,43.403 52.4847,39.6721 25.6595,-4.7938 112.6516,-29.7286 116.7698,-33.4701 4.3523,-3.9541 -42.9896,-66.8803 -93.0942,-123.74 -55.0355,-62.4555 -62.2303,-71.4374 -59.4495,-74.2182 1.1325,-1.1325 11.2332,5.1973 22.4458,14.0665 16.0372,12.6853 20.6506,14.7961 21.6233,9.8933 0.6801,-3.428 3.0777,-6.2326 5.3279,-6.2326 2.2501,0 39.7443,35.7397 83.3203,79.4216 l 79.2294,79.4215 37.837,-12.2498 c 20.8104,-6.7375 52.8975,-14.4073 71.3043,-17.0439 18.407,-2.6365 33.4672,-6.2346 33.4672,-7.9959 0,-7.4326 -25.5433,-52.6689 -69.9646,-123.9049 -53.5871,-85.934205 -57.7833,-93.269305 -53.3605,-93.269305 1.7398,0 10.8365,7.85 20.2148,17.4443 9.3787,9.5944 22.5904,20.0912 29.3597,23.3265 17.2461,8.242405 109.0854,122.410905 131.7749,163.814205 l 10.457,19.0811 29.7332,4.5973 c 16.3531,2.5284 30.4982,3.8319 31.4337,2.8964 0.9354,-0.9355 -1.9699,-5.6079 -6.4558,-10.3832 -4.5267,-4.8182 -10.8583,-20.3308 -14.2266,-34.8543 -3.3382,-14.3947 -12.8996,-44.3556 -21.2476,-66.5802 -8.3479,-22.2243 -16.2171,-46.9061 -17.487,-54.8482 l -2.3093,-14.4403 14.8055,2.3319 c 25.3431,3.9911 40.7114,10.9518 77.4684,35.0877 54.7796,35.9704 64.0601,44.4928 76.787,70.5163 12.1225,24.7868 26.9297,76.7931 26.9297,94.5825 0,8.5708 2.0875,10.802 11.9527,12.7748 6.5737,1.315 13.3817,2.3907 15.1287,2.3907 1.747,0 -1.7389,-11.6179 -7.7464,-25.8175 -24.0169,-56.7676 -24.4543,-72.8496 -2.2676,-83.3777 7.2487,-3.4398 15.1904,-8.6773 17.6483,-11.6389 7.2983,-8.794 16.0109,-6.3241 40.4701,11.4739 50.6999,36.8916 78.6112,91.0335 70.1798,136.1338 -2.5388,13.5789 -1.9481,18.6245 2.7974,23.905 11.7258,13.0476 15.1518,7.9384 17.9527,-26.7736 2.7648,-34.2679 13.2401,-65.9781 21.7951,-65.9781 2.6122,0 8.7559,3.7639 13.6526,8.364 6.8692,6.4535 9.9398,7.327 13.4421,3.8247 2.4965,-2.4965 7.6985,-4.539 11.5596,-4.539 7.8758,0 15.2932,15.1308 31.7708,64.8083 10.2495,30.9002 10.2891,31.4197 3.5553,46.3525 -3.7455,8.3061 -9.1692,17.0602 -12.053,19.4535 -4.3993,3.6512 -4.2088,5.4937 1.1839,11.4524 10.8072,11.942 15.7435,8.1704 24.4959,-18.7163 4.6225,-14.1996 11.6248,-29.1893 15.5605,-33.3103 7.0829,-7.4162 7.2923,-7.3606 20.498,5.4386 11.8075,11.4443 14.4214,12.4394 22.7318,8.6529 8.7294,-3.9774 10.2154,-2.9917 21.1322,14.0203 6.4581,10.0643 11.7234,21.5904 11.7008,25.6136 -0.06,10.508 -10.5933,43.767 -15.8787,50.1359 -3.5353,4.2593 -2.8101,7.0832 3.4183,13.3115 8.2426,8.2427 16.3264,6.7754 16.3264,-2.9633 0,-6.998 13.8333,-34.6 18.9139,-37.74 11.578,-7.1558 30.8089,29.0892 30.8089,58.0662 0,14.3192 7.6153,21.1548 21.7613,19.5326 9.7814,-1.1216 10.8594,-2.7759 11.9687,-18.3691 2.4114,-33.8921 13.9355,-35.2025 36.1104,-4.1062 21.7728,30.5324 38.8815,31.7874 38.0571,2.7918 -0.1807,-6.3864 2.1724,-17.6007 5.2306,-24.9208 l 5.5611,-13.3089 10.4584,9.2162 c 5.7518,5.0689 14.9389,14.3035 20.4156,20.5209 9.854,11.1876 10.1641,11.2571 29.934,6.6937 28.1239,-6.492 55.1282,-5.749 96.4761,2.6537 65.0791,13.2252 94.5076,29.1606 90.4233,48.963 -1.5017,7.2796 -5.0508,7.7478 -25.0315,3.3023 -10.0551,-2.2372 -12.4309,-1.5794 -12.4309,3.4429 0,3.4148 2.1515,5.9294 4.7811,5.5881 2.6297,-0.3417 9.8144,-0.4171 15.9662,-0.1664 l 11.1847,0.4532 -9.2725,9.8718 c -7.7496,8.2507 -11.7852,9.5812 -24.5717,8.1018 -26.4512,-3.0599 -142.9491,27.9369 -179.4292,47.7412 -14.4366,7.8374 -50.047,18.5883 -74.6847,22.5476 -13.8037,2.2183 -63.8243,4.8781 -111.1565,5.9108 -47.3321,1.0327 -90.8452,2.2111 -96.6958,2.6187 -7.0272,0.4894 -19.3769,8.6621 -36.3866,24.0798 -14.1621,12.8362 -30.8898,25.9974 -37.1727,29.2469 -6.2831,3.2496 -16.8384,12.6474 -23.4569,20.8841 -11.9679,14.8944 -11.9942,15.0261 -4.866,24.3003 3.942,5.1285 7.2068,11.9065 7.2553,15.062 0.1233,8.1419 20.7917,48.1789 36.5028,70.7153 7.3161,10.4943 13.3018,21.7625 13.3018,25.0407 0,3.2783 7.7997,17.8356 17.3327,32.3496 9.533,14.5144 16.4911,28.5821 15.463,31.2616 -1.0284,2.6796 -6.1888,5.9561 -11.4676,7.2809 -12.1982,3.0616 -66.8496,-4.0996 -72.2125,-9.4622 -2.2246,-2.2249 -4.5223,-10.109 -5.1061,-17.5203 -1.1819,-15.0083 -26.7381,-61.6677 -45.0731,-82.2934 -6.545,-7.3628 -15.8904,-19.8519 -20.767,-27.7538 -8.3787,-13.5763 -15.8629,-15.9917 -15.8629,-5.119 0,2.7082 -3.012,10.7822 -6.6933,17.9423 -4.4444,8.644 -6.4682,20.4526 -6.023,35.1436 0.6747,22.2659 6.181,35.041 30.6337,71.0737 l 9.3631,13.7974 -8.3267,6.7427 c -9.5123,7.7025 -18.7263,7.9205 -52.625,1.2459 z"
       id="path5" /></g></svg>
