<?xml version="1.0" encoding="UTF-8" standalone="no"?>
<!-- Created with Inkscape (http://www.inkscape.org/) -->

<svg
   version="1.1"
   id="svg1"
   width="2644"
   height="1012"
   viewBox="0 0 2644 1012"
   sodipodi:docname="Achillobator_size_inspyrenet_bria.png"
   inkscape:export-filename="icadyptes.svg"
   inkscape:export-xdpi="96"
   inkscape:export-ydpi="96"
   xml:space="preserve"
   xmlns:inkscape="http://www.inkscape.org/namespaces/inkscape"
   xmlns:sodipodi="http://sodipodi.sourceforge.net/DTD/sodipodi-0.dtd"
   xmlns="http://www.w3.org/2000/svg"
   xmlns:svg="http://www.w3.org/2000/svg"><defs
     id="defs1" /><sodipodi:namedview
     id="namedview1"
     pagecolor="#ffffff"
     bordercolor="#000000"
     borderopacity="0.25"
     inkscape:showpageshadow="2"
     inkscape:pageopacity="0.0"
     inkscape:pagecheckerboard="0"
     inkscape:deskcolor="#d1d1d1"><inkscape:page
       x="0"
       y="0"
       width="2644"
       height="1012"
       id="page2"
       margin="0"
       bleed="0" /></sodipodi:namedview><g
     inkscape:groupmode="layer"
     inkscape:label="Image"
     id="g1"><path
       style="fill:#000000;stroke-width:1.26801"
       d="m 1254.5013,841.64883 -5.8535,-5.07002 h 4.4856 c 2.4673,0 4.8889,-0.65209 5.3815,-1.4492 0.4926,-0.79705 5.673,-2.43259 11.512,-3.63435 5.8389,-1.20197 11.4794,-2.85265 12.5349,-3.66841 1.0552,-0.81575 6.9314,-1.9512 13.0584,-2.52331 7.7331,-0.72215 12.0086,-2.00072 13.9819,-4.18129 1.5635,-1.72757 4.2033,-3.141 5.866,-3.141 5.1794,0 8.2843,-6.25191 6.1705,-12.42469 -4.8523,-14.17056 -11.9579,-16.6994 -23.0001,-8.18546 -3.3883,2.61245 -9.5843,5.74907 -13.7686,6.97017 -39.9913,11.66978 -42.9863,11.92007 -74.0456,6.18906 -15.8363,-2.92203 -36.1023,-11.19835 -43.7908,-17.88336 -2.1553,-1.87406 -6.1502,-3.40732 -8.878,-3.40732 -6.2893,0 -8.0042,-2.63181 -3.5339,-5.42345 4.847,-3.02702 4.3468,-4.35931 -2.8931,-7.70676 -3.4872,-1.61215 -6.9485,-3.88222 -7.6921,-5.04462 -0.7436,-1.16236 -2.4555,-2.11338 -3.804,-2.11338 -1.3486,0 -2.4522,-0.79966 -2.4522,-1.77693 0,-0.97733 -2.6107,-2.86784 -5.8017,-4.20119 -7.7359,-3.23225 -8.4521,-4.89541 -3.2961,-7.65483 6.0404,-3.23266 27.2035,-2.60172 29.7056,0.88558 0.6849,0.95458 2.5722,0.34974 4.5806,-1.468 4.9228,-4.45503 17.1465,-5.44357 24.1071,-1.94964 12.3364,6.19215 44.2615,17.85572 48.8741,17.85572 2.6915,0 7.8642,-1.18851 11.4946,-2.64115 l 6.6009,-2.64109 -4.774,-9.85537 c -4.1803,-8.62999 -6.3281,-10.82401 -17.2752,-17.64711 -6.8757,-4.28539 -13.0906,-7.79169 -13.8107,-7.79169 -2.1888,0 -22.922,-17.07815 -22.922,-18.88119 0,-0.92574 -2.6628,-4.93294 -5.9173,-8.90469 -3.2545,-3.9717 -5.9173,-7.85483 -5.9173,-8.62915 0,-0.77426 -3.0433,-5.01688 -6.7628,-9.42789 -3.7196,-4.4112 -6.7626,-8.39056 -6.7626,-8.84325 0,-0.45269 -3.8042,-6.51058 -8.4535,-13.46198 -4.6494,-6.95138 -8.4533,-14.06393 -8.4533,-15.80556 0,-1.74155 -1.5218,-6.00553 -3.3815,-9.47547 -1.8597,-3.46987 -3.3814,-7.35962 -3.3814,-8.64399 0,-1.2844 -1.0908,-3.24045 -2.4242,-4.34708 -3.3687,-2.79578 -12.7919,-21.25678 -12.7919,-25.06071 0,-1.72004 -1.1172,-4.60424 -2.4823,-6.40926 -1.3653,-1.80501 -2.5064,-4.23111 -2.5361,-5.39124 -0.028,-1.16023 -2.5962,-5.72503 -5.7038,-10.14412 -3.6012,-5.12123 -7.0657,-13.42024 -9.5547,-22.88654 -2.1476,-8.16858 -4.5503,-15.25094 -5.3394,-15.73862 -0.7892,-0.48768 -1.4396,-2.1732 -1.445,-3.74573 0,-1.57228 -1.1471,-5.03799 -2.5361,-7.70147 -1.3891,-2.66346 -2.5256,-5.59168 -2.5256,-6.50719 0,-0.91549 -1.0511,-4.06195 -2.336,-6.99221 -1.2848,-2.93011 -4.0444,-12.17484 -6.1323,-20.54369 -2.0881,-8.36891 -4.8409,-16.41722 -6.1176,-17.88534 -1.2765,-1.46801 -2.3183,-4.13081 -2.3149,-5.91731 0,-1.7865 -3.3782,-13.51919 -7.5144,-26.07248 -10.1021,-30.65814 -16.739,-62.91283 -15.5629,-75.63273 1.5649,-16.92738 4.3271,-38.15286 6.2188,-47.78707 1.0042,-5.1143 2.2417,-13.89151 2.7504,-19.50475 l 0.9245,-10.20582 -8.5065,-5.28797 c -12.6021,-7.83384 -23.1773,-9.4911 -46.1753,-7.23593 -10.5659,1.03606 -23.77565,2.29612 -29.35496,2.80011 -5.57908,0.5039 -10.86671,1.59443 -11.75027,2.42321 -2.73981,2.57048 -10.41167,1.65943 -13.34771,-1.58508 -4.78038,-5.28211 -3.58553,-14.1133 2.69654,-19.93019 3.02215,-2.7982 7.39677,-6.04155 9.72145,-7.20741 6.08822,-3.05294 13.06715,-7.14607 23.66947,-13.88208 5.11428,-3.24915 11.20078,-6.75478 13.52548,-7.79025 2.3247,-1.03545 11.3819,-8.23067 20.1269,-15.98948 34.0538,-30.21269 57.5421,-46.83967 66.4208,-47.01783 1.5723,-0.0314 3.3291,-0.81821 3.9039,-1.74802 3.0093,-4.86938 48.6963,1.01168 62.4823,8.04293 2.7494,1.40234 9.2293,6.82336 14.3996,12.04681 5.1703,5.22343 16.8053,15.89961 25.8559,23.7246 9.0504,7.82515 16.4554,15.54459 16.4554,17.15444 0,2.96217 10.5821,13.42131 13.5794,13.42131 2.2905,0 15.1621,11.86009 15.1621,13.9707 0,0.95837 2.6627,4.99214 5.9175,8.96396 3.2544,3.97167 5.9176,7.94574 5.9176,8.83101 0,0.88535 8.6421,10.46317 19.2051,21.28407 10.563,10.82081 21.3467,23.06167 23.9637,27.20202 5.7365,9.07501 7.9361,10.10017 14.8911,6.94004 8.8365,-4.01525 20.0937,-4.78168 68.7411,-4.67945 48.1683,0.10139 55.6403,0.7783 114.9663,10.42139 22.0969,3.59176 36.6205,10.52274 43.7431,20.87519 2.7592,4.01044 8.5011,10.14674 12.7598,13.63646 7.0016,5.73733 7.7433,7.03757 7.7433,13.5777 0,7.67015 -3.6568,12.82901 -9.0933,12.82901 -1.6002,0 -5.3444,1.27615 -8.3203,2.83576 -4.5704,2.3954 -14.2062,3.05598 -62.0487,4.25368 -54.0522,1.35311 -75.9749,2.99988 -82.4405,6.19262 -1.6164,0.79821 -5.3387,2.70111 -8.272,4.22871 -2.9329,1.52757 -6.2829,2.77744 -7.4442,2.77744 -1.1613,0 -7.0092,2.3141 -12.9957,5.14251 -8.6564,4.09005 -10.6526,5.73373 -9.7526,8.03075 0.6223,1.58857 2.9994,8.57929 5.2825,15.53488 2.2827,6.95573 5.8888,14.56377 8.013,16.90683 5.922,6.53228 8.8349,11.87658 13.4381,24.65423 8.7266,24.22245 10.5797,28.7433 13.4519,32.81589 1.6216,2.29913 2.9482,5.5364 2.9482,7.19368 0,1.65742 1.729,6.62359 3.842,11.03605 2.113,4.41228 4.8284,11.4461 6.034,15.63053 1.2057,4.18441 3.2481,11.03172 4.5386,15.21614 1.2905,4.18443 2.8459,10.46945 3.4564,13.96676 0.6104,3.49731 1.7842,6.77565 2.6087,7.28513 0.8245,0.50965 1.5074,4.87591 1.5176,9.7028 0.034,16.20469 3.734,24.12356 17.4659,37.37975 6.8212,6.58517 14.2393,14.2554 16.4841,17.04498 5.6638,7.0383 36.9624,32.91168 42.1122,34.81265 2.3247,0.8581 6.1289,2.5846 8.4536,3.83669 2.3246,1.25197 9.1718,3.28563 15.2159,4.51907 6.0443,1.23336 13.2721,3.62458 16.0617,5.31373 2.7895,1.6891 7.8968,3.07389 11.3494,3.07745 3.4524,0 10.138,1.52796 14.856,3.38761 5.8545,2.30763 12.5653,3.38141 21.1327,3.38141 8.0698,0 15.7477,1.14739 21.4939,3.21216 4.9167,1.76652 12.7433,3.76014 17.3926,4.43013 4.6494,0.66992 12.6379,1.96749 17.7525,2.8836 5.1141,0.91616 14.3081,1.77558 20.4306,1.90989 12.6132,0.27677 16.7643,2.63469 16.7643,9.5221 0,4.70297 -5.6461,13.54647 -8.6488,13.54647 -0.9022,0 -5.602,2.98086 -10.4439,6.62408 -10.1495,7.63675 -17.0769,10.61341 -35.7023,15.34147 -11.577,2.93871 -18.8867,3.39472 -54.4202,3.39472 -39.7041,0 -41.5067,-0.14619 -55.0994,-4.46849 -7.7288,-2.45782 -14.8133,-5.02869 -15.7433,-5.71341 -2.4105,-1.77466 -20.6469,-7.01555 -29.311,-8.42342 -11.3745,-1.84826 -22.0815,0.87376 -28.9647,7.36361 -7.3659,6.94505 -19.1879,13.86068 -34.7117,20.30557 -9.7721,4.05699 -15.0029,5.05929 -30.0098,5.74996 -20.4963,0.94349 -20.5508,0.99428 -15.8275,14.71664 2.1352,6.2035 4.2281,14.9362 6.9142,28.85308 0.815,4.22152 0.065,6.01331 -4.2443,10.14412 l -5.2341,5.01702 -52.7253,0.4206 -52.7254,0.42073 z"
       id="path3" /></g></svg>
