<?xml version="1.0" encoding="UTF-8" standalone="no"?>
<!-- Created with Inkscape (http://www.inkscape.org/) -->

<svg
   version="1.1"
   id="svg1"
   width="2644"
   height="1012"
   viewBox="0 0 2644 1012"
   sodipodi:docname="Achillobator_size_inspyrenet_bria.png"
   inkscape:export-filename="penguin.svg"
   inkscape:export-xdpi="96"
   inkscape:export-ydpi="96"
   xml:space="preserve"
   xmlns:inkscape="http://www.inkscape.org/namespaces/inkscape"
   xmlns:sodipodi="http://sodipodi.sourceforge.net/DTD/sodipodi-0.dtd"
   xmlns="http://www.w3.org/2000/svg"
   xmlns:svg="http://www.w3.org/2000/svg"><defs
     id="defs1" /><sodipodi:namedview
     id="namedview1"
     pagecolor="#ffffff"
     bordercolor="#000000"
     borderopacity="0.25"
     inkscape:showpageshadow="2"
     inkscape:pageopacity="0.0"
     inkscape:pagecheckerboard="0"
     inkscape:deskcolor="#d1d1d1"><inkscape:page
       x="0"
       y="0"
       width="2644"
       height="1012"
       id="page2"
       margin="0"
       bleed="0" /></sodipodi:namedview><g
     inkscape:groupmode="layer"
     inkscape:label="Image"
     id="g1"><path
       style="fill:#000000;stroke-width:2.39412"
       d="m 1265.1774,802.92463 c -3.154,-8.219 3.9658,-19.69785 16.5412,-26.66855 13.6498,-7.5664 57.7533,-18.8909 85.0616,-21.8413 21.5554,-2.3291 32.0122,-9.4657 35.2115,-24.0312 2.6235,-11.945 -9.3612,-37.8609 -17.5089,-37.8609 -3.1181,0 -9.0948,-2.6239 -13.2819,-5.8308 -7.6511,-5.8604 -32.1681,-16.5142 -38.003,-16.5142 -4.6582,0 -3.7873,13.7944 1.9349,30.649 4.8833,14.3829 4.8237,15.1504 -1.6783,21.6587 -6.2385,6.2445 -11.6698,6.939 -72.8959,9.3219 -119.8715,4.6655 -110.704,5.0212 -111.7943,-4.3374 -1.9835,-17.0253 18.4927,-25.2594 68.9114,-27.7117 41.9749,-2.0417 42.832,-2.7099 39.9006,-31.1118 -1.601,-15.511 -2.5495,-17.7009 -5.7631,-13.306 -2.1157,2.8935 -5.0116,5.2608 -6.4356,5.2608 -1.4239,0 -4.9207,2.1102 -7.7706,4.6893 -2.85,2.5792 -19.4825,8.4125 -36.9612,12.9631 -62.9943,16.4003 -90.5073,26.8473 -98.1483,37.2682 -7.9379,10.8262 -41.4771,28.0756 -54.5895,28.0756 -4.8898,0 -12.002,-3.3877 -16.4495,-7.8355 -11.0592,-11.0592 -10.5576,-27.1146 1.2729,-40.7339 16.2913,-18.7545 25.3083,-41.9388 19.1825,-49.3201 -2.5769,-3.105 -2.2077,-6.9614 1.3985,-14.6133 2.6946,-5.7173 5.3306,-17.5778 5.8575,-26.3561 l 0.9584,-15.9609 -28.4843,-0.7158 c -16.4502,-0.4135 -37.05687,1.2725 -48.77607,3.9903 -11.1606,2.5882 -24.5584,4.7059 -29.773,4.7059 -18.3586,0 -47.5816,-17.0483 -47.5816,-27.7584 0,-4.0973 15.7305,-46.9037 28.51,-77.5829 23.8124,-57.1653 26.9094,-62.9109 42.4961,-78.8419 13.0559,-13.3441 15.5043,-17.4766 12.4997,-21.0967 -2.8782,-3.4681 -2.6261,-7.649 1.0979,-18.2045 2.6589,-7.5361 4.5625,-15.2801 4.2302,-17.2089 -0.857,-4.9745 7.52307,-30.6401 10.00437,-30.6401 1.1347,0 7.6722,5.1375 14.5275,11.4171 9.328,8.5438 14.4782,11.0318 20.4666,9.8871 4.9563,-0.9476 10.9406,0.782 15.7231,4.5439 4.2467,3.3405 10.7807,6.0734 14.5203,6.0734 3.7397,0 12.1595,2.8729 18.711,6.3843 21.1396,11.3302 26.2716,9.351 55.8721,-21.547 14.7171,-15.3624 28.2453,-31.9254 30.0625,-36.8067 1.8173,-4.8816 7.4153,-11.0014 12.44,-13.5998 5.0245,-2.5983 10.6131,-7.4852 12.419,-10.8595 1.8059,-3.3743 6.517,-7.1581 10.4692,-8.4088 3.9522,-1.2507 14.3681,-8.578 23.1467,-16.2827 8.7782,-7.7048 23.8612,-17.7112 33.5176,-22.2363 9.6562,-4.5251 21.5093,-11.9306 26.3399,-16.4568 8.1843,-7.6681 11.7759,-8.4152 52.6706,-10.9554 30.2781,-1.8806 49.8269,-1.6005 63.0404,0.9033 31.5653,5.9812 78.1889,20.3373 78.1987,24.0784 0.024,6.6221 11.2287,13.0345 29.7376,17.009 11.8897,2.5531 22.362,7.3265 29.1508,13.2871 5.8272,5.1164 11.9785,9.3026 13.6692,9.3026 4.8917,0 14.4622,12.0479 12.3218,15.5112 -1.069,1.7295 5.0154,10.2895 13.521,19.0216 22.9067,23.5176 38.4666,48.881 50.0371,81.5638 14.9867,42.3316 22.0089,86.0415 19.7982,123.2365 -2.6419,44.4509 -21.9953,102.6186 -38.4694,115.6223 -5.258,4.1502 -5.9832,6.2925 -3.1072,9.1783 5.5114,5.5302 21.7559,1.5016 50.7738,-12.5916 26.3854,-12.8148 38.8271,-23.0879 50.8037,-41.9495 8.8594,-13.9522 16.2766,-20.2815 20.6213,-17.5965 5.9582,3.6824 3.5486,15.7753 -7.9056,39.6762 -13.1136,27.3634 -38.7632,54.315 -65.5017,68.8265 -15.0882,8.1885 -21.503,9.6212 -47.755,10.665 -27.7412,1.103 -31.2777,0.5595 -41.498,-6.377 -6.1857,-4.1978 -11.6443,-10.8648 -12.2294,-14.9362 -0.896,-6.2349 -2.3529,-7.0303 -9.5764,-5.2278 -4.6859,1.1693 -10.7875,4.1687 -13.5594,6.6655 -2.7717,2.4966 -6.4629,4.5396 -8.2025,4.5396 -5.8285,0 -42.6206,36.6682 -42.6206,42.4771 0,3.5073 -3.7297,7.0375 -9.5959,9.0823 -11.1824,3.8984 -13.4556,10.4094 -12.1165,34.7066 l 0.9633,17.479 -13.6194,6.8752 c -7.4907,3.7812 -22.5737,7.822 -33.5177,8.9796 -10.944,1.1576 -41.4453,5.5208 -67.7806,9.69625 -76.0812,12.0623 -83.3462,12.6258 -85.6419,6.6429 z M 1100.0452,668.70148 c 13.278,-8.3821 17.8355,-16.9159 14.5543,-27.2533 -2.8581,-9.0052 -10.0917,-7.9324 -12.55,1.8615 -1.1381,4.5349 -5.6213,13.872 -9.9624,20.7488 -4.3412,6.8769 -7.1282,12.5036 -6.1935,12.5036 0.9348,0 7.3029,-3.5373 14.1516,-7.8606 z"
       id="path4" /></g></svg>
