<?xml version="1.0" encoding="UTF-8" standalone="no"?>
<!-- Created with Inkscape (http://www.inkscape.org/) -->

<svg
   version="1.1"
   id="svg1"
   width="2644"
   height="1012"
   viewBox="0 0 2644 1012"
   sodipodi:docname="Achillobator_size_inspyrenet_bria.png"
   inkscape:export-filename="deinonychus.svg"
   inkscape:export-xdpi="96"
   inkscape:export-ydpi="96"
   xml:space="preserve"
   xmlns:inkscape="http://www.inkscape.org/namespaces/inkscape"
   xmlns:sodipodi="http://sodipodi.sourceforge.net/DTD/sodipodi-0.dtd"
   xmlns="http://www.w3.org/2000/svg"
   xmlns:svg="http://www.w3.org/2000/svg"><defs
     id="defs1" /><sodipodi:namedview
     id="namedview1"
     pagecolor="#ffffff"
     bordercolor="#000000"
     borderopacity="0.25"
     inkscape:showpageshadow="2"
     inkscape:pageopacity="0.0"
     inkscape:pagecheckerboard="0"
     inkscape:deskcolor="#d1d1d1"><inkscape:page
       x="0"
       y="0"
       width="2644"
       height="1012"
       id="page2"
       margin="0"
       bleed="0" /></sodipodi:namedview><g
     inkscape:groupmode="layer"
     inkscape:label="Image"
     id="g1"><path
       style="fill:#000000;stroke-width:6.6114"
       d="m 453.35498,871.1103 c -15.9104,-4.1579 -19.27342,-17.7172 -10.23557,-41.2697 7.83259,-20.4113 80.9766,-63.1613 137.77485,-80.5248 30.908,-9.4484 55.4852,-23.15972 63.5359,-35.44702 11.8169,-18.0353 11.4511,-23.5128 -3.6588,-54.7868 -9.2337,-19.1115 -30.9095,-51.65 -48.1685,-72.3077 -17.259,-20.6577 -33.9456,-48.0611 -37.0813,-60.8964 -7.5341,-30.839 -28.02392,-68.6174 -59.6114,-109.9091 -25.62663,-33.4996 -76.42868,-64.3777 -139.52627,-84.8057 -58.24238,-18.8562 -55.91285,-72.0254 4.9996,-114.112 20.28205,-14.0136 47.95379,-35.8064 61.49268,-48.4285 31.62562,-29.484 55.88224,-35.1513 128.15549,-29.9423 64.1621,4.6244 120.7881,28.6313 187.3873,79.4439 42.9901,32.7997 86.2043,41.4526 296.17504,59.3038 121.2633,10.3095 189.5136,24.4268 295.4156,61.1059 170.8355,59.1686 255.675,78.7069 386.1224,88.923 70.3011,5.5057 174.2304,18.1902 230.9538,28.1879 97.3407,17.1567 139.2735,16.7116 161.4746,-1.7137 4.9863,-4.1383 32.653,-19.9315 61.4814,-35.0961 55.7764,-29.3401 111.6929,-37.4909 129.9913,-18.9483 8.9809,9.1009 5.8134,16.045 -16.4353,36.0319 -15.1579,13.6171 -33.0087,26.6927 -39.6684,29.0569 -6.6596,2.3642 -9.2572,7.3624 -5.7724,11.1071 3.4849,3.7447 16.2376,0.3206 28.3398,-7.6084 27.4803,-18.006 54.4184,-18.5326 61.0714,-1.1941 12.9405,33.7214 -31.0213,66.1141 -89.7265,66.1141 -37.7015,0 -95.2432,19.9901 -192.081,66.7297 -34.4561,16.6306 -67.1347,30.2374 -72.6192,30.2374 -5.4845,0 -44.1865,19.6183 -86.0043,43.5963 -86.6938,49.7093 -157.8268,69.30942 -290.0104,79.91012 -48.4836,3.8882 -105.1528,13.2658 -125.9316,20.8385 -151.1667,55.0934 -425.7065,53.6726 -596.26384,-3.0849 l -56.0614,-18.656 -42.3383,26.8495 c -23.2861,14.7679 -45.7292,26.8502 -49.8737,26.8502 -4.1444,0 -38.0777,11.4173 -75.4071,25.3713 -105.6843,39.5057 -157.26858,49.6912 -197.89588,39.074 z"
       id="path2" /></g></svg>
