<svg xmlns="http://www.w3.org/2000/svg" width="1716.364" height="1192.727"><path d="M1044.717 986.014q-.154.002-.371.039c-.582.096-1.526.376-3.301 1.172s-4.382 2.106-6.983 3.593-5.191 3.154-7.29 4.524-3.706 2.444-5.577 3.586-4.008 2.35-5.334 3.234-1.84 1.444-2.547 2.158c-.707.715-1.607 1.583-2.373 2.018s-1.398.435-2.105.885c-.706.449-1.488 1.347-1.879 1.797-.388.446-.388.446-.682.564s-.883.353-3.314 2.283-6.703 5.553-10.238 8.705c-3.536 3.153-6.335 5.834-8.338 8.221-2.004 2.387-3.21 4.477-3.948 6.393-.736 1.915-1.003 3.653-1.15 5.671s-.176 4.317.149 6.159 1.001 3.225 2.072 4.588c1.07 1.362 2.532 2.702 4.263 4.039a45.6 45.6 0 0 0 5.983 3.898 63 63 0 0 0 6.646 3.104c1.896.75 3.187 1.125 5.332 1.45 2.145.326 5.142.602 7.887.727s5.237.102 7.285.102 3.652.029 4.99.039c1.34.01 2.413-.017 3.069.066s.896.272 1.281.402.915.197 1.473.207c.557.01 1.14-.057 1.484-.01s.448.203.688.407.614.453 1 .615a4.2 4.2 0 0 0 1.078.271c.297.036.495.036.615.354.12.317.16.952.172 1.556.01.605-.011 1.178.236 2.047.248.87.765 2.033 1.582 3.942.818 1.908 1.937 4.56 2.924 6.394s1.841 2.851 2.533 3.455c.693.604 1.222.795 1.723 1.348.5.552.974 1.466 1.695 3.123s1.694 4.058 2.563 6.018 1.636 3.475 2.594 4.978c.957 1.503 2.106 2.991 3.255 4.524s2.297 3.108 3.041 3.904 1.084.812 1.334.812.412 0 .6.14c.188.144.4.439.504.675.103.235.097.411.045.507s-.147.112-.324.2a2.4 2.4 0 0 0-.649.474 1.8 1.8 0 0 0-.46.885 2.7 2.7 0 0 0 .015 1.123c.07.267.191.402.186.457v.01c-.047.035-.264 0-.764 0-.515 0-1.334.055-2.564.188-1.23.132-2.873.348-3.992.609-1.12.262-1.716.57-2.688 1.277-.972.708-2.32 1.812-3.152 2.733-.833.92-1.15 1.658-1.305 2.328s-.146 1.274-.242 1.697-.295.667-.77 1.393c-.475.725-1.227 1.933-1.722 2.998s-.733 1.988-.992 2.799c-.26.81-.543 1.508-1.053 2.216s-1.25 1.427-1.87 2.333c-.62.905-1.122 1.999-1.372 2.888-.251.89-.25 1.574-.025 2.14.224.568.674 1.018 1.138 1.202s.942.103 1.457-.129 1.07-.615 1.608-1.123c.537-.508 1.06-1.141 1.505-1.73.446-.59.814-1.135 1.028-1.414.213-.28.272-.296.324.08.051.375.095 1.142.029 1.62-.066.48-.244.67-.498 1.038s-.586.914-.781 1.43-.254 1-.092 1.476c.162.475.545.939.931 1.19.387.25.779.288 1.18.181s.814-.359 1.318-.834 1.1-1.174 1.653-1.896 1.061-1.465 1.33-2.014.299-.902.377-1.064.204-.133.336.07c.131.202.267.576.402.957.136.38.272.765.459 1.119.188.354.427.677.797 1.28.37.605.87 1.492 1.26 1.966s.673.536 1.027.5.78-.173 1.213.057c.432.229.87.822 1.307 1.275 1.902 1.731 4.08 1.6 6.546 1.469.768.071.944.367 1.791.875.848.508 2.364 1.23 3.47 1.768 1.104.537 1.796.89 3.056 1.082 1.26.19 3.087.221 4.428-.051 1.34-.273 2.195-.849 3.285-1.63s2.414-1.766 3.316-2.613c.902-.846 1.38-1.554 1.756-1.9s.65-.332.875-.178.401.449.998.758c.597.31 1.613.633 2.483.67.869.037 1.59-.212 2.6-.75 1.008-.538 2.306-1.363 3.47-2.225 1.164-.861 2.193-1.76 2.93-2.666a8.7 8.7 0 0 0 1.488-2.71c.31-.892.486-1.762.685-2.182s.42-.39.87-.361c.449.029 1.126.06 1.996-.235.869-.295 1.93-.915 2.902-1.674s1.855-1.655 2.38-2.324c.526-.669.694-1.108 1.122-1.129.427-.02 1.116.374 1.949.895.833.52 1.813 1.168 3.594 1.98s4.364 1.791 6.916 2.76 5.073 1.927 7.084 2.625 3.51 1.136 4.703 1.35 2.078.203 2.816.092 1.328-.326 1.836-.248c.51.078.936.447 1.526.638.589.192 1.34.205 2.129.237s1.613.084 2.119.084.693-.038.99.066.703.354 1.125.662c.422.307.86.67 1.24.994s.704.605.96.824c.254.219.441.374.321.9s-.547 1.422-1.068 2.666a123 123 0 0 0-1.781 4.59c-.646 1.75-1.322 3.656-2.16 5.635s-1.839 4.032-2.766 5.506-1.782 2.369-2.412 2.838-1.037.51-1.537.539-1.093.043-1.432-.014-.422-.188-.656-.633-.62-1.204-1.147-1.887c-.526-.682-1.192-1.286-2.03-1.61-.84-.322-1.85-.364-2.839-.255-.99.11-1.957.37-3.181.88a32 32 0 0 0-3.7 1.864c-.994.594-1.503 1.021-1.675 1.531s-.01 1.105.29 1.625c.298.521.724.97 1.292 1.194.567.224 1.276.225 1.709.303.432.078.588.233.9.525s.783.72 1.074 1.178.406.948.62 1.656.525 1.635.894 2.203c.37.568.796.778 1.13.979.336.2.579.39.75.562.173.171.272.323.282.404s-.079.092-.281.102-.517.016-.93.281c-.412.265-.92.789-1.404 1.35-.483.56-.942 1.16-1.043 1.748-.102.588.153 1.167.392 1.547s.465.564.819.629.838.012 1.148-.084.445-.238.58-.334c.136-.096.272-.147.38-.182.106-.03.184-.048.216.01s.016.189-.168.373-.537.42-.89.727a6.6 6.6 0 0 0-.936.99c-.228.31-.333.553-.211.94.121.386.469.916.955 1.273s1.112.547 1.838.547c.725 0 1.55-.175 2.113-.31.564-.137.865-.232 1.215-.056s.75.626 1.188 1.002.917.678 1.351.91c.435.232.825.393 1.348.46.523.066 1.178.037 1.767-.015.59-.05 1.113-.124 1.489-.15.375-.026.603 0 .894.191.291.195.645.564 1.131.748s1.104.184 1.59.221.84.11 1.26.375.906.723 1.62.885 1.658.03 2.512-.287 1.62-.82 2.526-1.254 1.952-.802 2.865-1.074c.913-.273 1.694-.45 2.445-.819.752-.368 1.474-.927 2.72-2.246 1.244-1.318 3.012-3.396 4-4.81.986-1.415 1.192-2.165 1.605-3.711.412-1.547 1.03-3.89 1.642-6.041s1.216-4.11 1.717-5.819c.5-1.709.898-3.168 1.34-4.715s.927-3.18 1.336-4.326.742-1.802 1.22-2.69c.48-.887 1.105-2.005 1.48-2.75.377-.743.502-1.111.612-1.314.11-.202.205-.236 1.07-.236s2.503.048 3.667.07 1.854.022 2.613-.191c.758-.214 1.584-.641 2.224-1.032.641-.39 1.1-.744 1.409-1.392s.47-1.591 1.023-2.475 1.496-1.709 2.033-2.254c.538-.545.67-.811.707-1.084.037-.272-.023-.552.434-1.119s1.43-1.42 2.04-2.068c.612-.648.863-1.091 1.099-1.334.235-.243.455-.288.941-.266a9.3 9.3 0 0 1 1.857.28c.62.169 1.105.42 1.532.626s.796.37 1.23.495c.435.125.935.21 1.826.22.892.01 2.173-.066 3.827-.119s3.679-.087 5.244.45c1.565.535 2.67 1.64 3.441 2.536s1.208 1.583 1.541 2.073.562.78.979 1.26a26 26 0 0 0 1.855 1.927c.833.781 1.896 1.677 3.36 3.328s3.327 4.057 4.494 5.51 1.634 1.954 1.884 2.606c.25.65.282 1.453.21 2.14-.074.688-.251 1.26-.764 1.932s-1.362 1.443-1.618 1.904c-.255.461.083.611.305.752.222.14.327.272.254.342s-.324.08-.637.205c-.312.125-.686.365-.869.63-.183.266-.172.557-.219.868s-.15.64-.453.787c-.302.147-.801.11-1.365.258-.563.147-1.19.479-1.762 1.006-.57.526-1.086 1.249-1.38 2.486-.295 1.238-.369 2.99-.262 4.3.107 1.312.395 2.18.95 3.27a23.6 23.6 0 0 0 2.099 3.338c.376.49.724.878 1.04 1.18v-1.926h5.538c-.01-.016-.013-.033-.02-.049-.158-.386-.43-.835-.607-1.281-.176-.446-.257-.888-.216-1.256.04-.368.201-.663.662-.814.46-.15 1.218-.158 1.664-.213s.58-.16.672-.332.142-.416.275-.457.346.123.637.281c.29.158.66.313.906.379.247.066.372.044.77-.066a19.3 19.3 0 0 0 3.95-1.565c.558-.305.852-.54 1.132-.615s.547.015.613.174-.067.387-.307.582-.587.356-1.201 1.016c-.614.659-1.495 1.815-2.11 2.718-.614.904-.962 1.556-1.316 1.871-.354.316-.715.295-1.097.397-.383.102-.79.324-1.211.7-.422.374-.86.9-1.057 1.568-.198.666-.156 1.474 0 2.039s.426.888 1.04 1.091c.616.204 1.574.286 2.298.213s1.214-.301 1.709-.548.994-.515 1.283-.739.368-.405.53-.605c.16-.2.405-.42.923-.781s1.31-.868 1.99-1.358 1.247-.964 1.729-1.49.878-1.103 1.133-1.348.37-.157.449.2c.079.356.121.981.121 1.445 0 .463-.033.767-.088.918-.055.15-.128.15-.428.37-.3.222-.825.665-1.218 1.063-.394.399-.654.753-.774 1.201s-.1.99.066 1.37c.167.38.48.6.95.755.468.156 1.092.25 1.978.094s2.03-.561 2.775-.853 1.089-.469 1.375-.703c.287-.235.517-.527.653-.73.135-.204.177-.318.343-.51.167-.193.457-.463.832-.885s.834-.996 1.256-2.381.807-3.583 1.031-5.188.287-2.613.454-3.337c.166-.724.437-1.162.853-1.454.417-.291.98-.438 1.856-.896.875-.458 2.06-1.23 3.02-2.234.958-1.006 1.688-2.244 2.232-3.356.543-1.112.901-2.095 1.257-3.271.356-1.177.71-2.548.65-3.778-.058-1.23-.53-2.32-.736-3.086s-.146-1.208.104-1.687.692-.995.986-1.518.442-1.053.192-1.967c-.25-.913-.9-2.209-1.805-3.181-.906-.972-2.07-1.621-3.057-2.166s-1.797-.987-2.806-1.738c-1.01-.752-2.216-1.812-3.778-3.028s-3.477-2.584-5.076-3.836-2.88-2.387-4.066-3.664c-1.187-1.277-2.276-2.695-2.801-3.488-.524-.793-.484-.961-.088-1.211s1.145-.583 1.729-1.041c.583-.458 1-1.042 1.24-1.5s.302-.793.937-1.428c.636-.635 1.845-1.573 3.303-2.875s3.166-2.968 4.51-4.103c1.344-1.136 2.323-1.74 3.14-2.157.818-.416 1.474-.645 2.11-1.134.635-.49 1.25-1.241 1.824-1.73.573-.49 1.104-.72 1.531-.817.428-.098.752-.063 1.496-.356.744-.292 1.907-.91 4.168-2.295s5.62-3.535 7.35-4.826 1.896-1.728 2.207-1.767.768.321 2.268 1.394 3.978 2.865 6.79 4.781c2.813 1.917 5.96 3.959 8.044 5.032 2.083 1.073 3.104 1.177 4.156 1.052s2.135-.479 3.015-1.046 1.558-1.35 1.897-1.97.338-1.077.385-1.374.139-.433.582-.125c.442.307 1.235 1.056 2.693 2.222a83 83 0 0 0 5.469 4c1.885 1.25 3.53 2.167 5 2.72 1.469.551 2.76.739 4 .624s2.428-.53 3.215-1.04c.786-.511 1.17-1.115 1.373-1.62.202-.505.225-.912.28-1.16.057-.248.147-.338.259-.2.112.14.245.508.525.913s.706.845 2.068 2.26 3.662 3.8 5.48 5.443c1.82 1.643 3.162 2.541 4.112 2.998.95.456 1.509.472 2.127.39.619-.08 1.297-.257 1.914-.792.617-.536 1.174-1.431 1.457-2.17.283-.74.294-1.323.33-1.547q.014-.089.04-.106h.013c.053 0 .153.135.358.354.312.333.875.864 1.328 1.328.453.463.797.86 1.39 1.324.594.464 1.44.995 2.262 1.531.823.537 1.625 1.077 2.76 1.332s2.603.226 3.713-.113c1.11-.338 1.86-.985 2.328-1.662.469-.677.657-1.385.719-2.166s0-1.637.012-2.074c.01-.438.093-.457.363-.426s.73.115 1.772.594c1.041.479 2.666 1.354 4.718 2.375s4.532 2.187 6.616 2.625c2.083.437 3.77.145 4.884-.303s1.656-1.051 1.885-1.947.147-2.084-.113-3.303-.699-2.468-1.96-4.228c-1.26-1.76-3.342-4.032-5.103-5.74s-3.2-2.855-3.918-3.657c-.719-.802-.718-1.26-.968-1.853-.25-.594-.75-1.324-2.239-2.99-1.49-1.667-3.968-4.272-6.187-6.094s-4.178-2.864-5.584-3.354c-1.407-.49-2.26-.428-3.031-.584s-1.459-.53-4.22-1.988c-2.76-1.459-7.594-4.001-11.49-5.793s-6.853-2.832-9.728-3.457-5.666-.834-8.353-1.334c-2.688-.5-5.271-1.292-10.438-2.772s-12.918-3.645-20.793-5.353c-7.875-1.709-15.875-2.96-25.312-4.584-9.438-1.625-20.311-3.625-28.395-4.938s-13.375-1.936-17.312-2.166-6.523-.062-9.731-.478c-3.208-.417-7.04-1.417-12.457-2.5-5.417-1.084-12.418-2.25-19.355-3.147-6.938-.895-13.812-1.52-19.791-1.812s-11.063-.251-16.313-.52c-5.25-.268-10.666-.847-13.78-1.386-3.113-.54-3.924-1.042-4.77-1.528-.848-.486-1.732-.958-2.262-1.422a2.5 2.5 0 0 1-.803-1.26c-.096-.338-.11-.558.125-.454.236.103.722.529 1.111.859s.68.564.783.394.018-.742-.134-1.396c-.154-.654-.375-1.391-.795-2.555s-1.04-2.754-1.967-4.33c-.928-1.576-2.166-3.138-3.248-5.023-1.083-1.886-2.01-4.097-3.07-6.748-1.061-2.652-2.255-5.744-2.903-7.703s-.752-2.785-.73-3.102.17-.125.611.133c.442.258 1.18.581 2.174.89s2.246.604 3.275.74c1.03.137 1.836.115 1.932-.187s-.519-.883-1.238-1.527a49 49 0 0 0-2.99-2.465 180 180 0 0 0-5.923-4.33c-2.416-1.702-5.184-3.589-6.738-4.693-1.554-1.105-1.894-1.428-1.43-1.59.465-.162 1.732-.162 2.624-.221.89-.06 1.405-.177 2.228-.307s1.954-.272 2.846-.56 1.546-.723 1.275-1.192c-.27-.468-1.467-.971-2.814-1.4-1.348-.429-2.847-.783-5.295-1.127s-5.845-.679-9.485-1.068c-3.64-.39-7.522-.835-9.449-1.498-1.927-.664-1.898-1.543-2.119-1.932s-.692-.285-.928-.094c-.235.192-.237.469-.918.469-.68 0-2.043-.29-4.172-.444-2.129-.153-5.024-.172-9.13-.14-4.107.033-9.424.117-12.032.072-2.607-.046-2.503-.222-2.113-.656a52 52 0 0 1 1.818-1.871c.752-.744 1.577-1.54 2.063-2.079.486-.537.635-.817.598-1.002-.028-.14-.16-.222-.47-.214z" style="opacity:1;fill:#a2bee6;fill-opacity:1;stroke-width:.3;stroke-linecap:round;stroke-linejoin:round" transform="translate(-3899.545 -3797.777)scale(4.04044)"/><path d="M1047.594 997.713c-3.667-.145-10.117-.282-14.406 3.258-1.646 1.093-3.105 2.26-4.335 3.646a17.1 17.1 0 0 0-2.937 4.666c-.708 1.677-1.124 3.428-1.441 5.537-.318 2.11-.54 4.579-.53 6.553s.241 3.453.365 4.314c.125.862.14 1.105.362 1.297.373.324 1.727 5.54 4.832 9.649.958 1.267 2.047 2.299 3.564 3.521 1.518 1.223 3.462 2.637 5.348 3.698s3.711 1.767 5.229 2.312c1.517.545 2.727.928 3.67 1.06.942.133 1.618.016 2.546-.308a15.4 15.4 0 0 0 3.256-1.605c1.15-.752 2.269-1.725 3.315-2.506s2.018-1.37 3.535-2.106 3.58-1.62 5.039-2.312c1.458-.693 2.313-1.194 3.33-2.078a21 21 0 0 0 3.094-3.403c.898-1.252 1.517-2.49 1.9-3.638.383-1.15.529-2.211.676-3.625s.296-3.182.223-5.245c-.074-2.062-.369-4.419-.84-6.437-.472-2.018-1.12-3.698-2.313-5.48s-2.932-3.668-4.656-5.083c-1.724-1.414-3.432-2.357-5.627-3.123s-4.875-1.354-7.07-1.78c-2.195-.428-3.905-.694-6.13-.782" style="fill:#fff;fill-opacity:1;stroke-width:.3;stroke-linecap:round;stroke-linejoin:round" transform="translate(-3899.545 -3797.777)scale(4.04044)"/><path d="M1048.042 999.97c1.166.386 1.812.594 2.604 1.521.792.928 1.729 2.573 2.448 4.24s1.218 3.354 1.604 4.448c.385 1.094.656 1.594.667 2.438.01.843-.24 2.03-.636 3.458-.396 1.427-.937 3.093-1.562 4.541s-1.334 2.678-2.177 3.782a17 17 0 0 1-2.698 2.791c-.875.709-1.646 1.146-2.25 1.646s-1.042 1.063-1.677 1.396c-.636.333-1.47.438-3.063.833-1.594.396-3.948 1.084-5.77 1.365-1.824.281-3.115.156-4.126-.031-1.01-.188-1.74-.438-2.635-1.27-.896-.834-1.959-2.25-2.704-3.03s-1.174-.92-1.395-1.113-.236-.435-.36-1.297c-.125-.861-.359-2.341-.367-4.316-.01-1.974.211-4.443.53-6.552.317-2.11.733-3.86 1.442-5.537a17.1 17.1 0 0 1 2.937-4.666c1.23-1.386 2.688-2.553 4.334-3.646 4.625-3.818 9.446-2.45 14.854-1" style="opacity:1;fill:#000;fill-opacity:1;stroke-width:.3;stroke-linecap:round;stroke-linejoin:round" transform="translate(-3899.545 -3797.777)scale(4.04044)"/><path d="M1047.825 1009.19c.225-.01.674-.032 1.05.053s.678.276 1.05.633c.372.358.814.88 1.075 1.385s.343.99.306 1.51a4 4 0 0 1-.413 1.492c-.22.42-.508.707-.891 1.009s-.862.618-1.296.81-.825.258-1.433.236-1.433-.133-1.897-.453-.567-.851-.604-1.573-.01-1.635.236-2.339c.417-1.208 2.087-2.726 2.817-2.762z" style="fill:#fff;fill-opacity:1;stroke-width:.3;stroke-linecap:round;stroke-linejoin:round" transform="translate(-3899.545 -3797.777)scale(4.04044)"/><path d="M1008.125 1007.783a15 15 0 0 0-1.146 1.211l-.022.025c-.194.222-.29.334-.375.404l-.064.047a1.4 1.4 0 0 1-.243.114 3 3 0 0 0-.3.135c-.404.206-1.191.7-3.014 2.148-2.43 1.93-6.703 5.553-10.238 8.705-3.536 3.153-6.335 5.834-8.338 8.22a27.6 27.6 0 0 0-2.4 3.294 20 20 0 0 0-.884 1.59 18 18 0 0 0-.664 1.51c-.736 1.914-1.003 3.653-1.15 5.671s-.176 4.317.148 6.158a10 10 0 0 0 .756 2.475c.172.373.367.73.586 1.08q.33.523.73 1.033c1.071 1.362 2.533 2.703 4.264 4.04a45.6 45.6 0 0 0 5.983 3.898 63 63 0 0 0 6.646 3.103c1.896.75 3.187 1.126 5.332 1.451s5.142.602 7.887.727 5.237.102 7.285.102 3.652.029 4.99.039 2.413-.017 3.069.066q.197.025.35.06c-.816-1.596-1.25-2.187-1.762-2.937-.527-.77-1.139-1.704-1.584-2.555-.446-.85-.725-1.618-.987-2.543a38 38 0 0 1-.71-3.085 36 36 0 0 1-.471-3.131c-.096-.976-.118-1.853-.383-2.844s-.773-2.096-1.215-3.414-.818-2.849-1.002-3.64c-.184-.793-.177-.842-.365-.872s-.57-.039-.998-.172c-.427-.132-.9-.389-1.813-1.166s-2.267-2.075-2.908-3.092c-.64-1.016-.568-1.752-.656-2.216s-.34-.655-.59-.75c-.25-.096-.5-.095-1.045-.508s-1.385-1.24-2.07-2.264-1.215-2.245-1.672-3.416-.84-2.291-1.09-3.713c-.25-1.421-.369-3.146-.361-4.877.01-1.73.14-3.467.428-4.86.287-1.391.728-2.44 1.082-3.286.22-.527.68-1.382.984-1.965" style="fill:#988985;fill-opacity:1;stroke-width:.3;stroke-linecap:round;stroke-linejoin:round" transform="translate(-3899.545 -3797.777)scale(4.04044)"/><path d="M988.662 1030.078c.55-.863 1.155-1.5 1.754-1.807a2.13 2.13 0 0 1 1.7-.114c.507.173.928.496 1.085 1.16s.048 1.668-.238 2.72a12.6 12.6 0 0 1-1.29 3.054c-.54.901-1.154 1.603-1.813 2.089-.658.485-1.36.755-1.905.717-.545-.037-.933-.383-1.117-1.041-.183-.659-.162-1.63-.08-2.305.001-.014.222-1.834 1.904-4.473" style="fill:#3c3431;fill-opacity:1;stroke-width:.310827;stroke-linecap:round;stroke-linejoin:round" transform="translate(-3899.545 -3797.777)scale(4.04044)"/><path d="M1043.01 1047.883c-.492.015-1.314.086-2.393.176s-2.415.2-3.76.316a720 720 0 0 0-4.556.406c-1.857.17-4.215.392-6.348.713s-4.04.743-6.52 1.305-5.53 1.263-9.656 2.137c-4.125.873-9.323 1.917-13.017 2.529s-5.883.793-7.91.652a24 24 0 0 1-3.004-.418 45 45 0 0 0 3.85 2.649c3.069.049 4.75-.01 6.296-.203 1.59-.2 3.039-.541 5.594-1.08 2.555-.54 6.217-1.277 9.652-2.006 3.435-.73 6.643-1.452 8.659-1.973 2.015-.521 2.839-.842 3.511-1.043s1.195-.28 2.6-.3 3.692.02 5.017-.07 1.686-.313 2.319-.483c.632-.17 1.537-.292 2.27-.352.732-.06 1.294-.059 1.867-.215.572-.155 1.153-.467 1.966-.683s1.857-.337 2.555-.537c.698-.201 1.049-.48 1.295-.737.246-.256.387-.487.377-.623-.01-.135-.172-.175-.664-.16" style="fill:#789bcd;fill-opacity:1;stroke-width:.3;stroke-linecap:round;stroke-linejoin:round" transform="translate(-3899.545 -3797.777)scale(4.04044)"/><path d="M1021.75 1050.281c-.728.158-1.49.33-2.316.518-2.48.562-5.531 1.263-9.657 2.137-4.125.873-9.324 1.917-13.017 2.529-3.694.612-5.883.793-7.91.652a24 24 0 0 1-3.006-.418 45 45 0 0 0 3.851 2.649c3.07.049 4.75-.01 6.297-.203 1.59-.2 3.039-.541 5.594-1.08 2.555-.54 6.217-1.277 9.652-2.006 3.435-.73 6.643-1.452 8.658-1.973a46 46 0 0 0 2.116-.596 29 29 0 0 1-.213-1.652q-.028-.283-.05-.557z" style="fill:#73635e;fill-opacity:1;stroke-width:.3;stroke-linecap:round;stroke-linejoin:round" transform="translate(-3899.545 -3797.777)scale(4.04044)"/><path d="M1067.272 1062.426q-.174 0-.358.023c-.552.08-1.17.376-2.084.84-.913.464-2.123 1.097-3.574 1.767s-3.145 1.378-4.53 1.946c-1.384.567-2.46.995-3.97 1.171s-3.454.102-5.178-.082-3.226-.478-4.7-.795a105 105 0 0 1-4.138-.972c-1.223-.317-2.225-.611-3.463-.803-1.082-.167-2.847.15-3.765.203.133.075.229.181.377.307.24.203.614.454 1 .615a4.2 4.2 0 0 0 1.078.272c.293.036.489.037.61.341 0 0 0 .01.01.012q.018.048.034.106.014.043.023.094.018.084.031.18v.032c0 .014 0 .025.01.039 0 .022 0 .05.01.074q.022.186.035.394c0 .048.01.088.012.137.115 0 .225.01.328.01.95.037 1.407.168 2.159.367.75.199 1.797.465 2.96.781 1.164.317 2.446.684 4.213.883 1.768.199 4.022.228 5.672.25s2.696.038 4.088-.242 3.13-.855 4.832-1.526a63 63 0 0 0 4.662-2.076c1.297-.64 2.225-1.157 2.932-1.629.707-.471 1.194-.898 1.467-1.31.596-.903.028-1.401-.778-1.416z" style="fill:#789bcd;fill-opacity:1;stroke-width:.3;stroke-linecap:round;stroke-linejoin:round" transform="translate(-3899.545 -3797.777)scale(4.04044)"/><path d="M1068.88 2280.257c.177.236.53.707.796 1.459.265.751.442 1.782.545 3.322s.132 3.587-.03 5.141-.516 2.615-1.193 4.058a31 31 0 0 1-3.057 5.142c-1.378 1.87-3.13 3.786-4.199 4.909s-1.45 1.455-1.686 1.716-.324.453-.354.73c-.03.275 0 .636-.07.806s-.24.147-.438-.085c-.2-.232-.427-.674-.512-1.087s-.026-.795.287-1.359c.313-.563.88-1.307 1.613-2.309.733-1.001 1.632-2.26 2.5-3.447.87-1.186 1.71-2.298 2.498-3.429s1.525-2.28 1.958-3.706.563-3.135.635-4.668c.07-1.534.082-2.867.048-3.966s-.112-1.963-.12-2.497c-.01-.534.055-.737.167-.843s.273-.114.354-.118c.081 0 .082 0 .259.23z" style="fill:#789bcd;fill-opacity:1;stroke-width:.3;stroke-linecap:round;stroke-linejoin:round" transform="translate(-3900.305 -8616.922)scale(4.04044)"/><path d="M1043.8 1120.553q-.074.222-.122.433c-.155.67-.147 1.274-.243 1.698-.095.423-.294.667-.769 1.392-.43.656-1.085 1.705-1.572 2.688.088 0 .175 0 .26-.01.614-.026 1.084-.068 1.519-.248s.835-.498.98-1.577.037-2.916-.018-3.835a35 35 0 0 0-.035-.545zm-3.075 7.023c-.353.857-.555 1.616-.774 2.297-.26.81-.542 1.509-1.053 2.217s-1.248 1.426-1.869 2.332c-.62.906-1.122 2-1.373 2.889s-.25 1.573-.025 2.14.675 1.017 1.139 1.201.941.103 1.457-.129 1.07-.614 1.607-1.123c.538-.508 1.06-1.14 1.506-1.73s.814-1.134 1.028-1.414c.213-.28.272-.296.324.08.05.376.095 1.142.029 1.621s-.244.669-.498 1.037-.586.914-.782 1.43c-.195.516-.254 1.001-.092 1.476s.545.94.932 1.19.778.288 1.18.182c.401-.107.814-.36 1.318-.834.505-.476 1.1-1.175 1.652-1.897.553-.722 1.062-1.465 1.33-2.014.27-.549.3-.902.377-1.064s.205-.132.336.07.267.577.403.957c.135.38.271.765.459 1.12.187.353.427.676.797 1.28s.869 1.491 1.26 1.965c.39.474.673.536 1.027.5s.78-.172 1.213.057q.052.028.103.062c-.034-.689-.277-1.13-.555-1.504-.286-.385-.608-.698-.77-1.084-.16-.385-.161-.843-.224-1.244-.062-.4-.188-.744-.474-1.213-.287-.469-.733-1.064-1.176-1.668s-.88-1.217-1.568-1.488-1.626-.2-2.553-.355c-.927-.157-1.843-.54-2.65-1.02-.808-.48-1.507-1.053-1.99-1.63-.485-.579-.755-1.163-.895-2.07-.132-.847-.15-1.977-.157-2.622z" style="fill:#988985;fill-opacity:1;stroke-width:.3;stroke-linecap:round;stroke-linejoin:round" transform="translate(-3899.545 -3797.777)scale(4.04044)"/><path d="M1099.074 1097.207q-.092 0-.152.12c-.114.235-.107.847-.2 1.267-.091.42-.284.647-.468 1.107s-.36 1.154-.703 2.149c-.343.994-.85 2.289-1.104 2.937-.182.466-.233.595-.265.621 0 0-.012-.01-.018-.01a.6.6 0 0 0-.258-.098c-.12-.01-.267.025-.416.184-.15.158-.302.438-.447.543s-.284.036-.325-.111c-.04-.148.02-.374.04-.735.016-.36 0-.858-.013-1.32-.01-.462-.01-.888-.055-1.227-.046-.339-.137-.59-.396-.957-.26-.366-.687-.847-1.156-1.299-.47-.45-.982-.87-1.514-1.16s-1.085-.449-1.611-.449c-.527 0-1.028.153-1.356.383s-.483.536-.619.869-.254.694-.264 1.023c-.01.33.09.627.245.782.154.154.365.167.535-.033.17-.201.299-.614.556-.774s.643-.066 1.018.064.74.296 1.068.588.62.71.819 1.037c.197.328.3.567.363.932.062.365.084.855.14 1.146.058.292.15.384.26.592.11.209.237.533.315.908s.109.802-.016 1.047-.406.306-.666.52c-.26.213-.5.58-.938 1.37-.437.793-1.073 2.011-1.693 3-.62.99-1.225 1.75-1.787 2.485-.563.735-1.083 1.442-1.65 1.963-.568.52-1.183.854-1.71 1.15-.526.297-.962.558-1.322.756s-.64.334-1.088.422-1.063.13-1.459.157-.573.036-.672-.24c-.103-.277-.12-.84-.103-1.563.016-.724.067-1.61-.084-2.444s-.505-1.613-1.135-2.488-1.536-1.844-2.244-2.318c-.708-.475-1.22-.453-1.834-.453s-1.334-.021-1.74.119-.5.443-.479.74.156.588.354.666.459-.057.662 0 .35.307.63.469c.282.161.699.235 1.095.443.395.208.77.552 1.025.766s.391.296.521.4.256.23.282.387c.026.156-.05.343-.096.619-.047.276-.065.64-.03.994.038.354.13.699.255 1.272s.281 1.374.343 2.218c.063.844.031 1.73-.088 2.225s-.325.599-.564.775c-.24.177-.513.426-1.139 1.229s-1.606 2.158-2.703 3.38c-1.098 1.224-2.313 2.314-3.125 3.016-.812.703-1.22 1.019-1.664 1.176s-.925.158-1.383.174-.896.046-1.14-.037c-.246-.083-.291-.281-.301-1.062 0-.782.035-2.146.025-3.01-.01-.865-.073-1.23-.366-2.063a54 54 0 0 0-1.253-3.156c-.443-1.02-.81-1.76-1.247-2.353s-.947-1.042-1.26-1.188c-.312-.146-.426.01-.327.39s.412.984.709 1.604c.296.62.576 1.255.722 2.016.146.76.157 1.646.266 2.687.11 1.042.318 2.24.344 2.963.026.724-.13.975-.266 1.428s-.249 1.11-.816 1.771c-.568.662-1.589 1.327-2.797 2.067s-2.606 1.552-3.59 2.062c-.985.51-1.557.72-1.979.797s-.693.027-.99-.129-.62-.418-.781-.636c-.162-.22-.161-.396-.432-.448-.27-.052-.812.021-1.11.203-.296.183-.347.474-.196.807s.505.708.89 1.094c.386.385.802.782 1.276 1.074 2.168 1.072 3.949-.073 6.025-1.125a9.6 9.6 0 0 0 2.38-1.725c.662-.64 1.319-1.39 1.71-1.828.323-.362.465-.51.521-.494h.02v.01s.01.013.01.02c.031.098-.033.42.066.696.1.276.36.506.506.756s.177.52.188 1.12c.01.598 0 1.525-.01 2.197s-.021 1.089-.104 1.287-.24.177-.318.443c-.073.266-.072.817-.082 1.395s-.015 1.182-.11 1.53c-.094.35-.27.445-.437.856-.167.412-.323 1.14-.375 1.682s0 .897-.135 1.256a2.7 2.7 0 0 1-.287.516c.45.096.687.307 1.178.628.531-.753 1.08-1.429 1.515-1.988.459-.588.79-1.047.957-1.584.162-.536.162-1.151.172-1.584.01-.432.015-.681.135-1.103s.35-1.015.428-1.817.01-1.813-.041-2.677c-.047-.865-.068-1.585-.21-2.122-.14-.536-.399-.889-.472-1.175s.04-.506.201-.537c.162-.031.371.125.653.255.28.13.636.235 1.068.282a4.7 4.7 0 0 0 1.41-.062c.469-.1.897-.286 1.356-.51a7.8 7.8 0 0 0 1.634-1.041c.688-.557 1.573-1.412 2.354-2.24s1.46-1.631 2.101-2.643c.643-1.012 1.25-2.234 1.672-2.955s.657-.942.797-.986.183.09.33.34.398.617.744 1.228c.347.611.79 1.467 1.114 2.336.324.87.529 1.753.625 2.857s.082 2.431.016 4.803c-.067 2.372-.186 5.789-.053 7.586.13 1.757.499 1.965.687 2.676.168-.197.31-.36.44-.479.375-.346.65-.332.875-.177.07.049.138.112.214.185.038-1.529.108-3.217.17-4.709.088-2.092.163-3.8.215-5.347s.08-2.93-.023-4.227c-.103-1.296-.338-2.506-.787-3.691a15 15 0 0 0-1.605-3.057c-.494-.707-.818-.957-.575-1.09s1.053-.146 1.885-.338c.833-.191 1.687-.56 2.541-1.068.855-.508 1.71-1.157 2.645-2.07a26 26 0 0 0 2.783-3.249c.832-1.156 1.482-2.29 1.865-2.923.383-.634.5-.767.596-.59s.17.663.287 1.068c.118.405.28.729.39 1.186.111.456.17 1.045.333 1.634.162.59.426 1.18.558 1.82.133.642.133 1.333.2 2.07.065.736.2 1.517.31 2.577s.195 2.402.205 3.942c.01 1.539-.066 3.277-.146 5.17-.125 2.925-.498 6.027.043 8.93q.199-.218.377-.436a8.7 8.7 0 0 0 1.488-2.711c.31-.891.486-1.762.685-2.182a.8.8 0 0 1 .157-.238 48 48 0 0 1-.297-4.35c-.045-1.76-.031-3.954-.09-5.877-.06-1.922-.193-3.574-.598-5.695s-1.082-4.714-1.476-6.08c-.398-1.366-.504-1.505-.397-1.656s.43-.314.746-.524c.317-.21.627-.467 1.05-.994s.962-1.323 1.485-2.52a22 22 0 0 0 1.293-4.08c.262-1.285.276-2.258.213-2.814s-.203-.696-.332-.994-.247-.755-.424-1.053c-.116-.196-.257-.324-.373-.322z" style="opacity:1;fill:#789bcd;fill-opacity:1;stroke-width:.3;stroke-linecap:round;stroke-linejoin:round" transform="translate(-3899.545 -3797.777)scale(4.04044)"/><path d="M1185.895 1137.117a.43.43 0 0 0-.235.08c-.162.125-.235.39-.346.692s-.258.641-.332.796-.073.126-.632.649c-.56.523-1.68 1.597-2.8 2.392a10.5 10.5 0 0 1-3.491 1.643c-1.253.331-2.636.479-4.543.516s-4.34-.036-6.284-.25-3.403-.568-5.222-.848-4-.486-5.547-.7-2.46-.435-3.514-.818-2.246-.928-3.535-1.48-2.674-1.112-3.8-1.414v-.02c-.085-.123-1.174-.281-1.712-.34-.323-.036-2.295-.206-1.15 1.072.099.01.193.027.3.064.298.104.704.355 1.126.662s.86.672 1.24.994c.38.323.704.606.959.825.114.098.216.182.281.295.27.16.566.326.899.502 1.26.666 3.04 1.47 4.082 1.902s1.344.493 1.81.543c.466.049 1.096.086 1.596.21.5.126.87.34 1.262.452.39.112.8.121 1.441.064.64-.058 1.512-.183 2.004-.094s.606.391 1.252.584 1.823.28 3.297.27 3.245-.1 4.537-.157 2.104-.077 2.578-.04c.474.036.609.13.799.292.155.133.346.312 1.008.451.137-.01.317-.01.554-.01.866 0 2.503.048 3.666.07 1.164.022 1.855.022 2.614-.191.758-.214 1.583-.641 2.224-1.031s1.1-.745 1.408-1.393c.31-.648.471-1.59 1.024-2.475.552-.883 1.495-1.708 2.033-2.253s.67-.812.707-1.084c.028-.209 0-.42.19-.762-.344-.297-.68-.416-.948-.502-.386-.124-.63-.177-.797-.168z" style="fill:#789bcd;fill-opacity:1;stroke-width:.3;stroke-linecap:round;stroke-linejoin:round" transform="translate(-3899.545 -3797.777)scale(4.04044)"/><path d="M1224.658 1103.705c-.567 0-.966.014-1.217.117-.25.103-.352.296-.529.465s-.427.317-.486.486c-.06.17.073.36.412.5s.884.23 1.621.495 1.663.707 2.813 1.576c1.149.869 2.52 2.165 3.728 3.638 1.208 1.474 2.252 3.123 3.225 4.92a55 55 0 0 1 2.482 5.252 31 31 0 0 1 1.172 3.418l.111.397c.25-.135.542-.291.83-.469a20 20 0 0 0-.25-1.857c-.25-1.452-.69-3.528-1.324-5.34-.633-1.812-1.459-3.36-2.394-4.944-.936-1.583-1.981-3.203-3.02-4.425-1.038-1.223-2.07-2.049-2.924-2.682s-1.533-1.076-2.24-1.305-1.443-.242-2.01-.242" style="opacity:1;fill:#789bcd;fill-opacity:1;stroke-width:.3;stroke-linecap:round;stroke-linejoin:round" transform="translate(-3899.545 -3797.777)scale(4.04044)"/><path d="M1195.57 1111.1c-.202.01-.4.064-.513.209-.151.192-.151.547-.188 1.234-.036.688-.108 1.708-.144 2.219s-.037.51-.057.642a2.2 2.2 0 0 0 0 .727c.06.33.223.729.45 1.318.23.59.524 1.37 1.061 2.541a63 63 0 0 0 2.262 4.412c.943 1.68 2.048 3.477 3.256 5.157 1.208 1.679 2.518 3.241 3.307 4.257.551.712.846 1.156 1.01 1.561.512.073 1.007.18 1.462.336.611.21 1.153.505 1.631.842-.106-.456-.344-.995-.678-1.573-.692-1.199-1.795-2.563-2.832-3.87-1.036-1.308-2.005-2.559-2.75-3.694-.744-1.135-1.265-2.155-1.937-3.488a202 202 0 0 1-2.2-4.47c-.703-1.489-1.285-2.823-1.675-3.677s-.589-1.228-.656-1.681-.01-.986.03-1.475c.037-.49.047-.938-.058-1.193s-.322-.317-.582-.332c-.065 0-.134-.01-.202 0zm66.86-24.649c-.351 0-.713.077-1.045.123-.532.073-.99.073-1.094.156-.104.084.146.252.584.793.437.542 1.062 1.458 2.25 2.698s2.579 2.942 4.318 4.369c1.72 1.817 3.657 3.253 5.707 4.568.311-.038.769.322 2.268 1.395a1 1 0 0 1 .125.09c1.51 1.081 3.93 2.827 6.666 4.691 2.812 1.917 5.96 3.958 8.043 5.031.473.244.878.424 1.254.576q.205.083.394.149c.15.053.298.105.434.145q.195.055.375.094a5 5 0 0 0 .88.129c.142.01.28 0 .415 0q.203-.014.404-.036c1.052-.125 2.136-.479 3.016-1.046s1.558-1.35 1.896-1.97a3 3 0 0 0 .301-.804c.048-.228.061-.414.084-.562.01-.032.011-.06.018-.088.025-.109.064-.184.139-.205.085-.02.215.028.42.17.442.307 1.235 1.056 2.693 2.222a83 83 0 0 0 5.469 4c1.885 1.25 3.53 2.167 5 2.719 1.468.552 2.76.74 4 .625a8 8 0 0 0 1.578-.318c.073-.022.151-.04.222-.062q.401-.135.754-.3.364-.169.66-.36.237-.155.426-.317a4 4 0 0 0 .309-.299q.046-.052.09-.105.069-.081.129-.162.05-.064.094-.13a3.2 3.2 0 0 0 .316-.599c.106-.264.163-.501.201-.703.034-.184.053-.338.08-.457a.8.8 0 0 1 .062-.184q.015-.026.031-.045l.012-.012s.01-.01.012-.01q.063-.046.143.051c.112.14.245.507.525.913.28.405.706.845 2.069 2.26s3.66 3.8 5.48 5.443 3.161 2.541 4.111 2.998c.95.456 1.509.471 2.127.39.62-.08 1.297-.257 1.914-.793.463-.401.893-1.007 1.198-1.595q.147-.286.252-.555c0-.01.01-.013.01-.02q.028-.074.053-.146c.225-.66.236-1.174.27-1.381 0-.012.01-.022.01-.031v-.052c0-.01.01-.02.011-.025h.04c.054.01.154.142.352.353.312.333.875.865 1.328 1.328s.797.861 1.39 1.325c.594.463 1.44.994 2.262 1.53.823.537 1.625 1.078 2.76 1.333s2.604.225 3.713-.113c1.11-.34 1.86-.986 2.328-1.663q.2-.29.336-.59l.033-.073a4.4 4.4 0 0 0 .21-.614q.098-.411.132-.851c.062-.782 0-1.637.012-2.074q0-.163.023-.256c.036-.224.133-.232.348-.207.27.03.73.114 1.771.593 1.042.48 2.667 1.355 4.72 2.375 2.051 1.021 4.531 2.188 6.614 2.625 2.084.438 3.77.146 4.885-.302s1.656-1.052 1.885-1.948q.038-.148.064-.304v-.021c.022-.137.03-.287.04-.434q.025-.345.01-.719a11 11 0 0 0-.159-1.316c-.026-.15-.047-.297-.079-.447a9.6 9.6 0 0 0-.834-2.397 14 14 0 0 0-1.125-1.826c-.63-.88-1.465-1.887-2.363-2.889-.897-1-1.859-1.994-2.738-2.847-1.76-1.709-3.2-2.854-3.918-3.657-.023-.025-.035-.045-.057-.07a4 4 0 0 1-.268-.341c-.032-.045-.068-.093-.096-.137a3 3 0 0 1-.154-.272c-.013-.026-.029-.054-.04-.08-.575.065-.663.185-.679.35-.018.198.07.464.051.644-.018.18-.144.277-.435.328a3.9 3.9 0 0 1-1.133 0c-.387-.055-.703-.173-1.09-.623-.386-.45-.845-1.23-1.154-1.804-.31-.575-.47-.943-.68-1.124-.21-.18-.468-.172-.748-.15s-.582.058-.844-.074c-.26-.132-.482-.434-.832-.537s-.83-.01-1.175-.078c-.347-.07-.559-.305-1.041-.666-.483-.361-1.235-.847-2.245-1.451a37 37 0 0 0-3.83-2.026c-1.554-.7-3.394-1.378-5.257-2.04a180 180 0 0 0-5.739-1.946c-1.989-.633-4.08-1.251-5.664-1.789s-2.659-.994-3.926-1.09c-1.266-.096-2.727.17-4.568-.045-1.841-.213-4.065-.905-6.201-1.443s-4.183-.92-6.268-1.111c-2.084-.192-4.207-.192-6.586-.17s-5.015.066-6.841.096-2.844.043-3.397-.082c-.552-.126-.64-.39-.883-.559s-.642-.243-1.533-.258-2.276.03-3.668.03-2.79-.046-3.652-.046-1.186.045-1.377.17-.25.332-1.385.457c-1.134.125-3.345.169-5.887.176-2.54.01-5.412-.021-7.195-.035-1.782-.015-2.476-.015-2.918-.031s-.634-.048-.73-.064-.096-.017-.315-.277-.657-.782-1.178-.97a1.7 1.7 0 0 0-.61-.091z" style="fill:#789bcd;fill-opacity:1;stroke-width:.3;stroke-linecap:round;stroke-linejoin:round" transform="translate(-3899.545 -3797.777)scale(4.04044)"/><path d="M1284.2 1087.184c.621.803 1.265 1.61 2.056 2.437.943.987 2.092 2.003 3.447 3.314 1.355 1.312 2.917 2.918 4.192 4.391 1.274 1.473 2.262 2.814 3.414 4.387a39 39 0 0 1 3.33 5.459c.446.366 1.115.963 2.129 1.781-.068-.69-.225-1.57-.456-2.426-.395-1.474-1.01-2.88-1.9-4.547a43 43 0 0 0-3.621-5.66c-1.562-2.068-3.52-4.276-5.047-5.912a90 90 0 0 0-3.121-3.185c-.312 0-.632.01-.951.01-1.3 0-2.604-.04-3.473-.045zm26.583 1.902c-.12 0-.236.06-.283.244-.063.245 0 .703.37 1.375.369.672 1.047 1.558 2.067 3.13a106 106 0 0 1 3.569 5.974 92 92 0 0 1 2.79 5.474c.61 1.313.828 1.917 1.276 3.063a116 116 0 0 0 1.653 4.025l.1.225a.6.6 0 0 1 .047-.123q.015-.026.03-.045l.013-.012s.01-.01.012-.01q.063-.046.142.05c.112.14.246.508.526.913.184.267.432.55.972 1.119.074-.596.157-1.367.182-2.103.036-1.073-.048-2.073-.506-3.588s-1.292-3.549-2.225-5.465a63 63 0 0 0-2.77-5.047c-.806-1.328-1.39-2.181-2.222-3.115s-1.914-1.949-2.83-2.912a43 43 0 0 1-2.1-2.407c-.433-.53-.549-.675-.7-.732a.4.4 0 0 0-.12-.025zm21.879 7.656a.3.3 0 0 0-.135.031c-.162.081-.25.318-.058.885s.664 1.465 1.526 3.63c.861 2.166 2.113 5.6 3.248 8.509 1.134 2.91 2.15 5.295 2.828 6.82.698 1.415 1.318 2.843 1.767 4.354q.014.04.025.08c.159.156.317.313.465.464.32.328.586.622.924.93.04-.581-.032-1.459-.234-2.527-.236-1.245-.649-2.749-1.164-4.362a88 88 0 0 0-1.829-5.111 112 112 0 0 0-2.127-5.09c-.67-1.488-1.245-2.638-1.878-3.75-.634-1.112-1.327-2.186-1.813-2.974s-.766-1.29-1.023-1.577c-.194-.215-.375-.312-.522-.312m14.948.635c-.01.129 0 .262 0 .398.073 1.171.72 2.57 1.369 3.985.648 1.414 1.298 2.844 2.189 4.648.891 1.805 2.024 3.984 3.063 6.135 1.038 2.15 1.982 4.272 2.468 5.73.175.526.29.967.367 1.333q.253.101.577.25c.362.166.795.382 1.293.634a10 10 0 0 0 .113-.54 7 7 0 0 0 .088-2.083c-.068-.604-.213-1.146-.666-2.302s-1.214-2.927-2.297-5.213a194 194 0 0 0-3.541-7.075c-1.052-1.984-1.752-3.15-2.375-4.441l-.117-.246a33 33 0 0 0-2.535-1.213z" style="fill:#5475a5;fill-opacity:1;stroke-width:.3;stroke-linecap:round;stroke-linejoin:round" transform="translate(-3899.545 -3797.777)scale(4.04044)"/><path d="M1146.625 1141.893c.102.144.144.326.07.648-.12.526-.547 1.421-1.068 2.666a121 121 0 0 0-1.782 4.59c-.646 1.75-1.321 3.655-2.16 5.635-.838 1.979-1.838 4.031-2.765 5.505-.928 1.474-1.782 2.37-2.413 2.838-.63.47-1.037.51-1.537.54-.5.028-1.093.042-1.431-.015-.339-.056-.422-.187-.656-.632-.235-.446-.621-1.205-1.147-1.887s-1.193-1.286-2.031-1.61c-.839-.323-1.848-.365-2.838-.255s-1.958.37-3.182.88a32 32 0 0 0-3.699 1.864c-.995.594-1.504 1.02-1.676 1.531s-.01 1.104.291 1.625c.297.521.724.97 1.291 1.193.568.225 1.277.225 1.71.303.432.078.587.234.9.526.312.291.782.719 1.074 1.177s.405.948.619 1.657c.214.708.525 1.634.894 2.203.37.568.797.778 1.131.978.335.2.578.391.75.563.173.17.272.323.282.404s-.08.092-.282.102-.517.016-.93.28c-.412.266-.92.79-1.404 1.35-.483.561-.941 1.16-1.042 1.748-.102.59.152 1.167.392 1.547s.464.564.818.63c.355.064.839.011 1.149-.085s.445-.238.58-.334.272-.146.379-.181c.107-.03.185-.048.217.01s.016.189-.168.373-.537.42-.891.726a6.6 6.6 0 0 0-.935.99c-.228.31-.333.553-.211.94.121.387.468.916.955 1.273.486.358 1.112.547 1.838.547.725 0 1.55-.174 2.113-.31s.865-.232 1.215-.055.749.626 1.187 1.002a7.6 7.6 0 0 0 1.352.91c.434.232.824.393 1.347.459.523.067 1.179.038 1.768-.014.59-.051 1.113-.125 1.488-.15.376-.027.604 0 .895.19.29.196.644.565 1.13.749.487.184 1.104.184 1.59.22.487.038.84.11 1.26.376.42.265.907.722 1.621.884.715.162 1.658.03 2.512-.287s1.62-.819 2.525-1.254c.906-.434 1.952-.801 2.866-1.074.913-.272 1.694-.45 2.445-.818s1.474-.928 2.719-2.246 3.013-3.397 4-4.81c.987-1.415 1.193-2.165 1.605-3.712.413-1.547 1.031-3.89 1.643-6.04.611-2.152 1.216-4.11 1.717-5.82.5-1.708.898-3.167 1.34-4.714.441-1.547.926-3.18 1.335-4.326.41-1.145.742-1.802 1.221-2.69s1.105-2.006 1.48-2.75c.376-.744.501-1.111.612-1.314.08-.147.155-.206.516-.227-.662-.14-.853-.318-1.008-.45-.19-.163-.325-.257-.8-.294-.473-.036-1.286-.016-2.577.041-1.292.057-3.064.151-4.537.156-1.474.01-2.652-.077-3.297-.269-.646-.193-.76-.496-1.252-.584-.493-.089-1.364.036-2.004.094-.64.057-1.051.048-1.442-.064-.39-.112-.761-.326-1.261-.451s-1.13-.162-1.596-.211c-.466-.05-.769-.11-1.81-.543-1.042-.432-2.822-1.236-4.083-1.902a22 22 0 0 1-.898-.502q-.014-.023-.029-.043m90.748-16.516c-.325.23-.682.552-1.014.828-.587.348-1.344.716-1.845 1.22-.501.505-.746 1.148-1.192 1.7s-1.093 1.015-1.7 1.428c-.609.412-1.176.774-1.485 1.017s-.36.369-.309.487c.052.117.206.227.379.293s.365.089.549-.01c.184-.1.36-.321.603-.454a1.36 1.36 0 0 1 .768-.148c.214.03.332.133.258.428-.074.294-.339.78-.707 1.406-.369.626-.842 1.393-1.703 2.211s-2.113 1.687-3.579 2.291c-1.465.604-3.146.941-4.656 1.037s-2.85-.05-3.646-.36c-.796-.309-1.045-.78-1.332-1.038s-.612-.302-.973-.42c-.36-.118-.759-.31-1.289-.479-.53-.17-1.192-.318-1.818-.502s-1.217-.404-2.043-.566a11 11 0 0 0-1.909-.203 5 5 0 0 1 .38 1.012c-.01-.01-.017-.01-.025-.015.758.529 1.36 1.158 1.834 1.71.771.895 1.208 1.582 1.541 2.072.334.49.562.78.979 1.26a26 26 0 0 0 1.855 1.927c.834.782 1.896 1.677 3.36 3.328 1.463 1.652 3.327 4.057 4.494 5.51s1.635 1.955 1.885 2.606.282 1.453.209 2.14-.251 1.26-.764 1.932-1.362 1.443-1.617 1.904.083.611.304.752c.222.14.327.272.254.342s-.324.08-.636.205c-.313.125-.687.365-.87.63-.182.266-.171.557-.218.868s-.151.64-.453.787-.802.11-1.366.258c-.563.147-1.19.48-1.761 1.006s-1.087 1.249-1.381 2.486-.369 2.99-.262 4.301.395 2.18.951 3.27a23.6 23.6 0 0 0 2.098 3.337c.323.422.625.767.905 1.047.464.466 1.424.941 2.066 1.089 1.794.413 3.676.303 3.81-1.815 0-.424-.045-.748-.203-1.135s-.43-.836-.607-1.281c-.177-.446-.258-.888-.217-1.256.04-.369.202-.664.662-.815s1.218-.158 1.664-.213.58-.159.672-.332.143-.416.275-.457c.133-.04.346.123.637.282s.66.313.906.379c.247.066.372.044.77-.066a19.3 19.3 0 0 0 3.95-1.565c.559-.306.852-.541 1.132-.615s.547.015.613.174-.067.386-.307.582-.587.356-1.2 1.015c-.614.66-1.495 1.815-2.11 2.72-.615.903-.962 1.555-1.317 1.87-.354.315-.714.295-1.097.397-.383.101-.79.324-1.211.699s-.859.902-1.057 1.568c-.198.667-.156 1.474 0 2.04.156.564.427.888 1.041 1.091.615.204 1.573.286 2.297.213s1.214-.301 1.71-.549c.494-.247.993-.514 1.282-.738s.368-.405.53-.606c.161-.2.405-.419.923-.78.519-.363 1.311-.869 1.99-1.358.68-.49 1.248-.964 1.73-1.49.481-.527.877-1.103 1.132-1.348s.371-.158.45.2c.078.356.12.98.12 1.444s-.033.767-.088.918-.128.15-.427.371c-.3.222-.826.664-1.22 1.063-.392.398-.653.753-.773 1.201s-.1.99.066 1.37c.167.38.481.599.95.755s1.093.25 1.978.094c.886-.156 2.03-.562 2.776-.853.744-.292 1.088-.47 1.375-.704s.516-.527.652-.73c.135-.203.177-.317.344-.51s.457-.463.832-.885.834-.995 1.256-2.38c.421-1.386.807-3.584 1.03-5.188.225-1.604.287-2.614.454-3.338s.437-1.161.853-1.453c.417-.291.981-.438 1.856-.896.875-.459 2.061-1.23 3.02-2.235.958-1.005 1.688-2.244 2.232-3.355.544-1.112.902-2.095 1.258-3.272s.71-2.547.65-3.777-.53-2.32-.736-3.086c-.207-.766-.147-1.209.103-1.687.25-.48.692-.995.987-1.518.294-.523.441-1.053.191-1.967-.25-.913-.899-2.21-1.805-3.181-.906-.973-2.07-1.621-3.056-2.167s-1.798-.986-2.807-1.738c-1.009-.751-2.216-1.812-3.777-3.027-1.562-1.215-3.478-2.584-5.076-3.836-1.599-1.252-2.88-2.387-4.067-3.664-1.186-1.277-2.276-2.695-2.8-3.488-.39-.59-.469-.833-.321-1.022zm-29.117 10.672q.083.041.164.084-.081-.043-.164-.084" style="fill:#8c7a75;fill-opacity:1;stroke-width:.3;stroke-linecap:round;stroke-linejoin:round" transform="translate(-3899.545 -3797.777)scale(4.04044)"/><path d="M1127.61 1159.865c-.248.01-.495.023-.743.051-.99.11-1.957.37-3.181.881a32 32 0 0 0-3.7 1.863c-.995.594-1.504 1.021-1.676 1.532-.171.51-.01 1.104.292 1.625.296.52.723.969 1.29 1.193s1.277.225 1.71.303c.432.078.587.233.9.525s.783.72 1.074 1.178.406.948.62 1.656.524 1.635.894 2.203c.23.355.484.57.723.73.571.227.955.257 1.302.262.677.01 1.22-.074 1.906-.24.688-.167 1.521-.417 2.22-.896.697-.48 1.258-1.188 1.675-1.97a8.4 8.4 0 0 0 .824-2.362c.136-.73.134-1.334-.012-1.834s-.436-.896-.566-1.666a7 7 0 0 1-.084-.885 4 4 0 0 1-.195-.346c-.235-.445-.621-1.204-1.147-1.887-.526-.682-1.193-1.286-2.031-1.609-.63-.242-1.355-.326-2.096-.307zm.984 14.915c-.476.012-.924.06-1.395.114a1 1 0 0 1-.228.027 1.9 1.9 0 0 0-.6.111 2 2 0 0 0-.322.167h-.01c-.01.01-.017.013-.025.02-.222.146-.47.361-.727.619q-.068.075-.137.148-.141.146-.283.297l-.218.25c0 .01-.01.01-.014.016q-.2.228-.383.463s-.01.01-.01.014q-.164.212-.299.427a3 3 0 0 0-.248.493 1.7 1.7 0 0 0-.091.326c0 .01 0 .018-.01.027-.1.587.154 1.162.392 1.541.24.38.465.564.819.629a2.6 2.6 0 0 0 1.129-.08h.022c.296-.095.428-.233.56-.327.072-.051.145-.087.213-.117q.09-.04.166-.064h.02c.107-.03.185-.048.217.01.027.05.019.152-.1.296q-.03.036-.068.076l-.014.016a1 1 0 0 1-.117.102c-.196.164-.478.365-.76.61a6.6 6.6 0 0 0-.936.99c-.227.31-.332.552-.21.94.121.386.468.915.955 1.273s1.112.546 1.837.546c.726 0 1.55-.174 2.114-.31s.865-.232 1.215-.055c.215.109.45.321.7.556.221-.238.319-.594.405-.748.147-.261.266-.615.332-1.068s.083-1.005-.027-1.322-.345-.398-.625-.445c-.28-.048-.605-.063-.734-.137-.13-.074-.061-.206.057-.38.117-.172.287-.387.375-.56s.095-.304.175-.43c.081-.125.237-.242.432-.411.195-.17.431-.391.549-.678s.117-.641.06-1.065c-.055-.423-.165-.917-.4-1.205-.236-.287-.599-.368-.834-.486a.78.78 0 0 1-.412-.445c-.066-.173-.088-.365-.18-.479s-.254-.151-.77-.203a9.4 9.4 0 0 0-1.554-.086z" style="fill:#b8b4c6;fill-opacity:1;stroke-width:.3;stroke-linecap:round;stroke-linejoin:round" transform="translate(-3899.545 -3797.777)scale(4.04044)"/><path d="M1221.371 1164.43a.6.6 0 0 1-.129.084c-.302.146-.801.11-1.365.258-.563.147-1.191.479-1.762 1.005-.57.527-1.086 1.25-1.38 2.487-.295 1.237-.37 2.99-.262 4.3.107 1.312.395 2.18.95 3.27a23.6 23.6 0 0 0 2.099 3.338c.323.421.625.766.904 1.047.464.466 1.424.94 2.066 1.088 1.795.412 3.676.304 3.81-1.815 0-.423-.044-.748-.202-1.135-.159-.386-.431-.835-.608-1.28-.176-.446-.258-.888-.217-1.257s.202-.663.663-.814c.46-.15 1.218-.158 1.664-.213s.58-.16.671-.332c.057-.107.098-.242.153-.338.01-.067.012-.132.018-.195.078-.964.068-1.547-.078-1.969s-.428-.684-1.115-1.387-1.782-1.848-2.5-2.51c-.72-.661-1.063-.839-1.235-1.162s-.171-.79-.228-1.045-.172-.298-.39-.267c-.22.03-.544.136-.731.084-.188-.052-.098-.714-.664-1.027a1.2 1.2 0 0 0-.131-.215z" style="opacity:1;fill:#dad6e6;fill-opacity:1;stroke-width:.3;stroke-linecap:round;stroke-linejoin:round" transform="translate(-3899.545 -3797.777)scale(4.04044)"/><path d="M1230.525 1179.176c-.383.101-.789.324-1.21.699-.422.375-.86.902-1.057 1.568-.198.667-.157 1.474 0 2.04.156.565.426.888 1.04 1.091.615.204 1.574.286 2.298.213s1.214-.301 1.709-.549c.494-.247.994-.514 1.283-.738.119-.092.201-.176.27-.258.512-1.267.553-2.232.337-2.883s-.69-.99-1.181-1.148c-1.181-.25-2.329-.32-3.489-.035m13.301.935c-.378 0-.76.033-1.12.092a5.3 5.3 0 0 0-1.52.483c-.059.039-.135.089-.239.166-.3.221-.825.664-1.219 1.062-.393.399-.653.753-.773 1.201s-.102.99.064 1.37c.167.38.48.6.95.755.468.156 1.092.25 1.978.094s2.03-.561 2.775-.853 1.089-.469 1.375-.703a3.5 3.5 0 0 0 .655-.73l.076-.122c.06-.688 0-1.452-.282-1.933-.317-.542-.916-.726-1.617-.817a8 8 0 0 0-1.103-.064z" style="fill:#dad6e6;fill-opacity:1;stroke-width:.3;stroke-linecap:round;stroke-linejoin:round" transform="translate(-3899.545 -3797.777)scale(4.04044)"/></svg>