<svg xmlns="http://www.w3.org/2000/svg" xmlns:xlink="http://www.w3.org/1999/xlink" width="1716.364" height="1192.727"><defs><linearGradient id="a"><stop offset="0" stop-color="#73635e"/><stop offset=".6" stop-color="#73635e"/><stop offset=".6" stop-color="#789bcd"/><stop offset="1" stop-color="#789bcd"/></linearGradient><linearGradient xlink:href="#a" id="b" x1="989.75" x2="1042.987" y1="1057.936" y2="1049.069" gradientTransform="translate(-3906.046 -3616.716)scale(4.0449)" gradientUnits="userSpaceOnUse"/></defs><path fill="#988985" d="M1090.427 922.968c-.283.41-.435.738-.435.965l-12.671 11.96c-12.203 11.52-15.352 15.812-10.531 14.378 6.015-1.788 6.506-1.365 3.95 3.414-4.4 8.219-12.76 14.96-24.807 19.995-12.03 5.025-31.85 6.007-36.167 1.794-1.537-1.501-10.077-5.221-18.977-8.272-6.548-2.245-11.185-4.394-15.318-7.475a204 204 0 0 0-1.509 3.075c-.23.51-.462 1.024-.679 1.54h3.595c1.786 3.614 1.128 6.393 5.616 10.934h.077l12.704 15.445c6.986 8.493 18.892 22.065 26.457 30.155 17.384 18.59 24.976 27.764 27.723 34.374.258.62.487 1.22.663 1.8.064.211.105.417.158.625.121.466.227.926.3 1.374.04.187.055.369.08.554.072.602.125 1.195.125 1.785 0 3.237-1.111 6.92-2.638 9.14-.369.538-.762.99-1.17 1.327-2.094 1.74-5.655 7.856-7.908 13.596-2.252 5.741-6.059 10.436-8.461 10.436-14.595 0-20.226 26.557-9.978 47.07 6.339 12.69 25.045 23.106 31.649 17.625 3.082-2.557 3.465-5.026 1.382-8.919-4.52-8.444-3.648-18.454 1.438-16.503 2.375.911 5.023.51 5.885-.885s4.012-1.895 7-1.113c2.988.781 10.286-.606 16.211-3.083l10.768-4.495-10.382 13.596c-5.71 7.48-13.006 15.438-16.21 17.681-3.203 2.244-5.823 7.313-5.823 11.267 0 11.76 13.424 9.409 34.714-6.084 15.25-11.097 18.242-12.355 18.242-7.67 0 3.08-1.99 6.368-4.417 7.298-2.426.932-4.417 5.045-4.417 9.142 0 8.315 5.081 9.476 19.42 4.455 12.47-4.367 21.273-19.304 24.262-41.152 1.757-12.853 4.225-19.87 7.717-21.947 21.734-12.92 30.809-29.202 30.906-55.46.04-9.408 1.385-19.578 3.002-22.601 3.076-5.746 1.604-12.079-4.234-18.85v-.065a42 42 0 0 0-1.06-1.177c-3.202-3.426-7.52-6.961-12.939-10.595-36.063-24.18-67.34-50.31-73.29-61.234-.83-1.523-.859-3.172.331-5.53-4.638-4.947-7.915-9.012-9.401-11.74-.137-.25.086-.734.578-1.39-.508-.187-1.02-.372-1.526-.56z"/><path fill="#8c7a75" d="M735.091 1003.006c-.092 0-.201.044-.29.165l-.041.041v.041l-12.205 29.547c-16.309 39.462-21.27 48.946-28.757 54.984-.126.102-.226.162-.348.26-8.139 6.479-11.442 6.16-20.595-2.797l-.223-.207a105 105 0 0 0-4.424-3.895c-1.2-.993-2.224-1.79-2.9-2.227q-.132-.087-.266-.165c-.04 0-.057-.042-.088-.057-4.051-2.322-8.36-3.262-13.313-2.774-4.799.473-10.266 2.358-16.71 5.523-.29.142-.527.218-.82.363a74 74 0 0 0-4.661 2.56c-.215.13-.455.26-.664.39-4.638 2.848-7.7 5.658-9.164 8.491-.451.87-.75 1.69-.885 2.466a5.44 5.44 0 0 0 .608 3.27q.006 0 0 0v.04c1.07 1.683 3.29 3.171 6.865 4.93l.239.118q.196.074.396.142c5.746 2.004 10.904 7.177 14.821 14.852.092.183.19.36.283.545.43.831.888 1.502 1.334 2.307 1.893 3.327 4.433 7.3 5.783 8.975.336.417.657.836.949 1.233q.424.425.742.624c.588.363.808.93.687 1.651.003 0 0 0 0 .04 0 .113-.06.312-.173.562-.547 1.482-2.247 3.443-4.899 5.53l-.396.307c-3.241 2.748-5.328 5.358-6.195 7.726-.891 2.441-.42 4.668 1.447 6.313.678.596 2.263 1.563 3.808 2.361.088.041.177.068.266.101 4.227 1.564 5.22 3.078 2.947 4.489-.04.04-.072.077-.109.116-2.054 2.123-3.263 4.943-3.263 7.648 0 1.132.06 2.039.356 2.796.04.077.06.15.097.223 0 0 0 .044.04.066.044.088.097.168.15.25.316.503.78.907 1.415 1.216 1.299.633 3.299.935 6.517 1.178a80 80 0 0 0 3.287.056c6.552 0 15.912 2.063 20.801 4.59q.441.227.9.45c2.04.974 4.348 1.82 6.582 2.45 2.284.593 4.674.9 8.073 1.13 4.757-.352 11.75.737 17.53 2.283 1.187.31 2.28.65 3.303 1.018 3.006 1.023 5.496 2.107 6.146 3.16.082.13.165.26.251.38.894.765 1.532 1.234 2.213 1.518.727.304 1.473.372 2.543.372 1.905 0 5.179-.802 9.235-2.094 3.145-1.002 6.743-2.3 10.46-3.76a467 467 0 0 0 6.889-2.829c8.427-3.616 16.41-7.613 20.154-10.467 2.807-2.139 5.916-5.286 9.116-9.046.427-.513.897-1.11 1.335-1.659 2.564-3.138 5.151-6.843 7.703-10.69 1.387-2.096 2.93-4.199 4.108-6.193q.653-1.106 1.249-2.164c2.252-4.067 3.559-7.53 5.317-14.055.675-2.506 1.419-5.468 2.306-9.085 4.327-17.636 8.8-33.94 14.498-52.82 5.242-17.378 8.834-27.582 11.81-33.671.081-.15.36-1.308.435-1.438 1.539-2.644 2.847-4.524 4.487-5.925l.04-.04.458-.514a.327.327 0 0 0-.247-.546h-8.532c-18.453 0-44.41-2.903-57.094-6.358-9.886-2.694-16.096-5.46-23.471-10.46-2.499-1.694-4.964-3.246-6.843-4.33a33 33 0 0 0-2.314-1.24 5 5 0 0 0-.727-.292.8.8 0 0 0-.275-.056h-.089z"/><path fill="#a2bee6" d="M320.301 372.31c-4.91 0-55.883 28.272-86.413 47.93-57.025 36.719-87.587 59.47-130.328 96.998-35.78 31.418-47.078 51.013-47.078 81.65 0 23.827 2.351 31.012 14.813 45.206 8.815 10.04 10.317 10.62 27.405 10.618 9.945-.001 42.907-5.09 73.243-11.306 51.454-10.541 55.16-10.932 55.16-5.878 0 2.957-.392 5.382-.861 5.42-.475 0-23.317 4.628-50.752 10.286-27.434 5.659-54.104 10.297-59.267 10.301-14.994 0-13.954 4.863 2.733 12.728 26.094 12.3 38.817 14.325 85.907 13.668 30.276-.424 48.868.65 58.73 3.405 14.298 3.994 14.472 4.195 19.331 21.686 6.173 22.213 21.598 52.685 29.46 58.192 3.296 2.308 11.243 16.473 17.658 31.482 12.376 28.954 32.15 57.568 43.301 62.649 7.808 3.556 7.948 4.235 3.05 14.615-3.908 8.278-9.827 10.931-24.563 10.997-10.255.044-33.536 15.264-33.536 21.923 0 2.308-7.336 18.444-16.306 35.859-15.85 30.772-18.57 41.972-10.815 44.526 2.07.682 8.546-3.847 14.394-10.066 6.605-7.022 9.818-9.073 8.484-5.42-1.179 3.237-2.862 10.187-3.744 15.446-1.376 8.198-.745 9.559 4.424 9.559 3.716 0 8.465-3.954 12.388-10.302 3.5-5.663 7.315-10.293 8.476-10.293 1.16 0 3.759 4.566 5.776 10.143 2.066 5.715 6.396 11.008 9.922 12.127 3.443 1.092 8.929 4.467 12.19 7.505 3.743 3.486 10.254 5.53 17.649 5.53 6.444 0 13.807 1.792 16.362 3.99 6.469 5.565 22.845 10.712 34.089 10.712 9.738 0 28.38-10.508 37.494-21.14 4.482-5.228 6.26-5.577 13.43-2.607 15.018 6.22 39.582-8.183 48.791-28.607 3.897-8.641 7.497-12.19 13.582-13.407 4.552-.91 12.93-5.739 18.62-10.735l10.35-9.086 17.103 8.54c37.47 18.712 73.693 28.28 117.278 30.977 5.059.311 13.797 4.525 20.02 9.655 17.475 14.403 44.007 20.501 101.604 23.344 37.77 1.863 48.275-.71 52.844-12.949 1.604-4.297 9.426-15.036 17.38-23.867l14.466-16.06 15.39 3.555c8.467 1.954 23.784 3.555 34.026 3.555h15.026c.218-.517.449-1.03.68-1.541q.74-1.542 1.507-3.073c4.134 3.08 8.772 5.23 15.319 7.474 8.9 3.05 17.44 6.77 18.977 8.271 4.316 4.214 24.138 3.232 36.167-1.793 12.049-5.035 20.407-11.776 24.807-19.995 2.557-4.78 2.065-5.202-3.95-3.413-4.821 1.433-1.673-2.859 10.53-14.379l12.672-11.96c0-.227.154-.554.434-.965q.762.285 1.525.562a6 6 0 0 0-.275.404c2.82-4.397 22.455-19.506 23.195-20.264 23.58-23.107 42.621-37.202 71.188-52.686 15.21-8.245 30.448-17.95 46.462-29.587 6.243-4.536 7.492-4.012 31.008 12.964 29.092 21.003 50.633 32.889 59.607 32.889 7.967 0 22.025-10.573 22.025-16.566 0-2.623 1.393-3.514 3.484-2.22 8.61 5.321-24.232-36.412-44.28-56.266-20.854-20.652-21.736-22.025-14.118-22.025 14.871 0 55.613 48.487 64.071 76.253 5.011 16.451 42.213 41.19 62.182 41.348 11.955.098 20.905-10.119 18.668-21.298-1.618-8.091-24.186-52.207-40.235-78.654-1.836-3.025-2.737-4.796-2.52-5.152h.04c.689-.185 4.57 3.55 12.595 11.85 18.762 19.414 37.16 54.49 38.583 73.56.817 10.946 3.163 14.504 20.366 30.802 14.733 13.957 21.533 18.423 28.04 18.423 9.252 0 17.83-6.551 17.83-13.62 0-2.406 1.264-3.594 2.812-2.637 1.547.955-1.218-7.906-6.154-19.688-4.937-11.783-11.374-28.037-14.3-36.128-2.926-8.089-7.476-20.001-10.112-26.473-2.423-5.946-3.49-8.782-3.239-9.196.328-.053 1.37 1.16 3.129 3.342 11.757 14.573 32.503 63.146 37.99 88.948 2.269 10.665 13.927 20.45 27.613 23.187 7.03 1.406 10.445.206 16.425-5.775 4.15-4.152 7.552-10.146 7.552-13.32 0-3.175 1.516-6.277 3.373-6.897 2.101-.7-3.948-16.632-16.013-42.163-10.668-22.572-18.065-41.51-16.433-42.084 1.631-.573 4.897 1.416 7.252 4.416 7.474 9.522 30.24 57.86 34.034 72.263 3.345 12.696 4.902 14.403 18.518 20.311 18.335 7.957 41.084 10.634 47.205 5.554 11.474-9.524 1.028-32.696-26.245-58.209-10.634-9.947-19.331-19.377-19.331-20.96 0-1.58-7.515-10.987-16.695-20.902-15.621-16.875-39.202-32.32-49.344-32.32-2.45 0-20.692-8.514-40.544-18.92-26.58-13.935-43.07-20.478-62.569-24.84l-39.714-8.91c-7.281-1.642-38.272-9.602-68.866-17.689s-73.618-17.553-95.608-21.038c-21.99-3.486-57.847-10.11-79.689-14.71-47.983-10.108-132.34-22.455-170.62-24.973-15.372-1.01-59.725-6.969-98.556-13.24-91.13-14.72-112.217-17.227-160.319-19.04-74.268-2.8-118.252-7.502-128.701-13.77-5.258-3.154-9.567-7.777-9.567-10.27 0-3.695.818-3.855 4.416-.87 2.427 2.015 4.417 3.008 4.417 2.205 0-5.56-10.347-28.581-20.154-44.841-11.662-19.335-32.802-68.468-32.802-76.238 0-3.508 1.992-3.507 13.706.041 7.539 2.268 15.15 4.124 16.915 4.116 4.6-.04-9.82-11.625-46.002-37.02-33.617-23.597-40.279-29.856-28.473-26.75 8.169 2.15 37.97-.778 37.97-3.73 0-2.486-23.261-8.208-42.654-10.49-33.852-3.987-70.801-11.157-73.544-14.268-1.618-1.837-7.907-3.404-13.975-3.484a80405 80405 0 0 0-60.167-.736l-49.132-.592 11.488-11.763c5.923-6.068 9.989-11.11 9.511-11.716a.22.22 0 0 0-.15-.048zm6.075 54.448c16.955 5.035 23.215 12.76 31.83 39.295 5.013 15.438 4.985 16.287-1.225 35.567-5.076 15.762-9.291 22.532-20.864 33.489-19.682 18.634-52.854 29.155-74.073 23.495-2.623-.7-9.244-6.838-14.71-13.636-9.58-11.916 13.978 10.497 14.129-13.61.19-30.434-13.808-72.135 3.803-88.046 13.106-11.84 31.845-15.575 44.77-16.298m-204.28 114.51c4.867.069 7.11 5.203 5.459 14-3.154 16.816-16.588 30.433-23.353 23.668-6.11-6.11 2.204-30.645 12.198-35.993 2.158-1.156 4.074-1.698 5.697-1.675m991.3 394.133v.109zm0 .181c0 .041 0 .073.04.102 0-.04-.04-.065-.04-.102m3.555 5.151c1.587 1.98 3.575 4.236 5.9 6.716-2.324-2.478-4.314-4.736-5.9-6.716"/><path fill="#988985" fill-rule="evenodd" d="M321.249 909.539c-1.844 2.024-2.955 3.886-2.955 5.339 0 .837-.96 3.49-2.614 7.356l11.724-8.367s-2.992-2.73-6.154-4.328" opacity=".822"/><path fill="#5475a5" d="M1394 787.891c-1.683-.072.113 4.376 7.725 15.69 17.073 25.37 41.19 75.555 38.447 83.232 4.51 3.527 11.103 3.735 12.116 3.735-1.205-2.448-1.272-4.775-1.272-7.097 0-12.572-10.557-39.966-21.798-56.557-12.435-18.356-31.65-38.844-35.219-38.995zm89.492 31.04c-.654 0-.4 1.58 1.13 5.16 1.325 3.096 6.073 15.682 10.555 27.966 4.48 12.284 12.254 31.399 17.277 42.48 3.402 7.503 4.248 13.629 5.198 16.466.41.04.822.336.982 1.125 1.979 3.162 5.818 4.035 9.077 5.532.077.04.15.072.231.11-1.255-3.088-2.369-7.187-3.872-13.037-6.928-26.975-12.997-42.557-24.83-63.715-7.047-12.601-14.137-22.099-15.745-22.089zm60.65 3.642c-.166 0-.291.049-.364.126-.565.623 7.973 20.314 18.976 43.76 9.357 19.935 16.852 38.028 17.906 43.608 1.588 0 .935 5.02 14.738 5.643-.234-.002-3.423-5.346-4.172-10.931-2.203-16.433-30.117-72.466-38.995-78.283-3.587-2.352-6.949-3.937-8.114-3.88zm-251.943-42.97c-4.076.344.05 6.96 18.367 25.47l-.068.042c11.787 11.912 26.23 28.45 32.098 36.751 0 0 12.87 17.863 12.894 17.9h.041c1.811 2.112 5.284 1.411 6.012 1.264.174-.312-4.25-11.849-7.31-18.398-17.005-36.973-49.64-64.392-61.533-62.925h-.042a8 8 0 0 0-.389 0z"/><path fill="#7698ca" d="M732.295 997.096v2.71c2.138 1.135 4.1 2.515 6.344 4.282 9.207 7.25 14.7 10.33 24.31 13.635 12.652 4.352 29.315 6.35 50.055 7.775 20.089 1.38 60.732-.844 62.704-1.786.801-.38 5.344-2.198 8.058-9.022 7.188-18.075 1.285-15.962-5.894-3.555-6.2 10.716-19.055 8.373-34.113 7.426-11.678-.734-31.53 0-42.914-1.825-18.902-3.032-31.42-6.37-50.617-13.493-7.016-2.605-12.72-4.591-17.933-6.147"/><path fill="url(#b)" d="m313.223 625.194-5.547.19c-6.86.24-15.853 1.01-45.757 3.95-39.004 3.826-62.988 8.562-89.976 14.07-30.336 6.216-63.298 11.304-73.243 11.306-8.972 0-13.647-.158-17.34-1.761 5.345 3.208 10.294 7.026 16.03 9.574 4.158 2.086 8.676 5.293 8.8 5.483-1.912-2.863 1.409-4.472 10.033-4.472 5.163 0 31.736-5.135 59.267-10.3 25.525-4.792 50.84-11.514 76.427-13.812 17.564-1.58 35.283-3.994 49.337-7.506 6.77-1.692 10.474-2.25 10.981-3.793z"/><path fill="#fff" d="M323.718 416.457c-17.474-.05-25.582 7.299-7.633 13.035 13.003 4.157-51.319 33.356-43.73 56.965 5.511 17.147 76.526 2.63 64.647 27.716-7.666 16.193-18.895 1.974-42.128 8.761-23.438 6.846-33.494 31.023-46.368 18.544-6.095-14.332-12.032-7.855-3.697 9.74 9.291 18.214 30.032 46.078 56.745 59.503 28.928 14.54 39.027 14.373 60.08-.979 7.713-5.623 22.633-14.497 33.15-19.719 37.163-18.451 47.987-35.067 48.025-73.725.04-27.746-6.909-47.987-22.934-66.937-15.338-18.136-61.827-32.812-96.158-32.905"/><path d="M301.553 426.12c-4.005.19-7.68.069-10.625.836-9.896 2.584-21.126 11.561-30.39 20.933-3.39 3.431-6.714 8.206-7.903 10.218-11.117 18.812-16.811 51.535-11.77 67.682 2.716 8.702 7.979 17.475 14.244 23.763 3.988 4.005 7.305 5.955 12.506 7.354 6.435 1.734 12.629.952 27.958-3.53 31.522-9.218 47.294-22.788 57.68-52.078 3.94-11.12 5.482-17.681 4.362-23.87-1.178-6.503-7.079-23.503-9.913-29.145-2.75-5.475-5.228-7.926-8.521-10.872-7.244-6.479-27.04-11.793-37.628-11.292m28.797 38.443c1.395-.423 2.861-.353 4.905.072 10.549 2.182 15.43 16.502 8.762 25.708-2.111 2.915-4.56 4.392-9.394 5.68-6.844 1.823-14.901.71-16.503-2.283-3.29-6.147.802-20.006 7.758-26.261 1.75-1.574 3.077-2.493 4.472-2.915z"/><path fill="#3c3431" d="M104.65 540.694c-2.762.21-5.37 1.996-8.288 4.915-4.755 4.753-8.22 12.12-9.891 18.905-.836 3.392-1.217 6.63-.98 9.417.238 2.785 1.098 5.32 3.263 6.66 1.46.903 3.208 1.05 4.803.655 1.596-.392 3.11-1.258 4.583-2.41 2.945-2.302 5.769-5.812 8.176-9.788s4.373-8.408 5.42-12.6 1.27-8.206-.41-11.345c-.752-1.403-1.641-2.54-2.774-3.334a6.02 6.02 0 0 0-3.903-1.075"/><path fill="#988985" d="M157.525 472.824c-17.874 13.556-34.683 27.483-53.965 44.415-35.78 31.416-47.078 51.011-47.078 81.649 0 23.826 2.351 31.011 14.813 45.205 8.815 10.04 10.317 10.62 27.405 10.617 9.945 0 42.902-5.108 73.243-11.306 38.711-7.906 53.563-9.63 53.448-9.677 0 0-5.035-18.773-9.135-26.923-4.963-9.862-9.19-15.627-19.798-27.011-22.69-24.35-33.272-44.541-36.666-69.988-1.714-12.836-4.564-27.802-2.267-36.981m-51.77 68.7c4.867.069 7.11 5.203 5.459 14-3.154 16.816-16.588 30.433-23.353 23.668-6.11-6.11 2.204-30.645 12.198-35.993 2.158-1.156 4.074-1.698 5.697-1.675m10.45 122.01c-14.993 0-13.954 4.862 2.734 12.728 26.094 12.3 38.817 14.325 85.906 13.667 15.895-.223 28.569-.04 38.45.6-7.22-8.916-16.4-47.657-16.4-47.657-37.023 6.51-73.528 14.74-110.69 20.663"/><path fill="#789bcd" d="M1199.71 776.625v.04l-.066.042-.072.056c-4.02.101-5.98 1.662-5.98 4.708 0 2.262 27.943 31.186 39.201 40.576 1.243 1.036 7.38 6.23 8.002 5.99l-.097 1.233c-.04.688-.04 1.021.08 1.145l.041.056h.041c.055 0 .126-.056.19-.08 2.32-.892 4.25-.635 7.553.98 3.106 1.516 7.303 4.328 19.466 13.026 27.133 19.406 45.433 30.113 56.51 33.086 2.304.617 5.3.683 7.41.15 3.497-.88 9.321-4.22 13.107-7.513 2.985-2.596 5.514-6.32 5.514-8.153 0-1.227.49-2.631 1.003-2.907.754-.405 1.828-.297 2.758.275.106.06.215.117.315.165.04-.117.105-.194.207-.214.133-.04.308.056.441.283v.04s.041.04.041.05h.041c1.024-1.246-11.183-17.532-24.838-33.624-2.74-3.325-5.71-6.772-8.705-10.002l-.166-.182q-.856-.957-1.707-1.888c-.872-.96-2.544-2.723-4.629-4.891-20.24-21.496-23.426-23.246-22.603-25.39 1.176-3.063 6.295-2.922 12.403 1.208 3.243 2.192 8.59 6.611 14.79 12.412 6.73 6.783 13.86 15.094 19.964 23.479 9 12.363 15.4 23.649 19.441 34.303.835 2.197 1.587 4 2.395 5.6.177 0 .311.19.237.451 1.85 3.538 4.045 6.17 8.138 10.262 12.518 12.894 33.839 25.406 47.311 26.96 8.052.93 13.6-.206 19.07-5.602 3.759-3.707 4.736-7.388 4.428-8.78-1.053-4.756-1.708-11.53-11.109-30.59-9.005-18.254-27.513-52.356-31.08-57.506-.434-1.104-.679-1.88-.679-2.204 0-.218 0-.415.05-.592.896.897 2.214 2.116 3.91 3.72 7.486 7.09 18.732 19.506 25.478 29.879 12.584 19.35 20.147 38.266 21.828 53.216.469 4.165 1.203 7.359 2.947 10.65.612 1.132 7.207 9.898 16.489 18.508 11.884 11.023 17.58 16.021 23.296 18.12 3.67 1.35 8.93 1.802 13.475-.039 5.444-2.076 10.141-7.759 10.021-12.433-.04-1.52 1.819-3.019 2.813-2.639 1.82.698-.99-6.09-10.776-30.386-4.032-10.01-9.448-24.817-12.459-32.849s-9.3-24.382-9.394-24.104v.067c-.307-1.536-.396-2.669-.307-3.438 11.207 14.63 31.922 58.749 39.454 87.265 1.176 4.452 1.365 6.448 2.621 9.367.381.885 1.483 2.561 1.483 2.561s1.277 1.784 2.117 2.825c5.193 6.437 15.12 11.697 23.695 12.954 6.213.91 9.879-.616 14.917-6.044 5.181-5.581 7.345-8.443 7.786-15.499.057-.877.787-2.6 1.622-3.592.372-.514.98-.755 1.518-1.126.247-.129-5.053-17.798-16.006-41.579-8.378-18.19-13.362-28.909-15.17-36.286a53 53 0 0 0-1.863-5.964c1.204-2.183 10.277 6.977 12.088 10.016 9.512 15.966 26.711 52.098 30.28 66.914 1.2 4.976 3.132 9.756 5.41 12.543s4.899 3.583 8.706 5.356c8.608 4.007 18.485 7.065 30.639 9.225.695.132 5.678.73 9.71.657 8.253-.146 9.764-1.195 12.283-4.064 2.49-2.836 3.406-5.927 3.086-10.467-.853-12.116-11.916-27.973-31.835-46.852-9.615-9.112-16.995-17.191-18.684-20.643-2.462-5.034-14.443-19.272-23.195-27.919-7.526-7.438-19.991-15.844-22.508-16.954-7.313-3.225-20.6-7.1-22.697-6.4-.085.041-.137.067-.166.11v.106c.041.525 2.571 1.755 6.289 2.962 7.09 2.3 13.52 5.435 19.917 9.796q.867.558 1.698 1.122c2.09 1.417 4.532 3.385 7.134 5.688q2.647 2.278 5.174 4.684c.227.215.456.439.68.657a366 366 0 0 0 5.19 5.332c1.253 1.35 2.466 2.704 3.673 4.045 4.75 5.273 8.913 10.286 10.974 13.644 1.56 2.423 2.261 4.122 1.706 4.676-.447.447-1.456 0-2.67-1.09-.863-.553-1.805-1.4-2.615-2.402-1.48-1.827-8.977-6.345-18.613-11.526-2.817-1.288-6.017-2.958-9.085-4.755-10.984-5.612-23.02-11.279-31.742-14.734-29.97-11.871-65.957-22.208-82.313-23.638-2.865-.251-7.323-1.097-11.439-1.69-1.182-.162-2.098-.283-3.311-.474-3.713-.576-7.145-.913-10.199-1.518-5.396-1.067-20.765-2.305-29.617-3.42-18.909-2.306-37.655-3.734-60.413-5.104-1.131-.88-4.685-.877-9.165-.49-22.033-1.01-46.3-1.613-79.562-.388-28.32 1.05-34.303.916-42.155-.963h-.057c-.324-.078-.639-.114-.972-.199-3.914-.988-7.068-1.45-9.481-1.39zm150.601 79.255c.102 0 .232 0 .373.094.299.165.62.295.94.418.38.133.757.28 1.145.389.219.053.441.113.656.181.616.203.407.826-.215.624a9 9 0 0 0-.624-.173c-.405-.114-.804-.264-1.2-.404a7 7 0 0 1-1.051-.474c-.423-.248-.332-.614-.042-.65zm-300.752-7.031c-10.392 0-11.955 4.865-2.188 6.818 4.539.908 13.757 7.154 20.485 13.882 12.034 12.033 34.342 60.388 34.342 60.388l2.419-2.144s-1.757-5.806-3.69-13.49c-7.603-30.237-35.24-65.454-51.367-65.454zm-119.143 31.017c-1.446.056-3.096 3.874-3.096 9.716 0 10.424 19.606 50.822 33.401 68.827 5.9 7.699 11.064 16.953 11.064 16.953s8.29.349 10.796 0c0 0-6.297-7.706-12.325-15.769-12.709-16.997-37.082-65.197-37.802-74.751-.264-3.502-1.112-5.015-2.039-4.977zm-354.134 60.808c3.468-10.32 12.203-29.715 12.97-44.443.348-6.646.978-12.223 1.498-13.227.495-.955 2.451-3.115 4.348-4.8 5.952-5.287 13.475-19.087 14.624-26.825.556-3.746 1.927-5.674 3.581-5.039 2.936 1.126 1.62 8.674-3.644 20.897-5.063 11.755-4.945 16.272.496 19.085 1.797.93 2.338.922 4.72-.072 1.479-.617 4.154-2.36 5.944-3.869 5.378-4.535 11.555-8.62 13.032-8.62 1.136 0 1.304.335.925 1.847-1.327 5.286-6.887 10.839-13.277 13.255-5.654 2.14-10.762 2.664-18.035 1.852-8.687-.969-8.485-1.236-9.22 12.14-.934 17.025-12.373 40.926-18.187 45.36-1.405 1.073-2.208.397-2.208.397s.904-3.386 2.433-7.94z"/><path fill="#789bcd" d="M417.52 782.796c-1.679.096-2.148 5.477-2.148 20.011 0 25.274-2.63 32.41-21.078 57.142-10.146 13.601-10.751 16.483-14.589 12.768l-7.145 14.868c3.495-1.966 12.619-3.575 17.76-9.346 6.5-7.299 16.45-20.505 22.113-29.35 9.49-14.823 10.293-17.867 10.293-38.805 0-14.254-1.366-24.09-3.674-26.396-.596-.597-1.104-.917-1.532-.891m-4.345-101.108c-2.435 0-9.3 3.045-25.375 10.357-30.413 13.834-49.209 15.344-87.02 7.016-15.295-3.37-24.878-.83-24.878-.83l3.087 4.408 25.18 5.696c34.415 8.197 56.743 6.22 85.409-7.568 12.202-5.87 22.955-12.682 23.897-15.137.958-2.496 1.366-3.935-.299-3.942zm127.383 143.618-.065.04c-1.283.04-2.799 4.183-5.886 14.378-5.462 18.043-13.336 24.492-13.336 10.926 0-8.003-8.137-18.858-14.71-19.623-8.559-1.002-11.762.23-11.762 4.502 0 2.654 1.72 3.655 4.447 2.607 6.066-2.327 12.454 3.55 14.63 13.463 3.662 16.67-28.433 59.037-44.722 59.037-4.74 0-6.37-2.565-7.955-12.474-1.096-6.858-4.81-15.46-8.248-19.118-6.271-6.676-19.932-9.221-19.932-3.714 0 1.619 1.894 2.947 4.203 2.947 7.552 0 16.392 14.743 16.392 27.335 0 9.385-2.543 15.124-12.268 27.73-11.788 15.279-23.999 24.363-32.77 24.363-2.773 0-4.717-4.77-5.854-14.377-1.768-14.926-9.847-37.655-12.46-35.045-.819.82 0 8.395 1.803 16.834 5.178 24.146 2.181 32.462-15.73 43.617-15.178 9.454-28.622 12.482-28.622 6.446 0-1.713-1.393-2.256-3.09-1.207-5.324 3.29 3.093 10.206 12.42 10.206 10.16 0 22.32-5.805 30.045-14.339 3.043-3.363 6.68-5.409 8.081-4.542 3.695 2.284 3.027 21.004-1.358 38-3.361 13.029-6.108 16.748-6.108 16.748 6.363 1.013 7.121 2.189 9.789 3.436.363.17-1.845-5.554 1.809-11.13 3.46-5.284 5.181-14.268 5.42-28.259.335-19.824.596-20.526 7.702-20.526 11.54 0 24.825-9.857 35.448-26.252l9.765-15.058 6.075 9.59c5.285 8.349 6.072 14.28 6.075 45.656v34.737c3.982-4.443 5.94-4.6 12.72-1.792 15.017 6.22 39.581-8.183 48.791-28.607 3.204-7.104 6.207-10.767 10.555-12.522q-.73.092-1.39.093c-5.483 0-5.903-2.053-6.17-30.139-.166-17.335-2.26-37.428-4.93-47.282-4.37-16.13-4.324-17.449.671-22.445 7.82-7.82 15.52-33.084 12.538-41.145-.733-1.981-1.343-3.1-2.014-3.089zM517.33 875.03l4.092 17.063c3.796 15.824 6.685 87.699 3.943 98.16-.665 2.54-5.282 7.632-10.263 11.314-11.651 8.613-23.078 11.826-31.275 8.793-6.246-2.31-6.478-3.743-5.856-35.622.577-29.476-.068-34.435-5.719-43.996l-6.367-10.777 7.837-1.96c11.779-2.938 26.316-15.185 35.455-29.87zm54.868 72.934c-1.729.048-2.539 1.48-3.982 4.18-.792 1.477-2.08 3.068-3.699 4.66l9.331-8.192 11.234 5.609.166-.174a64 64 0 0 1-1.406-.759c-6.554-3.656-9.688-5.378-11.644-5.324m-8.43 9.496c-.33.264-.68.528-.988.798.227-.19.5-.368.719-.562zm-98.571 59.607-2.085 1.588h.308a63 63 0 0 0 1.777-1.588"/><path fill="#b8b4c6" d="M651.344 1134.892c0 .041-.041.073-.049.11-.667 1.471-2.48 3.408-5.293 5.838-3.17 2.738-5.727 5.258-6.193 7.726-.482 1.264-.529 3.177-.094 4.18.162.376.544 1.107.957 1.556 1.074 1.169 2.29 2.32 5.982 3.97 1.856.828 2.51 1.195 2.798 1.893.195.472-.186.667-1.293 1.792-2.273 2.299-3.222 4.668-3.263 7.647-.048 3.97 1.16 4.808 7.104 5.515.295.041 1.256.08 2.141.08.954-.04 1.864.041 2.796.041 2.45.08 11.251-1.91 14.095-3.183 3.915-1.755 5.016-5.226 5.016-15.88 0-8.621-.786-13.382-3.263-19.466a4.6 4.6 0 0 1-.283-1.099c-7.176 5.357-15.88 1.634-21.156-.719z"/><path fill="#b8b4c6" d="M654.085 1075.816s-4.223.259-6.96.933c-3.562.88-7.153 2.286-12.205 4.716-11.895 5.718-17.936 11.894-16.244 16.859.542 1.59 3.204 3.595 6.597 5.174.845.393 2.659 1.093 3.5 1.486 2.176 1.012 3.745 2.149 5.83 4.21 2.163 2.136 4.572 5.34 6.384 8.596 4.033 7.25 7.018 12.562 9.42 14.709 3.173-1.134 10.527 8.31 21.92.086.041 0 .049-.041.073-.049.138-2.436.94-4.094 3.785-8.382 3.715-5.606 5.007-8.8 5.656-13.959 1.11-8.821-2.118-19.277-9.006-24.935-1.753-1.439-5.537-5.446-6.85-6.28-4.283-2.722-6.984-3.221-11.897-3.167z"/><path fill="#988985" d="M351.293 1006.457c-4.02-1.59-9.976-6.382-11.683-16.44-.641-3.777-3.878-5.674-4.015-5.83-.137-.154-1.91 1.837-3.962 5.189-6.664 10.89-11.462 15.117-14.439 15.878-6.483 1.657-8.807-.227-6.887-10.03.531-2.713.926-6.134.926-7.2 0-4.338-1.89-6.38-6.455-2-1.56 1.497-3.743 3.474-5.118 4.73-8.323 7.589-12.459 5.892-13.59-1.775-.17-1.137 2.609-10.956 7.274-20.52l8.644-17.721-.065 5.77c-.056 5.158 2.522 6.976 4.281 9.637 1.622 2.454 3.26 3.604 9.295 6.535 4.03 1.956 10.133 4.36 13.563 5.345 10.317 2.958 12.275 4.529 17.505 14.051 1.606 2.922 3.58 8.92 5.392 11.378s3.047 4.47 2.745 4.47c-.299 0-1.87-.856-3.411-1.466"/><path fill="#b8b4c6" d="M1125.077 1159.192c-9.31.15-20.344 8.996-17.949 15.238 2.299 5.992 5.653 6.4 18.96.839 12.358-5.163 12.811-14.584.83-15.982a14 14 0 0 0-1.841-.093zm-50.292-2.955c-9.08.46-14.886 7.127-11.595 15.702 1.966 5.123 7.794 5.542 17.33 1.38.678-.324 1.298-.58 2.015-.957 8.582-4.594 8.311-13.071-.957-15.397-2.415-.606-4.698-.834-6.793-.727m-44.178-60.35c-9.92.983-13.127 8.769-14.63 18.132-.058.315-.102.634-.15.955-2.73 14.697 4.788 33.31 15.973 41.705a40.7 40.7 0 0 0 6.083 3.73c1.973.795 8.324 1.634 10.405 1.634 3.79 0 5.347-1.816 6.32-4.353.973-2.535-.424-7.046-2.26-8.88-.956-3.005-1.311-6.92-.315-12.175a2.4 2.4 0 0 1 1.335-.725c.54-.263 1.113-.517 1.73-.751 10.33-3.928 9.225-8.285-6.17-24.27-8.854-9.192-18.294-14.986-18.32-15.001z"/></svg>