<svg xmlns="http://www.w3.org/2000/svg" xmlns:xlink="http://www.w3.org/1999/xlink" xml:space="preserve" width="512" height="512"><defs><linearGradient id="a"><stop offset="0" style="stop-color:#e37f95;stop-opacity:1"/><stop offset=".168" style="stop-color:#e37f95;stop-opacity:1"/><stop offset=".168" style="stop-color:#f2b382;stop-opacity:1"/><stop offset=".342" style="stop-color:#f2b382;stop-opacity:1"/><stop offset=".342" style="stop-color:#fdef9f;stop-opacity:1"/><stop offset=".51" style="stop-color:#fdef9f;stop-opacity:1"/><stop offset=".51" style="stop-color:#b7e898;stop-opacity:1"/><stop offset=".685" style="stop-color:#b7e898;stop-opacity:1"/><stop offset=".685" style="stop-color:#8dcae8;stop-opacity:1"/><stop offset=".853" style="stop-color:#8dcae8;stop-opacity:1"/><stop offset=".853" style="stop-color:#b198ce;stop-opacity:1"/><stop offset="1" style="stop-color:#b198ce;stop-opacity:1"/></linearGradient><linearGradient xlink:href="#a" id="b" x1="256" x2="256" y1="128.963" y2="382.963" gradientUnits="userSpaceOnUse"/></defs><path d="M256 128.963a127 127 0 0 0-127 127 127 127 0 0 0 4.125 32.105 604 604 0 0 1 12.153-2.716c20.085-4.216 23.544-5.126 21.864-5.756-3.668-1.375 1.352-3.928 7.931-4.035l3.465-.057-2.426-1.576-2.425-1.578 5.785-.203c5.056-.18 6.974.145 15.244 2.595 5.203 1.541 12.754 3.588 16.781 4.547 4.027.96 10.079 2.712 13.449 3.895 6.935 2.433 8.114 2.605 7.543 1.097-.585-1.544 1.092-1.31 5.002.7 4 2.055 4.844 2.152 5.422.625.272-.718.933-1 1.807-.768 1.588.42 1.722-.393.605-3.639-.747-2.173-.819-2.206-2.437-1.133-1.299.863-1.73.908-1.953.206-.158-.497-.788-2.737-1.403-4.977-1.012-3.694-1.26-4.026-2.646-3.578-3.22 1.04-3.557.782-4.039-3.08-.448-3.587-1.808-7.867-2.498-7.867-.185 0-.961.804-1.725 1.786-1.822 2.347-3.002 1.858-2.752-1.14.372-4.437-.46-4.768-10.263-4.09-4.764.33-9.673.415-10.909.19-3.112-.568-5.489-3.571-10.187-12.875-3.818-7.561-3.987-8.113-3.707-12.213.237-3.477.819-5.163 3.058-8.855 2.344-3.867 3.437-4.926 7.164-6.94 8.715-4.708 27.533-10.14 41.604-12.008 9.367-1.244 8.9-1.02 9.143-4.375.189-2.633.52-3.137 2.984-4.547 1.716-.982 2.716-1.488 3.241-1.474.594.015.578.699.298 2.113l-.443 2.246 1.955-1.897c2.474-2.4 2.918-2.379 2.918.137v2.032l4.33-1.45c3.372-1.128 6.061-1.446 12.147-1.428 4.298.013 8.04.252 8.314.53.274.277-.083.933-.793 1.459-1.111.822-.438.902 4.852.576 4.93-.304 6.414-.162 7.527.721.774.613 1.004 1.108.52 1.12-1.182.03-1.106 1.427.078 1.427 1.218 0 8.993 3.637 12.568 5.88l2.772 1.74-3.03.225-3.027.225 3.418 2.783c1.88 1.53 4.282 3.899 5.336 5.264 1.876 2.429 1.885 2.486.437 2.711-.813.126-1.938-.157-2.498-.627-2.051-1.724-1.647-.027 1.198 5.037 1.602 2.85 5.038 9.606 7.636 15.01 2.598 5.406 5.824 11.88 7.168 14.39 1.603 2.992 2.576 5.891 2.827 8.422l.38 3.86-1.433-1.657c-2.006-2.315-1.888-.893.642 7.736 1.697 5.786 2.078 8.362 2.078 14.016 0 3.721-.19 6.782-.427 6.924l-.006.002-.006.002h-.004c-.808 0-2.283-2.435-2.306-3.803-.012-.74-.179-1.186-.37-.992-.19.194-.68 6.958-1.088 15.03-.79 15.653-1.257 19.332-2.51 19.755-.433.146-1.015-.46-1.293-1.348-.388-1.239-.788-.23-1.722 4.348-.67 3.278-1.703 7.067-2.297 8.418-.98 2.228-1.086 2.295-1.12.703-.025-1.188-1.111.51-3.371 5.264-5.733 12.064-14.505 24.626-23.265 33.314a68 68 0 0 0-2.667 2.784A127 127 0 0 0 383 255.963a127 127 0 0 0-127-127" style="fill:url(#b);fill-rule:evenodd;stroke-width:2.20571" transform="translate(-260.182 -260.182)scale(2.01634)"/></svg>