<svg xmlns="http://www.w3.org/2000/svg" xmlns:xlink="http://www.w3.org/1999/xlink" xml:space="preserve" width="512" height="512"><defs><linearGradient id="a"><stop offset="0" style="stop-color:#e37f95;stop-opacity:1"/><stop offset=".169" style="stop-color:#e37f95;stop-opacity:1"/><stop offset=".169" style="stop-color:#f2b382;stop-opacity:1"/><stop offset=".338" style="stop-color:#f2b382;stop-opacity:1"/><stop offset=".338" style="stop-color:#fdef9f;stop-opacity:1"/><stop offset=".514" style="stop-color:#fdef9f;stop-opacity:1"/><stop offset=".514" style="stop-color:#b7e898;stop-opacity:1"/><stop offset=".679" style="stop-color:#b7e898;stop-opacity:1"/><stop offset=".679" style="stop-color:#8dcae8;stop-opacity:1"/><stop offset=".852" style="stop-color:#8dcae8;stop-opacity:1"/><stop offset=".852" style="stop-color:#b198ce;stop-opacity:1"/><stop offset="1" style="stop-color:#b198ce;stop-opacity:1"/></linearGradient><linearGradient xlink:href="#a" id="b" x1="-204.257" x2="-204.257" y1="423.208" y2="679.208" gradientTransform="matrix(2 0 0 2 664.514 -846.416)" gradientUnits="userSpaceOnUse"/></defs><path d="M.139 0A.155.155 0 0 0 0 .154v511.692c0 .085.069.154.154.154h511.692a.154.154 0 0 0 .154-.154V.154a.154.154 0 0 0-.154-.154zm215.093 33.217c.7.021 2.189.208 3.844.496 4.094.716 5.753 1.599 9.38 4.994l1.657 1.553v-1.762c0-.97-.218-2.525-.484-3.459l-.488-1.697 1.25.808c4.33 2.796 3.965 2.19 3.644 6.024l-.293 3.48 1.885 1.188c5.337 3.366 8.014 4.49 15.355 6.445 15.432 4.109 30.95 9.308 30.407 10.19-.144.232.255.31.886.171.754-.165.931-.094.518.202q-.625.45 1.02.462c2.931.025 13.128 5.438 13.128 6.973 0 .221.484 1.056 1.075 1.856 1.583 2.141 5.636 23.118 4.656 24.097-.248.25-1.651.594-3.117.768-2.258.268-2.778.537-3.414 1.767-1.89 3.657-5.332 3.678-4.844.03.054-.386-.35-.224-.96.383-1.523 1.526-2.426 1.268-2.128-.61.16-1.022-.91-.202-1.457 1.113-1.467 3.543-4.094 4.036-4.094.768v-1.85l-2.68.364c-1.472.197-2.687.39-2.699.427-.394 1.3-3.112 4.47-4.031 4.702-1.894.474-2.475-.166-2.176-2.4l.266-1.975h-2.016c-1.496 0-2.322.33-3.197 1.273l-1.18 1.273.233-1.212c.127-.669.013-1.35-.252-1.512a.8.8 0 0 0-.487-.125 2.1 2.1 0 0 0-.55.213 2 2 0 0 0-.155.119l-.037.043a.2.2 0 0 1-.066.05c-1.05 1.018-1.784 3.56-.793 4.426.379.332 4.648 3.134 9.486 6.229 3.138-2.45 26.368 21.813 6.002 13.94-.35-.15-.561-.218-.619-.165-.08.09.199.476.873 1.319.947 1.181 1.564 1.518 2.42 1.32.924-.213 1.285.054 1.84 1.373.52 1.242.765 1.442 1.004.822.397-1.04 1.811-1.063 2.205-.037.26.675.392.655.974-.129.626-.843.735-.847 1.528-.066.469.46.975 1.927 1.125 3.256.2 1.782.52 2.48 1.219 2.662 1.405.367 1.175 1.257-1.252 4.814-1.355 1.989-3.292 3.979-5.055 5.198l-2.856 1.974-2.726-.635c-4.354-1.016-16.856-4.953-22.74-7.164-2.977-1.117-5.81-1.904-6.301-1.748-.47.15-.905.684-1.248 1.455-.412 1.17-.719 2.746-.72 3.985-.003.787-.054 1.374-.233 1.65-.066.185-.144.293-.227.293-.642 0-2.287-1.954-2.894-3.437l-.534-1.305-2.558 2.826-.344.414c-1.088 1.302-1.887 2.173-2.371 2.422-.494.376-.56.106-.56-.58q0-.091-.005-.178a3 3 0 0 0-.1-.431l.036-.032c-.244-.975-1.11-.932-2.148.215-.938 1.035-1.927 5.668-1.704 7.674l.079.406-.008-.004c.386 1.558-.1 1.502-1.93-.213l-1.5-1.402.3 2.678c.282 2.514.23 2.68-.827 2.68-2.058 0-4.606-.987-6.514-2.52l-1.885-1.516-2.086 2.479c-1.57 1.862-1.84 2.41-1.088 2.213 1.486-.39 1.795 1.097.635 3.064l-.996 1.688 2.855-.196c1.572-.107 3.43.022 4.131.288 1.261.478 1.248.5-1.144 2.017l-2.42 1.533 7.777.344c7.683.341 7.88.379 16.31 3.191 4.566 1.524 8.216 2.963 8.278 3.254v.006l-.004.01v.002c-.145.234-1.07.578-2.055.762-.99.185-1.703.594-1.6.912.105.319 1.602 1.152 3.333 1.854 1.727.7 3.622 1.759 4.21 2.351l1.071 1.078-3.103.35a22 22 0 0 0-1.567.232c-.045.05-.141.064-.271.053-.767.16-1.266.332-1.266.461 0 1.285 2.802 2.772 6.922 3.672 3.697.809 5.194 1.456 8.598 3.725 2.267 1.51 5.097 3.352 6.289 4.091s2.168 1.57 2.168 1.846c0 .278-1.302.504-2.893.504-1.456 0-2.56.113-2.615.252l-.002.006.002.012.011.017c.808.808 17.084 6.56 20.698 7.313 3.142.656 8.096.698 11.197.1 2.3-.446 2.556-.193 1.602 1.59-.548 1.024-.48 1.05 1.914.737 4.688-.613 17.283-1.088 24.343-.916 8.216.2 11.219-.383 12.963-2.521 1.027-1.26 8.127-4.547 9.819-4.547.303 0-.092.847-.877 1.883-1.222 1.61-1.282 1.826-.409 1.476 4.236-1.699 11.473-3.87 12.897-3.87 1.949 0 8.275 1.575 8.275 2.06 0 .173-1.091.568-2.424.875s-3.57 1.08-4.972 1.717l-2.553 1.154 3.572.332c4.304.4 7.902 1.923 6.672 2.822-.654.48.066 1.047 4.174 3.285 12.305 6.701 24.416 14.728 41.188 27.301 8.638 6.477 10.809 7.827 19.986 12.412 8.553 4.275 11.081 5.805 14.945 9.047 2.56 2.147 4.57 3.983 4.469 4.084s-1.949.216-4.111.258l-3.932.076 6.258 3.04c3.44 1.67 7.06 3.388 8.04 3.818l1.788.78-1.531.47c-.841.258-2.237.69-3.098.963-.86.272-1.976.496-2.479.496-.823 0-.81.087.141.892.58.491 1.925 1.961 2.988 3.268 1.065 1.307 4.186 4.837 6.936 7.845s5.593 6.645 6.322 8.082 2.688 4.642 4.354 7.12c1.653 2.458 2.886 4.597 2.76 4.775l-.003.002c-.267.268-3.294-1.294-6.128-3.162l-1.47-.97.391 1.25c.213.686.54 1.365.721 1.505.88.679 3.255 11.619 3.631 14.856.51 4.411.538 5.769-.209 4.232l-4.437-4.295c-4.724-4.572-5.201-5.477-8.825-10.076-1.603-2.033-3.007-3.7-3.117-3.7l-.002.003h-.006l-.002.002h-.002l-.002.002c-.002 0-.006.006-.008.008-.172.282 1.404 4.798 1.791 5.09.672.501 3.547 8.04 3.893 10.205.314 1.956.253 2.168-.532 1.869-.486-.186-2.873-.906-5.306-1.6-4.358-1.239-4.486-1.322-8.463-5.484-1.977-2.07-3.52-3.486-3.709-3.424l-.006.002-.002.002-.002.002v.002l-.002.002-.002.002v.002l-.002.002q-.008.023.01.074c.6 1.66-1.236.967-3.537-1.334-1.14-1.14-2.088-1.963-2.215-1.933h-.006v.002h-.002v.002h-.002v.004h-.002l-.002.006v.006c0 .173.345 2.113.766 4.312s.765 4.808.765 5.797v1.799l-1.914-.36c-3.596-.67-9.118-3.622-11.62-6.207-3.2-3.306-5.934-7.024-8.267-11.242l-1.464-2.652-.495-.057-.076 1.528c-.166 3.33-1.18 10.428-1.584 11.082-.188.305-1.497-.134-3.455-1.012-.153-.035-.259-.1-.388-.156-.053-.023-.104-.053-.157-.078-.237-.112-.342-.133-.601-.258-4.938-2.394-5.602-3.237-7.555-9.578-.616-2-1.319-3.884-1.713-4.635q-2.064-.571-4.207-1.244c-.594.36-.766 1.568-1.183 4.771-.299 2.291-.56 2.796-1.666 3.217-1.487.565-2.55.134-5.336-2.162-1.232-1.016-2.254-2.68-3.424-5.578-1.038-2.58-2.127-4.436-2.899-4.944a4 4 0 0 0-.574-.328c-.198-.03-.298-.048-.498-.078-.647.089-1.508.927-3.844 3.248-2.022 2.008-4.084 3.653-4.578 3.653-1.485 0-4.941-2.002-4.941-2.862 0-.612-.926-.303-3.953 1.32-4.548 2.438-11.85 6.954-12.346 7.618l-.02.08c.08.205.963 1 2.036 1.824l2.043 1.572-3.955.617c-7.018 1.096-17.35 4.606-16.694 5.666.125.204 1.493.527 3.04.721 4.896.61 3.611 1.275-6.88 3.557-7.673 1.669-12.966 3.48-13.166 4.504-.086.441.544 2.193 1.403 3.892.858 1.7 1.56 3.326 1.56 3.614s-.746.529-1.658.533c-1.259.012-1.474.128-.893.502.42.272.58.498.354.504-.226 0 .148.524.832 1.154.696.645 4.127 5.248 7.168 9.496l-.022-.035q.107.148.205.293c2.232 3.122 4.217 6.003 4.702 6.908.326.61.904 2.763 1.283 4.785.648 3.465.637 3.605-.158 2.43a28 28 0 0 0-1.776-2.297c-.92-1.036-.927-1.031-.644.639.157.928.564 4.772.904 8.543l.62 6.855 2.886 2.24c2.787 2.165 5.072 5.602 5.072 7.631 0 .814-.107.818-1.605.043l-1.604-.828.317 1.963c.174 1.08.471 2.757.666 3.727l.353 1.76-2.305-1.89c-2.653-2.173-2.964-2.263-2.964-.867 0 .561.198 1.02.441 1.02.514 0 3.69 7.838 10.44 25.762 4.04 10.727 5.55 14.042 9.505 20.87 7.768 13.409 7.393 12.973 12.09 14.055 1.45.336 3.373 1.154 4.277 1.82 2.058 1.519 5.428 5.93 6.702 8.776.533 1.189 1.883 3.218 3.002 4.512 2.968 3.428 4.189 6.126 4.25 9.38.042 2.33-.106 2.823-.893 2.981-.519.106-1.55-.39-2.295-1.1-1.436-1.37-4.932-3.035-7.592-3.62-1.631-.358-3.008.107-4.383 1.484-.255.255-.877.477-1.716.658-.916.3-2.206.426-4.57.53-.518.022-1.026.02-1.508-.003-1.816-.009-3.454-.168-4.284-.513l-1.785-.74-1.03 1.812c-1.267 2.236-3.995 4.139-5.933 4.139-.8 0-1.455.19-1.455.42 0 .959 1.658 5.191 2.033 5.191.226 0 .54.344.702.766.517 1.352-2.752.866-5.985-.887-1.927-1.046-3.436-2.321-4.228-3.578-1.132-1.79-1.374-1.925-2.948-1.631-2.734.512-5.907-1.192-8.43-4.53-1.19-1.578-2.337-2.666-3.183-3.029a1 1 0 0 0-.137-.037 5 5 0 0 1-.527-.152c-3.813-1.044-8.16-5.323-7.738-7.717.09-.516.027-.864-.338-1.201-.28-.171-.622-.352-1.041-.555a8 8 0 0 1-.8-.455c-3.114-1.45-5.957-4.31-7.663-7.724-1.736-3.476-1.883-4.925-.805-7.979.73-2.067.718-2.122-.578-2.97-1.93-1.265-4.678-1.126-5.828.296-2.051 2.532-2.563 8.01-1.228 13.135.417 1.604.648 3.03.513 3.166l-.013.014c-.329.317-.656.235-1.295-.248-1.353-.553-3.35-1.76-4.194-2.672-.682-.74-2.215-3.64-3.408-6.446-2.045-4.813-2.15-5.294-1.853-8.55.743-8.155 6.627-20.843 10.609-22.873 1.044-.534 2.489-.97 3.21-.97 3.341 0 7.966 3.324 12.026 8.571.862.956 1.64 1.914 2.244 2.791.435.63.89 1.234 1.297 1.729.492.372.836.278 1.405.02 1.128-.515 1.222-.79.95-2.764-.38-2.783-4.67-15.988-6.177-19.02-.627-1.263-1.548-3.539-2.047-5.06-.724-2.21-1.02-2.62-1.474-2.036-.465.602-2.973 1.994-3.586 1.994h-.004l-.002-.002h-.002l-.006-.004c-.1-.08-.308-.963-.479-2.033-.37-2.318-.405-2.338-2.117-1.217l-1.258.825v-2.457c0-1.904-.55-3.653-1.832-5.506a5 5 0 0 0-.598-.031c-1.428 0-1.494-.086-1.78-2.745-1.135-1.125-2.527-2.322-4.206-3.636-11.104-8.691-20.789-15.13-27.98-18.606-2.099-1.013-3.127-1.843-3.602-2.91-.254.048-.573.093-.943.135.472 1.435 1.916 3.611 3.18 4.512.847.604 1.54 1.28 1.54 1.503v.01l-.004.004-.002.002c-.167.227-3.793.603-8.203.844l-3.05.166c-.243.075-.55.094-.94.053h-.002l-4.219.23 2.41 1.694c1.402.986 2.222 1.886 1.96 2.148-.264.264-3.084-.381-6.739-1.539-3.457-1.095-7.588-2.247-9.18-2.56s-4.27-1.122-5.953-1.8c-5.777-2.318-15.58-5.702-16.035-5.538 0 .436-.095.826-.24 1.193a42 42 0 0 0-.201 2.479c-.176 3.287-.068 3.65 2.888 9.804l.528 1.104c.65 1.17 1.206 2.323 1.633 3.642.946 2.39 1.206 4.05 1.691 7.979.43 3.483.672 6.443.537 6.576v.002l-.002.002h-.002l-.002.002c-.188.079-2.095-1.506-2.783-2.152v1.2c0 .662-.494 3.033-1.098 5.27-.932 3.46-1.19 3.939-1.72 3.211-.344-.47-.778-1.802-.963-2.963-.503-3.138-.77-3.234-2.297-.828-1.618 2.547-4.98 5.65-5.819 5.371-.317-.106-.726-.934-.912-1.84-.184-.905-.464-1.77-.619-1.925s-9.076-.313-19.826-.348c-18.001-.058-20.022.023-25.59 1.04-3.325.606-6.091 1.176-6.148 1.265l-.996 1.584c-1.269 2.028-3.26 2.744-10.87 3.908-3.69.566-8.512 1.604-10.712 2.307s-4.601 1.28-5.334 1.283c-.775 0-2.384.836-3.827 1.976-3.766 2.982-5.616 3.757-9.086 3.807-2.23.032-3.671-.256-5.15-1.031-1.853-.973-2.214-1.01-3.723-.375-1.302.548-1.99 1.403-3.117 3.886l-1.445 3.186-2.14-3.299-.167-.258a1.5 1.5 0 0 1-.203-.13c-.143-.109-.203-.179-.254-.235-.1-.113-.137-.176-.176-.234a4 4 0 0 1-.183-.309q-.168-.31-.352-.713l-.002-.008c-.265-.586-.482-1.02-.53-1.77-.09-.457-.077-.883.001-1.372.328-2.068 1.81-3.76 4.86-5.555 2.195-1.29 2.22-1.334 1.021-1.785-3.528-1.329-5.621-2.508-7.805-4.399-1.328-1.148-2.841-2.09-3.365-2.09-1.73 0-4.064 2.474-4.416 4.684l-.326 2.041-1.797-1.795c-1.508-1.51-1.832-2.235-2.023-4.554-.39-4.716 1.758-7.33 7.177-8.743 1.555-.404 3.362-1.081 4.016-1.502 1.071-.687 4.566-1.795 8.133-2.576l1.334-.293-.686-4.215c-1.255-7.72-.779-9.905 3.27-15.003 1.96-2.468 6.635-6.438 9.13-7.756.614-.324 3.054-.733 5.422-.908 3.874-.288 4.55-.201 6.721.884 1.328.663 3.546 2.446 4.932 3.963 2.353 2.575 2.606 2.716 3.828 2.16 1.136-.518 1.617-.403 3.672.866l.238.146a6 6 0 0 1 1.314.695c.172.119.374.266.596.438 1.503.878 3.396 1.963 5.063 2.896 2.665 1.492 5.24 3.051 5.72 3.463.952.816 1.653.834 12.262.34l7.014-.326v-1.895c0-1.04-.33-2.336-.735-2.88-.726-.98-.74-.98-1.474.011-1.021 1.378-1.841.61-3.94-3.693l-1.672-3.43-.394 2.145c-.216 1.179-.686 2.671-1.04 3.314-.615 1.126-.655 1.088-1.02-.984-.925-5.249-5.45-12.234-11.987-18.504l-4.437-4.258q-.045.015-.09.027l-.248 2.956-.254 3.06-1.574-2.549c-1.965-3.183-3.67-8.4-4.405-13.463-.447-3.08-.407-5.093.198-9.748.42-3.226.952-6.327 1.18-6.888.292-.716-.16-.486-1.514.765l-1.93 1.785.326-1.785c1.461-7.972 1.868-9.027 4.7-12.154 1.52-1.681 2.761-3.316 2.761-3.637 0-1.01-5.45-9.693-7.107-11.568-.308.306-.647.654-1.026 1.053l-.025.035c-.22.28-1.436 3.61-2.703 7.398-.56 1.672-1.122 2.895-1.77 4.608-.425 1.426-.93 2.836-1.6 4.168-.188.437-.49 1.354-.64 1.666-1.498 3.126-2.015 3.72-4.256 4.879-5.222 2.7-10.25 5.771-11.736 7.17-1.756 1.652-5.221 3.015-7.67 3.015-1.367 0-1.956.377-3.184 2.045-.827 1.126-2.794 3.424-4.373 5.104-3.653 3.889-4.543 3.93-8.93.43l-3.242-2.589.2-3.515c.103-1.844.118-3.367.039-3.506l-.004-.006-.002-.002h-.002v-.002h-.004c-.094 0-1.337 1.266-2.764 2.812-1.427 1.547-4.341 3.9-6.473 5.229l-3.875 2.416-7.66-.035c-4.213-.019-8.233-.276-8.933-.57-1.209-.505-1.276-.745-1.276-4.553v-4.026l-2.55-.283c-1.404-.158-3.47-.835-4.592-1.504-2.14-1.275-7.909-5.54-7.909-5.846 0-.098 1.522-2.439 3.381-5.199 3.903-5.799 5.267-8.52 5.282-10.54.013-1.608-.016-1.607-4.836.251-2.872 1.106-8.902 1.752-11.62 1.24-.666-.124-2.202-.864-3.918-1.855-1.128-.344-2.116-.868-2.818-1.715q-.04-.047-.082-.1c-3.718-2.481-4.2-2.986-3.644-3.658 4.112-2.956 16.89-7.331 15.126-10.633-.24-.308-.593-1.673-.779-3.037-.224-1.636-.9-3.21-1.986-4.634-2.346-3.076-3.49-6.332-3.049-8.682.447-2.385 2.148-5.785 2.895-5.785.58 0 5.408 3.36 6.304 4.388.599.684 2.932 1.33 2.545.704-.371-.602 1.469-1.102 2.54-.692.69.264.829.73.613 2.06-.271 1.668-.19 1.764 2.71 3.23 3.293 1.66 4.247 1.242 2.354-1.036-2.454-2.954-5.54-8.75-5.777-10.846-.277-2.465.929-5.97 2.056-5.97.392 0 1.66.686 2.817 1.525 1.93 1.4 2.346 1.498 5.05 1.219 1.715-.179 3.895-.049 5.211.306l2.268.612-2.139 1.976c-3.168 2.925-3.177 2.913 3.752 5.334 2.752.963 4.556 1.322 5.471 1.092 1.25-.314 1.316-.452.78-1.63-.475-1.037-.439-1.44.179-2.057.984-.983 2.318-.497 6.295 2.289l2.98 2.088 7.186-.03c10.702-.044 10.832-.083 13.135-4.056l1.918-3.31-1.512-.161c-.831-.09-1.51-.272-1.51-.408 0-.569 1.709-3.493 2.604-4.453 1.164-1.25 1.232-1.866.203-1.866-1.393 0-.803-1.151 2.197-4.293 2.925-3.061 2.979-3.171 3.873-7.964.7-3.765.805-5.663.46-8.418l-.45-3.557-1.1 2.424c-.605 1.333-1.255 2.422-1.449 2.422h-.004l-.006-.002h-.002l-.002-.002c-.18-.138-.207-3.124-.059-6.754.196-4.778.584-7.724 1.327-10.05.56-1.766.958-3.286.898-3.437l-.002-.002-.002-.002v-.002l-.002-.002h-.002v-.002l-.006-.002h-.004c-.145.01-.923.946-1.787 2.149-.907 1.26-1.838 2.293-2.068 2.293-.231 0-.099-1.663.29-3.697q.657-3.44 1.268-6.89c.575-3.271 3.435-8.63 7.33-13.732 2.075-2.716 2.037-2.529 1.018-4.97-1.519-3.634-3.615-23.354-4.168-39.242l-.31-8.936-.038-.117-1.629 2.578c-.91 1.445-1.845 2.625-2.08 2.621-.234 0-.8-1.909-1.256-4.236-.63-3.215-.747-5.521-.474-9.59.331-4.952.523-5.683 2.549-9.692q2.191-4.337 1.195-3.445c-1.434 1.285-1.682 1.13-1.682-1.055 0-4.723 3.178-10.879 8.49-16.449 2.399-2.515 3.229-3.968 5.825-10.205 1.666-4 3.029-7.378 3.029-7.506 0-.127-.378.078-.838.461-.358.296-.56.436-.635.38-.077-.069-.012-.37.153-.956.195-.698 1.92-4.484 3.832-8.412 3.48-7.152 7.116-12.743 11.861-18.238 1.317-1.525 2.296-2.79 2.273-2.924v-.002l-.002-.002-.002-.002-.002-.002h-.002l-.002-.002h-.004c-.148 0-1.783.83-3.63 1.846-1.848 1.015-3.47 1.735-3.608 1.597-.265-.264 6.05-6.278 8.815-8.396.897-.686 4.1-2.253 7.119-3.483l5.488-2.238-5.078-.146-5.076-.147 4.08-1.969c2.244-1.082 4.725-2.158 5.512-2.394 1.81-.54 44.874.327 49.328.994 1.822.272 4.577.615 6.12.76l2.805.263-2.027-1.728c-1.098-.939-1.895-1.812-1.793-1.963l.006-.006c.034-.032.18-.042.412-.035zm21.811 59.972c-.505.019-.792.2-1.145.551-1.234 1.236-.351 2.156 1.133 1.184 1.755-1.15 2.182-.994 2.36.865.159 1.645.204 1.67 5.263 3.02 2.806.746 5.245 1.378 5.424 1.402.177.022.267-.703.197-1.615-.105-1.382-.412-1.755-1.853-2.246-1.509-.513-1.868-.46-2.83.427-1.557 1.438-2.943 1.035-3.133-.916-.142-1.457-.37-1.631-2.957-2.25-1.23-.295-1.954-.44-2.459-.422m-72.129 2.692-.008.006c.561-.038.879.214.879.771q0 .014-.004.033.005-.023.006-.039c0-.554-.317-.806-.873-.771m53.25.256.307.217a.4.4 0 0 1-.03-.053c.01-.01.36.184.64.336-.132-.071-.331-.2-.444-.256q-.208-.106-.473-.244m-50.934 1.652c-.048.005-.113.05-.193.121.133-.119.227-.15.27-.078q-.026-.048-.077-.043m-.193.121c-.06.055-.14.148-.217.238.077-.09.156-.183.217-.238m.272-.072a.2.2 0 0 1 .015.04q-.006-.022-.015-.04m.02.076.247 2.215q.32 2.725.674 5.45l.48 3.712.002-.002-.48-3.717a465 465 0 0 1-.674-5.449zm93.394.299-2.424.016c-1.849.012-2.77.32-3.885 1.3-.755.663-1.304 1.266-1.285 1.395l.002.006v.004h.002v.002l.002.002.002.002.002.002h.002c.275.185 6.2 1.717 6.945 1.797q.637.068.637-2.229zm-94.471.705c-.54.81-1.229 2.002-1.941 3.396-.687 1.345-1.543 2.541-1.9 2.657q-.057.019-.083-.02.025.044.082.026c.358-.117 1.213-1.311 1.9-2.657.714-1.396 1.403-2.591 1.942-3.402m126.785.914-.031.05.014.04.035-.04zm-67.053 1.281.233.17q.365.265.734.514-.488-.348-.967-.684m-52.082 6.937c-.47 0-6.516 4.201-10.033 6.973-1.735 1.368-3.294 2.349-3.465 2.178a.1.1 0 0 1-.027-.045q.007.03.027.051c.171.17 1.73-.81 3.465-2.178 3.516-2.77 9.562-6.972 10.033-6.972q.154.001.215.164c-.04-.11-.11-.17-.215-.17m-23.806.542v.002zm-.502.32q-.129.089-.34.316v.002c.14-.15.255-.26.34-.318m100.27.947v.012h.001zm-65.253 4.2c-.248.009-.641.134-1.097.312.725-.284 1.24-.39 1.404-.226a.4.4 0 0 1 .08.132.4.4 0 0 0-.08-.138q-.09-.09-.307-.08m16.416.433-1.795 1.113c-.986.613-3.174 2.394-4.863 3.956-3.243 3-3.987 3.3-5.277 2.132-.44-.398-1.606-1.059-2.59-1.47l-1.787-.748-1.13 2.834c-1.164 2.926-2.292 4.895-2.429 4.294.13.623 1.26-1.35 2.43-4.289l1.129-2.834 1.785.748c.983.411 2.15 1.073 2.59 1.471 1.29 1.168 2.035.865 5.277-2.135 1.689-1.561 3.878-3.34 4.865-3.953l1.793-1.111zm-18.007.094c-.685.302-1.565.794-2.47 1.306.896-.507 1.79-1.005 2.47-1.306m75.988 1.992c-.418 0-.729.577-.924 1.37.04-.155.081-.307.13-.446.224-.622.513-.931.843-.904.764.063 1.345 1.333 1.425 3.107.027.597-.05 1.371-.218 2.188-.184.887-.42 1.418-.678 1.525-.078.033-.132.042-.207.021l.055.028c.427.02.72-.712.966-2.25v-.002c.367-2.304-.33-4.637-1.392-4.637m-83.426 2.467c-1.3.927-2.526 1.872-3.506 2.754-1.442 1.297-2.603 2.261-3.426 2.865.823-.603 1.982-1.564 3.424-2.861.979-.88 2.21-1.833 3.508-2.758m82.283.683c-.004.203.008.398.018.598a9 9 0 0 1-.018-.598m-11.806.2a.2.2 0 0 0-.057.006 2.5 2.5 0 0 0-.615.224q.26-.135.615-.218.107-.025.252.056a.4.4 0 0 0-.195-.068m-76.998.623q.002.272.052.539.051.26.057.521a3 3 0 0 0-.055-.529 3 3 0 0 1-.055-.531zm88.835.011c.061.765.217 1.474.518 1.932q.348.535.625.777l.1.05c-.33-.24-.787-.866-.957-1.337-.147-.403-.24-.897-.286-1.422m16.749 1.711c-.396-.002-.758.043-.99.131-.762.293-.75.396.126 1.059 1.196.904 1.257.903 2.436.012.909-.689.892-.74-.381-1.06a5.2 5.2 0 0 0-1.191-.142m-69.194.358c-.044-.002-.093.004-.14.006.547-.025.88.195.966.623-.078-.393-.36-.613-.826-.63zm.826.629q.014.065.02.136l.002.002c-.003-.049-.013-.094-.022-.138m-1.181-.604a3 3 0 0 0-.278.059c.096-.023.191-.046.278-.059m-.698.186c-.04.014-.074.019-.117.035a7 7 0 0 1-.392.133h.011q.218-.067.38-.13c.041-.015.078-.024.118-.038m-6.187 1.408c-.524.092-1.033.177-1.51.25l.006.004c.466-.072.965-.155 1.477-.244zm-4.418.424c.006.037.031.065.084.084a.5.5 0 0 0 .107.021l.006-.006a.5.5 0 0 1-.11-.021q-.077-.027-.087-.078m-26.197.662c-.2.09-.318.097-.346.02q.04.121.346-.02m46.648.916-.002.006.016.101q.03.211.02.416a2.3 2.3 0 0 0-.034-.523m-33.1.174-.001.03q0 .04.004.071-.002-.036-.002-.078zm38.407.459c-.51-.002-.92.022-1.319.136l.026-.002c.387-.107.784-.132 1.28-.13l.034-.004zm11.568.168.002.006.233.023.039-.004zm-88.48 5.855c-.225.64-.535 1.421-.875 2.192-.511 1.155-.953 2.506-1.141 3.435.189-.929.632-2.28 1.143-3.435.34-.77.648-1.552.873-2.192m-12.504 5.403a1 1 0 0 0-.014.101c0 .224-.022.416-.008.541-.014-.124.01-.316.01-.539q0-.043.012-.103m8.336 17.265c-.36.24-.813.474-1.409.776v.001c.596-.301 1.048-.538 1.409-.777m-3.371 12.986c-.064 1.255-.031 3.463.074 7.172l.25 8.858-.248-8.858c-.105-3.71-.14-5.917-.076-7.172m-5.471 26.743a1 1 0 0 0-.023.158c-.005.56.256 4.027.578 7.705-.322-3.678-.583-7.146-.577-7.705a1 1 0 0 1 .022-.158m232.666 2.548a3 3 0 0 0-.451.036 1.3 1.3 0 0 1 .232.154c.096.08.181.188.248.308.268-.339.298-.488-.03-.498m-166.582 7.795-.035.024-.002.11zm-18.832 9.371c-.359.503-.534.784-.53.86.007-.086.181-.367.53-.856v-.002zm-15.994.354a4 4 0 0 0-.014.258l.002-.01q0-.117.012-.248m14.533.832a.6.6 0 0 0 .086.37q.03.047.045.109a.4.4 0 0 0-.045-.116.6.6 0 0 1-.086-.363m22.059.22c-.184-.001-.476.118-.82.294.553-.285.903-.352 1.062-.194.114.114.142.339.097.649.047-.316.022-.545-.093-.66a.34.34 0 0 0-.246-.088m-1.149.475c-.725.422-1.709 1.117-3.084 2.196-2.175 1.707-4.563 3.424-5.307 3.814-.56.295-1.101.857-1.402 1.418.302-.557.844-1.115 1.4-1.408.744-.391 3.132-2.107 5.307-3.815 1.364-1.07 2.362-1.782 3.086-2.205m-23.406 11.471q-.156.007-.27.174c.181-.257.435-.221.79.121-.204-.195-.378-.3-.52-.295m-15.395 1.219c.22.556.76.952 1.895 1.781 1.193.87 3.918 2.465 6.053 3.543 2.99 1.51 4.033 1.832 4.552 1.4.492-.406 1.24-2.191 1.76-3.978-.52 1.784-1.27 3.566-1.76 3.973-.52.43-1.562.108-4.552-1.403-2.135-1.079-4.86-2.673-6.053-3.543-1.13-.825-1.673-1.221-1.895-1.773m17.807 1.937c.045.08.075.12.121.203 1.093 1.968 2.267 3.686 2.605 3.82.35.14 1.327-.861 2.272-2.335q.136-.214.271-.42-.136.201-.271.412c-.945 1.474-1.921 2.476-2.272 2.336-.338-.135-1.51-1.853-2.605-3.82-.05-.089-.073-.111-.121-.196m8.81.2-.078.228-.008.02.006-.008s.03-.086.08-.24m62.147 3.332q-.085.005-.186.025c.201-.038.361-.032.454.025v-.002a.5.5 0 0 0-.268-.048m-.918.277a5 5 0 0 0-.482.256v.002q.243-.147.482-.258m-1.781.605-.198.627.004-.002zm-56.207.155-.002.002h-.002v.002l.968 3.52c1.33 4.83 2.019 5.888 2.895 4.44 1.212-2.003 2.66-3.414 3.172-3.097.354.219.448 1.964.28 5.156l-.016.287.02-.299c.168-3.192.073-4.936-.282-5.156-.512-.317-1.96 1.097-3.172 3.1-.876 1.447-1.565.39-2.895-4.442zm83.508 8.629q-.042.17-.08.337l.027-.048zm153.025 7.01.004.005.002-.004zm18.266 1.326c.332.035.6.04.779.002-.178.037-.449.033-.78-.002m-74.985.677a1.6 1.6 0 0 0-.527.106c-.235.09-.4.206-.504.367.104-.157.27-.272.502-.361.465-.178.993-.122 1.17.125.367.51 7.867 5.146 8.326 5.146.167 0 .83-.57 1.475-1.266 1.57-1.695 2.16-1.175 2.17 1.914l.001.182v-.19c-.009-3.089-.599-3.61-2.17-1.915-.645.696-1.308 1.265-1.474 1.265-.46 0-7.96-4.636-8.326-5.146-.111-.154-.36-.233-.643-.227m-166.13 3.47q-.082.052-.163.1l.065-.029zm209.62.522a61 61 0 0 1 3.471 3.86l.012.008a62 62 0 0 0-3.424-3.815zm-225.388.07-.018.005-.002.002h-.004c-.07.07-.012.421.145.955h.004c-.157-.533-.217-.883-.147-.953h.004c.04-.015.157 0 .334.037a1.6 1.6 0 0 0-.295-.045zm158.972.036q-.184.08-.351.166c-4.344 2.193-12.194 4.738-15.506 5.029-.443.039-.837.078-1.188.107v.008q.524-.045 1.186-.105c3.312-.291 11.162-2.838 15.506-5.031q.169-.086.353-.174m109.922.205c-.258.049-.707.094-1.467.13l-.14.009c.907.042 1.383.007 1.607-.14zm-73.347.634c-.191.001-.32.063-.399.182.16-.23.523-.23 1.156.004-.307-.112-.573-.187-.757-.185m.785.196c.69.259 1.692.791 3.11 1.615 3.05 1.774 3.664 2.491 4.942 5.758.377.964.618 1.35.715 1.305a.1.1 0 0 0 .026-.032q-.007.01-.014.016l-.012.008c-.1.036-.34-.352-.713-1.307-1.276-3.266-1.892-3.983-4.943-5.758-1.433-.833-2.421-1.35-3.111-1.605m-321.541.89.086.164.04-.037.005-.002zm329.289.48a.26.26 0 0 0-.194.114c.142-.178.385-.134.85.219-.289-.216-.515-.342-.656-.332m-203.412.11a51 51 0 0 0 1.576 3.71c1.655 3.503 3.454 6.372 5.348 8.696-1.893-2.323-3.691-5.194-5.346-8.697a51 51 0 0 1-1.578-3.709m204.525.614c.124.11.23.197.377.337l-.035-.044c-.145-.137-.22-.186-.342-.293m-66.305.109c.188 1.12.421 1.686.92 1.943l-.006-.011c-.49-.258-.722-.819-.908-1.916zm82.16 1.28c1.343 1.26 2.616 2.109 4.061 2.734 1.553.672 2.828 1.394 2.832 1.605a.31.31 0 0 1-.373.322c-.114-.017-.95-.158-1.525-.254.667.112 1.491.278 1.593.278.258 0 .41-.274.256-.465-.187-.233-1.126-.752-2.513-1.39-1.587-.73-2.472-1.277-3.596-2.216-.223-.186-.465-.384-.734-.615m.122 3.073.093.047.385.194c.512.255 1.166.482 1.912.664.138.034.5.085.85.146-1.26-.233-2.287-.552-3.139-1.039zm36.134.936c.391.192.906.413 1.526.65v-.002a19 19 0 0 1-1.526-.648m10.547.184-.01.084q.004-.043.012-.084zm-.01.085q-.004.045-.004.09v.004h.002v-.004zm-56.412.743v.011l.18.182-.006-.016zm-295.847 1.129c-1.628.058-3.47.093-5.319.093-3.5 0-5.618.013-6.894.096a1.6 1.6 0 0 1-.278.406c-.471.472-.24.606 1.035.606q.098 0 .196.006-.014-.023-.037-.024c-1.417-.08-1.499-.134-1.043-.691l.244-.3 6.027-.065 6.026-.063.066-.035zm28.49.046h.002zm115.002 1.877.006.034.2.802c.284 1.12.449 1.933.643 2.823-.194-.892-.357-1.702-.64-2.825zm-142.545 2.055a1.4 1.4 0 0 0-.322.07l.46.032-.01-.047q-.014-.06-.128-.055m311.709 3.96-.002.001v.002c.707 1.005 1.51 2.117 2.42 3.352l-.008-.02a188 188 0 0 1-2.41-3.336zm-216.016.837-.002.002q.307.23.613.445a23 23 0 0 1-.61-.447m2.574 1.676v.002zm237.787.873.014.002-.004-.002zm-310.601 2.492c-1.817-.048-3.044-.05-4.088.055 1.044-.105 2.271-.101 4.088-.053zm129.42 5.045c-.161 0-.297.017-.418.092.12-.073.256-.088.416-.088.141 0 .262.014.371.068a.8.8 0 0 0-.37-.072m-.475.133q-.022.016-.045.037v.002zm114.29.12q.482.26.892.475l.082-.043a8 8 0 0 1-.975-.431m-124.157.593-.002.002c1.322.473 3.088 1.073 4.272 1.44q1.472.456 1.992.88c-.348-.283-1.009-.58-1.992-.885a118 118 0 0 1-4.27-1.437m6.357 2.406h.002zm-8.703 3.639-.002.002c.01.01.037.032.047.043-.011-.013-.034-.033-.045-.045m110.284.474-.002.002 1.416 1.485c.188.197.36.398.511.593l.002-.002a8 8 0 0 0-.511-.593zm-107.616 1.96c.026.02.035.033.06.054 1.746 1.39 3.855 3.3 4.684 4.244.225.256.449.484.657.678a10 10 0 0 1-.655-.68c-.83-.945-2.937-2.855-4.683-4.244-.023-.018-.04-.035-.063-.053m6.496 5.614a.12.12 0 0 1-.074.028.12.12 0 0 0 .074-.026zm2.96 1.194-.014.011.013-.01zm-.092.037v.006l.002.002h.002l-.002-.006zm.004.012v.002h.012v-.002h-.01zm82.642.253-.002.012q0 .014.006.027a.1.1 0 0 1-.004-.029zm1.99.729q.033.005.065.012l.002-.002zm-81.425 2.87c.222.229.504.486.86.8 1.14.999 2.134 2.586 2.843 4.531.212.582.416 1.077.625 1.514a17 17 0 0 1-.623-1.518c-.71-1.944-1.704-3.53-2.842-4.53a15 15 0 0 1-.863-.798m10.02 1.177a.28.28 0 0 0-.192.078v.002q.238-.222.732.193c-.216-.18-.399-.277-.54-.273m.95.679c.106.118.245.314.364.461-.119-.147-.258-.344-.364-.46m1.998 2.803c.018.029.031.046.05.074v-.003c-.02-.032-.03-.04-.05-.07m.926 1.578c.69 1.346.872 2.401 1.004 4.809l.002.004c-.132-2.41-.315-3.466-1.006-4.813m44.522 2.03-.01.002.015-.002zm-52.4.861q.357.312.796.623c1.109.785 2.63 2.02 3.377 2.746q.32.311.563.514a11 11 0 0 1-.561-.516c-.75-.726-2.27-1.963-3.379-2.748a10 10 0 0 1-.797-.619m49.24.973c-.2.712.33 2.97.33 2.97.096 2.673.099 5.307-2.68 5.063-.24.391-.146 1.057-.146 1.057s-1.61-.955 1.068 3.111c1.46 2.217 3.024 4.694 3.474 5.504.14.25.356.624.624 1.072q.41.284.85.602c1.971 1.428 4.057 7.795 5.558 9.28a32 32 0 0 1 2.912 3.286zm165.22.25a.46.46 0 0 1-.207.111l.596.854a36 36 0 0 1-.389-.965m-203.779 6.393v.002h-.002v.002l.98.644a169 169 0 0 1 4.532 3.106c1.277.918 2.045 1.326 2.197 1.2v-.001c-.157.12-.925-.287-2.197-1.201a169 169 0 0 0-4.53-3.106zm-3.512 33.603c.26.17.556.384.842.608.28.039.12-.298-.842-.608m14.703 8.373.026.02c1.57 1.102 2.693 1.598 4.207 2.726v-.002c-1.524-1.136-2.653-1.637-4.233-2.744m-160.082 3.053c-.565.027-.87.047-.918.08h-.002l-.002.002v.01l.002.002.002.002.002.002.002.002c.05.037.317.091.795.184.634.122 1.026.432.866.689-.159.259.103.317.586.133.656-.252.773-.154.462.389-.144.251-.217.401-.21.447v.002l.001.002v.002l.002.002v.002h.002l.002.002h.004l.002.002h.002c.05 0 .208-.133.49-.397.605-.56.597-.73-.052-1.138-.418-.265-1.335-.454-2.037-.42zm-2.55 2.535a6 6 0 0 0-.567.01c-.9.058-1.769.31-2.646.754-3.606 1.821-5.46 4.478-5.46 7.822 0 2.283.06 2.308 3.473 1.496 1.317-.312 4.303-1.133 6.637-1.826s4.541-1.144 4.906-1.004c.488.187.645-.37.602-2.125-.057-2.307-.132-2.418-2.607-3.771-1.598-.873-3.007-1.321-4.338-1.356m218.119 24.068.02.016v-.002l-.005-.014zm-42.451 52.76c.09.18.16.293.207.322h.002l.002.002h.004l.002.002h.012a17 17 0 0 1-.229-.326m79.058 3.723-.08.035a.4.4 0 0 0 .08-.035" style="opacity:1;fill:url(#b);stroke-width:12.7725;stroke-linecap:round;stroke-linejoin:round"/></svg>