<svg xmlns="http://www.w3.org/2000/svg" xmlns:xlink="http://www.w3.org/1999/xlink" xml:space="preserve" width="512" height="512"><defs><linearGradient xlink:href="#a" id="b" x1="-204.257" x2="-204.257" y1="423.208" y2="679.208" gradientTransform="matrix(2 0 0 2 664.44 -846.49)" gradientUnits="userSpaceOnUse"/><linearGradient id="a"><stop offset="0" style="stop-color:#e37f95;stop-opacity:1"/><stop offset=".169" style="stop-color:#e37f95;stop-opacity:1"/><stop offset=".169" style="stop-color:#f2b382;stop-opacity:1"/><stop offset=".338" style="stop-color:#f2b382;stop-opacity:1"/><stop offset=".338" style="stop-color:#fdef9f;stop-opacity:1"/><stop offset=".514" style="stop-color:#fdef9f;stop-opacity:1"/><stop offset=".514" style="stop-color:#b7e898;stop-opacity:1"/><stop offset=".679" style="stop-color:#b7e898;stop-opacity:1"/><stop offset=".679" style="stop-color:#8dcae8;stop-opacity:1"/><stop offset=".852" style="stop-color:#8dcae8;stop-opacity:1"/><stop offset=".852" style="stop-color:#b198ce;stop-opacity:1"/><stop offset="1" style="stop-color:#b198ce;stop-opacity:1"/></linearGradient></defs><path d="M.063-.074a.15.15 0 0 0-.137.152v322.348c16.732-3.964 27.168-5.999 51.697-10.268 6.915-1.203 14.403-3.134 16.64-4.29 2.238-1.158 5.542-2.145 7.34-2.194l3.272-.092-3.201-1.285c-5.412-2.176-3.728-5.036 4.02-6.824 3.97-.917 9.57-1.683 12.445-1.703l5.226-.04-3.912-2.423c-2.151-1.334-3.91-2.919-3.91-3.52s4.748-1.092 10.553-1.092c7.758 0 15.012 1.281 27.38 4.838 9.255 2.662 26.037 7.213 37.295 10.111 11.26 2.9 24.973 6.801 30.475 8.672 11.703 3.98 14.397 4.24 13.258 1.27-1.187-3.094.977-2.658 10.371 2.084l8.354 4.217 2.136-3.15c1.91-2.816 2.476-2.948 5.324-1.233 2.897 1.744 3.093 1.68 2.149-.711-.571-1.446-1.393-4.744-1.826-7.328-.608-3.62-1.316-4.482-3.08-3.754-5.232 2.159-6.264 1.294-8.582-7.193-2.383-8.723-2.484-8.8-10.065-7.65-3.35.507-3.606.083-4.402-7.32-.708-6.576-2.749-12.87-5.022-15.478-.277-.318-2.08 1.123-4.006 3.201-4.795 5.175-6.336 4.74-5.529-1.556 1.223-9.534-.44-10.247-20.728-8.893-9.702.648-19.798.827-22.434.399-6.2-1.007-10.758-6.774-21.143-26.754-7.532-14.494-8.024-16.04-7.482-23.537.782-10.808 9.73-26.24 17.865-30.813 16.357-9.193 55.679-20.85 84.971-25.187 22.985-3.404 22.045-3.071 22.045-7.801 0-6.392 1.336-8.522 7.23-11.53 7.14-3.642 7.394-3.57 6.233 1.717l-.988 4.498 3.91-3.076c5.315-4.18 6.89-3.89 5.894 1.094l-.834 4.172 5.188-2.168c10.11-4.224 23.342-6.145 35.828-5.201l11.969.904-4.145 3.596c-2.647 2.296-3.17 3.23-1.447 2.582 5.296-1.993 22.855-2.67 27.025-1.041 3.942 1.539 4.004 1.698 1.422 3.652-2.626 1.988-2.62 2.044.248 2.088 3.462.053 28.29 11.88 29.688 14.143.63 1.02-1.045 1.548-4.924 1.548h-5.883l4.73 3.809c17.364 13.974 22.818 23.593 9.46 16.686l-4.378-2.264 5.895 10.441c14.559 25.79 37.17 73.596 37.996 80.332l.848 6.916-3.574-4.267-3.575-4.266 1.221 6.4c.67 3.52 2.612 10.24 4.316 14.934 3.692 10.169 5.927 43.211 2.791 41.274-.96-.594-2.577-3.056-3.593-5.473-1.828-4.348-1.857-4.297-2.659 4.793-.445 5.053-1.191 18.47-1.66 29.812-1.122 27.189-4.202 39.731-7.072 28.803-.842-3.207-1.524-1.486-3.79 9.553-2.76 13.435-5.027 18.674-6.823 15.767-.504-.815-2.983 3.574-5.508 9.75-14.055 33.713-39.448 60.189-63.604 86.819h186.916c.086 0 .155-.07.155-.155V.078a.153.153 0 0 0-.155-.152z" style="fill:url(#b);stroke-width:12.7725;stroke-linecap:round;stroke-linejoin:round"/></svg>