<svg xmlns:xlink="http://www.w3.org/1999/xlink" xml:space="preserve" width="399.339" height="163.213" viewBox="0 0 105.658 43.183"><defs><linearGradient id="c" x1="26.81" x2="62.2" y1="149.9" y2="137.73" gradientUnits="userSpaceOnUse"><stop offset="0" stop-color="#4285f4"/><stop offset=".39" stop-color="#4183f2"/><stop offset=".53" stop-color="#3f7cec"/><stop offset=".63" stop-color="#3b70e2"/><stop offset=".71" stop-color="#365fd4"/><stop offset=".78" stop-color="#2f49c1"/><stop offset=".84" stop-color="#272faa"/><stop offset=".87" stop-color="#231f9d"/></linearGradient><linearGradient id="g" x1="40.84" x2="57.82" y1="163.26" y2="163.85" gradientUnits="userSpaceOnUse"><stop offset="0" stop-color="#4285f4"/><stop offset=".45" stop-color="#4183f2"/><stop offset=".61" stop-color="#3f7cec"/><stop offset=".72" stop-color="#3b70e2"/><stop offset=".82" stop-color="#365fd4"/><stop offset=".9" stop-color="#2f49c1"/><stop offset=".97" stop-color="#272faa"/><stop offset="1" stop-color="#231f9d"/></linearGradient><linearGradient id="h" x1="68.47" x2="68.47" y1="141.08" y2="131.9" gradientUnits="userSpaceOnUse"><stop offset=".34" stop-color="#4285f4"/><stop offset="1" stop-color="#231f9d"/></linearGradient><linearGradient id="i" x1="38.88" x2="73.36" y1="123.05" y2="123.05" gradientUnits="userSpaceOnUse"><stop offset=".59" stop-color="#4285f4"/><stop offset="1" stop-color="#231f9d"/></linearGradient><linearGradient id="a" x1="81.94" x2="87.32" y1="152.74" y2="161.77" gradientUnits="userSpaceOnUse"><stop offset="0" stop-color="#4285f4"/><stop offset=".2" stop-color="#4081f0"/><stop offset=".4" stop-color="#3d75e6"/><stop offset=".6" stop-color="#3761d5"/><stop offset=".79" stop-color="#2e45be"/><stop offset=".98" stop-color="#2422a0"/><stop offset="1" stop-color="#231f9d"/></linearGradient><linearGradient xlink:href="#a" id="k" x1="58.83" x2="75.75" y1="157.82" y2="186.2"/><linearGradient id="l" x1="69.89" x2="60.68" y1="171.86" y2="161.88" gradientUnits="userSpaceOnUse"><stop offset="0" stop-color="#231f9d"/><stop offset=".08" stop-color="#262ba7"/><stop offset=".36" stop-color="#3252c8"/><stop offset=".61" stop-color="#3b6ee0"/><stop offset=".83" stop-color="#407fee"/><stop offset="1" stop-color="#4285f4"/></linearGradient><linearGradient id="n" x1="25.28" x2="36.69" y1="158.84" y2="152.09" gradientUnits="userSpaceOnUse"><stop offset="0" stop-color="#4285f4"/><stop offset=".45" stop-color="#4183f2"/><stop offset=".61" stop-color="#3f7cec"/><stop offset=".72" stop-color="#3b70e2"/><stop offset=".82" stop-color="#365fd4"/><stop offset=".9" stop-color="#2f49c1"/><stop offset=".97" stop-color="#272faa"/><stop offset="1" stop-color="#231f9d"/></linearGradient><linearGradient id="p" x1="33.04" x2="1.55" y1="147.84" y2="162.99" gradientUnits="userSpaceOnUse"><stop offset="0" stop-color="#231f9d"/><stop offset=".03" stop-color="#272faa"/><stop offset=".1" stop-color="#2f49c1"/><stop offset=".18" stop-color="#365fd4"/><stop offset=".28" stop-color="#3b70e2"/><stop offset=".39" stop-color="#3f7cec"/><stop offset=".55" stop-color="#4183f2"/><stop offset="1" stop-color="#4285f4"/></linearGradient><linearGradient xlink:href="#a" id="j" x1="81.94" x2="87.32" y1="152.74" y2="161.77" gradientUnits="userSpaceOnUse"/><clipPath id="b" clipPathUnits="userSpaceOnUse"><path fill-rule="evenodd" stroke-width=".265" d="M114.312 155.713h13.854v16.553h-13.854z"/></clipPath><clipPath id="q" clipPathUnits="userSpaceOnUse"><path fill-rule="evenodd" stroke-width=".265" d="M68.792 121.888h7.377v15.653h-7.377z"/></clipPath><clipPath id="o" clipPathUnits="userSpaceOnUse"><path fill-rule="evenodd" stroke="#040415" stroke-width=".84" d="M25.189 137.53H-1.052v26.302h26.241z"/></clipPath><clipPath id="m" clipPathUnits="userSpaceOnUse"><path fill-rule="evenodd" stroke="#040415" stroke-width=".943" d="M100.829 111.815H32.823v75.083h68.006z"/></clipPath></defs><path fill="none" d="M69.675.914h35.983v41.9H69.675Z"/><path fill="none" d="M0 0h83.333v43.183H0Z"/><path fill="none" d="M10.196 2.525h72.309v13.683H10.196Z"/><path fill="#fff" d="M110.28 171.94h-2.82v-15.775h2.82zm4.856-15.32a37 37 0 0 1 2.58-.513q1.608-.273 3.7-.273 1.88 0 3.125.53 1.244.528 1.984 1.487.744.955 1.046 2.29.306 1.332.306 2.94v8.86h-2.82v-8.252q0-1.455-.198-2.485-.198-1.033-.653-1.67a2.6 2.6 0 0 0-1.215-.926q-.757-.29-1.877-.29-.456 0-.943.034-.483.029-.926.074-.438.045-.79.108-.347.058-.5.09v13.317h-2.82z" clip-path="url(#b)" transform="translate(-39.158 -139.555)"/><path fill="#fff" d="M10.239 32.059q-.59 0-1.278-.033-.685-.03-1.373-.091-.689-.058-1.362-.15-.674-.09-1.236-.243V11.157q.562-.153 1.236-.244t1.362-.15q.688-.061 1.362-.09.673-.033 1.262-.033 1.684 0 3.157.273 1.476.273 2.555.926 1.083.653 1.699 1.715.62 1.063.62 2.609 0 1.728-.762 2.836-.757 1.108-2.02 1.654 1.714.545 2.724 1.728t1.01 3.336q0 3.158-2.15 4.75-2.146 1.592-6.806 1.592m-2.552-9.98v7.4q.306.033.727.062.367.029.857.045.494.017 1.136.017 1.21 0 2.288-.165 1.083-.17 1.894-.596.815-.426 1.305-1.182.493-.757.493-1.91 0-1.034-.363-1.745-.364-.715-1.052-1.136-.69-.426-1.646-.608-.952-.182-2.13-.182zm0-2.369h2.862q1.01 0 1.909-.149.9-.153 1.557-.545.662-.397 1.04-1.034.38-.637.38-1.608 0-.91-.395-1.53-.394-.624-1.082-1-.685-.38-1.615-.562-.926-.182-1.962-.182-1.041 0-1.63.029-.59.028-1.064.09zm19.567 12.47q-2.414-.058-3.428-1.12-1.01-1.063-1.01-3.308V8.82l2.613-.484v18.96q0 .698.11 1.153.116.454.368.727.253.273.674.41.42.136 1.036.227zm14.907-.757q-.9.244-2.373.517-1.472.273-3.412.273-1.684 0-2.835-.53-1.152-.533-1.856-1.504-.7-.972-1.01-2.29-.306-1.32-.306-2.928v-8.859h2.61v8.252q0 2.881.841 4.126.846 1.244 2.839 1.244.42 0 .868-.029.452-.033.842-.079.394-.045.716-.09.325-.046.466-.104v-13.32h2.61zm3.676-7.404q0-2.092.563-3.655t1.488-2.592q.926-1.033 2.13-1.546 1.21-.517 2.472-.517 2.95 0 4.523 1.989 1.572 1.984 1.572 6.048v.471q0 .29-.03.534H48.56q.169 2.455 1.32 3.729 1.152 1.273 3.593 1.273 1.377 0 2.314-.256.941-.257 1.42-.5l.367 2.364q-.478.273-1.672.575-1.194.306-2.709.306-1.909 0-3.301-.62-1.39-.625-2.288-1.716-.895-1.092-1.332-2.592-.436-1.505-.436-3.295m10.024-1.546q.027-1.91-.888-3.138-.91-1.228-2.51-1.228-.898 0-1.587.38-.685.377-1.163.984-.478.608-.746 1.398-.264.785-.348 1.604z"/><g data-name="Layer 2"><path fill="url(#c)" d="m24.37 136.89 16.32 22.08 19.48-17.86z" transform="matrix(-.26703 0 0 .31114 80.208 -25.527)"/><path fill="url(#g)" d="m48.89 186.36 9.81-19.92 1.47-25.33-19.48 17.86" transform="matrix(-.26703 0 0 .31114 80.208 -25.527)"/><path fill="url(#h)" d="m58.22 166.44 20.5-15.64-5.35-19.38-13.2-.36" transform="matrix(-.26703 0 0 .34448 80.208 -31.077)"/><path fill="url(#i)" d="m41.34 119.95-2.46 10.54 34.48.93-15.4-16.73z" transform="matrix(-.26703 0 0 .31114 80.147 -26.633)"/><path fill="url(#j)" d="m85.38 163.73-5.85-7.95 5.85-4.35" transform="matrix(-.26703 0 0 .31114 80.208 -25.527)"/><path fill="url(#k)" d="M63.91 164.31v3.07l-3.77 7.06-1.75 3.59 1.75.87 19.58 7.46H48.94l-.08-.11 9.36-19.81 21.5-18.74" transform="matrix(-.26703 0 0 .31114 80.208 -25.527)"/><path fill="url(#l)" d="m63 161.01 14.19-15.49 8.19 5.91-21.47 15.95-5.52 10.65-9.45 8.33 9.32-20" transform="matrix(-.26703 0 0 .31114 80.208 -25.527)"/></g><g clip-path="url(#m)" data-name="Layer 3" transform="matrix(-.2682 0 0 .31559 80.208 -26.177)"><path fill="url(#n)" d="M24.37 136.89 0 160.64l23.96-4.87 20.34 14.31-3.61-11.11"/></g><g clip-path="url(#o)" data-name="Layer 4" transform="matrix(-.43191 -.01807 -.01157 .27525 84.996 -20.049)"><path fill="url(#p)" d="M40.77 159.23.26 160.59l24.11-23.7" transform="matrix(1 0 0 1.06706 0 -10.77)"/></g><path fill="#fff" d="M71.347 137.55h-2.82v-15.776h2.82zm4.855-15.32a37 37 0 0 1 2.58-.513q1.608-.273 3.7-.273 1.881 0 3.125.529 1.245.53 1.985 1.488.743.955 1.046 2.29.306 1.332.305 2.94v8.86h-2.819v-8.252q0-1.456-.198-2.485-.199-1.034-.654-1.67a2.6 2.6 0 0 0-1.215-.926q-.756-.29-1.877-.29-.454 0-.943.033-.483.03-.926.075-.438.045-.79.107-.345.059-.5.091v13.316h-2.819z" clip-path="url(#q)" transform="translate(2.393 -105.155)"/></svg>