<svg xmlns="http://www.w3.org/2000/svg" xml:space="preserve" width="5000" height="3000"><path d="M3056.178 2335.925c-7.319 1.485-14.047 1.571-20.23.278-35.296-7.39-59.75-50.232-43.457-78.759 14.239-24.933 199.625-105.377 247.037-104.694 22.07.328 12.55 17.286-39.289 72.075-51.58 54.539-90.41 87.343-120.033 102.306-8.677 4.384-16.669 7.3-24.028 8.794m-7.068-41.248a19.5 19.5 0 0 0 5.473-1.92c3.126-1.687 5.259-4.209 5.648-7.128.764-5.87-6.465-6.388-15.967-1.172-10.366 5.7-10.804 9.814-1.235 10.54 2.109.159 4.147.054 6.081-.32m-15.324 233.92c-27.029.964-54.69-8.262-65.365-24.053-16.538-24.465-2.16-45.431 65.4-90.633 72.67-48.603 179.366-144.133 258.12-235.262 41.58-48.132 70.392-72.11 74.029-60.901 4.614 14.221-94.265 194.665-136.403 253.018-53.452 74.01-127.81 139.573-169.098 153.233-8.45 2.795-17.566 4.273-26.683 4.598m-9.003-29.104c4.417-.336 9.818-1.556 15.897-3.69 15.198-5.337 27.362-15.087 26.791-21.65-.625-7.164-12.678-7.863-29.394-1.756-15.192 5.55-26.718 15.233-25.875 21.55.565 4.229 5.249 6.104 12.58 5.546m219.414 54.764c-43.135 4.038-43.054-69.743 24.854-158.68 19.44-25.464 47.412-75.889 62.046-112.775 47.47-119.65 55.773-113.47 46.348 32.737-6.594 102.266-42.59 185.643-87.708 217.81-14.114 10.062-26.114 16.186-36.12 19.06-3.356.967-6.495 1.574-9.42 1.848m15.818-48.222a7.6 7.6 0 0 0 1.59-.31v-.01c4.464-1.367 10.631-7.003 16.848-16.517 8.395-12.827 7.467-14.211-6.675-9.876-8.931 2.716-16.533 10.512-16.956 17.242-.428 6.707 1.686 9.73 5.196 9.47z" style="fill:#d45500;fill-opacity:1;stroke-width:12.6253" transform="rotate(-10.254 5043.08 -1594.34)scale(.81616)"/><path d="M3504.538 2270.308c-9.604 1.884-19.74.74-27.705-4.343-20.687-13.193-32.53-46.068-34.744-100.776-2.126-52.776 2.041-57.94 22.63-26.418 8.119 12.44 22.67 27.977 32.41 34.71 23.735 16.413 43.656 56.539 37.549 73.63-3.297 9.214-11.303 16.3-20.74 20.31h-.01a47.4 47.4 0 0 1-9.392 2.883zm-1.53-20.24q.286-.072.564-.184v-.01c1.012-.368 1.888-1.177 2.635-2.344 2.99-4.693 3.614-11.89 1.337-15.988-2.29-4.12-7.896-5.758-12.413-3.61-4.493 2.134-4.98 9.392-1.147 16.065 2.67 4.645 6.166 6.803 9.028 6.07z" style="fill:#d45500;fill-opacity:1;stroke-width:10.3043"/><path d="M3172.176 574.951c-67.812-1.02-89.341 17.912-44.47 45.301 34.414 20.994 92.904 23.939 226.35 11.34 159.432-15.067 221.246-23.552 189.33-30.791-19.155-4.337-72.033-8.214-157.863-12.803-71.99-3.843-153.677-8.957-181.511-11.355-11.518-.994-22.149-1.546-31.836-1.692M364.369 608.045c-159.184-3.157-254.152 93.252-299.904 158.174-99.455 141.145-120.058 493.362 228.088 718.678 126.393 81.79 145.989 90.704 282.867 128.363 135.936 37.41 235.126 54.566 539.1 93.316 249.444 31.81 340.163 27.543 390.865-18.35 42.116-38.132 31.233-64.572-48.084-116.916-183.348-69.676-357.836-85.095-549.194-96.298-76.506-4.433-99.693-1.198-103.53 14.363-3.14 12.726-6.136 13.952-8.173 3.35-3.794-19.748-86.763-38.983-90.304-20.932-1.337 6.814 5.611 13.968 15.423 15.893 9.825 1.927 19.848 8.807 22.284 15.28 2.435 6.474-35.294 1.325-83.844-11.429-82.076-21.556-91.152-21.395-129.322 2.33-47.182 29.33-64.142 28.614-92.618-3.9-20.19-23.067-20.117-23.44 7.291-37.168 15.237-7.625 37.469-11.95 49.387-9.611 11.919 2.338 25.598.03 30.383-5.143 4.797-5.17-23.69-18.877-63.29-30.428-105.768-30.9-189.522-97.096-261.76-206.9-233.141-354.438 18.117-504.852 42.058-518.11 83.977-46.504 240.865-35.039 342.515 25.057 27.946 16.521 53.11 28.471 55.957 26.547h.004l.002-.002.006-.002c.031-.019.088-.106.088-.106-33.315-39.015-79.493-86.327-204.097-118.226-25.406-4.897-49.457-7.38-72.198-7.83m3413.426 49.877c-66.435-1.705-160.56 20.207-187.645 46.258-42.39 40.78-47.06 150.897-8.28 195.16 9.89 11.294 29.396 21.386 43.345 22.424 27.529 2.055 35.924-27.228 40.947-143.014-6.04-120.544 173.32-134.194 223.84-59.016 10.955 16.302 20.988 24.189 22.293 17.536 4.956-25.262-56.357-69.043-108-77.116-8.084-1.264-17.01-1.989-26.5-2.232m-356.943 2.76c-2.11-.024-4.548.058-7.284.197-18.369.9-58.349 14.634-88.8 30.494-72.467 37.737-206.21 146.295-200.13 162.451 9.643 25.617 34.838 16.935 102.108-35.176 37.9-29.361 102.978-77.245 144.582-106.408 53.654-37.593 67.272-48.971 54.842-51.127-1.425-.28-3.208-.408-5.318-.431m-154.94 29.271c-9.574-.147-52.296 21.933-122.01 65.404-114.28 71.246-157.836 112.468-166.726 157.788-9.586 48.862 30.558 31.661 90.232-38.653 33.102-39.013 94.644-96.417 136.766-127.562 49.658-36.705 69.102-55.483 62.56-56.895a4.3 4.3 0 0 0-.822-.082m-122.53 3.426q-4.638.04-10.642.63c-37.778 3.822-95.758 38.88-89.92 54.372 6.62 17.612 12.117 16.672 66.09-11.402 46.095-23.985 61.27-40.204 42.389-43.124q-3.276-.515-7.916-.476m327.245 7.996c-25.024-.903-21.09 32.113 18.316 78.84 21.534 25.53 41.466 44.867 44.319 42.982 12.019-8.012-7.848-96.156-23.932-106.246-13.543-8.485-24.695-13.285-33.312-14.937q-2.887-.55-5.391-.639m-3341.256 27.48q.227-.01.406.026l.012.002c2.168.425-.881 5.873-7.896 17.17-7.828 12.617-22.333 40.65-32.207 62.258-19.74 43.165-27.644 51.844-35.932 39.527-9.76-14.523 31.313-92.72 57.205-108.947 10.26-6.43 16.144-9.931 18.412-10.035m3267.78 34.42c-10.558-.459-19.38 2.332-25.493 8.934-11.229 12.117 97.565 120.729 144.033 143.83 42.696 21.216 48.772 1.848 15.748-50.111-35.426-55.712-91.86-97.532-129.662-102.246v-.012a58 58 0 0 0-4.629-.395zm-63.971 53.356c-8.676-.497-16.063 3.26-17.233 9.223-1.336 6.814 5.934 14.03 16.155 16.035s19.677-1.93 21.013-8.744c1.337-6.815-5.931-14.029-16.152-16.034a28 28 0 0 0-3.783-.48m590.213 51.455c-6.25-.021-14.351 3.596-19.196 8.838-5.549 5.988-1.39 12.593 9.227 14.676 10.63 2.085 20.41-1.786 21.746-8.6 1.337-6.814-2.823-13.421-9.229-14.678a13.5 13.5 0 0 0-2.548-.236m-550.705 15.191c-12.007-.076-23.814 1.009-35.155 3.332-27.639 5.656-47.849 16.653-44.916 24.46 3.07 8.154 58.99 24.605 131.627 38.855l126.283 24.644-32.19-31.62c-29.17-28.638-68.852-48.363-109.292-56.09l-.01.05c-12.135-2.316-24.341-3.554-36.348-3.63zm-147.758 29.477c-7.144-.156-22.132 24.595-40.852 72.05-66.495 168.443-64.818 280.5 5.844 388.966 107.5 165.052 318.338 57.235 161.701-88.551-78.813-73.345-143.497-237.66-126.883-322.352 6.477-33.017 5.974-49.34.524-50.088a3 3 0 0 0-.334-.025m-79.64 23.695-.01.049c-2.465-.226-14.252 9.685-27.66 23.395-35.11 35.942-92.041 155.685-88.554 186.244 1.792 15.79 12.448 24.829 30.328 25.763 25.434 1.323 29.883-7.52 57.737-114.877 16.614-63.965 29.466-118.067 28.566-120.238v-.002c0-.02.015-.122-.098-.144-.124-.025-.186-.166-.31-.19zm672.417.237c-45.852-.255-66.03 9.48-58.684 29.005 6.784 18.018 58.704 25.54 168.024 24.303 147.876-1.676 148.09-18.114.523-42.02-45.597-7.386-82.352-11.136-109.863-11.288m-442.23 43.039c-14.273.304-19.425 12.503-9.616 27.115 7.957 11.84 29.506 4.437 32.57-11.186 1.257-6.405-6.075-13.297-16.296-15.302-2.394-.47-4.62-.67-6.658-.627m309.08 21.777c-18.44-.576-33.805 3.462-47.307 11.592-34.605 20.834-43.622 68.636-17.021 90.375 29.007 23.703 160.432 67.91 327.01 110.006 77.373 19.553 142.648 38.483 145.056 42.082 2.41 3.586 12.76 8.15 22.98 10.156 28.272 5.546 19.59-1.819-108.459-92.092-151.685-106.927-242.242-159.094-302.75-169.986-6.875-1.236-13.363-1.941-19.51-2.133m-186.26 2.158c-32.98-1.336-81.805 31.095-87.48 60.027-2.62 13.356-3.104 24.61-1.085 25.006s29.834-17.306 61.793-39.341c49.156-33.883 54.263-40.82 33.14-44.963-2.041-.4-4.17-.64-6.368-.729m51.603 22.6c-16.076-.46-48.114 36.8-53.7 63.312-6.985 33.111 1.649 36.58 37.452 15.016 24.842-14.94 21.334-14.96 22.66 4.445.856 12.494 10.516 25.686 10.516 25.686s10.203-13.053 11.028-44.078c.318-11.723-9.248-18.9-16.094-16.332-6.837 2.582-10.17-6.794-7.418-20.819 2.754-14.037 1.423-26.211-2.926-27.064h-.012a9 9 0 0 0-1.506-.164zm-225.728 33.045c-8.676-.497-16.063 3.26-17.233 9.222-1.336 6.814 5.934 14.03 16.155 16.035s19.677-1.93 21.013-8.744-5.933-14.03-16.154-16.035a28 28 0 0 0-3.781-.478m453.428 23.443c2.22 0 5.404.522 9.386 1.496h.012c44.625 10.993 189.603 79.112 201.922 97.443 3.296 4.906-47.9-1.637-113.773-14.56-71.585-14.043-118.776-28.474-117.322-35.883 1.336-6.814 15.044-10.26 30.455-7.687 27.744 4.632 27.746 4.49.402-13.2-16.808-10.862-22.294-21.46-14-27.011.6-.404 1.586-.597 2.918-.6zm-419.618 50.576c-9.503.504-19.523 5.099-24.752 14.34-4.804 8.488 2.462 16.565 17.602 19.535 15.214 2.985 27.392-2.95 29.645-14.435 1.954-9.961-4.482-16.37-13.36-18.6-2.856-.721-5.967-1.008-9.135-.84m-3271.564 11.31a14 14 0 0 1 2.686.264c7.21 1.415 8.57 7.473 3.033 13.463-5.55 5.988-12.539 10.405-15.55 9.815-2.997-.588-4.37-6.647-3.032-13.461 1.17-5.962 6.668-10.09 12.863-10.08m18.924 42.731c2.051-.043 4.294.16 6.713.635 10.22 2.005 16.944 12.007 14.94 22.229-3.797 19.351-19.482 21.717-30.944 4.66-10.021-14.912-5.068-27.223 9.29-27.524m3303.103 9.174c-17.515-.866-40.357 13.105-34.728 28.068 6.446 17.116 36.638 21.469 49.857 7.207 6.04-6.521 6.139-18.969.285-27.695-2.73-4.048-7.014-6.342-11.992-7.203a28 28 0 0 0-3.422-.377m-420.158 26.322c-12.38.251-25.459 1.951-39.273 5.082-78.228 17.72-115.798 62.649-120.408 144.06-5.131 90.754-1.278 249.57 6.724 276.987 6.43 21.989 12.19 20.364 53.748-15.19 25.606-21.917 73.167-57.05 105.7-78.073 122.856-79.419 164.56-169.031 117.878-253.287-23.233-41.985-52.58-67.106-89.299-75.97-11.012-2.661-22.69-3.86-35.07-3.609m211.4 13.797c.094 0 .189.01.288.016v-.014c4.06.424 12.976 9.737 26.511 28.822 15.248 21.506 52.398 60.818 82.573 87.362l54.863 48.254-44.117-8.526c-50.763-9.804-70.409-28.299-102.31-96.404-18.065-38.588-23.675-59.498-17.81-59.51zm-3055.285 9.254q.642.023 1.282.148c6.814 1.337 11.358 7.683 10.101 14.088-1.259 6.418-8.54 14.022-16.178 16.885-7.64 2.876-12.184-3.47-10.101-14.088 1.955-9.965 8.474-17.261 14.896-17.033m2303.2 3.496c-41.524 1.283-76.47 34.527-72.026 73.506 3.472 30.376 74.747 89.877 171.469 143.152 145.247 79.996 190.025 135.458 191.467 237.176.351 24.836 2.254 49.823 4.263 55.518 8.098 22.997 13.485 9.18 20.225-51.871 11.273-102.26 2.557-159.68-35.394-233.346-58.36-113.334-164.484-203.553-261.913-222.666l.01.016a81 81 0 0 0-18.101-1.484zm339.648 14.725c-8.077-.351-11.402 12.75-14.023 48.605-2.228 30.57-.252 73.685 4.398 95.826 11.185 53.298 23.917 24.532 28.426-64.234 2.05-40.357-3.189-72.674-12.635-78.039a16.4 16.4 0 0 0-5.37-2.084 8 8 0 0 0-.796-.074m-105.504 3.742c-12.602-.274-6.248 14.504 23.969 59.049 23.357 34.405 44.497 62.072 47.242 61.851 6.84-1.874-12.192-61.678-28.756-90.377-8.069-13.96-25.17-27.453-37.992-29.968h.051c-1.704-.334-3.21-.525-4.514-.553zm316.887.068a19.5 19.5 0 0 1 5.38.664c.93.311 1.881.588 2.821.979 21.391 8.88 20.62 15.958-11.322 101.26-20.947 55.948-1.258 63.862 41.738 16.78 31.837-34.86 44.04-21.632 24.6 26.7-5.793 14.38-30.611 41.585-55.14 60.433l-44.587 34.278 28.137-37.504c35.67-47.516 30.238-55.31-20.445-29.383l-40.182 20.54 13.316-28.858c7.32-15.87 20.12-44.907 28.416-64.508l15.084-35.639-39.045 30.94c-21.466 17.017-40.451 37.904-42.12 46.416-1.673 8.523-9.047 14.307-16.32 12.88-7.594-1.49-7.789-12.502-.491-25.828 15.173-27.696 2.425-33.347-22.75-10.084-14.3 13.213-15.019 6.716-3.524-32.007 8.169-27.475 26.489-55.867 42.172-65.309 26.727-16.089 27.466-15.145 20.332 25.682l-7.404 42.343 34.295-48.904c20.222-28.827 34.32-41.646 47.039-41.871m457.57 22.922c-6.36.147-1.78 23.787 10.592 53.797 36.234 87.932 23.492 160.093-45.938 260.002-63.065 90.749-70.918 135.243-28.478 161.568 36.59 22.695 100.863 6.92 130.79-32.111 139.492-181.898-28.042-435.687-66.315-443.196a3 3 0 0 0-.65-.06zM170.59 1302.673c.837-.01 1.687.067 2.539.235 6.814 1.337 11.296 8.006 9.959 14.82s-8.006 11.296-14.82 9.96c-6.814-1.338-11.296-8.007-9.96-14.821 1.17-5.962 6.422-10.138 12.282-10.194m2267.908 21.125c2.469.067 6.164.623 11.09 1.502l-.014.01c22.502 4.003 156.394 102.666 154.238 113.655-.649 3.308-2.557 5.623-4.223 5.129-9.253-2.742-131.655-86.98-150.197-103.368-14.655-12.949-18.3-17.13-10.894-16.927zm-2225.643 25.764c.838-.01 1.688.067 2.54.235 6.814 1.336 11.295 8.006 9.959 14.82s-8.007 11.296-14.82 9.959c-6.815-1.337-11.297-8.006-9.96-14.82 1.17-5.963 6.422-10.138 12.281-10.194m1808.93 9.512c-13.995.605-27.334 5.889-35.742 16.185-21.534 26.346-20.796 75.65 2.168 145.309 20.057 60.802 27.073 64.984 38.947 23.145 4.85-17.113 16.484-40.485 25.864-51.961 23.246-28.454 33.58-88.016 19.033-109.68-8.067-12.004-21.73-19.484-36.201-22.053h-.014a64.7 64.7 0 0 0-14.055-.943zm128.27 16.914c-7.967-.435-17.378 3.572-22.407 12.447-5.51 9.727-.776 15.493 12.659 15.35 11.835-.123 22.315-5.864 23.293-12.748 1.158-8.136-3.633-13.091-10.235-14.592a20 20 0 0 0-3.31-.457m-1847.752 7.281a68 68 0 0 1 6.783.04q1.937.089 3.867.41l.004-.013c19.419 3.128 39.333 22.293 67.09 64.174 30.603 46.197 54.614 67.62 89.85 80.233 43.752 15.633 44.934 17.217 13.24 17.574-39.454.43-143.54-56.49-183.549-100.389-30.996-34.016-29.192-60.524 2.715-62.03zm1726.533 5.643q.414.001.834.064v.014c1.51.167 3.032 1.006 4.535 2.394 5.988 5.55 9.859 15.327 8.6 21.744-1.257 6.406-7.862 10.566-14.676 9.229s-10.687-11.115-8.604-21.733c1.466-7.468 5.167-11.75 9.313-11.712zm-269.441 9.127c-58.154-1.554-26.505 87.635 83.58 174.039 28.251 22.178 69.778 64.509 92.285 94.064 65.046 85.415 71.592 79.917 39.773-33.408-26.381-93.95-86.626-179.052-150.552-212.719-21.026-11.072-38.403-17.66-52.256-20.43-4.679-.937-8.954-1.443-12.83-1.546m159.619 3.295c-8.79.083-16.668 6.347-18.422 15.29-2.005 10.222 4.716 20.224 14.937 22.23 10.221 2.004 20.226-4.717 22.23-14.938 2.006-10.222-4.716-20.226-14.937-22.23a19 19 0 0 0-3.808-.352m357.906 10.091c-36.582 2.224-72.075 9.93-103.309 23.48-74.533 32.34-149.028 125.735-151.921 190.462-5.081 113.652 53.639 224.947 143.744 272.408 24.429 12.872 113.415 37.174 197.744 54 118.56 23.67 166.354 38.644 210.734 65.967 31.567 19.444 60.882 36.528 65.149 37.996 27.667 9.416 53.517-112.449 44.498-209.774-12.5-134.675-96.853-306.617-183.249-373.511-31.185-24.143-70.87-41.565-113.556-51.612v-.012c-35.586-8.37-73.254-11.628-109.836-9.404zm-614.488 19.994c-7.533.33-16.487 5.358-22.137 15.338-4.288 7.56 1.027 15.487 11.818 17.604 10.822 2.123 21.311-4.962 23.475-15.776 2.011-10.252-2.938-16.008-10.03-17.019a17 17 0 0 0-3.126-.147m1534.67 16.26c-7.445-.042-24.798 8.326-43.114 21.248l-40.605 28.662 46.463-19.96c25.554-10.967 43.848-23.873 40.62-28.674-.395-.59-1.062-.98-2-1.153a7.4 7.4 0 0 0-1.364-.123m-849.137.293c5.312.091 11.803.846 19.52 2.36 97.775 19.18 267.97 231.857 279.435 349.18 3.026 31.137 1.71 59.158-2.928 62.275s-6.76-2.793-4.728-13.15c5.867-29.908-78.669-194.36-129.102-251.098-25.293-28.468-77.025-67.309-114.941-86.327-63.75-31.981-84.438-63.878-47.256-63.24m-860.1 1.903c-39.388 1.532-72.996 16.173-77.097 37.08-6.186 31.53 28.377 54.199 145.05 95.164 112.199 39.38 263.247 110.26 362.579 170.107 46.712 28.154 75.728 40.279 77.29 32.313 2.01-10.246-127.38-135.997-189.097-183.807-88.38-68.454-214.002-135.156-278.29-147.768-13.534-2.655-27.305-3.6-40.435-3.09m309.446 5.22c.627 0 1.314.066 2.054.211v.012c5.922 1.162 15.312 7.071 25.903 17.293 13.99 13.488 13.324 15.107-4.758 11.727-11.547-2.137-23.352-10.165-26.215-17.803-2.893-7.694-1.375-11.41 3.017-11.44zm-1296.934 8.58c-1.484.087-2.96.285-4.418.59-11.375 1.976-21.118 5.789-21.643 8.465-1.968 10.035 22.741 9.017 32.323-1.326 3.93-4.242 3.013-7.02-1.803-7.662h-.002a30.5 30.5 0 0 0-4.457-.066zm2945.172 11.588-41.41 47.844c-22.767 26.335-41.84 50.102-42.37 52.803-2.138 10.902 17.126 7.347 42.35-7.84 15.011-9.034 29.936-32.84 34.043-54.434zm-1951.658 11.604c6.333-.08 14.548.798 24.207 2.693 23.849 4.679 45.7 14.754 48.576 22.395 3.103 8.25-12.391 10.435-38.149 5.382-23.849-4.678-45.7-14.754-48.576-22.394-1.94-5.157 3.387-7.945 13.942-8.076m745.146 2.96c1.788.104 3.624.335 5.502.704 29.313 5.75 37.635 42.944 13.953 62.267-22.36 18.232-33.362 15.752-47.855-10.841-14.404-26.43 1.58-53.684 28.4-52.13m-1650.357.048q5.566-.079 11.707.845h.011c27.29 4.131 63.098 23.134 106.952 56.877 56.008 43.075 71.809 49.56 121.896 50.02 31.657.292 77.492-4.793 101.848-11.285l44.312-11.815-35.957 19.334c-19.776 10.633-56.566 21.093-81.76 23.266-57.634 4.956-222.224-28.053-259.277-51.996-46.531-30.062-57.734-49.499-37.879-65.713 7.615-6.207 17.016-9.378 28.147-9.535zm2794.244 9.744c-4.552-.129-12.726 3.792-20.854 10.424-12.071 9.854-14.406 16.769-6.18 18.382 14.967 2.936 37.031-17.129 30.12-27.414a3.26 3.26 0 0 0-2.225-1.31 6 6 0 0 0-.861-.082m-2422.73 2.808c23.45 1.178 47.423 3.755 70.415 7.72 30.654 5.28 59.559 13.034 83.168 23.198 42.272 18.2 37.882 18.805-54.53 7.444-86.248-10.59-109.833-8.295-166.325 16.222-36.201 15.723-71.952 27.379-79.447 25.909-17.382-3.41-23.723-37.785-9.764-52.866 20.467-22.086 86.13-31.159 156.482-27.627m2565.15 3.532-.047.04.396.079c1.428 1.772-1.61 18.7-8.072 53.998-7.129 38.897-21.444 76.257-33.23 86.76-19.381 17.272-50.583 21.277-47.608 6.113.734-3.742 12.955-21.442 27.137-39.297 14.184-17.867 34.868-52.601 45.994-77.18 8.729-19.31 13.68-30.123 15.43-30.513m-324.723 7.123c-13.49-.037-30.24 2.915-47.033 9.174-19.084 7.102-23.866 11.734-10.617 10.306 13.236-1.43 37.56.046 54.037 3.28 16.477 3.232 31.05.302 32.387-6.512 1.562-7.967-5.13-13.14-16.495-15.215v-.012c-3.652-.665-7.786-1.01-12.283-1.022zm-1944.299 9.316c15.64-.412 33.653 1.838 52.508 6.2 62.846 14.515 135.023 52.503 159.719 93.527 8.812 14.633 12.897 32.173 9.074 38.937s-11.259 1.317-16.47-12.12c-7.903-20.387-28.206-28.126-122.079-46.542-115.393-22.637-156.397-46.443-121.008-70.225 9.353-6.29 22.617-9.365 38.256-9.777m1080.073 5.574c1.937.064 3.905.273 5.892.635 7.334 1.31 14.958 4.749 22.297 10.756 27.055 22.11 22.727 63.19-7.219 68.406-29.748 5.19-37.265 2.596-50.832-17.576-21.34-31.772.806-63.187 29.862-62.22m-1742.446.072c-4.475.274-1.5 3.89 8.414 13.46 8.926 8.608 24.592 17.291 34.813 19.296 16.515 3.24 16.775 1.916 2.355-12.004-8.925-8.608-24.591-17.291-34.812-19.297-5.161-1.012-8.736-1.579-10.77-1.455m269.364 2.198c-6.23.022-16.381 4.161-26.458 11.28-11.945 8.426-18.042 12.877-17.7 14.218l.097.022c1.002 1.058 8.705-1.02 23.69-5.325 17.524-5.053 29.123-13.225 25.786-18.189a4.8 4.8 0 0 0-2.976-1.871l-.023.11q-1.08-.252-2.417-.245zm2431.019 12.101c-9.011-.563-16.643 3.147-17.812 9.11-1.337 6.814 2.82 13.419 9.226 14.675 6.418 1.26 16.21-2.609 21.746-8.6 5.55-5.987 1.39-12.592-9.228-14.675a30 30 0 0 0-3.932-.51m-1176.844 14.473q1.14.062 2.358.267l-.01.037c4.323.72 9.336 2.784 14.937 6.301 10.084 6.314 12.819 18.468 6.455 28.606-14.179 22.564-32.931 18.86-37.527-7.49-3.213-18.422 2.38-28.353 13.785-27.721zm-812.265.69a31 31 0 0 0-4.899.482c-10.989 1.91-20.41 5.671-20.935 8.347-.528 2.689 7.408 6.509 17.629 8.514s19.642-1.756 20.937-8.36c.89-4.534-2.596-7.753-8.416-8.714a26.5 26.5 0 0 0-4.316-.27m-738.573 2.79q.327-.001.61.053c2.998.588 4.37 6.647 3.033 13.461s-8.328 11.234-15.55 9.817c-7.211-1.415-8.57-7.471-3.034-13.461 5.202-5.614 11.672-9.849 14.941-9.87m503.446 1.016c9.051.442 18.896 1.772 29.562 4 35.549 7.411 80.236 24.772 135.06 52.37 34.59 17.412 80.566 29.983 119.063 32.53 85.363 5.656 76.273 19.13-17.82 26.43-85.929 6.675-195.71-2.857-241.375-20.937-92.977-36.819-116.475-81.197-49.29-93.067 7.491-1.322 15.748-1.768 24.8-1.326m5.396 27.201c-4.106-.056-7.548.376-10.068 1.387-10.585 4.24 3.669 13.958 37.09 25.262 29.86 10.103 58.64 20.085 63.95 22.195 5.312 2.11 7.58-1.717 5.022-8.485-5.063-13.473-50.868-33.2-81.931-38.818h-.012c-5.175-.938-9.945-1.48-14.051-1.537zm2084.688 4.975c-45.863-.44-93.02 9.882-130.25 30.504-122.735 67.978-280.481 250.287-297.733 344.13l-8.716 47.387 38.054-47.472c51.994-64.81 171.077-126.762 321.32-167.137 152.038-40.86 210.769-74.229 220.83-125.52 6.521-33.24 2.132-39.338-44.119-61.123-16.476-7.76-34.916-13.32-54.36-16.71l-.01-.015c-14.585-2.555-29.729-3.898-45.016-4.045zm-717.78 2.994q1.418.094 2.801.406l.01.016c4.114.936 7.958 3.374 10.866 7.701 7.197 10.727 3.951 18.943-10.569 26.85-15.474 8.44-22.48 7.299-26.855-4.367-6.25-16.593 9.594-31.555 23.748-30.606zm-250.921 2.006c7.506-.202 17.302.986 29.794 3.49 59.224 11.863 185.324 68.79 228.819 103.312 40.408 32.09 111.936 125.712 122.615 160.538 8.002 26.105-.054 33.53-9.416 8.65-11.117-29.573-119.474-101.919-218.941-146.186-124.472-55.386-178.135-91.594-173.182-116.843 1.653-8.425 7.8-12.625 20.31-12.961m493.39 23.441 3.623 52.176c1.963 28.69 4.149 59.52 4.858 68.498 2.296 29.219 14.28 19.81 21.474-16.861 3.862-19.687-1.297-51.101-11.46-69.795zm-1697.877 8.158c1.288.08 2.601.247 3.93.508 10.617 2.083 14.765 8.686 9.228 14.676-5.536 5.99-15.326 9.86-21.744 8.601-6.405-1.256-10.565-7.863-9.228-14.677 1.17-5.962 8.803-9.67 17.814-9.108m634.797 25.909c-9.31-.367-17.316.487-24.045 2.55-38.565 11.837-46.097 53.833-13.558 75.668 27.172 18.235 245.615 51.272 290.513 43.946 20.603-3.37 7.97-14.132-56.28-47.926-70.368-37.028-124.953-60.075-164.77-69.469-11.942-2.818-22.552-4.403-31.86-4.77m882.59 14.443c.837-.01 1.687.069 2.539.236 6.814 1.337 11.296 8.005 9.959 14.819s-8.006 11.295-14.82 9.959-11.296-8.005-9.96-14.819c1.17-5.962 6.422-10.14 12.282-10.195m-355.602 7.291c2.61 0 5.286.274 7.98.818 12.936 2.666 26.322 11.558 34.977 27.448 9.984 18.298 8.46 24.56-8.457 34.777-25.362 15.301-58.765 1.8-63.556-25.72-4.232-24.224 10.792-37.342 29.056-37.323m1069.014 5.726c7.515-.182 14.007.077 19.016.78h.014c12.022 1.676 15.5 5.91 4.084 12.69-21.322 12.67-253.104 80.229-251.762 73.39 2.688-13.703 85.659-55.399 145.83-73.29 28.52-8.492 60.273-13.023 82.818-13.572zm-1585.84 10.641c2.371.05 4.737.346 7.059.889 4.265 1.017 7.743 2.895 9.408 5.357 3.306 4.92-4.59 6.41-17.543 3.315-14.317-3.427-16.661-6.95-6.012-8.965a34 34 0 0 1 7.088-.596m1972.645 12.041c-6.25-.02-14.351 3.597-19.196 8.838-5.549 5.988-1.389 12.593 9.229 14.676 10.63 2.085 20.41-1.788 21.746-8.602 1.337-6.814-2.823-13.419-9.228-14.676a13.5 13.5 0 0 0-2.551-.236m-1063.533 14.207q.681.027 1.398.197c1.735.47 3.634 1.486 5.508 3.217 5.988 5.55 10.405 12.54 9.814 15.551-.588 2.998-6.647 4.37-13.46 3.033-6.815-1.337-11.232-8.328-9.815-15.55.85-4.337 3.376-6.571 6.555-6.448m-274.883 8.389c2.388.066 4.806.318 7.213.742 16.042 2.826 31.494 13.255 33.189 26.453 1.096 8.578-10.054 19.321-24.785 23.842-32.664 10.022-61.734-28.193-35.086-46.111 5.422-3.636 12.305-5.124 19.469-4.926m90.004 41.293c.837-.01 1.687.069 2.539.236 6.814 1.337 11.293 8.004 9.957 14.818-1.337 6.814-8.005 11.296-14.819 9.96-6.814-1.337-11.295-8.005-9.959-14.819 1.17-5.962 6.422-10.14 12.282-10.195m-159.87 22.738c.858-.03 1.929.042 3.225.217 13.813 1.86 53.205 15.454 130.877 42.476 68.191 23.735 145.31 58.55 171.38 77.354 26.071 18.804 41.262 33.453 33.767 32.574-7.499-.866-16.159-5.384-19.266-10.008-3.12-4.626-61.485-24.926-129.695-45.088-79.761-23.585-138.473-48.354-164.55-69.423-22.28-18.013-34.022-27.81-25.737-28.102m219.385 1.803c.837-.01 1.686.069 2.537.236 6.814 1.337 11.296 8.004 9.96 14.818-1.337 6.815-8.005 11.296-14.819 9.96-6.814-1.337-11.296-8.005-9.959-14.819 1.17-5.962 6.422-10.14 12.281-10.195m760.338 2.873c-7.05-.133-23.663 5.496-47.781 13.767-239.381 82.227-313.607 128.148-328.457 203.19-5.738 29.25-1.716 35.045 28.762 41.023 49.89 9.788 95.514-17.3 225.666-134.039 101.902-91.377 135.655-121.836 123.08-123.84h.012a9 9 0 0 0-1.282-.105zm-1161.627 39.431c-3.812.215-7.672 1.954-10.574 5.09-5.648 6.097-1.551 12.77 9.066 14.852 21.768 4.27 26.41-2.539 11.309-16.527a12.67 12.67 0 0 0-6.041-3.116 13.8 13.8 0 0 0-3.76-.299m1003.96 69.23-35.651 34.82c-19.607 19.144-40.829 33.804-47.172 32.56-17.717-3.476-13.657-7.774 36.387-38.703zm995.466 48.837c-42.286 6.302-89.165 10.632-121.303 10.107 32.138.525 79.017-3.805 121.303-10.107m-121.303 10.107c-10.712-.174-19.787-.89-26.508-2.25 6.721 1.36 15.796 2.076 26.508 2.25m183.383 55.159c1.77.121 3.581.215 5.14.486-1.557-.27-3.365-.363-5.132-.485zm-327.445 2.177c-2.08-.01-3.625.139-4.662.444 1.036-.305 2.582-.454 4.662-.444m-1234.867 13.979c-6.978.062-15.118.665-24.963 1.629-142.96 24.221-236.875 140.608-346.397 222.816-34.06 24.814-62.998 74.937-69.693 120.738-1.78 12.221 4.098 8.884 14.764-8.36 18.349-29.724 111.363-67.341 285.119-115.353 52.372-14.467 122.7-39.14 156.265-54.8 52.316-24.411 61.572-34.084 64.737-67.66 2.361-24.96-6.738-50.65-25.034-70.786-14.257-15.663-23.472-23.518-36.812-26.61-5.194-1.2-11.009-1.677-17.986-1.614m11.962 54.22c5.494-.15 10.576.23 15.155 1.125 18.299 3.59 28.533 15.426 24.822 34.344-3.619 18.448-30.94 32-106.893 53.01-56.116 15.52-106.494 27.357-111.945 26.287-16.676-3.271 68.556-72.765 120.815-98.525 21.385-10.54 41.566-15.786 58.046-16.24m1335.616 64.358c6.183 1.76 11.524 2.849 15.65 3.07-4.126-.221-9.467-1.31-15.65-3.07m20.628 2.867c-1.343.236-2.931.308-4.742.223 1.812.085 3.398.013 4.743-.223m-1020.78 36.045c-1-.035-1.834.194-2.467.62-25.452 17.102-98.014 373.884 9.212 225.673 14.565-20.134 57.427-61.155 95.245-91.15 73.425-58.237 97.085-98.112 49.554-83.532-38.825 11.914-93.45-2.07-121.375-31.093-10.921-11.355-22.685-19.401-29.117-20.393a7 7 0 0 0-1.053-.125m20.78 53.738q1.207-.026 2.497.268v.014c4.805 1.084 10.538 5.437 18.119 12.637 10.366 9.856 7.879 18.014-11.045 36.238-33.94 32.66-45.841 26.363-30.766-16.315 7.933-22.486 13.41-32.678 21.197-32.841zm-693.785 117.487c-39.623-2.187-64.742 13.776-69.1 44.826-2.69 19.157-1.07 21.212 5.712 7.297 31.362-64.379 133.16 13.784 172.508 132.472 16.366 49.413 40.025 102.052 68.035 109.198 17.599 4.468 43.016-25.863 49.539-59.116 13.586-69.255-119.39-217.374-208.854-232.623-6.229-1.06-12.182-1.742-17.838-2.054zm783.842 58.214c-37.887-.833-84.453 14.77-98.281 36.825-32.195 51.31 40.189 102.988 230.943 164.88 69.856 22.66 154.126 50.54 187.268 61.956 90.746 31.272 108.964 35.143 98.176 20.945-18.28-24.017-351.748-264.414-386.934-278.92a72 72 0 0 0-15.588-4.293c-4.937-.819-10.171-1.273-15.584-1.393m-650.365 53.706 31.438 46.142c21.472 31.553 28.265 55.156 21.468 74.652-8.382 24.037-13.3 16.78-31.412-46.136zm728.951 62.873c1.756.036 3.817.283 6.092.691v.014c15.956 2.873 43.382 14.376 65.518 27.79 53.651 32.525 31.929 30.193-44.108-4.704-33.379-15.323-43.596-24.17-27.498-23.791zm-774.75 37.79c-6.249-.02-14.35 3.597-19.195 8.838-5.55 5.988-1.391 12.595 9.226 14.678 10.63 2.086 20.41-1.787 21.747-8.601s-2.824-13.42-9.229-14.676a13.5 13.5 0 0 0-2.549-.238m24.315 69.356c-9.317.63-12.465 11.553-12.082 38.928 1.289 91.936-11.028 167.049-35.317 215.24-8.816 17.495-15.63 35.657-18.707 48.787-2.128 9.077.816 24.893 7.637 31.276 24.794 23.201 70.534-39.811 80.252-120.926 12.145-101.394 3.358-208.89-17.406-212.963-1.59-.312-3.046-.432-4.377-.342m42.021 36.787c-6.23-.233 3.65 17.882 30.379 54.649 26.444 36.374 52.01 94.937 64.455 147.582 21.387 90.552 42.986 111.103 75.234 71.652 32.612-39.92 1.708-113.246-83.628-198.459-49.264-49.188-78.365-74.454-86.131-75.398a3 3 0 0 0-.309-.025zm977.951 36.33c-7.103.296 13.294 18.698 59.352 56.055 41.712 33.838 85.78 77.568 97.914 97.176 12.13 19.62 48.677 54.67 81.21 77.906 32.535 23.237 66.05 43.965 74.499 46.022 30.483 7.459 17.426-15.637-27.06-47.794-40.058-28.958-62.21-113.974-199.089-187.568-48.1-25.866-76.082-39.91-85.037-41.615q-1.077-.211-1.789-.182m159.733 44.971c-15.536.362.914 18.81 49.568 55.63 70.792 53.567 163.022 87.175 168.102 61.282 1.336-6.814-17.083-16.216-40.932-20.894-46.992-9.219-96.396-81.429-170.707-95.415v-.012c-1.989-.39-4.007-.606-6.033-.591zm-1017.037 84.256c1.795.223 5.368 5.092 11.117 13.63 8.694 12.938 11.992 32.719 7.324 43.987-5.831 14.115-10.737 6.796-15.781-23.502-4.034-24.169-5.377-34.443-2.664-34.103zm-192.204 54.568c.03 0 .058 0 .086.01h.012c.863.18 1.595 1.468 2.125 4.186 1.748 9.194-.985 23.134-6.074 30.974-5.116 7.848-6.56.32-3.219-16.714 2.314-11.791 5.023-18.495 7.07-18.454z" style="fill:#00426a;fill-opacity:1;stroke-width:12.6253"/><path d="M3795.63 701.44a105.47 105.47 0 0 0-123.8 83.182 105.47 105.47 0 0 0 83.195 123.804 105.47 105.47 0 0 0 123.815-83.193 105.47 105.47 0 0 0-83.21-123.793m-7.272 37.068a67.67 67.67 0 0 1 53.377 79.445 67.67 67.67 0 0 1-79.434 53.38 67.67 67.67 0 0 1-53.378-79.434 67.67 67.67 0 0 1 79.435-53.391" style="fill:#00426a;fill-opacity:1;fill-rule:evenodd;stroke:none;stroke-width:444.205;stroke-linejoin:round;stroke-dashoffset:.48;stroke-opacity:1"/><circle cx="3859.679" cy="63.103" r="47.118" style="fill:#00426a;fill-opacity:1;fill-rule:evenodd;stroke:none;stroke-width:198.421;stroke-linejoin:round;stroke-dashoffset:.48;stroke-opacity:1" transform="rotate(11.099)"/><path d="M3684.557 1001.502c-18.44-.575-33.805 3.462-47.307 11.592-34.605 20.834-43.622 68.636-17.021 90.375 29.007 23.703 160.432 67.91 327.01 110.006 77.373 19.553 142.648 38.483 145.056 42.082 2.41 3.586 12.76 8.15 22.98 10.156 28.272 5.546 19.59-1.819-108.459-92.092-151.685-106.927-242.242-159.094-302.75-169.986-6.875-1.236-13.363-1.941-19.51-2.133m93.043 81.246c2.22 0 5.404.522 9.386 1.496h.012c44.625 10.993 189.603 79.112 201.922 97.444 3.296 4.905-47.9-1.639-113.773-14.561-71.585-14.043-118.776-28.474-117.322-35.883 1.336-6.814 15.044-10.26 30.455-7.687 27.744 4.632 27.746 4.49.402-13.2-16.808-10.862-22.294-21.46-14-27.011.6-.404 1.586-.597 2.918-.6zm40.108-146.062c-45.852-.255-66.03 9.48-58.684 29.005 6.784 18.018 58.704 25.54 168.024 24.303 147.876-1.676 148.09-18.114.523-42.02-45.597-7.386-82.352-11.136-109.863-11.288m225.397-138.614c-20.994-.942-40.026 4.022-58.786 14.748-8.515 4.87-103.753 85.134 146.596 134.246 59.22 11.618 111.856 16.67 116.951 11.159 15.212-16.418-64.656-103.144-123.347-133.983-22.105-11.605-41.703-19.336-59.705-23.254-7.497-1.631-14.712-2.602-21.71-2.916m64.832 47.198a41 41 0 0 1 8.564.687l-.102.057c8.809 1.599 17.633 6.264 29.381 14.062 17.757 11.795 39.806 33.978 49.024 49.295 7.917 13.158 13.085 23.153 12.81 24.553l-.024.125-.01-.002-.117-.024c-.124-.024-.246-.049-.346-.197-2.51-1.83-37.596-11.929-77.992-22.44-88.343-22.991-101.724-37.748-52.48-57.783 12.97-5.271 22.543-8.128 31.289-8.334z" style="fill:#000;fill-opacity:1;stroke-width:8.52188;stroke-linecap:round;stroke-linejoin:round"/><path d="M2021.785 1359.074c-13.995.605-27.334 5.89-35.742 16.186-21.534 26.345-20.796 75.65 2.168 145.308 20.057 60.803 27.073 64.984 38.947 23.145 4.85-17.112 16.484-40.485 25.864-51.961 23.246-28.454 33.58-88.016 19.033-109.68-8.067-12.003-21.73-19.484-36.201-22.052h-.014a64.7 64.7 0 0 0-14.055-.944zm7.05 29.838q.415.001.835.064v.014c1.51.168 3.032 1.006 4.535 2.395 5.988 5.549 9.859 15.326 8.6 21.744-1.257 6.405-7.862 10.565-14.676 9.228s-10.687-11.115-8.604-21.732c1.466-7.468 5.167-11.75 9.313-11.713zm-269.44 9.127c-58.154-1.554-26.505 87.635 83.58 174.04 28.251 22.177 69.778 64.508 92.285 94.064 65.046 85.414 71.592 79.917 39.773-33.409-26.381-93.95-86.626-179.052-150.552-212.718-21.026-11.073-38.403-17.66-52.256-20.43-4.679-.938-8.954-1.443-12.83-1.547m-271.53 51.836c-39.388 1.533-72.996 16.173-77.097 37.08-6.186 31.53 28.377 54.2 145.05 95.164 112.199 39.38 263.247 110.26 362.579 170.108 46.712 28.154 75.728 40.278 77.29 32.312 2.01-10.246-127.38-135.996-189.097-183.807-88.38-68.454-214.002-135.156-278.29-147.767-13.534-2.655-27.305-3.601-40.435-3.09m309.446 5.22c.627 0 1.314.067 2.054.212v.012c5.922 1.161 15.312 7.07 25.902 17.293 13.99 13.487 13.325 15.106-4.757 11.726-11.547-2.136-23.352-10.165-26.215-17.803-2.893-7.693-1.375-11.409 3.017-11.44zm-303.42 31.772c6.333-.079 14.548.799 24.207 2.694 23.849 4.678 45.7 14.754 48.576 22.394 3.103 8.251-12.391 10.436-38.149 5.383-23.849-4.679-45.7-14.754-48.576-22.395-1.94-5.157 3.387-7.944 13.942-8.076m127.898 169.13c-9.31-.367-17.316.486-24.045 2.55-38.565 11.836-46.097 53.833-13.558 75.668 27.172 18.235 245.615 51.271 290.513 43.945 20.603-3.369 7.97-14.131-56.28-47.926-70.368-37.027-124.953-60.075-164.77-69.468-11.942-2.818-22.552-4.404-31.86-4.77m10.162 38.1c2.371.05 4.737.346 7.059.89 4.265 1.016 7.743 2.894 9.408 5.357 3.306 4.92-4.59 6.409-17.543 3.314-14.317-3.426-16.661-6.95-6.012-8.965a34 34 0 0 1 7.088-.595" style="fill:#d45500;fill-opacity:1;stroke-width:12.6253"/><path d="M2300.018 2647.016c-9.317.63-12.465 11.552-12.082 38.927 1.289 91.936-11.029 167.05-35.317 215.24-8.816 17.495-15.63 35.657-18.707 48.788-2.128 9.076.816 24.892 7.637 31.275 24.794 23.202 70.534-39.81 80.252-120.926 12.145-101.394 3.358-208.89-17.406-212.963-1.59-.312-3.047-.431-4.377-.341m42.021 36.787c-6.23-.234 3.65 17.882 30.379 54.648 26.444 36.375 52.01 94.938 64.455 147.582 21.387 90.552 42.986 111.103 75.234 71.652 32.611-39.92 1.708-113.245-83.629-198.458-49.263-49.189-78.364-74.454-86.13-75.399a3 3 0 0 0-.309-.025m120.646 165.556c1.796.224 5.37 5.093 11.118 13.631 8.694 12.938 11.992 32.718 7.324 43.987-5.831 14.115-10.737 6.796-15.781-23.502-4.034-24.17-5.377-34.443-2.664-34.104zm-192.203 54.569c.03 0 .058 0 .086.01h.012c.863.179 1.595 1.468 2.125 4.185 1.748 9.195-.985 23.134-6.074 30.975-5.116 7.848-6.56.32-3.219-16.715 2.313-11.79 5.023-18.494 7.07-18.453zm1049.508-183.795c-7.103.296 13.294 18.698 59.352 56.055 41.712 33.837 85.78 77.568 97.914 97.175 12.13 19.62 48.677 54.67 81.21 77.907 32.535 23.236 66.05 43.965 74.499 46.021 30.483 7.46 17.426-15.637-27.06-47.793-40.058-28.958-62.21-113.974-199.089-187.568-48.1-25.866-76.082-39.91-85.037-41.615q-1.077-.213-1.789-.182m159.733 44.97c-15.536.362.914 18.811 49.568 55.631 70.792 53.567 163.022 87.175 168.102 61.282 1.336-6.814-17.083-16.216-40.932-20.895-46.992-9.218-96.396-81.428-170.707-95.414l.002-.012c-1.989-.39-4.007-.606-6.033-.591m644.978-840.772c-83.997 13.551-172.106-2.175-254.435 23.733-16.415 6.48-13.998 9.642 11.16 14.732 53.768 10.882 258.177-19.587 246.644-36.748-.54-.788-1.701-1.364-3.369-1.717m-446.596 69.712c-.246 3.88-.169 7.182.367 9.464 7.152 30.473 44.567 68.6 104.266 105.965 71.358 44.645 135.774 63.881 116.133 34.67-50.27-28.646-86.058-78.125-131.967-111.756-24.657-15.182-3.143-13.483 98.178 7.822 114.224 24.003 137.092 25.092 191.209 9.076 33.81-10.029 55.252-21.8 47.654-26.16a24.1 24.1 0 0 0-7.5-2.438h.012c-9.083-1.576-22.262-.624-33.449 2.817-18.685 5.726-72.065-4.256-171.357-32.033-52.365-13.954-105.527-24.63-158.848-34.291-24.98-4.527-53.091 11.592-54.698 36.864" style="fill:#000;fill-opacity:1;stroke-width:12.6253"/><path d="M3500.215 1942.272c-159.365 4.698-352.522 28.28-444.947 57.953-82.91 26.63-161.314 113.263-151.82 167.709a23 23 0 0 0 .35 1.648 189 189 0 0 0 4.735 8.455c23.465 23.316 127.499-.893 411.114-92.137 132.513-42.63 237.09-74.603 281.386-88.01 18.08-4.774 39.482-8.502 41.854-30.572-.026-12.78-9.861-23.398-22.602-24.402l-.02-.019c-34.421-1.723-71.03-1.922-120.05-.625m-5.545 18.322 54.742 3.418-54.789 16.953c-30.131 9.31-110.997 36.803-179.697 61.113-68.713 24.308-151.893 49.896-184.846 56.863-120.242 25.431-161.338 14.757-123.139-32.005 22.601-27.655 106.515-68.138 166.866-80.512 72.25-14.8 258.063-29.761 320.863-25.83m-552.744 11.494q-.137 0-.41.115c-21.424 21.873 2.665-.123.41-.115" style="fill:#00426a;fill-opacity:1;stroke-width:12.6253"/><path d="M3160.18 1593.488c-45.863-.44-93.02 9.882-130.25 30.504-122.735 67.979-280.481 250.287-297.733 344.131l-8.716 47.387 38.054-47.473c51.994-64.809 171.077-126.761 321.32-167.137 152.038-40.86 210.769-74.228 220.83-125.52 6.521-33.24 2.132-39.337-44.119-61.122-16.476-7.761-34.916-13.321-54.36-16.711l-.01-.014c-14.585-2.555-29.729-3.898-45.016-4.045m57.611 89.967c7.515-.183 14.007.077 19.016.78h.014c12.022 1.676 15.5 5.91 4.084 12.689-21.322 12.671-253.104 80.23-251.762 73.39 2.688-13.702 85.659-55.398 145.83-73.289 28.52-8.493 60.273-13.023 82.818-13.572zm-41.754 113.982c-7.05-.132-23.663 5.497-47.781 13.768-239.381 82.227-313.607 128.148-328.457 203.19-5.738 29.25-1.716 35.044 28.762 41.023 49.89 9.787 95.514-17.3 225.666-134.04 101.902-91.376 135.655-121.835 123.08-123.839a9 9 0 0 0-1.27-.105zm-157.668 108.665-35.65 34.82c-19.607 19.145-40.829 33.805-47.172 32.56-17.717-3.475-13.657-7.773 36.387-38.703zm206.561-993.348c-7.144-.156-22.132 24.595-40.852 72.05-66.495 168.443-64.818 280.5 5.844 388.966 107.5 165.052 318.338 57.235 161.701-88.551-78.813-73.345-143.497-237.66-126.883-322.352 6.477-33.017 6.004-50.566.524-50.088-6.77.59-.334-.025-.334-.025m-79.64 23.695-.01.049c-2.465-.226 1.316 2.458.417.287v-.002c0-.02.015-.122-.098-.144-.124-.025-.187-.165-.31-.19zm54.396 300.21c.092-.001.188.01.287.015v-.014c4.06.423 12.976 9.737 26.511 28.822 15.248 21.506 52.398 60.818 82.573 87.362l54.863 48.254c-73.292-6.984-113.86-38.062-146.428-104.93-18.064-38.588-23.674-59.498-17.809-59.51z" style="fill:#d45500;fill-opacity:1;stroke-width:12.6253"/><path d="m3145.29 936.45-.01.048c-2.465-.226-14.252 9.685-27.66 23.395-35.11 35.942-92.041 155.685-88.554 186.244 1.792 15.79 12.448 24.829 30.328 25.763 25.434 1.323 29.883-7.52 57.737-114.877 16.614-63.965 29.465-118.067 28.566-120.238v-.002c0-.02.015-.122-.098-.144-.124-.025-.187-.165-.31-.19z" style="fill:#d45500;fill-opacity:1;stroke-width:12.6253"/></svg>