<svg xmlns="http://www.w3.org/2000/svg" xml:space="preserve" width="5000" height="3000"><rect width="5000" height="3000" ry="2.435" style="fill:#fff;fill-rule:evenodd;stroke-width:.789243"/><g style="fill:#00426a;fill-opacity:1" transform="rotate(11.099 152580.022 -38539.736)scale(12.62532)"><path d="M1098.246 2262.041c-1.555-.045-5.724.46-12.465 1.412-5.654.799-12.081 1.647-14.281 1.885-7.283.787-9.729 2.902-5.266 4.553 2.995 1.107 7.586.444 17.766-2.57 12.162-3.602 16.837-5.204 14.246-5.28m21.184.635c-5.181.2-14.021 3.901-15.973 6.687-2.673 3.816-1.357 12.446 2.332 15.295.941.727 2.611 1.214 3.711 1.082 2.171-.26 2.377-2.664 1.002-11.74-.618-4.084-.42-4.747 2.158-7.164 1.562-1.465 3.74-2.754 4.84-2.865 4.689-.474 7.625.154 9.5 2.029 1.1 1.1 2 1.56 2 1.023 0-2.039-5.433-4.507-9.57-4.347m-29.375 5.84c-.23 0-.562.069-.983.174-1.414.35-4.312 2.027-6.437 3.724-5.057 4.038-13.797 14.515-13.078 15.678 1.14 1.844 2.966.785 7.4-4.291 2.498-2.86 6.826-7.574 9.615-10.475 3.597-3.74 4.482-4.832 3.483-4.81m51.771 1.134c-2.43-.05-4.35.654-6.076 2.147-2.575 2.228-2.15 3.99 1.5 6.215 2.58 1.573 5.042 1.984 11.941 1.984 4.78 0 8.948-.41 9.26-.916.932-1.508-6.598-7.031-11.63-8.533-1.895-.565-3.536-.867-4.995-.897m-47.273 1.285c-2.482.012-1.83 2.648 2.197 5.881 2.063 1.656 3.907 2.855 4.1 2.665.812-.806-2.076-7.354-3.48-7.893-1.182-.453-2.122-.656-2.817-.653m51.969 1.428c.709-.01 1.466.218 2.498.645 1.56.646 3.612 2.034 4.562 3.084.816.902 1.37 1.6 1.37 1.713v.01q-.001 0 0 0h-.01c-.01 0-.02 0-.03-.01-.223-.104-3.104-.354-6.404-.555-7.217-.44-8.482-1.383-4.96-3.691 1.237-.81 2.07-1.194 2.981-1.202zm-68.418.832c-.621-.01-3.642 2.365-8.551 6.95-7.796 7.28-10.553 11.148-10.553 14.806 0 3.944 2.858 1.995 6.424-4.38 1.978-3.537 5.886-8.937 8.685-12 3.3-3.61 4.525-5.366 3.995-5.376m-8.914 2.057q-.525.02-1.44.295c-2.878.873-6.85 4.482-6.16 5.597.783 1.268 1.196 1.111 4.963-1.894 3.217-2.567 4.149-4.059 2.637-3.998m20.533 1.607c-1.004.07-1.783.43-2.211 1.123-.688 1.113 9.424 7.896 13.388 8.983 3.642.998 3.819-.6.46-4.135-3.603-3.79-8.627-6.18-11.637-5.97m42.336.141c-.518 0-1.22.45-1.559 1-.34.55.084 1 .941 1 .858 0 1.559-.45 1.559-1s-.424-1-.941-1m-46.559 5c-.825 0-1.5.45-1.5 1s.675 1 1.5 1 1.5-.45 1.5-1-.675-1-1.5-1m47.9 1.166c-9.751.323-14.22 1.698-12.83 3.947.802 1.297 4.952 1.09 13.43-.673 11.468-2.385 11.234-3.666-.6-3.274m-41.234 3.16c-1.957.01-3.87.36-5.562 1.067-2.062.861-3.465 2.024-3.118 2.586.363.587 4.96 1.013 10.823 1.013l10.191-.01-2.984-1.967c-2.704-1.781-6.089-2.709-9.35-2.693zm24.711 4.574c-2.213.035-3.815.637-5.049 1.754-2.372 2.147-2.344 6 .055 7.284 2.616 1.4 13.505 2.832 27.094 3.564 6.312.34 11.674.816 11.916 1.059.242.242 1.116.439 1.941.439 2.282 0 1.495-.44-9.834-5.504-13.42-5.998-21.254-8.672-26.123-8.596m-38.6.239c-.559.032-1.36 2.189-2.103 6.226-2.6 14.106-.761 22.79 6.385 30.143 3.767 3.877 4.926 4.492 8.449 4.492 3.001 0 4.732-.65 6.537-2.455 4.138-4.138 3.166-7.078-3.768-11.385-7.244-4.499-14.777-16.284-14.777-23.12 0-2.665-.288-3.926-.723-3.901m13.223 2.86c-1.546 0-1.987 1.18-.861 2.307.799.799 2.361-.105 2.361-1.366 0-.517-.675-.941-1.5-.941m9.89 0c-2.635 0-6.39 3.549-6.39 6.04 0 1.078.134 1.96.297 1.96s2.055-1.8 4.203-4c3.304-3.383 3.595-4 1.89-4m-28.968.203c-.195.02-.96.97-1.793 2.24-2.181 3.329-4.78 13.504-4.043 15.826.38 1.2 1.346 1.74 2.75 1.54 1.997-.285 2.208-1.04 2.736-9.809.316-5.225.49-9.626.387-9.781-.001-.001 0-.01-.01-.01s-.017-.01-.027-.01zm32.937.797c-1.25 0-3.297 3.535-3.328 5.75-.038 2.68.686 2.818 3.14.596 1.703-1.54 1.43-1.488 1.829 0 .257.958 1.209 1.836 1.209 1.836s.594-1.17.185-3.594c-.154-.916-1.007-1.328-1.5-1.024-.492.305-.894-.373-.894-1.505 0-1.133-.289-2.059-.64-2.059m19.192.902c3.636.174 15.943 3.258 17.18 4.495.331.331-3.748.603-9.065.603-5.778 0-9.666-.402-9.666-1 0-.55 1.013-1.027 2.25-1.062 2.227-.063 2.225-.074-.17-1.032-1.472-.588-2.06-1.328-1.5-1.886.108-.108.451-.142.97-.118M1088.5 2301c-.825 0-1.5.45-1.5 1s.675 1 1.5 1 1.5-.45 1.5-1-.675-1-1.5-1m4.178 5.184c-.932-.05-2.074.502-2.428 1.566-.244.733.444 1.25 1.666 1.25 1.228 0 2.084-.647 2.084-1.574 0-.804-.598-1.204-1.322-1.242m4.435 4.195c-1.428.03-3.253 1.585-2.543 2.734.762 1.232 3.175 1.11 3.985-.2.37-.599.188-1.568-.4-2.157-.274-.273-.642-.386-1.042-.377m-240.113.205c-6.097.02-8.444.513-12.547 2.635-6.687 3.457-11.118 8.09-14.082 14.724-3.118 6.98-2.899 17.86.516 25.557 5.88 13.254 14.302 21.274 28.17 26.824 11.071 4.43 12.73 4.824 23.943 5.664 11.136.835 19.107.656 43.324-.967 19.873-1.331 26.859-3.046 30.1-7.386 2.692-3.606 1.443-5.495-5.52-8.354-15.313-2.62-29.11-1.158-44.154.889-6.014.822-7.767 1.427-7.828 2.695-.05 1.037-.264 1.178-.584.385-.596-1.477-7.338-1.707-7.338-.25 0 .55.649 1 1.441 1 .793 0 1.677.382 1.965.848s-2.723.641-6.691.39c-6.708-.424-7.411-.273-10.016 2.153-3.22 2.999-4.549 3.202-7.258 1.109-1.921-1.485-1.921-1.515 0-3 1.068-.825 2.73-1.5 3.692-1.5s1.99-.388 2.283-.863c.294-.475-2.129-1.106-5.383-1.4-8.692-.789-16.211-4.657-23.5-12.09-7.63-7.782-12.537-17.014-12.523-23.557.012-5.777 3.656-13.79 7.892-17.354 5.818-4.895 18.187-6.396 27.004-3.275 2.424.858 4.562 1.403 4.754 1.21.002 0 .004-.01.006-.01.116-.227-2.065-1.662-4.91-3.222-4.491-2.463-12.756-2.855-12.756-2.855m224.25 6.115c.322-.029 1.157.559 2.5 1.836 1.513 1.439 5 3.928 7.75 5.531l5 2.914-3.559.01c-4.095.012-5.904-1.126-9.422-5.933-2.024-2.767-2.771-4.312-2.269-4.357zm20.793.301c-.589 0 .127 1.812 1.592 4.025 4.157 6.282 4.267 12.085.394 20.909-3.518 8.015-3.45 11.593.25 12.992 3.19 1.206 7.945-1 9.676-4.49 2.27-4.576 2.587-15.494.572-19.739-1.85-3.9-10.78-13.697-12.484-13.697m-34.676 1.6c-1.793-.078-3.704.34-5.756 1.248-5.81 2.57-8.045 6.635-7.162 13.033.985 7.132 3.706 19.417 4.746 21.426.835 1.611 1.258 1.397 3.946-2 1.656-2.094 4.817-5.55 7.025-7.68 8.338-8.046 10.213-15.647 5.3-21.484-2.446-2.909-5.11-4.414-8.099-4.543m-.861 3.57c.077.01.155.017.234.033 1.798.364 1.846.926.664 8.043-.775 4.668.876 4.983 3.5.668 1.943-3.195 3.093-2.353 2.319 1.7-.231 1.206-1.745 3.699-3.364 5.538l-2.943 3.344 1.615-3.344c2.048-4.237 1.507-4.76-2.037-1.972l-2.81 2.209.595-2.446c.327-1.345.879-3.797 1.225-5.447l.629-3-2.563 3c-1.409 1.65-2.566 3.563-2.566 4.25 0 .688-.485 1.25-1.072 1.25-.613 0-.796-.853-.432-2 .757-2.384-.32-2.629-1.922-.437-.91 1.245-1.065.751-.762-2.434.216-2.26 1.207-4.746 2.282-5.719 1.832-1.658 1.904-1.596 1.972 1.686l.07 3.404 1.92-4.324c1.294-2.913 2.285-4.079 3.446-4.002m-231.627 1.875c.175 0 .021.47-.352 1.455-.416 1.1-1.116 3.5-1.554 5.33-.876 3.656-1.358 4.451-2.19 3.62-.98-.98 1.02-7.684 2.785-9.34.746-.7 1.156-1.065 1.31-1.065m214.775 1.076c-.692.035-.766 1.08-.412 3.998.293 2.41 1.104 5.731 1.803 7.381 1.682 3.972 2.233 1.542 1.23-5.426-.456-3.168-1.356-5.6-2.172-5.873a1.3 1.3 0 0 0-.449-.08m-7.847 1.88c-1.467 0-.937.938 2.404 4.25 2.34 2.318 4.405 4.146 4.615 4.087.503-.25-1.888-4.608-3.613-6.586-.84-.962-2.375-1.75-3.41-1.75zm-17.41 2c-3.942 0-6.981 3.587-5.907 6.972.733 2.308 7.18 5.846 15.51 8.512 12.509 4.003 16.835 7.631 18.498 15.515.406 1.925.935 3.838 1.178 4.25.98 1.664 1.188.508.781-4.34-.683-8.12-2.236-12.45-6.309-17.597-6.264-7.919-15.888-13.313-23.752-13.313m79.58 2.5-2.489 4.35c-1.368 2.394-2.488 4.532-2.488 4.75 0 .88 1.443.31 3.172-1.255 1.029-.931 1.826-3.009 1.816-4.75zm6.667 1.173h.032c.138.116.16 1.478.196 4.32.039 3.132-.504 6.254-1.26 7.25-1.243 1.638-3.607 2.425-3.607 1.201 0-.302.68-1.864 1.51-3.468.83-1.605 1.908-4.62 2.398-6.7.384-1.634.604-2.55.734-2.607zm-26.29.46c-.523 0-1.826.95-3.135 2.32l-2.719 2.847 3.307-2.26c1.819-1.242 3.044-2.524 2.72-2.848q-.06-.06-.174-.059zm15.195 1.208c-.347.01-.964.453-1.53 1.135-.788.95-.864 1.523-.2 1.523 1.208 0 2.617-1.896 1.923-2.59a.26.26 0 0 0-.193-.068m-75.27.69c1.81-.032 13.721 5.595 13.721 6.482 0 .267-.113.476-.25.463-.761-.072-11.559-4.753-13.25-5.744-1.782-1.044-1.805-1.175-.22-1.202m62.207 3.036c-1.176.016-2.873.548-4.486 1.538-1.375.843-1.676 1.276-.668.963 1.007-.313 2.92-.569 4.25-.569s2.418-.45 2.418-1c0-.643-.599-.943-1.514-.931m7.073.932c-.858 0-1.559.45-1.559 1s.424 1 .941 1c.518 0 1.22-.45 1.559-1 .34-.55-.084-1-.941-1m-72.707 4.414c-5.787-.216-11.91 1.285-16.352 4.344-5.3 3.65-9.666 12.045-8.904 17.12 1.338 8.911 7.599 16.666 15.326 18.981 2.095.628 9.382 1.16 16.193 1.182 9.576.032 13.519.467 17.385 1.914 2.75 1.03 5.289 1.911 5.643 1.96 2.294.31 2.445-9.556.26-16.983-3.025-10.277-12.203-22.355-19.938-26.237-2.792-1.401-6.142-2.15-9.613-2.28m-18.817.108c-.69-.021-1.524.448-1.816 1.324-.28.84.176 1.216 1.218 1 .918-.19 1.645-.796 1.616-1.346-.034-.65-.482-.962-1.018-.978m-9.385.515c-1.497.027-2.976.706-3.638 1.944-1.272 2.376-.463 6.197 2.384 11.261 2.486 4.42 3.095 4.638 3.38 1.205.116-1.404.664-3.398 1.218-4.433 1.373-2.566 1.268-7.353-.193-8.815-.81-.81-1.986-1.183-3.15-1.162m94.508.631c-4.69.095-9.78 1.835-13.219 4.729-8.503 7.155-17.984 23.73-17.894 31.287l.045 3.816 2.234-4.27c3.053-5.83 11.364-12.461 22.426-17.89 11.194-5.494 15.25-8.983 15.25-13.123 0-2.683-.434-3.09-4.361-4.078-1.399-.352-2.917-.503-4.48-.47zm-67.355 1.332c7.892 0 24.363 13.935 27.043 22.879.71 2.374 1.035 4.572.722 4.885s-.568-.114-.568-.95c0-2.414-9.078-13.907-13.863-17.548-2.4-1.827-7.013-4.057-10.25-4.957-6.22-1.73-8.067-4.309-3.084-4.309m-27.192.383c.12-.01.251.032.389.117.55.34 1 1.041 1 1.559 0 .517-.45.941-1 .941s-1-.701-1-1.558c0-.643.253-1.043.611-1.06m127.448.617c-.518 0-1.22.45-1.559 1-.34.55.084 1 .941 1 .858 0 1.559-.45 1.559-1s-.424-1-.941-1m-135.559 2c-.825 0-1.5.675-1.5 1.5s.675 1.5 1.5 1.5 1.5-.675 1.5-1.5-.675-1.5-1.5-1.5m106.438 1.926c.96-.053 1.295.223.511.924-1.464 1.31-18.449 10.095-18.449 9.543 0-1.106 5.813-5.612 10.217-7.92 2.783-1.46 6.12-2.46 7.72-2.547m-80.077.074c2.366 0 3.58 2.764 2.034 4.627-1.46 1.758-2.353 1.733-3.885-.113-1.624-1.957-.575-4.514 1.851-4.514m-38.097.133c-6.047-.025-2.403 6.955 8.129 12.328 2.534 1.293 6.407 3.95 8.607 5.904 6.358 5.647 6.783 5.12 2.582-3.203-3.483-6.9-9.463-12.596-14.945-14.238-1.803-.54-3.254-.787-4.373-.791m46.275 1.336c.59-.01 1.235.141 1.897.496 2.44 1.306 2.73 4.565.482 5.427-2.233.857-2.857.77-4.219-.591-2.286-2.287-.72-5.297 1.84-5.332m28.05 2.03 1.077 4c.59 2.2 1.23 4.563 1.422 5.25.624 2.236 1.412 1.322 1.412-1.638 0-1.589-.88-3.952-1.955-5.25zm-71.366.552c.478 0 1.298.316 2.277.949 1.293.835 1.266.971-.191.984-.93.01-1.97-.434-2.309-.984-.391-.633-.255-.95.223-.95m-10.762.195c-.642.033-1.404.581-1.732 1.566-.218.653.316 1.188 1.187 1.188a1.59 1.59 0 0 0 1.584-1.584c0-.828-.473-1.2-1.04-1.17m63.12.963c.334.01.67.141.962.433.723.724.596 1.412-.412 2.248-1.074.892-1.636.91-2.154.07-.788-1.274.406-2.787 1.603-2.752zm134.333.076c-6.322 2.334-13.41 2.455-19.414 5.724-1.177.754-.941.963 1.092.975 4.345.026 19.768-5.459 18.61-6.617-.054-.053-.153-.08-.288-.082M838.06 2357c.582 0 .78.45.441 1-.34.55-.816 1-1.059 1-.242 0-.441-.45-.441-1s.476-1 1.059-1m164.123 1.076c.347-.01.768.074 1.257.262.88.337 1.278 1.24.938 2.125-.758 1.97-2.272 1.968-3.031-.01-.566-1.475-.206-2.352.836-2.38zm-47.565.924c-4.37 0-8.617 2.184-8.617 4.434 0 2.545 3.032 3.78 12.725 5.185 9.321 1.35 22.142 4.556 30.775 7.693 4.06 1.476 6.5 1.976 6.5 1.333 0-.827-11.974-8.628-17.5-11.403-7.913-3.973-18.694-7.242-23.883-7.242m-114.117 1c.825 0 1.5.675 1.5 1.5 0 1.562-1.183 1.985-2.334.834-1.15-1.15-.728-2.334.834-2.334m170.25.016c4.784.019 15.453 2.521 19.36 4.541 3.63 1.878 10.617 8.064 11.978 10.608 1.02 1.907.507 2.607-.6.816-1.315-2.129-10.84-6.1-19.246-8.024-10.519-2.407-15.242-4.403-15.242-6.441 0-1.088 1.059-1.511 3.75-1.5m77.29.623c-.493.018-1.74.732-3.605 1.81-17.352 10.041-22.421 14.742-22.431 20.801 0 2.361.401 2.75 2.861 2.75 4.027 0 7.16-2.801 15.496-13.859 6.527-8.656 8.686-11.538 7.678-11.502M1034 2361c.55 0 1 .45 1 1s-.45 1-1 1-1-.45-1-1 .45-1 1-1m-79.617 1c1.925 0 3.777.45 4.117 1 .367.594-.804 1-2.883 1-1.925 0-3.777-.45-4.117-1-.367-.594.804-1 2.883-1M844 2364c.55 0 1 .424 1 .941 0 .518-.45 1.22-1 1.559-.55.34-1-.084-1-.941 0-.858.45-1.559 1-1.559m317.686.203c-.73.016-1.74.291-2.557.729-1.365.73-5.666.768-13.807.123-6.62-.525-14.902-.574-18.822-.112-12.821 1.513-35.88 8.356-44.855 13.31-6.038 3.334-10.811 11.263-9.243 15.35 1.1 2.865 8.029.03 31.098-12.722 20.808-11.502 24.825-13.409 25.291-12.01.789 2.366 4.37 4.913 9.865 7.016 6.227 2.382 11.527 2.895 9.555.924-4.344-1.46-7.88-4.76-11.961-6.674-2.148-.804-.45-1 7.75-.889 9.244.124 11.038-.14 15-2.21 2.475-1.295 3.962-2.537 3.305-2.76a1.9 1.9 0 0 0-.62-.075zm-124.163.131c.142.01.305.06.477.166.55.34 1 .816 1 1.059 0 .242-.45.441-1 .441s-1-.476-1-1.059c0-.4.212-.62.523-.607m-30.619 2.617c1.046.01 2.222.497 3.137 1.6 1.055 1.27 1.032 1.78-.127 2.832-1.738 1.576-4.54 1.036-5.332-1.03-.798-2.078.58-3.412 2.322-3.402m112.596.953-4 2.153c-2.2 1.183-8.066 4.553-13.035 7.49-4.97 2.937-11.045 6.194-13.5 7.238-8.958 3.81-12.315 3.607-10.059-.61 1.335-2.494 7.24-6.92 11.742-8.802 5.39-2.252 19.604-6.248 24.545-6.9zM847 2368c.55 0 1 .45 1 1s-.45 1-1 1-1-.45-1-1 .45-1 1-1m91.713.225c5.106.17 11.295 2.022 13.84 4.834.908 1.003 1.493 2.304 1.299 2.888s-.855.274-1.465-.691c-.925-1.464-2.621-1.756-10.198-1.756-9.314 0-12.864-1.225-10.476-3.613 1.262-1.263 3.936-1.765 7-1.662m78.033.906c1.29-.025 2.65.55 2.983 1.55.216.65-.487 1.655-1.563 2.231-2.386 1.277-5.228-1.25-3.43-3.049.488-.487 1.236-.717 2.01-.732m-77.533 1.351c-.213.01-.455.057-.713.157-.825.316-1.5.752-1.5.968 0 .217.675.393 1.5.393s1.5-.436 1.5-.969c0-.366-.32-.563-.787-.549M851 2371c.55 0 1 .45 1 1s-.45 1-1 1-1-.45-1-1 .45-1 1-1m173 0c.55 0 1 .45 1 1s-.45 1-1 1-1-.45-1-1 .45-1 1-1m-107.193.033c2.463-.057 4.828.105 6.818.535 3.563.77 3.231.884-4.125 1.41-6.865.492-8.663 1.03-12.68 3.797-2.574 1.774-5.175 3.225-5.78 3.225-1.403 0-2.42-2.575-1.565-3.96 1.672-2.705 9.942-4.837 17.332-5.007m160.535.467-2.24 3.25c-1.232 1.787-2.658 3.25-3.17 3.25-1.43 0-1.18-.396 2.238-3.563zm-48.342.5c.55 0 1 .45 1 1s-.45 1-1 1-1-.45-1-1 .45-1 1-1m-169.9.148c1.557-.053 3.397 1.133 6.193 3.965 3.083 3.124 5.276 4.423 8.207 4.866 3.639.548 3.755.653 1.297 1.164-3.06.635-12.018-2.202-15.797-5.004-3.123-2.316-3.215-4.537-.207-4.963q.152-.022.307-.027zm108.43 1.092c-1.943-.074-3.397.154-4.38.68-2.817 1.508-2.762 4.887.1 6.088 2.39 1.003 19.872.24 23.25-1.014 1.55-.576.404-1.22-5.105-2.867-6.034-1.805-10.628-2.764-13.866-2.887m-44.514 1.028c2.876.034 6.614.702 11.296 2.011 2.954.826 6.719 1.102 9.75.713 6.721-.862 6.22.324-.982 2.326-6.577 1.829-15.255 2.762-19.08 2.053-7.788-1.444-10.291-4.535-5.25-6.482 1.124-.434 2.54-.642 4.266-.621m-18.713.86c-.467-.017-1.305.49-2.076 1.298-.8.837-1.206 1.276-1.159 1.375h.008c.094.067.661-.212 1.76-.775 1.285-.66 2.062-1.472 1.727-1.807a.38.38 0 0 0-.26-.1zm107.672.065c1.102-.066 4.371.39 10.82 1.306 5.662.805 12.187 2.335 14.5 3.399s3.717 1.971 3.121 2.017c-.596.047-1.338-.172-1.65-.484-.313-.312-5.159-1-10.768-1.527-6.559-.617-11.5-1.647-13.848-2.887-2.214-1.17-3.278-1.758-2.175-1.824m-136.74.25a2.4 2.4 0 0 0-.682.176c-.854.327-1.553.772-1.553.988 0 .81 1.905.354 2.492-.596.241-.39.127-.592-.258-.568m7.84.64c2.184-.095 5.257.836 9.18 2.79 5.01 2.494 6.337 2.757 10.237 2.029 2.465-.46 5.95-1.554 7.744-2.43l3.264-1.594-2.5 2.051c-1.375 1.128-4.075 2.502-6 3.055-4.404 1.264-17.7 1.208-20.945-.088-4.075-1.627-5.242-2.967-3.946-4.53.663-.798 1.655-1.225 2.965-1.283m83.841.04c.347.014.646.107.813.273.332.332-.259.568-1.313.525-1.165-.048-1.401-.286-.604-.605a2.7 2.7 0 0 1 1.104-.193m-44.307.222c-.833.012-1.516.122-1.877.356-.758.491.498 1.029 3.268 1.398 2.475.33 4.864.667 5.309.75s.563-.249.261-.736c-.599-.97-4.46-1.805-6.96-1.768M884 2379.031c-1.333 0-1.333.107 0 .969.825.533 2.175.969 3 .969 1.333 0 1.333-.107 0-.969-.825-.533-2.175-.969-3-.969m31.559 1.969c.857 0 1.28.45.941 1s-1.041 1-1.559 1c-.517 0-.941-.45-.941-1s.701-1 1.559-1m82.992.393c-.397-.01-.804.207-1.041.591-.346.56.074 1.016.931 1.016 1.757 0 2.014-.6.627-1.457a1 1 0 0 0-.517-.15m-116.992.607c.242 0 .441.45.441 1s-.476 1-1.059 1c-.582 0-.78-.45-.441-1 .34-.55.816-1 1.059-1m159.959 7.172c-.844-.028-1.837.206-3.338.656-4.709 1.41-11.979 7.633-17.237 14.75-2.133 2.888-4.963 6.42-6.289 7.85-2.269 2.448-3.754 6.785-3.576 10.447.048.977.454.628 1.02-.875.973-2.59 7.629-6.932 20.402-13.313 3.85-1.923 8.94-4.913 11.31-6.642 3.694-2.695 4.266-3.588 4-6.246-.197-1.976-1.296-3.834-3.025-5.12-1.347-1-2.183-1.47-3.267-1.507m1.529 4.037c1.477 0 2.453.764 2.453 2.291 0 1.489-1.917 2.959-7.5 5.75-4.125 2.062-7.86 3.75-8.3 3.75-1.346 0 4.219-6.701 7.888-9.5 2.002-1.527 3.981-2.29 5.459-2.291m26.537 3.049c-.119 0-.209.035-.266.092-1.152 1.152-1.448 16.54-.357 18.578 1.555 2.906 2.775 2.588 4.514-1.178.825-1.787 3.531-5.629 6.013-8.537 4.819-5.646 6.05-9.106 2.578-7.248-2.836 1.518-7.295 1.264-9.908-.566-1.022-.716-2.059-1.162-2.574-1.141m2.549 3.85c.39.011.902.262 1.601.706.956.608.887 1.28-.306 2.985-2.14 3.056-3.161 2.748-2.64-.799.302-2.062.6-2.915 1.345-2.893m10.713 12.171c-3.17.093-7.466 2.29-8.31 4.49-1.72 4.479 4.694 7.392 20.464 9.294 5.775.696 12.75 1.578 15.5 1.96 7.53 1.047 9.005 1.07 7.95.131-1.787-1.588-31.371-15.188-34.327-15.779a5.7 5.7 0 0 0-1.277-.096m-61.625 7.444c-4.006.1-6.26 1.816-6.106 4.65.083 1.53.24 1.665.555.48 1.456-5.482 10.56-.959 15.428 7.666 1.704 3.021 3.841 5.925 4.75 6.456.908.53 1.9.977 2.203.994 1.436.079 2.949-2.666 2.949-5.35 0-5.59-12.594-15.075-19.78-14.896m68.763.51c1.284-.02 3.591.456 5.516 1.161 4.666 1.71 2.942 1.86-3.5.307-2.828-.682-3.757-1.214-2.5-1.43.137-.024.301-.036.484-.039m-58.1 6.267 3.147 3.107c2.15 2.125 3.038 3.856 2.807 5.475-.285 1.996-.778 1.507-3.145-3.107zm81.456 3.66c-.928 0 .9 1.117 5.326 3.465 3.758 1.994 7.85 4.721 9.092 6.06 1.242 1.34 4.617 3.507 7.5 4.817s5.804 2.41 6.492 2.441c2.483.115 1.116-1.481-2.832-3.302-3.555-1.64-6.573-7.91-18.334-11.543-4.133-1.277-6.522-1.942-7.244-1.938m13.437 1.027a2.3 2.3 0 0 0-.478.046c-1.202.265.358 1.448 4.701 3.568 6.319 3.084 14 4.29 14 2.2 0-.55-1.575-1-3.5-1-3.793 0-8.734-4.859-14.723-4.813zM1030.06 2435c-.518 0-1.22.45-1.559 1-.34.55.084 1 .941 1 .858 0 1.559-.45 1.559-1s-.424-1-.941-1m3.091 5c-1.027 0-1.202.825-.691 3.25 1.502 7.126 1.69 13.152.537 17.268-.666 2.378-.912 4.81-.545 5.404 2.423 3.92 5.846-2.304 5.299-9.635-.602-8.066-2.924-16.287-4.6-16.287m3.506 2.256c-.545.04.49 1.298 3.17 3.787 2.61 2.424 5.49 6.586 7.26 10.488 3.043 6.712 5.035 7.98 6.94 4.422 1.926-3.6-1.594-8.828-9.526-14.15-4.579-3.072-7.226-4.592-7.844-4.547m11.877 11.031c.143-.01.495.314 1.072.89.873.873 1.431 2.36 1.24 3.307-.238 1.186-.731.692-1.585-1.586-.682-1.817-.943-2.595-.727-2.61m-14.1 7.17c.07 0 .147.089.23.293.276.688.276 1.813 0 2.5-.278.688-.505.125-.505-1.25 0-.967.112-1.532.276-1.543" style="fill:#00426a;fill-opacity:1"/><path d="M1119.386 2266.017a8.354 8.354 0 0 0-8.354 8.353 8.354 8.354 0 0 0 8.354 8.354 8.354 8.354 0 0 0 8.355-8.354 8.354 8.354 0 0 0-8.355-8.353m0 2.992a5.36 5.36 0 0 1 5.36 5.361 5.36 5.36 0 0 1-5.36 5.36 5.36 5.36 0 0 1-5.36-5.36 5.36 5.36 0 0 1 5.36-5.361" style="fill:#00426a;fill-opacity:1;fill-rule:evenodd;stroke:none;stroke-width:35.1837;stroke-linejoin:round;stroke-dashoffset:.48;stroke-opacity:1"/><circle cx="1119.387" cy="2274.37" r="3.732" style="opacity:1;fill:#00426a;fill-opacity:1;fill-rule:evenodd;stroke:none;stroke-width:15.7161;stroke-linejoin:round;stroke-dashoffset:.48;stroke-opacity:1"/></g></svg>