<svg xmlns="http://www.w3.org/2000/svg" xmlns:xlink="http://www.w3.org/1999/xlink" width="1716.364" height="1192.727"><defs><linearGradient id="a"><stop offset="0" stop-color="#73635e"/><stop offset=".6" stop-color="#73635e"/><stop offset=".6" stop-color="#789bcd"/><stop offset="1" stop-color="#789bcd"/></linearGradient><linearGradient xlink:href="#a" id="b" x1="989.75" x2="1042.987" y1="1057.936" y2="1049.069" gradientTransform="translate(-3599.451 -3283.343)scale(3.67427)" gradientUnits="userSpaceOnUse"/></defs><g transform="translate(56.482 -2.182)scale(1.10087)"><path fill="#988985" d="M939.207 840.381c-.257.373-.395.67-.395.876l-11.51 10.865c-11.085 10.464-13.945 14.363-9.566 13.06 5.464-1.624 5.91-1.24 3.588 3.101-3.996 7.466-11.59 13.59-22.534 18.163-10.927 4.565-28.932 5.457-32.853 1.63-1.396-1.364-9.154-4.743-17.238-7.514-5.948-2.04-10.16-3.992-13.915-6.79-.465.926-.921 1.86-1.37 2.793-.21.463-.42.93-.617 1.399h3.265c1.623 3.283 1.025 5.807 5.102 9.932h.07l11.54 14.03c6.346 7.715 17.161 20.043 24.033 27.392 15.791 16.886 22.687 25.22 25.182 31.224.235.564.443 1.108.603 1.636.058.191.095.378.143.567.11.423.206.841.272 1.248.037.17.051.335.073.503.066.547.114 1.086.114 1.622 0 2.94-1.009 6.286-2.396 8.303-.335.488-.692.898-1.063 1.205-1.902 1.58-5.137 7.136-7.183 12.35-2.046 5.215-5.504 9.48-7.686 9.48-13.258 0-18.373 24.123-9.064 42.757 5.758 11.527 22.75 20.989 28.749 16.01 2.8-2.323 3.148-4.566 1.256-8.102-4.106-7.67-3.314-16.763 1.306-14.991 2.157.828 4.563.464 5.346-.804s3.644-1.721 6.358-1.011c2.715.71 9.344-.55 14.726-2.8l9.781-4.083-9.43 12.35c-5.187 6.795-11.815 14.023-14.725 16.061s-5.29 6.643-5.29 10.234c0 10.682 12.194 8.547 31.534-5.526 13.852-10.08 16.57-11.223 16.57-6.968 0 2.799-1.807 5.785-4.012 6.63-2.204.847-4.012 4.583-4.012 8.304 0 7.553 4.615 8.608 17.64 4.047 11.327-3.967 19.324-17.535 22.039-37.381 1.596-11.676 3.838-18.05 7.01-19.936 19.743-11.737 27.986-26.527 28.074-50.378.037-8.547 1.258-17.785 2.727-20.531 2.794-5.219 1.457-10.972-3.846-17.123v-.059a38 38 0 0 0-.962-1.069c-2.909-3.112-6.832-6.323-11.754-9.624-32.759-21.964-61.17-45.7-66.575-55.623-.754-1.384-.78-2.882.301-5.023-4.213-4.494-7.19-8.187-8.54-10.665-.124-.227.078-.667.525-1.262-.461-.17-.926-.338-1.386-.51z"/><path fill="#8c7a75" d="M616.43 913.085c-.084 0-.183.04-.264.15l-.037.037v.037l-11.087 26.84c-14.814 35.846-19.321 44.461-26.122 49.946-.114.092-.205.147-.316.235-7.393 5.886-10.393 5.596-18.708-2.54l-.202-.188a95 95 0 0 0-4.019-3.538c-1.09-.902-2.02-1.626-2.634-2.023q-.12-.079-.242-.15c-.037 0-.052-.038-.08-.052-3.68-2.109-7.594-2.963-12.093-2.52-4.359.43-9.325 2.142-15.178 5.017-.265.129-.48.198-.746.33a67 67 0 0 0-4.234 2.326c-.195.117-.413.235-.603.353-4.213 2.588-6.994 5.14-8.324 7.714-.41.79-.681 1.535-.804 2.24a4.94 4.94 0 0 0 .552 2.97q.005 0 0 0v.037c.972 1.528 2.988 2.88 6.236 4.478l.217.107q.178.067.36.129c5.22 1.82 9.905 6.519 13.463 13.491.084.166.172.327.257.495.39.755.807 1.364 1.212 2.096 1.719 3.022 4.027 6.63 5.253 8.152.305.379.597.76.862 1.12q.385.386.674.567c.534.33.734.845.624 1.5.003 0 0 0 0 .036 0 .103-.055.283-.157.51-.497 1.347-2.041 3.128-4.45 5.023l-.36.28c-2.944 2.496-4.84 4.867-5.627 7.018-.81 2.217-.382 4.24 1.314 5.734.616.542 2.056 1.42 3.459 2.145.08.037.161.062.242.092 3.84 1.42 4.742 2.796 2.677 4.077-.037.037-.066.07-.099.106-1.866 1.928-2.964 4.49-2.964 6.947 0 1.028.055 1.852.323 2.54.037.07.055.136.088.202 0 0 0 .04.037.06.04.08.088.153.136.227.287.457.709.824 1.285 1.105 1.18.575 2.997.849 5.92 1.07a73 73 0 0 0 2.986.051c5.952 0 14.454 1.874 18.895 4.17q.401.206.818.409c1.853.884 3.949 1.652 5.978 2.225 2.075.538 4.246.818 7.334 1.026 4.321-.32 10.673.67 15.924 2.074 1.078.282 2.07.59 3 .925 2.73.929 4.992 1.914 5.583 2.87.074.118.15.236.228.346.812.694 1.391 1.12 2.01 1.378.66.276 1.338.338 2.31.338 1.73 0 4.704-.728 8.389-1.902 2.857-.91 6.125-2.09 9.502-3.416 1.918-.769 4-1.622 6.257-2.569 7.655-3.285 14.906-6.916 18.307-9.508 2.55-1.943 5.374-4.802 8.281-8.217.388-.466.815-1.008 1.213-1.507 2.329-2.851 4.679-6.216 6.997-9.71 1.26-1.905 2.661-3.815 3.732-5.626q.593-1.005 1.134-1.966c2.046-3.694 3.233-6.84 4.83-12.767.613-2.277 1.289-4.967 2.095-8.253 3.93-16.02 7.994-30.83 13.169-47.98 4.762-15.786 8.025-25.055 10.728-30.586.074-.136.327-1.188.395-1.306 1.398-2.402 2.586-4.11 4.076-5.382l.037-.037.416-.466a.297.297 0 0 0-.225-.496h-7.75c-16.762-.003-40.34-2.637-51.863-5.776-8.98-2.447-14.621-4.96-21.32-9.502-2.27-1.538-4.509-2.948-6.216-3.933a30 30 0 0 0-2.102-1.126 4.6 4.6 0 0 0-.66-.265.7.7 0 0 0-.25-.051c-.037 0-.052-.002-.081 0z"/><path fill="#a2bee6" d="M239.646 340.178c-4.46 0-50.763 25.682-78.495 43.539-51.8 33.354-79.562 54.02-118.387 88.11C10.263 500.366 0 518.166 0 545.996c0 21.643 2.136 28.17 13.456 41.063 8.007 9.12 9.371 9.647 24.894 9.645 9.033-.001 38.975-4.624 66.532-10.27 46.739-9.575 50.105-9.93 50.105-5.339 0 2.686-.356 4.889-.782 4.923-.431 0-21.18 4.204-46.101 9.344s-49.147 9.353-53.837 9.357c-13.62 0-12.675 4.417 2.483 11.562 23.703 11.173 35.26 13.012 78.035 12.415 27.502-.385 44.391.59 53.349 3.093 12.988 3.628 13.146 3.811 17.56 19.699 5.607 20.178 19.619 47.858 26.76 52.86 2.994 2.097 10.213 14.964 16.04 28.598 11.242 26.301 29.204 52.293 39.334 56.908 7.092 3.231 7.22 3.847 2.77 13.276-3.55 7.52-8.926 9.93-22.312 9.99-9.315.04-30.463 13.865-30.463 19.914 0 2.096-6.664 16.754-14.812 32.573-14.397 27.953-16.868 38.126-9.824 40.446 1.88.62 7.763-3.494 13.075-9.143 6-6.379 8.918-8.242 7.707-4.923-1.071 2.94-2.6 9.253-3.401 14.03-1.25 7.447-.677 8.683 4.018 8.683 3.376 0 7.69-3.592 11.253-9.358 3.179-5.144 6.645-9.35 7.7-9.35 1.054 0 3.414 4.148 5.246 9.214 1.877 5.191 5.81 9.999 9.013 11.016 3.128.992 8.111 4.057 11.074 6.817 3.399 3.167 9.314 5.024 16.031 5.024 5.854 0 12.542 1.627 14.863 3.624 5.876 5.055 20.752 9.73 30.965 9.73 8.846 0 25.78-9.545 34.059-19.203 4.071-4.749 5.686-5.066 12.2-2.368 13.641 5.65 35.955-7.433 44.32-25.986 3.54-7.849 6.81-11.072 12.337-12.178 4.135-.826 11.745-5.213 16.914-9.752l9.401-8.253 15.537 7.757c34.037 16.998 66.94 25.69 106.532 28.139 4.595.283 12.533 4.11 18.185 8.77 15.874 13.084 39.975 18.623 92.295 21.205 34.309 1.693 43.851-.644 48.002-11.762 1.457-3.903 8.562-13.658 15.788-21.68l13.14-14.589 13.98 3.23c7.691 1.775 21.604 3.229 30.908 3.229h13.649c.198-.47.408-.936.617-1.4a195 195 0 0 1 1.37-2.791c3.755 2.797 7.968 4.75 13.915 6.789 8.084 2.77 15.842 6.15 17.238 7.513 3.921 3.828 21.927 2.936 32.853-1.629 10.945-4.573 18.538-10.697 22.534-18.163 2.323-4.341 1.876-4.725-3.588-3.1-4.379 1.302-1.519-2.597 9.566-13.061l11.51-10.865c0-.206.14-.503.395-.876q.692.259 1.385.51c-.099.132-.176.25-.25.367 2.562-3.994 20.398-17.718 21.07-18.407 21.42-20.99 38.716-33.793 64.665-47.858 13.817-7.49 27.658-16.305 42.205-26.876 5.671-4.121 6.805-3.645 28.167 11.776 26.426 19.078 45.993 29.875 54.145 29.875 7.237 0 20.007-9.604 20.007-15.048 0-2.383 1.265-3.192 3.165-2.017 7.82 4.834-22.012-33.075-40.223-51.11-18.943-18.76-19.744-20.007-12.824-20.007 13.508 0 50.517 44.044 58.2 69.266 4.552 14.944 38.345 37.416 56.484 37.56 10.86.089 18.99-9.192 16.958-19.347-1.47-7.35-21.97-47.423-36.549-71.447-1.667-2.748-2.486-4.357-2.289-4.68h.037c.625-.168 4.15 3.224 11.44 10.765 17.043 17.634 33.756 49.496 35.048 66.819.742 9.943 2.873 13.175 18.5 27.98 13.383 12.678 19.56 16.735 25.47 16.735 8.405 0 16.197-5.951 16.197-12.372 0-2.186 1.148-3.265 2.554-2.396 1.406.868-1.106-7.181-5.59-17.884s-10.332-25.468-12.99-32.817c-2.657-7.348-6.79-18.169-9.185-24.048-2.201-5.401-3.171-7.977-2.942-8.353.298-.048 1.244 1.054 2.842 3.036 10.68 13.237 29.525 57.36 34.51 80.798 2.06 9.687 12.65 18.576 25.082 21.062 6.386 1.277 9.488.187 14.92-5.246 3.77-3.771 6.86-9.216 6.86-12.1 0-2.883 1.377-5.701 3.064-6.264 1.909-.636-3.586-15.108-14.546-38.3-9.69-20.504-16.409-37.707-14.927-38.228s4.448 1.286 6.588 4.011c6.789 8.65 27.469 52.558 30.915 65.642 3.039 11.533 4.453 13.083 16.821 18.45 16.655 7.228 37.32 9.66 42.88 5.045 10.423-8.651.934-29.7-23.84-52.875-9.66-9.036-17.56-17.602-17.56-19.039 0-1.436-6.826-9.981-15.165-18.988-14.19-15.328-35.61-29.358-44.823-29.358-2.225 0-18.796-7.734-36.829-17.187-24.145-12.658-39.124-18.601-56.836-22.563a25891 25891 0 0 1-36.075-8.095c-6.614-1.491-34.765-8.721-62.556-16.067s-66.873-15.945-86.848-19.111-52.546-9.183-72.387-13.362c-43.586-9.182-120.214-20.397-154.987-22.685-13.963-.918-54.252-6.33-89.525-12.027-82.78-13.37-101.935-15.648-145.629-17.295-67.463-2.543-107.417-6.815-116.909-12.508-4.776-2.865-8.69-7.065-8.69-9.33 0-3.356.743-3.501 4.011-.789 2.205 1.83 4.012 2.732 4.012 2.002 0-5.05-9.399-25.962-18.307-40.732-10.593-17.563-29.796-62.194-29.796-69.252 0-3.187 1.809-3.186 12.45.037 6.848 2.06 13.762 3.746 15.365 3.739 4.178-.037-8.921-10.56-41.787-33.629-30.537-21.434-36.588-27.12-25.864-24.298 7.42 1.952 34.49-.707 34.49-3.388 0-2.259-21.129-7.456-38.745-9.53-30.75-3.621-64.314-10.134-66.805-12.96-1.47-1.669-7.183-3.092-12.695-3.165-5.511-.074-30.106-.374-54.654-.668l-44.63-.538 10.435-10.685c5.381-5.512 9.074-10.093 8.64-10.643a.2.2 0 0 0-.136-.043zm-18.444 45.857c7.045-.395 14.753.867 23.962 3.602 15.402 4.574 21.088 11.591 28.914 35.695 4.553 14.023 4.528 14.794-1.113 32.308-4.611 14.318-8.44 20.467-18.952 30.42-17.879 16.927-48.011 26.484-67.286 21.343-2.383-.636-8.397-6.212-13.362-12.387-8.703-10.824-9.021-12.037-8.884-33.936.173-27.645 7.19-45.915 23.187-60.368 11.905-10.756 21.794-16.02 33.534-16.677M44.76 493.888c4.42.062 6.457 4.726 4.958 12.716-2.865 15.276-15.068 27.645-21.213 21.5-5.55-5.55 2.002-27.837 11.08-32.695 1.96-1.05 3.701-1.542 5.175-1.521m900.469 358.019v.099zm0 .165c0 .037 0 .066.037.092 0-.037-.037-.059-.037-.092m3.23 4.679c1.442 1.799 3.247 3.847 5.36 6.1-2.112-2.251-3.919-4.302-5.36-6.1"/><path fill="#988985" fill-rule="evenodd" d="M240.507 828.182c-1.675 1.839-2.684 3.53-2.684 4.85 0 .76-.873 3.17-2.375 6.682l10.65-7.6s-2.718-2.48-5.59-3.932" opacity=".822"/><path fill="#5475a5" d="M1214.964 717.681c-1.528-.066.103 3.975 7.018 14.252 15.508 23.045 37.415 68.632 34.924 75.606 4.096 3.203 10.086 3.392 11.006 3.392-1.095-2.223-1.156-4.337-1.156-6.446 0-11.42-9.589-36.304-19.8-51.375-11.296-16.674-28.75-35.285-31.992-35.422zm81.293 28.196c-.594 0-.364 1.435 1.026 4.686 1.204 2.813 5.517 14.246 9.588 25.404 4.07 11.159 11.131 28.522 15.694 38.587 3.09 6.816 3.859 12.381 4.722 14.958.372.037.746.305.892 1.022 1.797 2.872 5.285 3.665 8.245 5.025.07.037.136.066.21.1-1.14-2.805-2.152-6.528-3.517-11.842-6.294-24.504-11.807-38.658-22.555-57.877-6.402-11.447-12.842-20.074-14.303-20.065zm55.093 3.308c-.151 0-.265.044-.331.114-.513.566 7.242 18.453 17.237 39.75 8.5 18.109 15.308 34.544 16.265 39.613 1.443 0 .85 4.56 13.388 5.126-.213-.002-3.109-4.856-3.79-9.93-2.001-14.927-27.357-65.826-35.422-71.11-3.258-2.136-6.312-3.576-7.37-3.524zm-228.494-40.381c-3.703.312-.32 7.67 16.319 24.485l-.062.037c10.707 10.821 23.827 25.844 29.157 33.384 0 0 11.691 16.226 11.713 16.26h.037c1.645 1.918 4.8 1.282 5.461 1.148.158-.283-3.86-10.763-6.641-16.712-15.658-33.48-47.788-58.31-55.53-58.508h-.038a8 8 0 0 0-.353 0z"/><path fill="#7698ca" d="M613.89 907.717v2.461c1.942 1.031 3.725 2.285 5.763 3.89 8.363 6.585 13.352 9.384 22.082 12.386 11.493 3.953 26.629 5.767 45.469 7.062 18.248 1.254 55.167-.766 56.958-1.622.728-.345 4.855-1.997 7.32-8.195 6.529-16.419 1.167-14.5-5.354-3.23-5.632 9.734-17.309 7.606-30.987 6.746-10.608-.667-28.642 0-38.982-1.658-17.17-2.754-28.542-5.786-45.979-12.257-6.373-2.366-11.554-4.17-16.29-5.583"/><path fill="url(#b)" d="m233.216 569.891-5.038.173c-6.232.217-14.401.917-41.565 3.588-35.43 3.475-57.216 7.777-81.731 12.781-27.557 5.646-57.499 10.268-66.532 10.27-8.15 0-12.397-.144-15.752-1.6 4.856 2.914 9.351 6.382 14.561 8.697 3.778 1.895 7.882 4.808 7.994 4.98-1.736-2.6 1.28-4.062 9.114-4.062 4.69 0 28.828-4.664 53.837-9.357 23.186-4.352 46.182-10.458 69.424-12.546 15.954-1.434 32.05-3.628 44.816-6.818 6.15-1.537 9.514-2.044 9.975-3.445z"/><path fill="#fff" d="M242.75 380.28c-15.873-.045-23.238 6.63-6.934 11.841 11.812 3.776 10.521 10.476 17.414 31.922 5.007 15.576 12.377 22.213 1.587 45-6.964 14.709-17.164 1.793-38.268 7.958-21.291 6.219-30.425 28.18-42.12 16.845-10.205-9.892-11.363-6.845-3.358 8.848 8.44 16.544 27.28 41.855 51.546 54.05 26.277 13.208 35.451 13.056 54.575-.889 7.006-5.108 20.559-13.169 30.112-17.912 33.758-16.761 43.59-31.854 43.625-66.97.037-25.204-6.276-43.59-20.833-60.804-13.932-16.474-56.162-29.805-87.347-29.89"/><path d="M222.616 389.057c-3.638.173-6.976.063-9.652.76-8.989 2.347-19.19 10.502-27.605 19.015-3.08 3.117-6.099 7.454-7.179 9.282-10.098 17.088-15.271 46.813-10.692 61.48 2.468 7.905 7.248 15.874 12.939 21.586 3.623 3.638 6.636 5.409 11.36 6.68 5.846 1.575 11.472.865 25.397-3.207 28.633-8.373 42.96-20.699 52.394-47.306 3.58-10.1 4.98-16.061 3.963-21.683-1.07-5.907-6.43-21.349-9.005-26.474-2.498-4.973-4.749-7.2-7.74-9.876-6.58-5.885-24.562-10.712-34.18-10.257m26.158 34.92c1.267-.384 2.599-.32 4.456.066 9.582 1.982 14.016 14.99 7.959 23.352-1.918 2.648-4.142 3.99-8.533 5.16-6.217 1.656-13.536.645-14.991-2.074-2.988-5.584.728-18.173 7.047-23.855 1.59-1.43 2.795-2.264 4.062-2.648z"/><path fill="#3c3431" d="M43.754 493.134c-2.508.191-4.877 1.813-7.528 4.464-4.319 4.318-7.467 11.01-8.985 17.173-.759 3.081-1.105 6.023-.89 8.554.216 2.53.997 4.833 2.964 6.05 1.327.82 2.914.953 4.363.595 1.45-.356 2.825-1.143 4.163-2.189 2.675-2.091 5.24-5.28 7.427-8.891 2.187-3.612 3.972-7.638 4.923-11.446s1.153-7.454-.373-10.305c-.682-1.275-1.49-2.307-2.519-3.029a5.47 5.47 0 0 0-3.545-.976"/><path fill="#988985" d="M91.785 431.482c-16.237 12.314-31.505 24.965-49.021 40.346C10.263 500.365 0 518.165 0 545.995c0 21.643 2.136 28.17 13.456 41.063 8.007 9.12 9.371 9.647 24.894 9.645 9.033-.001 38.971-4.64 66.532-10.27 35.164-7.182 48.655-8.748 48.55-8.791 0 0-4.573-17.053-8.298-24.456-4.508-8.958-8.347-14.195-17.984-24.536-20.61-22.118-30.223-40.46-33.306-63.575-1.557-11.66-4.146-25.255-2.059-33.593m-47.026 62.406c4.42.062 6.457 4.726 4.958 12.716-2.865 15.276-15.068 27.645-21.213 21.5-5.55-5.55 2.002-27.837 11.08-32.695 1.96-1.05 3.701-1.542 5.175-1.521m9.493 110.83c-13.62 0-12.676 4.417 2.483 11.562 23.703 11.173 35.26 13.012 78.035 12.415 14.438-.203 25.951-.037 34.927.545-6.558-8.099-14.898-43.291-14.898-43.291-33.63 5.913-66.79 13.39-100.547 18.77"/><path fill="#789bcd" d="M1038.477 707.447v.037l-.06.037-.065.051c-3.652.092-5.433 1.51-5.433 4.277 0 2.055 25.383 28.328 35.61 36.858 1.129.941 2.032 1.97 2.554 2.827l1.155 1.055-.724.517v.044c.334.202.645.438.976.646q.572.33 1.097.74c.18.15.387.275.582.408a10.4 10.4 0 0 1 1.629-.796l-.088 1.12c-.037.625-.037.928.073 1.04l.037.051h.037c.05 0 .114-.051.173-.073 2.107-.81 3.86-.576 6.86.89 2.822 1.378 6.634 3.932 17.683 11.833 24.647 17.628 41.27 27.354 51.332 30.055 2.093.56 4.815.62 6.731.136 3.176-.8 8.467-3.834 11.906-6.825 2.711-2.358 5.009-5.74 5.009-7.406 0-1.114.444-2.39.911-2.64.685-.368 1.66-.27 2.505.249.096.055.195.107.286.15.037-.106.096-.176.188-.194.121-.037.28.051.401.257v.037s.037.036.037.044h.037c.93-1.131-10.159-15.925-22.562-30.542-2.49-3.021-5.187-6.152-7.908-9.086l-.151-.165q-.778-.869-1.55-1.715c-.792-.873-2.311-2.474-4.205-4.443-18.386-19.526-21.28-21.116-20.532-23.064 1.068-2.782 5.718-2.654 11.267 1.098 2.945 1.991 7.803 6.005 13.434 11.274 6.113 6.162 12.59 13.711 18.135 21.328 8.176 11.23 13.989 21.482 17.66 31.16.758 1.996 1.441 3.633 2.175 5.087.161 0 .283.173.216.41 1.68 3.213 3.674 5.604 7.392 9.321 11.371 11.713 30.738 23.078 42.976 24.49 7.314.844 12.354-.187 17.322-5.089 3.415-3.367 4.303-6.711 4.023-7.975-.957-4.32-1.552-10.474-10.091-27.787-8.18-16.582-24.992-47.559-28.232-52.237-.395-1.003-.617-1.708-.617-2.002 0-.198 0-.377.044-.538.815.815 2.012 1.922 3.552 3.38 6.801 6.44 17.016 17.718 23.144 27.14 11.431 17.578 18.301 34.76 19.828 48.34.426 3.784 1.093 6.685 2.677 9.674.556 1.029 6.547 8.992 14.978 16.813 10.795 10.013 15.97 14.553 21.162 16.46 3.334 1.226 8.111 1.636 12.24-.036 4.945-1.886 9.212-7.048 9.103-11.294-.037-1.38 1.652-2.742 2.555-2.397 1.653.634-.9-5.532-9.789-27.602-3.662-9.093-8.582-22.543-11.317-29.839s-8.448-22.148-8.533-21.895v.06c-.279-1.395-.36-2.424-.279-3.123 10.18 13.29 28.997 53.366 35.839 79.27 1.068 4.044 1.24 5.857 2.381 8.508.346.804 1.347 2.327 1.347 2.327s1.16 1.62 1.923 2.566c4.717 5.847 13.735 10.625 21.524 11.767 5.643.827 8.973-.56 13.55-5.49 4.706-5.07 6.672-7.67 7.072-14.079.052-.797.715-2.362 1.474-3.263.338-.467.89-.686 1.379-1.023.224-.117-4.59-16.167-14.54-37.769-7.61-16.523-12.137-26.26-13.779-32.961a48 48 0 0 0-1.693-5.418c1.094-1.983 9.335 6.338 10.98 9.098 8.641 14.503 24.264 47.325 27.506 60.783 1.09 4.52 2.845 8.862 4.914 11.394s4.45 3.255 7.908 4.865c7.82 3.64 16.792 6.418 27.832 8.38.631.12 5.158.663 8.821.597 7.496-.133 8.869-1.086 11.157-3.692 2.262-2.576 3.094-5.384 2.803-9.508-.775-11.006-10.824-25.41-28.918-42.559-8.734-8.277-15.438-15.616-16.972-18.751-2.236-4.573-13.12-17.507-21.07-25.361-4.609-4.555-11.203-9.543-11.848-9.545-3.332-2.756-6.325-4.854-8.597-5.856-6.643-2.929-18.712-6.45-20.618-5.813-.077.037-.124.06-.15.1v.096c.037.477 2.335 1.594 5.712 2.69 6.44 2.09 12.281 4.937 18.092 8.899q.788.507 1.543 1.019c1.898 1.287 4.117 3.075 6.48 5.167a125 125 0 0 1 4.7 4.255c.206.195.414.398.617.596a332 332 0 0 0 4.715 4.844c1.138 1.227 2.24 2.456 3.337 3.674 4.315 4.79 8.096 9.344 9.968 12.394 1.418 2.201 2.054 3.744 1.55 4.248-.406.406-1.323 0-2.425-.99-.784-.503-1.64-1.273-2.376-2.182-1.345-1.66-8.154-5.764-16.907-10.47-2.559-1.17-5.466-2.687-8.253-4.32-9.978-5.097-20.91-10.245-28.834-13.384-27.224-10.783-59.913-20.173-74.77-21.472-2.603-.228-6.652-.996-10.391-1.535-1.074-.147-1.906-.257-3.008-.43-3.373-.524-6.49-.83-9.264-1.379-4.902-.97-18.863-2.094-26.904-3.107-17.176-2.095-34.204-3.392-54.877-4.636-1.028-.799-4.256-.797-8.325-.445-20.015-.918-42.058-1.466-72.272-.353-25.726.954-31.16.832-38.293-.875h-.052c-.294-.07-.58-.103-.883-.18-3.555-.898-6.42-1.317-8.612-1.263zm136.802 71.993c.092 0 .21 0 .338.085.272.15.563.268.854.38.345.121.688.254 1.04.353.199.048.401.103.596.165.56.184.37.75-.195.567a8 8 0 0 0-.567-.158c-.368-.103-.73-.239-1.09-.367a6.3 6.3 0 0 1-.955-.43c-.384-.225-.301-.558-.037-.59zm-273.195-6.387c-9.44 0-10.86 4.419-1.988 6.193 4.123.825 12.497 6.499 18.608 12.61 10.932 10.931 31.196 54.855 31.196 54.855l2.197-1.947s-1.596-5.274-3.352-12.255c-6.906-27.466-32.011-59.456-46.66-59.456zm-108.226 28.175c-1.314.051-2.813 3.519-2.813 8.826 0 9.469 17.81 46.165 30.341 62.52 5.36 6.994 10.05 15.4 10.05 15.4s7.53.317 9.807 0c0 0-5.72-7-11.196-14.324-11.544-15.44-33.684-59.223-34.338-67.902-.24-3.181-1.01-4.555-1.852-4.521z"/><rect width="5.181" height="6.272" x="1061.506" y="753.586" fill="#00f" fill-rule="evenodd" ry=".344"/><path fill="#789bcd" d="M472.172 856.464c3.15-9.374 11.085-26.992 11.782-40.37.316-6.037.888-11.103 1.36-12.015.45-.868 2.227-2.83 3.95-4.36 5.407-4.803 12.24-17.339 13.284-24.368.505-3.402 1.75-5.154 3.253-4.577 2.667 1.023 1.472 7.879-3.31 18.982-4.599 10.678-4.492 14.781.45 17.337 1.633.845 2.124.837 4.287-.066 1.344-.56 3.774-2.143 5.4-3.514 4.885-4.12 10.496-7.83 11.838-7.83 1.032 0 1.185.304.84 1.677-1.205 4.802-6.256 9.846-12.06 12.041-5.136 1.943-9.776 2.42-16.383 1.682-7.891-.88-7.707-1.123-8.374 11.027-.849 15.466-11.24 37.177-16.521 41.205-1.277.974-2.006.36-2.006.36s.821-3.076 2.21-7.212z"/><path fill="#789bcd" d="M327.957 713.052c-1.525.088-1.951 4.976-1.951 18.178 0 22.958-2.389 29.44-19.147 51.906-9.216 12.355-9.766 14.973-13.252 11.598l-6.49 13.506c3.174-1.786 11.462-3.248 16.132-8.49 5.905-6.63 14.943-18.626 20.087-26.66 8.62-13.465 9.35-16.23 9.35-35.25 0-12.948-1.241-21.882-3.337-23.977-.542-.543-1.003-.833-1.392-.81m-3.947-91.843c-2.212 0-8.447 2.766-23.05 9.408-27.626 12.566-44.7 13.938-79.047 6.373-13.893-3.061-22.598-.755-22.598-.755l2.804 4.005 22.873 5.174c31.262 7.446 51.544 5.65 77.583-6.875 11.084-5.331 20.852-11.52 21.708-13.75.87-2.267 1.24-3.574-.272-3.58zm115.711 130.458-.059.037c-1.165.036-2.542 3.799-5.346 13.06-4.962 16.39-12.114 22.248-12.114 9.925 0-7.27-7.392-17.13-13.362-17.825-7.775-.91-10.685.209-10.685 4.09 0 2.41 1.562 3.32 4.04 2.368 5.51-2.114 11.313 3.224 13.29 12.229 3.326 15.142-25.829 53.628-40.625 53.628-4.306 0-5.787-2.33-7.226-11.331-.996-6.23-4.37-14.044-7.492-17.367-5.697-6.064-18.106-8.376-18.106-3.373 0 1.47 1.72 2.677 3.818 2.677 6.86 0 14.89 13.392 14.89 24.83 0 8.525-2.31 13.738-11.144 25.189-10.708 13.879-21.8 22.131-29.768 22.131-2.518 0-4.284-4.333-5.317-13.06-1.606-13.558-8.945-34.205-11.318-31.834-.744.746 0 7.626 1.637 15.292 4.704 21.933 1.982 29.487-14.288 39.62-13.788 8.588-26 11.339-26 5.856 0-1.556-1.265-2.05-2.806-1.097-4.837 2.989 2.809 9.271 11.281 9.271 9.23 0 20.276-5.273 27.292-13.025 2.765-3.055 6.068-4.913 7.341-4.126 3.356 2.075 2.75 19.08-1.234 34.518-3.053 11.835-5.548 15.214-5.548 15.214 5.78.92 6.469 1.988 8.892 3.121.33.155-1.676-5.045 1.643-10.11 3.144-4.8 4.707-12.961 4.923-25.67.305-18.008.542-18.645 6.997-18.645 10.483 0 22.55-8.954 32.2-23.847l8.87-13.678 5.519 8.712c4.8 7.583 5.515 12.97 5.518 41.472v31.554c3.617-4.036 5.396-4.179 11.554-1.628 13.642 5.65 35.955-7.433 44.321-25.986 2.91-6.453 5.638-9.78 9.588-11.374q-.664.083-1.263.084c-4.98 0-5.362-1.865-5.605-27.377-.15-15.747-2.053-33.999-4.478-42.95-3.969-14.652-3.928-15.85.61-20.388 7.104-7.104 14.097-30.053 11.389-37.375-.666-1.8-1.22-2.817-1.83-2.806zm-21.098 45.168 3.717 15.5c3.448 14.374 6.072 79.663 3.581 89.166-.604 2.307-4.798 6.932-9.322 10.277-10.584 7.824-20.964 10.742-28.41 7.987-5.673-2.098-5.884-3.4-5.319-32.358.524-26.775-.062-31.28-5.195-39.965l-5.784-9.789 7.119-1.78c10.7-2.669 23.905-13.794 32.207-27.133zm49.84 66.251c-1.57.044-2.306 1.345-3.617 3.797-.719 1.342-1.89 2.787-3.36 4.234l8.476-7.442 10.205 5.095.15-.158a58 58 0 0 1-1.277-.689c-5.953-3.321-8.8-4.886-10.577-4.837m-7.658 8.626c-.3.24-.617.48-.897.725.206-.173.455-.334.653-.51zm-89.539 54.146-1.894 1.442h.28a57 57 0 0 0 1.614-1.442"/><path fill="#b8b4c6" d="M540.356 1032.887c0 .037-.037.066-.044.1-.606 1.336-2.253 3.095-4.808 5.303-2.88 2.487-5.203 4.776-5.626 7.018-.438 1.148-.48 2.886-.085 3.796.147.342.494 1.006.869 1.414.976 1.062 2.08 2.108 5.434 3.606 1.686.753 2.28 1.086 2.542 1.72.177.429-.169.606-1.175 1.628-2.065 2.088-2.927 4.24-2.964 6.946-.044 3.607 1.053 4.368 6.453 5.01.268.037 1.141.073 1.945.073.867-.037 1.693.037 2.54.037 2.225.073 10.22-1.735 12.803-2.892 3.557-1.594 4.557-4.747 4.557-14.425 0-7.831-.714-12.155-2.964-17.682a4.2 4.2 0 0 1-.257-.998c-6.519 4.866-14.426 1.484-19.218-.653z"/><path fill="#b8b4c6" d="M542.846 979.224s-3.836.235-6.322.847c-3.236.799-6.498 2.077-11.087 4.284-10.805 5.194-16.292 10.804-14.755 15.314.492 1.445 2.91 3.266 5.992 4.7.768.357 2.415.993 3.18 1.35 1.976.919 3.401 1.952 5.296 3.825 1.964 1.94 4.152 4.85 5.798 7.808 3.664 6.585 6.375 11.411 8.557 13.361 2.882-1.03 9.563 7.549 19.912.078.037 0 .044-.037.066-.044.125-2.213.854-3.719 3.438-7.614 3.375-5.092 4.548-7.993 5.138-12.68 1.008-8.013-1.924-17.511-8.181-22.65-1.592-1.307-5.03-4.947-6.222-5.705-3.891-2.472-6.344-2.926-10.807-2.877z"/><path fill="#988985" d="M267.798 916.22c-3.651-1.445-9.062-5.797-10.612-14.933-.583-3.432-3.523-5.155-3.647-5.296-.125-.14-1.735 1.668-3.599 4.713-6.054 9.892-10.412 13.732-13.116 14.423-5.889 1.505-8-.206-6.256-9.111.482-2.464.841-5.572.841-6.54 0-3.941-1.717-5.795-5.864-1.817-1.417 1.36-3.4 3.156-4.649 4.296-7.56 6.894-11.317 5.353-12.345-1.612-.154-1.032 2.37-9.952 6.608-18.64l7.852-16.097-.059 5.242c-.051 4.685 2.291 6.336 3.889 8.754 1.473 2.229 2.96 3.273 8.443 5.936 3.66 1.777 9.204 3.961 12.32 4.855 9.372 2.687 11.15 4.114 15.901 12.764 1.459 2.654 3.253 8.102 4.898 10.335 1.646 2.233 2.768 4.06 2.494 4.06-.272 0-1.699-.777-3.099-1.331"/><path fill="#b8b4c6" d="M970.682 1054.96c-8.456.136-18.48 8.172-16.304 13.842 2.088 5.443 5.135 5.813 17.223.762 11.225-4.69 11.637-13.248.753-14.518a12.5 12.5 0 0 0-1.672-.084zm-45.684-2.684c-8.248.418-13.522 6.474-10.532 14.263 1.786 4.654 7.08 5.034 15.742 1.253.616-.294 1.179-.526 1.83-.869 7.796-4.173 7.55-11.873-.869-13.986-2.194-.55-4.268-.757-6.171-.66m-40.13-54.82c-9.01.892-11.924 7.965-13.29 16.47-.052.286-.092.576-.136.868-2.479 13.35 4.35 30.257 14.51 37.883a37 37 0 0 0 5.526 3.388c1.792.723 7.561 1.485 9.451 1.485 3.443 0 4.857-1.65 5.741-3.954.884-2.303-.385-6.401-2.052-8.066-.869-2.73-1.192-6.287-.287-11.06.338-.352.747-.58 1.213-.659.49-.239 1.011-.469 1.571-.682 9.383-3.568 8.38-7.526-5.604-22.046-8.043-8.35-16.618-13.613-16.642-13.627z"/></g></svg>