<svg xmlns="http://www.w3.org/2000/svg" xmlns:xlink="http://www.w3.org/1999/xlink" xml:space="preserve" width="1417" height="1520"><defs><path id="a" fill="#00426a" d="M673.584 988.879c-.131 0-.291.063-.48.18-.55.34-1 1.298-1 2.128 0 1.887-13.75 27.6-24.024 44.924-4.257 7.18-8.921 15.38-10.365 18.229-2.746 5.42-6.795 15.219-6.287 15.219.163 0 2.287-3.007 4.72-6.682 4.202-6.345 19.818-23.79 20.598-23.01.61.61-5.35 23.571-8.586 33.082-2.574 7.567-2.745 8.64-1.15 7.196 1.032-.933 3.229-4.26 4.883-7.391 3.56-6.741 13.403-34.225 16.347-45.648 3.035-11.773 5.843-28.002 4.906-28.342-.446-.163-.424-1.963.05-4 .964-4.15 1.097-5.891.388-5.885m5.984-57.82-1.336 4.494c-1.977 6.652-4.327 10.859-15.921 28.506-5.782 8.8-13.434 20.714-17.006 26.476l-6.495 10.477 13.399-12.688 13.397-12.69.312 3.493c.697 7.799-4.813 20.982-16.967 40.59-4.315 6.962-7.826 13.037-7.8 13.5 0 .01 0 .022.01.029 0 0 0 .01.01.01 0 0 0 .01.01.01.257.18 2.857-2.242 5.98-5.59 10.437-11.192 23.15-41.35 27.447-65.113.945-5.225 2.602-12.437 3.682-16.026 1.113-3.699 1.819-8.464 1.629-11zm2.922-43.831c-.566.044-2.054 2.568-5.37 8.41-1.916 3.375-7.09 10.415-11.5 15.645a4376 4376 0 0 0-12.296 14.64c-5.295 6.354-16.57 22.632-15.676 22.632.362 0 2.791-1.912 5.395-4.25 2.605-2.337 7.509-6.19 10.897-8.563 5.025-3.52 6.156-3.98 6.156-2.5-.01 1.92-15.925 34.676-20.563 42.313l-2.734 4.502 3.164-2.95c7.544-7.034 19.058-26.377 29.24-49.127 8.38-18.72 12.848-31.175 13.428-37.423.2-2.151.26-3.36-.14-3.329"/></defs><path fill="#d45500" d="m723.635 366.4-.006.002h-.002l-.002.002h-.002v.002l-.002.002-.002.002v.002l-.002.002v.012h-.03c-.46.031-.185 1.045-.187 2.721 0 1.82-.06 6.165-1.982 9.984-3.815 7.574-5.046 13.21-2.553 16.768 1.822 2.602 4.651 2.868 6.869.648 2.034-2.033.367-4.363-1.916-8.474-1.51-2.631-1.571-3.708-.5-8.89 1.478-7.16 1.85-11.86.508-12.688-.057-.035-.152-.1-.192-.094zm12.998-29.511v.002h-.065a.8.8 0 0 0-.363.13c-.402.249-.535 2.832-.299 5.743.3 3.682 1.265 8.42-.888 17.552-1.703 7.22-3.53 14.73-3.53 16.19 0 3.68 2.88 8.762 5.09 10.047 2.682 1.559 5.32 1.879 6.772.13 1.7-2.047.068-9.116-2.73-14.535-1.924-3.724-1.84-5.816-1.973-18.091-.13-12.092-.697-17.095-2.014-17.168m8.691-16.366c-.454.035-.335.596-.138 1.784.468 2.822 2.063 9.856 1.181 24.638-.859 14.414-1.462 20.883 4.004 26.516 2.17 2.234 4.816 3.98 6.035 3.98 2.761 0 6.367-3.43 6.367-5.898 0-3.15-6.53-16.034-10.048-20.55-3.05-3.916-3.55-5.567-4.356-14.641-1-11.276-.826-15.12-2.56-15.74a1.4 1.4 0 0 0-.438-.089zm7.066-11.068a.1.1 0 0 0-.05.014l-.006.004-.004.006v.006c-.007.107.67.562 1.972 2.328 1.356 1.84 2.227 5.3 2.659 14.408.487 10.26.37 13.489 2.455 17.215 1.364 2.437 3.92 5.153 5.78 6.139 2.632 1.397 3.947 1.553 6.269.744 7.038-2.454 4.702-8.3-4.657-18.014-3.486-3.618-6.805-10.506-8.521-14.025s-3.181-6.928-4.2-7.85c-.728-.66-1.237-.965-1.52-.973q-.118-.005-.177-.002m-32.917-18.485c-3.472-.057-8.956 1.1-18.405 3.432-14.59 3.602-25.373 18.666-19.078 26.65 1.24 1.576 3.647 3.712 5.346 4.749 4.716 2.875 11.51 2.479 18.367-1.072 7.991-4.138 9.587-5.644 13.83-13.038 7.673-13.367 7.906-13.99 6.285-16.878-1.41-2.513-2.873-3.784-6.345-3.842m35.144-.594c-.047.007-.137.08-.176.12-.307.306 1.205 1.298 2.366 2.773 1.16 1.476 3.122 5.868 4.213 9.802 3.92 14.141 7.755 20.226 11.554 22.66 6.137 3.932 10.944.956 10.944-5.154 0-2.91-3.684-5.483-11.157-9.781-4.914-2.827-7.145-5.503-9.357-9.402-2.946-5.192-7.107-11.08-8.356-10.989l-.002-.013-.002-.006-.002-.002v-.002l-.002-.002h-.002l-.002-.002h-.002l-.006-.002zm-1.094-11.201c-1.573 0-.506.661 1.674 1.844 1.238.67 4.027 4.293 6.227 7.376s5.847 7.063 8.29 8.627c9.38 6.002 20.07-1.046 10.89-5.966-2.443-1.31-4.43-2.465-8.829-2.963-4.53-.512-7.446-.68-9.761-2.666-3.93-3.372-7.477-6.252-8.489-6.252zm-17.039-14.58c-.393 0-.558.206-.558.611 0 1.91 6.597 3.718 12.4 6.025 5.56 2.211 16.799 2.856 17.801 1.235 1.129-1.826 1.885-2.975-1.541-4.608-4.202-2.004-7.186-2.55-14.95-.947-5.447 1.125-6.21 1.053-9.808-.918-1.713-.938-2.77-1.392-3.344-1.398"/><path fill="#d45500" d="M705.42 259.4v19.55a3.013 3.013 0 0 1-3.016 3.017H684.49c4.352 6.519 8.471 10.749 13.08 8.88 1.754-.71 6.554-.38 9.854-1.64s8.433-3.228 11.404-4.373 6.523-3.111 7.89-4.365l2.487-2.278-.715 3c-2.514 30.457 29.513 13.322-12.67-20.584-1.777-.263-6.92-.41-10.4-1.207M673.1 989.43c-.231.057-.53 1.473-.377 4.681q.21-.57.3-1.007c.48-2.347.315-3.734.077-3.674m-.377 4.681c-1.885 5.097-10.954 18.271-24.645 41.996-12.522 21.7-16.864 30.965-17.7 39.059-.621 6.015.353 7.879 5.224 10.002 4.915 2.142 6.836 2.14 11.003-4.277 5.285-8.14 5.362-9.33 15.102-34.092 8.517-21.65 10.395-35.89 11.129-50.975a50 50 0 0 1-.113-1.713m-4.452-31.105c-2.905-.152-8.156 4.704-15.982 16.658l-.002.002c-15.834 24.186-17.044 27.22-20.098 37.246-2.486 8.16-2.655 13.39-.53 16.422 1.048 1.498 2.586 2.22 4.712 2.22 2.588 0 3.341.077 8.295-6.232 5.186-6.604 8.964-10.113 13.883-20.297 11.78-24.392 15.671-45.707 9.722-46.02m20.449 80.71s-7.136 13.848-8.546 19.898c-12.308 52.822-24.222 85.243-21.024 107.444 1.433 9.952 9.523 37.706 12.993 44.58 1.61 3.193 3.694 6.235 4.632 6.76 2.726 1.525 2.976.304 3.637-4.167.34-2.294 1.335-6.446 1.86-10.021 3.175-21.617 6.449-164.494 6.449-164.494m-19.797-116.492-17.16.513c-13.29 18.932-25.92 37.337-27.268 45.82-.712 4.489-.062 9.18 2.826 10.329 3.517 1.398 5.87.269 11.06-5.303 9.413-10.107 20.136-28.403 30.542-51.36"/><use xlink:href="#a"/><path fill="#00426a" d="M691.201 695.564c-1.073.012-1.12 23.353-.059 28.995 1.032 5.483 3.471 82.26 3.367 106-.03 6.874-.58 18.8-1.222 26.5s-1.63 30.65-2.198 51c-.697 25.033-1.683 42.336-3.043 53.5-1.106 9.074-2.682 22.124-3.502 29-2.979 24.948-9.407 60.807-15.937 88.91-5.586 24.04-10.492 59.921-10.502 76.781 0 8.095 1.48 10.53 2.475 4.063 3.596-23.399 12.377-55.666 19.254-70.756 2.413-5.296 2.542-5.407 3.492-3 .915 2.322.776 15.127-.758 69.5-.956 33.91-2.408 57.131-4.025 64.35-.363 1.62-.132 2.215.748 1.921 1.739-.58 7.535-38.352 9.785-63.77.512-5.775 1.622-17.475 2.472-26 3.187-31.982 4.653-64.277 5.624-124 2.056-126.46 1.434-222.94-1.708-265-3.064-41.007-3.684-48.004-4.263-47.994m50.662-45.851c-.541.022-.742 2.55-.293 7.344.735 7.849.22 9.382-1.595 4.75l-1.079-2.75-.998 2.5c-1.338 3.353-.322 18.747 2.176 33 1.108 6.325 2.022 13.38 2.022 15.677.01 3.153.435 4.275 1.756 4.582 4.058.941 4.551-1.232 4.634-20.447.063-14.398-.305-19.916-1.72-25.812-.99-4.125-2.321-10.088-2.96-13.25-.767-3.8-1.48-5.613-1.943-5.594m-66.521-.002c-.463-.019-1.176 1.797-1.944 5.596-.639 3.163-1.97 9.126-2.96 13.25-2.18 9.082-2.518 42.872-.454 45.359.655.789 2.075 1.204 3.155.922 1.55-.406 1.968-1.384 1.968-4.647 0-2.274.915-9.31 2.024-15.634 2.498-14.252 3.512-29.646 2.174-33l-.996-2.5-1.078 2.75c-1.816 4.633-2.332 3.1-1.596-4.75.45-4.794.249-7.324-.293-7.346m77.958-11.125c-.336 0-.142.31.552 1.045 1.535 1.628 1.659 9.555.164 10.48-1.793 1.107-3.108-1.097-3.68-6.17-.431-3.82-.7-4.357-1.332-2.648-1.343 3.632-.283 27.909 1.978 45.262 1.183 9.075 2.55 19.822 3.036 23.88.487 4.059 1.451 7.729 2.144 8.157 2.175 1.343 3.875-.1 5.18-4.39 1.733-5.702 1.352-43.778-.58-57.893-1.465-10.71-3.723-16.651-6.67-17.551q-.563-.174-.791-.174zm-89.398-.002c-.153 0-.417.063-.793.178-5.152 1.573-7.97 17.982-8.295 48.295-.226 21.104.465 28.535 2.875 30.945.807.808 2.092 1.23 2.852.94 1.823-.7 2.479-3.61 3.559-15.756.496-5.571 1.628-14.854 2.515-20.63 1.813-11.807 2.823-37.912 1.596-41.232-.65-1.755-.908-1.254-1.344 2.615-.572 5.074-1.888 7.278-3.68 6.17-1.496-.924-1.372-8.851.163-10.478.694-.736.89-1.045.552-1.047m-17.291-8.034q-.704.045-3.41 6.095c-4.326 9.675-6.06 18.238-6.082 30.03-.028 15.364 4.253 34.952 8.768 40.13 2.157 2.473 5.08 2.214 5.64-.5 2.368-11.475 2.513-59.773.2-66.75-.913-2.756-1.517-3.651-1.557-2.307-.07 2.244-4.488 8.214-5.404 7.3-.28-.277.152-3.365.959-6.86q1.658-7.187.886-7.14zm123.871-.386c-.055 0-.099.048-.126.133-.19.57.315 3.896 1.123 7.392.807 3.496 1.24 6.584.96 6.862-.916.913-5.336-5.055-5.404-7.299-.04-1.345-.644-.451-1.558 2.305-2.312 6.978-2.17 55.276.199 66.75.56 2.714 3.485 2.973 5.642.5 6.847-7.854 11.081-40.881 7.297-56.928-1.51-6.412-7.095-19.795-8.133-19.715m18.328-23.174c-.42.012-.457 2.408-.083 6.436.535 5.756.38 7.515-.721 8.213-2.196 1.39-2.744 1.128-4.42-2.114-3.062-5.922-3.605-2.459-3.115 19.875.603 27.438 3.507 48.07 7.379 52.409 3.948 4.423 10.49-.511 11.94-9.006 1.237-7.236.829-36.793-.624-45.244-1.256-7.31-8.354-28.523-10.197-30.479q-.086-.09-.159-.09m-160.415 0q-.071 0-.159.09c-1.844 1.956-8.942 23.17-10.199 30.479-1.452 8.45-1.86 38.008-.625 45.244.454 2.658 1.924 6.067 3.34 7.75 2.852 3.389 6.255 3.886 8.602 1.256 3.871-4.338 6.775-24.97 7.378-52.408.49-22.334-.05-25.796-3.113-19.875-1.677 3.242-2.224 3.503-4.42 2.113-1.102-.698-1.257-2.457-.722-8.213.374-4.028.338-6.424-.082-6.436m81.179-16.293c-.26-.26-.472 21.505-.472 48.365 0 44.041.163 49.018 1.656 50.668 1.822 2.014 3.136 2.246 5.224.924 1.017-.645 1.336-3.076 1.215-9.26-.11-5.571.376-9.886 1.448-12.86 3.8-10.545 2.858-31.417-2.182-48.382-1.293-4.349-3.264-12.649-4.383-18.445s-2.246-10.75-2.506-11.01m-91.914-4.14c-3.399 0-12.451 15.49-17.2 29.43-5.14 15.09-7.22 36.378-4.478 45.82.76 2.612 1.929 4.75 2.6 4.75 3.11 0 12.587-20.35 17.108-36.737 1.248-4.53 2.763-11.73 3.363-16s1.328-9.226 1.617-11.013c.655-4.064-.915-4.239-2.553-.284-1.648 3.978-3.755 5.695-5.205 4.245-1.585-1.586.89-12.492 3.815-16.801 1.663-2.45 1.926-3.41.933-3.41m181.9-.055c-.766-.014-.65 1.156.917 3.465 2.925 4.31 5.401 15.214 3.816 16.799-1.451 1.452-3.557-.264-5.205-4.243-1.638-3.955-3.208-3.781-2.553.284.288 1.787 1.015 6.743 1.615 11.013 2.12 15.068 9.63 37.26 16.168 47.778 1.696 2.728 3.6 4.959 4.233 4.959 3.929 0 5.117-19.289 2.16-35.07-2.793-14.902-10.657-34.08-17.129-41.772-1.802-2.142-3.301-3.2-4.021-3.213m-249.403-9.145c-2.542.146-3.013.806-.308 1.512.962.252 3.75.51 6.199.574 6.22.162 3.872-1.615-2.7-2.043-1.266-.082-2.344-.09-3.19-.043m17.657-.785c-5.423-.016-7.461 2.238-4.189 4.631 1.102.806 4.444 1.356 8.236 1.356 5.505 0 6.338-.239 6.051-1.727-.48-2.5-4.612-4.243-10.098-4.26m160.481-2.039c-.345.01-.154.354.533 1.188 1.735 2.102 2.577 8.47 1.398 10.57-1.122 2.001-1.042 2.148-3.427-6.232l-1.422-5-1.66 3.767c-1.566 3.557-1.542 4.451.418 16 2.527 14.89 4.756 25.473 5.996 28.483 1.073 2.603 3.48 2.97 4.363.668.918-2.392.692-24.759-.35-34.65-.967-9.202-2.556-13.801-5.044-14.608-.382-.124-.648-.19-.805-.186m-39.391 0q-.233 0-.804.186c-2.49.807-4.077 5.407-5.045 14.607-1.041 9.892-1.266 32.259-.348 34.65.883 2.304 3.29 1.936 4.363-.667 1.24-3.01 3.466-13.593 5.994-28.483 1.96-11.549 1.983-12.443.418-16l-1.658-3.767-1.424 5c-2.384 8.38-2.303 8.232-3.427 6.232-1.178-2.1-.335-8.468 1.4-10.57.687-.834.876-1.18.531-1.188m175.559-2.242c-2.964-.109-8.997.576-9.817 1.36-.577.55.603.904 3 .894 4.431-.015 8.452-.897 8.452-1.854 0-.238-.647-.364-1.635-.4m-18.085-.717c-5.485.016-9.613 1.758-10.095 4.26-.286 1.487.545 1.725 6.049 1.725 6.972 0 10.506-1.629 9.459-4.356-.465-1.213-1.888-1.64-5.412-1.629m-165.033-2.904c-.587-.024-1.437 1.495-2.254 4.412-2.12 7.573-4.815 7.572-3.2 0 1.374-6.442-.882-5.503-2.533 1.053-1.767 7.021-5.708 47.815-4.836 50.054.663 1.697.954 1.593 3.166-1.132 2.69-3.313 3.53-5.913 6.366-19.662 1.919-9.301 4.045-26.02 4.045-31.8 0-1.955-.298-2.906-.754-2.925m54.668-.147c-.704.041-.95 3.096-.504 8.786 1.49 19.05 5.631 38.972 9.273 44.61 4.568 7.074 4.944 3.977 2.508-20.608-2.277-22.988-3.864-31.827-5.83-32.471-.835-.274-.876.856-.154 4.244 1.615 7.57-1.08 7.572-3.2 0-.872-3.114-1.596-4.59-2.093-4.56m65.949-2.881c-.755.059-.253.911 1.824 3.56 4.09 5.215 5.313 7.73 5.313 10.912 0 2.295-.224 2.502-1.524 1.422-2.978-2.47-2.598-.03 1.28 8.191 5.035 10.68 13.916 25.334 20.98 34.627 6.722 8.84 8.87 9.213 8.553 1.483-.304-7.384-5.252-19.304-13.235-31.887-8.53-13.446-19.907-27.74-22.472-28.234-.304-.06-.545-.088-.72-.074zm-187.256-.084c-3.757 0-25.48 30.57-31.32 44.076-3.56 8.236-5.902 17.879-4.946 20.369.328.855 1.238 1.553 2.022 1.553 3.197 0 20.15-25.437 27.88-41.829 3.877-8.222 4.26-10.66 1.282-8.19-1.301 1.08-1.525.872-1.525-1.423 0-3.167 1.224-5.698 5.228-10.806 2.204-2.812 2.55-3.75 1.379-3.75m-48.676-1.764c-1.534.058-2.433.781-2.433 2.156 0 2.58 4.344 5.62 10.166 7.115 4.003 1.027 4.97 1.007 5.629-.125 1.047-1.8-1.63-4.549-7.123-7.32-2.537-1.278-4.705-1.884-6.239-1.826m-14.607-4.631c-.785.046.47 1.416 3.924 3.578 2.337 1.464 4.9 2.695 5.699 2.738 1.96.105.56-1.077-5.2-4.384-2.394-1.376-3.886-1.963-4.423-1.932m296.947-.525c-1.555-.046-3.778.636-6.564 2.04-5.192 2.619-7.863 5.316-7.137 7.206.434 1.135 1.394 1.244 4.594.525 7.538-1.694 12.611-5.38 11.476-8.34-.353-.92-1.16-1.396-2.369-1.431m-179.293-.08c-1.653 0-6.744 8.784-8.922 15.39-3.823 11.596-8.1 39.113-6.484 41.725 1.846 2.986 4.748-2.087 9.222-16.117 5.058-15.86 7.625-31 5.256-31-.523 0-1.41.788-1.97 1.75-2.241 3.849-1.054-1.462 1.416-6.329 2.882-5.68 2.81-5.42 1.482-5.42m78.608-.001c-.864.028-.604.45 1.918 5.421 2.469 4.867 3.656 10.179 1.416 6.33-1.564-2.684-2.92-2.085-2.92 1.292 0 7.416 6.868 32.793 11.171 41.273 1.065 2.1 2.476 3.632 3.133 3.406 2.758-.947-.693-28.37-5.32-42.273-2.22-6.671-7.311-15.45-8.961-15.45h-.436zm115.265-4.432c-1.125-.034-8.405 3.833-10.305 5.566-.588.538-.507.87.211.87 1.651 0 10.24-5.318 10.24-6.34q-.001-.093-.146-.096m-282.806-2.389c-.988.052-1.956.332-2.602.867-2.227 1.848-1.718 7.091 1.09 11.223 2.65 3.9 4.248 4.546 6.263 2.531 1.891-1.89 1.408-4.62-1.048-5.91-1.238-.65-2.616-1.8-3.063-2.556-.446-.755-1.233-1.114-1.75-.795-1.176.728-1.19-.591-.025-2.43.527-.83 1.752-1.167 3.043-.83 1.396.366 2.023.151 1.774-.606-.341-1.034-2.037-1.58-3.682-1.494m172.273-1.722c-.668.029-.584.638.853 1.804 2.635 2.138 6.643 8.124 7.358 10.99.984 3.942-.934 3.453-3.64-.927-1.25-2.023-2.42-3.24-2.598-2.703-1.053 3.16 9.281 23.985 17.433 35.13 4.581 6.265 6.174 3.378 3.858-6.99-3.21-14.37-11.682-29.759-19.608-35.619-1.57-1.16-2.989-1.714-3.656-1.685m-87.64 0c-.668-.03-2.085.525-3.655 1.685-4.908 3.628-10.876 12.037-14.588 20.557-3.684 8.456-6.988 21.42-6.07 23.812 1.38 3.597 3.742.947 12.935-14.51 5.38-9.045 10.103-20.286 9.405-22.38-.18-.536-1.348.68-2.598 2.703-2.707 4.38-4.624 4.868-3.64.928.715-2.867 4.722-8.853 7.357-10.99 1.437-1.167 1.52-1.777.853-1.805m169.274-3.276c-1.645-.086-3.341.458-3.682 1.492-.249.757.376.972 1.773.606 1.291-.337 2.514 0 3.041.83 1.165 1.839 1.152 3.158-.024 2.43-.516-.32-1.303.039-1.75.795-.446.757-1.825 1.908-3.063 2.558-2.455 1.29-2.939 4.02-1.049 5.91 2.014 2.015 3.614 1.367 6.264-2.533 2.807-4.132 3.318-9.373 1.092-11.22-.646-.536-1.615-.816-2.602-.868m-33.324-.746c-.405.012-.63.16-.63.467 0 .419 1.202 1.4 2.67 2.18 2.574 1.37 8.33 8.327 8.33 10.07 0 1.662-1.887.806-4.921-2.229-1.693-1.692-3.078-2.569-3.078-1.949 0 3.585 6.924 12.473 24.367 31.278 5.484 5.912 10.358 10.75 10.832 10.75 2.366 0 1.586-3.834-2.49-12.237-2.472-5.096-5.463-11.362-6.647-13.926-2.882-6.237-8.91-12.915-16.629-18.423-4.913-3.506-10.05-6.032-11.804-5.98m-184.259-.001c-1.753-.05-6.89 2.475-11.802 5.98-7.719 5.509-13.747 12.187-16.629 18.424-1.185 2.564-4.177 8.83-6.648 13.926-2.472 5.095-4.238 9.933-3.924 10.75.313.817.958 1.487 1.433 1.487 1.99 0 30.877-32.54 33.653-37.907 2.422-4.685 1.827-5.528-1.53-2.17-3.034 3.034-4.923 3.888-4.923 2.227 0-1.743 5.757-8.7 8.33-10.07 1.469-.78 2.67-1.761 2.67-2.18 0-.306-.225-.455-.63-.467m141.288-4.267a.35.35 0 0 0-.256.098c-.353.354.76 2.416 2.477 4.584 3.818 4.822 3.988 5.98.468 3.21-1.46-1.148-2.837-1.903-3.06-1.68v.01c-.158.303 2.318 3.987 5.556 8.259 5.82 7.677 12.752 14.85 18.545 19.195 5.398 4.047 8.526 2.45 6.606-3.37-.832-2.52-4.76-6.726-14.108-15.11-7.125-6.39-13.601-12.546-14.394-13.678-.645-.92-1.386-1.514-1.83-1.514zm-98.318 0c-.445 0-1.184.594-1.829 1.513-.793 1.133-7.272 7.288-14.396 13.678-9.348 8.385-13.274 12.591-14.106 15.111-.634 1.921-.868 3.952-.521 4.512 1.72 2.784 5.941.542 14.863-7.894 5.037-4.762 17.07-19.996 16.36-20.708-.225-.224-1.599.532-3.059 1.68-3.52 2.77-3.353 1.612.467-3.21 1.717-2.168 2.832-4.23 2.478-4.585a.35.35 0 0 0-.257-.098zM759.623 530.8a.23.23 0 0 0-.162.063c-.287.288 1.2 2.1 3.305 4.03 3.81 3.49 4.01 6.193.287 3.868-3.043-1.9-2.334-.188 2.441 5.895 4.41 5.615 9.75 10.42 16.994 15.289 4.505 3.027 4.957 3.109 6.559 1.178 1.4-1.688.416-3.957-4.24-9.768-4.695-5.859-22.975-20.703-25.184-20.555m-102.105 0c-2.446.092-20.47 14.744-25.127 20.555-4.656 5.811-5.64 8.078-4.239 9.766 1.602 1.93 2.052 1.85 6.557-1.178 7.245-4.869 12.588-9.676 16.996-15.29 4.775-6.084 5.483-7.793 2.44-5.893-3.722 2.325-3.523-.38.287-3.871 2.104-1.93 3.592-3.74 3.304-4.028q-.07-.068-.218-.062zm186.054-26.939c-.622.042-1.33 1.58-2.338 4.596-2.759 8.253-.454 17.516 5.956 23.95 2.846 2.855 3.833 3.264 6.746 2.792 6.43-1.044 10.176-6.524 10.142-14.84-.026-6.116-3.077-13.8-5.48-13.8-1.218 0-1.37.408-.637 1.718 1.256 2.244-1.262 7.278-3.637 7.278-3.15-.01-8.147-3.828-8.781-6.715-.74-3.372-1.308-5.023-1.97-4.979m-270.007 0c-.637.056-1.192 1.709-1.91 4.979-.633 2.887-5.631 6.705-8.781 6.715-2.374.01-4.895-5.033-3.639-7.276.734-1.31.58-1.718-.636-1.718-2.467 0-5.454 7.688-5.479 14.101-.025 6.253 2.624 11.401 7.008 13.62 3.96 2.004 6.513 1.5 9.973-1.97 6.316-6.333 8.605-15.645 5.86-23.851-1.04-3.114-1.759-4.654-2.396-4.598zM885.1 501.56c-.55 0-1 1.313-1 2.918 0 4.49-.947 6.034-4.653 7.583-4.524 1.889-7.726.61-9.89-3.95-.927-1.954-2.018-3.552-2.426-3.552s-.667 4.005-.574 8.9c.148 7.83.56 9.69 3.423 15.51 2.184 4.434 4.46 7.43 6.92 9.1 7.366 5.003 13.927 2.389 15.21-6.061 1.295-8.536-2.211-27.45-5.09-27.45-.504 0-.918-.674-.918-1.5 0-.824-.45-1.5-1-1.5zm-353 0c-.55 0-1 .676-1 1.5 0 .826-.413 1.5-.918 1.5-1.493 0-4.051 7.978-4.975 15.514-1.129 9.213-.037 16.313 2.873 18.67 5.795 4.693 14.106.447 19.139-9.777 2.864-5.818 3.275-7.678 3.424-15.51.093-4.894-.165-8.896-.573-8.896s-1.5 1.596-2.427 3.55c-2.164 4.56-5.366 5.84-9.89 3.95-3.705-1.55-4.653-3.094-4.653-7.583 0-1.605-.45-2.917-1-2.917m284.877-4.749c-.618-.016-1.733 1.761-2.631 4.823-.714 2.433-1.35 7.168-1.416 10.523-.096 4.928.416 7.083 2.675 11.233 2.813 5.168 5.42 7.583 9.036 8.365 3.088.668 7.8-.996 9.605-3.39 4.971-6.59 5.255-22.838.455-26.042-1.62-1.082-2.816-.92-2.074.28.355.573-.078 2.15-.963 3.5-2.353 3.59-7.394 3.35-11.57-.551-2.583-2.413-3.132-3.603-2.776-6.028.272-1.85.081-2.702-.341-2.713m-216.754 0c-.423.011-.612.862-.34 2.713.355 2.424-.194 3.615-2.776 6.028-4.177 3.9-9.218 4.14-11.57.55-.885-1.35-1.318-2.926-.963-3.5 1-1.619-1.144-1.23-2.9.526-2.231 2.23-2.862 5.566-2.406 12.726.523 8.217 3.406 13.839 7.851 15.313 6.08 2.017 10.414-.312 14.477-7.777 2.259-4.15 2.77-6.305 2.674-11.233-.065-3.355-.702-8.091-1.416-10.523-.898-3.062-2.014-4.838-2.631-4.823m310.472-.952c-.67.021-.362.934 1.383 2.68 3.038 3.037 2.196 5-2.879 6.712-5.339 1.801-8.379.615-11.373-4.441-1.059-1.788-2.33-3.25-2.826-3.25-1.618 0-.948 10.638 1.084 17.216 3.045 9.861 10.982 21.014 17.516 24.62 2.499 1.378 7.056 1.47 9.445.193 2.673-1.431 5.055-8.298 5.055-14.576 0-10.27-4.79-19.922-13.307-26.815-1.974-1.597-3.468-2.36-4.098-2.34m-404.255-.002c-.664.03-2.124.796-4.034 2.342-5.63 4.557-9.106 9.36-11.306 15.62-3.376 9.604-2.063 21.883 2.724 25.492 2.201 1.658 6.735 1.584 10.074-.166 6.357-3.33 14.112-14.325 17.239-24.442 2.014-6.519 2.672-17.142 1.062-17.142-.496 0-1.768 1.462-2.826 3.25-2.994 5.056-6.033 6.242-11.373 4.441-5.074-1.712-5.916-3.677-2.877-6.715 1.798-1.798 2.068-2.712 1.317-2.68m287.98-.752c-.631.051-1.363 1.961-2.29 5.823-2.342 9.767.433 18.965 6.942 23.008 3.092 1.92 3.266 1.933 5.182.373 4.342-3.534 6.342-8.193 6.342-14.75 0-6.342-1.855-13-3.617-13-.483 0-.88 1.052-.88 2.34 0 1.553-.88 2.74-2.622 3.535-3.442 1.567-6.935-.584-7.872-4.85-.368-1.677-.753-2.513-1.185-2.479m-171.69 0c-.411.031-.782.866-1.136 2.479-.937 4.266-4.43 6.416-7.871 4.848-1.743-.794-2.623-1.98-2.623-3.534 0-1.287-.396-2.34-.88-2.34-1.76 0-3.617 6.659-3.617 13 0 6.558 2.001 11.217 6.344 14.75 1.92 1.562 1.804 1.57 5.014-.326 6.615-3.908 9.475-13.184 7.107-23.054-.95-3.964-1.695-5.871-2.338-5.823m149.454-4.367c-.576-.014-1.367.999-2.618 3.059-6.182 10.187-5.769 20.229 1.05 25.592 3.278 2.579 3.394 2.59 8.216.66 2.536-1.014 4.911-3.18 7.252-6.612 3.042-4.457 3.485-5.885 3.5-11.28.013-4.327-.532-7.02-1.812-8.977-2.279-3.482-3.004-2.97-1.489 1.047 1.707 4.52.574 6.33-3.96 6.33-4.553 0-8.024-2.763-8.886-7.075-.362-1.81-.713-2.73-1.253-2.744m-127.164-.002c-.541.013-.89.934-1.252 2.744-.862 4.312-4.335 7.077-8.887 7.077-4.534 0-5.666-1.811-3.96-6.332 1.517-4.017.789-4.527-1.49-1.045-1.28 1.958-1.824 4.651-1.812 8.976.016 5.396.46 6.824 3.5 11.281 2.186 3.204 4.786 5.647 6.983 6.561 4.69 1.95 5.286 1.909 8.486-.61 6.819-5.362 7.229-15.406 1.049-25.593-1.25-2.06-2.042-3.073-2.617-3.059m8.783-1.376c-1.063-.03-1.701.857-1.701 2.599 0 3.71 2.86 12.152 5.07 14.96 2.232 2.838 6.608 3.558 8.728 1.438.66-.66 1.202-2.737 1.202-4.617 0-3.367-1.732-5.498-10.59-13.015-1.056-.897-1.982-1.345-2.71-1.366m109.811-.125c-.71-.04-1.688.444-2.922 1.49-8.857 7.518-10.59 9.65-10.59 13.016 0 1.88.542 3.957 1.202 4.617s2.425 1.2 3.925 1.2c3.457 0 6.38-3.602 8.375-10.319 1.89-6.364 1.825-9.9.01-10.004m176.782-7.537q-.172.002-.336.025c-3.252.475-3.593 2.645-.594 3.785 1.793.683 2.716 1.966 3.176 4.42 1.179 6.285-1.369 10.76-7.229 12.696-3.97 1.31-5.23.238-7.385-6.282-1.895-5.737-2.831-3.542-1.472 3.453 1.6 8.235 3.333 12.027 8.814 19.28 5.708 7.553 14.433 13.925 22.723 16.595 3.604 1.16 9.292.221 10.754-1.779 1.84-2.515 1.554-5.582-1.319-14.14-4.369-13.014-10.138-22.955-18.011-31.028-5.131-5.262-7.406-7.036-9.122-7.025zm-463.592 0c-1.718-.01-4.023 1.788-9.229 7.096-5.868 5.983-8.234 9.408-12.324 17.836-8.435 17.386-10.017 26.781-4.871 28.957 7.338 3.103 22.738-4.982 31.451-16.512 5.481-7.252 7.213-11.043 8.813-19.28 1.359-6.993.423-9.19-1.473-3.452-2.154 6.52-3.413 7.591-7.383 6.281-5.86-1.934-8.408-6.41-7.228-12.695.46-2.454 1.382-3.738 3.175-4.42 2.998-1.14 2.657-3.31-.595-3.785a2 2 0 0 0-.336-.025zm87.157-7.64.528 3.16c.536 3.216-.525 4.34-4.1 4.34-1.21 0-1.424-.762-.98-3.5.765-4.716-.718-4.429-2.699.521-2.707 6.766-1.813 14.885 2.117 19.227 3.75 4.144 10.017.099 10.98-7.086.767-5.713-.308-10.188-3.279-13.662zm289.353-1-2.856 4c-2.455 3.44-2.855 4.935-2.855 10.671 0 5.714.352 7.045 2.466 9.295 7.274 7.742 15.236-5.792 10.58-17.984-2.039-5.34-3.65-5.894-2.853-.982.445 2.738.232 3.5-.98 3.5-3.672 0-4.573-1.079-4.032-4.827zm-137.563-.2c-.144.018-.343.25-.611.674-1.625 2.57-.094 15.793 4.505 38.914 4.538 22.813 6.243 27.701 10.385 29.766 3.303 1.646 7.538-.084 10.854-4.436 2.495-3.274 2.717-4.31 2.717-12.642 0-8.077-.34-9.794-3.106-15.627-2.008-4.24-5.813-9.45-10.773-14.752-8.855-9.47-13.615-16.499-13.637-20.14-.01-1.229-.094-1.787-.334-1.757"/><path fill="#00426a" d="M875.04 470.504c-.595.01-.938.344-.938 1.053 0 .55.658 1 1.464 1 1.587 0 3.536 2.957 3.536 5.367 0 2.033-3.462 2.994-5.963 1.654-1.348-.72-2.037-2.095-2.037-4.055 0-1.63-.462-2.966-1.026-2.966-1.757 0-2.975 4.856-2.965 11.816.01 7.326 3.228 16.066 6.647 18.053 1.013.589 2.44 1.084 3.17 1.101 2.609.06 7.042-5.708 8.658-11.267 2.275-7.825 1.287-12.135-3.998-17.453-2.723-2.74-5.241-4.32-6.549-4.303m-332.875 0c-1.308-.016-3.826 1.563-6.549 4.303-2.84 2.858-4.454 5.496-4.924 8.054-.958 5.204 1.77 14.21 5.405 17.844 4.6 4.6 7.958 3.303 11.58-4.477 2.6-5.586 3.328-16.168 1.451-21.105-1.32-3.47-3.025-3.244-3.025.4 0 1.96-.69 3.335-2.038 4.055-2.502 1.34-5.962.379-5.962-1.654 0-2.41 1.948-5.367 3.535-5.367.805 0 1.465-.45 1.465-1 0-.709-.344-1.046-.938-1.053m289.438-.621c-.733.057-2.157.87-3.676 2.39-1.907 1.906-3.364 4.598-3.764 6.948-.79 4.649.393 11.857 2.465 15.02 2.961 4.518 13.004 1.596 16.195-4.712 2.786-5.505.031-17.7-4.379-19.392-1.55-.595-1.833 1-.341 1.922.55.34 1 1.492 1 2.56 0 1.6-.71 1.94-4.034 1.94-4.416 0-6.095-1.936-3.937-4.536 1.243-1.498 1.203-2.197.47-2.14m-246.131-.003c-.603.036-.567.737.598 2.141 2.16 2.601.48 4.536-3.937 4.536-3.324 0-4.031-.34-4.031-1.94 0-1.068.45-2.22 1-2.56 1.492-.922 1.208-2.517-.342-1.922-2.477.95-5.659 8.031-5.643 12.558.018 5.54 1.632 8.71 5.897 11.584 4.505 3.036 9.556 3.018 11.56-.04 2.072-3.163 3.255-10.371 2.465-15.018-.399-2.352-1.858-5.042-3.764-6.95-1.614-1.614-3.12-2.43-3.804-2.39zm209.13-1.759-1.827 2.799c-2.653 4.068-3.107 8.663-1.292 13.01 1.252 2.995 2.042 3.707 3.824 3.45 1.236-.176 2.813-1.444 3.506-2.82 1.68-3.332 1.629-11.153-.088-13.503-1.29-1.762-1.433-1.66-2.213 1.56l-.832 3.444-.54-3.971zm-171.998-.001-.54 3.97-.539 3.97-.832-3.445c-.795-3.28-.904-3.35-2.29-1.5-1.777 2.37-1.347 12.478.63 14.86 2.3 2.768 5.038 1.904 6.719-2.118 1.785-4.274 1.314-8.894-1.322-12.937zm342.91-.563c-2.948 0-3.019.724-.346 3.568 3.794 4.038 2.602 11.657-2.08 13.29-2.66.926-3.136.739-5.082-1.995-2.802-3.933-3.984-2.549-2.867 3.357 1.769 9.35 8.951 19.02 17.613 23.717 4.83 2.62 14.867 2.447 16.867-.289 1.998-2.732 1.077-11.675-1.865-18.1-5.242-11.452-16.667-23.548-22.24-23.548m-513.821 0c-1.326 0-4.627 1.752-7.337 3.894-9.37 7.406-17.172 20.805-17.682 30.361-.34 6.348.082 7.658 2.82 8.764 3.818 1.542 10.563 1.044 14.744-1.09 8.678-4.426 16.033-14.208 17.83-23.71 1.117-5.907-.065-7.293-2.865-3.36-1.947 2.734-2.422 2.921-5.082 1.994-4.682-1.632-5.874-9.248-2.08-13.287 2.672-2.844 2.6-3.568-.348-3.568zm357.032-.998c-3.592 0-4.713 2.158-5.326 10.263-.544 7.195-.486 7.442 2.255 9.598 1.547 1.217 3.444 1.97 4.213 1.676s2.073-.537 2.895-.537c2.752 0 7.342-5.609 7.342-8.973 0-3.467-2.011-7.96-4.477-10.008-1.434-1.19-1.547-.988-1.047 1.848.658 3.733-1.681 5.358-4.152 2.886-1.182-1.18-1.275-1.978-.422-3.572 1.537-2.872 1.41-3.181-1.281-3.181m-200.244 0c-2.692 0-2.817.31-1.28 3.183.853 1.593.757 2.388-.424 3.57-2.472 2.471-4.807.847-4.15-2.886.5-2.837.386-3.038-1.047-1.848-6.869 5.701-5.24 16.542 2.836 18.88 1.752.506 3.465.96 3.803 1.01s1.86-.888 3.38-2.085c2.686-2.112 2.75-2.39 2.208-9.56-.613-8.105-1.734-10.264-5.327-10.264m290.006-4.002c-2.984 0-2.972.32.118 3.41 2.826 2.826 3.228 5.374.986 6.234-2.12.814-4.486-1.437-4.486-4.265 0-1.308-.403-2.38-.895-2.38-1.436 0-2.231 3.013-2.83 10.733-.673 8.663 1.271 14.868 5.873 18.74 4.025 3.386 7.089 3.222 10.262-.549 2.22-2.639 2.584-4.025 2.584-9.75 0-3.67-.484-8.392-1.067-10.492-1.392-5.01-7.412-11.681-10.545-11.681m-379.767 0c-3.132 0-9.152 6.67-10.543 11.68-.584 2.101-1.068 6.823-1.068 10.493 0 5.725.363 7.111 2.584 9.75 3.172 3.771 6.24 3.935 10.263.55 4.601-3.873 6.546-10.078 5.873-18.74-.6-7.72-1.395-10.733-2.832-10.733-.49 0-.892 1.07-.892 2.379 0 2.828-2.369 5.08-4.489 4.265-2.242-.86-1.837-3.41.989-6.234 3.09-3.09 3.1-3.41.115-3.41m400.189-8.172c-.75-.01-.434.955 1.616 3.093 2.971 3.101 2.863 4.512-.41 5.368-1.524.398-2.168-.064-2.624-1.88-.947-3.772-3.135-2.86-3.892 1.622-1.451 8.585 3.7 19.858 10.625 23.254q9.881 4.845 9.88-9.006c0-8.196-1.566-11.707-7.814-17.525-3.323-3.095-6.353-4.919-7.38-4.926m-420.61 0c-1.027.01-4.058 1.83-7.381 4.926-6.248 5.818-7.814 9.33-7.814 17.525 0 6.3 1.075 8.993 4 10.02 3.498 1.225 9.688-2.422 12.838-7.565 2.913-4.757 4.425-11.488 3.687-16.41-.714-4.764-2.927-5.846-3.914-1.914-.455 1.816-1.1 2.277-2.623 1.879-3.274-.856-3.382-2.267-.41-5.368 2.049-2.138 2.366-3.099 1.617-3.093"/><path fill="#00426a" d="M977.66 450.78a2.83 2.83 0 0 0-1.375.431c-2.084 1.312-2.916 4.564-.978 3.82 2.233-.856 5.124 1.907 4.396 4.201-.912 2.873-5.09 4.649-6.613 2.813-.64-.77-.838-1.928-.438-2.574.456-.737.211-.992-.662-.684-3.845 1.353 1.597 12.938 8.389 17.858 3.517 2.548 4.908 2.958 9.183 2.708 4.485-.263 5.076-.565 5.383-2.742.19-1.346-.447-5.372-1.414-8.947-1.38-5.096-2.662-7.376-5.935-10.553-4.545-4.412-7.73-6.458-9.936-6.332m-538.418-.222c-2.62 0-11.793 7.746-13.545 11.44-2.23 4.7-4.114 13.77-3.3 15.892 1.146 2.986 9.626 2.23 14.486-1.29 6.738-4.88 12.154-16.465 8.328-17.812-.874-.307-1.12-.054-.664.684.399.646.201 1.804-.438 2.574-1.524 1.836-5.7.06-6.613-2.813-.716-2.257 2.152-5.063 4.326-4.228.703.269 1.278-.08 1.278-.777 0-1.708-2.062-3.67-3.858-3.67m221.914-3.497-.027 6.06c-.03 6.644-1.716 10.157-4.383 9.134-1.274-.49-1.644-1.99-1.644-6.664 0-6.043-1.233-8-2.379-3.78-.337 1.239-.9 5.27-1.256 8.963-.862 8.956.903 15.039 5.957 20.522 9.825 10.658 16.462.163 12.15-19.217-1.361-6.124-2.477-8.633-5.081-11.432zm94.891-.001-3.336 3.586c-6.028 6.479-8.57 25.749-4.264 32.322 2.666 4.067 6.57 3.49 11.33-1.674 5.053-5.482 6.817-11.565 5.957-20.522-.355-3.692-.92-7.724-1.255-8.96-1.147-4.221-2.38-2.264-2.38 3.779 0 4.675-.369 6.172-1.644 6.662-2.667 1.023-4.35-2.49-4.38-9.135zm-114.461-.901c-.385.01-1.073.682-2.11 1.9-8.881 10.444-10.733 27.234-3.773 34.194l2.461 2.463 3.219-2.018c1.77-1.108 4.338-4.159 5.707-6.779 2.118-4.054 2.51-6.234 2.633-14.607.157-10.712-.874-12.166-3.508-4.942-2.647 7.261-6.576 3.934-4.994-4.23.81-4.177 1.007-5.997.365-5.98m133.884-.122c-.188 0-.292.167-.29.522 0 .825.363 3.336.798 5.58 1.583 8.164-2.346 11.491-4.994 4.23-2.64-7.24-3.67-5.772-3.44 4.895.256 11.814 2.193 17.296 7.345 20.798 2.674 1.817 3.972 2.161 5.359 1.418 5.848-3.129 7.235-17.244 2.645-26.92-2.488-5.243-6.34-10.538-7.422-10.521zm165.128-.157c-2.19.107-2.239 1.997.357 4.298 2.242 1.986 2.417 2.497 1.145 3.347-1.827 1.221-3 1.307-3 .223 0-.445-.701-1.682-1.559-2.75-1.446-1.802-1.511-1.583-.904 3.037.799 6.083 3.52 11.636 7.07 14.428 3.201 2.519 7.072 2.695 9.565.44 2.42-2.19 2.294-4.808-.526-10.844-3.059-6.552-6.997-11.122-10.297-11.95-.727-.182-1.346-.253-1.851-.228m-463.994-.001c-.505-.024-1.125.047-1.852.23-3.3.827-7.238 5.397-10.297 11.949-2.774 5.938-2.922 8.213-.7 10.67 5.479 6.052 15.199-2.447 16.808-14.694.607-4.62.542-4.839-.905-3.037-.857 1.068-1.558 2.305-1.558 2.75 0 1.084-1.174.997-3-.223-1.272-.85-1.098-1.36 1.144-3.347 2.596-2.301 2.548-4.19.36-4.297m199.496-6.578c-.445.014-1.213 2.567-2.059 7.511-2.697 15.764-.965 31.121 4.125 36.586 9.793 10.512 17.577-20.13 9.293-36.584-1.572-3.123-3.493-5.87-4.27-6.103-1.044-.316-1.196.06-.587 1.46 3.049 7.004.274 13.943-4.545 11.364-2.034-1.089-2.171-1.732-1.72-8.055.3-4.165.161-6.192-.237-6.18m64.988-.232c-.38.025-.484 2.808-.227 6.41.452 6.324.317 6.968-1.716 8.057-4.82 2.58-7.595-4.361-4.547-11.365.609-1.4.458-1.775-.588-1.46-.775.235-2.696 2.982-4.268 6.104-5.316 10.56-4.458 29.948 1.617 36.495 6.342 6.833 13.087-3.884 13.057-20.75-.016-8.876-1.935-22.647-3.271-23.473a.1.1 0 0 0-.057-.018m44.045-2.513c-1.983 0-1.96.152.6 4.02 1.463 2.211 2.363 4.317 2.003 4.677-.864.864-6.636-4.69-6.636-6.385 0-.723-.45-1.312-1-1.312-1.264 0-1.29-.316.59 7.168 1.921 7.646 3.513 10.306 7.714 12.896 4.023 2.48 6.464 2.152 8.961-1.205 1.748-2.352 1.825-3.057.71-6.438-1.505-4.559-10.051-13.421-12.942-13.421m-152.838 0c-2.82 0-9.777 6.504-12.107 11.318-2.582 5.333-2.582 5.784-.016 9.047 2.47 3.14 4.345 3.287 8.623.678 4.196-2.558 5.79-5.218 7.714-12.873 1.88-7.485 1.854-7.17.59-7.17-.55 0-1 .59-1 1.312 0 1.694-5.772 7.249-6.635 6.385-.36-.361.54-2.466 2.004-4.678 2.381-3.599 2.469-4.02.827-4.02zm316.49-.587c-.256.01-.427.044-.498.12-.378.407-.188.92.422 1.14 3.386 1.22 4.667 3.087 3.984 5.807l-.699 2.791-2.947-2.822c-1.621-1.553-2.947-2.28-2.947-1.613 0 1.669 7.844 10.068 11.5 12.314 3.724 2.288 7.28 2.36 9.672.195 4.788-4.333-1.372-12.918-11.747-16.37-2.928-.975-5.628-1.584-6.74-1.561m-480.371-.001c-1.112-.023-3.81.586-6.738 1.561-5.022 1.671-7.374 3.14-10.065 6.283-3.87 4.521-4.36 7.146-1.855 9.914 3.5 3.868 9.343 1.745 16.625-6.04 5.13-5.485 6.563-9.272 1.771-4.682l-2.945 2.822-.701-2.79c-.684-2.722.6-4.588 3.986-5.808.61-.22.8-.732.422-1.138-.07-.076-.243-.116-.5-.121m507.354-8.351c-.432 0-.253.691.775 2.16 2.567 3.664 1.947 5.49-.943 2.775-4.351-4.088-2.174 2.613 3.17 9.75 2.324 3.105 5.594 4.25 6.757 2.367 1.11-1.794-2.42-10.514-5.57-13.764-2.069-2.135-3.634-3.286-4.19-3.289m-534.335-.002c-.556 0-2.12 1.156-4.19 3.291-3.15 3.25-6.68 11.969-5.57 13.762 1.164 1.883 4.435.738 6.758-2.367 5.344-7.137 7.522-13.838 3.17-9.75-2.89 2.715-3.51.887-.944-2.778 1.029-1.468 1.207-2.162.776-2.16zm559.838-.972c-.52.025-.586 1.204.1 3.437 1.897 6.181-3.048 7.593-5.756 1.643-1.39-3.051-2.029-2.725-3.356 1.703-2.893 9.653-2.193 21.22 1.531 25.338 2.202 2.433 5.674 2.253 8.774-.457 5.235-4.576 5.72-19.697.93-28.961-.956-1.85-1.765-2.726-2.223-2.703m-585.385 0c-.465.037-1.254.916-2.178 2.703-4.79 9.264-4.305 24.384.93 28.959 5.332 4.66 9.646 2.16 11.545-6.692 1.185-5.527.781-11.444-1.239-18.187-1.327-4.43-1.966-4.753-3.355-1.703-2.71 5.95-7.653 4.538-5.756-1.643.706-2.299.614-3.482.053-3.437m601.505-2.088c-1.314 0-1.424.268-.49 1.2 1.683 1.684 1.518 5.8-.232 5.8-.788 0-1.718-.9-2.068-2-.348-1.1-1.12-2-1.711-2-1.93 0-.035 14.989 3.144 24.869 3.236 10.053 7.046 17.436 9.836 19.062 2.455 1.43 2.97 1.33 5.348-1.047 1.91-1.91 2.074-2.959 1.672-10.75-.345-6.692-1.171-10.433-3.668-16.634-3.908-9.707-9.53-18.5-11.83-18.5m-617.581 0c-2.3 0-7.924 8.793-11.832 18.5-2.496 6.2-3.32 9.942-3.666 16.634-.402 7.791-.24 8.84 1.67 10.75 2.433 2.433 2.595 2.467 5.153 1.098 2.919-1.562 6.705-8.777 10.031-19.113 3.18-9.88 5.075-24.87 3.145-24.87-.591 0-1.362.9-1.711 2-.35 1.1-1.279 2-2.067 2-1.75 0-1.915-4.115-.232-5.798.933-.933.824-1.201-.49-1.201m645.845-4.504c-.875 0-1.223 1.143-1.16 3.365.085 2.964-.282 3.695-1.973 3.937-1.36.194-2.456-.495-3.181-2-2.044-4.244-1.424 9.087.795 17.094 2.713 9.79 3.645 11.443 15.09 26.768 6.563 8.789 10.746 13.486 12.6 14.146 2.485.885 5.36.77 9.023-.357 2.066-.637 1.493-3.037-4.149-17.37-7.488-19.018-12.93-29.67-19.49-38.156-3.874-5.009-6.275-7.432-7.555-7.427m-674.23-.073c-.07 0-.144.011-.22.022-2.53.351-12.52 14.025-17.142 23.465-5.826 11.898-15.158 35.848-14.765 37.89.18.937 1.652 1.97 3.312 2.325 1.643.352 3.034.695 3.09.76.055.065 1.536-.384 3.29-.994 2.381-.83 5.67-4.436 13-14.25 11.427-15.304 12.358-16.957 15.071-26.746 2.218-8.007 2.84-21.34.795-17.096-.725 1.506-1.82 2.194-3.181 2-1.691-.242-2.057-.974-1.97-3.938.074-2.626-.226-3.482-1.28-3.437zm-24.299-11.945c-3.645.267-12.97 7.794-22.025 18.043-3.576 4.047-12.073 13.346-18.885 20.668-12.25 13.165-28.174 33.54-41.988 53.725-5.147 7.52-7.127 11.296-7.127 13.584 0 1.744.3 3.469.666 3.836 1.71 1.71 4.909-.06 17.398-9.63 7.39-5.662 17.023-12.75 21.406-15.75 10.5-7.184 19.807-16.008 31.067-29.454 5.066-6.05 11.93-14.061 15.254-17.803 5.897-6.64 12.148-17.363 15.722-26.969.976-2.625 1.506-5.043 1.176-5.373s-2.723.806-5.316 2.524c-5.12 3.392-8.452 3.935-10.319 1.685-1.478-1.78.011-4.993 3.076-6.633 1.38-.738 1.75-1.452 1.092-2.11-.271-.27-.676-.38-1.197-.343m722.959-.017c-.521-.033-.927.083-1.205.36-.658.658-.288 1.372 1.092 2.11 3.065 1.641 4.554 4.853 3.076 6.633-1.867 2.25-5.198 1.707-10.318-1.685-2.594-1.718-4.986-2.854-5.317-2.524-.33.33.199 2.748 1.176 5.373 3.574 9.606 9.825 20.329 15.72 26.969 3.325 3.742 10.19 11.753 15.256 17.803 11.26 13.446 20.567 22.27 31.067 29.455 4.383 2.999 14.038 10.104 21.455 15.789 14.807 11.348 17.306 12.223 17.81 6.24.25-2.964-.833-5.17-6.876-14-13.397-19.575-29.631-40.442-41.043-52.762-6.257-6.755-14.752-16.047-18.877-20.65-10.105-11.275-19.368-18.876-23.016-19.11zm-81.377-10.139a.45.45 0 0 0-.344.133c-.42.45-.194 1.021.506 1.271 1.594.568 4.367 5.802 3.522 6.647-1.18 1.18-4.634.628-6.47-1.034-1.01-.913-2.045-1.453-2.3-1.197-1.018 1.018 3.117 11.331 5.617 14.006 3.263 3.493 5.215 3.587 8.404.397 2.954-2.953 3.083-5.41.543-10.336-2.133-4.14-7.777-9.903-9.478-9.887m-560.217 0c-1.701-.015-7.346 5.747-9.48 9.887-2.54 4.927-2.41 7.383.543 10.336 3.189 3.189 5.143 3.096 8.406-.397 2.499-2.676 6.635-12.988 5.617-14.006-.256-.255-1.29.284-2.3 1.197-1.837 1.661-5.291 2.214-6.471 1.034-.844-.845 1.93-6.079 3.523-6.647.7-.25.926-.821.506-1.271a.45.45 0 0 0-.344-.133m572.557-3.219c-.594-.017-.353 1.126 1.05 3.397 1.2 1.94 1.668 3.5 1.051 3.5-.612 0-1.372-.675-1.69-1.5-.92-2.402-2.563-1.73-1.831.75 1.277 4.329 5.57 13.193 6.766 13.966 2.175 1.408 4.2.316 4.52-2.439.383-3.32-2.561-10.168-6.245-14.527-1.767-2.09-3.063-3.13-3.621-3.147m-584.897 0c-.558.016-1.853 1.057-3.617 3.147-4.87 5.769-7.953 14.897-5.77 17.082.877.876 2.542.823 4.04-.13 1.193-.757 5.485-9.607 6.767-13.952.731-2.48-.912-3.152-1.834-.75-.316.824-1.075 1.5-1.687 1.5-.618 0-.151-1.56 1.049-3.5 1.403-2.271 1.646-3.414 1.052-3.397"/><path fill="#00426a" d="M666.395 391.56c-12.744-.01-44.782 19.596-71.348 43.66-11.545 10.458-25.697 14.415-40.879 11.428-6.559-1.29-16.527-5.334-19.324-7.841-.967-.865-2.008-1.32-2.317-1.012-1.86 1.86 16.107 11.974 25.17 14.166 15.374 3.72 26.585.813 46.711-12.111 12.847-8.25 26.044-13.295 34.78-13.295 4.366 0 5.108.776 7.906 8.256 2.346 6.269 4.96 8.744 9.228 8.744 4.804 0 6.778-3.072 6.778-10.55 0-8.577-1.708-11.79-7.438-13.98l-4.48-1.709 2.578-3.38c2.135-2.8 3.232-3.381 6.392-3.381 6.096 0 8.946 1.502 8.961 4.726.01 1.526.283 3.774.61 4.994.562 2.096.753 2.14 3.435.752 7.664-3.964 11.278-15.428 7.008-22.23-3.021-4.81-7.631-7.236-13.771-7.236m417.771-3.004c-1.998 0-1.057 1.499 2.438 3.879 4.05 2.758 7.498 7.87 7.498 11.12 0 2.043-.355 2.205-3.625 1.674-1.993-.323-4.39-1.282-5.329-2.13-1.826-1.653-4.046-2.058-4.046-.739 0 1.743 6.551 11.009 11.804 16.696 6.731 7.287 30.967 29.519 40.973 37.584 22.906 18.463 61.142 42.277 71.982 44.834 4.984 1.175 9.998 1.282 10.649.228.957-1.547-5.54-10.508-13.791-19.025-16.192-16.711-81.34-72.577-98.018-84.051-4.825-3.32-18.589-10.07-20.535-10.07m-751.131 0c-1.945 0-15.709 6.75-20.535 10.07-16.678 11.475-81.825 67.339-98.018 84.05-8.498 8.772-14.74 17.49-13.714 19.15 1.206 1.952 11.768-.276 20.06-4.231 14.427-6.881 45.422-27.193 62.496-40.955 10.006-8.065 34.243-30.297 40.973-37.584 5.254-5.687 11.805-14.953 11.805-16.696 0-1.319-2.221-.914-4.047.739-.94.848-3.337 1.808-5.33 2.132-3.271.53-3.623.367-3.623-1.675 0-3.25 3.446-8.363 7.496-11.121 3.495-2.38 4.435-3.88 2.437-3.88m71.93-.072c-1.566-.02-4.52 1.56-7.383 4.2-5.966 5.498-9.471 16.481-6.28 19.673.66.66 2.43 1.2 3.932 1.2 3.32 0 5.632-3.063 8.649-11.457 2.162-6.021 2.163-7.889 0-5.727-1.266 1.266-5.783 1.648-5.783.488 0-1.262 5.347-6.304 6.687-6.304.722 0 1.313-.45 1.313-1 0-.723-.425-1.063-1.137-1.073zm607.359-.062c-.761-.018-1.218.338-1.218 1.135 0 .55.59 1 1.312 1 1.339 0 6.688 5.042 6.688 6.304 0 1.16-4.518.778-5.784-.488-.65-.65-1.398-.967-1.66-.705-.72.72 3.53 11.995 5.73 15.195 1.519 2.21 2.573 2.74 4.97 2.5 4.496-.452 5.341-2.55 3.804-9.455-1.065-4.786-2.164-6.716-6.039-10.601-2.982-2.991-6.128-4.846-7.803-4.885m12.114-13.865c-.019 0-.032.01-.042.014-.178.211 1.629 2.364 4.188 4.963 5.495 5.579 5.485 7.757-.016 3.56-1.977-1.507-3.806-2.526-4.068-2.264-1.536 1.536 7.685 17.484 14.418 24.936 2.343 2.593 4.268 3.79 6.105 3.79 3.83 0 5.084-1.742 5.084-7.062 0-4.846-2.275-9.276-7.852-15.296-2.679-2.891-16.42-12.643-17.816-12.643zm-631.666 0c-1.396 0-15.136 9.75-17.815 12.642-5.578 6.02-7.851 10.451-7.851 15.297 0 2.563.539 5.201 1.199 5.861 3.647 3.648 8.946.115 16.674-11.117 3.56-5.174 8.496-15.646 7.734-16.408-.262-.262-2.094.757-4.07 2.264-5.502 4.196-5.511 2.017-.016-3.563 2.56-2.597 4.37-4.747 4.191-4.959a.07.07 0 0 0-.045-.016zm316.925-.737c-.214-.214-2.003 4.475-3.976 10.422-3.922 11.823-5.57 21.13-5.602 31.623-.01 3.744-.533 10.986-1.16 16.092-1.297 10.55-.73 15.222 2.314 19.094 1.732 2.202 2.67 2.587 5.1 2.101 1.638-.328 3.617-.597 4.402-.597 2.207 0 4.589-6.742 3.854-10.91-.348-1.974-2.368-8.765-4.488-15.09-6.385-19.05-6.534-21.524-2.455-40.922 1.32-6.283 2.226-11.598 2.011-11.813M680 372.557c-1.154 0-2.964 3.6-2.195 4.369q1.836 1.84 2.543-1.87c.262-1.374.107-2.5-.348-2.5m417.6-4.769c-2.879 0-1.016 1.776 5.521 5.211 10.346 5.437 12.925 10.696 5.809 11.846-2.357.38-4.718-.17-8.08-1.885-2.613-1.332-4.75-2.008-4.75-1.502 0 1.44 7.247 10.241 11.517 13.984 6.88 6.034 58.462 39.116 60.99 39.116.39 0 7.971 3.594 16.85 7.988 8.878 4.393 20.193 9.322 25.143 10.951 8.92 2.937 10.668 3.222 10.63 1.746-.057-2.296-12.581-18.136-20.976-26.531-12.617-12.617-27.183-23.466-48.998-36.492-29.175-17.421-39.417-22.279-50.906-24.147q-1.755-.285-2.75-.285m-778 0q-.996 0-2.75.285c-11.49 1.867-21.732 6.726-50.907 24.147-22.138 13.219-36.543 23.991-49.343 36.898-9.64 9.72-21.951 25.655-20.75 26.856.773.772-.12.983 10.734-2.512 5.288-1.703 14.43-5.553 20.314-8.555 5.886-3.002 13.793-6.823 17.57-8.492 3.779-1.669 10.653-5.268 15.276-7.998 13.045-7.705 45.544-29.206 49.84-32.975 4.269-3.743 11.516-12.544 11.516-13.984 0-.506-2.138.17-4.75 1.502-3.363 1.715-5.724 2.265-8.08 1.885-7.116-1.15-4.537-6.409 5.81-11.846 6.538-3.435 8.398-5.21 5.52-5.21m404.023-1.878c-.372.012-.517.752-.517 2.365 0 1.716-1.575 6.405-3.5 10.422-3.602 7.516-4.27 11.555-2.465 14.926 1.532 2.863 2.964 2.348 2.964-1.066 0-3.573.616-3.71 3.686-.825 2.017 1.894 2.312 1.952 2.312.45 0-.948-.731-3.143-1.628-4.877-1.438-2.781-1.483-4.144-.383-11.534.917-6.168.95-8.677.129-9.498-.244-.243-.44-.368-.598-.363m311.836-.928q-.113.001-.162.05c-.29.288-.338.673-.11.853a559 559 0 0 0 4.169 3.119c5.016 3.733 5.212 6.615.25 3.686-4.05-2.39-4.31-1.636-1.391 4.084 4.424 8.673 17.206 19.952 24.572 21.685 5.088 1.197 4.93 1.185 6.736.492.935-.359 1.583-1.784 1.583-3.482 0-2.17-1.625-4.596-6.633-9.904-3.647-3.868-8.74-8.58-11.317-10.471-5.843-4.29-16.163-10.15-17.697-10.112m-653.707 0c-1.534-.038-11.855 5.823-17.697 10.112-2.577 1.892-7.67 6.603-11.319 10.47-6.632 7.031-7.99 10.234-5.425 12.8 1.425 1.424 6.686.698 11.716-1.622 5.02-2.312 15.832-12.83 19.166-18.64 3.877-6.761 3.747-7.97-.587-5.413-4.963 2.928-4.768.047.25-3.685a579 579 0 0 0 4.166-3.12c.23-.18.181-.563-.108-.853-.03-.03-.087-.047-.162-.049m301.627-6.156c-.548 0-1.27.324-2.078 1.055-1.748 1.244-2.194 3.187-2.194 3.445 0 2.013 2.766 1.402 4.433-.978 1.41-2.014 1.046-3.53-.16-3.522zm-5.269-4.269c-1.022 0-24.25 23.697-25.909 26.431-1.214 2.001-1.241 2.69-.158 3.994 1.964 2.367 5.209 1.913 10.266-1.437 4.276-2.832 11.797-11.25 11.797-13.205 0-.49 1.125-2.543 2.5-4.567 1.968-2.134 1.763-4.487 2.481-7.14.798-2.782.489-4.076-.974-4.076zm-346.276-.782c-1.356.026-3.34.116-5.973.246-11.594.573-18.893 2.813-36.76 11.276-12.14 5.752-26.09 13.986-27.464 16.21-.825 1.337 5.384.555 13.47-1.696 9.34-2.6 40.213-16.232 43.704-19.297 1.818-1.597 5.89-3.622 9.05-4.502 6.481-1.804 8.043-2.314 3.975-2.237zm753.446-.005c-3.962-.07-2.398.442 4.07 2.242 3.16.879 7.232 2.905 9.05 4.502 5.683 4.99 42.015 19.731 52.703 21.384 1.376.213 3.091.449 3.811.524 5.03.523-10.515-9.405-26.81-17.125-17.414-8.25-25.528-10.725-37-11.29-2.571-.126-4.504-.214-5.825-.237m-36.079-4.252c-1.918.037-3.363.512-4.556 1.384-1.707 1.25-1.615 1.391 1.266 1.967 2.97.594 7.13 5.085 5.875 6.34-1.116 1.117-5.375-.618-8.025-3.268-1.623-1.624-2.643-2.117-2.623-1.27.054 2.265 2.978 5.087 11.967 11.548 9.344 6.718 13.472 9.033 19.5 10.94 2.2.695 6.742 1.294 10.093 1.331 4.794.053 6.466-.341 7.83-1.85 1.457-1.61 1.537-2.29.5-4.25-4.003-7.556-9.198-11.792-19.965-16.273-11.14-4.636-17.645-6.68-21.863-6.6m-681.193.001c-4.217-.081-10.721 1.963-21.861 6.6-10.768 4.48-15.963 8.715-19.965 16.273-1.045 1.972-.954 2.646.593 4.361 2.708 3.002 14.642 2.183 22.829-1.565 6.205-2.842 21.738-13.59 24.716-17.105 2.82-3.325 2.095-5.107-.87-2.14-2.65 2.65-6.91 4.384-8.026 3.267-1.256-1.255 2.905-5.746 5.875-6.34 2.88-.576 2.971-.717 1.263-1.967-1.192-.872-2.637-1.348-4.554-1.384m325.459-4.59c-2.1.027-6.757 5.156-6.002 7.125.887 2.31 2.729 1.46 5.412-2.5 1.567-2.313 1.948-3.674 1.232-4.389-.165-.166-.384-.24-.642-.236m-7.461-1.368c-1.715 0-5.898 4.024-5.898 5.674 0 .73.828 1.327 1.84 1.327 1.57 0 2.468-1.13 4.962-6.25.201-.412-.205-.75-.902-.75zm-8.477-5.001c-.317 0-4.704 3.77-9.75 8.378s-10.749 9.786-12.674 11.506c-3.39 3.03-3.438 3.173-1.558 4.621 2.395 1.843 2.782 1.845 7.09.045 8.668-3.62 17.469-14.236 17.469-21.07 0-1.914-.26-3.48-.577-3.48m9.42-2.709c-.304.01-1.018.462-1.843 1.209-1.1.996-2 2.475-2 3.289 0 .952.713.575 2-1.06 1.1-1.4 2-2.882 2-3.292 0-.103-.055-.149-.157-.146m49.299-.295c-.353 0-.49 2.663-.307 5.92.21 3.68-.442 9.075-1.72 14.253-3.662 14.84-4.178 17.973-3.53 21.43.716 3.812 2.412 4.617 2.422 1.149 0-1.238.87-3.557 1.922-5.155l1.916-2.904 1.46 3.492c.801 1.921 1.79 4.578 2.198 5.905s1.203 2.987 1.764 3.687c.561.701 1.235 1.058 1.498.795.982-.982-.923-9.45-2.967-13.19-1.826-3.343-2.138-5.68-2.252-16.88-.124-12.242-.937-18.502-2.404-18.502m-35.859-.801c-1.28 0-4.283 2.948-4.283 4.459 0 .74.684 1.346 1.521 1.346 1.657 0 4.212-4.6 3.147-5.664a.52.52 0 0 0-.385-.141m-5.057-.051c-1.336-.022-4.227 3.196-4.227 5.01 0 2.923 2.634 2.146 4.014-1.186.691-1.667.973-3.315.627-3.66a.58.58 0 0 0-.414-.164m-21.498-3.433c-5.27-.151-19.728 7.642-19.728 11.175 0 .54 1.236 1.169 2.75 1.399 1.511.229 2.878.484 3.033.566 1.199.637 7.761-3.453 11.734-7.314 3.555-3.456 4.488-4.914 3.525-5.51-.322-.2-.769-.3-1.314-.316m42.6-3.487c-1.416.031-5.329 3.911-5.329 5.533 0 .775.536 1.232 1.19 1.014 1.762-.588 5.286-5.63 4.49-6.426a.46.46 0 0 0-.351-.12m265.123-.104c-2.212-.01-4.218.817-4.9 2.595-.363.955-.36 4.56.01 8.01.585 5.476.937 6.274 2.755 6.274 1.547 0 1.793.29.955 1.128-.837.838-.825 1.626.05 3.061.973 1.596.846 2.179-.733 3.35-1.08.8-2.92 1.165-4.225.838-1.86-.467-2.552-.021-3.53 2.271-.668 1.57-2.142 3.913-3.274 5.209-2.007 2.3-2.01 2.35-.094 1.994 1.852-.343 3.731-3.052 4.972-7.164.504-1.669.723-1.688 2.777-.25 3.194 2.238 5.343 1.938 7.711-1.072 2.612-3.321 2.66-8.352.108-11.596-2.39-3.038-3.886-10.77-2.084-10.77 1.986 0 7.05 5.692 7.05 7.924 0 1.143.47 2.077 1.045 2.077 1.213 0 .34-6.156-1.414-9.977-1.15-2.506-4.332-3.892-7.175-3.902zm-545.907 0c-2.843.01-6.028 1.397-7.177 3.902-1.754 3.822-2.626 9.977-1.414 9.977.576 0 1.046-.935 1.046-2.077 0-2.232 5.064-7.923 7.051-7.923 1.801 0 .304 7.732-2.086 10.77-2.552 3.244-2.504 8.275.108 11.595 2.339 2.974 4.518 3.31 7.574 1.17 2.264-1.586 3.353-1.129 3.353 1.408 0 .886.701 2.612 1.557 3.834.856 1.223 2.284 2.223 3.174 2.223 1.382 0 1.328-.328-.365-2.25-1.092-1.238-2.532-3.534-3.2-5.102-.978-2.292-1.67-2.737-3.529-2.271-1.306.328-3.145-.038-4.224-.838-1.58-1.17-1.708-1.754-.735-3.35.875-1.435.888-2.223.051-3.06-.837-.839-.592-1.13.955-1.13 1.82 0 2.17-.798 2.756-6.273.373-3.452.376-7.055.01-8.01-.682-1.778-2.689-2.603-4.9-2.595zm273.694-1.002c-1.288.013-4.347 3.896-3.674 4.984.305.493.986.897 1.516.897 1.324 0 3.42-4.833 2.496-5.754a.45.45 0 0 0-.338-.127m336.08-5.176c-2.333 0-4.832 1.336-7.51 4.014-4.527 4.527-5.06 8.73-1.055 8.304 3.113-.33 2.899 2.359-.251 3.149-2.524.634-3.36 2.941-1.485 4.1 2.44 1.507-.504 2.612-5.227 1.962-4.836-.666-5.123-.563-9.14 3.291-2.282 2.19-5.048 4.474-6.148 5.078-1.982 1.087-1.981 1.097.07 1.127 1.138.018 3.978-1.602 6.312-3.6 3.769-3.226 4.52-3.505 6.727-2.5 8.603 3.92 16.37-2.272 16.382-13.06 0-3.13.486-5.985 1.07-6.347 2.72-1.681 7.926 6.667 7.954 12.757.012 2.487.25 2.919.984 1.782 2.318-3.586.263-13.827-3.537-17.627-1.62-1.62-3.332-2.43-5.146-2.43m-673.635 0q-2.72 0-5.146 2.43c-3.8 3.799-5.856 14.04-3.538 17.627.734 1.137.974.705.985-1.782.029-6.09 5.231-14.437 7.951-12.757.585.362 1.07 3.217 1.07 6.347.013 10.79 7.781 16.979 16.385 13.059 2.207-1.005 2.957-.726 6.727 2.5 2.333 1.998 5.173 3.62 6.312 3.603 2.051-.03 2.052-.04.07-1.129-1.1-.604-3.867-2.889-6.148-5.078-4.017-3.854-4.306-3.958-9.143-3.293-4.724.65-7.664-.452-5.226-1.959 1.876-1.16 1.041-3.468-1.483-4.101-3.15-.791-3.368-3.479-.254-3.149 4.006.425 3.474-3.777-1.052-8.304-2.679-2.678-5.178-4.015-7.51-4.014m639.404-1.734c-5.069.1-8.183 4.165-8.382 11.203-.12 4.22.713 5.314 2.757 3.617 2.304-1.912 3.245 1.529 1.075 3.928-1.614 1.784-1.591 1.945.443 3.033 2.995 1.603.98 3.832-4.213 4.662-3.246.519-4.16 1.177-5.004 3.596-.632 1.813-2.24 3.488-4.148 4.318l-3.116 1.355 2.784.04c2.137.03 3.258-.767 4.83-3.432 1.969-3.336 2.138-3.41 4.406-1.924 2.137 1.4 2.687 1.39 5.828-.1 1.973-.937 3.98-2.885 4.656-4.52 1.497-3.613.485-10.095-2.087-13.365-2.492-3.168-2.454-6.315.084-7.12q5.13-1.63 8.07 4.847l1.885 4.152.02-4.115c.03-5.284-2.868-9.086-7.599-9.973a11.2 11.2 0 0 0-2.29-.203zm-605.175 0q-1.089-.023-2.291.2c-4.731.889-7.628 4.691-7.6 9.975l.021 4.116 1.887-4.153q2.94-6.476 8.07-4.847c2.538.806 2.573 3.953.082 7.12-2.573 3.27-3.584 9.753-2.088 13.366.678 1.635 2.685 3.582 4.658 4.52 3.142 1.49 3.69 1.5 5.827.1 2.268-1.487 2.438-1.413 4.406 1.923 1.57 2.665 2.693 3.464 4.83 3.434l2.785-.041-3.117-1.356c-1.908-.83-3.515-2.505-4.147-4.318-.843-2.419-1.759-3.076-5.004-3.596-5.194-.83-7.208-3.059-4.214-4.662 2.035-1.088 2.058-1.249.443-3.033-2.17-2.399-1.23-5.839 1.074-3.926 2.044 1.696 2.878.6 2.758-3.62-.2-7.038-3.311-11.101-8.38-11.202m339.416-1.299c-.605.032-.787 1.513-.245 3.84.523 2.243.434 9.98-.222 19.25-.87 12.289-.83 16.432.191 20l1.287 4.5.645-3.5c.355-1.925 1.233-4.587 1.953-5.913l1.307-2.412 1.425 3.412c.785 1.876 3.315 5.339 5.62 7.694 2.304 2.355 4.333 3.847 4.511 3.316.474-1.424-6.19-15.412-9.69-20.336-2.746-3.866-3.12-5.354-4.03-16.043-.551-6.48-1.27-12.217-1.6-12.75-.461-.746-.857-1.074-1.152-1.058m6.463-10.789c-.505.03-.226.81.86 2.465 1.416 2.156 1.986 5.525 2.43 14.365.376 7.445 1.18 12.936 2.264 15.453 2.131 4.948 2.833 4.33 1.553-1.363-.545-2.423-.824-5.335-.621-6.473.338-1.908.45-1.866 1.459.521 1.8 4.27 13.087 12.42 14.81 10.698 1.221-1.222-2.83-8.391-8.199-14.504-3.095-3.526-7.253-9.624-9.238-13.551s-4.215-7.325-4.957-7.553a1.1 1.1 0 0 0-.361-.059zm-70.465-15.135c-1.38.062-4.966 2.106-11.56 6.516-5.347 3.574-10.181 6.5-10.743 6.5s-1.024.376-1.024.84c0 .461-1.672 2.029-3.718 3.484-3.125 2.224-3.85 2.41-4.55 1.16-1.31-2.345-2.625-1.736-2.419 1.123.256 3.537-2.885 5.623-4.73 3.14-1.956-2.626-2.905-2.11-2.239 1.217.464 2.32.121 3.296-1.576 4.485-1.99 1.394-2.362 1.34-4.482-.653-2.992-2.81-4.788-1.318-2.868 2.383 2.298 4.43-1.64 6.453-6.26 3.217-3.062-2.145-3.64-1.281-1.208 1.809l1.978 2.513-2.357 2.215c-2.49 2.338-4.012 2.02-8.82-1.84-.963-.772-1.743-.997-1.733-.5.022 1.277 5.089 6.828 7.483 8.2 4.205 2.406 9.837 1.446 15.587-2.66 11.291-8.064 20.47-11.568 30.413-11.608l7-.027-.336-7.076c-.372-7.837.77-11.563 5.78-18.844 1.682-2.443 3.056-4.697 3.056-5.01 0-.405-.214-.604-.674-.584m72.404-2.986c-.456.035.045 1.17 1.133 2.552 1.104 1.404 3.223 6.242 4.71 10.75 4.324 13.11 10.34 23.724 8.94 15.774-.663-3.765.064-3.883 2.764-.45 1.136 1.445 3.9 3.458 6.142 4.477 5.217 2.37 5.245 2.367 5.996-.623 1.104-4.4-2.841-8.897-12.603-14.367-4.234-2.373-6.497-4.52-8.86-8.4-3.523-5.794-6.835-9.713-8.2-9.713zm-1.369-10.997c-1.363 0-1.009.525 1.324 1.948 1.752 1.068 3.714 2.931 4.361 4.14.647 1.21 2.985 4.157 5.194 6.553 2.207 2.395 4.27 4.356 4.586 4.356.315 0 .033-.54-.627-1.2-2.22-2.22-1.231-2.71 6.05-3.006l7.25-.294-3-1.61c-1.65-.885-5.392-1.88-8.314-2.21-4.266-.483-6.266-1.398-10.139-4.641-2.654-2.222-5.661-4.036-6.685-4.036m-17.615-14.734c-.463-.01-.747.192-.747.582 0 1.412 7.998 6.045 13.288 7.7 2.317.724 6.013 1.268 8.213 1.208 4.756-.128 4.12-.095-.25-.49-2.338-.21-4.25-.735-4.25-1.166 0-1.079 6.995-3.083 11.117-3.185l3.383-.084-4.446-2.04c-4.126-1.892-4.943-1.946-11.353-.736-6.805 1.284-7.315 1.228-13.951-1.54-.386-.162-.727-.241-1.004-.247zm-20.557-4.047c-.176-.01-.318.01-.426.047-.695.245.394 1.15 2.42 2.01 4.332 1.84 8.193 7.241 9.969 13.951 1.159 4.378 1.087 4.954-.951 7.711-1.211 1.638-2.196 3.334-2.196 3.768 0 .436 1.578 1.862 3.5 3.17 2.287 1.558 3.495 3.171 3.495 4.677 0 2.855-5.83 14.177-10.03 19.48-3.792 4.788-2.908 4.988 3.608.808 21.436-13.748 24.928-18.001 23.04-28.061-.853-4.551-8.217-14.124-14.193-18.451-5.66-4.098-15.6-9.01-18.236-9.11"/><path fill="#00426a" d="M692.645 256.793c-1.647.079-2.847.502-4.664 1.322-5.147 2.32-7.877 7.393-7.877 14.633 0 4.288.597 6.147 3.21 9.977 1.767 2.588 4.256 5.181 5.53 5.761s2.575 1.735 2.894 2.565.869 1.502 1.223 1.492c1.942-.046 21.812-8.224 23.092-9.504 2.184-2.183 1.661-8.059-1.301-14.643-3.632-8.075-5.443-9.405-14.768-10.855-3.602-.56-5.693-.827-7.34-.748m3.416 9.877c1.468-.07 2.442.621 3.486 2.111 2.229 3.183 1.922 7.087-.758 9.604-2.84 2.669-4.35 2.711-8.11.234-5.757-3.797-5.482-7.454.79-10.43 2.007-.952 3.45-1.465 4.591-1.52m-2.125 3.02c-4.175.021-6.464 3.837-3.631 6.67.66.66 2.18 1.199 3.377 1.199 5.108 0 6.138-7.247 1.113-7.823a7 7 0 0 0-.86-.047zm-60.116-19.73c-.3.011-.49.043-.545.098-.217.217 1.12 1.327 2.97 2.467 3.741 2.305 7.36 2.33 7.36.05 0-1.021-1.555-1.71-4.968-2.198-2.05-.294-3.918-.448-4.817-.415z"/><path fill="#00426a" d="M620.969 246.807c-2.048-.023-2.864.771-2.873 2.562 0 .93-1.116 3.94-2.469 6.69-3.401 6.914-3.128 7.568 1.096 2.632 3.39-3.96 3.732-4.125 5.416-2.601 1.626 1.47 1.66 1.95.38 5.015-2.113 5.056-1.72 5.968 1.118 2.596 2.509-2.982 2.564-2.994 5.564-1.326 2.79 1.55 2.984 2.003 2.44 5.684l-.59 4 2.299-2.834c2.134-2.63 2.498-2.74 5.132-1.54 2.66 1.213 2.8 1.575 2.252 5.835-.598 4.65-.153 4.576 2.88-.467.938-1.561 1.235-1.55 4.259.164 1.788 1.013 3.195 2.517 3.125 3.342-.068.825-.062 2.625.014 4 .134 2.42.189 2.398 1.709-.686 1.407-2.852 1.817-3.073 3.926-2.113 1.81.825 2.437 2.027 2.705 5.187l.35 4.112 1.283-3.204 1.283-3.203 5.168 2.02c2.843 1.11 6.068 2.616 7.168 3.344 2.675 1.772 2.785 1.47 1.013-2.772-.833-1.992-1.513-5.673-1.513-8.183 0-4.551 3.24-15.858 5.234-18.276.58-.7.874-1.45.658-1.664-.782-.777-16.183-2.562-22.093-2.562-5.516 0-6.4.312-9.93 3.5-2.131 1.925-4.576 3.5-5.434 3.5s-4.035-1.172-7.062-2.604c-3.96-1.874-5.948-3.533-7.084-5.916-1.185-2.485-2.422-3.471-4.951-3.945-.972-.183-1.79-.28-2.473-.287"/><path d="M834.054 546.738c-1.645-.086-3.343.46-3.684 1.494-.249.757.377.972 1.774.606 1.29-.337 2.516 0 3.043.83 1.164 1.839 1.151 3.157-.025 2.43-.516-.32-1.303.038-1.75.794-.446.757-1.825 1.907-3.063 2.557-2.455 1.29-2.94 4.02-1.05 5.91 2.014 2.015 3.613 1.369 6.263-2.531 2.807-4.132 3.318-9.375 1.092-11.223-.646-.536-1.614-.815-2.6-.867m28.836 7.389c-1.308.094-8.372 3.862-10.24 5.566-.588.538-.507.867.21.867 1.652 0 10.24-5.315 10.24-6.337 0-.076-.075-.106-.21-.096m-14.516 4.512c-1.555-.046-3.777.637-6.564 2.042-5.192 2.618-7.865 5.314-7.139 7.204.434 1.135 1.394 1.244 4.594.525 7.538-1.694 12.614-5.38 11.48-8.338-.355-.92-1.16-1.398-2.37-1.433m-1.995 12.935c-5.486.016-9.614 1.758-10.096 4.26-.286 1.487.547 1.724 6.051 1.724 6.972 0 10.506-1.626 9.46-4.353-.466-1.213-1.89-1.643-5.415-1.63m18.084.719c-2.964-.11-8.995.575-9.814 1.36-.577.55.603.902 3 .892 4.43-.015 8.45-.897 8.45-1.854 0-.238-.648-.362-1.636-.398M406.01 319.768a11.2 11.2 0 0 0-2.29.203c-4.73.888-7.627 4.689-7.599 9.973l.022 4.115 1.886-4.152q2.94-6.477 8.07-4.848c2.54.806 2.574 3.955.083 7.123-2.573 3.27-3.584 9.752-2.088 13.365.678 1.635 2.685 3.58 4.658 4.518 3.142 1.49 3.69 1.5 5.826.1 2.268-1.485 2.438-1.411 4.406 1.925 1.571 2.665 2.693 3.462 4.83 3.432l2.786-.041-3.118-1.356c-1.908-.83-3.514-2.503-4.146-4.316-.843-2.42-1.76-3.076-5.004-3.596-5.194-.83-7.209-3.06-4.215-4.664 2.035-1.088 2.058-1.247.443-3.031-2.17-2.4-1.23-5.84 1.075-3.928 2.044 1.696 2.877.602 2.757-3.62-.199-7.036-3.313-11.101-8.382-11.202m-34.227 1.734q-2.72 0-5.146 2.43c-3.8 3.799-5.855 14.04-3.537 17.627.734 1.137.973.706.984-1.781.03-6.091 5.231-14.438 7.951-12.758.585.362 1.066 3.217 1.07 6.347.013 10.79 7.78 16.98 16.383 13.06 2.207-1.004 2.96-.725 6.73 2.5 2.332 1.999 5.172 3.62 6.311 3.603 2.051-.03 2.053-.041.07-1.13-1.1-.603-3.867-2.888-6.148-5.077-4.017-3.854-4.306-3.958-9.143-3.293-4.724.65-7.664-.452-5.226-1.96 1.876-1.16 1.042-3.466-1.482-4.1-3.15-.79-3.368-3.48-.254-3.15 4.006.426 3.473-3.775-1.053-8.302-2.678-2.678-5.177-4.017-7.51-4.016m63.861 6.18c-2.843.01-6.028 1.395-7.177 3.9-1.754 3.822-2.626 9.977-1.414 9.977.576 0 1.047-.934 1.047-2.076 0-2.232 5.063-7.924 7.05-7.924 1.801 0 .304 7.732-2.086 10.77-2.552 3.244-2.504 8.275.108 11.595 2.34 2.974 4.518 3.31 7.574 1.17 2.264-1.586 3.354-1.127 3.354 1.41 0 .886.698 2.61 1.554 3.832.856 1.223 2.284 2.223 3.174 2.223 1.382 0 1.328-.328-.365-2.25-1.092-1.238-2.53-3.534-3.2-5.102-.977-2.292-1.67-2.737-3.529-2.271-1.306.328-3.145-.038-4.224-.838-1.58-1.17-1.708-1.754-.735-3.35.875-1.435.886-2.222.05-3.06-.838-.838-.593-1.13.954-1.13 1.82 0 2.171-.796 2.758-6.27.37-3.453.372-7.057.01-8.012-.683-1.778-2.689-2.602-4.9-2.594zm185.322-80.875c-2.047-.022-2.863.772-2.873 2.563-.01.93-1.116 3.94-2.469 6.69-3.4 6.913-3.128 7.568 1.096 2.632 3.391-3.96 3.732-4.124 5.416-2.6 1.626 1.47 1.661 1.948.381 5.014-2.113 5.056-1.72 5.97 1.117 2.598 2.51-2.982 2.563-2.996 5.563-1.328 2.79 1.55 2.985 2.002 2.441 5.683l-.59 4 2.3-2.832c2.133-2.63 2.498-2.74 5.132-1.54 2.66 1.21 2.8 1.573 2.252 5.833-.598 4.65-.153 4.578 2.88-.465.938-1.56 1.234-1.55 4.26.164 1.786 1.013 3.193 2.515 3.123 3.34-.068.825-.062 2.625.014 4 .134 2.42.19 2.399 1.71-.685 1.406-2.852 1.816-3.072 3.925-2.112 1.81.825 2.437 2.026 2.705 5.186l.35 4.11 1.283-3.202 1.283-3.203 5.168 2.02c2.843 1.11 6.068 2.615 7.168 3.343 2.675 1.772 2.786 1.473 1.014-2.77-.833-1.991-1.514-5.675-1.514-8.185 0-4.55 3.24-15.857 5.234-18.275 3.24-4.378-18.94-4.164-21.435-4.227-5.516 0-6.4.312-9.93 3.5-2.13 1.925-4.575 3.5-5.433 3.5s-4.036-1.17-7.063-2.601c-3.959-1.874-5.948-3.533-7.084-5.916-1.185-2.485-2.422-3.472-4.95-3.946-.973-.182-1.79-.281-2.474-.29m12.85 3.156c-.3.01-.49.04-.545.095-.217.217 1.117 1.327 2.967 2.467 3.742 2.305 7.363 2.33 7.363.05 0-1.021-1.556-1.71-4.969-2.198-2.049-.294-3.918-.446-4.816-.412m47.61 42.585c-1.38.062-4.967 2.104-11.56 6.514-5.347 3.574-10.18 6.5-10.74 6.5-.564 0-1.025.377-1.025.84s-1.673 2.03-3.719 3.484c-3.125 2.224-3.849 2.41-4.549 1.16-1.31-2.344-2.628-1.733-2.422 1.126.256 3.537-2.882 5.62-4.728 3.138-1.955-2.627-2.904-2.111-2.238 1.217.464 2.32.12 3.295-1.576 4.484-1.99 1.394-2.363 1.34-4.483-.652-2.992-2.811-4.787-1.318-2.867 2.383 2.298 4.429-1.64 6.453-6.26 3.217-3.063-2.145-3.64-1.28-1.209 1.81l1.977 2.512-2.356 2.215c-2.489 2.338-4.012 2.02-8.82-1.84-.963-.772-1.744-.997-1.734-.5.022 1.277 5.09 6.828 7.484 8.2 4.205 2.406 9.838 1.446 15.588-2.661 11.29-8.063 20.47-11.566 30.412-11.606l7-.03-.336-7.075c-.372-7.837.771-11.56 5.781-18.842 1.681-2.443 3.055-4.697 3.055-5.01 0-.405-.216-.604-.676-.584"/><path fill="#d45500" d="M1053.225 341.661c.126.677.375.64.808 0zm32.05 12.102c-1.282-.023-1.983.017-2.127.14l-.012.013-.01.01v.01c-.175.269 1.956.895 6.22 2.082 3.16.879 7.234 2.905 9.052 4.502 5.682 4.989 42.011 19.731 52.701 21.384 1.375.214 3.089.449 3.809.524.52.054.822 0 .924-.16.01-.01.011-.02.016-.031.68-1.437-13.232-10.063-27.745-16.938-17.413-8.25-25.527-10.726-37-11.29-2.57-.127-4.504-.214-5.825-.237zm-753.445.01c-1.356.026-3.338.116-5.97.246-11.596.573-18.896 2.814-36.762 11.277-12.14 5.752-26.09 13.984-27.465 16.21-.825 1.335 5.385.553 13.47-1.698 9.34-2.6 40.213-16.232 43.704-19.297 1.818-1.597 5.89-3.622 9.05-4.502 6.481-1.804 8.043-2.313 3.975-2.236zm-12.23 14.012q-.995 0-2.75.285c-11.49 1.867-21.732 6.725-50.907 24.146-22.138 13.22-36.543 23.992-49.343 36.899-9.64 9.72-21.951 25.656-20.75 26.857.773.772-.122.98 10.732-2.513 5.288-1.703 14.431-5.553 20.316-8.555 5.886-3.002 13.794-6.821 17.57-8.49 3.78-1.67 10.651-5.27 15.274-8 13.045-7.705 45.544-29.206 49.84-32.975 4.27-3.743 11.518-12.542 11.518-13.982 0-.506-2.138.17-4.75 1.502-3.363 1.715-5.724 2.264-8.08 1.884-7.116-1.15-4.537-6.41 5.81-11.847 6.538-3.435 8.398-5.21 5.52-5.21zm778 0c-2.878 0-1.017 1.774 5.521 5.209 10.345 5.437 12.925 10.697 5.809 11.847-2.357.38-4.718-.17-8.08-1.884-2.613-1.332-4.75-2.008-4.75-1.502 0 1.439 7.247 10.24 11.517 13.982 6.88 6.035 58.463 39.115 60.99 39.115.39 0 7.972 3.597 16.85 7.99 8.878 4.395 20.193 9.32 25.143 10.95 8.92 2.937 10.667 3.222 10.63 1.746-.057-2.296-12.581-18.136-20.976-26.531-12.617-12.617-27.185-23.467-49-36.493-29.175-17.42-39.415-22.278-50.904-24.146q-1.755-.285-2.75-.285zm-764.565 20.771c-1.945 0-15.709 6.749-20.535 10.069-16.678 11.475-81.825 67.34-98.018 84.052-8.498 8.77-14.74 17.487-13.714 19.147 1.206 1.953 11.768-.276 20.06-4.23 14.427-6.882 45.42-27.194 62.494-40.956 10.006-8.065 34.243-30.295 40.973-37.582 5.254-5.687 11.807-14.954 11.807-16.697 0-1.319-2.221-.912-4.047.74-.94.85-3.337 1.807-5.33 2.131-3.271.53-3.623.366-3.623-1.676 0-3.25 3.446-8.363 7.496-11.12 3.495-2.38 4.435-3.878 2.437-3.878m751.131 0c-1.998 0-1.057 1.497 2.438 3.877 4.05 2.758 7.498 7.871 7.498 11.121 0 2.043-.355 2.205-3.625 1.674-1.993-.323-4.39-1.28-5.329-2.129-1.826-1.653-4.046-2.06-4.046-.74 0 1.742 6.55 11.01 11.802 16.697 6.731 7.287 30.967 29.517 40.973 37.582 22.906 18.463 61.144 42.28 71.984 44.836 4.984 1.175 9.998 1.283 10.649.229.957-1.547-5.54-10.509-13.791-19.026-16.192-16.71-81.34-72.576-98.018-84.05-4.825-3.32-18.589-10.07-20.535-10.07m-14.08 19.46c-.521-.035-.93.084-1.207.362-.658.657-.286 1.37 1.094 2.108 3.065 1.64 4.554 4.855 3.076 6.635-1.867 2.249-5.198 1.704-10.318-1.688-2.594-1.718-4.986-2.851-5.317-2.521-.33.33.197 2.748 1.174 5.373 3.574 9.606 9.827 20.327 15.723 26.967 3.324 3.742 10.188 11.754 15.255 17.804 11.26 13.446 20.565 22.268 31.065 29.453 4.383 3 14.04 10.104 21.457 15.79 14.807 11.347 17.307 12.223 17.81 6.24.25-2.964-.833-5.17-6.876-14-13.397-19.575-29.631-40.444-41.043-52.764-6.257-6.755-14.752-16.047-18.877-20.65-10.105-11.275-19.367-18.876-23.016-19.11m-722.922.015c-3.619.22-12.976 7.762-22.062 18.045-3.577 4.047-12.075 13.348-18.887 20.67-12.25 13.165-28.172 33.54-41.986 53.725-5.147 7.52-7.127 11.294-7.127 13.582 0 1.744.3 3.471.666 3.837 1.71 1.71 4.909-.06 17.398-9.63 7.39-5.663 17.021-12.75 21.404-15.75 10.5-7.185 19.809-16.008 31.069-29.453 5.066-6.05 11.93-14.063 15.254-17.805 5.897-6.64 12.148-17.36 15.722-26.967.976-2.625 1.504-5.043 1.174-5.373s-2.72.803-5.314 2.521c-5.12 3.392-8.454 3.938-10.32 1.688-1.479-1.781.012-4.995 3.077-6.635 1.38-.737 1.75-1.45 1.092-2.107-.203-.204-.482-.318-.828-.346a2.4 2.4 0 0 0-.332 0zm24.262 11.947c-.07 0-.144.011-.22.022-2.53.351-12.52 14.025-17.142 23.465-5.825 11.898-15.158 35.848-14.765 37.89.18.938 1.652 1.972 3.312 2.327 1.643.352 3.034.693 3.09.758.055.066 1.534-.384 3.287-.994 2.382-.83 5.671-4.436 13-14.25 11.428-15.304 12.362-16.956 15.075-26.746 2.218-8.006 2.838-21.34.794-17.096-.725 1.506-1.821 2.194-3.181 2-1.691-.242-2.056-.972-1.969-3.936.074-2.627-.227-3.484-1.281-3.44m674.23.076c-.875 0-1.225 1.14-1.162 3.364.085 2.964-.28 3.695-1.97 3.937-1.363.194-2.46-.495-3.184-2-2.044-4.244-1.422 9.087.797 17.094 2.713 9.79 3.645 11.442 15.09 26.767 6.563 8.79 10.747 13.487 12.601 14.147 2.485.885 5.359.77 9.022-.357 2.066-.637 1.493-3.037-4.149-17.37-7.488-19.018-12.93-29.67-19.49-38.156-3.874-5.009-6.276-7.43-7.555-7.426M800.728 545.99c-.405.013-.63.16-.63.468 0 .419 1.203 1.4 2.67 2.18 2.575 1.37 8.33 8.327 8.33 10.07 0 1.662-1.887.808-4.92-2.227-1.694-1.692-3.079-2.571-3.079-1.951 0 3.585 6.924 12.472 24.367 31.277 5.484 5.912 10.358 10.75 10.832 10.75 2.366 0 1.586-3.831-2.49-12.234-2.472-5.096-5.463-11.364-6.647-13.928-2.882-6.237-8.91-12.914-16.629-18.422-4.913-3.506-10.05-6.034-11.804-5.982m-184.258-.001c-1.754-.05-6.89 2.477-11.803 5.983-7.719 5.508-13.747 12.185-16.629 18.422-1.185 2.564-4.177 8.832-6.648 13.928-2.472 5.095-4.238 9.933-3.924 10.75.313.817.96 1.484 1.434 1.484 1.99 0 30.876-32.54 33.652-37.906 2.422-4.685 1.828-5.528-1.53-2.17-3.033 3.034-4.923 3.888-4.923 2.227 0-1.743 5.757-8.7 8.33-10.07 1.47-.78 2.67-1.761 2.67-2.18 0-.307-.224-.455-.629-.467m58.845 103.72c.56-.051.775 2.48.32 7.344-.737 7.85-.22 9.383 1.595 4.75l1.078-2.75.996 2.5c1.338 3.354.324 18.748-2.174 33-1.109 6.325-2.02 13.36-2.023 15.635 0 3.263-.42 4.24-1.97 4.647-1.08.282-2.498-.131-3.153-.92-2.064-2.487-1.726-36.28.453-45.362.99-4.124 2.322-10.087 2.96-13.25.755-3.734 1.455-5.55 1.92-5.593m77.983-11.127c-.337 0-.143.31.55 1.044 1.536 1.628 1.66 9.556.165 10.48-1.793 1.108-3.108-1.096-3.68-6.17-.43-3.82-.699-4.356-1.332-2.647-1.343 3.632-.282 27.91 1.98 45.263 1.182 9.075 2.548 19.822 3.034 23.88.487 4.059 1.451 7.729 2.144 8.157 2.175 1.343 3.875-.097 5.18-4.388 1.733-5.701 1.352-43.778-.58-57.893-1.465-10.71-3.723-16.65-6.67-17.55-.376-.115-.638-.178-.79-.176m-89.399 0c.337 0 .141.31-.553 1.046-1.535 1.627-1.658 9.555-.162 10.479 1.792 1.108 3.107-1.096 3.68-6.17.435-3.87.693-4.372 1.343-2.617 1.227 3.32.218 29.424-1.595 41.232-.887 5.775-2.02 15.06-2.516 20.63-1.08 12.148-1.736 15.057-3.559 15.757-.76.29-2.044-.133-2.85-.941-2.41-2.41-3.102-9.842-2.876-30.946.325-30.313 3.143-46.722 8.295-48.295.376-.114.64-.176.793-.175m-17.29-8.034q-.706.044-3.41 6.092c-4.328 9.675-6.063 18.238-6.084 30.03-.028 15.364 4.253 34.954 8.768 40.132 2.157 2.473 5.08 2.214 5.64-.5 2.37-11.475 2.513-59.773.2-66.75-.913-2.756-1.517-3.648-1.557-2.304-.069 2.244-4.488 8.21-5.404 7.298-.28-.278.152-3.365.96-6.86q1.658-7.186.886-7.138m123.871-.388c1.038-.08 6.621 13.303 8.132 19.715 3.785 16.047-.45 49.073-7.296 56.927-2.157 2.473-5.083 2.214-5.643-.5-2.368-11.474-2.51-59.772-.2-66.75.915-2.756 1.518-3.65 1.56-2.304.067 2.244 4.487 8.213 5.404 7.3.28-.278-.154-3.365-.96-6.86-.809-3.497-1.314-6.826-1.124-7.396q.043-.13.127-.13zM788.8 606.99c.05-.01.106.024.168.089 1.843 1.956 8.941 23.17 10.197 30.478 1.453 8.45 1.861 38.01.625 45.246-1.45 8.496-7.993 13.427-11.94 9.004-3.873-4.338-6.777-24.968-7.38-52.406-.49-22.334.053-25.797 3.115-19.875 1.676 3.242 2.224 3.503 4.42 2.113 1.101-.698 1.256-2.457.72-8.213-.37-3.992-.336-6.383.075-6.435m-160.418-.001c-.045 0-.094.033-.146.089-1.844 1.956-8.943 23.17-10.2 30.478-1.452 8.45-1.86 38.01-.625 45.246.454 2.659 1.924 6.068 3.34 7.75 2.852 3.39 6.255 3.884 8.602 1.254 3.872-4.338 6.776-24.968 7.38-52.406.49-22.334-.053-25.796-3.115-19.875-1.677 3.242-2.224 3.503-4.42 2.113-1.102-.698-1.257-2.457-.722-8.213.378-4.062.337-6.465-.094-6.435m-10.723-20.434c-3.399 0-12.45 15.488-17.199 29.428-5.14 15.09-7.22 36.38-4.478 45.822.76 2.612 1.928 4.75 2.6 4.75 3.11 0 12.586-20.351 17.107-36.738 1.25-4.53 2.763-11.731 3.363-16s1.328-9.225 1.617-11.012c.655-4.064-.915-4.238-2.553-.283-1.648 3.978-3.755 5.692-5.205 4.242-1.585-1.586.89-12.49 3.815-16.8 1.663-2.45 1.926-3.41.933-3.41m181.901-.057c-.767-.014-.65 1.156.916 3.464 2.925 4.31 5.401 15.216 3.816 16.8-1.45 1.453-3.557-.262-5.205-4.241-1.638-3.955-3.208-3.782-2.553.283.288 1.787 1.016 6.742 1.616 11.012 2.12 15.068 9.63 37.26 16.168 47.777 1.696 2.728 3.6 4.957 4.232 4.957 3.93 0 5.117-19.286 2.16-35.068-2.793-14.901-10.657-34.082-17.129-41.774-1.802-2.141-3.3-3.2-4.02-3.212zm2.547-20.858q.233.01.576.074c2.565.494 13.943 14.789 22.473 28.235 7.983 12.583 12.93 24.502 13.234 31.886.318 7.73-1.83 7.358-8.553-1.482-7.064-9.293-15.944-23.947-20.98-34.627-3.877-8.222-4.258-10.66-1.28-8.19 1.3 1.08 1.524.872 1.524-1.423 0-3.183-1.224-5.697-5.313-10.912-2.076-2.65-2.578-3.5-1.824-3.56h.143m-187.399-.083c-3.757 0-25.48 30.572-31.32 44.078-3.56 8.236-5.9 17.88-4.945 20.37.328.855 1.237 1.552 2.021 1.552 3.197 0 20.151-25.438 27.881-41.83 3.876-8.222 4.26-10.66 1.281-8.19-1.3 1.08-1.525.872-1.525-1.423 0-3.167 1.224-5.7 5.228-10.807 2.204-2.812 2.55-3.75 1.38-3.75m127.154 84.153c.463-.02 1.175 1.796 1.943 5.595.638 3.162 1.97 9.125 2.96 13.25 1.414 5.896 1.783 11.415 1.72 25.813-.083 19.215-.577 21.386-4.635 20.445-1.32-.307-1.75-1.43-1.756-4.584 0-2.297-.914-9.35-2.022-15.676-2.498-14.253-3.513-29.647-2.175-33l.998-2.5 1.078 2.75c1.816 4.632 2.33 3.1 1.596-4.75-.45-4.794-.249-7.323.293-7.345z"/><path d="M580.144 551.739c-.987.052-1.956.33-2.602.865-2.227 1.848-1.716 7.09 1.092 11.223 2.65 3.9 4.25 4.546 6.264 2.53 1.89-1.89 1.407-4.62-1.049-5.91-1.238-.65-2.615-1.8-3.062-2.556-.446-.755-1.233-1.114-1.75-.795-1.176.728-1.19-.59-.026-2.43.527-.83 1.752-1.166 3.043-.83 1.396.367 2.023.152 1.774-.605-.34-1.034-2.039-1.578-3.684-1.492m-28.719 7.428c-.785.046.47 1.413 3.924 3.576 2.337 1.464 4.901 2.695 5.7 2.738 1.96.105.56-1.076-5.2-4.383-2.395-1.375-3.887-1.963-4.424-1.931m14.608 4.629c-1.535.058-2.434.78-2.434 2.156 0 2.58 4.344 5.62 10.166 7.115 4.003 1.027 4.97 1.007 5.63-.125 1.046-1.8-1.63-4.55-7.124-7.32-2.537-1.28-4.704-1.885-6.238-1.826m1.783 12.777c-5.423-.016-7.462 2.238-4.19 4.63 1.102.807 4.445 1.356 8.237 1.356 5.505 0 6.336-.238 6.05-1.726-.482-2.5-4.61-4.243-10.097-4.26m-17.658.787c-2.542.146-3.013.803-.309 1.51.962.252 3.751.51 6.2.574 6.22.162 3.871-1.615-2.7-2.043-1.266-.082-2.344-.09-3.19-.04m461.03-257.593c-5.069.1-8.183 4.166-8.383 11.204-.12 4.22.714 5.316 2.758 3.619 2.304-1.912 3.244 1.528 1.074 3.927-1.614 1.784-1.59 1.944.444 3.032 2.995 1.603.98 3.834-4.213 4.664-3.246.519-4.163 1.176-5.006 3.595-.632 1.813-2.239 3.487-4.147 4.317l-3.115 1.355 2.783.04c2.137.03 3.258-.765 4.83-3.43 1.97-3.336 2.14-3.41 4.407-1.924 2.137 1.4 2.685 1.388 5.826-.102 1.973-.937 3.981-2.882 4.658-4.517 1.497-3.613.484-10.096-2.088-13.366-2.492-3.168-2.454-6.317.084-7.123q5.13-1.63 8.07 4.848l1.885 4.152.022-4.115c.03-5.284-2.868-9.085-7.6-9.972a11.2 11.2 0 0 0-2.289-.204m34.23 1.735c-2.334 0-4.83 1.338-7.509 4.015-4.527 4.527-5.06 8.728-1.055 8.303 3.113-.33 2.898 2.36-.252 3.15-2.524.635-3.36 2.94-1.484 4.098 2.44 1.508-.504 2.613-5.227 1.963-4.837-.666-5.124-.563-9.14 3.29-2.282 2.19-5.049 4.475-6.149 5.079-1.982 1.087-1.98 1.097.07 1.127 1.138.018 3.98-1.602 6.313-3.6 3.77-3.226 4.52-3.505 6.726-2.5 8.603 3.92 16.37-2.272 16.383-13.06 0-3.13.485-5.986 1.07-6.348 2.72-1.68 7.924 6.668 7.952 12.758.012 2.487.25 2.918.986 1.78 2.318-3.585.263-13.826-3.537-17.626q-2.428-2.428-5.149-2.43zm-63.867 6.18c-2.21-.01-4.218.815-4.9 2.593-.362.955-.36 4.56.01 8.012.586 5.476.938 6.27 2.756 6.27 1.547 0 1.79.292.953 1.13s-.823 1.628.05 3.063c.975 1.596.848 2.178-.73 3.35-1.08.8-2.92 1.162-4.226.835-1.86-.467-2.552-.02-3.53 2.272-.603 1.415-1.86 3.46-2.933 4.799v2.279c1.705-.655 3.39-3.25 4.531-7.037.504-1.67.726-1.688 2.78-.25 3.194 2.238 5.343 1.938 7.71-1.072 2.613-3.321 2.66-8.352.108-11.596-2.39-3.038-3.886-10.772-2.084-10.772 1.986 0 7.05 5.692 7.05 7.924 0 1.143.47 2.076 1.046 2.076 1.213 0 .34-6.153-1.414-9.974-1.15-2.506-4.333-3.893-7.176-3.903z"/><path fill="#d45500" d="M744.109 989.43c.231.057.53 1.473.377 4.681q-.21-.57-.3-1.007c-.48-2.347-.315-3.734-.077-3.674m.377 4.681c1.885 5.097 10.954 18.271 24.645 41.996 12.522 21.7 16.864 30.965 17.7 39.059.621 6.015-.353 7.879-5.224 10.002-4.915 2.142-6.836 2.14-11.003-4.277-5.285-8.14-5.362-9.33-15.102-34.092-8.517-21.65-10.395-35.89-11.129-50.975a50 50 0 0 0 .113-1.713m4.452-31.105c2.905-.152 8.156 4.704 15.982 16.658l.002.002c15.834 24.186 17.044 27.22 20.098 37.246 2.486 8.16 2.655 13.39.53 16.422-1.048 1.498-2.586 2.22-4.712 2.22-2.588 0-3.341.077-8.295-6.232-5.186-6.604-8.964-10.113-13.883-20.297-11.78-24.392-15.671-45.707-9.722-46.02m-20.449 80.71s7.136 13.848 8.546 19.898c12.308 52.822 24.222 85.243 21.024 107.444-1.433 9.952-9.523 37.706-12.993 44.58-1.61 3.193-3.694 6.235-4.632 6.76-2.726 1.525-2.976.304-3.637-4.167-.34-2.294-1.335-6.446-1.86-10.021-3.175-21.617-6.449-164.494-6.449-164.494m19.797-116.492 17.16.513c13.29 18.932 25.92 37.337 27.268 45.82.712 4.489.062 9.18-2.826 10.329-3.517 1.398-5.87.269-11.06-5.303-9.413-10.107-20.136-28.403-30.542-51.36"/><use xlink:href="#a" transform="matrix(-1 0 0 1 1417.209 0)"/><path fill="#00426a" d="M726.008 695.564c1.073.012 1.12 23.353.059 28.995-1.032 5.483-3.471 82.26-3.367 106 .03 6.874.58 18.8 1.222 26.5s1.63 30.65 2.198 51c.697 25.033 1.683 42.336 3.043 53.5 1.106 9.074 2.682 22.124 3.502 29 2.979 24.948 9.407 60.807 15.937 88.91 5.586 24.04 10.492 59.921 10.502 76.781 0 8.095-1.48 10.53-2.475 4.063-3.596-23.399-12.377-55.666-19.254-70.756-2.413-5.296-2.542-5.407-3.492-3-.915 2.322-.776 15.127.758 69.5.956 33.91 2.408 57.131 4.025 64.35.363 1.62.132 2.215-.748 1.921-1.739-.58-7.535-38.352-9.785-63.77a2965 2965 0 0 0-2.472-26c-3.187-31.982-4.653-64.277-5.624-124-2.056-126.46-1.434-222.94 1.708-265 3.064-41.007 3.684-48.004 4.263-47.994M705.23 894.072v.002l.002.01v-.011zm7.846 0v.012l.002-.01v-.002zm-7.844.024c-.361-.203-.63 44.22-.591 98.765.073 107.873.242 103.681-5.97 148.998-1.371 10.01-2.945 25.173-3.495 33.698-.55 8.524-1.675 22.474-2.5 31-1.87 19.31-1.885 32.645-.045 42.26 1.907 9.97 3.799 14.172 8.84 19.642 3.406 3.696 4.596 4.498 7.683 4.686 3.088-.188 4.278-.99 7.684-4.686 5.04-5.47 6.933-9.673 8.84-19.643 1.84-9.614 1.825-22.948-.045-42.26-.825-8.525-1.95-22.475-2.5-31s-2.124-23.688-3.496-33.697c-6.211-45.317-6.042-41.125-5.969-148.998.038-54.545-.23-98.968-.592-98.765-.362.244-.955 7.585-1.316 16.36-1.632 16.312-2.316 32.676-2.606 49.06-.29-16.384-.974-32.748-2.605-49.06-.362-8.775-.954-16.116-1.317-16.36m2.37-303.399c.26-.26.472 21.505.472 48.365 0 44.041-.163 49.018-1.656 50.668-1.822 2.014-3.137 2.246-5.225.924-1.017-.645-1.335-3.076-1.214-9.26.11-5.571-.376-9.886-1.448-12.86-3.8-10.545-2.858-31.417 2.182-48.382 1.293-4.349 3.264-12.649 4.383-18.445s2.246-10.75 2.506-11.01m-6.152-117.84c.143.018.342.25.61.674 1.626 2.57.095 15.793-4.505 38.914-4.538 22.813-6.243 27.701-10.385 29.766-3.303 1.646-7.538-.084-10.854-4.436-2.495-3.274-2.716-4.31-2.716-12.642 0-8.077.34-9.794 3.105-15.627 2.008-4.24 5.813-9.45 10.773-14.752 8.855-9.47 13.615-16.499 13.637-20.14.01-1.229.094-1.787.334-1.757m49.356-81.297c12.744-.01 44.781 19.596 71.347 43.66 11.545 10.458 25.697 14.415 40.88 11.428 6.558-1.29 16.526-5.334 19.323-7.841.968-.865 2.008-1.32 2.317-1.012 1.86 1.86-16.107 11.974-25.17 14.166-15.374 3.72-26.585.813-46.71-12.111-12.848-8.25-26.045-13.295-34.78-13.295-4.366 0-5.108.776-7.906 8.256-2.346 6.269-4.96 8.744-9.229 8.744-4.804 0-6.777-3.072-6.777-10.55 0-8.577 1.707-11.79 7.437-13.98l4.48-1.709-2.578-3.38c-2.135-2.8-3.232-3.381-6.392-3.381-6.096 0-8.946 1.502-8.961 4.726-.01 1.526-.282 3.774-.61 4.994-.561 2.096-.753 2.14-3.435.752-7.664-3.964-11.278-15.428-7.008-22.23 3.021-4.81 7.632-7.236 13.772-7.236"/></svg>