<svg xmlns="http://www.w3.org/2000/svg" xml:space="preserve" width="1417" height="1520"><rect width="1417" height="1520" x="-.818" y="-1.636" ry="2.089" style="fill:#fff;fill-rule:evenodd;stroke-width:.656906"/><path d="m668.921 927.224-17.16.512c-13.29 18.932-25.92 37.338-27.268 45.822-.712 4.488-.061 9.178 2.827 10.327 3.517 1.398 5.87.269 11.06-5.303 9.412-10.107 20.135-28.402 30.541-51.358m21.361.512c-.85 20.07-2.022 32.905-4.156 47.822-.511 3.575-1.44 11.225-2.066 17s-1.99 15.45-3.031 21.5a3190 3190 0 0 0-3.928 23.5c-1.12 6.875-3.188 17.45-4.598 23.5-12.308 52.822-16.553 87.799-13.355 110 1.433 9.952 9.522 37.706 12.992 44.58 1.611 3.193 3.695 6.234 4.633 6.758 2.726 1.526 2.975.305 3.636-4.166.34-2.294 1.336-6.446 1.861-10.021 6.078-41.37 8.012-280.473 8.012-280.473m34.997-.307s-.96 206.499 8.994 277.13c2.016 14.302 2.018 17.5 3.049 18.136 3.978 2.459 9.02-7.083 15.193-28.748 5.186-18.201 6.537-26.21 6.56-38.889.036-19.462-6.1-53.35-13.583-84.988-1.886-7.975-6.072-18.96-7.176-25.285-4.511-25.845-6.441-43.053-7.482-52.522-.605-5.5-3.704-14.36-4.211-17.935-2.138-15.088-.498-26.925-1.344-46.899m22.72.553c7.78 12.138 13.445 25.04 18.692 33.227 5.591 8.725 14.477 21.456 17.191 22.517 4.083 1.597 8.043-1.18 8.836-6.236 1.189-7.579-12.77-29.97-28.84-51.565zm-8.354 19.892c1.025 3.85 2.736 11.23 3.675 16.18 2.499 13.178 9.338 31.252 15.404 45.258 4.495 10.379 6.428 13.442 12.111 19.25 5.61 5.733 7.407 6.993 9.994 6.993 9.071 0 7.99-14.244-2.62-34.5-2.594-4.95-11.039-17.519-19.155-29.09-15.989-22.796-19.865-29.935-20.248-35.69-.124-1.861-1.28 3.637.839 11.599m-87.36 31.792c-15.834 24.186-17.044 27.22-20.098 37.246-2.486 8.159-2.655 13.39-.531 16.422 1.049 1.498 2.586 2.222 4.712 2.222 2.588 0 3.342.075 8.296-6.233 5.186-6.604 8.963-10.114 13.882-20.298 17.534-36.305 17.59-65.79-6.26-29.36m20.735 13.438c-.857 4.195-10.231 17.507-24.945 43.005-12.522 21.7-16.865 30.965-17.7 39.059-.622 6.015.353 7.879 5.224 10.002 4.915 2.142 6.837 2.14 11.004-4.278 5.285-8.14 5.36-9.329 15.1-34.091 8.517-21.65 10.395-35.891 11.129-50.975-.69-8.352 1.208-7.714.188-2.722m71.167-2.194s.372.566.614 5.53c.73 15.032 3.09 28.391 10.693 50.489 7.47 21.709 9.264 26.736 14.755 33.522 4.728 5.843 5.332 6.26 8.227 5.693 1.718-.336 4.248-1.452 5.623-2.48 2.196-1.642 2.488-2.584 2.402-7.738-.137-8.216-4.21-16.537-17.787-40.065-14.714-25.499-22.847-38-24.092-42.097-.757-2.49-.486-3.205-.412-2.854.171.806-.037-1.059-.037-1.059zM705.417 259.4v19.55a3.01 3.01 0 0 1-3.015 3.017h-17.914c4.352 6.519 8.471 10.749 13.08 8.881 1.754-.711 6.553-.381 9.853-1.641s8.433-3.228 11.404-4.373 6.523-3.11 7.891-4.364l2.486-2.279-.714 3c-2.514 30.457 29.513 13.322-12.67-20.584-1.777-.263-6.919-.41-10.4-1.207m31.065 5.197c-.393 0-.56.205-.56.61 0 1.91 6.598 3.718 12.401 6.025 5.56 2.211 16.798 2.856 17.8 1.235 1.129-1.826 1.886-2.974-1.54-4.607-4.202-2.004-7.186-2.552-14.949-.948-5.448 1.125-6.213 1.053-9.81-.918-1.713-.938-2.768-1.391-3.342-1.397m17.04 14.58c-1.578 0-.511.66 1.671 1.843 1.238.67 4.028 4.293 6.228 7.376s5.846 7.064 8.29 8.628c9.38 6.002 20.07-1.046 10.889-5.966-2.443-1.309-4.429-2.465-8.827-2.963-4.531-.512-7.447-.68-9.762-2.666-3.93-3.372-7.479-6.252-8.49-6.252m1.124 11.229c0-.084-.153.035-.207.09-.307.307 1.204 1.298 2.365 2.773 1.16 1.476 3.122 5.869 4.213 9.803 3.92 14.141 7.755 20.226 11.554 22.66 6.137 3.932 10.945.957 10.945-5.153 0-2.91-3.684-5.484-11.157-9.782-4.914-2.827-7.146-5.504-9.358-9.403-2.946-5.192-7.106-11.08-8.355-10.988m-35.176.566c-3.472-.058-8.955 1.097-18.404 3.43-14.59 3.602-25.373 18.667-19.078 26.652 1.24 1.575 3.646 3.71 5.345 4.747 4.716 2.875 11.51 2.478 18.367-1.073 7.991-4.138 9.587-5.643 13.83-13.037 7.673-13.367 7.907-13.99 6.286-16.879-1.41-2.513-2.874-3.782-6.346-3.84m33.094 18.485c-.625-.02 0 0 1.736 2.355 1.356 1.84 2.226 5.302 2.658 14.41.487 10.26.37 13.487 2.455 17.213 1.364 2.437 3.921 5.153 5.78 6.139 2.633 1.397 3.948 1.553 6.27.744 7.038-2.454 4.702-8.299-4.657-18.012-3.486-3.618-6.805-10.507-8.521-14.026s-3.182-6.927-4.2-7.849c-.729-.66-1.237-.966-1.521-.974m-7.196 11.066c-.509 0-.387.558-.184 1.785.468 2.822 2.062 9.855 1.18 24.637-.859 14.414-1.462 20.883 4.004 26.516 2.169 2.234 4.817 3.98 6.036 3.98 2.761 0 6.368-3.43 6.368-5.898 0-3.15-6.532-16.033-10.05-20.55-3.05-3.915-3.55-5.567-4.356-14.641-1.001-11.276-.825-15.121-2.559-15.741a1.4 1.4 0 0 0-.44-.088m-8.737 16.369h-.064a.8.8 0 0 0-.363.129c-.402.248-.536 2.833-.3 5.744.3 3.682 1.266 8.418-.887 17.551-1.703 7.22-3.53 14.731-3.53 16.19 0 3.68 2.88 8.763 5.09 10.048 2.682 1.559 5.32 1.878 6.771.13 1.7-2.048.069-9.116-2.73-14.535-1.923-3.724-1.84-5.816-1.973-18.091-.13-12.092-.697-17.095-2.014-17.168zm-13.015 29.534h-.03c-.46.031-.184 1.044-.186 2.72-.002 1.82-.06 6.166-1.983 9.985-3.815 7.574-5.047 13.208-2.554 16.767 1.822 2.602 4.653 2.87 6.871.65 2.034-2.033.366-4.365-1.917-8.476-1.51-2.631-1.571-3.707-.5-8.89 1.478-7.16 1.85-11.858.508-12.687-.073-.045-.21-.137-.21-.07zm29.118 25.7c-1.455-.043-2.752.13-3.977.497-5.33 1.597-10.6 6.484-11.8 10.941-.48 1.78-.544 3.686-.253 5.59h52.407c-6.575-4.42-12.642-8.151-16.69-10.135-9.536-4.672-15.323-6.76-19.687-6.892" style="fill:#d45500;fill-opacity:1"/><path d="M702.94 1271.26c-.601-1.125-2.337-3.091-3.857-4.37-8.06-6.782-10.672-27.746-7.517-60.333.825-8.525 1.951-22.475 2.501-31s2.123-23.689 3.495-33.697c6.207-45.28 6.04-41.147 6.01-149.302-.015-54.725.296-96.8.69-93.5 1.298 10.84 2.815 64.263 2.968 104.5.083 21.725.453 48.95.824 60.5.44 13.753.737-5.462.86-55.685.117-48.202.557-77.662 1.185-79.314.55-1.446 1.296-9.817 1.658-18.604s.956-16.158 1.318-16.382.63 44.23.592 98.788c-.073 107.873-.241 103.682 5.97 148.999 1.372 10.009 2.945 25.173 3.495 33.698.55 8.524 1.676 22.474 2.501 31 1.87 19.311 1.884 32.644.044 42.258-1.907 9.97-3.799 14.173-8.84 19.643-3.698 4.013-4.782 4.614-8.52 4.722-3.367.097-4.516-.313-5.376-1.92m-24.401-50.855c1.617-7.218 3.07-30.438 4.026-64.348 1.534-54.373 1.673-67.178.758-69.5-.95-2.407-1.079-2.296-3.492 3-6.877 15.09-15.658 47.357-19.254 70.755-.995 6.468-2.478 4.032-2.474-4.063.008-16.86 4.916-52.74 10.502-76.781 6.53-28.103 12.957-63.962 15.936-88.91.82-6.876 2.397-19.926 3.503-29 1.36-11.164 2.345-28.467 3.042-53.5.567-20.35 1.556-43.3 2.198-51s1.192-19.626 1.222-26.5c.104-23.74-2.334-100.517-3.366-106-1.061-5.642-1.016-28.982.057-28.994.579-.01 1.2 6.986 4.264 47.994 3.142 42.06 3.764 138.54 1.708 265-.971 59.722-2.436 92.017-5.623 124-.85 8.524-1.962 20.224-2.474 26-2.25 25.417-8.046 63.19-9.785 63.77-.88.294-1.111-.303-.748-1.923m58.086.902c-1.114-3.382-7.228-48.407-8.454-62.25-.535-6.05-1.668-17.975-2.518-26.5-3.187-31.979-4.651-64.275-5.622-124-2.057-126.458-1.435-222.939 1.708-265 3.064-41.007 3.685-48 4.264-47.993 1.072.012 1.118 23.352.056 28.994-1.031 5.483-3.47 82.26-3.366 106 .03 6.874.58 18.8 1.223 26.5.642 7.7 1.63 30.65 2.198 51 .697 25.033 1.68 42.336 3.041 53.5a14704 14704 0 0 1 3.504 29c2.979 24.948 9.406 60.807 15.936 88.91 5.586 24.04 10.493 59.92 10.501 76.78.004 8.096-1.479 10.532-2.473 4.064-3.597-23.398-12.377-55.664-19.254-70.754-4.745-10.412-4.84-8.116-2.735 66.5.95 33.71 2.407 57.094 4.002 64.25.519 2.325-1.28 3.219-2.01 1m-88.47-148.359c3.236-9.511 9.195-32.474 8.586-33.083-.78-.78-16.395 16.666-20.597 23.011-2.433 3.675-4.557 6.681-4.72 6.681-.508 0 3.54-9.797 6.286-15.218 1.444-2.848 6.108-11.051 10.365-18.23 10.274-17.325 24.025-43.037 24.025-44.924 0-.83.45-1.788 1-2.128 1.21-.747 1.234.788.091 5.706-.473 2.037-.495 3.837-.049 4 .937.34-1.872 16.567-4.907 28.34-2.944 11.423-12.786 38.908-16.347 45.649-1.654 3.131-3.85 6.457-4.882 7.39-1.595 1.444-1.424.373 1.15-7.194m120.61 5.36c-1.34-1.788-3.336-5.05-4.434-7.25-2.888-5.784-12.938-34.532-15.367-43.956-3.034-11.772-5.843-27.999-4.907-28.34.447-.161.425-1.961-.049-4-1.142-4.917-1.118-6.452.092-5.704.55.34 1 1.297 1 2.127 0 1.887 13.75 27.6 24.025 44.924 4.257 7.179 8.921 15.382 10.364 18.23 2.747 5.422 6.794 15.219 6.286 15.219-.162 0-2.286-3.007-4.72-6.682-4.201-6.345-19.817-23.79-20.596-23.01-.605.604 5.34 23.541 8.538 32.942 1.637 4.812 2.802 8.75 2.59 8.75s-1.482-1.463-2.822-3.25m-127.62-45.092c-.025-.463 3.485-6.538 7.8-13.5 12.154-19.608 17.664-32.791 16.967-40.59l-.312-3.492-13.397 12.688-13.397 12.689 6.494-10.477c3.572-5.762 11.225-17.677 17.006-26.477 11.594-17.647 13.944-21.853 15.921-28.505l1.337-4.495.336 4.475c.19 2.536-.514 7.301-1.627 11-1.08 3.589-2.737 10.8-3.682 16.025-4.298 23.764-17.01 53.922-27.447 65.114-3.276 3.513-5.976 6.008-6 5.545m128.542-5.825c-10.207-11.28-22.881-41.625-27.079-64.834-.944-5.225-2.601-12.436-3.681-16.025-1.113-3.699-1.818-8.464-1.628-11l.337-4.475 1.336 4.495c1.978 6.652 4.328 10.859 15.921 28.506 5.782 8.8 13.435 20.714 17.006 26.476l6.494 10.477-13.396-12.689-13.397-12.688-.312 3.492c-.7 7.82 4.81 20.979 17.065 40.75 4.37 7.049 7.73 13.031 7.469 13.293s-3.023-2.339-6.135-5.778M639.53 975.556c4.638-7.637 20.556-40.394 20.563-42.313.005-1.48-1.13-1.02-6.156 2.5-3.388 2.372-8.292 6.226-10.897 8.563-2.604 2.338-5.031 4.25-5.393 4.25-.895 0 10.379-16.279 15.674-22.632a4376 4376 0 0 1 12.295-14.641c4.41-5.23 9.585-12.269 11.5-15.643 5.661-9.971 5.994-10.278 5.512-5.083-.58 6.248-5.049 18.703-13.428 37.424-10.182 22.75-21.695 42.092-29.239 49.126l-3.164 2.95zm136.327.155c-8.376-9.272-18.111-25.95-27.86-47.73-8.378-18.72-12.847-31.176-13.427-37.425-.483-5.194-.15-4.887 5.511 5.084 1.916 3.374 7.09 10.413 11.5 15.643a4376 4376 0 0 1 12.295 14.64c5.296 6.354 16.57 22.633 15.675 22.633-.362 0-2.79-1.912-5.394-4.25s-7.508-6.19-10.897-8.563c-5.026-3.52-6.16-3.98-6.155-2.5.007 1.95 16.108 35.04 20.469 42.063 1.45 2.338 2.44 4.25 2.198 4.25s-2.004-1.73-3.915-3.845m-118.17-257.709c-2.41-2.41-3.1-9.841-2.874-30.945.325-30.313 3.143-46.722 8.295-48.295 1.203-.368 1.25-.2.24.87-1.535 1.627-1.658 9.554-.162 10.478 1.792 1.108 3.107-1.096 3.679-6.17.436-3.869.694-4.371 1.344-2.616 1.227 3.32.216 29.425-1.597 41.233-.887 5.775-2.018 15.058-2.514 20.629-1.08 12.147-1.737 15.056-3.56 15.756-.76.291-2.043-.132-2.85-.94m98.471.591c-.693-.428-1.657-4.099-2.144-8.157-.486-4.059-1.851-14.805-3.034-23.88-2.261-17.353-3.323-41.631-1.98-45.263.633-1.709.902-1.173 1.333 2.648.572 5.073 1.886 7.277 3.679 6.17 1.495-.925 1.372-8.852-.163-10.48-1.009-1.068-.962-1.236.24-.87 2.947.9 5.205 6.84 6.67 17.55 1.932 14.115 2.312 52.192.579 57.893-1.305 4.292-3.005 5.733-5.18 4.39m-86.176-4.677c-2.064-2.487-1.727-36.278.452-45.36.99-4.124 2.322-10.087 2.961-13.25 1.665-8.242 3.07-7.143 2.236 1.75-.736 7.85-.22 9.383 1.596 4.75l1.078-2.75.997 2.5c1.338 3.354.324 18.748-2.174 33-1.109 6.325-2.019 13.36-2.023 15.634-.005 3.263-.42 4.241-1.97 4.647-1.08.282-2.498-.132-3.153-.921m73.867.9c-1.321-.307-1.752-1.43-1.757-4.583-.004-2.297-.914-9.351-2.022-15.676-2.498-14.253-3.513-29.647-2.175-33l.998-2.5 1.078 2.75c1.816 4.632 2.331 3.099 1.596-4.75-.834-8.894.57-9.993 2.236-1.75.638 3.162 1.97 9.125 2.96 13.25 1.415 5.896 1.783 11.414 1.72 25.812-.083 19.215-.576 21.387-4.634 20.446m-97.966-8.01c-4.515-5.178-8.795-24.767-8.767-40.13.021-11.793 1.756-20.357 6.082-30.032 3.783-8.461 4.638-8.107 2.524 1.045-.807 3.496-1.24 6.584-.96 6.862.916.913 5.335-5.056 5.404-7.3.04-1.344.645-.45 1.558 2.306 2.313 6.977 2.168 55.275-.2 66.75-.56 2.714-3.484 2.973-5.641.5m119.79-.5c-2.368-11.474-2.512-59.772-.2-66.75.914-2.756 1.518-3.65 1.559-2.305.068 2.244 4.487 8.213 5.404 7.3.28-.278-.153-3.366-.96-6.862-.808-3.496-1.314-6.823-1.124-7.393.555-1.664 6.668 12.828 8.26 19.583 3.784 16.047-.45 49.074-7.297 56.928-2.157 2.473-5.082 2.214-5.642-.5m-144.925-15.754c-1.416-1.683-2.885-5.092-3.339-7.75-1.236-7.236-.827-36.794.625-45.245 1.257-7.309 8.355-28.523 10.199-30.479.564-.598.658 1.864.241 6.347-.535 5.756-.38 7.515.722 8.213 2.196 1.39 2.743 1.128 4.42-2.114 3.062-5.921 3.604-2.459 3.114 19.875-.603 27.438-3.508 48.07-7.38 52.408-2.347 2.63-5.75 2.134-8.602-1.255m167.099 1.255c-3.872-4.338-6.777-24.97-7.38-52.408-.49-22.334.053-25.797 3.115-19.875 1.676 3.242 2.224 3.504 4.42 2.114 1.101-.698 1.256-2.457.721-8.213-.416-4.483-.323-6.945.242-6.347 1.843 1.956 8.942 23.17 10.198 30.479 1.453 8.451 1.861 38.009.625 45.245-1.45 8.495-7.993 13.428-11.941 9.005m-87.315-1.358c-.376-.61-.612-4.783-.524-9.275.108-5.447-.386-9.657-1.481-12.642-2.223-6.06-3.036-26.352-1.487-37.117.661-4.597 2.498-13.983 4.08-20.858 1.584-6.875 3.038-13.4 3.231-14.5s.645 9.925 1.002 24.5 1.198 35.605 1.868 46.733c1.152 19.148 1.12 20.342-.607 22.25-1.996 2.205-5.003 2.655-6.082.909m10.222-.721c-1.493-1.65-1.655-6.626-1.655-50.667 0-26.86.212-48.625.472-48.365s1.387 5.214 2.506 11.01 3.09 14.095 4.383 18.444c5.04 16.965 5.982 37.838 2.181 48.382-1.072 2.975-1.557 7.288-1.447 12.86.121 6.183-.198 8.615-1.215 9.26-2.088 1.322-3.403 1.09-5.225-.924M595.98 661.808c-2.743-9.442-.663-30.732 4.478-45.822 4.748-13.94 13.801-29.428 17.2-29.428.993 0 .73.96-.933 3.41-2.924 4.309-5.4 15.214-3.815 16.8 1.45 1.45 3.556-.266 5.204-4.244 1.638-3.955 3.208-3.78 2.553.284-.289 1.787-1.016 6.743-1.616 11.012s-2.115 11.47-3.364 16c-4.521 16.387-13.997 36.738-17.107 36.738-.671 0-1.841-2.138-2.6-4.75m218.336-.21c-6.539-10.518-14.048-32.71-16.167-47.778-.6-4.27-1.328-9.225-1.616-11.012-.655-4.065.915-4.239 2.553-.284 1.648 3.979 3.753 5.695 5.204 4.243 1.585-1.585-.891-12.49-3.816-16.8-3.039-4.477-.616-4.674 3.105-.252 6.472 7.692 14.337 26.871 17.13 41.772 2.957 15.782 1.769 35.07-2.16 35.07-.633 0-2.537-2.23-4.233-4.958m-235.875-31.594c-.956-2.49 1.386-12.133 4.946-20.369 5.84-13.506 27.562-44.077 31.319-44.077 1.171 0 .826.938-1.378 3.75-4.004 5.108-5.228 7.639-5.228 10.806 0 2.295.223 2.503 1.524 1.423 2.978-2.47 2.596-.032-1.28 8.19-7.73 16.392-24.685 41.83-27.882 41.83-.784 0-1.693-.698-2.021-1.553m251.394-5.65c-7.064-9.293-15.943-23.947-20.979-34.627-3.877-8.222-4.258-10.66-1.28-8.19 1.3 1.08 1.524.872 1.524-1.423 0-3.183-1.224-5.697-5.313-10.912-2.556-3.26-2.726-3.799-1.105-3.486 2.565.494 13.942 14.788 22.472 28.234 7.983 12.583 12.93 24.503 13.234 31.887.318 7.73-1.831 7.357-8.553-1.483m-161.311-.166c-.873-2.237 3.069-43.032 4.836-50.054 1.651-6.556 3.906-7.494 2.532-1.052-1.615 7.572 1.08 7.573 3.2 0 1.453-5.186 3.008-5.955 3.008-1.486 0 5.78-2.126 22.497-4.045 31.798-2.835 13.749-3.677 16.35-6.366 19.663-2.213 2.726-2.502 2.829-3.165 1.13zm14.183-.212c-.918-2.392-.694-24.758.347-34.65.968-9.2 2.557-13.8 5.046-14.607 1.22-.396 1.271-.21.272 1.002-1.735 2.102-2.577 8.47-1.399 10.57 1.124 2 1.043 2.148 3.427-6.233l1.423-5 1.66 3.767c1.565 3.557 1.542 4.451-.418 16-2.528 14.89-4.755 25.473-5.995 28.483-1.073 2.603-3.48 2.971-4.363.668m47.423-.668c-1.24-3.01-3.468-13.593-5.995-28.483-1.96-11.549-1.984-12.443-.418-16l1.66-3.767 1.422 5c2.385 8.38 2.304 8.234 3.427 6.233 1.179-2.1.336-8.468-1.399-10.57-.999-1.212-.948-1.398.273-1.002 2.488.807 4.077 5.406 5.045 14.607 1.041 9.892 1.266 32.258.348 34.65-.884 2.303-3.29 1.935-4.363-.668m14.652-1.389c-3.642-5.639-7.783-25.56-9.273-44.611-.76-9.711.492-11.746 2.598-4.225 2.12 7.572 4.815 7.57 3.2 0-.722-3.388-.681-4.518.154-4.244 1.966.644 3.553 9.482 5.83 32.47 2.436 24.585 2.059 27.683-2.509 20.61m-91.11-6.246c-1.615-2.612 2.66-30.128 6.483-41.724 2.178-6.606 7.27-15.391 8.923-15.391 1.328 0 1.4-.262-1.482 5.419-2.47 4.867-3.657 10.179-1.416 6.33.56-.962 1.447-1.75 1.97-1.75 2.369 0-.198 15.14-5.256 31-4.474 14.03-7.377 19.102-9.223 16.116m105.6-2.8c-4.303-8.48-11.172-33.857-11.172-41.273 0-3.377 1.356-3.977 2.92-1.292 2.24 3.848 1.053-1.464-1.416-6.331-2.882-5.681-2.81-5.42-1.482-5.42 1.65 0 6.74 8.777 8.96 15.448 4.627 13.903 8.079 41.326 5.321 42.273-.657.226-2.067-1.306-3.132-3.405m-118.806-16.805c-.918-2.392 2.387-15.356 6.071-23.812 3.712-8.52 9.679-16.93 14.587-20.558 3.139-2.321 5.676-2.212 2.802.12-2.635 2.138-6.641 8.123-7.357 10.99-.983 3.94.933 3.452 3.64-.928 1.25-2.022 2.419-3.238 2.598-2.702.698 2.094-4.026 13.334-9.405 22.38-9.193 15.456-11.556 18.107-12.936 14.51m131.359-1.76c-8.152-11.146-18.485-31.97-17.432-35.13.179-.536 1.347.68 2.597 2.703 2.707 4.38 4.624 4.868 3.64.927-.715-2.867-4.721-8.852-7.356-10.99-2.875-2.332-.337-2.441 2.802-.12 7.926 5.86 16.397 21.249 19.607 35.62 2.316 10.368.723 13.254-3.858 6.99m-194.358.764c-.314-.817 1.452-5.655 3.924-10.75 2.471-5.096 5.463-11.363 6.648-13.927 2.882-6.237 8.909-12.914 16.628-18.422 6.046-4.315 12.433-7.148 12.433-5.515 0 .419-1.201 1.4-2.67 2.18-2.573 1.37-8.33 8.327-8.33 10.07 0 1.661 1.889.807 4.923-2.227 3.357-3.358 3.951-2.515 1.529 2.17-2.776 5.367-31.663 37.907-33.652 37.907-.475 0-1.12-.669-1.433-1.486m250-9.264c-17.443-18.805-24.367-27.693-24.367-31.278 0-.62 1.384.258 3.077 1.95 3.034 3.035 4.923 3.89 4.923 2.228 0-1.743-5.757-8.7-8.331-10.07-1.468-.78-2.67-1.761-2.67-2.18 0-1.633 6.387 1.2 12.434 5.515 7.719 5.508 13.746 12.185 16.628 18.422 1.184 2.564 4.176 8.831 6.648 13.927 4.076 8.403 4.856 12.236 2.49 12.236-.474 0-5.349-4.838-10.833-10.75m-263.839-4.606c-3.272-2.393-1.233-4.646 4.19-4.63 5.486.017 9.615 1.76 10.096 4.26.287 1.488-.545 1.726-6.05 1.726-3.792 0-7.134-.55-8.236-1.356m-13.778-2.334c-3.606-.942-1.565-1.798 3.5-1.468 6.571.428 8.92 2.204 2.7 2.042-2.448-.064-5.238-.322-6.2-.574m78.738-2.33c-.347-.56-.112-2.59.522-4.511.832-2.52 4.758-6.727 14.106-15.112 7.124-6.39 13.603-12.545 14.396-13.678.793-1.132 1.731-1.77 2.085-1.415.354.354-.76 2.416-2.477 4.583-3.82 4.823-3.988 5.98-.468 3.211 1.46-1.148 2.836-1.904 3.06-1.68.711.712-11.324 15.946-16.361 20.708-8.922 8.436-13.143 10.678-14.863 7.894m152.897-1.143c-5.793-4.344-12.725-11.518-18.545-19.195-3.277-4.322-5.775-8.04-5.552-8.264s1.6.532 3.06 1.68c3.52 2.77 3.35 1.612-.469-3.21-1.716-2.168-2.83-4.23-2.477-4.584s1.293.283 2.086 1.415 7.271 7.288 14.396 13.678c9.347 8.385 13.274 12.592 14.106 15.112 1.92 5.82-1.207 7.415-6.605 3.368m54.8.438c.482-2.502 4.61-4.244 10.096-4.26 3.524-.012 4.948.417 5.413 1.63 1.047 2.727-2.487 4.355-9.459 4.355-5.504 0-6.336-.238-6.05-1.725m-262.518-2.767c-5.822-1.495-10.167-4.536-10.167-7.116 0-2.75 3.6-2.887 8.673-.33 5.493 2.771 8.169 5.52 7.122 7.32-.659 1.132-1.625 1.153-5.628.126m280.883.584c1.093-1.045 11.451-1.913 11.45-.96 0 .957-4.019 1.839-8.45 1.854-2.397.01-3.577-.344-3-.894m-19.978-5.766c-.726-1.89 1.946-4.586 7.138-7.204 4.954-2.498 8.125-2.714 8.933-.61 1.135 2.959-3.939 6.645-11.477 8.339-3.2.719-4.16.61-4.594-.525m-256.036-4.059c-2.808-4.132-3.318-9.374-1.091-11.222 1.722-1.429 5.739-1.029 6.284.626.249.757-.378.972-1.774.606-1.291-.337-2.515 0-3.042.83-1.165 1.839-1.151 3.158.025 2.43.517-.319 1.304.04 1.75.795.447.757 1.824 1.907 3.062 2.557 2.456 1.29 2.941 4.02 1.05 5.91-2.015 2.015-3.614 1.368-6.264-2.532m-23.286-1.084c-5.817-3.642-5.395-5.031.5-1.645 5.76 3.307 7.16 4.489 5.2 4.384-.798-.043-3.363-1.275-5.7-2.739m72.803-1.62c-1.402-1.688-.417-3.956 4.239-9.767 4.846-6.048 24.168-21.67 25.345-20.492.288.287-1.2 2.1-3.304 4.029-3.81 3.491-4.01 6.195-.288 3.87 3.044-1.9 2.335-.19-2.44 5.893-4.408 5.615-9.75 10.421-16.995 15.29-4.505 3.027-4.955 3.108-6.557 1.178m154.336-1.177c-7.244-4.869-12.586-9.675-16.995-15.29-4.775-6.083-5.483-7.793-2.44-5.893 3.723 2.325 3.522-.379-.288-3.87-2.104-1.929-3.591-3.742-3.304-4.03 1.178-1.177 20.5 14.445 25.346 20.493 4.656 5.811 5.64 8.079 4.239 9.767-1.602 1.931-2.053 1.85-6.558-1.177m46.81 1.413c-1.89-1.89-1.405-4.62 1.05-5.91 1.238-.65 2.616-1.8 3.062-2.557.447-.756 1.234-1.114 1.75-.795 1.177.728 1.19-.591.026-2.43-.527-.834-1.751-1.167-3.042-.83-1.397.366-2.023.151-1.774-.606.545-1.655 4.562-2.055 6.284-.626 2.226 1.848 1.716 7.09-1.091 11.222-2.65 3.9-4.25 4.547-6.264 2.532m23.35-1.667c2.061-1.88 10.45-6.272 10.45-5.47 0 1.022-8.589 6.338-10.24 6.338-.718 0-.798-.33-.21-.868m-171.205-17.63c-1.679-.706-4.13-2.795-5.448-4.643-2.102-2.947-2.396-4.465-2.396-12.36 0-7.994.347-9.732 3.105-15.552 2.009-4.24 5.814-9.45 10.774-14.754 8.856-9.469 13.614-16.497 13.636-20.14.012-1.964.23-2.214.946-1.082.511.809.712 4.845.445 8.97-.603 9.314-8.82 51.023-10.81 54.873-2.638 5.102-5.814 6.554-10.252 4.688m48.585.15c-4.142-2.065-5.847-6.954-10.385-29.767-4.6-23.121-6.13-36.344-4.505-38.914.716-1.132.934-.882.945 1.083.022 3.642 4.781 10.67 13.636 20.14 4.96 5.303 8.766 10.514 10.774 14.753 2.765 5.833 3.106 7.55 3.106 15.627 0 8.332-.223 9.367-2.718 12.641-3.316 4.352-7.55 6.083-10.853 4.437m-236.206-2.902c-4.787-3.609-6.099-15.887-2.723-25.492 2.2-6.26 5.676-11.062 11.306-15.619 4.075-3.298 6.1-3.046 2.716.339-3.039 3.038-2.196 5.002 2.878 6.714 5.34 1.801 8.379.614 11.373-4.442 1.058-1.788 2.33-3.25 2.826-3.25 1.61 0 .951 10.625-1.063 17.144-3.127 10.117-10.88 21.11-17.237 24.44-3.339 1.75-7.875 1.824-10.076.166m34.257-.565c-2.91-2.357-4.003-9.457-2.874-18.67.924-7.536 3.483-15.515 4.976-15.515.505 0 .918-.675.918-1.5s.45-1.5 1-1.5 1 1.313 1 2.918c0 4.489.948 6.033 4.654 7.582 4.523 1.89 7.724.611 9.888-3.948.927-1.954 2.02-3.552 2.428-3.552s.666 4.004.573 8.898c-.149 7.832-.56 9.692-3.424 15.51-5.033 10.224-13.344 14.47-19.139 9.777m348.82-.676c-2.46-1.67-4.736-4.666-6.92-9.1-2.864-5.819-3.275-7.68-3.423-15.51-.093-4.895.165-8.9.573-8.9s1.5 1.599 2.427 3.553c2.164 4.56 5.365 5.837 9.889 3.948 3.706-1.549 4.654-3.093 4.654-7.582 0-1.605.45-2.918 1-2.918s1 .675 1 1.5.413 1.5.917 1.5c2.879 0 6.386 18.914 5.09 27.45-1.282 8.45-7.842 11.064-15.208 6.06m36.7 1.326c-6.534-3.605-14.47-14.758-17.515-24.619-2.032-6.578-2.702-17.216-1.084-17.216.496 0 1.767 1.462 2.826 3.25 2.994 5.056 6.033 6.243 11.372 4.442 5.075-1.712 5.917-3.676 2.879-6.714-3.384-3.385-1.36-3.637 2.715-.339 8.517 6.893 13.307 16.546 13.307 26.815 0 6.278-2.382 13.144-5.055 14.575-2.389 1.278-6.946 1.185-9.445-.194m-463.22-3.81c-5.146-2.176-3.565-11.571 4.87-28.957 4.09-8.428 6.457-11.853 12.325-17.836 5.553-5.662 7.805-7.327 9.565-7.07 3.252.476 3.593 2.646.595 3.786-1.793.682-2.716 1.966-3.176 4.42-1.18 6.285 1.368 10.76 7.229 12.694 3.97 1.31 5.228.24 7.382-6.28 1.896-5.737 2.833-3.541 1.474 3.453-1.6 8.236-3.333 12.026-8.814 19.278-8.713 11.53-24.112 19.615-31.45 16.512m507.713.085c-8.29-2.67-17.015-9.044-22.723-16.597-5.481-7.253-7.214-11.043-8.815-19.278-1.359-6.995-.421-9.19 1.474-3.453 2.154 6.52 3.412 7.59 7.383 6.28 5.86-1.935 8.408-6.41 7.229-12.695-.46-2.454-1.383-3.737-3.176-4.42-2.999-1.14-2.658-3.309.594-3.784 1.761-.258 3.984 1.387 9.457 7 7.873 8.073 13.643 18.013 18.012 31.027 2.873 8.558 3.159 11.625 1.319 14.14-1.462 2-7.15 2.94-10.754 1.78m-397.963-1.39c-4.384-2.218-7.033-7.366-7.008-13.619.025-6.413 3.012-14.102 5.479-14.102 1.217 0 1.37.41.636 1.72-1.256 2.243 1.264 7.282 3.638 7.276 3.15-.01 8.148-3.828 8.781-6.715 1.436-6.54 2.225-6.61 4.307-.382 2.744 8.206.456 17.517-5.86 23.851-3.46 3.47-6.013 3.975-9.973 1.97m287.06-1.874c-6.41-6.433-8.713-15.695-5.954-23.948 2.082-6.227 2.872-6.157 4.307.382.634 2.887 5.631 6.709 8.781 6.715 2.375 0 4.894-5.033 3.638-7.277-.733-1.31-.581-1.719.637-1.719 2.403 0 5.453 7.684 5.479 13.8.034 8.316-3.71 13.796-10.141 14.84-2.913.472-3.9.063-6.746-2.793m-260.072-1.238c-4.445-1.474-7.327-7.096-7.85-15.313-.456-7.16.174-10.495 2.405-12.726 1.756-1.756 3.9-2.145 2.9-.526-.355.574.079 2.15.964 3.5 2.352 3.59 7.393 3.351 11.57-.55 2.582-2.413 3.13-3.603 2.775-6.027-.67-4.558 1.459-3.047 2.971 2.11.714 2.432 1.352 7.167 1.417 10.522.097 4.928-.416 7.083-2.675 11.233-4.063 7.465-8.397 9.794-14.477 7.777m237.523.588c-3.615-.782-6.223-3.197-9.036-8.365-2.259-4.15-2.772-6.305-2.676-11.233.066-3.355.703-8.09 1.417-10.523 1.513-5.156 3.64-6.667 2.972-2.11-.356 2.425.192 3.615 2.775 6.028 4.176 3.901 9.217 4.14 11.57.55.885-1.35 1.319-2.926.964-3.5-.742-1.2.453-1.36 2.073-.278 4.8 3.204 4.516 19.452-.455 26.041-1.806 2.395-6.516 4.058-9.604 3.39m-211.695-7.447c-4.343-3.534-6.346-8.193-6.343-14.75.004-6.342 1.857-13 3.618-13 .483 0 .879 1.053.879 2.34 0 1.554.88 2.74 2.623 3.534 3.441 1.568 6.934-.583 7.871-4.849.907-4.129 1.914-3.16 3.474 3.344 2.368 9.87-.492 19.146-7.107 23.054-3.21 1.896-3.096 1.888-5.015.327m186.125-.374c-6.509-4.043-9.283-13.24-6.94-23.007 1.56-6.504 2.567-7.473 3.474-3.344.937 4.266 4.43 6.417 7.872 4.85 1.742-.795 2.623-1.981 2.623-3.535 0-1.287.395-2.34.878-2.34 1.762 0 3.615 6.658 3.618 13 .004 6.557-2 11.216-6.342 14.75-1.916 1.56-2.091 1.547-5.183-.374M638.1 519.998c-2.197-.914-4.797-3.356-6.983-6.56-3.041-4.457-3.484-5.886-3.5-11.282-.012-4.325.532-7.018 1.813-8.976 2.278-3.482 3.005-2.971 1.489 1.046-1.707 4.521-.574 6.331 3.96 6.331 4.552 0 8.024-2.764 8.886-7.076.747-3.737 1.445-3.68 3.87.315 6.18 10.187 5.77 20.23-1.049 25.593-3.2 2.518-3.796 2.56-8.486.61m132.513-.609c-6.818-5.363-7.23-15.406-1.048-25.593 2.425-3.995 3.122-4.052 3.87-.315.862 4.312 4.333 7.076 8.885 7.076 4.535 0 5.667-1.81 3.96-6.331-1.515-4.017-.788-4.528 1.49-1.046 1.28 1.958 1.825 4.65 1.812 8.976-.015 5.396-.458 6.824-3.5 11.281-2.341 3.432-4.716 5.597-7.252 6.611-4.822 1.93-4.938 1.92-8.217-.659m-512.847-1.498c-.366-.367-.666-2.093-.666-3.837 0-2.288 1.98-6.063 7.127-13.583 13.814-20.185 29.737-40.56 41.987-53.725 6.812-7.322 15.31-16.622 18.886-20.669 10.35-11.713 21.05-19.87 23.222-17.698.657.657.287 1.37-1.092 2.108-3.065 1.64-4.555 4.853-3.077 6.634 1.867 2.25 5.199 1.705 10.319-1.687 2.593-1.718 4.985-2.853 5.316-2.522.33.33-.199 2.748-1.175 5.373-3.574 9.606-9.826 20.329-15.723 26.968-3.323 3.742-10.188 11.754-15.254 17.804-11.26 13.446-20.567 22.269-31.067 29.454-4.383 3-14.015 10.087-21.405 15.75-12.489 9.57-15.687 11.34-17.398 9.63m884.32-9.591c-7.417-5.685-17.073-12.79-21.456-15.789-10.5-7.185-19.806-16.008-31.066-29.454-5.067-6.05-11.931-14.062-15.255-17.804-5.896-6.64-12.148-17.362-15.722-26.968-.977-2.625-1.506-5.043-1.175-5.373s2.722.804 5.316 2.522c5.12 3.392 8.452 3.936 10.319 1.687 1.478-1.78-.012-4.993-3.077-6.634-1.38-.738-1.75-1.451-1.092-2.108 2.225-2.225 12.674 5.861 24.222 18.747 4.125 4.603 12.62 13.895 18.877 20.65 11.412 12.32 27.645 33.188 41.042 52.763 6.043 8.83 7.127 11.036 6.877 14-.504 5.983-3.003 5.108-17.81-6.24m-712.597 2.277c-2.738-1.106-3.16-2.417-2.82-8.765.51-9.556 8.314-22.954 17.683-30.36 2.71-2.142 6.012-3.895 7.338-3.895 2.948 0 3.018.724.346 3.568-3.794 4.039-2.602 11.656 2.08 13.288 2.66.927 3.135.74 5.082-1.994 2.8-3.933 3.983-2.548 2.866 3.358-1.797 9.503-9.152 19.285-17.83 23.711-4.181 2.134-10.927 2.632-14.745 1.09m543.258-1.084c-8.662-4.697-15.843-14.367-17.612-23.716-1.117-5.906.065-7.291 2.867-3.358 1.946 2.734 2.422 2.921 5.082 1.994 4.682-1.632 5.874-9.25 2.08-13.288-2.673-2.844-2.602-3.568.346-3.568 5.573 0 16.998 12.096 22.24 23.548 2.942 6.425 3.863 15.368 1.865 18.1-2 2.736-12.038 2.907-16.868.288M657.17 506.92c-2.209-2.809-5.07-11.251-5.07-14.961 0-2.934 1.809-3.44 4.409-1.233 8.858 7.517 10.59 9.647 10.59 13.014 0 1.88-.54 3.957-1.2 4.617-2.12 2.12-6.497 1.4-8.729-1.437m94.13 1.437c-.66-.66-1.2-2.738-1.2-4.617 0-3.367 1.733-5.497 10.59-13.014 4.386-3.722 5.541-.343 2.912 8.512-1.995 6.717-4.918 10.32-8.375 10.32-1.5 0-3.267-.54-3.927-1.2m-215.206-7.652c-3.635-3.634-6.363-12.64-5.405-17.844.47-2.558 2.084-5.196 4.924-8.054 3.96-3.985 7.487-5.516 7.487-3.25 0 .55-.66 1-1.465 1-1.587 0-3.535 2.957-3.535 5.367 0 2.033 3.46 2.992 5.962 1.653 1.347-.72 2.038-2.095 2.038-4.055 0-3.644 1.705-3.87 3.025-.4 1.877 4.937 1.149 15.52-1.452 21.106-3.622 7.78-6.98 9.077-11.58 4.477m337.663 1.72c-3.419-1.987-6.637-10.727-6.647-18.053-.01-6.96 1.208-11.815 2.965-11.815.564 0 1.025 1.334 1.025 2.965 0 1.96.69 3.335 2.038 4.055 2.501 1.34 5.962.38 5.962-1.653 0-2.41-1.948-5.367-3.535-5.367-.806 0-1.465-.45-1.465-1 0-2.266 3.526-.735 7.487 3.25 5.285 5.318 6.272 9.627 3.997 17.452-1.616 5.559-6.048 11.328-8.657 11.268-.73-.017-2.157-.513-3.17-1.102m-672.991-.6c-1.026-1.66 5.217-10.376 13.715-19.147 16.193-16.712 81.34-72.577 98.018-84.052 4.826-3.32 18.59-10.069 20.535-10.069 1.998 0 1.057 1.497-2.438 3.877-4.05 2.758-7.496 7.872-7.496 11.122 0 2.042.353 2.205 3.624 1.675 1.993-.324 4.39-1.283 5.329-2.131 1.826-1.653 4.047-2.058 4.047-.739 0 1.743-6.551 11.009-11.805 16.696-6.73 7.287-30.967 29.518-40.973 37.583-17.074 13.762-48.068 34.074-62.495 40.955-8.292 3.955-18.855 6.183-20.061 4.23m1005.094-.35c-10.84-2.557-49.077-26.372-71.983-44.835-10.006-8.065-34.242-30.296-40.973-37.583-5.253-5.687-11.804-14.953-11.804-16.696 0-1.319 2.221-.914 4.047.739.938.848 3.336 1.807 5.329 2.13 3.27.531 3.624.368 3.624-1.674 0-3.25-3.447-8.364-7.497-11.122-3.495-2.38-4.436-3.877-2.438-3.877 1.946 0 15.71 6.75 20.535 10.07 16.678 11.474 81.826 67.34 98.018 84.051 8.252 8.517 14.748 17.478 13.791 19.025-.651 1.054-5.665.947-10.649-.228m-647.036-3.67c-3.93-4.342-4.823-12.462-2.116-19.228 1.981-4.95 3.463-5.236 2.698-.52-.444 2.738-.23 3.5.981 3.5 3.574 0 4.636-1.124 4.1-4.34l-.528-3.16 2.567 3c2.971 3.474 4.045 7.949 3.279 13.662-.964 7.185-7.23 11.23-10.98 7.086m291.243-.783c-2.114-2.25-2.467-3.581-2.467-9.295 0-5.736.4-7.23 2.855-10.67l2.856-4-.53 3.672c-.541 3.748.36 4.828 4.031 4.828 1.212 0 1.426-.762.981-3.5-.797-4.912.814-4.358 2.853.982 4.656 12.192-3.306 25.725-10.58 17.983m-340.378-2.542c-2.221-2.639-2.588-4.025-2.584-9.75.003-3.67.483-8.392 1.067-10.494 1.391-5.01 7.412-11.679 10.544-11.679 2.985 0 2.974.32-.116 3.41-2.826 2.825-3.23 5.373-.988 6.233 2.12.814 4.488-1.437 4.488-4.265 0-1.308.402-2.378.893-2.378 1.437 0 2.231 3.012 2.831 10.732.673 8.663-1.272 14.868-5.873 18.74-4.024 3.386-7.09 3.222-10.262-.549m387.56.549c-4.602-3.872-6.546-10.077-5.873-18.74.599-7.72 1.394-10.732 2.83-10.732.492 0 .894 1.07.894 2.378 0 2.828 2.368 5.079 4.487 4.265 2.242-.86 1.839-3.408-.987-6.234-3.09-3.09-3.101-3.409-.117-3.409 3.133 0 9.153 6.669 10.545 11.68.583 2.1 1.063 6.823 1.066 10.493 0 5.725-.362 7.111-2.583 9.75-3.173 3.771-6.238 3.935-10.263.549m-318.237-.752c-4.265-2.874-5.879-6.044-5.897-11.584-.016-4.527 3.166-11.608 5.643-12.558 1.55-.595 1.834 1 .342 1.922-.55.34-1 1.492-1 2.56 0 1.6.707 1.94 4.031 1.94 4.417 0 6.097-1.936 3.938-4.537-2.486-2.996.167-2.789 3.206.25 1.906 1.907 3.364 4.598 3.763 6.95.79 4.647-.393 11.856-2.465 15.018-2.004 3.059-7.055 3.076-11.56.04m247.614-.039c-2.072-3.162-3.255-10.37-2.465-15.019.4-2.35 1.857-5.042 3.764-6.948 3.039-3.04 5.692-3.247 3.205-.25-2.158 2.6-.478 4.536 3.938 4.536 3.324 0 4.032-.34 4.032-1.94 0-1.068-.45-2.22-1-2.56-1.492-.922-1.208-2.517.342-1.922 4.41 1.692 7.164 13.887 4.378 19.392-3.191 6.308-13.233 9.23-16.194 4.711m-222.213-6.783c-8.077-2.337-9.706-13.177-2.837-18.878 1.433-1.19 1.547-.99 1.047 1.847-.657 3.733 1.68 5.358 4.152 2.887 1.181-1.182 1.275-1.978.422-3.571-1.537-2.873-1.412-3.183 1.28-3.183 3.593 0 4.713 2.16 5.326 10.264.543 7.17.478 7.448-2.207 9.56-1.521 1.197-3.043 2.136-3.381 2.086s-2.05-.505-3.802-1.012m201.238-1.037c-2.741-2.156-2.799-2.402-2.255-9.597.613-8.105 1.734-10.264 5.326-10.264 2.692 0 2.817.31 1.28 3.182-.853 1.594-.759 2.39.423 3.571 2.471 2.472 4.809.847 4.151-2.886-.5-2.836-.386-3.037 1.048-1.847 2.466 2.047 4.476 6.54 4.476 10.007 0 3.364-4.59 8.973-7.342 8.973-.822 0-2.125.242-2.894.537s-2.666-.458-4.213-1.675m-318.551.435c-2.925-1.026-4-3.72-4-10.02 0-8.195 1.566-11.708 7.814-17.526 5.748-5.353 10.621-6.901 5.764-1.831-2.972 3.101-2.864 4.512.41 5.368 1.523.398 2.169-.064 2.624-1.88.987-3.932 3.199-2.85 3.913 1.914.738 4.922-.774 11.654-3.687 16.411-3.15 5.143-9.34 8.79-12.838 7.564m131.93-.88c-1.977-2.382-2.406-12.491-.63-14.86 1.387-1.85 1.495-1.78 2.29 1.5l.832 3.444.539-3.97.539-3.97 1.826 2.801c2.636 4.043 3.108 8.663 1.323 12.937-1.681 4.022-4.421 4.886-6.72 2.118m172.45-2.046c-1.815-4.347-1.359-8.941 1.294-13.009l1.826-2.8.539 3.97.538 3.97.833-3.444c.78-3.221.923-3.322 2.212-1.56 1.717 2.35 1.769 10.17.088 13.503-.693 1.375-2.27 2.645-3.506 2.822-1.782.256-2.571-.457-3.823-3.452m132.74 1.912c-6.925-3.396-12.076-14.668-10.625-23.253.757-4.482 2.945-5.394 3.892-1.621.456 1.815 1.101 2.277 2.624 1.879 3.274-.856 3.382-2.267.41-5.368-4.857-5.07.017-3.522 5.765 1.831 6.248 5.818 7.814 9.331 7.814 17.527q.001 13.851-9.88 9.005m-266.797-4.547c-5.054-5.483-6.82-11.565-5.958-20.521.355-3.693.92-7.726 1.257-8.964 1.146-4.22 2.378-2.262 2.378 3.781 0 4.675.37 6.174 1.644 6.663 2.667 1.023 4.353-2.49 4.383-9.135l.027-6.059 3.336 3.586c2.604 2.799 3.72 5.308 5.082 11.432 4.311 19.38-2.325 29.875-12.15 19.217m20.743 2.106c-5.09-5.465-6.823-20.823-4.126-36.587 1.604-9.377 2.928-10.145 2.297-1.332-.452 6.323-.315 6.966 1.719 8.055 4.819 2.579 7.595-4.36 4.546-11.363-.609-1.4-.457-1.777.588-1.461.776.234 2.696 2.98 4.268 6.103 8.284 16.453.501 47.097-9.292 36.585m53.194-.09c-6.075-6.547-6.935-25.936-1.619-36.495 1.572-3.122 3.493-5.869 4.268-6.103 1.046-.316 1.197.061.588 1.46-3.048 7.004-.272 13.943 4.547 11.364 2.033-1.089 2.17-1.732 1.718-8.056-.27-3.78-.143-6.656.283-6.393 1.336.826 3.254 14.596 3.27 23.472.03 16.866-6.713 27.583-13.055 20.75m17.087-.343c-4.306-6.573-1.765-25.843 4.263-32.322l3.336-3.586.027 6.059c.03 6.645 1.715 10.158 4.382 9.135 1.275-.49 1.645-1.988 1.645-6.663 0-6.043 1.231-8.001 2.378-3.78.336 1.236.902 5.27 1.257 8.962.86 8.957-.905 15.04-5.958 20.522-4.76 5.164-8.664 5.74-11.33 1.673m-405.835.716c-1.66-.355-3.132-1.39-3.313-2.326-.393-2.043 8.94-25.992 14.766-37.89 4.622-9.44 14.61-23.114 17.14-23.465 1.234-.172 1.58.615 1.5 3.417-.086 2.964.28 3.695 1.971 3.937 1.361.194 2.457-.494 3.182-2 2.044-4.244 1.423 9.088-.795 17.095-2.713 9.789-3.646 11.443-15.074 26.747-7.329 9.814-10.618 13.42-13 14.25-1.753.61-3.233 1.058-3.288.993-.056-.065-1.446-.406-3.089-.758m293.09-1.431c-6.96-6.96-5.107-23.75 3.775-34.193 2.764-3.25 3.04-2.603 1.744 4.08-1.582 8.164 2.346 11.491 4.993 4.23 2.634-7.224 3.666-5.77 3.509 4.942-.123 8.373-.516 10.553-2.634 14.607-1.369 2.62-3.937 5.672-5.707 6.78l-3.218 2.017zm139.186-.19c-5.152-3.502-7.088-8.983-7.343-20.797-.231-10.667.8-12.136 3.44-4.896 2.648 7.261 6.576 3.934 4.993-4.23-.435-2.244-.795-4.755-.799-5.58-.012-2.386 4.793 3.843 7.714 10 4.59 9.676 3.203 23.791-2.645 26.92-1.387.743-2.686.399-5.36-1.418m292.938 1.302c-1.853-.66-6.037-5.357-12.6-14.146-11.445-15.325-12.376-16.977-15.089-26.767-2.219-8.007-2.84-21.339-.796-17.095.725 1.505 1.821 2.194 3.182 2 1.691-.242 2.057-.973 1.972-3.937-.156-5.47 2.192-4.375 8.716 4.062 6.56 8.485 12.002 19.138 19.49 38.157 5.642 14.332 6.215 16.732 4.149 17.369-3.662 1.128-6.538 1.242-9.024.357m-645.429-5.473c-.814-2.122 1.069-11.193 3.299-15.893 1.752-3.693 10.924-11.439 13.545-11.439 1.796 0 3.859 1.961 3.859 3.669 0 .697-.576 1.047-1.279.778-2.174-.835-5.041 1.97-4.325 4.227.912 2.873 5.09 4.65 6.614 2.814.639-.77.836-1.928.437-2.574-.456-.738-.21-.992.664-.685 3.826 1.347-1.59 12.932-8.328 17.813-4.86 3.52-13.34 4.276-14.486 1.29m557.982-1.245c-6.792-4.92-12.235-16.504-8.39-17.857.873-.308 1.12-.053.664.684-.4.646-.202 1.804.437 2.574 1.524 1.836 5.701.059 6.613-2.814.728-2.294-2.164-5.056-4.397-4.2-1.938.744-1.105-2.508.979-3.82 2.183-1.376 5.717.468 11.311 5.899 3.273 3.177 4.555 5.458 5.935 10.554.967 3.575 1.604 7.601 1.414 8.947-.307 2.177-.898 2.478-5.383 2.741-4.275.25-5.666-.16-9.183-2.708m-594.396-6.204c-1.91-1.91-2.073-2.959-1.671-10.75.345-6.692 1.17-10.432 3.666-16.633 3.908-9.707 9.532-18.5 11.832-18.5 1.314 0 1.423.267.49 1.2-1.683 1.683-1.518 5.8.232 5.8.788 0 1.719-.9 2.068-2s1.119-2 1.71-2c1.93 0 .036 14.988-3.144 24.868-3.326 10.336-7.113 17.552-10.032 19.114-2.558 1.369-2.718 1.334-5.151-1.099m639.886 1.048c-2.79-1.626-6.6-9.01-9.836-19.063-3.18-9.88-5.074-24.868-3.144-24.868.592 0 1.362.9 1.71 2 .35 1.1 1.28 2 2.068 2 1.75 0 1.916-4.117.233-5.8-.934-.933-.825-1.2.49-1.2 2.3 0 7.923 8.793 11.831 18.5 2.497 6.201 3.322 9.941 3.667 16.633.402 7.791.239 8.84-1.672 10.75-2.377 2.377-2.892 2.478-5.347 1.048m-562.114-2.76c-2.223-2.456-2.074-4.732.7-10.67 3.059-6.552 6.997-11.122 10.297-11.95 3.876-.973 4.687 1.238 1.492 4.07-2.242 1.987-2.416 2.496-1.144 3.346 1.826 1.22 3 1.308 3 .224 0-.445.701-1.682 1.558-2.75 1.447-1.802 1.512-1.585.905 3.036-1.609 12.247-11.33 20.747-16.808 14.694m479.952-.266c-3.55-2.792-6.271-8.345-7.07-14.428-.607-4.62-.542-4.838.904-3.036.858 1.068 1.559 2.305 1.559 2.75 0 1.084 1.173.997 3-.224 1.272-.85 1.097-1.36-1.145-3.346-3.195-2.832-2.384-5.043 1.493-4.07 3.3.828 7.238 5.398 10.297 11.95 2.82 6.036 2.947 8.654.526 10.844-2.493 2.256-6.363 2.079-9.564-.44m-529.07-10.155c-5.235-4.575-5.72-19.695-.93-28.959 2.04-3.944 3.414-3.469 2.124.734-1.897 6.181 3.047 7.593 5.756 1.643 1.389-3.05 2.029-2.726 3.356 1.703 2.02 6.743 2.423 12.66 1.238 18.187-1.899 8.852-6.212 11.352-11.544 6.692m579.152.46c-3.725-4.117-4.425-15.686-1.532-25.34 1.327-4.428 1.967-4.753 3.356-1.702 2.708 5.95 7.653 4.538 5.756-1.643-1.29-4.203.084-4.678 2.123-.734 4.79 9.264 4.305 24.384-.93 28.96-3.1 2.71-6.571 2.891-8.773.458m-373.617-1.845c-2.566-3.263-2.566-3.714.016-9.047 2.33-4.814 9.287-11.318 12.106-11.318 1.642 0 1.555.421-.826 4.02-1.464 2.212-2.365 4.316-2.004 4.677.863.864 6.636-4.69 6.636-6.384 0-.722.45-1.313 1-1.313 1.264 0 1.29-.315-.59 7.17-1.924 7.655-3.519 10.316-7.715 12.874-4.278 2.609-6.153 2.461-8.623-.679m168.232.7c-4.201-2.59-5.792-5.25-7.714-12.896-1.88-7.484-1.854-7.169-.59-7.169.55 0 1 .59 1 1.313 0 1.694 5.772 7.248 6.636 6.384.36-.36-.54-2.465-2.004-4.677-2.56-3.867-2.582-4.02-.599-4.02 2.891 0 11.437 8.863 12.941 13.422 1.116 3.381 1.038 4.085-.71 6.437-2.497 3.357-4.937 3.685-8.96 1.206m-592.554-1.648c-1.201-1.201 11.11-17.136 20.75-26.856 12.8-12.907 27.206-23.68 49.344-36.899 29.175-17.421 39.417-22.28 50.906-24.147 6.238-1.014 5.276.698-2.77 4.926-10.347 5.437-12.926 10.697-5.81 11.847 2.357.38 4.717-.17 8.08-1.885 2.612-1.332 4.75-2.008 4.75-1.502 0 1.44-7.248 10.24-11.517 13.983-4.296 3.769-36.795 25.27-49.84 32.975-4.623 2.73-11.496 6.33-15.274 7.999s-11.684 5.49-17.57 8.492c-5.885 3.002-15.028 6.851-20.316 8.554-10.854 3.495-9.96 3.285-10.733 2.513m1014.75-2.478c-4.95-1.629-16.265-6.557-25.143-10.95-8.879-4.394-16.461-7.989-16.85-7.989-2.528 0-54.11-33.082-60.99-39.116-4.27-3.743-11.517-12.544-11.517-13.983 0-.506 2.137.17 4.75 1.502 3.362 1.715 5.723 2.265 8.08 1.885 7.116-1.15 4.536-6.41-5.81-11.847-8.046-4.228-9.009-5.94-2.77-4.926 11.489 1.868 21.73 6.726 50.905 24.147 21.815 13.026 36.382 23.875 48.999 36.492 8.395 8.395 20.919 24.236 20.977 26.532.037 1.476-1.71 1.19-10.631-1.747m-760.845.232c-2.505-2.768-2.014-5.392 1.856-9.913 2.691-3.144 5.042-4.612 10.064-6.283 3.604-1.2 6.861-1.848 7.239-1.44.377.406.187.918-.422 1.138-3.387 1.22-4.67 3.087-3.986 5.808l.7 2.791 2.947-2.823c4.792-4.59 3.358-.803-1.772 4.681-7.282 7.786-13.126 9.909-16.626 6.041m507.845-.02c-3.656-2.246-11.5-10.646-11.5-12.315 0-.666 1.326.06 2.947 1.613l2.946 2.823.701-2.791c.683-2.72-.6-4.588-3.986-5.808-.61-.22-.8-.732-.422-1.139.377-.406 3.635.242 7.239 1.441 10.375 3.453 16.534 12.037 11.746 16.37-2.391 2.164-5.947 2.093-9.671-.195m-399.903-1.746c-9.063-2.192-27.03-12.305-25.17-14.166.309-.308 1.35.148 2.317 1.013 2.797 2.507 12.764 6.551 19.323 7.841 15.182 2.987 29.335-.97 40.88-11.427 26.566-24.065 58.604-43.671 71.348-43.662 6.14 0 10.749 2.427 13.77 7.237 4.27 6.802.656 18.266-7.008 22.23-2.682 1.387-2.873 1.345-3.435-.751-.327-1.22-.601-3.468-.609-4.994-.015-3.224-2.864-4.726-8.96-4.726-3.16 0-4.259.581-6.394 3.38l-2.578 3.38 4.48 1.71c5.73 2.189 7.439 5.402 7.439 13.98 0 7.477-1.974 10.55-6.778 10.55-4.269 0-6.883-2.477-9.229-8.746-2.798-7.48-3.54-8.254-7.906-8.254-8.735 0-21.933 5.045-34.78 13.295-20.126 12.924-31.336 15.83-46.71 12.11m143.577-.91c-3.046-3.872-3.612-8.543-2.315-19.094.627-5.106 1.15-12.348 1.16-16.092.031-10.494 1.679-19.799 5.601-31.622 1.973-5.947 3.763-10.637 3.977-10.423.215.215-.69 5.53-2.011 11.813-4.079 19.398-3.93 21.873 2.455 40.923 2.12 6.325 4.14 13.115 4.488 15.089.735 4.168-1.646 10.911-3.853 10.911-.785 0-2.766.268-4.404.596-2.431.486-3.366.101-5.098-2.102m135.826 1.071c-5.657-1.578-15.006-6.298-24.308-12.271-12.846-8.25-26.044-13.295-34.78-13.295-4.366 0-5.107.774-7.906 8.254-2.345 6.269-4.96 8.746-9.229 8.746-4.803 0-6.777-3.072-6.777-10.55 0-8.578 1.71-11.791 7.438-13.98l4.48-1.71-2.578-3.38c-2.135-2.799-3.233-3.38-6.394-3.38-6.096 0-8.944 1.502-8.96 4.726-.008 1.526-.281 3.773-.609 4.994-.562 2.096-.752 2.138-3.434.75-7.665-3.963-11.279-15.427-7.008-22.229 3.02-4.81 7.63-7.232 13.77-7.237 12.743-.01 44.782 19.597 71.347 43.662 8.503 7.702 16.703 11.37 27 12.075 8.323.57 18.436-.907 23.253-3.398 1.556-.805 3.812-1.324 5.012-1.153 1.65.234.448 1.22-4.92 4.038-11.928 6.259-25.02 8.233-35.397 5.338m-405.428-7.45c-1.109-1.793 2.42-10.513 5.57-13.763 3.679-3.795 5.765-4.486 3.414-1.13-2.567 3.665-1.946 5.492.944 2.777 4.352-4.088 2.174 2.613-3.17 9.75-2.323 3.105-5.594 4.25-6.758 2.367m547.097-2.366c-5.343-7.137-7.521-13.838-3.17-9.75 2.89 2.715 3.511.888.944-2.777-2.35-3.356-.264-2.665 3.414 1.13 3.15 3.25 6.68 11.97 5.57 13.764-1.163 1.883-4.434.738-6.758-2.367m-559.215-24.204c-2.953-2.953-3.082-5.408-.542-10.335 2.315-4.49 8.76-10.892 9.823-9.755.42.45.193 1.022-.506 1.272-1.594.568-4.367 5.801-3.523 6.646 1.18 1.18 4.635.627 6.471-1.034 1.01-.913 2.044-1.451 2.3-1.196 1.018 1.018-3.118 11.33-5.617 14.006-3.263 3.493-5.217 3.585-8.406.396m569.686-.396c-2.5-2.675-6.635-12.988-5.617-14.006.255-.256 1.29.283 2.3 1.196 1.835 1.662 5.29 2.214 6.47 1.034.845-.845-1.928-6.078-3.522-6.646-.7-.25-.927-.822-.506-1.272 1.062-1.137 7.508 5.264 9.822 9.755 2.54 4.927 2.412 7.382-.542 10.335-3.189 3.19-5.142 3.097-8.405-.396m-582.474-2.816c-2.184-2.185.898-11.314 5.768-17.083 3.642-4.315 5.288-4.154 2.566.25-1.2 1.94-1.668 3.5-1.05 3.5.612 0 1.372-.676 1.688-1.5.922-2.402 2.564-1.73 1.833.75-1.282 4.345-5.573 13.195-6.766 13.953-1.498.952-3.163 1.006-4.039.13m599.629-.116c-1.195-.773-5.489-9.638-6.766-13.967-.732-2.48.911-3.152 1.832-.75.317.825 1.077 1.5 1.689 1.5.617 0 .15-1.56-1.05-3.5-2.722-4.404-1.077-4.564 2.57-.25 3.684 4.359 6.627 11.207 6.243 14.527-.319 2.755-2.343 3.848-4.518 2.44M391.3 412.358c-3.192-3.192.313-14.176 6.279-19.674 4.165-3.84 8.52-5.438 8.52-3.126 0 .55-.59 1-1.312 1-1.34 0-6.687 5.042-6.687 6.304 0 1.16 4.517.778 5.783-.488 2.163-2.162 2.162-.294-.003 5.727-3.017 8.394-5.329 11.457-8.648 11.457-1.503 0-3.272-.54-3.932-1.2m626.088-1.495c-2.2-3.2-6.452-14.475-5.732-15.195.262-.262 1.01.055 1.66.706 1.266 1.266 5.784 1.647 5.784.488 0-1.262-5.348-6.304-6.687-6.304-.722 0-1.313-.45-1.313-1 0-2.548 4.684-.6 9.022 3.75 3.875 3.885 4.974 5.814 6.039 10.6 1.537 6.905.693 9.003-3.804 9.455-2.396.24-3.452-.291-4.97-2.5M368.3 408.357c-.66-.66-1.2-3.297-1.2-5.86 0-4.846 2.274-9.278 7.852-15.298 2.679-2.892 16.419-12.641 17.815-12.641.417 0-1.448 2.24-4.145 4.976-5.495 5.58-5.486 7.758.016 3.562 1.976-1.507 3.808-2.526 4.07-2.264.762.762-4.174 11.234-7.734 16.408-7.728 11.232-13.027 14.765-16.674 11.117m670.61-2.589c-6.733-7.452-15.954-23.4-14.418-24.936.262-.262 2.093.757 4.07 2.264 5.501 4.197 5.51 2.018.015-3.561-2.696-2.738-4.56-4.977-4.144-4.977 1.396 0 15.136 9.75 17.815 12.641 5.577 6.02 7.852 10.452 7.852 15.298 0 5.32-1.254 7.06-5.084 7.06-1.837 0-3.763-1.195-6.107-3.789zm-691.604-7.404c-2.565-2.565-1.206-5.769 5.426-12.8 3.648-3.867 8.741-8.578 11.318-10.47 6.13-4.5 17.189-10.73 17.858-10.062.289.29.338.673.108.854-.229.18-2.104 1.584-4.166 3.119-5.018 3.733-5.213 6.613-.25 3.685 4.334-2.557 4.465-1.349.588 5.412-3.334 5.811-14.146 16.328-19.165 18.64-5.03 2.32-10.292 3.047-11.717 1.622m715.476.095c-7.366-1.733-20.148-13.012-24.572-21.685-2.918-5.72-2.66-6.474 1.39-4.084 4.963 2.929 4.767.048-.25-3.685a559 559 0 0 1-4.167-3.119c-.229-.18-.18-.565.109-.854.669-.669 11.727 5.562 17.858 10.063 2.576 1.891 7.67 6.602 11.317 10.47 5.008 5.308 6.633 7.735 6.633 9.905 0 1.698-.647 3.122-1.582 3.481-1.807.693-1.648.705-6.736-.492m-345.647-4.835c-1.804-3.371-1.137-7.41 2.465-14.926 1.925-4.017 3.5-8.706 3.5-10.422 0-2.295.294-2.823 1.116-2.002.821.821.787 3.329-.13 9.497-1.1 7.39-1.055 8.753.383 11.534.897 1.734 1.63 3.93 1.63 4.878 0 1.502-.297 1.444-2.314-.45-3.07-2.886-3.685-2.748-3.685.825 0 3.414-1.433 3.929-2.965 1.066m-65.098-8.642c-1.083-1.304-1.055-1.993.159-3.994 1.659-2.734 24.887-26.43 25.908-26.43 1.463 0 1.772 1.293.974 4.075-.957 3.338-.424 3.638 2.217 1.249 2.586-2.34 4.29-.462 2.239 2.467-1.667 2.38-4.434 2.99-4.434.977 0-.678-1.125.423-2.5 2.447s-2.5 4.079-2.5 4.568c0 1.955-7.52 10.373-11.796 13.205-5.057 3.35-8.303 3.803-10.267 1.436m90.328-1.65c-.561-.7-1.354-2.36-1.762-3.687s-1.398-3.984-2.2-5.905l-1.46-3.492-1.915 2.905c-1.053 1.598-1.918 3.917-1.922 5.155-.01 3.468-1.706 2.662-2.422-1.15-.648-3.457-.132-6.59 3.53-21.43 1.278-5.178 1.929-10.571 1.72-14.252-.184-3.257-.046-5.92.307-5.92 1.467 0 2.28 6.26 2.404 18.502.114 11.201.426 13.537 2.252 16.88 2.044 3.74 3.948 12.208 2.966 13.19-.263.263-.937-.095-1.498-.796m-480.734-1.824c1.375-2.225 15.325-10.458 27.465-16.21 17.866-8.463 25.167-10.703 36.761-11.276 10.533-.52 10.638-.415 1.997 1.99-3.16.88-7.233 2.905-9.051 4.502-3.491 3.065-34.364 16.697-43.703 19.297-8.086 2.251-14.295 3.033-13.47 1.697m889.469.391c-10.688-1.653-47.02-16.395-52.703-21.385-1.818-1.597-5.892-3.623-9.052-4.502-8.624-2.4-8.528-2.51 1.755-2.004 11.473.564 19.587 3.04 37 11.289 16.296 7.72 31.838 17.648 26.809 17.125-.72-.075-2.434-.31-3.81-.523m-824.33-5.147c-1.547-1.715-1.639-2.388-.594-4.36 4.002-7.558 9.197-11.793 19.965-16.274 16.204-6.743 22.6-8.006 26.416-5.215 1.708 1.25 1.618 1.39-1.263 1.966-2.97.594-7.132 5.085-5.876 6.34 1.116 1.117 5.375-.617 8.025-3.267 2.966-2.966 3.692-1.184.873 2.141-2.978 3.514-18.513 14.263-24.718 17.105-8.187 3.748-20.12 4.566-22.828 1.564m745.83.407c-6.027-1.906-10.155-4.222-19.5-10.94-8.989-6.461-11.913-9.283-11.967-11.547-.02-.848 1-.354 2.623 1.27 2.65 2.65 6.91 4.384 8.026 3.267 1.255-1.255-2.906-5.746-5.876-6.34-2.881-.576-2.972-.717-1.264-1.966 3.817-2.79 10.213-1.528 26.417 5.215 10.767 4.481 15.962 8.716 19.965 16.273 1.037 1.96.957 2.64-.5 4.25-1.364 1.508-3.036 1.903-7.83 1.85-3.351-.037-7.894-.636-10.094-1.332m-394.798-.233c-.769-.768 1.04-4.368 2.194-4.368.455 0 .611 1.125.349 2.5q-.707 3.708-2.543 1.869m79.587-11.586c-2.305-2.355-4.833-5.818-5.618-7.694l-1.427-3.413-1.307 2.413c-.72 1.326-1.597 3.987-1.952 5.912l-.644 3.5-1.288-4.5c-1.021-3.568-1.061-7.711-.192-20 .656-9.27.746-17.007.223-19.25-.807-3.463-.008-5.054 1.396-2.781.33.533 1.05 6.27 1.601 12.75.91 10.689 1.283 12.176 4.03 16.042 3.5 4.924 10.164 18.913 9.69 20.337-.178.531-2.208-.961-4.512-3.316m-103.848-2.276c-1.88-1.448-1.832-1.592 1.559-4.622 1.925-1.72 7.628-6.897 12.674-11.505s9.433-8.379 9.75-8.379.576 1.566.576 3.48c0 6.834-8.801 17.45-17.469 21.071-4.308 1.8-4.695 1.798-7.09-.045m-207.885-2.729c-.856-1.222-1.556-2.947-1.556-3.833 0-2.537-1.09-2.995-3.354-1.409-3.056 2.14-5.235 1.804-7.574-1.17-2.612-3.32-2.658-8.351-.106-11.596 2.39-3.037 3.886-10.769 2.085-10.769-1.987 0-7.051 5.691-7.051 7.923 0 1.142-.47 2.077-1.046 2.077-1.212 0-.34-6.155 1.414-9.977 2.044-4.454 10.517-5.37 12.077-1.306.366.955.363 4.558-.006 8.01-.587 5.475-.937 6.273-2.756 6.273-1.547 0-1.792.29-.955 1.128s.825 1.626-.05 3.061c-.973 1.596-.845 2.18.734 3.35 1.079.8 2.919 1.165 4.225.837 1.859-.466 2.551-.02 3.529 2.272.668 1.568 2.108 3.864 3.2 5.102 1.693 1.922 1.747 2.25.365 2.25-.89 0-2.318-1-3.174-2.223zm523.003.081c1.132-1.296 2.606-3.641 3.275-5.21.977-2.292 1.67-2.738 3.53-2.271 1.305.327 3.145-.037 4.224-.837 1.579-1.171 1.707-1.754.733-3.35-.874-1.435-.887-2.223-.05-3.061.838-.838.592-1.129-.955-1.129-1.818 0-2.169-.797-2.755-6.273-.37-3.451-.372-7.055-.01-8.01 1.56-4.064 10.033-3.148 12.077 1.307 1.754 3.821 2.626 9.976 1.413 9.976-.575 0-1.045-.934-1.045-2.077 0-2.232-5.065-7.923-7.051-7.923-1.802 0-.305 7.732 2.084 10.77 2.552 3.244 2.506 8.275-.106 11.596-2.368 3.01-4.518 3.31-7.712 1.072-2.054-1.438-2.274-1.419-2.778.25-1.241 4.112-3.12 6.82-4.972 7.163-1.916.356-1.914.307.093-1.993zm-549.674-8.328c-1.968-3.336-2.138-3.41-4.406-1.924-2.136 1.4-2.685 1.39-5.827-.1-1.973-.937-3.98-2.884-4.658-4.519-1.496-3.613-.484-10.095 2.089-13.365 2.491-3.168 2.455-6.316-.083-7.122q-5.13-1.629-8.07 4.847l-1.886 4.153-.022-4.115c-.028-5.284 2.869-9.086 7.6-9.974 6.41-1.202 10.444 2.958 10.672 11 .12 4.221-.714 5.316-2.758 3.62-2.304-1.913-3.245 1.528-1.075 3.927 1.615 1.784 1.592 1.944-.443 3.032-2.994 1.603-.98 3.833 4.214 4.663 3.245.52 4.161 1.177 5.004 3.596.632 1.813 2.24 3.487 4.148 4.317l3.116 1.356-2.784.04c-2.137.03-3.26-.767-4.831-3.432m574.73 2.036c1.908-.83 3.516-2.504 4.148-4.317.843-2.419 1.759-3.077 5.005-3.596 5.193-.83 7.208-3.06 4.213-4.663-2.034-1.088-2.057-1.248-.443-3.032 2.17-2.399 1.23-5.84-1.074-3.928-2.044 1.697-2.879.602-2.759-3.618.228-8.043 4.263-12.203 10.672-11 4.731.887 7.629 4.689 7.6 9.973l-.021 4.115-1.886-4.153q-2.94-6.476-8.07-4.847c-2.538.806-2.575 3.954-.083 7.122 2.572 3.27 3.585 9.752 2.088 13.365-.677 1.635-2.685 3.582-4.658 4.519-3.141 1.49-3.69 1.5-5.827.1-2.268-1.486-2.437-1.412-4.406 1.924-1.572 2.665-2.693 3.461-4.83 3.431l-2.784-.039zm-306.256-2.072c-.848-2.21 5.13-8.405 6.646-6.888.716.715.333 2.075-1.234 4.388-2.683 3.96-4.525 4.81-5.412 2.5m-291.242-3.126c-3.77-3.226-4.52-3.505-6.727-2.5-8.604 3.92-16.371-2.27-16.384-13.059-.004-3.13-.485-5.986-1.07-6.348-2.72-1.68-7.923 6.666-7.952 12.757-.011 2.487-.25 2.919-.984 1.782-2.318-3.586-.263-13.828 3.537-17.627 3.7-3.701 7.895-3.176 12.656 1.585 4.526 4.527 5.06 8.729 1.054 8.304-3.114-.33-2.897 2.358.253 3.149 2.524.633 3.359 2.94 1.483 4.1-2.438 1.507.503 2.61 5.227 1.96 4.837-.665 5.125-.561 9.142 3.293 2.281 2.189 5.048 4.474 6.148 5.078 1.982 1.088 1.981 1.098-.07 1.128-1.139.017-3.98-1.604-6.313-3.602M1014.6 351.4c1.1-.604 3.866-2.888 6.148-5.077 4.017-3.854 4.305-3.958 9.142-3.292 4.723.65 7.665-.454 5.226-1.962-1.875-1.158-1.04-3.465 1.484-4.099 3.15-.79 3.366-3.479.253-3.149-4.006.425-3.473-3.777 1.054-8.304 4.76-4.76 8.955-5.286 12.656-1.585 3.8 3.8 5.855 14.041 3.537 17.627-.735 1.137-.973.705-.985-1.782-.028-6.09-5.232-14.438-7.952-12.757-.585.362-1.066 3.218-1.07 6.348-.013 10.788-7.78 16.98-16.383 13.06-2.207-1.006-2.958-.727-6.727 2.5-2.334 1.997-5.175 3.618-6.313 3.6-2.051-.03-2.052-.04-.07-1.127m-334.5-2.166c0-1.65 4.183-5.675 5.898-5.675.697 0 1.104.338.903.75-2.494 5.12-3.392 6.25-4.962 6.25-1.011 0-1.84-.596-1.84-1.325m-23.25-5.39c-1.513-.23-2.75-.86-2.75-1.399 0-3.899 17.604-12.984 21.042-10.86.963.596.03 2.054-3.525 5.51-3.973 3.861-10.536 7.952-11.735 7.315-.155-.082-1.52-.338-3.032-.567m100.595-3.881c-1.084-2.517-1.889-8.008-2.264-15.453-.445-8.84-1.015-12.21-2.43-14.366-1.288-1.961-1.44-2.692-.5-2.405.742.228 2.973 3.626 4.958 7.553s6.142 10.024 9.237 13.55c5.368 6.113 9.421 13.283 8.2 14.505-1.723 1.723-13.01-6.43-14.81-10.699-1.008-2.387-1.122-2.428-1.46-.52-.203 1.138.077 4.05.622 6.473 1.28 5.694.578 6.31-1.553 1.362m-74.345.386c0-.814.9-2.294 2-3.29 1.1-.995 2-1.473 2-1.062 0 .41-.9 1.891-2 3.29-1.287 1.636-2 2.014-2 1.062m8-.635c0-2.037 3.644-5.844 4.64-4.847.346.345.064 1.993-.627 3.66-1.38 3.332-4.013 4.11-4.013 1.187m5-.5c0-1.696 3.787-5.2 4.668-4.32 1.065 1.065-1.49 5.665-3.147 5.665-.837 0-1.521-.605-1.521-1.345m-75.5-.86c-2.394-1.371-7.462-6.923-7.484-8.2-.01-.497.771-.272 1.734.5 4.808 3.86 6.33 4.178 8.819 1.84l2.357-2.214-1.977-2.513c-2.432-3.09-1.854-3.955 1.209-1.81 4.62 3.236 8.558 1.212 6.26-3.217-1.92-3.701-.125-5.193 2.867-2.382 2.12 1.992 2.492 2.046 4.482.652 1.697-1.189 2.04-2.165 1.576-4.485-.666-3.328.283-3.843 2.238-1.216 1.846 2.482 4.986.397 4.73-3.14-.206-2.859 1.109-3.469 2.42-1.124.7 1.25 1.425 1.064 4.55-1.16 2.046-1.455 3.719-3.023 3.719-3.485 0-.463.46-.84 1.022-.84s5.396-2.926 10.742-6.5c8.793-5.88 12.236-7.55 12.236-5.93 0 .313-1.375 2.567-3.056 5.01-5.01 7.281-6.152 11.006-5.78 18.843l.336 7.076-7 .028c-9.942.04-19.122 3.544-30.413 11.607-5.75 4.107-11.382 5.067-15.587 2.66m90.5-5.037c0-1.79 4.762-6.328 5.679-5.412.796.796-2.728 5.837-4.49 6.425-.654.218-1.19-.238-1.19-1.013m-5.436-1.654c-.743-1.201 3.06-5.806 4.012-4.858.925.921-1.172 5.754-2.496 5.754-.53 0-1.211-.403-1.516-.896m71.857-9c-2.243-1.019-5.008-3.034-6.144-4.478-2.7-3.434-3.427-3.315-2.764.45 1.4 7.95-4.615-2.664-8.938-15.773-1.488-4.508-3.608-9.346-4.712-10.75-1.105-1.404-1.604-2.553-1.11-2.553 1.366 0 4.676 3.92 8.2 9.713 2.362 3.88 4.626 6.027 8.86 8.4 9.762 5.47 13.707 9.967 12.603 14.367-.751 2.99-.778 2.993-5.995.624m-57.45-8.067c4.2-5.304 10.029-16.625 10.029-19.48 0-1.506-1.206-3.12-3.493-4.678-1.922-1.308-3.497-2.734-3.5-3.17-.004-.434.984-2.13 2.195-3.768 2.038-2.757 2.109-3.332.95-7.71-1.776-6.71-5.637-12.113-9.969-13.952-2.026-.86-3.115-1.765-2.42-2.01 1.719-.605 12.626 4.693 18.663 9.064 5.976 4.327 13.339 13.899 14.193 18.45 1.887 10.06-1.604 14.312-23.04 28.06-6.516 4.18-7.4 3.981-3.608-.806m43.269-23.392c-2.209-2.396-4.545-5.345-5.192-6.554s-2.61-3.072-4.362-4.14c-2.333-1.423-2.688-1.944-1.325-1.947 1.024 0 4.032 1.814 6.686 4.036 3.873 3.243 5.873 4.158 10.139 4.64 2.922.33 6.664 1.325 8.314 2.21l3 1.61-7.25.294c-7.282.295-8.27.786-6.05 3.006.66.66.942 1.2.627 1.2s-2.38-1.96-4.587-4.355m-71.605-.153c-.319-.83-1.621-1.984-2.895-2.564s-3.762-3.174-5.528-5.762c-2.614-3.83-3.212-5.688-3.212-9.976 0-7.24 2.73-12.314 7.877-14.634 3.634-1.64 4.8-1.695 12.005-.574 9.325 1.45 11.135 2.78 14.767 10.855 2.962 6.584 3.484 12.46 1.3 14.643-1.28 1.28-21.15 9.459-23.092 9.505-.354.01-.904-.664-1.222-1.493m7.05-12.666c2.68-2.517 2.987-6.42.758-9.603-1.855-2.649-3.49-2.769-8.077-.592-6.272 2.976-6.548 6.633-.79 10.43 3.76 2.477 5.269 2.434 8.11-.235m-8.485-2.026c-3.022-3.021-.215-7.161 4.49-6.622 5.025.576 3.995 7.822-1.113 7.822-1.197 0-2.717-.54-3.377-1.2m-15.7 9.657c-1.1-.728-4.326-2.233-7.169-3.344l-5.168-2.02-1.283 3.204-1.283 3.203-.35-4.112c-.268-3.16-.894-4.361-2.704-5.186-2.109-.96-2.52-.74-3.927 2.112-1.52 3.084-1.575 3.106-1.709.686-.076-1.375-.081-3.175-.013-4 .07-.825-1.337-2.328-3.125-3.341-3.024-1.714-3.321-1.725-4.26-.164-3.032 5.043-3.477 5.115-2.879.465.548-4.26.408-4.621-2.251-5.833-2.634-1.2-3-1.09-5.134 1.54l-2.299 2.833.59-4c.544-3.681.35-4.134-2.44-5.684-3-1.668-3.054-1.655-5.563 1.327-2.838 3.372-3.23 2.46-1.117-2.596 1.28-3.066 1.244-3.544-.382-5.015-1.684-1.524-2.025-1.36-5.416 2.6-4.224 4.936-4.497 4.282-1.096-2.632 1.353-2.75 2.464-5.76 2.469-6.69.013-2.388 1.46-3.003 5.347-2.274 2.529.474 3.766 1.46 4.951 3.945 1.136 2.383 3.124 4.042 7.083 5.916 3.027 1.432 6.205 2.603 7.063 2.603s3.302-1.575 5.433-3.5c3.53-3.188 4.414-3.5 9.93-3.5 5.91 0 21.312 1.786 22.094 2.563.216.214-.08.962-.659 1.663-1.995 2.418-5.233 13.724-5.233 18.275 0 2.51.68 6.193 1.513 8.185 1.772 4.242 1.662 4.543-1.013 2.771m72.786-13.907c-5.29-1.654-13.286-6.287-13.286-7.699 0-.625.722-.764 1.75-.335 6.636 2.769 7.145 2.825 13.95 1.541 6.41-1.21 7.228-1.157 11.354.736l4.446 2.039-3.384.084c-4.122.102-11.116 2.106-11.116 3.185 0 .431 1.912.956 4.25 1.167 4.371.395 5.006.362.25.49-2.2.06-5.897-.484-8.214-1.209zm-111.149-19.586c-1.85-1.14-3.185-2.249-2.968-2.466s2.63-.075 5.362.316c3.413.489 4.969 1.177 4.969 2.199 0 2.28-3.621 2.255-7.363-.05z" style="fill:#00426a;fill-opacity:1"/><path d="M834.052 546.738c-1.645-.086-3.343.46-3.684 1.494-.249.757.377.972 1.774.606 1.29-.337 2.516-.004 3.043.83 1.164 1.839 1.151 3.157-.025 2.43-.516-.32-1.303.038-1.75.794-.446.757-1.825 1.907-3.063 2.557-2.455 1.29-2.94 4.02-1.05 5.91 2.014 2.015 3.613 1.369 6.263-2.531 2.807-4.132 3.318-9.375 1.092-11.223-.646-.536-1.614-.815-2.601-.867zm28.836 7.389c-1.308.094-8.372 3.862-10.24 5.566-.588.538-.507.867.21.867 1.652 0 10.239-5.315 10.239-6.337 0-.076-.074-.106-.209-.096m-14.516 4.512c-1.555-.046-3.777.637-6.564 2.042-5.192 2.618-7.865 5.314-7.139 7.204.434 1.135 1.394 1.244 4.594.525 7.538-1.694 12.614-5.379 11.479-8.338-.354-.92-1.16-1.398-2.37-1.433m-1.994 12.935c-5.486.016-9.614 1.758-10.096 4.26-.286 1.487.547 1.724 6.051 1.724 6.972 0 10.506-1.626 9.46-4.353-.466-1.213-1.89-1.643-5.415-1.63m18.084.719c-2.964-.11-8.995.575-9.814 1.36-.577.55.603.902 3 .892 4.43-.015 8.449-.897 8.449-1.854 0-.238-.647-.362-1.635-.398M406.008 319.768a11.2 11.2 0 0 0-2.29.203c-4.73.888-7.627 4.689-7.599 9.973l.022 4.115 1.886-4.152q2.94-6.477 8.07-4.848c2.539.806 2.574 3.955.083 7.123-2.573 3.27-3.584 9.752-2.088 13.365.678 1.635 2.685 3.58 4.658 4.518 3.142 1.49 3.69 1.501 5.826.101 2.268-1.486 2.438-1.412 4.406 1.924 1.571 2.665 2.693 3.462 4.83 3.432l2.786-.041-3.118-1.356c-1.908-.83-3.514-2.503-4.146-4.316-.843-2.42-1.76-3.076-5.004-3.596-5.194-.83-7.209-3.06-4.215-4.664 2.035-1.088 2.058-1.247.443-3.031-2.17-2.4-1.23-5.84 1.075-3.928 2.044 1.696 2.877.602 2.757-3.619-.199-7.037-3.313-11.102-8.382-11.203m-34.227 1.734q-2.72 0-5.146 2.43c-3.8 3.799-5.855 14.04-3.537 17.627.734 1.137.973.706.984-1.781.029-6.091 5.231-14.438 7.951-12.758.585.362 1.066 3.217 1.07 6.347.013 10.79 7.78 16.981 16.383 13.061 2.207-1.005 2.959-.726 6.729 2.5 2.333 1.998 5.173 3.619 6.312 3.602 2.051-.03 2.053-.041.07-1.13-1.1-.603-3.867-2.888-6.148-5.077-4.017-3.854-4.306-3.958-9.143-3.293-4.724.65-7.664-.452-5.226-1.96 1.876-1.16 1.042-3.466-1.482-4.099-3.15-.791-3.368-3.48-.254-3.15 4.006.425 3.473-3.776-1.053-8.303-2.678-2.678-5.177-4.017-7.51-4.016m63.861 6.18c-2.843.01-6.028 1.395-7.177 3.9-1.754 3.822-2.626 9.977-1.414 9.977.576 0 1.047-.934 1.047-2.076 0-2.232 5.063-7.924 7.05-7.924 1.801 0 .304 7.732-2.086 10.77-2.552 3.244-2.504 8.275.108 11.595 2.339 2.974 4.518 3.31 7.574 1.17 2.264-1.586 3.354-1.127 3.354 1.41 0 .886.698 2.61 1.554 3.832h.002c.856 1.223 2.284 2.223 3.174 2.223 1.382 0 1.328-.328-.365-2.25-1.092-1.238-2.531-3.534-3.2-5.102-.977-2.292-1.67-2.737-3.529-2.271-1.306.328-3.145-.038-4.224-.838-1.58-1.17-1.708-1.754-.735-3.35.875-1.435.886-2.222.05-3.06-.838-.838-.593-1.13.954-1.13 1.82 0 2.171-.796 2.758-6.27.369-3.453.372-7.057.006-8.012-.683-1.778-2.689-2.602-4.9-2.594zm185.322-80.875c-2.047-.022-2.863.772-2.873 2.563-.005.93-1.116 3.94-2.469 6.69-3.4 6.913-3.128 7.568 1.096 2.632 3.391-3.96 3.732-4.124 5.416-2.6 1.626 1.471 1.661 1.948.381 5.014-2.113 5.056-1.72 5.97 1.117 2.598 2.51-2.982 2.563-2.996 5.563-1.328 2.79 1.55 2.985 2.002 2.441 5.683l-.59 4 2.299-2.832c2.134-2.63 2.499-2.74 5.133-1.54 2.659 1.211 2.8 1.573 2.252 5.833-.598 4.65-.153 4.578 2.879-.465.939-1.56 1.235-1.55 4.26.164 1.787 1.013 3.194 2.515 3.124 3.34-.068.825-.062 2.625.014 4 .134 2.42.19 2.399 1.71-.685 1.406-2.852 1.816-3.072 3.925-2.112 1.81.825 2.437 2.026 2.705 5.186l.35 4.111 1.283-3.203 1.283-3.203 5.168 2.02c2.843 1.11 6.068 2.615 7.168 3.343 2.675 1.772 2.786 1.473 1.014-2.77-.833-1.991-1.514-5.675-1.514-8.185 0-4.55 3.24-15.857 5.234-18.275 3.24-4.378-18.94-4.164-21.435-4.227-5.516 0-6.4.312-9.93 3.5-2.13 1.925-4.575 3.5-5.433 3.5s-4.036-1.17-7.063-2.601c-3.959-1.874-5.948-3.533-7.084-5.916-1.185-2.485-2.422-3.472-4.951-3.946-.972-.182-1.79-.281-2.473-.289m12.85 3.155c-.3.01-.49.04-.545.095-.217.217 1.117 1.327 2.967 2.467v-.002c3.742 2.305 7.363 2.33 7.363.05 0-1.021-1.556-1.71-4.969-2.198-2.049-.294-3.918-.446-4.816-.412m47.61 42.585c-1.381.062-4.967 2.104-11.561 6.514-5.346 3.574-10.179 6.5-10.74 6.5-.563 0-1.024.377-1.024.84s-1.673 2.03-3.719 3.484c-3.125 2.224-3.849 2.41-4.549 1.16-1.31-2.344-2.628-1.733-2.422 1.126.256 3.537-2.882 5.62-4.728 3.138-1.955-2.627-2.904-2.111-2.238 1.217.464 2.32.12 3.295-1.576 4.484-1.99 1.394-2.363 1.34-4.483-.652-2.992-2.811-4.787-1.318-2.867 2.383 2.298 4.429-1.64 6.453-6.26 3.217-3.063-2.145-3.64-1.28-1.209 1.81l1.977 2.512-2.356 2.215c-2.489 2.338-4.012 2.02-8.82-1.84-.963-.772-1.744-.997-1.734-.5.022 1.277 5.09 6.828 7.484 8.2 4.205 2.406 9.838 1.446 15.588-2.661 11.29-8.063 20.47-11.566 30.412-11.606l7-.029-.336-7.076c-.372-7.837.771-11.56 5.781-18.842 1.681-2.443 3.055-4.697 3.055-5.01 0-.405-.216-.604-.676-.584" style="fill:#000;fill-opacity:1"/><path d="M1045.654 420.055c-.875.003-1.225 1.14-1.162 3.363.085 2.964-.28 3.695-1.97 3.937-1.362.194-2.46-.495-3.184-2-2.044-4.244-1.422 9.087.797 17.094 2.713 9.79 3.645 11.443 15.09 26.768 6.563 8.789 10.746 13.486 12.6 14.146 2.485.885 5.36.77 9.023-.357 2.066-.637 1.493-3.037-4.149-17.37-7.488-19.018-12.93-29.67-19.49-38.156-3.874-5.009-6.276-7.43-7.555-7.425m-674.23-.075q-.105.004-.22.022c-2.53.351-12.52 14.025-17.141 23.465-5.826 11.898-15.16 35.847-14.766 37.89.18.936 1.652 1.972 3.312 2.327 1.643.352 3.034.692 3.09.757.055.065 1.534-.384 3.287-.994 2.382-.83 5.671-4.436 13-14.25 11.428-15.304 12.362-16.957 15.075-26.746 2.218-8.007 2.838-21.34.794-17.096-.725 1.506-1.82 2.194-3.181 2-1.691-.242-2.057-.971-1.97-3.935.074-2.627-.226-3.485-1.28-3.44m-24.262-11.947c-3.619.219-12.976 7.762-22.062 18.045-3.576 4.047-12.075 13.348-18.887 20.67-12.25 13.165-28.172 33.54-41.986 53.725-5.147 7.52-7.127 11.294-7.127 13.582 0 1.744.3 3.47.666 3.838 1.71 1.71 4.91-.061 17.398-9.631 7.39-5.663 17.021-12.75 21.404-15.75 10.5-7.185 19.809-16.007 31.069-29.453 5.066-6.05 11.93-14.063 15.254-17.805 5.897-6.64 12.148-17.36 15.722-26.967.976-2.625 1.504-5.043 1.174-5.373s-2.721.804-5.314 2.522c-5.12 3.392-8.454 3.937-10.32 1.687-1.479-1.78.012-4.995 3.077-6.635 1.38-.738 1.75-1.45 1.092-2.107-.203-.204-.482-.318-.828-.346a3 3 0 0 0-.332-.002" style="fill:#d45500"/><path d="M347.162 408.033a2.4 2.4 0 0 1 .332.002c.346.028.625.142.828.346.657.657.287 1.37-1.092 2.107-3.065 1.64-4.556 4.854-3.078 6.635 1.867 2.25 5.2 1.705 10.32-1.687 2.594-1.718 4.984-2.853 5.315-2.522.33.33-.198 2.748-1.174 5.373-3.574 9.606-9.825 20.328-15.722 26.967-3.323 3.742-10.188 11.755-15.254 17.805-11.26 13.446-20.569 22.268-31.069 29.453-4.383 3-14.014 10.087-21.404 15.75-12.489 9.57-15.687 11.34-17.398 9.63-.366-.366-.666-2.093-.666-3.837 0-2.288 1.98-6.062 7.127-13.582 13.814-20.185 29.736-40.56 41.986-53.725 6.812-7.322 15.31-16.623 18.887-20.67 9.086-10.283 18.443-17.826 22.062-18.045m24.262 11.947c1.054-.045 1.354.813 1.28 3.44-.087 2.964.279 3.693 1.97 3.935 1.36.194 2.456-.494 3.181-2 2.044-4.244 1.424 9.09-.794 17.096-2.713 9.79-3.647 11.442-15.075 26.746-7.329 9.814-10.618 13.42-13 14.25-1.753.61-3.232 1.06-3.287.994-.056-.065-1.447-.405-3.09-.757-1.66-.355-3.131-1.39-3.312-2.327-.393-2.043 8.94-25.992 14.765-37.89 4.622-9.44 14.611-23.114 17.141-23.465q.115-.016.22-.022m698.661-11.962c-.521-.034-.929.085-1.207.363-.658.657-.286 1.37 1.094 2.107 3.065 1.641 4.554 4.855 3.076 6.635-1.867 2.249-5.199 1.705-10.319-1.687-2.594-1.718-4.985-2.852-5.316-2.522s.197 2.748 1.174 5.373c3.574 9.606 9.827 20.327 15.723 26.967 3.324 3.742 10.188 11.755 15.255 17.805 11.26 13.446 20.565 22.268 31.065 29.453 4.383 2.999 14.04 10.104 21.457 15.789 14.807 11.348 17.307 12.223 17.81 6.24.25-2.964-.833-5.17-6.876-14-13.397-19.575-29.631-40.444-41.043-52.764-6.257-6.755-14.752-16.047-18.877-20.65-10.105-11.275-19.367-18.876-23.016-19.11m14.08-19.458c-1.998 0-1.057 1.497 2.438 3.877 4.05 2.758 7.498 7.87 7.498 11.12 0 2.043-.355 2.205-3.625 1.674-1.993-.323-4.39-1.28-5.328-2.128-1.826-1.653-4.047-2.06-4.047-.74 0 1.742 6.55 11.01 11.802 16.697 6.731 7.287 30.967 29.517 40.973 37.582 22.906 18.463 61.144 42.279 71.984 44.836 4.984 1.175 9.998 1.282 10.649.228.957-1.547-5.54-10.508-13.791-19.025-16.192-16.711-81.34-72.577-98.018-84.051-4.825-3.32-18.589-10.07-20.535-10.07m-751.131 0c-1.945 0-15.709 6.748-20.535 10.068-16.678 11.475-81.825 67.34-98.018 84.053-8.498 8.77-14.74 17.486-13.714 19.146 1.206 1.953 11.768-.275 20.06-4.23 14.427-6.881 45.42-27.193 62.494-40.955 10.006-8.065 34.243-30.295 40.973-37.582 5.254-5.687 11.807-14.955 11.807-16.698 0-1.319-2.221-.912-4.047.74-.94.849-3.337 1.807-5.33 2.131-3.271.53-3.623.367-3.623-1.675 0-3.25 3.446-8.363 7.496-11.121 3.495-2.38 4.435-3.877 2.437-3.877m764.565-20.772q.995 0 2.75.285c11.489 1.868 21.729 6.726 50.904 24.147 21.815 13.026 36.383 23.875 49 36.492 8.395 8.395 20.919 24.235 20.977 26.531.036 1.476-1.71 1.191-10.631-1.746-4.95-1.629-16.265-6.556-25.143-10.95s-16.46-7.99-16.85-7.99c-2.527 0-54.11-33.08-60.99-39.115-4.27-3.743-11.517-12.543-11.517-13.982 0-.506 2.137.17 4.75 1.502 3.362 1.715 5.723 2.265 8.08 1.885 7.116-1.15 4.535-6.411-5.81-11.848-6.538-3.435-8.398-5.21-5.52-5.21m-778-.001q-.995 0-2.75.285c-11.49 1.867-21.732 6.726-50.907 24.147-22.138 13.219-36.543 23.991-49.343 36.898-9.64 9.72-21.951 25.657-20.75 26.858.773.772-.122.98 10.732-2.514 5.288-1.703 14.431-5.553 20.316-8.555 5.886-3.002 13.793-6.821 17.57-8.49 3.779-1.669 10.651-5.27 15.274-8 13.045-7.705 45.544-29.206 49.84-32.975 4.27-3.743 11.518-12.542 11.518-13.982 0-.506-2.138.17-4.75 1.502-3.363 1.715-5.723 2.265-8.08 1.885-7.116-1.15-4.537-6.411 5.81-11.848 6.538-3.435 8.398-5.21 5.52-5.21m12.23-14.013c-1.356.026-3.337.116-5.97.246-11.595.573-18.896 2.815-36.762 11.278-12.14 5.752-26.09 13.984-27.465 16.209h-.002c-.825 1.336 5.385.554 13.47-1.697 9.34-2.6 40.213-16.232 43.704-19.297 1.818-1.597 5.89-3.622 9.05-4.502 6.481-1.804 8.043-2.314 3.975-2.237m753.444-.005c-3.958-.07-2.395.442 4.072 2.242 3.16.879 7.235 2.905 9.053 4.502 5.682 4.99 42.011 19.73 52.7 21.384a102 102 0 0 0 3.81.524c5.028.523-10.513-9.405-26.81-17.125-17.412-8.25-25.526-10.725-37-11.29-2.57-.126-4.503-.214-5.824-.237z" style="fill:#d45500"/><path d="M1085.272 353.77c1.32.023 3.254.111 5.824.238 11.473.564 19.587 3.04 37 11.289 16.296 7.72 31.837 17.648 26.808 17.125-.72-.075-2.433-.31-3.808-.524-10.69-1.653-47.019-16.395-52.701-21.384-1.818-1.597-5.893-3.623-9.053-4.502-6.467-1.8-8.03-2.312-4.072-2.242zm-32.049-12.108c.126.677.375.64.808 0zm-311.362 308.05c-.542.022-.743 2.55-.293 7.345.735 7.85.22 9.382-1.596 4.75l-1.078-2.75-.998 2.5c-1.338 3.353-.323 18.747 2.175 33 1.108 6.325 2.018 13.379 2.022 15.676.005 3.153.435 4.277 1.756 4.584 4.058.941 4.552-1.23 4.635-20.445.063-14.398-.306-19.917-1.721-25.813-.99-4.125-2.321-10.088-2.96-13.25-.767-3.8-1.48-5.614-1.942-5.596z" style="fill:#d45500"/><path d="M741.861 649.712c.463-.02 1.175 1.796 1.943 5.595.638 3.162 1.969 9.125 2.959 13.25 1.415 5.896 1.784 11.415 1.72 25.813-.082 19.215-.576 21.386-4.634 20.445-1.321-.307-1.751-1.43-1.756-4.584-.004-2.297-.914-9.35-2.022-15.676-2.498-14.253-3.513-29.647-2.175-33l.998-2.5 1.078 2.75c1.816 4.632 2.33 3.1 1.596-4.75-.45-4.794-.249-7.323.293-7.345zm-66.548 0c-.463.043-1.163 1.859-1.917 5.593-.64 3.163-1.971 9.126-2.961 13.25-2.18 9.082-2.517 42.875-.453 45.362.655.789 2.074 1.202 3.154.92 1.55-.406 1.964-1.384 1.969-4.647.004-2.274.914-9.31 2.023-15.635 2.498-14.252 3.512-29.646 2.174-33l-.996-2.5-1.078 2.75c-1.816 4.633-2.332 3.1-1.596-4.75.456-4.863.241-7.395-.318-7.343" style="fill:#d45500"/><path d="M675.313 649.712c.56-.052.775 2.48.319 7.343-.736 7.85-.22 9.383 1.596 4.75l1.078-2.75.996 2.5c1.338 3.354.324 18.748-2.174 33-1.109 6.325-2.02 13.361-2.023 15.635-.005 3.263-.42 4.24-1.97 4.647-1.08.282-2.498-.131-3.153-.92-2.064-2.487-1.726-36.28.453-45.362.99-4.124 2.322-10.087 2.96-13.25.755-3.734 1.455-5.55 1.919-5.593m77.984-11.127c-.337 0-.143.31.55 1.044 1.536 1.628 1.66 9.556.165 10.481-1.793 1.107-3.108-1.097-3.68-6.17-.43-3.82-.699-4.357-1.332-2.648-1.343 3.632-.282 27.91 1.979 45.263 1.183 9.075 2.549 19.822 3.035 23.881.487 4.058 1.451 7.728 2.144 8.156 2.175 1.343 3.875-.097 5.18-4.388 1.733-5.701 1.352-43.778-.58-57.893-1.465-10.71-3.723-16.65-6.67-17.55-.376-.115-.638-.178-.791-.176m-89.398 0c.337 0 .141.31-.553 1.046-1.535 1.627-1.658 9.555-.162 10.479 1.792 1.108 3.107-1.096 3.68-6.17.435-3.869.693-4.372 1.343-2.617 1.227 3.32.218 29.424-1.595 41.232-.887 5.775-2.02 15.06-2.516 20.631-1.08 12.147-1.736 15.056-3.559 15.756-.76.291-2.044-.133-2.851-.941-2.41-2.41-3.101-9.842-2.875-30.946.325-30.313 3.143-46.722 8.295-48.295.376-.114.64-.176.793-.175m-17.291-8.034q-.705.044-3.41 6.092c-4.327 9.675-6.062 18.238-6.083 30.031-.028 15.363 4.253 34.953 8.768 40.131 2.157 2.473 5.08 2.214 5.64-.5 2.369-11.475 2.513-59.773.2-66.75-.913-2.756-1.517-3.648-1.557-2.304-.069 2.244-4.488 8.211-5.404 7.298-.28-.278.152-3.365.959-6.86q1.659-7.186.887-7.138m123.871-.388c1.038-.08 6.621 13.303 8.132 19.715 3.785 16.047-.45 49.073-7.296 56.927-2.157 2.473-5.083 2.214-5.643-.5-2.368-11.474-2.511-59.772-.2-66.75.915-2.756 1.518-3.65 1.56-2.304.067 2.244 4.487 8.213 5.404 7.3.28-.278-.154-3.365-.961-6.86-.808-3.497-1.313-6.826-1.123-7.396q.043-.13.127-.13zm18.318-23.173c.05-.01.106.024.168.089 1.843 1.956 8.941 23.17 10.197 30.478 1.453 8.451 1.861 38.01.625 45.246-1.45 8.496-7.993 13.427-11.941 9.004-3.872-4.338-6.776-24.968-7.379-52.406-.49-22.334.053-25.797 3.115-19.875 1.676 3.242 2.224 3.503 4.42 2.113 1.101-.698 1.256-2.457.72-8.213-.37-3.992-.336-6.383.075-6.435m-160.418-.001c-.045 0-.094.033-.146.089-1.844 1.956-8.943 23.17-10.2 30.478-1.452 8.451-1.86 38.01-.625 45.246.454 2.659 1.924 6.068 3.34 7.75 2.852 3.39 6.255 3.884 8.602 1.254 3.872-4.338 6.776-24.968 7.379-52.406.49-22.334-.052-25.796-3.114-19.875-1.677 3.242-2.224 3.503-4.42 2.113-1.102-.698-1.257-2.457-.722-8.213.378-4.062.337-6.465-.094-6.435m-10.723-20.434c-3.399 0-12.45 15.488-17.199 29.428-5.14 15.09-7.221 36.38-4.478 45.822.759 2.612 1.928 4.75 2.6 4.75 3.11 0 12.586-20.351 17.107-36.738 1.249-4.53 2.763-11.731 3.363-16s1.328-9.225 1.617-11.012c.655-4.064-.915-4.238-2.553-.283-1.648 3.978-3.755 5.692-5.205 4.242-1.585-1.586.89-12.49 3.815-16.799 1.663-2.45 1.926-3.41.933-3.41m181.901-.058c-.767-.014-.651 1.156.916 3.464 2.925 4.31 5.401 15.216 3.816 16.801-1.45 1.452-3.557-.263-5.205-4.242-1.638-3.955-3.208-3.782-2.553.283.288 1.787 1.016 6.742 1.616 11.012 2.119 15.068 9.629 37.26 16.168 47.777 1.696 2.728 3.6 4.957 4.232 4.957 3.93 0 5.117-19.286 2.16-35.068-2.793-14.901-10.657-34.082-17.129-41.774-1.802-2.141-3.301-3.2-4.021-3.212zm2.547-20.858q.233.008.576.074c2.565.494 13.943 14.789 22.473 28.235 7.983 12.583 12.93 24.502 13.234 31.886.318 7.73-1.83 7.358-8.553-1.482-7.064-9.293-15.944-23.947-20.98-34.627-3.877-8.222-4.258-10.66-1.28-8.19 1.3 1.08 1.524.872 1.524-1.423 0-3.183-1.224-5.697-5.313-10.912-2.076-2.65-2.578-3.5-1.824-3.559q.065-.005.143-.002m-187.399-.084c-3.757 0-25.48 30.572-31.32 44.078-3.56 8.236-5.901 17.88-4.945 20.37.328.855 1.237 1.552 2.021 1.552 3.197 0 20.151-25.438 27.881-41.83 3.876-8.222 4.26-10.66 1.281-8.19-1.3 1.08-1.525.872-1.525-1.423 0-3.167 1.224-5.699 5.228-10.807 2.204-2.812 2.55-3.75 1.38-3.75" style="fill:#d45500"/><path d="M614.706 565.557c1.171 0 .825.938-1.379 3.75-4.004 5.108-5.228 7.64-5.228 10.807 0 2.295.224 2.504 1.525 1.424 2.978-2.47 2.595-.033-1.281 8.19-7.73 16.391-24.684 41.83-27.88 41.83-.785 0-1.694-.698-2.022-1.554-.956-2.49 1.385-12.133 4.945-20.369 5.84-13.506 27.563-44.078 31.32-44.078m186.02-19.567c-.405.013-.63.161-.63.468 0 .419 1.203 1.4 2.67 2.18 2.575 1.37 8.33 8.327 8.33 10.07 0 1.662-1.887.808-4.921-2.227-1.693-1.692-3.078-2.571-3.078-1.951 0 3.585 6.924 12.472 24.367 31.277 5.484 5.912 10.358 10.75 10.832 10.75 2.366 0 1.586-3.831-2.49-12.234-2.472-5.096-5.463-11.364-6.647-13.928-2.882-6.237-8.91-12.914-16.629-18.422-4.913-3.506-10.05-6.034-11.804-5.982m-184.258-.001c-1.754-.05-6.89 2.477-11.803 5.983-7.719 5.508-13.747 12.185-16.629 18.422-1.185 2.564-4.177 8.832-6.648 13.928-2.472 5.095-4.238 9.933-3.924 10.75.313.817.959 1.484 1.434 1.484 1.989 0 30.876-32.54 33.652-37.906 2.422-4.685 1.828-5.528-1.53-2.17-3.033 3.034-4.923 3.888-4.923 2.227 0-1.743 5.757-8.7 8.33-10.07 1.469-.78 2.67-1.761 2.67-2.18 0-.307-.224-.455-.629-.467" style="fill:#d45500"/><path d="M580.142 551.739c-.987.052-1.956.33-2.602.865-2.227 1.848-1.716 7.09 1.092 11.223 2.65 3.9 4.249 4.546 6.264 2.531 1.89-1.89 1.407-4.62-1.049-5.91-1.238-.65-2.615-1.8-3.062-2.557-.446-.755-1.233-1.114-1.75-.795-1.176.728-1.19-.59-.026-2.43.527-.83 1.752-1.166 3.043-.83 1.396.367 2.023.152 1.774-.605-.341-1.034-2.039-1.578-3.684-1.492m-28.719 7.428c-.785.046.47 1.413 3.924 3.576 2.337 1.464 4.901 2.695 5.7 2.738 1.96.105.56-1.076-5.2-4.383-2.395-1.375-3.887-1.963-4.424-1.931m14.608 4.629c-1.535.058-2.434.78-2.434 2.156 0 2.58 4.344 5.62 10.166 7.115 4.003 1.027 4.97 1.007 5.629-.125 1.047-1.8-1.63-4.55-7.123-7.32-2.537-1.279-4.704-1.885-6.238-1.826m1.783 12.777c-5.423-.016-7.462 2.238-4.19 4.63 1.102.807 4.445 1.356 8.237 1.356 5.505 0 6.336-.238 6.049-1.726-.481-2.5-4.61-4.243-10.096-4.26m-17.658.787c-2.542.146-3.013.803-.309 1.51.962.252 3.751.51 6.2.574 6.22.162 3.871-1.615-2.7-2.043-1.266-.082-2.344-.09-3.191-.04m461.031-257.593c-5.069.1-8.183 4.166-8.383 11.204-.12 4.22.714 5.316 2.758 3.619 2.304-1.912 3.244 1.528 1.074 3.927-1.614 1.784-1.59 1.944.444 3.032 2.995 1.603.98 3.834-4.213 4.664-3.246.519-4.163 1.176-5.006 3.595-.632 1.813-2.239 3.487-4.147 4.317l-3.115 1.355 2.783.04c2.137.03 3.258-.765 4.83-3.43 1.97-3.336 2.139-3.41 4.407-1.924 2.137 1.4 2.685 1.388 5.826-.102 1.973-.937 3.981-2.882 4.658-4.517 1.497-3.613.484-10.096-2.088-13.366-2.492-3.168-2.454-6.317.084-7.123q5.13-1.629 8.07 4.848l1.885 4.152.022-4.115c.03-5.284-2.868-9.085-7.6-9.972a11.2 11.2 0 0 0-2.289-.204m34.229 1.735c-2.333 0-4.83 1.338-7.508 4.015-4.527 4.527-5.061 8.728-1.055 8.303 3.113-.33 2.898 2.36-.252 3.15-2.524.635-3.36 2.94-1.484 4.098 2.439 1.508-.504 2.613-5.227 1.963-4.837-.666-5.124-.563-9.14 3.291-2.282 2.19-5.049 4.474-6.149 5.078-1.982 1.087-1.98 1.097.07 1.127 1.138.018 3.979-1.602 6.313-3.6 3.769-3.226 4.52-3.505 6.726-2.5 8.603 3.92 16.37-2.272 16.383-13.06 0-3.13.485-5.986 1.07-6.348 2.72-1.68 7.924 6.668 7.952 12.758.012 2.487.25 2.918.986 1.781 2.318-3.586.263-13.827-3.537-17.627q-2.428-2.428-5.149-2.43zm-63.866 6.18c-2.211-.009-4.218.815-4.9 2.593-.362.955-.36 4.56.01 8.012.586 5.476.938 6.271 2.756 6.271 1.547 0 1.79.291.953 1.13-.837.837-.823 1.627.05 3.062.975 1.596.848 2.178-.731 3.35-1.08.8-2.92 1.162-4.225.835-1.86-.467-2.552-.02-3.53 2.272-.603 1.415-1.861 3.46-2.933 4.799v2.279c1.705-.655 3.389-3.25 4.531-7.037.504-1.67.726-1.688 2.78-.25 3.194 2.238 5.343 1.938 7.71-1.072 2.613-3.321 2.66-8.352.108-11.596-2.39-3.038-3.886-10.772-2.084-10.772 1.986 0 7.05 5.692 7.05 7.924 0 1.143.47 2.076 1.046 2.076 1.213 0 .34-6.153-1.414-9.974-1.15-2.506-4.333-3.893-7.176-3.903z" style="fill:#000;fill-opacity:1"/></svg>