<svg xmlns="http://www.w3.org/2000/svg" xml:space="preserve" width="256" height="256"><path d="M255 128a127 127 0 0 1-127 127A127 127 0 0 1 1 128 127 127 0 0 1 128 1a127 127 0 0 1 127 127" style="fill:#6c7ae9;fill-rule:evenodd;stroke-width:2.20571"/><path d="M141.574 8.846c-4.35-.172-7.96 1.758-8.623 4.61-.173.742-.326 1.093-2.851 6.526l-3.086 6.641-3.07 6.611c-.845 1.819-2.23 4.808-3.08 6.643a491 491 0 0 1-1.694 3.629c-.08.162-.452.96-.826 1.771-.374.812-1.378 2.978-2.23 4.813-2.486 5.347-4.508 9.705-6.167 13.283a536 536 0 0 1-1.691 3.629c-.08.162-.452.96-.826 1.771-.374.813-1.378 2.977-2.23 4.811a12190 12190 0 0 0-5.833 12.555l-1.236 2.668-19.098 6.773c-13.003 4.612-19.376 6.933-19.972 7.274-2.747 1.568-3.626 4.172-2.211 6.55a9.7 9.7 0 0 0 1.035 1.39c.267.286 7.717 5.32 17.177 11.657-3.04 1.1-5.697 2.23-7.703 3.313-3.058 1.652-3.957 2.522-5.88 5.695-1.838 3.03-2.314 4.412-2.508 7.266-.23 3.364-.092 3.818 3.04 10.023 3.856 7.635 5.806 10.098 8.36 10.564 1.014.185 5.044.117 8.953-.154 8.045-.556 8.727-.286 8.422 3.356-.205 2.46.763 2.861 2.258.935.627-.806 1.264-1.465 1.416-1.465.566 0 1.683 3.512 2.05 6.455.396 3.17.673 3.381 3.315 2.528 1.138-.368 1.342-.094 2.172 2.937.505 1.839 1.02 3.676 1.15 4.084.183.576.538.539 1.604-.17 1.328-.88 1.387-.853 2 .93.917 2.664.807 3.332-.496 2.986-.717-.19-1.261.042-1.485.631-.474 1.253-1.166 1.173-4.449-.513-3.208-1.65-4.585-1.842-4.105-.575.468 1.238-.499 1.097-6.19-.9-2.765-.97-7.732-2.408-11.037-3.195-3.304-.787-9.501-2.468-13.771-3.733-6.787-2.01-8.36-2.276-12.51-2.129l-4.746.166 1.99 1.295 1.99 1.293-2.843.047c-5.4.088-9.518 2.184-6.508 3.313 1.378.517-1.461 1.262-17.944 4.722a496 496 0 0 0-7.668 1.694A127 127 0 0 0 128 255a127 127 0 0 0 19.322-1.479c6.607-7.008 13.054-16.472 17.387-25.59 1.855-3.9 2.746-5.293 2.768-4.318.027 1.307.113 1.25.918-.578.487-1.109 1.334-4.218 1.884-6.908.767-3.757 1.094-4.585 1.412-3.568.229.728.708 1.227 1.063 1.107 1.028-.347 1.41-3.366 2.059-16.21.333-6.626.735-12.178.892-12.337.157-.16.295.207.305.815.019 1.122 1.23 3.12 1.892 3.12h.008l.004-.001c.194-.117.352-2.628.352-5.682 0-4.64-.313-6.754-1.705-11.502-2.076-7.081-2.174-8.25-.528-6.35l1.176 1.362-.312-3.168c-.206-2.077-1.003-4.457-2.319-6.912-1.103-2.06-3.75-7.373-5.882-11.809a358 358 0 0 0-3.35-6.767c14.387-5.08 27.687-9.821 28.312-10.137 1.056-.533 2.102-1.426 2.655-2.27.374-.57.455-.81.566-1.709.108-.868.089-1.169-.105-1.765-.303-.93-1.26-2.257-2.166-3-.394-.323-6.691-4.566-13.994-9.428s-13.276-8.869-13.272-8.904c.007-.06-5.203-27.58-12.74-67.274q-3.181-16.755-3.225-17.869c-.024-.613-.142-1.386-.261-1.719-1.057-2.928-5.01-5.126-9.542-5.304m-20.928 37.478c.027-.025 1.286.52 2.797 1.21 6.124 2.794 9.797 3.966 14.112 4.503 4.267.53 7.668.32 14.492-.9 1.71-.306 3.146-.506 3.191-.442.1.143 3.006 16.406 2.938 16.44-.491.242-4.456 1.31-6.637 1.789-4.19.919-8.172 1.357-11.775 1.295-6.58-.114-12.552-1.636-19.309-4.922-2.923-1.422-6.761-3.625-6.838-3.916v-.01l.002-.002v-.002c.04-.074 1.626-3.48 3.526-7.566s3.475-7.452 3.502-7.477zm-14.52 31.186h.007c.077 0 .36.19.662.449 2.127 1.826 5.481 3.917 8.84 5.512 13.839 6.57 31.647 7.221 44.398 1.623l1.336-.586 1.338 7.424 1.338 7.423-.853.622c-2.463 1.79-6.596 3.717-10.196 4.755-4.986 1.438-10.087 2.074-16.088 2-1.59-.019-8.17-.682-9.56-.962-5.74-1.16-9.719-2.44-14.11-4.543-5.066-2.426-8.62-4.98-11.923-8.561-.515-.558-1.064-1.192-1.223-1.408l-.29-.393 3.118-6.644c1.714-3.654 3.154-6.672 3.2-6.707v-.002h.001l.006-.002z" style="fill:#000;fill-rule:evenodd;stroke-width:2.20571"/></svg>