<?xml version="1.0" encoding="UTF-8" standalone="no"?>
<svg
   xml:space="preserve"
   width="256"
   height="256"
   version="1.1"
   id="svg1"
   xmlns="http://www.w3.org/2000/svg"
   xmlns:svg="http://www.w3.org/2000/svg"><defs
     id="defs1" /><path
     d="M 128.586,1.754 A 126.247,126.247 0 0 0 2.34,128 126.247,126.247 0 0 0 128.586,254.246 126.247,126.247 0 0 0 254.832,128 126.247,126.247 0 0 0 128.586,1.754 M 71.73,33.242 H 82.344 V 81.758 H 33.826 v 24.258 h 48.518 v 50.86 c 0,21.315 17.278,38.593 38.592,38.593 41.487,0 75.119,-33.633 75.119,-75.12 0,-21.313 -17.278,-38.591 -38.592,-38.591 H 106.602 V 33.242 h 21.984 c 52.334,0 94.758,42.424 94.758,94.758 0,52.334 -42.424,94.76 -94.758,94.76 -52.334,0 -94.76,-42.426 -94.76,-94.76 V 71.145 c 0,-20.934 16.97,-37.903 37.904,-37.903 m 34.872,72.774 h 50.86 c 7.917,0 14.333,6.417 14.333,14.334 0,28.089 -22.77,50.86 -50.86,50.86 -7.916,0 -14.333,-6.417 -14.333,-14.333 z"
     style="fill:#000000;fill-rule:evenodd;stroke-width:1.16311"
     id="path1" /></svg>
