<svg xmlns="http://www.w3.org/2000/svg" xmlns:xlink="http://www.w3.org/1999/xlink" xml:space="preserve" width="10000" height="5000"><defs><linearGradient id="a"><stop offset="0" style="stop-color:#5585e9;stop-opacity:1"/><stop offset=".5" style="stop-color:#2563e3;stop-opacity:1"/><stop offset="1" style="stop-color:#1d5bdb;stop-opacity:1"/></linearGradient><linearGradient xlink:href="#a" id="b" x1="7601.326" x2="372.488" y1="-246.726" y2="3750.034" gradientUnits="userSpaceOnUse"/></defs><path d="M3732.068-1137.212C5097.606-1614.088 5996.566-1026.75 6780.9 0c470.81-211.386 1388.177-571.874 2463.144 268.446 1307.536 1022.072 923.843 2954.357-585.694 3574.322-182.212 74.841-370.932 117.138-1664.352 138.291-1293.42 21.148-3691.44 47.99-4984.837 13.825-1293.396-34.165-1482.114-129.338-1636.673-244.85-154.558-115.513-274.947-278.202-343.277-463.67-68.33-185.473-84.603-393.71-50.438-582.434 34.17-188.723 118.768-357.92 224.52-490.516 105.75-132.593 232.645-228.578 339.208-278.198 106.564-49.625 192.787-52.875 279.015-56.13 204.996-781.592 1094.63-1002.637 1312.92-966.402 268.076-1007.328 635.96-1651.277 1597.631-2049.896" style="fill:url(#b);fill-opacity:1;stroke:none;stroke-width:310.8;stroke-linecap:round;stroke-linejoin:round;stroke-opacity:1" transform="translate(1311.802 1556.072)scale(.73764)"/><path d="M2240.16 79.016c-216.018 8.95-351.147 140.566-419.46 232.002-159.928 214.087-206.927 758.084 321.98 1121.607 192.02 131.963 221.952 146.594 432.088 210.734 208.689 63.715 361.4 94.515 829.988 167.522 384.53 59.927 525.057 57.222 605.465-11.596 66.792-57.183 51.093-98.55-69.364-182.935-280.649-115.67-549.921-147.02-845.474-172.573-118.167-10.144-154.18-6.135-160.785 17.774-5.405 19.553-10.09 21.322-12.786 4.832-5.02-30.713-132.549-64.035-138.802-36.262-2.361 10.484 8.078 21.847 23.175 25.246 15.116 3.404 30.327 14.48 33.817 24.6 3.49 10.119-54.657.53-129.217-21.285-126.047-36.875-140.095-37.014-200.164-1.951-74.252 43.345-100.456 41.512-143.111-10.012-30.244-36.552-30.115-37.124 12.877-57.186 23.899-11.142 58.477-16.875 76.814-12.746 18.338 4.13 39.599 1.145 47.223-6.652 7.643-7.793-35.836-30.22-96.602-49.791-480.253-154.898-745.244-904.915-308.74-1131.043 92.524-47.932 292.653-29.264 290.346-29.697a3307 3307 0 0 1 27.685-60.96c-.01-.001-.01-.004-.016-.005-9.04-2.773-14.29-4.22-14.29-4.22-58.64-13-112.797-17.469-162.647-15.403m176.953 19.629c103.24 38.897 0 0 0 0m4219.496 49.99c-104.862-4.493-138.98 23.873-70.742 68.172 52.339 33.956 142.697 41.023 349.684 27.265 247.291-16.459 343.282-26.93 294.219-39.5-59.081-15.106-390.03-36.652-523.98-51.95-17.777-2.033-34.2-3.345-49.18-3.987M1922.717 256.004q.351-.007.627.055l.017.006c3.335.75-1.617 9.047-12.955 26.222-12.651 19.183-36.295 61.929-52.498 94.932-32.39 65.93-44.99 79.015-57.283 59.603-14.475-22.887 52.423-142.093 93.175-166.084 16.148-9.507 25.404-14.67 28.916-14.734zm5083.64 35.934c-28.455.602-90.895 20.13-138.685 43.357-113.728 55.266-325.298 217.466-316.584 242.72 13.816 40.044 53.167 27.694 159.475-50.033 59.892-43.795 162.624-115.076 228.24-158.404 84.618-55.852 106.176-72.87 87.039-76.738-4.384-.987-11.009-1.097-19.485-.902m517.323 10.806c-96.192 3.494-209.13 30.22-246.006 63.766-67.332 61.267-79.288 231.419-21.197 301.56 14.816 17.897 44.56 34.35 66.095 36.555 42.5 4.362 56.745-40.579 69.49-219.486 5.75-80.502 12.37-92.29 71.885-127.297 139.377-82.017 256.082 12.64 276.936 45.613 16.246 25.69 31.427 38.322 33.732 28.086 8.752-38.867-84.218-109.232-163.763-123.94-24.905-4.606-55.109-6.021-87.172-4.857m-747 27.826c-14.806-.639-81.843 31.688-191.559 95.944-179.854 105.308-249.01 167.205-264.71 236.933-16.93 75.18 45.915 50.296 141.253-55.918 52.886-58.932 150.557-145.092 217.059-191.465 78.399-54.649 109.286-82.864 99.226-85.33a6.7 6.7 0 0 0-1.27-.164m-189.702.037q-7.18-.137-16.49.52c-58.607 4.288-149.812 56.034-141.445 80.25 9.483 27.531 18.03 26.311 102.734-14.8 72.34-35.125 96.51-59.564 67.426-64.891q-5.045-.941-12.225-1.079m502.19 26.362c-34.58 1.038-28.322 51.308 28.668 122.822 32.217 40.421 62.22 71.192 66.715 68.398 6.894-4.325 23.706-166.31-83.352-189.931-4.44-.977-8.454-1.397-12.031-1.29m464.07 10.275c-73.813 2.977-136.426 55.156-152.662 127.223-19.803 87.947 35.44 175.296 123.387 195.1 87.952 19.815 175.314-35.427 195.119-123.381 19.793-87.95-35.46-175.294-123.41-195.086a163.2 163.2 0 0 0-42.434-3.856m2.362 58.416c9.145-.37 18.3.462 27.23 2.473 56.436 12.707 91.88 68.764 79.162 125.197-12.706 56.428-68.75 91.872-125.178 79.166-56.429-12.706-91.873-68.75-79.166-125.18 10.406-46.25 50.583-79.744 97.952-81.656m-585.87 23.797c-13.333.268-24.642 4.379-32.992 12.908-17.892 18.263 145.747 190.963 216.643 228.697 65.14 34.656 75.373 4.956 26.517-76.845-52.412-87.71-137.921-154.832-196.199-163.748v-.02c-4.86-.744-9.528-1.081-13.972-.992zm587.168 8.012c-32.977 1.33-60.949 24.644-68.199 56.842-8.847 39.288 15.83 78.31 55.12 87.158s78.311-15.832 87.158-55.121-15.833-78.31-55.121-87.157a73 73 0 0 0-18.958-1.722m-687.205 71.875c-10.907.595-19.673 5.756-21.443 13.619-2.36 10.484 8.575 21.959 24.3 25.5 15.727 3.54 30.525-2.14 32.885-12.623 2.361-10.484-8.574-21.96-24.3-25.5-3.932-.885-7.806-1.195-11.442-.996m1088.676 1.468c-26.319.589-51.008 7.545-75.576 20.702-58.647 31.417-58.11 66.829 1.916 124.908 42.428 41.058 87.595 59.46 219.104 89.072 91.115 20.517 172.324 30.592 180.443 22.285 24.238-24.745-95.592-162.343-185.065-212.572-33.697-18.904-63.68-31.705-91.363-38.539-17.29-4.269-33.668-6.208-49.459-5.856m114.268 76.213c4.512.02 8.87.49 13.22 1.43l-.16.084c13.558 2.853 27.01 10.449 44.85 23.018 26.964 19.01 60.12 54.274 73.722 78.367 11.683 20.696 19.247 36.379 18.762 38.533l-.043.191-.19-.043c-.19-.042-.38-.086-.529-.32-3.804-2.94-57.65-20.07-119.691-38.066-135.681-39.364-155.746-62.769-78.703-91.647 20.292-7.598 35.223-11.604 48.762-11.547M6933.56 634.236c-18.572-.634-36.886.536-54.53 3.643-43 7.562-74.737 23.708-70.535 35.91 4.4 12.747 90.2 40.6 201.96 65.766l194.302 43.55-48.438-50.302c-43.899-45.556-104.44-77.775-166.67-91.467l-.018.076c-18.673-4.104-37.5-6.541-56.072-7.176zm852.603.157c-9.666-.301-22.356 4.947-30.076 12.847-8.842 9.025-2.69 19.423 13.646 23.102 16.355 3.682 31.65-1.887 34.01-12.371s-3.791-20.88-13.646-23.1a21 21 0 0 0-3.934-.478M6703.71 673.488c-11.045-.548-35.296 37.098-66.295 109.71-110.106 257.727-112.326 431.153-7.67 601.988 55.166 90.071 74.619 106.769 141.774 121.89 57.204 12.881 92.99 7.92 135.144-18.74 96.64-61.117 90.732-121.33-22.957-233.191-118.774-116.853-211.785-373.83-182.443-504.137 11.438-50.8 11.362-76.074 2.963-77.465a5 5 0 0 0-.516-.055m-124.223 33.235-.016.076c-3.803-.456-22.463 14.37-43.793 35.004-55.862 54.096-149.078 236.895-144.996 284.32 2.093 24.505 18.19 38.944 45.81 41.158 39.29 3.139 46.553-10.347 94.257-175.234 28.45-98.242 50.655-181.387 49.357-184.783v-.006c-.01-.032.028-.19-.144-.229-.191-.043-.283-.264-.473-.306zm1040.235 29.257c-70.924-2.363-102.558 11.827-92.031 42.35 9.72 28.166 89.716 42.033 258.89 44.816 228.839 3.76 229.876-21.662 2.615-64.984-70.222-13.386-126.92-20.763-169.474-22.182m-685.99 47.582c-22.094-.142-30.59 18.507-16.042 41.534 11.801 18.66 45.457 8.132 50.87-15.905 2.218-9.855-8.829-20.833-24.555-24.375-3.684-.83-7.117-1.233-10.274-1.254m178.464 42.278c-50.41 2.936-118.045 47.585-127.4 89.133-4.627 20.548-5.857 37.937-2.75 38.636s46.897-25.492 97.285-58.209c77.501-50.304 85.696-60.816 53.195-68.134-6.278-1.414-13.128-1.846-20.33-1.426m280.373 4.904c-102.901 6.29-134.044 112.812-85.517 154.768 43.856 37.915 245.275 111.95 501.166 184.23 118.859 33.574 219.025 65.662 222.595 71.332 3.575 5.652 19.39 13.158 35.116 16.7 43.499 9.794 30.386-1.97-163.83-147.126-230.066-171.934-367.92-256.532-461.059-275.982-17.606-3.673-33.77-4.82-48.47-3.922m-190.998 32.3c-24.85-1.4-76.016 54.868-85.799 95.642-12.227 50.922.982 56.66 57.297 24.837 39.073-22.045 33.647-22.227 34.866 7.85.787 19.364 15.164 40.188 15.164 40.188s16.345-19.754 18.953-67.715c.996-18.122-13.495-29.636-24.198-25.957-10.687 3.702-15.44-10.948-10.581-32.526 4.863-21.597 3.329-40.49-3.362-41.996l-.02-.004a14 14 0 0 0-2.32-.318zm-5363.168 34.333c1.37.04 2.758.213 4.147.525 11.094 2.498 12.936 11.926 4.113 20.955-8.842 9.025-19.846 15.559-24.478 14.516-4.613-1.039-6.475-10.47-4.114-20.955 2.066-9.174 10.749-15.323 20.332-15.041m5006.93 7c-10.907.595-19.673 5.756-21.443 13.62-2.36 10.483 8.572 21.958 24.298 25.5 15.727 3.54 30.526-2.14 32.887-12.624s-8.574-21.959-24.3-25.5c-3.932-.885-7.806-1.194-11.442-.996m706.064 55.84c3.435.088 8.34 1.038 14.46 2.717l.016.004c68.563 18.923 289.922 130.535 308.192 159.423 4.889 7.73-74.033-4.592-175.385-27.414-110.14-24.8-182.527-49.151-179.96-60.55 2.36-10.484 23.719-15.229 47.448-10.586 42.722 8.357 42.73 8.138 1.188-20.403-25.535-17.526-33.566-34.155-20.496-42.388.946-.599 2.476-.856 4.537-.803m-5685.552 4.08c3.175.021 6.635.43 10.357 1.267 15.726 3.542 25.695 19.306 22.154 35.032-6.704 29.774-31.068 32.761-48.068 5.88-14.862-23.5-6.67-42.33 15.557-42.18m5034.224 56.133c-14.723.37-30.424 7.05-38.91 21.123-7.797 12.925 3.099 25.733 26.393 30.978 23.408 5.271 42.501-3.388 46.48-21.058 3.451-15.326-6.231-25.518-19.869-29.35-4.388-1.238-9.186-1.817-14.094-1.693m-4976.314 36.117q.993.063 1.976.283c10.485 2.36 17.243 12.375 15.024 22.23-2.223 9.875-13.815 21.325-25.754 25.426-11.944 4.12-18.702-5.894-15.023-22.23 3.452-15.333 13.852-26.339 23.777-25.71m5046.15 63.728c-26.14.793-56.945 20.216-49.418 42.047 9.237 26.755 55.758 34.787 76.82 13.293 9.624-9.83 10.315-29.083 1.635-42.834-4.05-6.38-10.58-10.113-18.244-11.658-3.418-.695-7.058-.96-10.793-.848m-645.61 22.791c-19.161-.144-39.47 1.922-60.976 6.172-121.78 24.052-181.83 91.945-192.46 217.694-11.837 140.177-12.7 386.031-1.499 428.79 9.002 34.293 17.984 32.03 83.803-21.187 40.554-32.807 115.644-85.117 166.875-116.242 193.473-117.584 261.838-254.425 193.24-386.777-34.139-65.95-78.458-106.071-134.88-121.36-16.922-4.591-34.94-6.946-54.102-7.09m-4362.464 2.416c1.295.024 2.607.178 3.918.473 10.484 2.36 17.13 12.87 14.77 23.354-2.361 10.484-12.87 17.13-23.354 14.77-10.484-2.362-17.132-12.87-14.771-23.354 2.065-9.174 10.37-15.409 19.437-15.243m3524.871 15.424c-64.293.201-119.782 50.125-114.582 110.617 4.066 47.141 111.773 142.255 259.115 228.829 221.264 129.995 288.154 217.718 286.014 375.14-.523 38.437 1.35 77.174 4.213 86.07 11.538 35.926 20.465 14.782 33.516-79.377 21.833-157.714 10.814-246.918-44.733-362.511-85.414-177.838-245.712-321.965-395.615-355.719l.016.023a125.3 125.3 0 0 0-27.943-3.072zm1164.041 12.584c.144 0 .293.015.445.035v-.018c6.263.83 19.655 15.622 39.774 45.729 22.664 33.924 78.45 96.335 123.99 138.695l82.803 77.008-67.885-15.086c-78.11-17.348-107.71-46.805-154.137-153.535-26.287-60.472-34.069-93.062-24.994-92.828zm-640.414 24.764c-11.662.465-17.182 21.043-22.598 74.613-4.759 47.197-3.554 113.983 2.688 148.436 15.013 82.933 35.945 38.978 46.734-98.15 4.906-62.346-1.81-112.568-16.193-121.274a25.4 25.4 0 0 0-8.215-3.453 11.5 11.5 0 0 0-2.416-.172m-164.105 1.268c-16.894.698-6.832 24.603 36.455 92.392 34.655 54.23 66.173 97.936 70.43 97.713 10.66-2.607-16.212-95.94-40.604-141.049-11.883-21.943-37.76-43.552-57.488-47.994h.08c-3.496-.787-6.46-1.16-8.873-1.06zm492.142 13.73a30 30 0 0 1 8.295 1.26c1.425.52 2.881.988 4.318 1.632 32.711 14.656 31.214 25.574-21.865 156.165-34.809 85.654-4.69 98.745 63.85 27.755 50.75-52.563 69.058-31.576 36.908 42.36-9.58 21.997-49.14 63.02-87.894 91.125l-70.452 51.111 45.137-56.81c57.225-71.975 49.157-84.267-30.365-46.334l-63.045 30.046 21.842-44.07c12.006-24.234 33.05-68.605 46.728-98.572l24.867-54.486-61.732 46.185c-33.94 25.404-64.206 56.903-67.154 69.998-2.953 13.115-14.61 21.746-25.8 19.227-11.684-2.631-11.511-19.677.35-39.979 24.663-42.194 5.185-51.487-34.761-16.58-22.69 19.826-23.525 9.746-4.078-49.666 13.818-42.153 43.379-85.288 68.046-99.22 42.038-23.742 43.145-22.25 30.354 40.603l-13.277 65.186 55.158-74.182c32.523-43.727 54.884-62.952 74.57-62.754m-4313.164 6.584c1.295.024 2.608.177 3.918.473 10.484 2.36 17.13 12.871 14.77 23.355-2.361 10.484-12.872 17.13-23.356 14.77s-17.13-12.87-14.77-23.354c2.066-9.173 10.37-15.41 19.438-15.244m5020.049 48.537c-9.846-.046-3.777 36.72 14.074 83.678 52.277 137.59 29.465 248.677-82.236 400.256-101.462 137.68-115.522 206.175-50.998 248.724 55.63 36.68 155.739 15.04 203.715-44.056 62.911-77.484 115.816-284.24 95.627-373.807-18.525-82.282-146.697-307.362-179.178-314.676a4.7 4.7 0 0 0-1.004-.119m-1578.336 7.22c3.597-.26 10.124.838 19.602 2.804l-.023.014c34.639 7.158 237.533 165.545 233.726 182.453-1.146 5.09-4.196 8.587-6.752 7.751-14.197-4.638-199.936-140.214-227.916-166.363-20.273-18.94-26.549-26.085-18.637-26.658zm-3304.783.233q4.943-.098 10.49.35 2.993.223 5.967.803v-.02c29.907 5.673 59.892 36.178 101.033 102.163 45.36 72.782 81.586 106.957 135.555 127.982 67.014 26.065 68.774 28.564 19.726 27.754-61.055-1.03-219.634-93.558-279.642-163.19-46.49-53.954-42.558-94.883 6.867-95.841zm2661.111 36.44c-21.677.334-42.537 7.936-55.986 23.504-34.445 39.83-35.424 116.139-2.89 224.888 28.416 94.924 39.09 101.695 59.257 37.479 8.238-26.265 27.242-61.925 42.244-79.276 37.186-43.02 55.73-134.718 34.156-168.857-11.963-18.917-32.778-31.076-55.056-35.672h-.02a100 100 0 0 0-21.705-2.063zm192.317 31.664c-10.986.813-22.81 6.725-29.805 18.308-8.943 14.81-1.864 23.934 18.926 24.29 18.314.318 34.774-8.113 36.582-18.721 2.142-12.536-5.059-20.406-15.207-23.012-3.266-.84-6.835-1.136-10.496-.865m-182.69 14.799q.642.023 1.29.136v.02c2.33.325 4.646 1.688 6.911 3.9 9.025 8.842 14.595 24.136 12.371 34.01-2.219 9.855-12.617 16.006-23.101 13.645-10.484-2.36-16.054-17.654-12.375-33.99 2.587-11.491 8.496-17.957 14.908-17.721zm-425.763 2.527c-78.215 4.4-30.676 139.065 130.363 272.85 42.753 35.523 105.175 102.792 138.724 149.482 96.958 134.932 107.322 126.711 62.967-49.973-36.776-146.476-126.318-280.719-223.767-335.549-32.051-18.032-58.65-28.968-79.963-33.847-10.797-2.478-20.233-3.418-28.325-2.963m255.333 11.97c-13.6-.248-26.057 9.106-29.156 22.866-3.54 15.726 6.428 31.49 22.154 35.031 15.727 3.541 31.49-6.428 35.032-22.154 3.54-15.726-6.428-31.49-22.155-35.031a29 29 0 0 0-5.875-.711m553.254 30.99c-56.688 1.87-111.928 12.263-160.83 31.886-333.44 133.802-295.779 567.583-32.535 715.718 124.64 70.163 472.14 101.912 626.772 203.139 47.999 31.437 92.614 59.129 99.152 61.582 42.397 15.756 87.623-171.662 77.851-322.613-13.55-208.883-136.66-478.507-267.44-585.705-47.208-38.69-107.852-67.345-173.458-84.721v-.02c-54.692-14.478-112.828-21.134-169.516-19.266zm-2750.591 4.51a47 47 0 0 0-6.864.72c-17.682 2.567-32.916 8.05-33.844 12.167-3.476 15.44 34.794 14.925 50.061-.664 6.268-6.4 4.961-10.74-2.48-11.935l.019.01a47 47 0 0 0-6.893-.293zm1799.107.024c-11.667.186-25.736 7.578-34.906 22.775-6.959 11.512.924 24.002 17.527 27.74 16.65 3.75 33.182-6.758 36.994-23.394 3.552-15.774-3.857-24.893-14.783-26.762a26 26 0 0 0-4.832-.36m-270.852 21.048c-61 .68-113.622 21.884-120.865 54.051-10.923 48.513 41.572 85.069 220.309 153.455 171.881 65.741 402.512 181.883 553.61 278.735 71.055 45.562 115.42 65.565 118.18 53.308 3.55-15.764-191.215-215.86-284.64-292.474-133.784-109.698-325.258-218.287-424.17-240.559-20.825-4.69-42.09-6.742-62.424-6.516m478.496 21.37c.971.02 2.03.16 3.168.416v.019c9.112 2.051 23.386 11.595 39.33 27.863 21.064 21.466 19.966 23.943-7.863 17.937-17.77-3.8-35.69-16.728-39.79-28.668-4.145-12.026-1.636-17.71 5.16-17.568zm-1871.271 1.88q8.614.117 18.072 1.811l.02.01c42.038 7.563 96.618 38.499 163.011 92.584 84.795 69.044 108.964 79.755 186.43 82.617 48.962 1.812 120.088-4.084 158.045-13.082l69.058-16.375-56.457 28.365c-31.052 15.6-88.417 30.202-127.484 32.48-89.374 5.192-342.58-52.945-398.873-91.577-70.694-48.505-87.189-79.056-55.776-103.287 12.048-9.275 26.727-13.776 43.953-13.541zm2723.45 10.758c8.213.37 18.224 1.817 30.097 4.49 150.436 33.875 404.592 370.2 417.289 552.192 3.344 48.3.107 91.594-7.203 96.217s-10.338-4.612-6.75-20.547c10.361-46.016-113.353-304.06-188.936-394.002-37.907-45.127-116.269-107.435-174.11-138.484-97.246-52.216-127.88-102.451-70.388-99.866m-2253.378 22.79c64.833-3.275 141.93 2.559 212.729 16.798 47.194 9.485 91.58 22.725 127.668 39.463 64.613 29.97 57.795 30.719-84.682 9.172-132.971-20.088-169.554-17.55-258.002 17.953-56.68 22.768-112.489 39.263-124.021 36.666-26.744-6.022-35.077-59.472-12.834-82.203 21.74-22.193 74.31-34.575 139.142-37.85m930.436.689c9.8.15 22.473 1.86 37.334 5.207 36.694 8.262 70.065 24.789 74.185 36.732 4.446 12.898-19.616 15.611-59.246 6.688-36.694-8.263-70.065-24.79-74.185-36.733-2.78-8.061 5.577-12.144 21.912-11.894m2636.59 12.549c-11.514-.388-38.722 11.811-67.614 31.017l-64.048 42.6 72.738-28.885c40.004-15.868 68.858-35.048 64.072-42.615-.59-.934-1.611-1.564-3.064-1.871a11.4 11.4 0 0 0-2.084-.246m-4030.586 12.49c-6.935.23-2.488 5.956 12.437 21.185 13.438 13.702 37.301 27.807 53.028 31.348 25.409 5.722 25.867 3.68 4.158-18.473-13.439-13.7-37.301-27.804-53.028-31.345-7.94-1.788-13.443-2.82-16.595-2.715m2538.556 11.43c5.229-.3 10.77.147 16.551 1.449 45.1 10.155 56.378 68.053 18.912 96.93-35.376 27.243-52.29 22.933-73.57-18.83-19.737-38.74 1.508-77.452 38.107-79.55m-2121.941 3.54c-9.637-.233-25.522 5.736-41.416 16.317-18.842 12.521-28.465 19.147-27.994 21.236l.152.033c1.504 1.681 13.511-1.204 36.877-7.219 27.327-7.065 45.624-19.207 40.676-27.03a7.43 7.43 0 0 0-4.527-3.024l-.04.172c-1.103-.291-2.351-.451-3.728-.485m608.33 4.752c24.212.034 51.985 4.29 80.967 11.848 96.6 25.157 206.625 87.023 243.068 151.549 13.003 23.017 18.57 50.327 12.365 60.627-6.204 10.3-17.473 1.552-24.959-19.461-11.348-31.877-42.425-44.722-186.857-77.244-177.543-39.978-239.953-78.566-184.184-113.836 14.74-9.33 35.388-13.517 59.6-13.483m3388.805 21.135-66.117 72.237c-36.352 39.762-66.877 75.71-67.813 79.865-3.777 16.774 26.176 12.104 65.852-10.307 23.61-13.33 47.721-49.52 55.003-82.75zm-4457.367 7.865q.506.013.941.11c4.613 1.039 6.474 10.47 4.113 20.953-2.36 10.484-13.365 17.02-24.478 14.518-11.094-2.498-12.938-11.927-4.116-20.956 8.29-8.46 18.481-14.733 23.54-14.625m758.707 22.645c19.205-.494 41.042 2.16 65.65 8.016 54.676 12.992 123.062 41.768 206.691 86.816 52.764 28.424 123.347 49.847 182.793 55.441 131.815 12.417 117.176 32.874-28.7 40.123-133.221 6.635-302.646-12.829-372.515-42.761-142.256-60.953-176.7-130.617-72.251-146.094 5.822-.862 11.93-1.376 18.332-1.541m1980.513 3.38c2.994.184 6.029.59 9.088 1.235 11.29 2.342 22.936 7.988 34.031 17.596 40.906 35.368 32.446 98.737-14.105 105.52-46.244 6.751-57.766 2.414-77.887-29.375-31.649-50.07 3.965-97.719 48.873-94.975m1620.217 1.099c-7.037-.395-19.848 5.32-32.707 15.23-19.099 14.727-23.007 25.322-10.35 28.172 23.027 5.185 58.024-24.908 47.774-41.115a5.05 5.05 0 0 0-3.387-2.125 10 10 0 0 0-1.33-.162m-3216.73.289a48 48 0 0 0-7.6.535c-17.083 2.482-31.82 7.896-32.748 12.013-.931 4.137 11.18 10.39 26.906 13.93 15.726 3.541 30.464-1.871 32.752-12.031 1.571-6.977-3.683-12.106-12.644-13.844a41 41 0 0 0-6.666-.603m2934.126 12.705c-20.866-.638-46.907 3.209-73.154 12.17-29.828 10.167-37.425 17.13-16.867 15.49 20.539-1.644 58.103 1.687 83.455 7.396s48.024 1.8 50.385-8.683c2.76-12.257-7.372-20.548-24.865-24.246l.01-.018c-5.622-1.186-12.004-1.897-18.96-2.11zm502.659 2.93-.074.063.61.137c2.132 2.804-3.293 28.861-14.805 83.19-12.7 59.869-36.451 117.05-55.137 132.79-30.725 25.889-79.166 30.743-73.912 7.41 1.296-5.756 20.964-32.611 43.67-59.624 22.71-27.032 56.198-79.877 74.466-117.422 14.334-29.5 22.46-46.016 25.182-46.545zm-2183.575 18.12c2.195-.098 4.548.096 7.045.588l-.014.06c6.658 1.298 14.322 4.705 22.836 10.388 15.328 10.201 19.04 29.123 8.76 44.533-22.904 34.299-51.756 27.761-57.734-13.201-3.9-26.727 3.747-41.684 19.107-42.367zm-1609.94 4.346c-6.35-.263-11.695.256-15.638 1.711-16.556 6.106 5.076 21.753 56.293 40.676 45.762 16.914 89.854 33.592 97.98 37.084s11.802-2.33 8.136-12.91c-7.255-21.061-77.269-53.55-125.082-63.574h-.02c-7.965-1.674-15.32-2.72-21.67-2.983zm3428.753 23.76c-11.312.504-20.356 5.604-22.127 13.467-2.36 10.484 3.79 20.88 13.645 23.1 9.874 2.223 25.187-3.34 34.01-12.37 8.841-9.024 2.689-19.423-13.647-23.101-4.089-.921-8.11-1.264-11.881-1.096m-3573.275 36.613c3.77-.168 7.794.173 11.883 1.094 16.336 3.679 22.467 14.073 13.644 23.102s-24.136 14.594-34.01 12.37c-9.855-2.218-16.005-12.617-13.644-23.101 1.77-7.863 10.815-12.96 22.127-13.465m1870.545 3c11.62.011 26.727 2.272 45.945 6.682 91.11 20.896 283.742 114.383 349.547 169.658 61.134 51.379 167.767 199.286 182.79 253.621 11.259 40.73-1.525 51.87-14.939 12.979-15.928-46.227-180.447-162.805-332.423-235.56-190.181-91.033-271.644-149.352-262.897-188.2 2.919-12.962 12.608-19.197 31.977-19.18m383.863 7.584c2.95-.147 5.887.118 8.72.844l.014.024c6.325 1.624 12.168 5.563 16.481 12.383 10.674 16.904 5.299 29.473-17.504 41.082-24.3 12.393-35.09 10.325-41.36-7.91-8.358-24.21 12.995-45.394 33.65-46.422zm1114.955 26.299c-70.932-2.65-144.331 11.293-202.813 41.596-221.406 133.537-435.45 331.94-490.904 592.52 135.45-183.639 351.003-261.083 565.182-316.567 236.96-56.68 329.251-105.777 347.021-184.693 11.516-51.144 4.988-60.765-65.627-96.454-25.157-12.714-53.443-22.107-83.379-28.187l-.016-.023c-22.452-4.58-45.82-7.308-69.465-8.192zm-736.537 23.582 3.361 80.87c1.804 44.468 3.861 92.26 4.572 106.179 2.298 45.3 21.24 31.259 33.946-25.164 6.82-30.29.188-79.109-14.733-108.465zm-1646.073 7.025c-14.388-.966-26.81.012-37.308 2.916-60.17 16.655-73.625 81.301-24.225 116.479 41.253 29.377 377.768 89.87 447.541 80.465 32.018-4.327 12.94-21.522-85.004-76.563-107.271-60.306-190.727-98.304-251.921-114.547-18.352-4.871-34.7-7.783-49.082-8.75m814.33 56.266c4.037.116 8.164.651 12.31 1.61 19.895 4.68 40.222 19.01 52.929 43.962 14.66 28.737 12.032 38.36-14.576 53.438-39.894 22.582-90.988.262-97.217-42.52-5.506-37.656 18.3-57.303 46.555-56.49m-800.246 3.12c3.666.177 7.313.735 10.881 1.675 6.555 1.756 11.856 4.812 14.327 8.693 4.903 7.754-7.375 9.717-27.282 4.373-22.001-5.915-25.477-11.465-8.916-14.125a52.8 52.8 0 0 1 10.99-.617m1350.682.88c1.295.024 2.606.178 3.916.473 10.484 2.36 17.13 12.87 14.77 23.353-2.361 10.484-12.87 17.13-23.354 14.77s-17.13-12.87-14.77-23.354c2.066-9.173 10.37-15.408 19.438-15.242m1103.104 50.785c11.634.04 21.666.721 29.384 2.024h.017c18.527 3.11 23.73 9.809 5.776 19.806-33.53 18.688-395.002 113.243-392.633 102.72 4.747-21.081 134.895-82.022 228.75-107.114 44.487-11.914 93.803-17.56 128.705-17.44zm-1049.536 27.98a10.6 10.6 0 0 1 3.194.382c2.664.8 5.555 2.452 8.379 5.21 9.024 8.842 15.56 19.849 14.517 24.48-1.038 4.614-10.47 6.475-20.955 4.114s-17.018-13.365-14.515-24.478c1.395-6.195 4.947-9.525 9.38-9.707m-430.07 1.098c5.451-.14 11.068.407 16.625 1.545 24.697 5.06 48.154 21.859 50.21 42.35 1.327 13.317-16.389 29.457-39.372 35.818-50.963 14.101-94.29-46.267-52.295-72.842 7.12-4.492 15.747-6.636 24.832-6.87m2077.028 22.63c-9.667-.302-22.357 4.946-30.077 12.847-8.841 9.025-2.689 19.421 13.647 23.1 16.355 3.682 31.647-1.886 34.008-12.37 2.36-10.484-3.79-20.882-13.645-23.101a21 21 0 0 0-3.933-.477m-1934.067 45.204c1.295.024 2.606.178 3.916.473 10.484 2.36 17.13 12.87 14.77 23.354-2.361 10.484-12.87 17.13-23.354 14.769s-17.13-12.87-14.77-23.353c2.066-9.174 10.37-15.409 19.438-15.243m-248.299 28.309c1.327-.01 2.983.147 4.98.473 21.29 3.471 81.645 26.194 200.643 71.336 104.474 39.647 222.286 96.82 261.809 127.029s62.394 53.525 50.836 51.844c-11.563-1.663-24.767-9.022-29.375-16.309-4.627-7.29-94.049-41.206-198.705-75.326-122.379-39.914-212.141-80.756-251.576-114.47-33.696-28.825-51.44-44.482-38.612-44.577m339.317 12.213c1.295.024 2.605.18 3.916.474 10.484 2.361 17.13 12.87 14.77 23.354-2.361 10.484-12.87 17.13-23.354 14.77-10.484-2.361-17.13-12.87-14.77-23.354 2.066-9.174 10.37-15.41 19.438-15.244m1176.134 37.111c-10.902-.508-36.84 7.485-74.507 19.244-373.86 116.923-490.663 184.776-516.86 300.229-10.134 45.005-4.16 54.142 42.733 64.701 76.762 17.285 148.506-22.661 354.869-197.668 161.513-136.936 215.054-182.622 195.744-186.291a14.5 14.5 0 0 0-1.979-.215m-1798.755 11.094c-5.908.168-11.95 2.695-16.575 7.422-8.999 9.19-2.95 19.685 13.385 23.363 33.492 7.541 40.966-2.793 18.205-25.082a19.6 19.6 0 0 0-9.21-5.078 21.3 21.3 0 0 0-5.805-.625m1550.173 150.23-56.648 52.338c-31.154 28.776-64.615 50.542-74.375 48.344-27.259-6.138-20.794-12.612 57.953-58.31zm1686.91 75.073c-130.527 17.355-266.157-10.762-394.636 25.78-25.672 9.322-22.07 14.32 16.63 23.274 82.713 19.145 400.247-19.211 383.143-46.256-.802-1.241-2.572-2.18-5.136-2.798m-943.04 1.587c-246.743.422-546.575 28.606-690.833 70.539-129.405 37.636-254.42 168.291-242.074 252.927 20.671 141.447 1172.647-312.96 1181.035-229.406 4.885 48.487 62.213 112.408 157.932 176.08 108.475 72.133 207.3 104.66 178.17 58.625-76.538-46.475-129.777-124.557-199.354-178.558-37.494-24.546-4.284-20.994 151.547 16.318 175.676 42.04 211.006 44.71 295.414 22.258 52.737-14.062 86.413-31.355 74.846-38.426a37.3 37.3 0 0 0-11.478-4.088c-13.984-2.828-34.416-1.92-51.87 2.922-29.152 8.057-111.302-9.68-263.716-56.918-123.937-38.422-281.596-74.903-358.301-82.922-62.722-6.547-139.07-9.492-221.318-9.351m-9.368 28.107 84.543 7.64-85.488 23.872c-47.014 13.107-173.296 52.169-280.621 86.826-107.344 34.652-237.125 70.662-288.402 80.025-187.11 34.177-250.23 15.896-189.125-54.804 36.152-41.81 167.709-100.832 261.603-117.383 112.41-19.793 400.507-34.955 497.49-26.176m-1520.986 75.065c-10.797-.204-23.416.38-38.687 1.449-95.815 6.665-261.105 94.082-391.88 207.177-53.054 45.896-122.16 101.076-153.574 122.643-53.758 36.925-100.68 113.222-113.005 183.791-3.279 18.83 5.959 13.92 23.199-12.3 29.664-45.195 175.177-99.392 446.043-166.202 81.642-20.131 191.5-55.28 244.097-78.066 81.983-35.517 96.719-50.083 103.057-101.891 4.726-38.512-8.247-78.645-35.685-110.58-21.385-24.843-35.303-37.392-55.807-42.75-7.984-2.078-16.96-3.069-27.758-3.271m16.18 84.396c8.504 0 16.352.81 23.396 2.39 28.155 6.34 43.478 25.092 36.924 54.2-6.391 28.383-49.24 48.176-167.643 77.414-87.48 21.6-165.923 37.746-174.31 35.857-25.657-5.777 109.185-109.624 191.137-147.23 33.537-15.386 64.981-22.636 90.496-22.631m513.779 174.16c-1.217.032-2.258.34-3.09.865-26.904 17.015-98.594 309.07-86.545 352.6 17.168 62.068 41.787 61.243 91.1-3.08 23.396-30.523 91.468-92.145 151.262-136.924 116.093-86.94 154.41-147.61 80.251-127.096-60.575 16.763-144.48-7.215-186.435-53.314-16.408-18.035-34.261-30.989-44.168-32.799a9.7 9.7 0 0 0-2.375-.252m30.594 84.04c1.247.01 2.527.183 3.85.523v.019c7.386 1.883 16.067 8.864 27.486 20.328 15.613 15.693 11.414 28.208-18.645 55.588-53.91 49.067-72.048 38.813-46.892-26.563 13.237-34.446 22.15-49.979 34.205-49.896zM5012.326 2875.28c-46.984 2.592-77.026 25.802-83.947 66.814-4.985 29.521-2.571 32.768 8.52 11.532 51.283-98.248 205.408 27.046 261.181 212.35 23.197 77.144 57.536 159.595 100.56 171.853 27.034 7.67 67.658-38.16 79.178-89.323 23.993-106.551-175.343-341.394-313.09-368.841-19.197-3.823-36.74-5.25-52.402-4.385m1234.992 124.17c-58.576-2.917-131.285 19.22-153.625 52.744-52.01 77.996 57.75 161.052 350.192 264.996 107.095 38.054 236.266 84.805 287.047 103.89 139.042 52.279 167.06 59.049 150.98 36.622-27.248-37.94-532.801-424.164-586.611-448.118a111.2 111.2 0 0 0-23.932-7.31c-7.603-1.48-15.683-2.408-24.05-2.824m-1008.435 55.14 46.652 72.735c31.862 49.734 41.36 86.54 30.008 116.41-14 36.824-21.3 25.388-46.615-72.723zm1120.806 128.522a51 51 0 0 1 4.196.06c2.714.13 5.893.607 9.394 1.335v.02c24.562 5.13 66.494 24.105 100.162 45.807 81.604 52.623 48.096 48.081-68.035-9.172-47.793-23.567-64.338-37.458-45.713-38.05zm-1195.982 25.24c-9.666-.3-22.355 4.947-30.074 12.848-8.842 9.024-2.692 19.423 13.644 23.101 16.355 3.683 31.65-1.887 34.01-12.37 2.36-10.485-3.792-20.881-13.646-23.1a21 21 0 0 0-3.934-.479m34.635 108.338c-14.44.575-19.777 17.335-20.362 59.701-1.955 142.282-24.237 257.957-63.882 331.467-18.703 34.682-41.252 84.733-30.594 108.229 32.155 70.91 119.005-30.906 139.375-168.475 23.145-156.337 14.17-323.012-17.777-330.205-2.447-.551-4.697-.8-6.76-.717m62.99 58.709c-8.722.29 5.948 28.747 45.088 85.853 39.347 57.409 76.382 149.106 93.373 231.082 29.196 141.005 61.726 173.726 113.31 114.08 52.166-60.356 7.507-175.12-120.85-310.613-74.098-78.212-118.032-118.547-130.005-120.342a5 5 0 0 0-.916-.06m1511.79 98.225c-11.003.152 19.763 29.5 89.41 89.27 63.075 54.139 129.372 123.683 147.3 154.538 17.923 30.874 72.954 86.666 122.287 124.012 49.333 37.345 100.292 70.853 113.274 74.396 46.837 12.85 27.63-23.442-39.811-75.1-60.726-46.52-91.342-178.991-299.936-298.724-73.301-42.082-115.987-65.01-129.767-68.033q-1.658-.374-2.758-.36m245.175 76.435c-24.05-.108.61 29.137 74.297 88.19 107.215 85.909 248.453 141.866 257.424 102.027 2.36-10.484-25.732-25.821-62.426-34.084-72.302-16.28-145.631-130.11-259.99-154.94l.01-.02c-3.06-.688-6.175-1.108-9.31-1.173zm-1577.194 86.65c.062 0 .127.01.192.018v-.018c2.769.424 8.089 8.11 16.615 21.567 12.894 20.388 17.147 51.127 9.442 68.36-9.628 21.585-16.903 10.053-23.405-37.036-5.12-36.976-6.785-53.01-2.847-52.89zm-299.638 76.163c.102-.01.201 0 .3.014 1.327.314 2.406 2.342 3.11 6.568 2.308 14.299-2.522 35.743-10.732 47.654-8.252 11.922-10.162.216-4.26-25.994 4.02-17.854 8.425-28.068 11.582-28.242" style="fill:#fff;fill-rule:evenodd;stroke-width:307.079;stroke-linejoin:round;stroke-dashoffset:.48" transform="translate(1311.802 1556.072)scale(.73764)"/></svg>