<svg xmlns="http://www.w3.org/2000/svg" xml:space="preserve" width="1807" height="2048"><path d="M1069 444.527c-16.738-.047-25.04 4.926-28.586 17.123-4.534 15.598 3.326 32.188 18.645 39.354 10.62 4.968 28.954-.58 34.83-10.54 2.553-4.326 4.108-9.365 5.136-16.64 1.81-12.806-2.655-21.097-14.21-26.383-5.527-2.528-7.499-2.89-15.815-2.914" style="fill:#000"/><path d="M1032.895 1943c-1.835 0-3.073 5.524-2.454 10.941.766 6.704 5.834 17.26 10.43 21.723 1.914 1.858 4.476 3.336 5.783 3.336 2.218 0 2.346-.352 2.346-6.394 0-3.584-.886-9.261-2.014-12.913-1.695-5.488-2.89-7.32-7.58-11.605-3.062-2.799-5.992-5.088-6.511-5.088m-148.965-6c-2.91 0-10.168 5.224-14.246 10.254-7.646 9.428-9.48 16.522-6.23 24.088l1.65 3.84 3.873-5.409c4.1-5.725 10.406-11.389 15.744-14.136 4.094-2.108 5.279-4.368 5.279-10.07 0-5.07-2.478-8.567-6.07-8.567m188.03-4.877a2 2 0 0 0-.505.035c-.958.188-2.691 1.612-3.85 3.166-1.75 2.348-2.098 4.204-2.06 11 .04 7.47.405 8.936 4.213 16.984 2.292 4.846 5.572 10.583 7.289 12.75 1.717 2.168 3.556 3.942 4.088 3.942 2.476 0 4.252-7.65 4.308-18.551.054-10.611-.076-11.312-3.298-17.664-3.543-6.98-7.556-11.54-10.184-11.662zM881.373 1922c-.345 0-3.832 1.778-7.75 3.95-5.902 3.27-7.837 5.028-11.287 10.25-2.29 3.465-4.46 7.312-4.818 8.55-.854 2.942-.067 2.838 4.337-.57 2.005-1.551 5.383-3.87 7.508-5.153 5.64-3.403 15.249-17.027 12.01-17.027m290.027-3c-6.011 0-8.181 1.32-8.957 5.453-.812 4.332 3.199 13.611 6.946 16.066 2.91 1.908 6.671 7.507 6.847 10.196.064.982-.208 3.473-.605 5.535-.975 5.066 1.194 5.023 5.256-.105 4.117-5.198 5.28-8.538 5.453-15.645.296-12.188-6.174-21.5-14.94-21.5" style="fill:#4d4d4d;fill-opacity:1"/><path d="M906.697 1914.947c-3.09-.04-6.29 1.296-10.293 3.91-7.27 4.75-10.856 8.525-10.062 10.592.509 1.326 3.355 1.551 19.627 1.551 22.317 0 22.694-.245 13.588-8.857-5.09-4.814-8.886-7.144-12.86-7.196" style="fill:#61250d;fill-opacity:1"/><path d="M1630.826 1911.959c-2.113-.021-4.08.54-4.523 1.695-1.08 2.812 1.471 10.327 7.838 23.096 3.359 6.738 6.48 12.25 6.937 12.25 1.51 0 2.191-7.07 1.5-15.586-.67-8.25-3.188-16.045-6.355-19.664-1.024-1.17-3.284-1.77-5.397-1.791m-51.31-1.873c-1.392.065-2.762.736-4.12 2.012-2.778 2.61-3.106 6.627-.89 10.912.828 1.6 2.197 5.967 3.045 9.7.847 3.735 2.703 10.943 4.125 16.019 2.555 9.124 4.316 11.15 4.326 4.962 0-1.755.901-8.591 1.998-15.191 2.76-16.607 2.657-18.48-1.293-23.672-2.49-3.273-4.871-4.85-7.191-4.742m-69.571-4.014c-5.021.357-9.492 4.937-12.488 13.223-2.887 7.985-3.069 11.386-.785 14.646l1.67 2.385 1.892-2.412c1.04-1.327 2.889-3.989 4.11-5.914 2.854-4.5 8.287-5.386 11.549-1.885 1.954 2.098 2.18 2.13 3.935.541 1.024-.926 2.443-3.444 3.153-5.595 1.15-3.484 1.079-4.274-.649-7.233-1.067-1.827-3.444-4.335-5.283-5.574-2.423-1.633-4.821-2.344-7.104-2.182" style="fill:#4d4d4d;fill-opacity:1"/><path d="M1025.691 1899.72c-.839-.01-1.585.213-2.222.678-2.414 1.765-3.387 14.25-2.393 30.637.831 13.694 1.274 16.03 3.77 19.846 1.551 2.373 1.56 2.365 2.664-2.535 1.527-6.78 2.04-7.346 6.666-7.346 3.401 0 4.706.647 8.058 4 2.2 2.2 4.119 4 4.264 4 .9 0 2.502-9.948 2.502-15.547 0-7.33-2.208-12.902-8.475-21.393-5.817-7.882-11.198-12.294-14.834-12.34m-82.4-2.655-.605 7.845c-1 12.968-6.025 23.048-13.002 26.078-5.827 2.53-22.193 3.523-33.338 2.022-7.014-.944-9.467-.93-11.846.066l-3 1.258 4.287.654c2.358.36 5.03 1.398 5.938 2.307 2.235 2.235 2.235 11.59 0 15.001-1.42 2.168-1.452 2.685-.227 3.702 2.971 2.465 8.82 2.315 15.258-.395 3.401-1.432 6.857-2.603 7.68-2.603s3.647 1.39 6.279 3.091c4.674 3.021 4.993 3.081 13.785 2.534 11.107-.692 19.032-2.937 20.871-5.915.75-1.215 1.875-6.579 2.498-11.917 1.4-11.985 2.35-14.137 7.192-16.32 6.114-2.758 8.208-5.66 8.744-12.126.435-5.25.33-5.61-1.418-4.887-3.564 1.475-11.158 1.77-14.778.575-1.992-.658-6.03-3.394-8.97-6.082z" style="fill:#61250d;fill-opacity:1"/><path d="M1080.465 1893.115c-.49 0-.997.032-1.567.074-5.977.442-6.944 2.477-4.029 8.479l2.309 4.75-4.395-4.051c-5.057-4.662-10.521-6.053-16.957-4.32-8.95 2.41-11.643 9.856-7.28 20.119 4.05 9.522 5.081 16.553 3.651 24.892-1.686 9.835-1.524 11.705 1.258 14.487 1.789 1.788 3.54 2.455 6.457 2.455h4.004l-.148-10.25c-.168-11.582 1.12-16.731 4.939-19.735 3.428-2.696 4.33-2.568 8.668 1.235 2.778 2.435 4.792 5.881 8.033 13.75 4.15 10.072 4.44 10.486 7.135 10.183 4.715-.53 8.457-2.984 8.457-5.549 0-1.273-1.342-4.749-2.982-7.724s-2.99-5.803-3-6.281c-.01-.48 1.99.775 4.443 2.785 6.778 5.554 10.062 6.593 18.58 5.879l7.326-.614 4.13 4.76c3.297 3.802 5.022 4.929 8.565 5.598 5.188.98 22.056-.494 27.625-2.412 5.38-1.854 5.687-5.364.928-10.631-4.242-4.696-7.615-11.031-7.615-14.307 0-3.219 3.94-8.883 7.307-10.502 1.502-.723 2.51-1.67 2.24-2.107s-2.951-2.491-5.96-4.563c-9.716-6.692-14.203-4.56-13.144 6.246.36 3.675.185 7.064-.425 8.205-1.917 3.58-13.28 5.199-21.153 3.012-3.925-1.09-9.41-6.181-13.963-12.959-2.013-2.997-5.733-6.023-12.629-10.277-14.967-9.233-17.385-10.644-20.808-10.627" style="fill:#62260e;fill-opacity:1"/><path d="M1683.19 1893.066c-1.689-.01-2.779 1.1-3.74 3.403-2.765 6.616-1.257 13.823 3.376 16.133 3.009 1.5 5.659 6.595 7.14 13.734 1.442 6.944 3.471 7.306 6.518 1.164 2.631-5.303 2.748-16.533.223-21.5-3.84-7.554-4.85-8.886-8.273-10.906-2.256-1.33-3.932-2.02-5.245-2.028" style="fill:#4d4d4d;fill-opacity:1"/><path d="M1058.488 1855.656c-3.742.02-7.102.913-10.539 2.621-9.386 4.665-16.562 10.713-20.406 17.2-5.812 9.807-4.84 13.683 5.957 23.726 5.272 4.904 6.675 4.7 14.174-2.068 8.072-7.286 16.74-12.135 21.687-12.135 5.907 0 20.207 7.536 32.524 17.14 2.852 2.224 3.516 2.288 5.015.481.898-1.082.389-2.283-2.359-5.572-1.927-2.307-3.953-5.849-4.5-7.871s-1.9-7.048-3.008-11.166c-2.295-8.537-2.862-9.116-14.533-14.842-10.477-5.141-17.775-7.545-24.012-7.514m-109.373-46.396c-1.666-.032-2.165 6.31-2.77 32.836-.95 41.707.563 46.433 16.417 51.308 10.342 3.181 12.588 1.587 11.619-8.244-.595-6.028-.99-6.938-4.166-9.603-5.179-4.345-10.903-13.841-13.723-22.768-4.198-13.289-6.652-27.097-6.306-35.46.207-5.028-.072-7.76-.817-8.02a.8.8 0 0 0-.254-.05z" style="fill:#61250d;fill-opacity:1"/><path d="M1555.272 1805.178c-1.605-.034-2.212.335-2.957 1.08-1.442 1.441-1.478 2.441-.327 9.17.71 4.153 1.055 10.144.766 13.312-.554 6.07-7.705 28.281-15.86 49.26l-4.857 12.5-5.27 2.5c-3.745 1.777-5.83 3.552-7.216 6.14l-1.95 3.641 3.172 3.613c3.916 4.46 6.698 13.235 5.334 16.823-.523 1.376-2.224 3.456-3.779 4.623-4.346 3.26-1.672 4.278 10.37 3.943 10.086-.28 10.233-.32 13.702-3.685 4.156-4.031 4.847-6.66 3.758-14.307l-.812-5.707 4.869-4.793c5.854-5.761 6.806-8.605 10.258-30.685 1.366-8.743 2.708-16.121 2.982-16.395 1.613-1.613 6.677 24.264 6.912 35.32.127 5.95-.035 6.383-3.986 10.67-3.452 3.745-4.303 5.533-5.262 11.037-1.577 9.059.794 14.639 6.262 14.73 1.647.029 1.784-.434 1.105-3.718-.426-2.063-.823-5.767-.88-8.232-.098-4.17.138-4.602 3.394-6.202 1.925-.946 5.141-1.741 7.147-1.767 2.98-.04 4.237.624 6.88 3.635 3.176 3.617 3.225 3.819 2.694 11.25-.298 4.161-.855 8.353-1.239 9.316-.383.962-.25 1.75.295 1.75s1.218-.87 1.496-1.934c.332-1.268 1.738-2.165 4.084-2.605 10.577-1.984 12.784-16.35 4.135-26.904-2.979-3.636-3.438-5.056-4.385-13.559-.581-5.224-1.363-15.91-1.736-23.748-.764-16.042-.423-16.741 5.194-10.61 9.69 10.581 18.107 38.068 12.962 42.338-.81.673-1.73 2.64-2.045 4.372-.642 3.548 2.71 17.768 5.02 21.294 1.377 2.102 8.91 5.277 9.98 4.208.258-.258.02-3.264-.53-6.68-1.35-8.383-.361-10.172 5.628-10.172 5.423 0 8.089 2.248 10.969 9.25 1.073 2.609 2.311 4.746 2.752 4.746 1.379.01 3.699-6.756 3.699-10.783 0-8.437-6.312-21.213-10.48-21.213-.701 0-1.774-.602-2.385-1.338-1.933-2.329-12.6-38.53-11.637-39.492 1.216-1.216 3.554 2.645 5.518 9.111 3.243 10.677 6.364 16.077 12.066 20.885 6.169 5.202 8.28 9.11 9.844 18.225 1.146 6.676 5.849 18.733 7.771 19.922.52.32 4.49.8 8.825 1.064 7.779.475 14.478-1.004 14.478-3.197 0-.507-1.586-1.993-3.525-3.301-1.94-1.308-3.812-3.487-4.162-4.842-.854-3.302 1.235-12.88 3.308-15.17 1.562-1.726 1.502-2.083-.976-5.828-3.026-4.572-5.769-6.555-10.403-7.521-3.59-.75-5.681-3.399-13.435-17.018-10.514-18.467-15.5-29.729-16.076-36.316-.582-6.647-2.291-10.02-8.903-17.57l-3.402-3.885-11.463 1.162c-18.64 1.89-37.023 1.746-48.748-.383-4.737-.86-7.339-1.297-8.943-1.33" style="fill:#62260e;fill-opacity:1"/><path d="M1586.902 1713.895c-2.234.088-4.286 1.04-5.459 2.83-3.272 4.994-10.6 12.176-15.299 14.992-4.253 2.548-5.486 2.783-14.644 2.783h-10l3.695 10.703c3.834 11.103 5.226 19.1 6.358 36.559l.664 10.261 6.574 3.676c3.675 2.055 10.57 4.666 15.64 5.922 7.207 1.785 12.046 2.259 23.569 2.307 16.194.067 20.996-.837 23.875-4.496 2.538-3.227 2.562-3.149-9.371-29.432-11.898-26.205-12.066-26.676-14.516-40.435-1.647-9.254-2.39-11.433-4.535-13.315-1.9-1.668-4.317-2.444-6.55-2.355" style="fill:#61250d;fill-opacity:1"/><path d="M1072.047 1359.223c-5.841-.112-10.206 2.843-16.611 9.23-7.583 7.56-13.447 16.182-18.993 27.924-4.861 10.293-5.847 16.585-6.912 44.123-.319 8.25-.793 20.175-1.054 26.5-.67 16.23-2.306 99.54-2.954 150.5-.3 23.65-.76 58.3-1.023 77s-.763 65.162-1.111 103.25c-.349 38.088-.444 69.25-.211 69.25.232 0 3.019-2.513 6.191-5.586 13.724-13.292 31.815-15.733 50.631-6.83 4.125 1.952 8.51 4.495 9.746 5.652 1.235 1.158 2.454 1.898 2.707 1.645s-.148-3.367-.89-6.92c-.743-3.553-1.88-10.061-2.528-14.461-.647-4.4-2.935-17-5.082-28-8.868-45.428-10.016-62.846-7.594-115 2.545-54.771 5.666-77.481 17.594-128 5.347-22.644 7.898-35.347 12.057-60 2.226-13.2 5.59-33 7.472-44 6.898-40.292 7.88-59.01 3.895-74.312-3.311-12.717-8.577-17.78-27.365-26.311-7.986-3.626-13.422-5.568-17.965-5.654" style="fill:#c84b1b;fill-opacity:1"/><path d="M1619.762 1342.8c-.673-.04-2.691.605-5.057 1.651-19.035 8.419-53.1 13.318-83.205 11.969-24.444-1.096-23.905-1.114-42 1.51-19.381 2.81-18.5 2.575-18.5 4.896 0 2.29 16.575 10.958 28.066 14.678 9.816 3.177 19.32 3.183 38.584.022 30.736-5.044 54.342-11.798 64.33-18.403 5.844-3.863 18.02-14.799 18.02-16.183 0-.086-.083-.13-.238-.139z" style="fill:#e35418;fill-opacity:1"/><path d="M1664.54 1315.897c-1.337-.01-7.337 3.492-24.54 14.21-7.619 4.747-9.882 6.716-11.43 9.944-2.575 5.373-13.743 16.85-20.57 21.139-3.025 1.9-8.557 4.736-12.295 6.302-7.29 3.054-8.19 3.8-7.324 6.057.75 1.957 1.209 1.893 10.789-1.49 25.021-8.836 40.645-16.75 48.43-24.53 7.63-7.626 18.587-27.641 17.232-31.476-.035-.1-.129-.155-.293-.156m-7.919-16.457c-12.666-.02-59.07 13.9-68.083 20.833-1.692 1.302-1.773 1.737-.59 3.163.9 1.083 2.265 1.472 3.963 1.127 3.68-.748 18.038-2.33 28.488-3.137 8.587-.664 9.22-.887 18-6.34 5.006-3.109 12.14-7.417 15.852-9.576 3.713-2.16 6.75-4.233 6.75-4.61 0-.376-1.043-.945-2.318-1.265-.524-.132-1.219-.194-2.063-.195" style="fill:#000"/><path d="M1434.902 1280.113c-1.078-.02-1.75 5.143-3.273 14.895-9.076 58.144-19.452 92.333-42.85 141.174l-7.033 14.68 8.195 13.32c4.508 7.325 12.709 21.418 18.225 31.318 15.066 27.04 55.247 97.69 71.658 126 7.971 13.75 16.946 29.275 19.945 34.5 11.2 19.511 35.439 59.667 38.784 64.25 3.358 4.601 3.628 4.75 8.607 4.75 7.02 0 14.699-3.965 22.272-11.5 3.316-3.3 6.935-6.461 8.04-7.025 1.799-.918 1.982-1.867 1.737-9-.724-21.08-4.523-56.316-8.299-76.975-6.893-37.72-17.454-62.957-39.76-95-5.965-8.57-7.68-10.848-27.851-37.027-7.216-9.365-16.69-22.64-21.051-29.5-4.362-6.86-10.748-16.748-14.191-21.973-8.206-12.45-11.406-18.91-15.766-31.828-3.343-9.906-3.608-11.568-3.68-23.172-.043-6.875.303-20.15.766-29.5.967-19.527.141-25.121-7.793-52.764-3.824-13.322-5.497-19.6-6.682-19.623" style="fill:#923c1b;fill-opacity:1"/><path d="M1440.36 1256.164c-2.33.093-1.437 2.722 3.257 12.105 12.323 24.63 25.552 46.364 33.684 55.338 7.787 8.594 26.682 17.016 41.199 18.364 20.713 1.922 52.163.138 71.5-4.057 6.925-1.502 19.492-5.816 21.606-7.416 1.672-1.266.075-1.438-13.606-1.467-29.684-.062-45.114-2.68-68.812-11.672-28.46-10.797-47.984-23.929-72.956-49.072-7.767-7.821-12.193-11.53-14.25-11.941-.648-.13-1.191-.2-1.623-.182" style="fill:#df5015;fill-opacity:1"/><path d="M1276.86 1081.387c-.938 0-1.334.562-1.258 1.652.055.804 5.828 9.494 12.83 19.313 46.358 65.013 69.305 107.86 78.005 145.648.95 4.125 1.926 8.126 2.169 8.893.743 2.348 1.286.849 3.423-9.461 4.76-22.954 6.075-34.63 6.674-59.264l.592-24.33-16.399-16.182c-20.988-20.713-45.235-40.311-74.28-60.037-6.208-4.215-9.968-6.237-11.757-6.232" style="fill:#8d3915;fill-opacity:1"/><path d="M1053.752 1080.428c-1.66-.116-5.266 6.069-13.309 22.072-38.682 76.975-69.133 152.231-81.39 201.145-18.051 72.033-28.242 181.924-26.74 288.355.314 22.275 1.277 49.275 2.142 60 3.622 44.905 11.215 98.717 22.084 156.5 3.21 17.061 8.875 40.405 10.62 43.75 1.392 2.673 4.732 2.166 5.896-.894 1.624-4.274 3.864-33.833 4.568-60.296.577-21.683-.158-44.756-2.166-68.06-1.036-12.024-3.48-52.83-4.55-76-1.746-37.732.454-102.991 5.652-167.725 2.602-32.413 3.43-34.72 42.683-118.775 7.705-16.5 15.479-33.15 17.274-37s6.183-13.137 9.752-20.639c6.184-13 7.07-16.973 3.48-15.595-.8.306-4.276 6.11-7.727 12.896-8.813 17.334-18.115 35.175-34.324 65.838-27.282 51.61-38.877 72-40.945 72-1.977 0-.144-40.659 2.69-59.664 5.628-37.757 13.706-74.85 23.046-105.836 6.46-21.428 38.048-117.004 54.467-164.797 4.496-13.088 8.026-24.563 7.846-25.5-.215-1.115-.54-1.74-1.049-1.775" style="fill:#8b8b8b;fill-opacity:1"/><path d="M1026.488 1034.5c-1.671 0-3.1 3.376-9.562 22.582-4.179 12.42-9.464 29.295-11.744 37.5-6.539 23.527-29.293 118.429-28.647 119.475.824 1.333 3.046 1.17 4.176-.307.526-.687 6.053-13.85 12.283-29.25 14.325-35.41 22.838-53.776 34.19-73.77 4.953-8.723 10.81-19.766 13.015-24.54l4.012-8.682-1.6-5.004c-.88-2.752-4.425-12.429-7.879-21.504-5.178-13.607-6.623-16.5-8.244-16.5" style="fill:#000"/><path d="M1347.066 935.982c-2.406-.065-1.24 4.83 4.871 23.467 19.762 60.257 33.011 115.225 37.495 155.551 4.313 38.802 6.021 86.5 4.072 113.703-4.394 61.306-18.633 129.47-39.022 186.797-22.543 63.385-55.717 120.646-90.185 155.668-13.83 14.053-22.938 18.212-39.797 18.174-10.84-.025-18.44-1.76-28.264-6.46-18.968-9.072-26.022-22.04-29.853-54.882-7.685-65.877 10.034-111.98 47.617-123.894 16.1-5.105 37.664-6.513 50.08-3.272 3.62.945 9.22 3.28 12.443 5.191 8.292 4.915 27.642 23.816 31.547 30.817 6.107 10.946 9.862 12.764 14.278 6.908 2.412-3.199 10.602-18.942 14.435-27.75 1.077-2.475 3.557-8.1 5.51-12.5 11.303-25.46 17.295-43.578 20.865-63.088 3.154-17.234 3.168-49.59.03-67.256-4.746-26.707-14.298-56.48-21.259-66.256-2.689-3.777-6.584-3.941-7.955-.336-.536 1.411-.976 7.599-.976 13.75 0 15.083-1.694 27.942-4.623 35.17-9.018 22.257-31.64 47.536-51.541 57.596-3.117 1.575-12.343 5.53-20.502 8.787-8.16 3.258-22.71 9.911-32.334 14.785s-23.798 11.9-31.498 15.614c-32.898 15.862-50.81 32.423-59.59 55.09-5.572 14.386-7.654 26.005-8.893 49.644-.62 11.825-1.547 26.675-2.06 33a5980 5980 0 0 0-1.512 19c-1.154 14.946-3.572 34.803-5.967 49-2.79 16.545-4.899 39.36-7.947 86-1.05 16.078-3.417 66.526-3.986 85-.314 10.175-.831 25.925-1.149 35l-.576 16.5 5.021 25c2.763 13.75 5.393 27.214 5.842 29.92.746 4.491 1.201 5.124 5.223 7.25 6.841 3.616 10.825 3.134 17.88-2.17 12.813-9.631 61.463-67.145 83.26-98.428 2.136-3.065 6.13-8.722 8.875-12.572 33.58-47.084 66.038-99.342 88.723-142.848 43-82.463 54.672-110.075 79.965-189.152 14.247-44.543 23.645-86.967 26.912-121.5.338-3.575.81-7.85 1.049-9.5.24-1.65.716-14.475 1.057-28.5 1.233-50.713-4.708-105.54-17.284-159.5-9.164-39.324-18.717-64.26-43.61-113.828-7.688-15.305-14.627-28.078-15.423-28.383-.485-.186-.902-.297-1.246-.307z" style="fill:#898989;fill-opacity:1"/><path d="M987.057 918.182c-.773.039-1.057.516-1.057 1.341 0 1.89 11.694 32.93 21.465 56.977 18.27 44.964 35.441 80.413 53.287 110 45.055 74.697 85.718 126.508 114.209 145.522 21.905 14.617 53.654 27.218 79.539 31.566 19.55 3.284 31.538-.348 44.51-13.482 7.95-8.051 13.025-16.41 17.06-28.106 2.94-8.519 3.204-24.702.606-37-5.766-27.293-22.101-61.798-39.031-82.445-16.751-20.428-37.445-39.78-55.48-51.881-27.074-18.165-100.69-59.913-191.665-108.692-4.4-2.359-15.437-8.719-24.525-14.134-11.78-7.02-16.944-9.767-18.918-9.666" style="fill:#c84b1b;fill-opacity:1"/><path d="m1283.707 698.645-1.85 2.283c-1.406 1.737-1.71 3.273-1.273 6.427 1.404 10.138 9.81 38.006 26.434 87.645 15.327 45.766 22.854 69.49 34.115 107.5 3.689 12.453 4.86 15.604 7.558 20.342 1.459 2.561 5.623 10.058 9.254 16.658 3.632 6.6 7.844 14.25 9.36 17 4.367 7.926 26.966 53.33 30.113 60.5 9.81 22.35 19.31 54.803 24.049 82.154 5.638 32.544 7.305 53.377 8.629 107.846.797 32.807 1.162 42.16 1.76 45.25.32 1.659 2.251.6 3.132-1.717 1.005-2.642 5.996-35.962 8.469-56.533 5.023-41.782 6.982-79.834 5.524-107.342-3.204-60.421-11.902-108.31-28.99-159.588-14.642-43.936-26.4-67.932-60.303-123.07-38.673-62.894-63.279-97.937-72.586-103.373zm-16.58-5.645c-5.422 0-23.94 18.453-58.205 58-22.054 25.454-39.159 46.351-48.674 59.465l-9.254 12.752 4.203 5.14c2.311 2.828 10.278 11.33 17.705 18.893 7.428 7.563 13.827 13.75 14.22 13.75 1.187 0 21.02-26.633 30.185-40.533 16.86-25.576 47.257-91.028 52.912-113.934 1.96-7.94 1.984-8.575.408-10.98-.92-1.404-2.495-2.553-3.5-2.553m-119.549-60.084c-1.47-.024-4.625 2.462-9.492 7.428-13.842 14.123-20.822 25.388-23.646 38.156-2.175 9.829-3.004 40.17-1.505 55.037 1.936 19.187 4.778 30.766 11.983 48.8 4.075 10.202 13.965 31.81 15.293 33.413.569.688 1.88 1.25 2.912 1.25 2.461 0 2.402-.653-1.183-13-10.746-37.006-13.321-52.825-13.344-82-.026-31.914 2.992-46.372 15.607-74.76 4.241-9.544 5.39-14.291 3.375-14.324" style="fill:#000"/><path d="M155.053 493.05c-4.597.14-5.349.558-5.657 1.36-.363.949-.248 2.139.258 2.645s7.879 1.833 16.383 2.949c79.586 10.443 108.19 16.089 220.963 43.615a66922 66922 0 0 0 75.045 18.266c16.827 4.088 32.024 7.504 78.455 17.638 58.045 12.67 83.634 20.098 116.813 33.915 13.986 5.824 42.064 19.31 53.187 25.546 11.502 6.45 31.511 18.348 48.22 28.676 10.329 6.384 24.855 15.294 32.28 19.8 32.986 20.025 48.623 31.524 67.201 49.423 18.41 17.735 26.487 27.828 47.319 59.117 10.07 15.125 22.933 34.22 28.585 42.436 5.653 8.214 17.124 25.54 25.493 38.5s15.979 24.396 16.91 25.414c1.241 1.357 1.987 1.553 2.803.738s.675-2.24-.526-5.35c-1.248-3.231-16.314-36.687-25.777-57.238-12.779-27.752-37.127-86.317-47.809-115-12.32-33.083-18.38-54.47-18.332-64.691.05-10.526 8.69-23.116 22.303-32.502 13.397-9.238 28.597-15.892 47.826-20.934 20.71-5.43 47.917-2.833 117.504 11.215 23.33 4.71 28.767 5.48 40 5.672 11.851.202 13.417.016 17.705-2.108 9.544-4.725 16.783-15.795 20.174-30.85 2.26-10.032 2.059-15.833-.756-21.802-3.708-7.863-10.367-12.744-23.355-17.12-9.437-3.178-15.305-2.924-35.438 1.53-7.332 1.622-17.83 3.42-23.33 3.998-10.253 1.076-38.066 3.816-47 4.63-2.75.25-11.975 1.131-20.5 1.958-62.11 6.023-105.284 9.551-111 9.07-31.44-2.645-85.155-5.603-119-6.55-43.452-1.217-76.35-2.569-111-4.559-25.806-1.482-27.84-1.618-52-3.498-25.425-1.978-73.992-7.558-86.5-9.938-2.75-.523-8.375-1.409-12.5-1.968-4.125-.56-8.615-1.244-9.979-1.522-1.363-.277-9.013-1.626-17-2.998-13.92-2.39-80.989-15.555-89.447-17.556-13.14-3.11-104.358-22.27-116.074-24.381-27.57-4.967-43.465-6.192-93.72-7.221-15.689-.321-24.13-.462-28.727-.324m954.19 74.28c1.485-.005 3.12.344 5.884 1.045 3.353.85 6.732 2.352 7.508 3.336 6.132 7.774 7.555 19.729 3.05 25.635-1.414 1.854-4.268 4.177-6.34 5.16-8.172 3.878-16.456 2.361-22.542-4.129-10.016-10.681-6.362-25.373 7.45-29.961 2.167-.72 3.504-1.08 4.99-1.086m2.349 12.67c-2.83 0-6.424 2.245-6.994 4.371-.842 3.138-.818 3.214 1.992 6.553 1.573 1.869 3.535 3.076 5 3.076 3.148 0 6.41-3.33 6.41-6.545 0-2.781-4.018-7.455-6.408-7.455" style="fill:#8b8b8b;fill-opacity:1"/><path d="M825.77 462.271c-.356.005-1.187.43-2.52 1.305-15.952 10.479-41.388 20.84-62.855 25.606-8.472 1.88-13.058 2.205-31.895 2.257-19.16.053-23.468-.235-33.363-2.24-21.69-4.393-45.297-12.562-63.715-22.045l-9.076-4.672-8.924 2.122c-8.544 2.032-31.162 5.177-40.236 5.595-2.373.11-4.51.518-4.75.906-1.087 1.76 20.948 19.217 32.195 25.506 18.321 10.246 43.705 17.085 73.369 19.768 2.475.224 13.95.268 25.5.1 15.97-.233 23.965-.825 33.375-2.473 32.823-5.748 61.579-19.941 83.875-41.399 6.86-6.601 10.085-10.35 9.02-10.336" style="fill:#000"/><path d="M164.479 440.863c-2.568-.111-2.847.738-2.215 2.383.291.76 12.242 5.725 26.556 11.035 34.129 12.66 59.223 19.781 90.68 25.733 9.35 1.769 26 4.97 37 7.113s35.975 6.616 55.5 9.94 46.75 8.067 60.5 10.54c40.887 7.357 70.755 12.023 111.5 17.418 42.036 5.567 56.808 7.774 97.408 14.555 14.8 2.472 33.25 5.336 41 6.363 18.314 2.428 28.093 2.456 38.682.114 17.786-3.934 31.66-9.79 45.91-19.381 8.838-5.948 20.154-14.856 19.59-15.42-.218-.218-2.127.481-4.242 1.553-12.897 6.53-35.229 12.932-55.348 15.867-15.745 2.297-49.054 2.278-66-.037-44.986-6.147-72.227-18.576-100.564-45.885l-11.15-10.748-19.893 1.996c-40.943 4.107-59.606 5.16-101.098 5.703-55.371.725-83.345-.926-121.795-7.185-31.988-5.208-75.635-14.878-117.834-26.108-13.8-3.672-20.886-5.405-24.187-5.549m528.179-13.593-11.08 7.283C671.445 441.215 645.521 455 643.125 455c-2.966 0-1.574 2.154 2.602 4.025 22.785 10.213 45.486 16.623 66.845 18.873 16.902 1.781 32.955.69 50.157-3.41 18.975-4.523 41.26-14.16 55.232-23.883 5.935-4.13 23.425-20.553 22.682-21.296l-.006-.004c-.269-.145-3.962 1.475-8.28 3.636-4.368 2.187-12.649 5.544-18.4 7.46-38.006 12.657-84.445 8.789-115.379-9.61z" style="fill:#000"/><path d="m747.648 378.236-13.23 13.131c-7.276 7.223-16.842 16.058-21.258 19.633-4.415 3.575-8.057 6.853-8.094 7.285-.098 1.18 15.518 8.511 22.934 10.766 3.575 1.087 10.55 2.6 15.5 3.365 11.047 1.706 32.665 1.958 43.133.502 12.819-1.783 26.256-5.733 37.117-10.91 5.638-2.687 10.25-5.3 10.25-5.805s-2.68-1.198-5.957-1.54c-14.393-1.505-44.35-14.412-70.469-30.364zM783.555 332c-.192 0-3.29 4.388-6.883 9.75-3.594 5.363-9.463 13.323-13.043 17.691s-6.323 8.244-6.096 8.612c.834 1.349 20.33 12.547 32.977 18.941 13.939 7.047 25.217 11.414 34.937 13.53 7.58 1.65 16.294 1.811 20.405.378 3.407-1.187 4.227-2.897 1.398-2.912-3.143-.017-12.12-5.902-19.23-12.61-8.499-8.016-17.078-18.105-32.428-38.13-6.43-8.387-11.846-15.25-12.037-15.25" style="fill:#000"/><path fill="none" d="M977.462 124.716c-1.957.012-2.954.258-3.776.698-4.973 2.662-23.446 18.017-34.685 28.832-21.133 20.334-34.98 39.429-48.39 66.728-15.057 30.65-20.777 47.11-28.497 82-5.977 27.016-7.037 33.87-7.037 45.465 0 8.985.03 9.096 2.75 10.147 1.571.606 4.679.766 7.25.373 2.475-.379 5.4-.79 6.5-.916 1.801-.207 2.063-1.215 2.635-10.149 1.106-17.286 8.129-31.945 21.763-45.422 16.503-16.31 38.888-28.504 59.608-32.469 40.754-7.797 95.403 5.963 139.008 35 18.282 12.175 34.48 28.652 42.574 43.301 8.08 14.625 20.667 61.034 22.924 84.518.467 4.866 1.085 9.083 1.373 9.37 1.729 1.73 26.551 6.128 41.004 7.267 21.877 1.723 51.159-.074 67.11-4.12 11.569-2.933 47.836-15.09 55.81-18.707 8.163-3.702 23.855-13.857 32.318-20.916 12.817-10.69 24.78-28.807 28.885-43.742 1.06-3.858 1.832-11.713 2.16-22l.51-16-12.842-12.556c-64.02-62.6-123.547-107.999-176.203-134.385-43.931-22.014-114.18-39.531-201.315-50.2-12.244-1.499-18.175-2.136-21.437-2.117" style="fill:#000;fill-opacity:0"/><path d="M977.462 124.716c-1.957.012-2.954.258-3.776.698-4.973 2.662-23.446 18.017-34.685 28.832-21.133 20.334-34.98 39.429-48.39 66.728-15.057 30.65-20.777 47.11-28.497 82-5.977 27.016-7.037 33.87-7.037 45.465 0 8.985.03 9.096 2.75 10.147 1.571.606 4.679.766 7.25.373 2.475-.379 5.4-.79 6.5-.916 1.801-.207 2.063-1.215 2.635-10.149 1.106-17.286 8.129-31.945 21.763-45.422 16.503-16.31 38.888-28.504 59.608-32.469 40.754-7.797 95.403 5.963 139.008 35 18.282 12.175 34.48 28.652 42.574 43.301 8.08 14.625 20.667 61.034 22.924 84.518.467 4.866 1.085 9.083 1.373 9.37 1.729 1.73 26.551 6.128 41.004 7.267 21.877 1.723 51.159-.074 67.11-4.12 11.569-2.933 47.836-15.09 55.81-18.707 8.163-3.702 23.855-13.857 32.318-20.916 12.817-10.69 24.78-28.807 28.885-43.742 1.06-3.858 1.832-11.713 2.16-22l.51-16-12.842-12.556c-64.02-62.6-123.547-107.999-176.203-134.385-43.931-22.014-114.18-39.531-201.315-50.2-12.244-1.499-18.175-2.136-21.437-2.117" style="fill:#fff7ec;fill-opacity:1"/><path d="m1389.442 323.103-.588 15.963c-.681 18.53-1.57 22.695-7.496 35.115-9.635 20.195-30.048 39.236-54.416 50.76-15.146 7.163-55.435 19.898-70 22.127-23.989 3.672-55.533 2.821-81.5-2.197-7.15-1.382-13.44-2.587-13.98-2.678s-1.288 3.722-1.66 8.473c-1.693 21.59-9.628 38.24-31.471 66.039-4.614 5.872-8.389 10.88-8.389 11.13v.012c.158.251 4.258.656 9.246.909 16.711.845 25.544 6.075 37.885 22.425 9.321 12.35 12.19 19.14 12.291 29.094.04 3.91.237 7.122.441 7.246v.004h.01c.209.001 2.101-1.554 4.206-3.455 7.388-6.675 11.248-8.05 22.416-7.984l10 .058 37.5 12.577c20.625 6.916 50.55 17.396 66.5 23.289 71.71 26.495 111.664 39.604 130.5 42.818 18.05 3.08 39.532-9.45 54.09-31.547 16.148-24.514 19.795-55.63 11.404-97.312-4.597-22.833-13.972-45.559-31.438-76.207-23.39-41.047-49.91-77.197-82.672-112.696z" style="fill:#000"/><path d="M982.607 281.281c-30.837 1.568-62.294 15.417-83.023 36.55-8.4 8.562-13.316 16.46-14.05 22.571-2.801 23.275-8.217 44.648-18.266 72.098-1.611 4.4-7.026 16.1-12.036 26s-10.688 21.493-12.619 25.762c-11.548 25.533-27.958 46.632-54.113 69.576-6.6 5.79-12.15 10.894-12.334 11.344s.516.818 1.553.818 11.537.889 23.334 1.977c27.65 2.549 68.332 5.628 92.447 6.996 10.45.592 21.25 1.21 24 1.373 32.039 1.886 105.073-1.617 135.5-6.5 40.412-6.486 62.899-21.623 78.6-52.909 6.736-13.422 11.765-31.939 12.898-47.484 1.15-15.792 1.18-18.132.379-29.869-2.445-35.794-14.969-62.732-41.418-89.084-31.256-31.141-80.66-51.263-120.852-49.219M1070.47 426.5c5.97 0 8.111.51 13.724 3.273 14.381 7.08 25.32 25.258 27.397 45.524 1.636 15.966-9.138 33.324-25.871 41.685-10.768 5.381-23.927 3.503-38.809-5.537-15.588-9.47-22.898-23.133-21.598-40.375 1.188-15.748 13.628-32.532 30.135-40.658 6.972-3.432 8.817-3.912 15.022-3.912m-26.82 60.559" style="fill:#de4f15;fill-opacity:1"/><path d="M816.955 258.754c-.35.41-3.679 8.171-7.396 17.246s-9.462 22.411-12.766 29.635l-6.008 13.133 17.358 22.343c9.546 12.289 21.31 26.351 26.14 31.25s8.994 8.696 9.254 8.436-2.403-6.958-5.918-14.885c-14.213-32.05-19.765-57.424-19.941-91.158-.048-9.21-.373-16.41-.723-16M947.16 123.938c-5.222.04-16.211 1.486-20.56 3.001-12.633 4.402-18.345 8.504-33.995 24.416-31.207 31.732-42.888 45.98-53.925 65.774-3.18 5.702-3.716 7.787-5.114 19.871-4.187 36.202-2.818 63.896 4.498 91.012 2.192 8.123 3.936 10.363 3.936 5.054 0-5.94 9.729-50.368 14.445-65.968 3.528-11.669 12.57-34.128 19.967-49.598 17.287-36.15 38.651-63.384 70.352-89.686 1.78-1.477 3.236-3.006 3.236-3.398 0-.349-1.1-.492-2.84-.479" style="fill:#000"/><path d="M984.83 632.924c-6.103.284-11.435.87-15.526 1.777-10.81 2.397-14.907 4.76-25.304 14.602l-8.422 7.97-4.766 14.272-4.765 14.272.603 15.5c.99 25.421 5.237 44.066 15.785 69.314 16.144 38.64 43.57 80.842 73.239 112.693 23.228 24.939 88.992 70.017 241.13 165.29 23.896 14.963 31.495 19.427 29.416 17.271-.229-.238-12.582-12.725-27.45-27.75-31.96-32.296-43.204-44.414-68.034-73.318-17.012-19.804-40.09-48.844-47.791-60.141-24.718-36.254-37.33-59.305-48.615-88.86-12.09-31.656-20.62-65.274-24.483-96.47-2.907-23.486-1.556-56.7 2.91-71.541 1.38-4.585 1.375-4.603-1.285-5.65-1.468-.578-5.818-1.428-9.668-1.887s-10.15-1.492-14-2.293c-19.426-4.043-44.666-5.903-62.974-5.05" style="fill:#fff7ec;fill-opacity:1"/><path d="M1100.462 1196.3c-2.384 0-2.927 5.848-2.035 18.379.507 7.122.685 24.649.395 38.949-.701 34.513-2.91 44.19-13.74 60.234-3.242 4.801-12.83 17.12-16.11 20.694-.973 1.06-1.554 2.141-1.291 2.404s5.546 1.056 11.74 1.764c13.869 1.583 45.077 1.054 59.842-1.016 13.453-1.886 33.041-5.28 38.336-6.645 14.161-3.649 44.04-17.295 52.771-24.103 12.363-9.638 19.813-18.906 19.813-24.647 0-4.702-3.345-6.366-14.836-7.378-28.15-2.48-30.724-2.871-41.912-6.364-23.853-7.446-39.87-16.332-54.344-30.146-7.47-7.129-25.686-27.652-33.771-38.047-2.09-2.687-3.694-4.08-4.858-4.078" style="fill:#fff8ed;fill-opacity:1"/></svg>