<svg xmlns="http://www.w3.org/2000/svg" xmlns:xlink="http://www.w3.org/1999/xlink" xml:space="preserve" width="5461" height="3549"><defs><linearGradient id="e"><stop offset=".269" style="stop-color:#1f1f1f;stop-opacity:1"/><stop offset=".624" style="stop-color:#6a6f79;stop-opacity:1"/><stop offset=".965" style="stop-color:#212121;stop-opacity:.98823529"/></linearGradient><linearGradient id="d"><stop offset=".114" style="stop-color:#6d1722;stop-opacity:1"/><stop offset=".25" style="stop-color:#984a62;stop-opacity:.45490196"/><stop offset=".5" style="stop-color:#934962;stop-opacity:.48186532"/><stop offset="1" style="stop-color:#884662;stop-opacity:.6976676"/></linearGradient><linearGradient id="c"><stop offset=".235" style="stop-color:#c78a8f;stop-opacity:1"/><stop offset=".649" style="stop-color:#b47c88;stop-opacity:1"/><stop offset=".931" style="stop-color:#a26f81;stop-opacity:1"/></linearGradient><linearGradient id="b"><stop offset=".258" style="stop-color:#b15961;stop-opacity:1"/><stop offset=".59" style="stop-color:#d08085;stop-opacity:1"/><stop offset=".59" style="stop-color:#ca7b7f;stop-opacity:1"/><stop offset="1" style="stop-color:#ca7b7f;stop-opacity:1"/></linearGradient><linearGradient id="f"><stop offset=".58" style="stop-color:#952c3a;stop-opacity:.81604552"/><stop offset=".79" style="stop-color:#9f313f;stop-opacity:.89019608"/><stop offset="1" style="stop-color:#a93645;stop-opacity:.96418411"/></linearGradient><linearGradient id="a"><stop offset=".291" style="stop-color:#94434c;stop-opacity:1"/><stop offset="1" style="stop-color:#af6161;stop-opacity:1"/></linearGradient><linearGradient xlink:href="#a" id="i" x1="1258.828" x2="2008.004" y1="1095.11" y2="1095.11" gradientTransform="translate(-202.053 180.763)" gradientUnits="userSpaceOnUse"/><linearGradient xlink:href="#b" id="l" x1="2351.408" x2="2087.93" y1="6462.017" y2="7102.162" gradientTransform="translate(5.49 -4703.514)" gradientUnits="userSpaceOnUse"/><linearGradient xlink:href="#c" id="h" x1="3458.704" x2="4091.096" y1="1946.976" y2="2662.856" gradientTransform="translate(-202.053 180.763)" gradientUnits="userSpaceOnUse"/><linearGradient xlink:href="#d" id="m" x1="6972.458" x2="8715.785" y1="2850.606" y2="4854.166" gradientTransform="translate(-3690.378 -1454.817)" gradientUnits="userSpaceOnUse"/><linearGradient xlink:href="#e" id="g" x1="4094.685" x2="4094.685" y1="3590.488" y2="13063.266" gradientTransform="matrix(.5765 0 0 .49005 369.939 -2306.101)" gradientUnits="userSpaceOnUse"/><radialGradient xlink:href="#f" id="k" cx="2725.594" cy="2984" r="427.163" fx="2725.594" fy="2984" gradientTransform="matrix(.42892 0 0 .40165 1252.31 25.007)" gradientUnits="userSpaceOnUse"/></defs><rect width="5461" height="3549" ry=".049" style="fill:url(#g);fill-rule:evenodd;stroke-width:.531519"/><path d="M4632.893 1893.845c-3.274-.15-8.223.995-10.09 1.99-6.518 2.078-16.81 1.107-28.872-1.678 4.45 31.972 6.657 51.82 6.657 51.82s179.876 44.085 175.755 42.004c25.324-1.08-7.964-6.428-19.285-9.717-14-7.042-28.498-14.31-43.06-21.598 2.974-.103 5.949-.098 7.517.081 1.503.171 2.776-.117 2.828-.64.205-2.03-12.96-6.228-15.082-6.155-1.682.057-5.291.016-8.858-.09-9.972-4.988-19.912-9.955-29.678-14.837a56 56 0 0 0 3.878-2.046c5.746-4.696 4.878-6.48-2.34-4.81-2.748.634-6.582 1.12-8.52 1.077a26.4 26.4 0 0 0-4.092.24 33629 33629 0 0 1-36.342-18.194c-.371-3.25 2.307-7.047 9.63-11.66 4.83-4.19 3.23-5.637-.045-5.787z" style="fill:#802f40;fill-opacity:1"/><path d="M3618.73 2401.96c.18-.19 3.132-.924 6.56-1.629s7.277-1.556 8.555-1.892c5.81-1.53 19.02 4.027 34.645 14.574 4.38 2.957 11.77 9.663 12.127 11.002.404 1.525-.866 2.055-3.72 1.555-4.883-.855-21.772-11.792-29.39-8.332-3.174 1.525-7.35 2.174-8.285 1.287-.966-.914-5.955-2.2-6.858-1.767-.985.472-3.317-.945-8.335-5.069-4.003-3.288-5.55-5.778-4.366-7.028.319-.337.165-1.004-.341-1.483-.507-.48-.773-1.028-.592-1.219" style="fill:#313a47;stroke-width:.633851"/><path d="m3240.627 2058.963 16.263 13.434c26.452 32.71 51.26 66.672 76.367 100.41 39.256 51.763 77.888 103.981 117.38 155.563 33.507 19.41 60.274 51.074 88.388 77.782 37.55-4.3 73.119-15.542 109.602-4.95l8.485 4.95 4.95 6.364-2.828 3.535h-5.657l-21.214.707-23.334-1.414-36.77 8.485h-20.506l17.678 7.78 9.192 4.241c22.809 2.182 42.165 7.648 54.448 37.477l7.778 9.9 16.97 1.414 72.832-2.829 16.97.707c17.185 2.354 17.067 7.055 26.87 19.8l8.486 15.202-19.445-4.95c-8.567-4.683-16.087-3.497-25.456-2.828l-28.991.707-23.335 1.414-10.606-1.414-19.092.354-9.546 1.767 2.828 6.01c40.98 5.631 44.92 38.875 59.397 68.944l21.92 10.606c78.628 47.625 92.059 68.826 134.35 97.227 16.292 10.941 24.042 53.74 24.042 53.74s-13.88-12.473-24.084-16.167c-11.703-4.235-28.95-18.127-28.95-18.127-32.382-13.586-60.13-35.635-89.094-55.154 0 0-16.81-3.304-23.335-6.718-14.256-7.46-48.083-4.243-48.083-4.243 14.082 34.677 22.496 45.132 48.083 69.297l32.527 31.113 25.456 36.77c13.339 16.955 20.063 25.481 25.456 45.254 18.86 33.45 17.505 59.73 19.799 97.58l-25.456-28.284-22.627-22.627-26.87-26.87-18.385-22.627-18.385-26.87-28.284-35.356-24.042-43.84-21.213-31.113-36.77-40.305c-18.26-37.08-44.127-65.733-70.003-97.58l-19.092-28.992c-21.015-82.477-21.948-16.443-164.756-216.375-48.58-74.894-108.21-142.982-162.634-214.253z" style="fill:url(#h);fill-opacity:1;fill-rule:evenodd;stroke-width:1.5;stroke-linejoin:round;stroke-dashoffset:.48"/><path d="M3824.555 2697.415c.74-3.638 2.638-7.086 4.74-8.143.795-.4 4.314-.663 7.82-.586 6.267.137 11.008-5.084 18.185-.064 4.014 2.808 8.506 5.417 9.702 6.736 9.148 5.708 12.885 17.84 18.284 27.003 5.047 8.06 4.85 17.844 9.218 32.995 2.495 8.65-.933 8.397-7.121-.525-5.766-8.31-19.966-20.082-23.716-20.94-1.553-.357-3.826-2.014-5.128-3.74-1.285-1.706-3.171-3.293-4.193-3.527s-2.19-.902-2.591-1.483c-.914-1.319-8.22-5.896-14.307-8.962-7.401-3.728-11.02-9.992-11.214-15.145a15.4 15.4 0 0 1 .32-3.62m-63.34 126.472-6.047 31.95c1.504 1.04 2.47 2.75 4.362 4.031 2.476 1.677 4.699 3.953 4.939 5.057.24 1.103 2.278 2.37 3.65 3.502 1.373 1.132 2.654 2.781 2.846 3.664.192.882 1.138 2.342 2.103 3.242s4.875 4 7.485 7.652c4.89 6.844 6.026 8.378 15.746 21.262 3.147 4.171 13.903 6.705 17.712 10.306 3.81 3.602 8.252 7.987 9.87 9.744 5.044 5.477 6.305 3.586 4.509-6.744-1.31-7.533-9.598-31.865-14.586-42.82-11.48-5.965-12.17-33.597-21.608-38.458-11.977-3.835-30.982-12.388-30.982-12.388" style="fill:#313a47"/><path d="M3735.894 2488.321c.248-.163 3.68-.2 7.627-.086 3.947.117 8.396.181 9.888.144 6.778-.17 19.843 9.36 34.265 25 4.043 4.385 10.419 13.67 10.46 15.232.049 1.78-1.483 2.032-4.49.742-5.138-2.207-20.847-18.604-30.112-16.782-3.881.851-8.635.48-9.433-.737-.823-1.254-5.97-3.96-7.074-3.72-1.204.261-3.396-1.9-7.837-7.73-3.543-4.652-4.595-7.788-2.97-8.853.437-.288.442-1.06.01-1.718-.431-.658-.582-1.33-.334-1.492" style="fill:#313a47;stroke-width:.715316"/><path d="M4378.158 1342.99 4116.813 1188c-122.355-72.814-197.985-207.052-197.985-352.28V525.749c0-63.46-28.114-123.261-76.032-163.12-142.547-118.371-302.92-214.378-476.352-283.116-57.82-22.779-122.357-18.304-175.815 13.424l-261.734 155.39c-122.357 72.815-273.228 72.815-395.971 0l-261.748-155.39c-53.458-31.728-118.395-36.611-175.812-13.424-173.835 68.746-333.804 164.745-475.966 282.716-47.913 39.865-76.024 99.66-76.024 163.118v309.972c0 145.217-75.236 279.468-197.987 352.28L1084.04 1342.58c-53.457 31.731-89.887 86.653-99.39 149.291-14.651 92.341-21.779 186.722-21.779 282.716 0 96.005 7.128 190.375 21.385 282.305 9.503 62.65 45.933 117.973 99.387 149.702l261.346 154.982c122.357 72.812 197.987 207.052 197.987 352.28v309.972c0 63.449 28.114 123.248 76.027 163.118 142.158 117.96 302.52 213.967 475.963 282.715 57.81 22.78 122.357 18.305 175.815-13.427l261.734-155.392c122.354-72.813 273.214-72.813 395.971 0l261.734 155.392c53.458 31.732 118.398 36.207 175.815 13.427 173.443-68.748 333.804-164.756 475.963-282.715 47.919-39.87 76.033-99.67 76.033-163.118v-309.972c0-145.228 75.63-279.468 197.984-352.28l261.334-154.982c53.457-31.729 89.892-86.642 99.393-149.702 13.863-91.93 21.385-186.3 21.385-282.305 0-95.994-7.133-190.375-21.384-282.305-9.11-62.65-45.145-117.56-98.591-149.291zM2730.944 2866.01c-586.44 0-1062.004-488.558-1062.004-1090.998 0-602.453 475.564-1090.997 1062.004-1090.997 586.426 0 1061.99 488.544 1061.99 1090.997 0 602.44-475.564 1090.998-1061.99 1090.998" style="fill:#f9fafc;fill-opacity:1;stroke-width:114.469"/><path d="M1396.367 732.427c-4.372 1.15-5.823 1.352-7.94.516-23.01-9.09-83.802 53.27-94.851 59.326-3.834 2.101-9.716 6.58-14.187 9.5-7.635 4.988-13.346 10.13-36.34 20.996-4.056 1.917-8.523 7.543-15.375 11.68-22.494 64.031-226.894 258.505-6.454 144.21.933-.615 37.064-23.17 38.532-25.026 4.212-3.544 30.246-16.81 37.35-17.382 5.082-.409 13.738 3.111 17.824 5.922 5.32 3.66 111.943 52.53 111.943 52.53.1 0 75.588-6.66 75.56-6.758l-75.38-268.06c-.025-.098-.08-.18-.18-.182-6.804-.207-17.118 9.212-30.502 12.728M1290.66 844.173c3.978.037 7.68 6.552 4.734 11.05-2.013 3.072-7.025 3.59-7.79.804-1.723-6.284-1.641-8.952.335-10.74.869-.787 1.803-1.122 2.72-1.114" style="fill:#e59493;fill-opacity:1"/><path d="M1435.262 768.02c-.9 11.702-7.005 27.27-15.32 40.8 0 0-26.634 504.3-12.514 487.516 48.378-57.5 86.635-96.362 170.6-63.155 3.667 1.45 10.826 2.195 15.5 2.994 4.676.8 11.65 2.137 15.5 2.973s9.442 1.964 12.427 2.504c9.203 1.67 9.035 2.61-1.973 11.084-4.221 3.25-3.315 5.4 1.914 4.543 16.919-2.774 17.03-2.193 1.666 8.7-2.946 2.09-3.547 5.324-.783 4.216.962-.386 5.024-1.782 9.025-3.104 4-1.322 12.465-4.929 18.809-8.014s11.795-5.349 12.11-5.033c.79.79-1.66 4.216-7.155 10.016-2.541 2.683-4.374 5.122-4.074 5.422s3.623-1.557 7.385-4.127c3.76-2.57 7.155-4.672 7.543-4.672s3.414-1.8 6.726-4 6.236-5.125 6.67-5.125 2.904-.445 5.318-2.365c2.415-1.92 4.9-3.49 5.52-3.5.62 0 1.704-.704 2.408-1.553.764-.92 1.643-1.177 2.184-.637.98.981-1.952 5.76-6.5 10.586-4.938 5.24-1.93 3.985 4.996-2.086 9.408-8.245 13.235-10.756 31.285-20.535 7.288-3.949 15.337-9.28 16.959-11.236.719-.866 7.885-4.856 15.924-8.866s17.767-9.13 21.617-11.382c11.22-6.557 24.758-13.3 26.703-13.3.988 0 1.818.561 1.846 1.25.027.686.25 7.1.492 14.25.243 7.15.664 17.5.936 23 .27 5.5.497 13.802.507 18.45.018 10.058 1.45 9.834 3.022-.473a7098 7098 0 0 1 1.937-12.625c.48-3.105 1.308-6.48 1.836-7.5.529-1.019 1.737-5.453 2.688-9.853 1.879-8.695 2.682-10.274 4.219-8.293 1.717 2.214 3.187 9.67 5.379 27.293 1.163 9.35 2.534 19.025 3.046 21.5.513 2.475 1.36 7.546 1.885 11.27.952 6.76 2.38 10.73 3.858 10.73.43 0 1.479-1.463 2.33-3.25l1.547-3.25 1.308 6c.72 3.3 1.906 6.888 2.635 7.973s1.326 3.205 1.326 4.714.74 4.45 1.645 6.53a638 638 0 0 1 2.898 6.783c3.558 8.51 6.833 14.503 9.078 16.613 1.377 1.293 3.415 3.83 4.53 5.633 1.114 1.804 2.823 3.706 3.796 4.227 1.6.856 1.7.57 1.047-2.997-.396-2.167-1.236-4.563-1.867-5.322-1.724-2.078-2.214-36.795-.61-43.154.695-2.75 1.577-8.508 1.962-12.797.588-6.558.926-7.612 2.11-6.629.777.644 1.41 1.58 1.41 2.08s1.948 4.835 4.329 9.63c2.382 4.794 5.144 10.966 6.137 13.716s2.618 6.8 3.61 9c.994 2.2 2.126 5.35 2.515 7s1.316 3.888 2.059 4.973c.742 1.085 1.35 2.93 1.35 4.101 0 3.53 2.1 8.426 3.616 8.426 1.152 0 1.342-1.66 1.002-8.75-.554-11.558-1.697-21.365-2.722-23.37-.456-.892-1.246-3.48-1.756-5.75-1.344-5.982.885-5.436 6.115 1.497 2.335 3.096 7.396 9.243 11.246 13.662 3.85 4.418 7.9 9.461 9 11.205s2.9 4.594 4 6.332c3.088 4.882 4.51 4.108 3.82-2.076-.321-2.888-1.195-7.05-1.94-9.25-.743-2.2-1.356-4.338-1.366-4.75-.022-1.13 4.773-.9 5.492.262.64 1.036 12.756 6.988 14.225 6.988.447 0 3.249 1.603 6.224 3.562 2.976 1.96 8.14 4.917 11.477 6.573 3.337 1.655 6.743 3.608 7.568 4.338s3.075 2.024 5 2.873 4.625 2.242 6 3.097c1.375.854 4.525 2.45 7 3.543s5.175 2.406 6 2.918 5.706 2.865 10.848 5.227c7.666 3.522 9.87 5.053 12.25 8.511 1.596 2.32 2.888 4.812 2.873 5.538s-1.366 3.087-3 5.248c-1.635 2.16-2.971 4.337-2.971 4.836s-1.285 2.782-2.855 5.072-4.825 7.54-7.23 11.664c-4.96 8.5-18.505 27.496-23.891 33.5-1.975 2.2-6.231 7.6-9.46 12-3.227 4.4-7.487 9.857-9.466 12.127-1.98 2.27-7.423 8.953-12.098 14.855s-10.525 13.1-13 15.99c-2.475 2.893-7.2 8.518-10.5 12.502s-7.617 9.108-9.594 11.385c-5.355 6.17-15.69 20.895-22.207 31.64-3.168 5.226-7.607 12.426-9.863 16-2.256 3.576-5.33 8.552-6.83 11.06-1.5 2.507-4.8 7.372-7.33 10.81s-6.457 9.61-8.725 13.72c-3.484 6.311-4.923 7.913-9.287 10.33-6.395 3.54-17.946 11.42-29.996 20.462-1.98 1.486-4.72 3.46-7.752 5.595 385.29-34.05 424.585-91.823 416.576-22.18-.631 5.493-.637 6.675.12 6.426.629-.207.463-1.343.63-2.675.318-2.53 3.32-11.797 3.77-11.797.142 0 7.8 3.455 14.076 6.152 15.674 6.734 38.842 11.59 57.078 13.185l-11.532-631.794c-4.391-2.953-9.897-5.578-13.504-8.34-3.3-2.528-5.755-8.278-7.13-9.158s-6.1-4.844-10.5-8.807c-14.795-13.324-33.486-24.282-54.5-31.953-7.353-2.685-43.03-13.307-57.277-17.053-5.477-1.44-6.65-2.554-3.684-3.496 1.138-.36 1.898-1.18 1.686-1.82-.418-1.262-20.544-3.016-24.475-2.133-4.191.941-2.28-1.363 2.5-3.014 6.608-2.284 13.533-5.808 13.953-7.103.46-1.42-22.825-1.144-27.703.328-10.02 3.023-23.77 7.572-25.75 8.518-4.735 2.263-3.087-.373 5.207-8.336 4.733-4.544 8.235-8.632 7.783-9.084-.452-.453-2.376-.377-4.275.168s-5.137.99-7.197.99c-4.973 0-17.723 3.537-25.657 7.117-3.513 1.586-6.622 2.883-6.906 2.883-1.252 0 3.739-4.514 8.45-7.645 5.655-3.756 7.964-6.068 7.01-7.02-.69-.69-16.05 6.645-27.882 13.315-4.243 2.393-8.518 4.346-9.5 4.346-2.954 0-33.01-7.813-44.767-11.629-14.836-4.814-33.983-13.804-68.684-32.246-6.417-3.41-17.217-8.49-24-11.29-6.783-2.797-17.507-7.214-23.832-9.815-13.715-5.64-23.634-10.553-34.607-17.145-4.46-2.678-8.396-4.87-8.748-4.87-.353 0-4.58-2.164-9.393-4.808-8.645-4.748-14.645-7.52-37.404-16.857z" style="fill:#ce6f6b;fill-opacity:1"/><path d="M4352.11 3728.88a2.75 2.75 0 0 0-1.102.193c-.798.32-.562.556.603.604 1.054.043 1.645-.193 1.313-.525-.167-.167-.465-.258-.813-.272m6.633-.732c-.397-.01-.802.207-1.04.592-.345.56.073 1.017.93 1.017 1.757 0 2.016-.6.63-1.457a1 1 0 0 0-.52-.152M1189.048 993.163c-1.185.028-2.934.662-5.193 1.897a179 179 0 0 1-6.5 3.363c-4.087 1.976-4.67 2.718-3.37 4.285 1.714 2.065 4.657 1.596 6.368-1.015 1.143-1.744 2.197-2.233 4.056-1.877 2.927.56 6.446-2.128 6.446-4.922 0-1.182-.622-1.759-1.807-1.73m17.246-8.055c-1.752 0-8.43 4.238-7.935 5.037 1.032 1.671 4.32 1.045 6.437-1.226 1.96-2.104 2.63-3.81 1.498-3.81m14.305-7.353c-1.17 0-6.404 3.445-6.404 4.215 0 1.238 3.325.854 5.25-.607 1.668-1.266 2.417-3.608 1.154-3.608" style="fill:#000"/><path d="M1238.1 967.943c-1.327.061-4.043 1.502-6.755 3.667-6.025 4.811-6.03 4.836-.655 3.253 6.446-1.9 9.978-4.842 8.087-6.734-.141-.14-.371-.2-.677-.186" style="fill:#000;stroke-width:2.16555"/><path d="M1327.906 810.468c-31.416 11.722-57.117 41.83-50.105 77.086 1.842 7.576 4.165 9.554 10.66 11.83l3.699-.004c8.59-.009 74.139-61.398 49.534-79.908-1.332-1.002-2.665-6.685-6.612-7.508z" style="fill:#d4b089;fill-opacity:1"/><path d="M1291.303 856.941c-1.692-.32-3.195-1.24-4.164-2.545-.382-.514-.46-.708-.632-1.554-.331-1.632-.4-2.264-.398-3.625 0-1.433.09-1.934.486-2.773.553-1.17 1.798-2.226 2.992-2.534.58-.15 1.485-.137 2.085.03 2.19.607 4.16 2.944 4.86 5.766.23.922.289 2.298.138 3.165-.232 1.325-.83 2.57-1.645 3.427-.418.44-.457.463-.937.573-.665.153-2.151.19-2.785.07" style="fill:#fff;stroke:none;stroke-width:.0668279"/><path d="M1285.512 848.87c-.97.04-2.9 2.642-5.317 7.358-3.174 6.191-3.494 7.58-3.445 14.928.095 14.141 5.5 21.44 14.77 19.935 4.874-.5 7.797-2.22 10.118-5.887 2.066-3.152 2.372-13.07.51-16.504-.73-1.344-1.658-4.848-2.065-7.787-.875-6.324-1.35-6.973-3.92-5.369-4.476 2.795-9.967-.01-9.967-5.094 0-1.085-.242-1.597-.683-1.58zm.997 26.084c1.89-.054 3.797 2.02 3.483 4.137-.36 2.426-1.698 2.95-4.047 1.584-2.15-1.25-2.3-4.77-.238-5.562a2.5 2.5 0 0 1 .803-.159" style="fill:#544331;fill-opacity:1"/><path d="M1331.138 810.007c-9.59.084-23.747 7.39-32.695 17.096-5.016 5.441-5.41 7.078-1.195 4.976 1.679-.837 5.64-1.756 8.802-2.043 6.505-.59 9.977.798 18.645 7.452 4.44 3.408 5.034 4.312 5.309 8.084.553 7.603-7.307 20.62-21.391 35.418-3.12 3.277-19.78 17.427-23.453 16.466-1.656-.433-1.85-.27-.96.805.778.936 3.208 1.278 7.96 1.12 6.27-.21 7.287-.567 12.19-4.257 2.94-2.214 8.272-6.084 11.847-8.6 7.563-5.32 10.853-8.662 17.99-18.267 8.49-11.425 17.19-31.194 17.313-39.338.148-9.822-7.628-17.735-18.506-18.83a17 17 0 0 0-1.853-.082z" style="fill:#80202d;fill-opacity:1"/><path d="m1300.459 788.501-6.883 3.768c-3.785 2.072-8.906 5.164-11.381 6.871-10.07 6.944-27.972 16.617-30.756 16.617-1.878 0-20.73 10.187-29.744 16.072-5.5 3.592-12.7 8.205-16 10.252-5.725 3.553-12.794 8.431-22.4 15.457-2.42 1.77-4.738 3.22-5.15 3.22-1.17 0-13.397 7.603-25.186 15.661-5.905 4.036-10.982 7.338-11.282 7.338s-3.775 1.83-7.724 4.068-10.8 5.45-15.22 7.137c-4.422 1.687-12.893 5.27-18.827 7.961l-10.79 4.895-2.55-3.032c-2.693-3.2-5.94-3.876-8.54-1.779-.854.688-2.345 5.075-3.317 9.75-.973 4.675-3.692 13.745-6.043 20.154-4.724 12.881-6.075 17.287-11.14 36.346-9.001 33.878-10.765 42.404-13.307 64.328-.596 5.131-1.718 10.306-2.497 11.5-.78 1.194-1.93 5.097-2.558 8.672-.63 3.575-1.542 8.75-2.028 11.5-1.64 9.303-3.941 32.646-3.941 39.99 0 7.106.093 7.386 3.533 10.407 1.944 1.707 4.094 3.103 4.778 3.103 2.654 0 5.689-3.143 5.689-5.894 0-2 1.252-3.953 4.46-6.96 5.207-4.88 19.714-21.64 24.362-28.146 7.236-10.125 25.783-31.882 27.227-31.94.852-.033 2.038.428 2.635 1.024.596.597 2.15.934 3.45.75 2.1-.297 2.345-.81 2.177-4.584-.207-4.637.58-5.099 4.689-2.75 5.44 3.11 9.797.53 8.414-4.98-.764-3.043-.43-3.078 4.61-.506l3.949 2.012 2.107-2.106c1.643-1.643 1.97-2.84 1.483-5.435-.76-4.05.19-4.783 4.24-3.254 2.65 1 3.392.902 5.146-.686 1.128-1.02 2.05-2.737 2.05-3.812 0-1.672.48-1.865 3.298-1.336 4.305.807 6.436-.864 7.518-5.897.85-3.963 1.213-4.222 4.252-3.037 1.908.744 6.933-2.995 6.933-5.16 0-1.2-.7-1.414-3.082-.938-1.694.34-2.92.283-2.723-.125 2.577-5.356 4.322-8.24 4.989-8.24.448 0 .816-.96.816-2.133 0-1.832 3.273-8.358 4.95-9.867.305-.275 2.57-3.2 5.032-6.5s7.7-9.6 11.64-14c3.938-4.4 9.759-11.825 12.933-16.5 10.55-15.54 23.033-34.448 25.416-38.5 3.6-6.125 15.942-26.33 19.85-32.5a1732 1732 0 0 0 5.658-9c1.196-1.925 3.358-5.3 4.806-7.5s3.342-6.025 4.21-8.5c2.47-7.048 10.257-21.624 16.92-31.674 3.347-5.045 7.749-12.245 9.784-16s4.908-8.795 6.383-11.203z" style="fill:#a73745;fill-opacity:1"/><path d="M2655.252 1151.615c-.04.033-.058.084-.068.14-33.725 189.35-476.812 431.765 0 554.934 1.705-.285 4.174-.29 7.496-.037 4.772.364 7.03 1.172 11.072 3.955 2.792 1.923 6.18 3.496 7.53 3.496s3.358.63 4.458 1.4c1.732 1.213 6.028 2.045 8.815 1.705.479-.058-.803-2.145-2.846-4.638-2.12-2.587-3.472-5.163-3.15-6 .838-2.184 5.408-1.774 8.732.783a1006 1006 0 0 1 5.9 4.58c1.636 1.282 4.986 3.351 7.444 4.596l4.469 2.261-3.168-4c-1.743-2.2-4.65-4.875-6.46-5.943-4.97-2.933-4.191-6.119 1.708-6.978 2.833-.413 5.024.338 11.5 3.94 4.4 2.445 8.675 4.87 9.5 5.39s3.075 1.624 5 2.455c1.925.83 4.625 2.131 6 2.888s4.3 1.67 6.5 2.028c2.2.357 5.012.855 6.25 1.11 3.168.65 2.859-1.684-.506-3.813-9.82-6.215-18.244-13.525-18.244-15.834 0-1.755 6.45-4.924 10-4.913 4.11.013 10.497 2.095 15.175 4.948 1.829 1.115 4.078 2.031 4.999 2.031s3.02 1.354 4.67 3.004 3.987 3 5.193 3c2.157 0 2.165-.043.408-2.75-.982-1.513-2.525-3.28-3.428-3.926-3.005-2.15-7.41-9.333-6.363-10.379 3.604-3.604 11.137-2.43 15.65 2.44 1.263 1.362 3.554 2.792 5.09 3.177l2.793.702-1.594-3.082c-2.282-4.413-2.04-6.182.848-6.182 1.343 0 2.694.41 3.004.912s2.476 1.234 4.81 1.627c2.335.393 5.516 1.783 7.07 3.088 1.556 1.305 3.64 2.373 4.63 2.373 2.62 0 3.366 2.987 6.418 3.031 1.17.017 3 .693 4.068 1.5 1.068.808 2.594 1.47 3.39 1.47 1.336 0 8.634 3.06 12.169 5.102 148.47 63.77 294.46 58.977 446.199 76.83 226.966-30.427 461.69 65.692 680.49 91.111.693.203 1.53.22 2.47.507 125.243 38.312 232.729 57.247 321.765 57.278 65.099.022 546.08 192.445 518.227 145.846-21.815-36.5-695.698-245.382-712.92-245.652l-37.893-.595c-8.096-37.74-23.12-65.912-23.12-115.426a28 28 0 0 1-1.837-.672c-1.907-.93-4.256-.966-6.07-2.176-2.02-.958-4.008-1.722-6.245-2.172-3.315-.88-682.424-257.619-700.574-263.697s-34.575-11.718-36.5-12.533-5.075-1.998-7-2.627c-8.695-2.843-55.446-18.735-74-25.154-11.275-3.9-23.2-7.88-26.5-8.844s-7.062-2.327-8.36-3.03-5.122-2.098-8.5-3.103c-6.694-1.992-30.704-10.454-48.14-16.967-6.05-2.26-13.7-4.943-17-5.965-5.155-1.596-44.184-15.323-71.5-25.148-25.04-9.005-60.058-22.8-68.9-27.143-13.353-6.558-25.97-18.1-42.911-39.26-25.364-31.684-38.076-39.917-57.591-37.302l-6.534.875-17.283-9.238a8295 8295 0 0 0-29.281-15.577c-19.633-10.368-61.913-31.335-78-38.68-8.25-3.769-21.446-9.973-29.322-13.786-7.877-3.814-15.977-7.542-18-8.287-2.013-.742-7.444-2.988-12.102-5.004" style="fill:#d27371;fill-opacity:1"/><path d="m1160.115 1010.99-59.355 33.777s-.321 1.735 4.066 2.156c6.747 1.507 7.494 1.204 7.594-3.086.137-5.86.118-5.84 3.775-3.58 6.017 3.72 8.63 2.505 8.63-4.002 0-3.466.755-3.585 5.382-.855l3.494 2.062 2.139-2.136c1.754-1.755 2.019-2.84 1.474-6.063-.577-3.415-.418-3.926 1.225-3.926 1.038 0 2.415.53 3.06 1.174 1.777 1.776 6.033-.553 6.832-3.738.576-2.293 1.04-2.555 3.61-2.04 4.513.901 6.569-.766 7.347-5.958.28-1.868.338-3.2.727-3.786m9.164-6.082c-2.552-.136-4.91.178-4.907.196 0 0-1.373 4.89-3.22 5.5.952.5 1.992.864 2.992 1.271 1.68.685 6.662-3.197 6.682-5.187.012-1.15-1.4-1.96-1.547-1.78" style="fill:#000"/><path d="M1526.519 675.64v.01l.014.012v.002c-.22.003-.338.047-.338.138 0 .505 1.23 1.225 2.73 1.602 1.502.377 5.215 2.075 8.25 3.771 3.037 1.697 6.834 3.76 8.44 4.584 1.606.825 3.126 2.121 3.377 2.881.633 1.913-2.943 1.151-15.474-3.295-5.598-1.986-13.923-4.09-18.5-4.674s-9.805-1.734-11.618-2.556c-1.812-.822-3.756-1.34-4.322-1.153-.565.19 5.417 3.465 13.295 7.28 11.85 5.737 13.835 6.998 11.502 7.3-1.551.2-4.251-.15-6-.777-6.6-2.365-23.618-5.105-35.385-5.695-13.178-.66-18.188.368-31.054 6.383-5.014 2.344-6.637 5.166-1.946 3.383 2.712-1.03 8.75-.568 14.455 1.11 4.697 1.38 5.44 2.56 2 3.175-26.94 4.812-44.644 10.73-55.732 18.625-1.554 1.106-3.264 2.011-3.8 2.011-.534 0-1.533.675-2.218 1.5-1.557 1.877-.093 1.95 2.528.127 1.085-.754 3.547-1.687 5.472-2.074s4.288-.924 5.25-1.195c2.98-.84 1.926 1.324-1.5 3.074-1.787.913-6.146 3.666-9.687 6.115s-7.03 4.453-7.75 4.453c-.721 0-1.313.422-1.313.938s2.138 1.225 4.75 1.574c10.275 1.374 15.487 2.505 18.823 4.088 4.027 1.911 11.427 9.904 11.427 12.342 0 .912.498 2.156 1.106 2.763 2.052 2.053 2.345 17.613.46 24.518-3.18 11.662-4.608 15.007-13.484 31.6-2.896 5.414-12.014 16.804-16.554 20.677-2.58 2.2-7.015 6.456-9.858 9.457-2.842 3.001-6.09 6.376-7.218 7.5-5.493 5.476-26.293 22.64-34.207 28.227-2.48 1.75-8.838 7.386-14.127 12.525s-12.768 11.438-16.618 13.996c-9.038 6.006-22.647 15.902-34 24.723-13.26 10.304-24.89 18.705-28.41 20.526-1.706.882-4.163 3.277-5.463 5.324s-4.971 6.102-8.158 9.01c-6.245 5.698-6.357 7.546-.455 7.546 3.788 0 5.98-2.06 6.879-6.472.556-2.73 1.24-3.455 3.646-3.862 1.63-.275 4.407-1.583 6.172-2.908 1.766-1.325 6.716-3.657 11-5.183 4.285-1.527 10.94-3.92 14.79-5.32 3.95-1.438 9.177-2.55 12-2.56 4.44-.014 5.69.514 11.165 4.727 6.025 4.636 12.33 11.656 21.332 23.744 2.458 3.3 7.643 9.825 11.524 14.5 14.585 17.57 21.262 27.756 28.058 42.807l3.75 8.307-6.693 13.193c-6.16 12.146-12.833 29.047-16.223 41.092-.758 2.694-1.623 5.143-1.921 5.441-.3.3-2.104-.02-4.012-.71-4.63-1.675-5.835-.748-5.09 3.911l.605 3.79-7.248.585c-3.986.324-14.448 1.05-23.248 1.614-16.552 1.06-21.11 1.867-28.12 4.986-7.308 3.25-16.23 16.793-18.59 28.217-1.371 6.643.039 5.507-15.29 12.32-10.184 4.527-11.84 5.205-17 6.96-5.154 1.752-6.996 2.433-11.796 4.362-1.54.62-2.041 2.938-3.358 2.938s-4.524-1.332-4.887-.744c-.363.587.923 3.233.076 2.908-.846-.325-3.02-.498-4.183.264-1.163.761-6.558-.238-9.856.103-9.028.934-16.592 2.28-20.496 3.65-1.925.673-5.525 1.607-8 2.071s-6.7 1.252-9.39 1.752-6.29.613-8 .252c-5.15-1.09-26.072 1.252-27.178 3.04-.302.49-1.954.891-3.67.891-3.108 0-8.696 1.455-11.998 3.124-.955.482-2.36.876-3.123.876-1.846 0-11.368 7.748-20.895 17-4.247 4.125-8.801 8.434-10.12 9.575-2.364 2.043-13.626 17.676-13.626 18.914 0 .35-1.237 3.196-2.75 6.324-2.314 4.786-2.736 6.917-2.662 13.443.082 7.255.33 8.106 3.818 13.172 2.052 2.98 5.96 8.04 8.682 11.244 10.157 11.957 12.064 13.328 18.53 13.328 3.026 0 3.673-.452 4.92-3.439 1.324-3.165 1.24-4.022-1.042-10.75-3.457-10.185-3.31-16.516.545-23.67 3.732-6.924 4.737-8.207 8.143-10.385 2.403-1.536 3.1-1.567 6.68-.304 2.197.775 5.16 2.172 6.583 3.105 2.868 1.88 9.644 2.12 13.922.492 3.048-1.158 9.63-7.183 9.63-8.814 0-2.583 15.854-14.713 20.597-15.76 1.597-.352 4.93-1.266 7.404-2.03 7.018-2.169 16.969-4.573 23-5.556a399 399 0 0 0 20.5-3.89c2.75-.602 7.475-1.484 10.5-1.96 19.868-3.137 17.207-3.185 36.422.68l8.922 1.793 4.326 5.994c8.347 11.563 8.213 9.806 1.887 24.627-3.056 7.16-5.557 13.372-5.557 13.805s-1.358 3.78-3.017 7.44c-1.772 3.907-3.268 9.226-3.625 12.888-.393 4.018-1.588 8.012-3.364 11.234a3069 3069 0 0 0-11.73 21.5c-4.102 7.598-12.24 19.025-20.014 28.104-2.337 2.73-4.25 5.371-4.25 5.871 0 1.172-21.478 22.763-26.31 26.45-2.03 1.547-3.69 3.235-3.69 3.75 0 .514-2.678 4.046-5.953 7.85-3.56 4.137-6.335 8.44-6.9 10.698a510 510 0 0 1-1.75 6.777c-2.097 7.816-2.017 22.773.15 27.96 2.193 5.248 7.929 13.888 12.45 18.757 2.189 2.356 3.98 4.605 3.99 4.998s1.41 2.306 3.117 4.25c2.722 3.1 3.674 3.533 7.75 3.52 7.455-.025 7.459-.032 6.654-14.11-.6-10.476-.444-13.026 1.002-16.625 1.377-3.427 2.196-4.25 4.232-4.25 2.425 0 6.139-.832 14.758-3.306 6.225-1.787 12.624-5.214 17-9.102 2.2-1.954 4.295-3.56 4.654-3.572.36-.01 2.11-2.598 3.89-5.748l3.232-5.729-.567-11.484-.566-11.486 5.28-8.537c2.906-4.696 6.224-10.383 7.374-12.637s8.607-10.66 16.572-18.682c12.445-12.532 15.513-15.076 21.807-18.086 8.875-4.243 17.342-6.053 24.207-5.172 7.264.933 8.76 2.055 14.736 11.041 2.926 4.4 6.123 8.872 7.102 9.938 1.887 2.055 2.102 2.785 1.832 6.217-.093 1.185.214 2.392.685 2.683.472.292.812 6.972.756 14.846-.105 14.977-1.044 19.968-5.992 31.816-1.263 3.025-3.21 8.425-4.326 12-6.118 19.603-5.69 17.952-6.744 26-.793 6.05 1.516 11.3 6.33 14.39 2.056 1.32 5.372 4.134 7.37 6.255 3.554 3.776 3.642 4.067 4.294 14.11.76 11.71 2.158 16.43 6.797 22.95 4.734 6.652 21.715 23.631 25.53 25.528 2.979 1.48 3.389 1.486 4.849.023 1.27-1.27 1.464-2.83.95-7.676-.838-7.92.943-23.252 3.339-28.748 1.94-4.452 2.8-5.172 11.969-10.012 2.947-1.555 6.322-4.052 7.5-5.547 3.4-4.317 7.314-12.422 8.1-16.773.396-2.2 1.625-6.615 2.73-9.81 1.674-4.844 1.894-7.174 1.322-14-.378-4.505-1.313-10.09-2.078-12.413-.765-2.322-1.157-4.836-.87-5.586.288-.749-.123-3.349-.915-5.777s-1.73-6.094-2.086-8.148c-.356-2.055-1.47-5.43-2.475-7.5-4.775-9.84-6.505-24.3-3.371-28.166l1.945-2.4 4.04 3.65c2.224 2.007 4.673 3.65 5.447 3.65.773 0 2.413.706 3.644 1.568 3.494 2.448 6.653 1.513 6.99-2.068.215-2.27-.892-4.605-4.546-9.6-6.136-8.385-10.61-18.196-9.918-21.746 1.792-9.2 7.608-24.049 10.855-27.718 1.005-1.136 1.844-2.486 1.867-3 .023-.515 1.763-2.839 3.867-5.165 3.608-3.987 11.238-8.232 14.926-8.304 6.649-.13 20.87-8.306 26.504-15.237 3.396-4.178 8.662-15.785 8.662-19.09 0-2.44 4.41-10.8 6.87-13.025 1.64-1.482 2.892-1.733 5.859-1.18 6.185 1.155 8.085 1.391 24.27 3.014 8.526.855 18.2 2.028 21.5 2.606s9.672 1.354 14 2.46c45.79 11.69 51.475 10.59 59.228 12.1 8.79 1.714-4.348 8.421-7.623 12.602-.38.483-.497 1.077-.418 1.39.096.384.506.721 1.076.887.892.26 2.12.193 4.984-.264 5.795-.924 7.71-1.143 9.57-1.1 1.144.028 1.319.053 1.54.218.565.42.31 1.064-.871 2.22-3.195 3.127-12.446 7.326-12.86 11.42-.077.763 1.084.29 1.955.45 5.685 1.037 39.946-16.15 39.946-16.15-.97 2.57-6.403 9.252-6.994 9.88-1.24 1.316-2.138 2.305-2.91 3.281-.95 1.206-1.462 2.108-1.323 2.276.234.282 2.92-1.169 6.22-3.35 1.406-.929.548-.378 2.237-1.49 0 0 6.69-3.708 19.416-11.893 1.2-.77 3.885-2.147 5.777-3.549 1.893-1.4 4.573-3.36 5.52-3.5 3.277-.48 4.146-4.237 4.705-1.44.262 1.31-5.64 8.771-5.64 8.771-1.501 1.634-1.045 1.118-2.05 2.271q-.952 1.094-1.228 1.623c-.11.213-.143.405-.07.436.32.137 1.909-.883 4.088-2.62 1.165-.93 1.74-1.415 3.998-3.376a139 139 0 0 1 4.955-4.122c5.26-4.169 10.077-7.239 19.418-12.396 12.529-6.917 18.595-9.736 22.463-12.67 2.428-1.84 4.79-4.772 18.129-11.764 10.33-5.415 16.234-8.16 25.07-13.256 5.55-3.2 17.822-9.275 19.664-9.86 2.144-.683.753-3.39 2.127-6.972.467-1.216-.053-1.578-2.25-1.566-21.867 21.07 11.9-18.407-8.285-1.016 35.569-62.556-109.026-128.698-149.502-128.877-12.595.097-18.452.884-24.342.983-6.434.107-79.36 22.452-88.767 31.93-1.06 1.17-3.487 2.781-5.393 3.578s-4.164 2.122-5.02 2.947c-1.346 1.3-15.726 10.51-21.554 13.807-1.1.622-3.41 2.257-5.13 3.632-1.722 1.375-5.447 4.075-8.28 6s-7.5 5.336-10.371 7.58c-2.871 2.245-7.471 5.62-10.223 7.502-2.751 1.883-5.901 4.222-7 5.2-2.576 2.29-10.294 8.388-15.47 12.218-10.433 7.72-15.19 12.043-16.66 15.137-2.09 4.407-8.952 12.074-9.94 11.107-.425-.415-.042-5.14.85-10.5.895-5.359 1.928-11.769 2.298-14.244.672-4.488 7.27-19.067 9.99-22.072.79-.87 1.436-1.846 1.436-2.164 0-.525 1.848-4.568 12.588-27.52 3.08-6.585 8.874-15.555 14.416-22.326 1.162-1.42 3.55-4.875 5.305-7.675s7.31-11.16 12.343-18.577c5.034-7.416 10.364-16.338 11.844-19.826s3.1-7.12 3.598-8.076c.498-.955.906-2.424.906-3.264s.406-2.308.904-3.263 1.96-5.75 3.25-10.653c1.458-5.542 3.386-10.228 5.096-12.386 1.512-1.91 2.75-3.905 2.75-4.432s.807-2.15 1.795-3.61c6.775-10.01 8.76-28.479 4.273-39.773-2.032-5.115-3.26-6.67-7.5-9.5-2.788-1.86-5.33-3.737-5.65-4.17-.683-.923 2.036-15.6 4.486-24.213 4.17-14.656 8.826-23.354 22.649-42.306 4.092-5.61 16.475-18.194 17.904-18.194.53 0 1.77-.82 2.754-1.826.984-1.004 3.364-2.43 5.289-3.166s4.175-1.904 5-2.596c2.028-1.7 9.5-4.395 15-5.41 2.475-.456 5.766-1.319 7.314-1.916 6.71-2.588 25.887-.458 35.186 3.908 2.2 1.034 6.25 2.322 9 2.864 12.73 2.507 18.758 6.797 30.447 21.672 2.778 3.535 5.053 6.71 5.053 7.054 0 .346 1.28 2.268 2.844 4.272s4.307 6.344 6.095 9.644c1.789 3.3 3.717 6.568 4.288 7.262 1.035 1.26 2.179 3.227 6.634 11.402 1.3 2.385 3.16 5.236 4.133 6.336 3.075 3.477 16.388 23.657 21.44 32.5 2.67 4.675 5.885 10.075 7.146 12 1.26 1.925 2.62 4.85 3.02 6.5s1.729 4.575 2.957 6.5 2.766 5.188 3.416 7.25 1.596 3.75 2.103 3.75.923.563.922 1.25c0 2.416 13.239 32.916 15.227 35.07 1.106 1.2 6.017 8.255 10.914 15.68l12.478 18.92c1.967 2.982 3.838 6.132 4.156 7 .319.87 2.45 3.83 4.74 6.58s5.699 7.164 7.575 9.81c11.05 15.58 22.84 27.74 27.406 28.27.553.063 1.552.184 2.22.268.67.084 2.694 1.436 4.5 3.006s4.91 3.616 6.893 4.547c1.984.93 4.91 2.945 6.5 4.476s5.364 4.098 8.385 5.703 6.086 3.71 6.81 4.676c1.56 2.076 6.868 5.075 9.698 5.48 4.716.672 31.466.737 36.473.087 3.01-.39 5.558-.623 5.664-.516s.72 4.918 1.365 10.693 2.032 14.05 3.084 18.387c1.052 4.338 1.914 8.892 1.914 10.117 0 1.986 3.792 13.851 8.465 26.492.915 2.475 4.335 10.06 7.597 16.856s5.932 12.554 5.932 12.797c0 1.44 13.028 22.966 22.635 37.4 1.3 1.955 2.365 4.038 2.365 4.63 0 .59.735 1.684 1.635 2.43s2.764 3.164 4.14 5.372c6.405 10.27 25.118 30.631 35.344 38.455 2.474 1.892 5.915 5.492 7.647 8 3.517 5.094 16.476 21.322 20.049 25.107 1.9 2.013 2.034 2.51.75 2.776-2.068.427-1.974 1.388.435 4.45 2.644 3.362 2.542 4.255-1 8.727-1.65 2.084-3 4.198-3 4.7s-1.162 2.46-2.58 4.355c-1.418 1.894-3.69 5.47-5.047 7.945a572 572 0 0 1-4.17 7.471c-2.565 4.474-20.184 28.812-22.101 30.53-.921.824-5.61 6.674-10.416 13-4.808 6.324-11.316 14.701-14.463 18.615-3.148 3.913-8.391 10.438-11.65 14.5s-7.536 9.235-9.5 11.498c-1.966 2.262-6.048 7.13-9.073 10.818s-7.546 9.037-10.045 11.887c-4.966 5.662-16.955 22.09-16.955 23.23 0 .392-1.575 2.905-3.5 5.584-1.925 2.68-3.5 5.348-3.5 5.93s-1.575 3.12-3.5 5.64c-1.925 2.522-3.5 4.948-3.5 5.391s-1.462 2.906-3.25 5.473c-1.787 2.566-4.201 6.367-5.363 8.447s-4.196 6.488-6.742 9.797-5.082 7.066-5.635 8.352c-3.98 9.24-6.57 12.305-13.774 16.31-7.55 4.196-12.22 7.398-27.564 18.902-5.044 3.782-14.347 10.276-20.672 14.43-17.677 11.61-31.092 21.155-35.5 25.26-2.2 2.05-5.8 4.633-8 5.742-2.2 1.11-5.431 3.52-7.18 5.356-3.657 3.84-9.767 15.47-11.21 21.337-.54 2.2-1.912 7.375-3.05 11.5-4.234 15.363-6.491 35.217-5.056 44.467l1.082 6.975-12.293 12.062c-16.26 15.957-32.43 30.79-34.72 31.848-1.015.468-2.422 1.93-3.128 3.25s-1.636 2.398-2.066 2.398c-.934 0-14.285 17.81-17.617 23.5-2.376 4.058-2.95 5.092-5.223 9.42a371 371 0 0 1-3.576 6.553c-3.543 6.346-6.46 15.081-8.521 25.527-1.032 5.225-2.367 11.975-2.963 15s-2.17 10.184-3.495 15.91c-1.324 5.723-2.16 10.806-1.86 11.294.504.814 1.276 25.932 1.747 56.796l.192 12.5 4.629 9.5c5.6 11.493 17.495 27.597 25.664 34.743 6.469 5.66 26.7 17.475 29.132 17.015 3.038-.574 2.086-3.902-2.724-9.533-5.917-6.926-8.876-11.108-12.54-17.717-5.298-9.56-5.181-9.027-3.372-15.256 1.703-5.866 2.34-16.785 3.113-53.252.64-30.273 1.88-37 7.404-40.263 4.935-2.915 13.73-12.28 16.067-17.104 1.23-2.542 2.69-4.903 3.244-5.246 2.243-1.386 7.003-14.098 7.478-19.973.399-4.922.097-6.789-1.582-9.779-3.035-5.404-2.64-7.697 2.205-12.707 9.972-10.312 30.885-25.376 43.22-31.133 2.2-1.026 4.674-2.295 5.5-2.82.824-.525 3.203-1.878 5.288-3.006s4.18-3.073 4.654-4.322 3.41-3.818 6.522-5.709 8.444-5.507 11.85-8.035c11.957-8.878 17.066-10.208 26.248-6.834 7.416 2.725 9.696 4.784 12.482 11.26 1.832 4.258 2.115 6.328 1.664 12.152-.532 6.87-4.706 20.543-7.18 23.52-.685.824-1.743 2.98-2.351 4.792s-2.023 4.582-3.143 6.155-2.035 3.298-2.035 3.834c0 .535-.624 1.492-1.387 2.125-1.645 1.365-8.613 15.376-8.613 17.32 0 .743-.872 3.06-1.937 5.148-2.236 4.386-9.376 31.14-11.643 43.625-.85 4.675-1.973 13-2.5 18.5s-1.17 11.575-1.426 13.5c-.257 1.925-.744 9.35-1.084 16.5s-.778 16.09-.972 19.864-1.125 9.175-2.067 12c-2.702 8.103-2.404 30.34.57 42.636 1.41 5.833 2.375 13.168 2.499 19 .18 8.49.524 10.085 3.228 15 1.664 3.025 5.408 10 8.32 15.5 8.198 15.484 13.11 24.72 14.887 27.995 2.646 4.876 15.43 20.645 20.72 25.56 7.21 6.697 15.059 10.901 32.405 17.356 8.525 3.172 17.476 6.654 19.893 7.736 2.74 1.227 4.747 1.614 5.334 1.027.99-.99-2.733-4.943-14.15-15.01-10.113-8.922-13.401-12.467-15.975-17.228-3.318-6.136-11.102-21.324-11.102-21.66v-.01c.102-.146 1.775-.266 3.805-.266 5.86 0 7.637-1.809 6.816-6.94-.65-4.069-2.177-7.448-6.805-15.06-1.17-1.925-2.481-5.075-2.914-7-.432-1.925-1.751-6.65-2.931-10.5s-2.574-8.8-3.096-11-1.608-5.419-2.414-7.152-1.465-3.464-1.465-3.846-.975-2.063-2.168-3.738c-1.934-2.716-2-3.17-.605-4.19 1.793-1.31 5.755-8.036 5.806-9.855.02-.67.904-3.019 1.967-5.219s1.946-5.086 1.965-6.414c.052-3.73-2.986-19.854-5.096-27.045-1.042-3.55-2.17-9.432-2.507-13.068-.516-5.545-.256-7.408 1.607-11.543 1.222-2.712 3.71-8.98 5.53-13.93 1.819-4.95 4.7-11.998 6.404-15.662s3.097-6.913 3.097-7.22c0-.308 1.066-2.935 2.37-5.838 3.449-7.675 7.63-18.455 7.63-19.674 0-.58 1.486-4.103 3.303-7.83 10.28-21.089 18.958-29.416 46.697-44.815 12.29-6.823 31.823-19.497 36.186-23.482 4.668-4.264 6.796-8.105 6.806-12.26 0-2.69.513-3.965 1.758-4.414.963-.347 2.98-1.483 4.483-2.524 2.562-1.775 2.94-1.793 6.115-.287 4.563 2.166 15.652 17.904 15.652 22.215 0 .765.682 2.711 1.518 4.326 1.604 3.102 2.165 10.224 2.986 37.965.778 26.262.774 35.591-.023 50.227-.75 13.695-.747 13.732 1.795 17.064 2.192 2.874 2.536 4.31 2.463 10.276-.096 7.793 1.413 11.544 8.82 21.933 9.046 12.688 20.3 22.098 33.942 28.377 11.404 5.25 11.86 5.537 14.09 8.846 1.774 2.63 4.605 8.88 7.824 17.277.316.825.99 2.175 1.498 3s1.68 3.3 2.605 5.5c3.184 7.573 7.747 16.014 11.895 22 2.286 3.3 5.863 8.813 7.947 12.25 2.084 3.438 4.143 6.25 4.578 6.25s1.37-2.72 2.076-6.047c2.3-10.836-1.135-39.915-8.025-67.953-4.178-17-4.266-17.68-2.705-22.234 3.123-9.11 3.545-11.497 3.223-18.266-.412-8.63-2.312-29.762-3.102-34.5-1.59-9.54-3.734-19.665-4.46-21.058-.445-.858-1.5-5.52-2.345-10.362-.845-4.84-1.945-9.314-2.45-9.94-.503-.628-1.25-2.715-1.657-4.64-1.53-7.24-4.234-11.895-19.47-33.5-5.383-7.63-11.556-21.482-12.622-28.316-.444-2.844-.123-6.254.945-10 .892-3.126 2.568-9.059 3.725-13.184 2.399-8.549 9.618-23.556 13.984-29.068 1.62-2.047 2.946-4.226 2.946-4.844 0-1.248 12.044-18.09 12.937-18.09.31 0 2.363-1.625 4.563-3.61 2.2-1.987 8.5-7.486 14-12.22 5.5-4.736 12.025-10.49 14.5-12.789 6.256-5.808 13.208-11.13 22-16.846a3836 3836 0 0 0 11.054-7.203c1.955-1.28 3.885-2.33 4.29-2.33.407 0 1.284-.454 1.949-1.01.664-.555 4.59-3.18 8.728-5.832 8.034-5.148 16.69-13.44 19.996-19.158 4.06-7.022 6.965-13.55 6.975-15.674.012-2.702 1.95-12.137 3.045-14.826.448-1.1 1.022-3.125 1.28-4.5 2.216-11.863 4.2-19.04 6.08-22 1.22-1.925 3.206-5.637 4.415-8.25 1.209-2.612 2.488-4.75 2.838-4.75.722 0-.278 18.523-1.475 27.31-.434 3.194-.42 6.04.037 6.321.458.283 1.918-1.935 3.243-4.93 2.76-6.244 4.876-22.013 3.904-29.107-.77-5.61 1.086-6.339 2.148-.844.4 2.063.786 10.837.86 19.5.1 11.862.44 15.75 1.383 15.75.687 0 1.25-.698 1.25-1.55s.658-2.816 1.459-4.364c.8-1.547 1.927-6.136 2.507-10.199s1.493-9.862 2.03-12.887 1.272-8.1 1.633-11.28l.654-5.782 1.86 3.054c1.02 1.681 1.857 3.968 1.857 5.082s.676 3.33 1.5 4.922c.823 1.593 1.423 3.707 1.337 4.7-.39 4.498.237 14.302.913 14.302.412 0 1.617-3.713 2.675-8.25 1.059-4.536 2.247-8.923 2.64-9.748.395-.825 1.71-5.889 2.923-11.252 1.588-7.033 2.007-11.144 1.512-14.75-.402-2.919-.3-4.998.246-4.998 1.616 0 3.338 5.09 3.955 11.696.584 6.261 1.637 8.372 3.328 6.667.47-.474 1.587-5.588 2.478-11.363.89-5.775 2.333-12.422 3.202-14.77 3.256-8.8-.627-25.448-8.89-38.118-2.65-4.064-4.82-7.94-4.82-8.612s1.126-2.874 2.497-4.894c1.7-2.508 2.098-3.777 1.25-3.998-.684-.179-2.821-.812-4.746-1.407-1.925-.594-5.08-1.362-7.012-1.707-6.651-1.187-9.11-4.64-7.647-10.744 12.563-30.119 54.068-164.164 60.32-55.25.537 30.935.794 36.932 1.65 38.256.449.692 1.026 4.742 1.284 9 .856 14.12 6.395 47.486 8.55 51.516.638 1.19 1.48 4.877 1.876 8.195.844 7.095 4.726 26.31 5.6 27.725.78 1.264 1.136 7.056 1.853 30.2.322 10.392.79 19.223 1.04 19.626.248.402.929 5.176 1.51 10.607.583 5.431 1.733 13.925 2.56 18.875.826 4.95 1.968 11.925 2.537 15.5 3.25 20.428 6.932 35.697 17.37 72 .712 2.475 2.496 9 3.96 14.5 6.905 25.942 13.777 41.275 27.67 61.701 2.132 3.136 3.879 5.986 3.879 6.332s1.518 2.507 3.375 4.8 4.08 5.554 4.94 7.251c.862 1.697 3.532 5.522 5.93 8.5 7.12 8.84 12.755 18.194 12.755 21.162 3.303 11.265 25.713 40.927 29 46.864 2.067 3.733 14.24 17.89 15.382 17.89.512 0 .255-.787-.566-1.75-2.515-2.949-9.4-16.434-11.361-22.25-1.02-3.025-2.216-5.928-2.655-6.45-1.01-1.203-1.047-4.565-.05-4.509 1.179.067 4.907 6.382 6.265 10.614.678 2.114 2.264 5.87 3.525 8.345a1361 1361 0 0 1 5.516 11c1.772 3.575 4.005 7.4 4.965 8.5s2.483 3.463 3.387 5.25c.903 1.788 2.08 3.25 2.617 3.25 1.28 0 1.29.041-1.026-4.5-1.1-2.157-2-4.435-2-5.062s-1.052-3.12-2.338-5.54c-3.308-6.226-5.857-14.368-5.482-17.515.279-2.338.888-1.667 4.746 5.22 6.249 11.151 17.464 26.806 24.445 34.118 9.002 9.43 26.158 20.28 32.065 20.28 3 0 4.006-1.384 2.324-3.198-.693-.747-2.302-2.83-3.576-4.63-2.513-3.55-2.613-6.438-.14-4.017.8.784 4.186 3.883 7.523 6.885 12.779 11.5 19.67 17.47 20.535 17.791 1.946.723.754-3.619-1.602-5.832-2.495-2.344-3.33-5-1.572-5 .51 0 1.62.692 2.467 1.537 2.59 2.592 15.908 10.463 17.7 10.463.93 0 1.954-.687 2.276-1.527.5-1.3 1.33-1.152 5.588 1.006 16 8.108 35.297 13.393 73.04 20.006 23.344 4.09 47.25 9.062 49.783 10.355.944.482 5.318 1.674 9.718 2.647s10.25 2.38 13 3.125c6.857 1.86 18.075 3.952 37 6.906 18.276 2.852 27.04 4.747 37 8 16.946 5.534 47.028 12.303 69 15.527 3.85.565 9.925 1.462 13.5 1.992 3.575.531 12.125 1.605 19 2.39 6.875.783 18.662 2.125 26.194 2.981 14.71 1.674 19.394 2.542 30.306 5.622a15750 15750 0 0 0 30.5 8.523c12.925 3.601 25.525 7.185 28 7.965s8.775 2.784 14 4.455c5.225 1.67 11.525 3.645 14 4.387 14.36 4.304 19.662 5.975 21 6.615.825.394 3.975 1.295 7 2.002s6.02 1.695 6.655 2.197 5.722 2.22 11.304 3.814c8.49 2.427 22.055 7.992 46.54 19.098 16.078 7.292 43.03 15.7 62 19.344 22.147 4.253 21.586 4.047 26.79 9.787 2.635 2.905 6.034 7.083 7.55 9.283 10.293 14.92 15.16 22.387 15.16 23.254 0 .55.676 1.562 1.5 2.246.826.685 1.5 2.165 1.5 3.29 0 3.338 1.238 1.084 1.65-3.009.47-4.635 2.373-14.28 2.818-14.28.179 0 1.805 2.362 3.615 5.25 25.613 35.09 27.646 52.931 22.963 6.25-.657-6.716-1.83-11.286-4.615-18-2.054-4.95-4.34-9.713-5.082-10.58-1.781-2.087-1.72-4.92.105-4.92 1.88 0 6.086 1.84 10.778 4.714 2.05 1.257 3.964 2.285 4.25 2.285 1.494 0 .082-6.132-3.48-15.12-2.2-5.55-3.966-10.608-3.923-11.237.052-.747.255-.709.584.107.278.688 1.077 1.25 1.776 1.25s3.17 2.706 5.49 6.014c6.314 9.001 7.742 6.493 4.006-7.035-3.582-12.97-9.888-20.646-22.18-26.994-3.71-1.917-6.75-3.823-6.75-4.235s1.768-2.574 3.934-4.806c4.583-4.723 7.144-11.583 6.64-17.788-.287-3.533-.897-4.67-3.271-6.115-2.806-1.707-3.005-1.705-5.223.092-3.06 2.478-4.222 2.356-3.66-.383 1.59-7.75 1.486-9.269-.82-12.09-30.184-1.332-46.128-22.037-67.676-38.552-4.146-3.168-14.1-9.65-18.428-11.996-2.2-1.193-5.35-3.022-7-4.065-5.13-3.243-24.656-12.74-32-15.564-3.85-1.48-8.35-3.297-10-4.037-10.352-4.646-43.11-18.536-50.5-21.412-10.125-3.942-35.333-12.766-52.5-18.38-9.35-3.057-21.5-7.18-27-9.167-5.5-1.986-12.475-4.409-15.5-5.383s-6.4-2.24-7.5-2.813c-4.304-2.239-52.014-16.864-66.5-20.384-12.81-3.114-21.111-5.684-40-12.387-10.454-3.71-32.38-15.28-45.691-24.11-9.675-6.42-25.076-18.743-34.875-27.908-4.993-4.669-19.724-17.016-23.965-20.086-2.217-1.604-6.042-4.57-8.5-6.59s-8.752-7.195-13.986-11.5c-5.235-4.304-11.063-9.034-12.953-10.51-3.207-2.507-3.348-2.853-2.106-5.175.74-1.382 1.054-3.596.707-4.978-.824-3.282-11.094-10.99-20.63-15.487-7.68-3.62-15-8.627-15-10.258 0-.502 1.622-3.175 3.607-5.937l3.61-5.024-2.614-2.054c-3.903-3.07-4.866-4.206-7.604-8.967-2.232-3.882-9.205-11.453-13.906-15.098-.95-.736-3.947-2.417-6.66-3.736a3266 3266 0 0 1-6.67-3.25c-.955-.468-2.418-.852-3.25-.852-2 0-1.88-.974.486-4 2.393-3.059 2.515-5.327.385-7.095-1.258-1.044-6.496-1.298-23.75-1.147l-22.135.194 6-5.205c3.3-2.864 10.44-9.64 15.87-15.057 7.18-7.166 9.57-10.149 8.77-10.95-.8-.8-1.787-.777-3.62.08a130 130 0 0 1-4.77 2.102c-10.911 4.475-19.202 7.73-24.25 9.516-3.3 1.168-6.45 2.4-7 2.736-1.277.781-23.823 7.837-24.11 7.545-.932-.953-3.472-26.323-3.946-39.424-.514-14.19-.318-17.54 1.59-26.96 1.197-5.918 3.95-15.952 6.117-22.298s4.32-12.99 4.785-14.77c.465-1.777 1.795-4.84 2.955-6.806s2.11-4.423 2.11-5.459.392-2.126.87-2.422c.48-.296 1.15-1.933 1.49-3.638.342-1.706 1.289-4.528 2.104-6.272 2.117-4.525 13.39-34.312 15.014-39.67.75-2.475 2.72-8.55 4.379-13.5s3.953-12.375 5.1-16.5 2.525-8.883 3.064-10.572c.538-1.689.988-3.714 1-4.5s.873-2.534 1.912-3.887l1.889-2.459 2.175 4.96c6.34 14.45 10.945 22.208 18.639 31.392 8.474 10.115 13.655 14.536 21.096 18.006 30.444 11.568 69.775 25.25 102.78 21.05 2.229-1.85 102.946 23.472 137.235 31.223 6.31 1.407 10.25 2.768 10.25 3.537 0 .688-.397 1.25-.884 1.25-.488 0-1.625 1.463-2.528 3.25-.903 1.788-2.077 3.925-2.611 4.75-40.978 63.338-6.288 155.113 67.004 148.938 58.907-9.462 75.346-65.09 84.053-115.13.76-4.78 1.757-7.898 2.632-8.233.775-.298 3.304.12 5.62.927 2.319.808 4.973 1.473 5.898 1.483 1.829.016 3.346 3.352 2.297 5.05-.358.58-.113 1.7.545 2.493 13.852 28.08 27.989 66.678 71.084 54.814 4.184-1.282 8.755-3.233 10.158-4.336s2.807-2.006 3.123-2.006c1.133 0 7.31-6.579 9.857-10.5 1.43-2.2 4.028-7.447 5.776-11.66 3.106-7.485 23.63-3.87 26.43-2.68 3.19 1.454 3.19 2.29-.013 5.49-2.16 2.16-2.623 3.68-2.966 9.706-.224 3.93.01 9.62.51 12.644 2.419 18.26-.113 49.655 27.353 51.14 6.762.08 13.007-1.81 15.803-4.788 22.186-16.736 7.073-58.46 6.752-58.803-1.11-1.18-1.177-4.549-.094-4.549.44 0 1.284.484 1.875 1.075.59.59 2.142 1.224 3.449 1.408 6.106.86 11.978 2.356 13.193 3.365.736.61 4.453 1.556 8.26 2.1 147.975 82.634 396.826 134.326 541.19 134.326-1.293 22.003 71.338 41.705 123.09 41.261 10.95-.094 11.292-3.376 17.4-3.52 33.608-.137 684.979 189.705 691.033 192.148 5.903 2.153 11.63 4.708 17.515 6.9 35.19 16.201 105.983 61.82 128.786 76.683 88.186 57.476 148.862 143.485 185.806 243.18 94.544 255.127-105.581 523.07-177.625 613.81-3.4 4.21-6.867 8.361-10.34 12.508-2.29 2.771-4.585 5.546-6.74 8.424-2.482 3.443-11.048 20.606-16.328 27.055-3.473 4.243-7.636 9.783-9.25 12.322-45.805 72.068-279.747 251.624-309.683 317.832-1.185 2.396-1.87 4.996-2.735 7.518-9.864 26.66-15.536 46.84-15.621 47.094-2.176 5.778-4.113 11.63-6.268 17.414-.415 1.294-1.06 2.49-1.65 3.71.02-.01.03-.02.05-.03 2.057-1.297 4.126-2.577 6.155-3.916 1.654-1.075 3.183-2.326 4.666-3.623 14.964-25.792 37.294-53.014 58.547-72.87.948-.866 1.794-1.878 2.715-2.785 1.372-1.462 229.785-174.583 288.965-273.523 1.135-2.108 2.13-4.29 3.412-6.32 126.776-148.287 197.692-312.875 250.642-501.225 20.265-76.4 12.696-187.724-52.652-313.535-166.3-305.368-551.545-408.913-852.236-510.215-14.04-3.844-27.978-7.888-41.625-12.955-7.45-2.416-14.865-4.902-22.47-6.81-15.163-4.395-30.428-8.422-45.5-13.114-12.082-3.842-24.134-7.78-36.221-11.602-6.964-2.193-13.702-5.114-20.893-6.51-19.518-4.876-38.726-10.878-57.87-17.044-34.31-10.456-69.038-19.548-103.032-31.047-26.695-8.678-53.111-18.198-79.903-26.545-10.52-3.246-20.892-6.903-31.412-10.147-9.885-2.895-20.097-4.717-30.15-6.925-9.93-1.838-19.844-3.6-29.617-6.172-13.841-3.552-27.222-8.59-40.56-13.68-18.5-6.868-37.212-13.17-55.55-20.46-10.925-4.367-21.917-8.568-32.812-13-4.391-2.107-8.73-4.304-13.12-6.41-3.066-1.646-5.813-3.082-8.77-4.974l-.157-.066c-5.583-2.455-10.954-5.323-16.543-7.746-6.348-2.596-12.65-5.35-19.13-7.59-5.82-1.884-11.715-3.346-17.641-4.859a610 610 0 0 1-30.64-9.678c-6.067-2.04-12.093-4.31-18.14-6.316-13.548-4.492-21.186-12.154-23.72-19.727a548 548 0 0 0-4.926-1.59c-28.69-9.104-34.565-11.029-35.5-11.63-.55-.354-3.7-1.415-7-2.358s-7.35-2.346-9-3.119c-2.555-1.197-43.243-14.978-75.5-25.572-5.225-1.716-11.525-3.91-14-4.875-5.362-2.09-12.808-4.658-19-6.55-2.475-.757-9.675-3.228-16-5.49a1627 1627 0 0 0-23.075-8.023c-6.366-2.148-13.79-4.865-16.5-6.037-2.708-1.172-7.85-3.037-11.425-4.146-3.575-1.11-6.891-2.252-7.37-2.54-.478-.29-9.028-3.343-19-6.783-20.682-7.134-45.941-16.064-59.13-20.906-4.95-1.817-15.525-5.68-23.5-8.586-7.975-2.905-16.32-6.084-18.543-7.064-2.224-.98-6.95-2.896-10.5-4.256-19.1-7.313-31.164-14.766-42.348-26.162-6.49-6.614-18.245-20.273-23.453-27.254-5.753-7.71-21.397-22.597-27.526-26.193-7.943-4.662-16.137-6.292-24.867-4.946-7.942 1.225-5.49 2.277-45.763-19.633-21.6-11.75-94.09-47.478-96.33-47.478-.351 0-6.143-2.727-12.87-6.059s-15.396-7.43-19.265-9.109c-3.87-1.678-8.385-3.643-10.035-4.367-5.013-2.2-15.642-6.497-22.23-8.988-3.428-1.296-9.053-3.676-12.5-5.288-13.565-6.34-17.584-8.146-22.333-10.033-4.95-1.966-15.131-6.704-38.437-17.886-6.875-3.3-15.327-7.025-18.782-8.28s-6.536-2.696-6.85-3.203c-1.147-1.856.743-2.104 4.042-.53 6.396 3.05 6.19-.29-.871-14.095-3.02-5.904-7.714-13.203-10.5-16.33-2.772-3.11-5.04-5.906-5.04-6.217 0-1.07 5.286 1.445 8.218 3.912 3.174 2.672 5.788 3.226 5.773 1.223-.02-2.49-6.05-11.7-11.557-17.648-6.313-6.82-16.625-13.655-28.175-18.676-4.255-1.85-7.854-3.718-8-4.15-.333-1.003 8.91-5.276 11.41-5.276 2.44 0 6.33-2.73 6.33-4.44 0-1.779-3.337-3.816-10-6.103-11.386-3.91-33.48-1.764-52.028 5.053-2.471.908-7.152 1.158-15.617.832-17.082-.658-28.187 2.604-41.55 12.203-2.644 1.9-4.992 3.455-5.217 3.455-.226 0-5.323-3.488-11.327-7.75-14.814-10.519-19.564-13.84-27.76-19.418-3.85-2.62-9.31-6.468-12.134-8.549-19.384-14.282-20.076-14.72-34.365-21.822-3.575-1.777-8.25-4.632-10.387-6.346-2.138-1.713-4.275-3.115-4.748-3.115s-2.547-1.499-4.611-3.33-6.004-4.835-8.754-6.676c-2.75-1.84-9.05-6.917-14-11.28-25.71-22.657-48.372-32.57-111.5-48.767-2.904-.745-5.827-1.395-7.64-1.719.073-2.72-5.994-5.973-17.686-5.705-10.092.232-10.263-.88-.674-4.384 12.088-4.417 15-5.655 15-6.38 0-1.156-7.212-.906-13.102.454-4.12.95-5.343.95-5.66 0-.494-1.482-3.69-1.577-6.29-.186-1.055.566-3.84 1.45-6.185 1.967-5.297 1.167-20.41 6.32-21.38 7.29-.395.393-2.073.716-3.731.716-2.863 0-2.527-.456 6.668-9.086 5.324-4.997 9.68-9.445 9.68-9.883s-1.688-.193-3.75.543-5.668 1.357-8.012 1.381c-5.95.061-19.807.177-26.227 7.66-5.67 6.612-14.543 7.61 6.12-7.8 6.156-4.59 5.12-5.298 4.865-5.553-.582-.582-7.34 3.057-12.3 5.127-2.06.86-4.306 1.901-5.392 2.71-1.061.792-6.153 3.278-10.75 5.983-4.596 2.705-8.835 3.93-9.71 3.768-2.502-.468-35.028-7.35-45.344-10.696-9.966-3.232-36.161-16.623-53.16-25.648-6.05-3.212-14.226-7.418-18.674-9.766s-14.327-6.935-19.504-8.98-9.34-3.714-10.99-4.53c-1.65-.815-6.242-2.626-12.842-5.287-11.122-4.484-26.287-11.907-32.23-15.732-9.413-6.06-36.136-17.883-51.08-23.94-40.142-16.276-50.503-20.509-60.52-24.734-6.05-2.55-13.925-5.773-17.5-7.158s-10.775-4.48-16-6.875c-12.942-5.932-28.89-12.062-51.5-19.797-10.45-3.575-23.5-8.157-29-10.18-21.447-7.888-30.606-10.773-46.5-14.644-9.075-2.21-18.525-4.936-21-6.055-6.835-3.09-18.515-6.945-20.658-6.922zm221.977 1018.686 1.6 2.464c.879 1.356 3.31 4.343 5.402 6.637l3.805 4.17-8.39 8.58c-7.975 8.158-11.737 10.68-10.284 6.893.356-.928 1.715-6.739 3.023-12.913s2.933-12.262 3.61-13.529z" style="fill:#ab3646;fill-opacity:1"/><path d="m1369.555 1048.64-.723 1.424c-6.16 12.146-12.833 29.047-16.223 41.092-.758 2.694-1.623 5.143-1.922 5.441-.3.298-2.103-.02-4.011-.71-4.63-1.675-5.835-.748-5.09 3.911l.606 3.79-7.25.585c-3.985.324-14.447 1.05-23.247 1.614-16.552 1.06-21.11 1.867-28.12 4.986-7.308 3.25-16.23 16.793-18.59 28.217-1.371 6.643.039 5.507-15.29 12.32-10.184 4.527-11.84 5.205-17 6.96-26.22 8.914-30.471 9.466-34.004 9.831-9.028.934-16.592 2.28-20.496 3.65-1.925.674-5.525 1.607-8 2.071s-6.7 1.252-9.39 1.752-6.29.613-8 .252c-5.15-1.09-26.072 1.252-27.178 3.04-.302.49-1.954.891-3.67.891-3.108 0-8.696 1.455-11.998 3.123-.955.483-2.36.877-3.123.877-1.845 0-11.368 7.748-20.895 17-4.247 4.125-8.801 8.434-10.12 9.575-2.364 2.043-13.626 17.676-13.626 18.914 0 .35-1.237 3.195-2.75 6.324-2.314 4.786-2.736 6.917-2.662 13.443.082 7.254.33 8.106 3.819 13.172 2.05 2.98 5.959 8.04 8.68 11.244 10.158 11.957 12.065 13.328 18.53 13.328 3.027 0 3.674-.453 4.922-3.44 1.323-3.165 1.24-4.02-1.043-10.75-3.456-10.185-3.31-16.515.545-23.669 3.732-6.924 4.737-8.207 8.143-10.385 2.403-1.536 3.1-1.567 6.68-.304 2.198.775 5.16 2.172 6.584 3.105 2.868 1.88 9.644 2.12 13.92.492 3.049-1.158 9.632-7.183 9.632-8.814 0-2.583 15.853-14.714 20.596-15.76 1.597-.352 4.93-1.266 7.404-2.03 7.018-2.169 16.97-4.573 23-5.556a399 399 0 0 0 20.5-3.89c2.75-.602 7.475-1.484 10.5-1.962 19.869-3.135 17.207-3.183 36.422.682l8.922 1.793 4.326 5.994c8.347 11.563 8.213 9.805 1.887 24.627-3.056 7.16-5.557 13.372-5.557 13.805s-1.358 3.78-3.017 7.44c-1.772 3.907-3.267 9.226-3.625 12.888-.393 4.018-1.588 8.012-3.363 11.234a3069 3069 0 0 0-11.731 21.5c-4.102 7.598-12.24 19.024-20.014 28.104-2.337 2.73-4.25 5.371-4.25 5.871 0 1.172-21.477 22.763-26.31 26.45-2.03 1.547-3.69 3.234-3.69 3.75 0 .514-2.678 4.046-5.953 7.85-3.56 4.137-6.335 8.44-6.9 10.698a510 510 0 0 1-1.75 6.777c-2.097 7.816-2.017 22.773.15 27.96 2.193 5.248 7.93 13.888 12.45 18.757 2.189 2.356 3.98 4.605 3.99 4.998s1.41 2.306 3.117 4.25c2.722 3.1 3.674 3.533 7.75 3.52 7.455-.025 7.459-.032 6.654-14.11-.6-10.476-.444-13.027 1.002-16.625 1.377-3.427 2.196-4.25 4.232-4.25 2.425 0 6.139-.832 14.758-3.306 6.225-1.788 12.625-5.214 17-9.102 2.2-1.955 4.295-3.56 4.655-3.572.36-.01 2.11-2.598 3.888-5.748l3.233-5.729-.567-11.484-.566-11.486 5.28-8.538c2.906-4.695 6.224-10.382 7.374-12.636s8.607-10.66 16.573-18.682c12.444-12.532 15.512-15.076 21.806-18.086 8.876-4.243 17.342-6.053 24.207-5.172 7.265.933 8.76 2.055 14.737 11.041 2.925 4.4 6.122 8.872 7.1 9.938 1.888 2.055 2.104 2.785 1.833 6.217-.093 1.185.214 2.392.686 2.683.47.292.812 6.972.756 14.846-.106 14.977-1.045 19.968-5.993 31.816-1.263 3.025-3.21 8.425-4.326 12-6.118 19.603-5.69 17.952-6.744 26-.793 6.05 1.516 11.3 6.33 14.39 2.057 1.32 5.373 4.134 7.37 6.255 3.554 3.776 3.642 4.067 4.294 14.11.76 11.71 2.159 16.43 6.797 22.948 4.735 6.654 21.715 23.633 25.53 25.53 2.979 1.48 3.389 1.486 4.849.023 1.27-1.27 1.464-2.83.95-7.676-.838-7.92.943-23.253 3.339-28.748 1.94-4.452 2.8-5.172 11.969-10.012 2.947-1.556 6.322-4.052 7.5-5.547 3.4-4.317 7.314-12.422 8.1-16.773.396-2.2 1.625-6.615 2.73-9.81 1.674-4.844 1.894-7.174 1.322-14-.377-4.505-1.313-10.09-2.078-12.413-.765-2.322-1.157-4.836-.87-5.586.288-.749-.123-3.35-.915-5.777s-1.73-6.094-2.086-8.148c-.356-2.055-1.47-5.43-2.475-7.5-4.775-9.84-6.505-24.3-3.37-28.166l1.945-2.4 4.04 3.65c2.223 2.007 4.672 3.65 5.446 3.65.773 0 2.414.706 3.644 1.568 3.494 2.448 6.653 1.513 6.99-2.068.215-2.27-.891-4.605-4.546-9.6-6.136-8.385-10.61-18.196-9.918-21.746 1.793-9.2 7.608-24.05 10.855-27.719 1.005-1.135 1.844-2.485 1.867-3 .023-.514 1.764-2.838 3.868-5.164 3.607-3.987 11.237-8.232 14.925-8.304 6.649-.13 20.87-8.306 26.504-15.237 3.397-4.178 8.662-15.785 8.662-19.09 0-2.44 4.41-10.802 6.87-13.025 1.64-1.482 2.892-1.733 5.859-1.18 6.185 1.155 8.086 1.391 24.27 3.014 8.526.855 18.2 2.028 21.5 2.606s9.673 1.354 14 2.46c45.792 11.69 51.475 10.59 59.228 12.1 8.79 1.714-4.348 8.421-7.623 12.602-.38.483-.497 1.077-.418 1.39.096.384.506.721 1.076.887.892.26 2.12.193 4.985-.264 5.794-.924 7.71-1.143 9.57-1.1 1.144.028 1.318.053 1.539.218.565.42.31 1.064-.871 2.22-3.195 3.127-12.446 7.326-12.86 11.42-.077.763 1.084.29 1.955.45 5.685 1.037 39.946-16.15 39.946-16.15-.97 2.57-6.403 9.252-6.994 9.88-1.24 1.316-2.138 2.305-2.91 3.281-.95 1.206-1.462 2.108-1.323 2.276.234.282 2.92-1.169 6.22-3.35 1.406-.929.548-.378 2.237-1.49 0 0 6.69-3.708 19.416-11.893 1.2-.77 3.885-2.148 5.778-3.549s4.572-3.36 5.52-3.5c3.277-.48 4.145-4.237 4.704-1.44.262 1.31-5.638 8.77-5.638 8.77-1.503 1.634-1.047 1.12-2.051 2.272q-.953 1.094-1.23 1.623c-.11.213-.142.404-.07.435.32.138 1.91-.882 4.089-2.62 1.165-.93 1.74-1.414 3.998-3.376a139 139 0 0 1 4.955-4.12c5.262-4.17 10.075-7.24 19.416-12.397 12.529-6.917 18.595-9.737 22.463-12.67 2.428-1.84 4.793-4.772 18.13-11.764 10.33-5.415 16.235-8.16 25.07-13.256 5.55-3.2 17.823-9.275 19.665-9.86 2.144-.683.753-3.39 2.127-6.97.467-1.218-.053-1.58-2.25-1.568-21.867 21.07 11.9-18.407-8.285-1.016 35.569-62.556-109.026-128.698-149.502-128.877-12.595.097-18.452.884-24.342.983-6.434.107-79.36 22.452-88.767 31.93-1.06 1.17-3.487 2.781-5.393 3.578s-4.164 2.122-5.02 2.947c-1.346 1.3-15.725 10.51-21.554 13.806-1.1.623-3.41 2.258-5.13 3.633-1.722 1.375-5.447 4.075-8.28 6s-7.5 5.336-10.371 7.58c-2.87 2.244-7.471 5.62-10.223 7.502-2.751 1.883-5.901 4.222-7 5.2-2.576 2.29-10.294 8.388-15.47 12.218-10.433 7.72-15.19 12.043-16.66 15.137-2.09 4.407-8.952 12.074-9.94 11.107-.425-.415-.042-5.14.85-10.5.895-5.359 1.928-11.769 2.298-14.244.672-4.489 7.27-19.067 9.99-22.072.79-.87 1.436-1.846 1.436-2.164 0-.525 1.848-4.568 12.588-27.52 3.082-6.585 8.874-15.555 14.416-22.326 1.162-1.42 3.55-4.875 5.305-7.676 1.503-2.399 5.794-8.876 10.158-15.345z" style="fill:url(#i);fill-opacity:1"/><path d="m1494.054 1011.053-3.192 4.106-.74.9c-8.507 10.357-20.586 17.47-31.474 26.778l-1.012.865-1.406.612h-84.476l-2.918 5.75c-6.161 12.145-12.834 29.047-16.223 41.092-.444 1.578-.924 3.072-1.307 4.1v152.257h13.21c.1 0 .18.081.18.182v8.578h49.63l-2.572-12.069c.512-25.26-4.42-52.34 8.586-75.332-1.32 1.256-2.377 1.966-2.721 1.63-.425-.417-.042-5.142.85-10.5.895-5.36 1.928-11.77 2.298-14.245.672-4.489 7.27-19.067 9.99-22.072.79-.872 1.436-1.846 1.436-2.164 0-.525 1.848-4.568 12.588-27.52 3.082-6.585 8.874-15.555 14.416-22.326 1.162-1.42 3.55-4.875 5.305-7.676 1.755-2.8 7.31-11.16 12.343-18.576q.374-.549.748-1.11l.875-1.335c1.085-1.657 2.12-3.318 3.13-4.936 3.579-5.727 6.065-10.142 7.169-12.728 1.225-2.866 2.713-6.023 3.45-7.574.585-1.225.555-1.264.746-1.946.438-1.567.687-3.157 1.09-4.742m-1.741 229.17c-2.672 6.964-5.871 12.707-9.763 17.43a26 26 0 0 0 1.988-2.165c2.54-3.127 6.13-10.41 7.775-15.266" style="fill:#a12f3e;fill-opacity:1"/><path d="M1244.224 962.878c-4.833 4.79-4.43 6.06.989 6.213 4.389.124 6.97-3.499 7.45-7.708.406-3.549 7.498-2.106 9.047-5.126.387-.755.78-.664 1.59-1.31z" style="fill:#000"/><path d="m1090.303 905.95-2.55-3.03c-2.694-3.202-5.94-3.878-8.541-1.78-.853.687-2.345 5.075-3.317 9.75s-3.692 13.744-6.043 20.154c-4.724 12.88-6.074 17.287-11.138 36.346-9.002 33.877-10.766 42.403-13.31 64.328-.594 5.13-1.717 10.306-2.495 11.5s-1.93 5.097-2.56 8.672c-.628 3.575-1.541 8.75-2.026 11.5-1.641 9.302-3.941 32.646-3.941 39.99 0 7.106.093 7.385 3.533 10.406 1.944 1.707 4.094 3.104 4.777 3.104 2.655 0 5.69-3.144 5.69-5.895 0-2 1.25-3.953 4.46-6.96 5.206-4.88 19.713-21.64 24.362-28.145 5.993-8.344 13.434-15.702 19.472-24.01-.01-.202-4.787-4.217-5.795-4.9-4.136-2.807-10.232-10.579-11.404-14.54-1.1-3.72-1.452-10.556-1.213-23.594.125-6.822.468-16.096.762-20.609s.714-13.046.932-18.963c1.018-27.653.99-27.438 4.865-39.93 3.463-11.168 4.262-14.05 4.262-15.367 0-.93-.125-.986-.155-.986z" style="fill:#5e1926;fill-opacity:1"/><path d="M1802.297 2024.543c-1.467.06-3.083.68-5.15 1.788-2.975 1.595-3.61 2.581-4.337 6.75-1.907 10.913-1.695 11.691 8.302 30.385 5.147 9.625 11.24 21.1 13.54 25.5 9.735 18.618 22.774 33.112 36.773 40.875 5.912 3.28 9.023 4.548 31.738 12.96 5.225 1.934 9.613 3.551 9.75 3.591s.25-.337.25-.84-5.512-5.843-12.25-11.867c-6.737-6.024-14.05-13.448-16.25-16.498s-5.012-6.028-6.25-6.615c-1.237-.586-2.25-1.568-2.25-2.184 0-.929-4.745-9.582-12.568-22.922-1.67-2.847-4.78-9.342-9.336-19.5-1.727-3.85-3.567-7.675-4.088-8.5s-1.797-3.3-2.834-5.5-4.425-6.829-7.53-10.287c-3.104-3.459-5.644-6.622-5.644-7.025s-1.954-2.86-4.342-5.46c-3.038-3.31-5.076-4.755-7.523-4.65m-153.978-82.334c-3.712-.09-7.496.99-8.997 2.803-.566.685-1.61 4.056-2.318 7.49-1.266 6.14-1.231 6.384 2.059 14.5 1.84 4.54 4.18 9.452 5.199 10.912s1.853 2.898 1.853 3.2c0 1.797 10.544 15.287 16.95 21.685 6.728 6.72 12.759 10.943 26.55 18.586 7.874 4.364 8.394.967 1.08-7.059-6.812-7.476-16.58-23.706-16.58-27.552 0-1.594-1.107-4.18-2.5-5.834-1.375-1.634-2.5-3.827-2.5-4.875s-.39-2.335-.867-2.858c-1.081-1.185-3.91-9.329-5.54-15.947-1.98-8.047-5.811-13.214-10.79-14.555a15.4 15.4 0 0 0-3.6-.496m415.4-9.402c-1.113.03-2.461.158-4.257.328-6.535.62-12.687 2.82-12.687 4.537 0 .373-2.7 3.436-6 6.808-3.3 3.373-6 6.968-6 7.985 0 6.703 1.12 8.45 14.25 22.236 2.062 2.166 3.75 4.863 3.75 5.992 0 1.13.9 3.198 2 4.596s2 3.282 2 4.186.614 2.53 1.365 3.615c.752 1.085 2.817 5.35 4.59 9.475 3.32 7.727 4.106 9.47 10.86 24.126 2.188 4.745 6.395 12.17 9.35 16.5 2.957 4.33 6.363 9.561 7.57 11.623 3.763 6.425 5.399 4.845 5.843-5.63.324-7.64-2.597-33.178-5.14-44.944-2.41-11.16-5.45-23.84-6.6-27.533-.575-1.845-1.191-9.343-1.37-16.66-.395-16.199-1.075-17.79-10-23.428-4.94-3.12-6.18-3.904-9.523-3.812m-292.135-294.927c-.414 0-4.456 2.588-8.98 5.75-4.525 3.163-9.675 6.65-11.448 7.75-8.053 4.998-16.015 26.16-20.88 55.5-1.362 8.226-1.695 23.967-.545 25.826 1.308 2.117 3.293 1.237 5.816-2.576 4.315-6.52 10.103-37.734 22.33-42.709 5.189-1.98 10.46-6.06 10.46-8.096 0-2.097 3.939-9.207 5.415-9.773 1.608-.617 2.513-4.825 3.232-15.047.574-8.153-.6-12.625-3.316-12.625-.732 0-1.33-.9-1.33-2s-.34-2-.754-2" style="fill:#313a47"/><path d="M1360.663 1058.128c-.583-1.064-.66-1.759-.347-2.325.323-.585 1.534-1.052 3.526-1.43 3.81-.788 3.396-1.73 4.102 2.316l.563 3.17-2.306 1.261-2.355 1.26c-1.137-1.519-2.981-3.253-3.183-4.25m-3.951 8.944c-.583-1.065-.66-1.759-.348-2.325.324-.585 1.535-1.052 3.527-1.43 3.81-.788 3.396-1.73 4.1 2.316l.564 3.168-2.305 1.263-2.356 1.26c-1.136-1.519-2.98-3.253-3.182-4.25" style="fill:#000;fill-opacity:1;stroke:none;stroke-width:.112782"/><path d="M1352.019 1077.49c-.73-1.147-.867-1.917-.56-2.572.32-.678 1.638-1.288 3.835-1.857 4.199-1.16 3.667-2.18 4.752 2.286l.862 3.498-2.483 1.58-2.54 1.58c-1.38-1.613-3.568-3.415-3.866-4.516m-10.984 152.195c-1.173-.686-1.648-1.307-1.673-2.03-.027-.75.866-1.895 2.56-3.406 3.203-2.952 2.264-3.616 5.27-.14l2.368 2.716-1.486 2.54-1.535 2.566c-1.965-.802-4.735-1.403-5.504-2.246" style="fill:#000;fill-opacity:1;stroke:none;stroke-width:.126258"/><path d="M1338.742 1219.806c-1.172-.686-1.647-1.308-1.673-2.032-.027-.748.866-1.894 2.56-3.404 3.203-2.953 2.264-3.617 5.272-.14l2.366 2.715-1.485 2.54-1.536 2.567c-1.965-.802-4.735-1.404-5.504-2.246" style="fill:#000;fill-opacity:1;stroke:none;stroke-width:.126258"/><path d="M1336.803 1209.922c-1.173-.686-1.648-1.308-1.673-2.032-.027-.748.866-1.894 2.56-3.404 3.203-2.953 2.263-3.617 5.27-.14l2.368 2.716-1.486 2.54-1.535 2.566c-1.965-.802-4.735-1.404-5.504-2.246m-3.04-19.858c-1.173-.686-1.648-1.307-1.673-2.03-.027-.75.866-1.895 2.56-3.406 3.203-2.952 2.263-3.617 5.27-.14l2.368 2.716-1.486 2.54-1.535 2.566c-1.965-.802-4.735-1.404-5.504-2.246m-.685-12.51c-.98-.94-1.297-1.656-1.154-2.366.149-.734 1.284-1.64 3.284-2.714 3.803-2.124 3.044-2.99 5.159 1.092l1.668 3.193-2.037 2.124-2.091 2.137c-1.724-1.237-4.278-2.468-4.83-3.466" style="fill:#000;fill-opacity:1;stroke:none;stroke-width:.126258"/><path d="M1332.553 1168.033c-.98-.94-1.297-1.655-1.154-2.365.149-.734 1.284-1.64 3.284-2.714 3.803-2.124 3.044-2.99 5.159 1.092l1.668 3.193-2.037 2.124-2.091 2.137c-1.724-1.237-4.278-2.468-4.83-3.466m.295-11.127c-.982-.94-1.3-1.655-1.155-2.365.149-.734 1.284-1.64 3.284-2.714 3.803-2.125 3.044-2.99 5.159 1.091l1.667 3.194-2.036 2.124-2.091 2.137c-1.724-1.238-4.278-2.469-4.83-3.467" style="fill:#000;fill-opacity:1;stroke:none;stroke-width:.126258"/><path d="M1334.009 1146.5c-.98-.94-1.298-1.656-1.154-2.366.148-.734 1.284-1.64 3.284-2.714 3.802-2.124 3.043-2.99 5.158 1.092l1.668 3.193-2.036 2.124-2.092 2.137c-1.724-1.237-4.277-2.468-4.828-3.466" style="fill:#000;fill-opacity:1;stroke:none;stroke-width:.126258"/><path d="M1335.594 1135.975c-.981-.94-1.298-1.656-1.154-2.366.148-.734 1.284-1.64 3.284-2.714 3.802-2.124 3.043-2.99 5.158 1.092l1.668 3.193-2.036 2.124-2.092 2.138c-1.724-1.238-4.277-2.469-4.828-3.467m2.193-12.248c-.73-1.147-.868-1.916-.56-2.572.32-.678 1.638-1.288 3.835-1.856 4.199-1.16 3.667-2.18 4.752 2.286l.86 3.498-2.481 1.58-2.54 1.58c-1.38-1.613-3.568-3.416-3.866-4.516m2.677-10.33c-.864-1.05-1.095-1.797-.87-2.485.235-.712 1.469-1.478 3.58-2.31 4.026-1.665 3.374-2.613 4.996 1.688l1.28 3.367-2.27 1.87-2.327 1.878c-1.568-1.43-3.96-2.953-4.39-4.009m8.517-25.984c-.73-1.147-.867-1.917-.56-2.572.32-.678 1.638-1.288 3.835-1.856 4.199-1.16 3.667-2.18 4.752 2.285l.86 3.5-2.481 1.578-2.54 1.58c-1.38-1.613-3.568-3.415-3.866-4.515m-7.624 10.291c0-1.36.296-2.083.908-2.47.633-.4 2.073-.209 4.232.491 1.978.642 2.614.921 3.396.967.296.018.607-.035.607-.017s-.588 1.652-1.22 3.53l-1.152 3.414-.192 1.921-5.74-1.952c-.3-2.1-1.18-4.796-.84-5.884m-6.618 102.335c-1.173-.686-1.648-1.308-1.673-2.03-.027-.75.866-1.896 2.56-3.406 3.203-2.953 2.263-3.617 5.27-.14l2.368 2.716-1.486 2.54-1.535 2.566c-1.965-.802-4.735-1.404-5.504-2.246" style="fill:#000;fill-opacity:1;stroke:none;stroke-width:.126258"/><path d="M1394.754 917.445c-7.121-.05-26.145 2.903-32.5 5.035-9.275 3.112-12.175 3.86-21 5.41-5.224.918-14.921 3.43-21.547 5.58s-12.534 3.908-13.13 3.908c-.593 0-2.807.723-4.92 1.606l-3.84 1.603 3.712 1.807c9.396 4.57 15.802 11.031 32.315 32.592 2.15 2.808 6.61 8.422 9.91 12.478 12.38 15.218 18.526 24.897 24.557 36.617 3.47 6.746 5.943 12.932 5.943 13.823 0 .892-2.22 5.975-4.932 11.298-7.455 14.628-11.77 25.44-17.722 44.41-22.45 61.44-16.42 106.11 3.353 165.604 0 0 20.764 35.38 25.11 42.36 5.118 8.22 10.296 14.535 17.69 21.574 3.3 3.141 8.66 8.302 11.91 11.47 4.188 4.08 6.684 5.758 8.564 5.758 1.632 0 3.74 1.136 5.48 2.953 1.556 1.623 4.11 3.232 5.676 3.576s3.105 1.041 3.418 1.55c.314.507 1.669.921 3.012.921 4.019 0 3.232-4.743-1.934-11.65-5.918-7.913-9.55-15.398-10.24-21.106-.315-2.609-1.634-9.919-2.93-16.244-5.101-24.905-8.473-45.903-8.463-52.627 0-1.72-.556-3.587-1.244-4.15-1.713-1.403-10.903-.743-18.75 1.347-11.231 2.993-14.422 2.607-23.268-2.943-37.963-23.817 1.668-152.625 46.133-179.627 51.13-11.887 108.87-61.643 96.144-122.238-4.812-14.112-31.902-26.993-67.667-6.412l-5.367-2.674c-2.951-1.47-5.932-2.676-6.623-2.676s-4.245-2.087-7.897-4.64c-5.96-4.166-7.424-4.726-14.297-5.448-4.212-.442-10.807-.825-14.658-.845z" style="fill:#8f2937;fill-opacity:1"/><path d="M1403.193 917.896c-3.148-.016-6.87-.549-11.08-.37-11.733.507-18.636 1.673-27.713 4.324-13.203 3.855-15.9 4.965-24.16 6.436-4.95.881-10.35 2.02-12 2.528-13.298 3.942-29.901 8.612-30.422 9.773-.248.552 4.544 2.174 7.559 3.9 6.205 3.55 13.694 11.18 23.122 23.603 3.538 4.662 11.247 14.01 15.255 19.374 16.017 21.435 24.396 35.138 27.348 42.54l3.152 7.9 3.763-3.13c.01-.04.014-.08.023-.118 4.655-31.33 30.467-79.062 61.862-96.746a12 12 0 0 0 1.666-.922c.59-.418 1.386-2.928 2.026-3.26-1.247-2.495-4.556-2.81-9.538-4.568-2.224-.784-7.267-2.81-10.35-5.422-5.392-4.57-10.97-5.794-20.513-5.842" style="fill:#6d1b29"/><path d="M1738.012 823.923c-2.674.06-5.222.535-7.387 1.508-9.543 4.293-23.247 23.484-15.3 45.238 1.338 3.141 6.79 8.393 10.546 10.155 9.135 2.346 18.453-1.862 24.434-8.457 8.569-9.642 14.745-26.89 8.17-39.387-3.291-5.57-12.441-9.222-20.463-9.057m.6 13.69c34.032.217-11.451 64.207-19.74 24.275-2.547-12.266 9.32-24.344 19.74-24.275" style="fill:#8e1d2e;fill-opacity:1"/><ellipse cx="2421.376" cy="1223.519" rx="183.219" ry="171.568" style="opacity:.822415;fill:url(#k);fill-rule:evenodd;stroke-width:.643383;stroke-linejoin:round;stroke-dashoffset:.48"/><path d="M2070.994 858.937v.002l-.01.01v.015c-.616-.003-2.2.528-5.207 1.926-1.55.72-4.02 1.91-5.567 2.596a236 236 0 0 0-4.128 1.89c-1.153.543-13.193 5.804-16.063 8.26-1.35 1.153-8.77 4.073-15.43 6.07-1.218.4-3.424 1.124-3.34 2.303 0 1.01-6.025 5.38-19.59 14.735-17.722 12.22-22.15 15.082-29.066 18.767-3.85 2.051-10.15 5.845-14 8.434-3.85 2.59-10.162 6.575-14.027 8.86-12.508 7.39-26.744 24.002-33.156 38.687-11.23 25.722-15.042 39.11-17.934 63-4.748 41.828-8.497 101.987 7.066 142.967 1.314 3.2 2.39 6.19 2.39 6.65s3.395 8.082 7.546 16.937c7.267 15.504 13.772 27.532 20.785 38.438 1.825 2.837 5.292 8.306 7.705 12.156 3.494 5.576 8.17 11.126 13.422 16.51-2.58-2.577-4.737-4.82-5.78-6.05-.767-.908-1.412-1.524-1.544-1.495h-.02c0 .218.776 1.28 1.726 2.358s2.753 3.48 4.004 5.337c5.43 8.058 12.715 16.59 22.96 26.877 4.18 4.2 9.35 9.074 11.486 10.834 4.712 3.884 5.597 4.835 10.297 11.073 4.533 6.017 13.456 17.172 17.068 21.334 1.475 1.7 2.682 3.336 2.682 3.634 0 .3-.671.7-1.262.77-.56.067-1.03.493-1.072.951-.06.63.822 1.93 1.667 3.115s1.574 2.18 2.012 3.084c.21.433-14.846 25.818-17.533 30.371-3.426 5.797-16.427 23.105-21.54 29.108-2.81 3.3-7.501 9.466-10.425 13.701s-5.858 7.91-6.517 8.162-3.377 3.537-6.038 7.3c-2.66 3.76-5.771 7.737-6.914 8.837s-4.254 4.84-6.916 8.308c-2.66 3.468-5.804 7.348-6.986 8.622s-4.848 5.547-8.148 9.494-7.838 9.292-10.082 11.877-6.97 8.82-10.5 13.853c-6.17 8.793-7.36 10.647-12.918 20.102-1.376 2.34-4.975 8.123-8 12.85-3.025 4.725-6.175 9.774-7 11.222-.825 1.447-3.826 5.85-6.668 9.783s-6.124 8.892-7.29 11.02a1933 1933 0 0 1-4.335 7.87c-1.565 2.821-3.778 4.791-8.52 7.52-.26.443-.514.891-.771 1.338-.99 1.684-1.8 3.47-2.623 5.24-1.29 2.658-2.598 5.298-3.754 8.018-11.243 26.851 4.353 12.25.925 41.982.558 5.863-3.34 11.3-1.816 16.682 8.688 30.67 55.348 107.214 58.674 75.512.135-1.765.75-3.52 1.365-3.9 1.538-.952 9.03 1.783 10.592 3.865 1.055 1.406 1.61 1.486 3.234.472 2.264-1.414 5.99-1.636 5.99-.357 0 1.23 9.3 2.167 10.45 1.053 1.544-1.495 87.922-37.186 90.44-41.262 2.706-4.382 2.655-5.012-.346-4.438l-2.458.467 2.045-2.6c1.837-2.336 128.629-66.107 131.56-66.107 3.178 0 6.31-3.413 6.31-6.877 0-3.92 2.166-5.503 6.443-4.7 2.16.405 4.257.17 5.566-.634 16.546-6.818 18.406-10.894 27.356-27.244 1.22-2.484 2.186-3.968 2.425-3.728.266.266.26 4.34-.014 9.572-.333 6.37-.855 12.678-1.41 17.062-.286 2.27-.37 3.315-.37 4.696 0 1.598.114 2.273.384 2.273.562 0 2.3-2.853 3.367-5.53 1.477-3.708 2.817-10.224 3.496-17 .242-2.41.328-3.897.362-6.345.035-2.554-.014-3.702-.217-5.156-.15-1.083-.15-3.428 0-3.912.262-.846.702-.92 1.162-.2.537.843 1.039 2.706 1.226 4.55.363 3.57.59 9.832.725 19.968.063 4.766.127 7.114.252 9.188.16 2.69.367 4.234.75 4.644.198.212.456.297.777.096.57-.356.82-.74.793-1.455 4.792-8.596 4.403-18.326 6.004-27.452.975-5.562 1.494-8.108 1.88-13.923.114-1.73.37-3.146.388-3.164.047-.046 1.865 2.958 2.365 3.908.774 1.47 1.347 3.376 1.4 4.268.354 5.94 2.9 4.826 2.69 11.908-.096 3.21.188 5.818.27 8.53.047 1.59.514 3.445.724 3.576.19.118.348-.354.7-1.27 1.553-4.029 3.37-13.75 4.544-16.683.743-1.858 3.07-11.31 3.88-15.764.819-4.513.99-7.677.575-10.695-.278-2.026.138-4.607.297-4.704 2.697 5.53 3.569 6.171 3.955 11.696.65 9.31 2.744 7.427 3.33 6.668.46-.598 1.523-4.249 2.41-9.533.425-3.587.734-5.683 1.844-9.463 5.335-17.425 2.237-26.738-5.74-42.79-1.436-2.892-4.89-7.875-5.127-8.214-2.287-3.284-.825-4.362 1.096-7.787.807-1.44 1.33-2.142 1.545-2.782.106-.316.137-.7.068-.863-.084-.2-.197-.255-.99-.48-2.916-.57-5.587-1.873-8.507-2.454-4.838-.664-9.448-3.587-10.37-5.935-.42-1.07 32.25-77.794 41.77-98.742 3.117-6.854 1.592-19.623 3.42-24.594 1.83-4.97 4.88-11.964 6.78-15.54 1.9-3.574 4.27-8.75 5.268-11.5.997-2.75 2.627-6.068 3.625-7.38.997-1.312 1.812-2.883 1.812-3.488 57.899-42.097 47.415-231.764 21.104-299.22-9.99-25.614-14.106-36.468-14.106-37.187 0-.403-.833-2.3-1.851-4.218-1.018-1.917-2.606-5.775-3.528-8.573-1.837-5.579-3.89-7.785-13.62-14.65-3.576-2.522-9.65-7.47-13.5-10.996-22.223-20.35-46.256-31.074-101.5-45.29-6.52-1.677-9.538-2.364-12.542-3.556-.212-.084-.672-.437-.523-.85.125-.276.735-.585 1.529-.859.918-.316 1.377-.706 1.637-1.222.105-.209.132-.452.068-.602-.141-.337-1.507-.735-4.082-1.082-7.293-.983-14.751-1.91-22.49-1.592.385-.267 1.458-1.127 5.794-2.922 3.33-1.02 13.112-5.65 12.73-6.668.78-1.517-25.4-1.137-31.122.752-5.25 1.733-21.203 6.63-24.053 8.155-.39.208-.673.401-.873.568q.034-.184.037-.43c.118-.6 2.263-3.226 5.943-6.765 3.74-3.598 10.054-10.049 9.606-10.854-.478-.858-7.543.522-9.15.518v.006c-2.59-.107-6.906.4-11.512 1.465-8.527.9-10.27 1.863-23.375 9.154-.305.17-.538.243-.842.406l1.43-1.385c1.69-1.638 4.59-4.08 7.375-6.21 1.03-.79 2.634-1.906 3.474-2.516 2.789-2.024 4.534-3.843 4.22-4.586-.063-.154-.147-.415-.384-.42z" style="fill:#6d1b29"/><path d="M1865.845 808.463c-.867 0-3.97 1.574-6.892 3.5-2.923 1.924-5.743 3.5-6.268 3.5s-3.908 1.891-7.521 4.204a4930 4930 0 0 1-13.57 8.647c-25.202 15.983-30.164 20.838-45.08 44.148-4.205 6.57-11.3 24.496-12.866 32.506-3.15 16.104-3.548 19.22-3.963 30.994-1.106 31.42 4.668 53.027 18.024 67.453 17.182 18.56 44.023 23.13 68.746 11.707 15.13-6.99 27.558-18.583 37.156-34.66 2.134-3.575 4.4-7.175 5.033-8 .634-.825 3.26-6.675 5.834-13 6.758-16.599 11.168-25.58 16.346-33.289 4.973-7.402 12.63-14.833 18.217-17.68 4.975-2.536 21.296-8.409 29.053-10.453 6.73-1.773 14.774-4.047 27.25-7.7 6.79-1.989 14.763-5.218 20.904-8.47 2.485-1.326 6.478-1.89 7.177-2.52.128-.116.473-.664 1.665-1.65 1.375-1.138 2.173-2.394 1.775-2.794s-6.473-2.163-13.5-3.924c-24.45-6.12-45.348-14.193-71.666-27.686-4.81-2.466-6.277-2.824-8-1.93-1.16.6-5.637 1.757-9.947 2.565-4.31.81-10.234 2.603-13.164 3.99-6.66 3.15-20.08 11.27-25.16 15.22-5.865 4.56-15.33 10.082-20.338 11.864-2.475.881-7.668 1.848-11.54 2.154-5.844.462-7.71.215-11-1.476q-7.844-4.033-11.052-12.12c-1.533-3.864-1.595-5.146-.506-10.5 1.623-7.983 7.742-17.398 15.498-23.853 7.818-6.506 13.17-8.704 23.912-9.824 8.592-.895 12.688-2.132 12.688-3.83 0-.969-14.892-7.092-17.25-7.092zm-53.072 74.04c2.415-.04 3.322.542 5.293 2.43 4.06 3.888 5.37 10.123 4.06 19.318-1.283 9.018-3.911 14.35-8.46 17.16-6.17 3.813-11.66 3.61-17.24-.646-4.06-3.098-5.75-8.01-4.856-14.133.867-5.953 7.758-20.259 10.602-22.01 1.19-.734 4.605-1.585 7.587-1.892 1.236-.128 2.21-.213 3.014-.227m-100.417-142.896c-1.706 0-6.95 6.136-9.385 10.996-3.142 6.27-4.79 7.86-8.947 8.625-4.094.754-12.957 6.04-17.99 10.728-5.044 4.702-13.412 16.415-16.176 22.647-2.034 4.584-2.438 7.081-2.428 15 .01 8.64.269 9.931 2.854 14.271 4.284 7.193 14 14.11 21.126 15.038 13.143 1.713 24.792-1.684 43.065-12.555l8.066-4.799 16.108-.97c17.44-1.052 26.593-2.16 37.658-4.563 3.907-.848 11.206-2.394 16.22-3.436 10.485-2.179 18.242-5.37 27.165-11.176 5.897-3.835 6.18-4.195 4.664-5.87-.89-.983-6.19-4.127-11.78-6.987s-10.616-5.54-11.166-5.955c-1.65-1.245-16.527-7.592-43.5-18.559-14.025-5.702-32.025-13.08-40-16.398s-14.975-6.037-15.554-6.037m21.246 16.992c5.868 0 6.742.28 9.508 3.045 2.733 2.734 2.998 3.536 2.588 7.811-.94 9.772-8.596 20.056-18.276 24.548-9.42 4.372-17.063 3.902-21.748-1.34-3.37-3.773-3.69-9.349-.852-14.855 6.982-9.985 16.223-19.019 28.78-19.209" style="fill:#6d1b29"/><path d="M1523.682 716.53c-4.666.173-9.19 1.047-13.178 2.643-32.437 12.99-14.368 54.155 11.772 54.451 1.174.01 4.348 1.701 7.052 3.75 2.705 2.05 7.43 5.13 10.5 6.844 4.264 2.38 6.928 3.148 11.274 3.25 15.78.366 40.31-16.395 12.064-52.01-5.797-7.31-9.295-10.25-16.756-14.086-6.775-3.484-14.951-5.134-22.728-4.843" style="fill:#8e1929;fill-opacity:1"/><path d="M1598.47 697.677c-1.253.02-.842 1.28-.46 3.803.365 2.406 1.323 6.175 2.13 8.375 2.803 11.03 10.95 18.02 20.177 24.228 9.526 6.114 15.433 8.341 24.324 9.174 4.548.422 9.17.633 10.27.461 9.756-1.52 14.37-2.677 21.142-5.305 10.034-3.89 13.915-6.372 12.147-7.763-2.855-2.246-22.86-9.834-52.29-19.832-10.45-3.55-22.6-7.842-27-9.537-6.268-2.415-9.185-3.627-10.44-3.604" style="fill:#871a2a;fill-opacity:1"/><path d="M2606.897 1644.396c-1.027.05-5.571 1.568-10.774 3.627-16.834 6.662-71.137 21.733-86.936 24.25-11.115 1.77-12.45 2.337-17 7.236-2.475 2.664-7.13 6.417-10.347 8.34-7.35 4.393-14.533 11.385-18.14 17.656-1.53 2.663-3.704 5.857-4.83 7.098-5.858 6.465-12.712 39.623-10.694 51.742.549 3.3.758 7.35.462 9-.295 1.65.368 8.625 1.473 15.5 6.939 33.932 17.176 76.36 36.2 106.174 1.717 2.406 62.73 59.82 66.289 61.804 6.089 3.395 12.594 6.005 19.469 7.81 1.65.434 4.74 3.643 7.173 4.536 14.248 5.067 29.974 2.832 44.768 5.392 2.92 1.078 9.93 3.35 15.442 2.87 5.225.878 15.27 3.104 22.97 5.056 7.7 1.953 14.82 3.778 19.248 4.74 4.43.961 11.895 2.812 14.89 3.646s9.056 2.262 10.98 2.633c9.312 1.792 26.3 4.493 36.647 6.164 12.93 2.088 17.32 3.734 34.528 8.902 15.63 8.502 45.805 10.943 63.972 12.978 4.138.464 6.558.947 8.483 1.226 7.833 1.135 24.029 4.074 37.767 5.522 26.915 2.836 34.787 4.196 68.233 13.994 5.5 1.611 15.042 5.094 23.017 7.368 44.92 12.802 74.076 19.888 94.967 27.751.205.46.41.962.41 1.186 0 .752.567 1.084 5.215 3.043 2.868 1.21 10.863 4.706 17.766 7.771 17.35 7.705 25.335 10.71 40.88 15.383 10.818 3.253 20.04 5.522 33.04 8.13 12.823 2.57 15.35 3.246 17.703 4.737 1.829 1.16 6.917 6.728 10.547 11.54 3.66 4.85 15.034 22.682 16.089 24.918.512 1.086 1.166 2.277 1.48 2.537.789.655 1.91 1.67 1.886 3.372-.063 4.417 1.576-.828 1.867-2.7-.113-1.568.19-2.992.574-4.487.387-1.07.793-2.678 1.103-4.488.442-2.575.755-4.082 1.364-5.063a89 89 0 0 0 2.716 4.17c5.168 7.44 13.98 20.576 17.46 26.094 1.939 3.072 4.35 6.427 5.112 7.475 1.752 2.413 2.507 1.937 2.787-.44.193-1.63-.254-10.49-.442-12.829-1.06-12.815-2.21-22.22-3.442-25.057-.816-1.88-2.497-6.082-3.695-9.223-1.2-3.14-3.467-7.012-4.056-7.82-1.268-1.743-2.096-4.779.106-4.92.969-.063 3.864 1.203 7.516 2.912 3.548 1.66 7.3 4.231 7.51 4.087 4.577-1.4-8.57-25.155-7.227-26.855 1.295-1.296 2.3-2.636 7.457 2.242 4.575 4.326 5.303 4.715 5.303 2.838 0-3.959-4.458-15.157-8.955-20.44-3.013-3.538-7.127-7.008-12.538-9.93-10.132-5.473-8.206-5.585-4.582-9.91 1.215-1.45 3.4-3.592 4.518-6.72 5.275-10.41.583-21.843-6.747-17.107-3.075 1.987-3.97 2.956-3.157-1.463 1.554-8.438 4.365-16.91-6.59-16.31-2.93.16-7.946-.645-11.18-.645-4.203 0-6.845-.602-9.25-2.09-1.853-1.144-3.37-2.417-3.37-2.83 0-1.528-28.378-19.849-34.333-23.293-1.07-.618-3.151-2.255-4.63-3.639-3.296-3.087-16.791-11.738-18.311-11.738-.608 0-4.091-1.972-7.74-4.383-8.7-5.747-17.042-9.874-28.385-14.047-8.161-3-38.488-16.114-42.902-18.55-6.347-3.503-46.733-18.162-71.848-26.077-12.34-3.889-21.98-7.287-34-11.986-6.82-2.666-42.117-14.34-54-17.86-5.775-1.712-13.2-3.978-16.5-5.036s-8.025-2.22-10.5-2.582c-4.648-.68-10.83-2.426-19.5-5.504-2.75-.977-5.9-2.004-7-2.282-5.96-1.507-22.73-8.236-31.47-12.628-25.016-12.573-42.395-24.942-67.552-48.084-4.938-4.543-12.517-10.906-16.843-14.14-4.326-3.236-10.177-7.81-13-10.169-10.91-9.11-23.353-19.28-26.6-21.744-3.31-2.51-3.354-2.633-1.715-4.973.924-1.319 1.68-3.144 1.68-4.055 0-2.643-10.677-10.715-21.086-15.94-9.571-4.806-15.914-9.244-15.914-11.138 0-.552 1.575-2.842 3.5-5.09 1.925-2.25 3.5-4.507 3.5-5.017s-1.136-1.82-2.525-2.912-4.27-4.534-6.403-7.645c-2.132-3.112-5.608-7.28-7.724-9.263-5.083-4.765-14.79-10.49-20.15-11.88-5.341-1.389-6.005-2.97-3.17-7.56 1.625-2.629 1.927-3.898 1.12-4.705-1.585-1.586-15.36-2.004-32.148-.978-7.975.487-14.897.542-15.383.123s1.059-2.48 3.434-4.579c9.187-8.119 25.376-24.223 24.865-24.734q-.043-.044-.203-.029z" style="fill:#8b2634"/><g style="fill:#6d1722;fill-opacity:1"><path d="M3039.49 19554.984c-4.009.367-11.75 5.715-13.018 6.966-1.573 1.553-12.71 6.035-7.644 27.96.969 4.193 1.023 10.995 1.041 14.949.044 9.345 1.867 18.999 4.63 24.528 3.982 7.967 11.66 14.696 19.484 17.076 3.981 1.211 4.611 1.18 10.202-.503 6.136-1.847 13.314-7.323 15.736-12.004 5.936-11.472 6.305-35.316.78-50.347-.92-2.503-2.351-6.951-3.18-9.888-.844-2.981-3.402-7.572-5.798-10.401-3.647-4.305-5.333-5.337-11.243-6.885-3.824-1.002-8.768-1.653-10.99-1.451" style="fill:#6d1722;fill-opacity:1;stroke-width:1.09483" transform="translate(156.34 -17940.157)"/><path d="M2818.594 19424.307c-9.568-.505-23.093 1.294-31.309 4.611-5.608 2.265-15.76 7.775-18.254 9.91-.842.721-3.781 3.149-6.531 5.395s-7.061 6.147-8.705 9.218c-19.324 36.098-52.371 76.444-43.44 123.459 4.353 22.909 9.879 42.073 26.475 58.852 10.062 10.173 20.071 16.392 31.986 19.875 8.61 2.516 23.15 3.165 32.25 1.439 13.278-2.518 25.816-9.553 36.336-20.38 11.082-11.409 21.942-29.77 27.565-46.606 2.71-8.116 11.033-40.817 11.033-43.351 0-1.032.844-5.537 1.875-10.012 2.76-11.975 2.666-27.313-.3-49.637-.62-4.666-1.99-10.146-3.747-15-1.095-3.025-2.354-6.85-2.799-8.5-2.099-7.787-9.875-18.505-18.92-26.076-3.888-3.256-17.61-10.42-20.003-10.44-.883 0-3.406-.664-5.606-1.457-1.967-.708-4.717-1.132-7.906-1.3m135.554-6.729c-6.101-.09-12.557 1.268-20.53 4.174-5.728 2.087-13.924 8.905-18.968 15.777-17.363 20.235-13.784 41.989-18.992 65.047-.831 3.3-1.776 11.395-2.1 17.986-.476 9.722-.272 12.938 1.09 17 6.381 19.044 8.828 25.467 10.944 28.743 1.324 2.051 2.408 3.959 2.408 4.24s2.027 3.175 4.504 6.432c8.245 10.842 20.333 19.888 30.193 22.599 7.534 2.072 17 1.809 24.36-.676 11.454-3.867 18.803-10.899 24.476-23.418 1.97-4.349 4.406-9.481 5.41-11.406 2.839-5.439 3.959-10.32 6.084-26.5 2.156-16.41 2.567-36.81.928-46.084-6.443-30.859-10.128-72.736-49.807-73.914" style="fill:#6d1722;fill-opacity:1" transform="translate(156.34 -17940.157)"/></g><path d="M2705.617 1167.88c-1.785 0-1.922.476-1.377 4.75.333 2.612 1.28 7.225 2.103 10.25 2.143 7.865 6.158 26.38 7.373 34 .57 3.575 1.714 9.2 2.54 12.5s1.709 9.15 1.962 13c.254 3.85.73 9.408 1.057 12.348.383 3.452-.04 8.355-1.191 13.846-2.97 14.144-10.371 21.233-23.797 22.79-6.976.81-13.746-1.187-20.944-6.183-2.613-1.814-5.208-3.3-5.765-3.3s-3.38-1.337-6.274-2.97c-5.33-3.008-14.49-12.116-27.21-27.062-3.85-4.524-8.9-10.307-11.223-12.848-8.403-9.19-9.328-10.317-10.817-13.195-.831-1.608-1.915-2.926-2.408-2.926s-1.424-1.598-2.068-3.55c-.644-1.953-2.068-4.09-3.164-4.75-.228-.138-.491-.37-.78-.676q.144.44.258.884c.298 1.203.475 2.43.627 3.66.123 1.688.063 3.38.076 5.07-.516 47.635 54.644 173.04 63.244 184.505 1.39 1.852 4.795 7.983 7.569 13.62 2.773 5.64 5.976 11.433 7.115 12.882 1.139 1.45 2.072 3.066 2.072 3.594 0 1.57 14.375 18.712 22.196 26.47 6.14 6.091 8.338 7.575 14.28 9.65 13.458 4.7 22.087 6.148 28.38 4.75 10.22-2.27 26.155-4.066 35.223-3.966 5.268.06 10.443-.387 11.5-.979 1.056-.593 6.196-3.147 11.42-5.675 14.886-7.204 25.866-14.466 33.228-21.977 13.714-13.992 15.96-16.72 19.765-24 6.534-12.503 6.123-12.337 16.092-6.59 3.732 2.152 7.76 4.222 8.953 4.6 1.193.38 3.76 1.768 5.706 3.088 1.945 1.32 4.296 2.402 5.226 2.402s3.906 1.121 6.61 2.494c2.707 1.373 5.396 2.5 5.976 2.5s5.755 1.612 11.5 3.578c10.08 3.448 13.064 4.207 24.945 6.334 3.025.541 8.2 1.47 11.5 2.063 16.507 2.97 50.753 4.735 70.5 3.638 4.675-.26 16.15-.91 25.5-1.447 24.154-1.389 36.176-.31 56 5.018 3.467.932 8.94 2.206 24.5 5.7 1.925.431 4.85 1.452 6.5 2.27 1.65.82 5.7 2.313 9 3.315 21.159 6.426 23.21 7.77 24.252 15.924.29 2.26 1.322 5.701 2.295 7.642s2.535 6.217 3.473 9.5 2.488 7.32 3.447 8.97c17.314 53.695 41.72 88.24 77.205 130.216 3.323 3.97 6.883 7.481 7.912 7.808 1.989.631 8.767 5.762 12.916 9.774 3.436 3.322 14.977 12.09 18.012 13.681 1.369.72 4.256 2.7 6.418 4.395 10.264 8.048 66.839 34.627 73.707 34.627.935 0 2.974.646 4.53 1.44 6.85 3.49 52.958 16.257 74.833 20.718 5.5 1.121 13.15 2.697 17 3.5 7.17 1.495 11.035 2.23 25 4.75 22.444 4.052 64.645 10.55 92 14.164 12.93 1.71 56.315 2.462 71.5 1.242 31.196-2.506 37.134-3.12 42.5-4.406 3.3-.79 9.864-2.3 14.586-3.357 24.4-6.838 68.083-26.502 89.905-45.48 1.38-1.289 4.084-3.12 6.01-4.07 1.924-.948 4.85-2.972 6.5-4.493 1.65-1.52 5.743-4.615 9.097-6.873 39.988-26.92 24.254-38.315 35.36-43.05 1.57-.632-42.312-12.594-42.312-12.594s-4.767-1.78-5.278-.45c19.346 61.27-64.938 83.72-68.131 84.55-30.283 9.793-46.668 9.191-77.237 6.053-7.425-.778-15.478-1.49-17.896-1.58-49.46-1.86-55.462-90.933 35.916-108.086 3.564-.664 8.73-1.822 11.48-2.576 5.139-1.413 7.69-1.57 22.752-1.453 4.815.04 12.217-2.925 12.128-3.343-.492-2.307-49.95-17.876-108.544-40.426 25.09-3.608-8.566-5.6-20.16-7.739a24639 24639 0 0 0-45.004-17.18c2.948-.4 5.909-.694 7.487-.673 1.512.02 2.75-.394 2.75-.92 0-2.042-13.518-4.9-15.623-4.615-1.668.225-5.263.545-8.823.796-10.421-3.965-20.808-7.912-31.013-11.793a56 56 0 0 0 3.654-2.423c5.247-5.248 4.205-6.935-2.81-4.553-2.67.907-6.437 1.774-8.37 1.926a26.5 26.5 0 0 0-4.047.648 33839 33839 0 0 1-37.98-14.467c-.694-3.197 1.59-7.24 8.416-12.564 8.77-9.307-6.95-5.118-10.465-2.764-7.875 3.411-22.138 2.644-38.607-.273-27.547-10.653-45.97-18.025-47.827-19.486-1.793-1.412-3.185-1.73-5.183-1.194-2.676.72-17.95-3.46-29.23-7.996-10.326-4.152-26.93-9.324-27.643-8.61-.422.421-.186 2.21.525 3.977.71 1.766 1.73 5.011 2.262 7.211 8.692 27.998 16.787 65.357-13.352 84.272a1242 1242 0 0 0-8.177 4.447c-11.966 6.6-29.168 6.332-44.116-.69-13.145-6.174-26.47-20.178-35.713-37.529-1.61-3.025-3.53-6.625-4.263-8-3.812-7.148-8.545-18.023-9.576-22-.642-2.475-1.52-5.4-1.948-6.5s-1.274-3.834-1.88-6.076c-2.266-8.417-14.38-22.896-29.12-34.807a6841 6841 0 0 0-9.77-7.877c-2.897-2.332-8.747-7.5-13-11.488-4.251-3.986-8.517-7.503-9.48-7.816-.962-.313-1.75-1.022-1.75-1.574 0-.55-3.754-4.684-8.341-9.182-4.588-4.5-9.32-9.61-10.518-11.36-2.877-4.2-6.983-6.628-17.193-10.162-28.553-9.884-61.188-21.447-95.948-33.994-25.835-9.326-28.218-10.22-32.94-12.367-2.44-1.11-6.04-2.59-8-3.287-9.185-3.269-25.19-11.158-31.06-15.309-8.33-5.89-20.576-18.385-33.521-34.2-25.26-30.863-37.445-38.718-55.797-35.98l-6.818 1.018-16.182-8.433c-8.9-4.64-19.107-10.048-22.682-12.018-25.035-13.79-92.602-46.588-95.978-46.588m103.59 176.356c6.425-.102 12.24 1.705 15.705 5.593 1.483 1.665 3.135 3.028 3.67 3.028 3.478 0 8.69 23.78 7.486 34.158-1.076 9.282-2.63 16.073-4.518 19.766-1.005 1.967-2.92 6.08-4.255 9.142-2.23 5.111-6.2 11.372-12.465 19.662-4.082 5.401-18.644 17.123-24.356 19.606-2.96 1.287-7.406 2.84-9.88 3.45-10.134 2.492-14.314 2.207-21.69-1.466-8.47-4.218-14.31-13.519-14.31-22.789 0-9.003 5.012-25.93 9.06-30.598 1.076-1.24 2.456-4.097 3.066-6.345 2.744-10.098 4.253-13.915 7.24-18.342 1.76-2.608 4.76-7.375 6.667-10.592 1.906-3.217 5.267-7.234 7.467-8.926 2.2-1.69 5.35-4.323 7-5.847 6.58-6.082 15.85-9.37 24.113-9.5m767.193 338.595c6.42.225 12.864 1.222 16.193 2.88 21.497 10.703 28.24 20.204 22.24 31.34-3.116 5.782-11.958 12.898-15.821 13.812-9.083 2.15-14.622 1.928-22.016-.873-3.904-1.48-8.63-3.827-10.5-5.217a195 195 0 0 0-7.145-5c-3.253-1.66-4.527-4.63-6.675-7.37-7.18-9.032-3.336-22.95 7.683-27.824 3.228-1.428 9.622-1.974 16.04-1.748" style="fill:#6d1722;fill-opacity:1"/><path d="M1346.932 1232.971c-.37 8.142 4.49 15.13 6.908 22.634l1.113 3.611c2.11 3.59 4.07 6.864 6.254 10.638 12.878 22.24 18.119 30.768 20.656 34.53 3.349 4.964 7.215 10.12 11.326 14.09 2.16 2.085 12.5 12.32 17.097 16.747 3.645 3.512 5.885 5.024 7.715 5.15 2.297.156 3.693 1 5.872 3.13 1.843 1.8 3.837 3.016 5.777 3.468.507.12 1.295.39 1.58.594 1.737 1.25 3.96 2.381 6.897 2.097 4.464-.433 4.097-6.118-1.692-13.002-6.67-7.933-9.197-17.306-10.51-24.825-.618-3.537-1.772-8.73-2.565-11.543-2.812-9.974-11.524-47.592-11.34-53.968.065-2.294-.43-4.626-1.098-5.182-1.844-1.53-22.527 1.651-25.21 3.877-1.982 1.645-9.072 0-14.247-3.309-7.745-4.95-9.528-7.154-11.145-8.952z" style="fill:#5a1822;fill-opacity:1"/><path d="M1239.395 837.591c-3.037-.06-6.871.401-12.38 1.252-12.785 1.977-17.221 3.192-18.354 5.026-.361.584-1.54 1.06-2.621 1.06-1.261 0-2.942 1.62-4.691 4.514-3.318 5.491-48.357 42.134-76.987 85.986a621 621 0 0 1-6.131 9.45c-3.873 5.846-17.32 26.836-23.22 45.038a475 475 0 0 1-3.881 11.358c-1.656 4.626-1.843 6.147-.891 7.295 1.604 1.932 6.498.844 10.21-2.27 21.586-18.1 30.786 4.247 109.097-73.929 9.96-9.942 16.5-18.612 22.318-29.58 1.645-3.102 3.727-6.69 4.625-7.973 1.872-2.673 2.102-6.145.594-8.963-.882-1.647-.538-2.243 2.25-3.893 3.754-2.224 8.423-8.944 12.629-18.18 6.803-14.936 6.804-15.376.04-20.76-4.696-3.74-7.544-5.323-12.606-5.43z" style="fill:#8f2937;fill-opacity:1"/><path d="M1170.847 941.11a9 9 0 0 0-2.535.33c-9.323 4.872-24.58 17.524-32.316 25.784-5 5.543-10.193 10.905-15.317 16.332-1.846 3.405-12.316 5.701-8.638 9.832 5.338 5.34 47.952-15.78 66.027-32.717 4.337-4.063 4.783-7.176 1.846-12.896-2.175-4.236-5.463-6.603-9.067-6.666" style="fill:#6f1722;fill-opacity:1"/><path d="M1051.377 1055.793c-2.338 0-6.25 17.83-7.536 34.353-.632 8.117-.577 8.42 1.977 10.79 2.592 2.402 3.65 7.356 1.57 7.356-.582 0-.78.45-.44 1.002 1.005 1.625 3.946-.499 9.364-6.76 12.687-14.66 18.635-22.865 18.635-22.865 4.745-3.9-9.022-1.55-19.266-18.986-1.58-2.69-3.518-4.89-4.304-4.89" style="fill:#230b11;fill-opacity:1"/><path d="M1089.69 912.294c-.55 0-1.547 1.318-2.214 2.928s-2.071 3.704-3.12 4.654c-5.666 11.394-7.37 25.847-10.06 38.426-.275 18.032-11.52 40.598-9.79 56.774.68 4.004 1.13 5.247 2.025 7.77 4.59 12.945 21.69 33.836 20.025 40.015 1.802-1.847 5.356-5.278 8.932-9.112 4.616-4.914-9.198-4.485-16.012-21.308-.747-1.845-1.396-5.895-1.443-9-.71-46.638 1.02-20.713 2.03-57.842.44-14.727 2.356-38.773 9.364-51.78.699-.843.817-1.525.264-1.525m-3.135 150.567-.03.03h.023c0-.01.01-.018.01-.026z" style="fill:#500f19;fill-opacity:1"/><path d="M1044.295 1085.233a175 175 0 0 0-.453 4.913c-.633 8.117-.578 8.42 1.976 10.79 2.592 2.402 3.65 7.356 1.57 7.356-.582 0-.78.45-.44 1.002 1.005 1.625 3.946-.498 9.364-6.76 2.54-2.934 4.809-5.61 6.815-8.013z" style="fill:#000"/><path d="M1287.25 881.32c-2.008-.65-3.026-1.93-3.025-3.808 0-.63.04-.828.269-1.31 1.12-2.368 4.723-1.3 5.468 1.62.352 1.38-.253 3.143-1.217 3.546-.395.165-.882.15-1.495-.05" style="fill:#fff;fill-opacity:1;stroke:none;stroke-width:.0916853"/><path d="M2489.832 1001.195c-2.025.01-4.136.26-6.32.841-28.89 7.697-68.905-.385-90.813 21.698-.976.984-3.078 2.81-3.927 3.008-12.974 26.18-31.761 46.54-55.42 63.322l-.161.113c8.233 39.945 13.23 84.258 2.834 109.807-10.05 25.676-15.976 52.49-27.107 77.685l1.254 2.586c1.188 2.452 2.192 3.11 5.129 3.356 6.502.543 110.659-38.368 137.773-60.092 49.423 3.916 39.36 169.615 42.865 218.396.3 4.804 1.103 10.497 3.453 24.5 3.12 29.82 15.034 59.138 13.489 89.555-2.136 10.123-3.227 39.24-2.338 62.445.05 1.375-.135 5.65-.418 9.5s-.122 7.746.355 8.657 1.36 6.086 1.96 11.5c.63 5.668-4.07 23.292-3.253 24.201.782.87 39.187-1.37 39.187-1.37-.05-3.259-2.97-22.563-3.536-25.767s-2.147-11.88-2.11-19.217c.422-81.95 140.584-268.583 36.2-515.025-2.12-1.604-6.56-2-6.56-.584 0 1.398-5.406 2.073-6.23.777-1.672-2.626-.823-3.83 2.23-3.16 1.65.362 3 .452 3 .197 0-1.253-14.591-9.06-19.99-10.695-5.352-1.62-10.158-4.832-10.158-4.832l.025-.113c.05-.23.204-.409.487-.485.196-.052.7-.052 1.02 0 .76.125 1.646.446 2.843.998 1.35.623 2.088.912 2.813 1.03.459.04.848.133 1.267-.159.12-.082.29-.274.363-.412.056-.13.085-.175.108-.187h.01c.032-.01.063.034.17-.072 1.434-1.434-10.895-25.304-16.99-32.155-1.985-2.23-3.156-3.724-3.975-4.93l.144-.01c.505-.04 1.572.32 2.97 1.007 1.736.85 3.533 1.993 4.896 3.111 1.404 1.182 2.985 2.341 4.824 2.576 2.337.518.762-5.518-3.772-11.418-5.967-7.94-11.797-13.725-17.55-17.406-5.321-3.404-18.577-9.292-22.162-10.977-1.235-.58-1.77-1.096-3.098-1.783a.5.5 0 0 1-.137-.138v-.02c-.287-.554 9.652-5.276 11.285-5.28 1.53 0 3.946-1.138 5.354-2.525 1.01-.995 1.275-1.747 1.027-2.565-.221-.732-2.087-2.222-3.031-2.709-4.365-2.248-11.504-6.812-20.277-6.779zm38.658 52.154h.01c-.11.114-.185.204-.213.258-.043.08-.056.22-.043.375q-.053-.443.246-.627z" style="fill:#8d2b38;fill-opacity:1"/><path d="M2303.524 969.123c-.164 0-.28.02-.338.08-.931.966 1.293 16.4 3.505 24.324.843 3.025 2.025 7.75 2.622 10.5.309 1.423 12.575 81.03 23.587 82.666 5.377.8 40.206-35.448 52.52-60.047.385-.815.525-.846.924-1.654-1.39-.68-3.083-2.8-5.983-4.953-4.072-3.025-7.953-5.5-8.625-5.5-.67 0-1.75-.64-2.398-1.422-.65-.782-2.618-1.906-4.373-2.494l-3.193-1.067 3.75 3.506c2.062 1.93 3.75 4.146 3.75 4.932 0 1.653-3.76 4.545-5.91 4.545-.804 0-2.388.857-3.524 1.902-4.602 4.234-14.862 5.623-24.066 3.258-12.613-3.24-18.595-25.025-10.803-39.34l2.76-5.074-3.477-2.914c-4.583-3.836-18.214-11.156-20.687-11.239z" style="fill:#6d1b29;fill-opacity:1"/><path d="M2364.17 1795.273c-5.333 13.666-12.642 28.991-17 43-4.425 14.228-31.826 46.095-56.176 66.823-21.236 18.076-59.414 55.94-59.414 55.94l-44.41 58.237-31 26s-20.46 14.761-28.353 24.47c-14.87 18.285-35.154 47.108-34.99 61.767.032 2.867 1.344 3.763 1.344 3.763l-37 32s-8.455-3.892-11.875-3.25c-8.258 1.55-14.473 7.605-18 15.75-4.29 9.906-.088 23.632 3.847 28.583 2.319 2.917 10.028 4.917 10.028 4.917s-2.247-6.89-1-10c2.286-5.706 14-12 14-12 5.7 6.51 6.704 11.34 15 13l-22 39s-18.24 36.256-20 56c-3.336 53.274 23.31 76.127 66.25 99.374 0 0 7.89-.163 11.375-2.75 2.956-2.194-1.375-8.25-1.375-8.25-4.517-2.122-9.28 1.421-13.5-7.5l-23.125-35.374c-.617-.944-4.01-22.643-3.625-32.5 2.886-6.32 21.56 2.062 29.575-3.819 6.754-4.954 10.02-15.955 10.55-22.806.567-7.342-5.125-21.376-5.125-21.376s9.913-35.48 18-51c8.133-15.608 16.684-30.078 32-38.75 5.253-2.974 13.174-5.627 18-2 28.454 21.39 31.74 52.348 28.75 81.75 0 0-7.692 19.69-9.75 30-1.637 8.2-2.396 17.012 1.712 24.293 4.029 7.141 18.288 11.707 18.288 11.707l11 31 16 30 27 21 9-1-1-12-12-21c-5.604-16.514-10.488-25.9-9.5-42.75 16.34 1.442 34.259-23.066 31-34-6.312-21.173-15.813-27.257-30.5-40.25-3.193-14.966-25.91-56.757-18-71 6.156-26.638 26.252-56.399 32-83 2.51-15.478-2-47-2-47l24.005-43.348 5.05 14.702c1.503 18.282 4.75 54.36 9.445 55.646 5.112-.12 9.5-38 9.5-38l3.242-23.232c.408-9.295 1.002-18.617 3.758-33.767 4.056-21.518 17.576-32.45 31.25-49.25 0 0-3.687 26.273 5.75 27.25 9.212.953 14-24 14-24l8-28 8-18 32.5-29.75z" style="fill:url(#l);fill-opacity:1;fill-rule:evenodd;stroke-width:1.5;stroke-linejoin:round;stroke-dashoffset:.48"/><path d="m2245.893 2391.49-13.44-10.443-7.714-14.38c-6.364-11.863-8.713-17.162-13.426-30.283l-5.712-15.904-6.53-3.233c-11.71-5.797-14.683-10.402-14.584-22.588.067-8.165 1.736-15.17 7.245-30.406l3.963-10.96.013-14.496c.015-16.414-.857-22.392-4.933-33.796-3.135-8.77-7.893-16.58-14.315-23.5-5.942-6.4-10.864-10.21-14.093-10.904-6.298-1.355-17.81 4.39-26.76 13.355-13.207 13.227-23.641 34.05-34.221 68.294l-3.565 11.538 2.209 6.775c3.026 9.283 3.414 15.94 1.33 22.802-2.01 6.62-3.02 8.535-6.494 12.303-4.007 4.347-6.012 4.823-17.844 4.237-6.435-.318-10.66-.23-11.914.247-1.91.726-1.945.848-1.945 6.702 0 6.09 1.696 21.432 2.862 25.892.8 3.063 25.352 40.894 27.657 42.617.92.688 3.364 1.45 5.43 1.695 4.09.485 5.387 1.68 6.19 5.695.392 1.957.188 2.334-1.825 3.375-1.247.645-3.906 1.44-5.91 1.765-3.397.554-3.957.422-8.24-1.94-43.155-23.792-60.028-46.374-61.948-82.905-.768-14.615 1.388-25.33 8.87-44.084 6.288-15.76 9.96-23.227 21.27-43.253 6.154-10.894 11.294-20.245 11.422-20.78.134-.558-.58-1.2-1.683-1.513-3.076-.87-5.625-3.05-9.357-8.002l-3.494-4.636-2.673 1.502c-3.82 2.147-9.21 6.723-10.74 9.12-1.367 2.143-1.65 5.305-.811 9.12.466 2.122.396 2.227-1.167 1.757-6.8-2.048-10.382-6.699-12.367-16.06-2.051-9.673.09-17.69 6.59-24.674 3.777-4.06 9.169-6.969 12.954-6.99 1.36-.01 4.464.684 6.895 1.538l4.42 1.553 1.944-1.793c1.497-1.382 33.543-29.075 34.729-30.013.142-.112-.085-1.19-.506-2.396-2.635-7.56 3.062-22.498 22.175-48.113 3.978-5.33 6.23-9.96 6.573-8.78 15.798 54.271 140.813 34.872 137.748 20.726-.093-.43-13.385 35.167-17.24 43.676-11.78 26.007-16.426 39.655-16.426 48.253 0 7.42 3.198 18.723 11.13 39.342 3.89 10.112 7.294 19.395 7.562 20.63.363 1.665 2.144 3.671 6.9 7.773 12.835 11.064 17.973 17.84 22.334 29.45 2.908 7.742 2.81 10.877-.56 17.718-5.583 11.344-17.414 20.95-25.8 20.95-2.005 0-2.354.28-2.738 2.2-.606 3.033.719 14.078 2.422 20.18 3.27 11.716 7.288 21.381 13.116 31.56 5.8 10.127 6 10.625 6.42 16.068.483 6.266.648 6.04-4.75 6.553-3.202.305-3.24.28-16.65-10.137z" style="fill:#c6797d;fill-opacity:1;stroke:none;stroke-width:.707107"/><g style="fill:#802f40;fill-opacity:1"><path d="M4096.338 1501.74c-4.886.033-6.594.658-11.17 2.82-3.561 1.683-53.668 39.834-75.572 59.047-5.553 4.752-14.184 15.804-15.502 39.152-1.277 22.56 20.783 58.662 51.438 66.82a608 608 0 0 1 11.423 2.559c9.017 2.117 27.347 1.824 38.134-.613 16.048-3.624 18.203-4.316 26.187-8.4 48.03-24.572 37.54-105.632 35.161-111.625-10.215-32.312-15.346-44.886-53.928-49.624-2.56-.083-4.542-.144-6.17-.135m41.952 74.52c-21.581 30.243-75.45 13.649-77.427-18.047-1.801-64.399 116.54-37.556 77.427 18.047" style="fill:#802f40;fill-opacity:1;stroke-width:1.04477" transform="translate(-202.053 180.763)"/><path d="M4182.58 1576.042c-1.053.037-2.112.557-4.036 1.59-2.225 1.196-5.724 4.706-7.775 7.8-24.321 36.697 53.944 53.913 37.49 14.53-.947-2.265-1.721-4.836-1.721-5.714 0-2.626-4.745-8.248-9.902-11.735-2.661-1.798-5.115-3.27-5.454-3.27-.34 0-2.414-.85-4.606-1.891-1.897-.9-2.942-1.347-3.995-1.31" style="fill:#802f40;fill-opacity:1;stroke-width:1.12512" transform="translate(-202.053 180.763)"/><path d="M-14371.422 12935.602c-.36.267-.816.458-1.369.537-1.237.176-2.294 1.386-2.294 1.56 0 1.238 3.343 6.3 5.678 8.596 1.552 1.527 4.397 4.673 6.322 6.992 58.337 159.863 352.818 212.045 383.115 205.614 9.051-1.922 10.597-2.444 13.885-4.688 1.375-.938 3.595-2.048 4.941-2.467 5.214-1.622 14.221-10.015 20.114-18.752 3.401-5.042 14.576-32.628 15.592-36.049 4.221-14.217-59.965-51.599-145.647-26.831-42.801 12.372-81.97-16.536-113.588-53.181-1.464-2.846-6.162-6.674-11.263-9.173-3.131-1.535-4.173-2.667-4.418-4.803-.209-1.816-1.13-3.1-2.622-3.666-3.263-1.239-1.217-2.13-8.464-7.858-4.837-3.824-4.937-3.992-2.567-4.587 1.63-.409 5.114.263 4.072-.262-.825-.408-1.635-.844-2.489-1.192-43.904-20.848-157.675-49.138-158.998-49.79" style="fill:#802f40;fill-opacity:1" transform="translate(18362.436 -11260.31)"/><path d="M4704.024 1681.932c20.27 26.634 42.662 54.683 63.64 82.024s83.04 68.402 113.918 83.604c28.672 14.118 71.911 16.82 122.756 4.92 42.804-10.017-285.57-196.348-300.314-170.548" style="fill:#802f40;fill-opacity:1;fill-rule:evenodd;stroke:none;stroke-width:5;stroke-linejoin:round;stroke-dasharray:none;stroke-dashoffset:.48;stroke-opacity:1" transform="translate(-202.053 180.763)"/><path d="M5215.953 2177.005s-9.555 2.725-24.422 11a558 558 0 0 1-8.865 4.827c-1.911 1.007-4.906 3.058-6.655 4.558l-3.18 2.727 1.772 5.944c1.885 6.325 3.1 14.106 4.148 23.943 6.018 56.509 1.346 119.92-8.54 174.745-2.347 13.011 32.224 1.756 32.224 1.756s5.848-19.154 9.164-30.704c8.168-28.45 16.512-57.246 15.522-86.632-.415-12.315.554-12.857-1.67-13.367-38.68-8.87-43.419-53.999-6.86-54.298l5.41-.043c-.89-9.979-7.656-44.44-8.049-44.456z" style="fill:#802f40;fill-opacity:1;stroke-width:1.06827" transform="translate(-202.053 180.763)"/><path d="M5066.89 1905.293c-.791 0-1.091.892-.724 2.662.929 4.475 2.475 89.688 9.233 89.688.648 0 1.773-.57 2.5-1.266s3.89-2.065 7.03-3.04c25.428-7.882 42.359 32.316 28.149 53.29-1.297 1.915-2.344 4.165-2.334 5 25.873 23.106 71.8 24.01 72.225 24.018l-.594-2.971c-25.986-61.297-68.773-115.59-112.361-165.252-1.342-1.421-2.424-2.125-3.123-2.13" style="fill:#802f40;fill-opacity:1" transform="translate(-202.053 180.763)"/></g><path d="M3335.142 1448.017a.24.24 0 0 0-.03.098l-30.087 221.15c146.34 59.317 368.132 105.746 487.909 105.746-1.293 22.004 71.339 41.706 123.09 41.262 10.95-.094 11.292-3.376 17.4-3.52 33.608-.138 684.98 189.704 691.033 192.147 5.904 2.153 11.63 4.708 17.516 6.9 35.19 16.201 105.982 61.822 128.785 76.684 88.186 57.476 148.862 143.485 185.807 243.18 82.847 223.566-60.578 456.971-145.81 572.357h50.563c69.625-112.73 116.448-234.82 154.159-368.963 20.265-76.4 12.695-187.724-52.653-313.535-166.3-305.365-551.545-408.91-852.236-510.213-14.04-3.843-27.978-7.888-41.625-12.955-7.45-2.416-14.865-4.9-22.47-6.81-15.163-4.394-30.428-8.422-45.5-13.114-12.082-3.842-24.134-7.78-36.221-11.6-6.964-2.194-13.702-5.116-20.893-6.513-19.518-4.874-38.726-10.877-57.87-17.043-34.31-10.456-69.038-19.548-103.032-31.047-26.696-8.678-53.111-18.198-79.903-26.545-10.52-3.246-20.892-6.902-31.412-10.146-9.885-2.896-20.097-4.718-30.15-6.926-9.93-1.837-19.844-3.6-29.617-6.172-13.841-3.552-27.222-8.59-40.561-13.68-18.5-6.867-37.211-13.17-55.55-20.46-10.924-4.366-21.916-8.568-32.811-13-4.392-2.106-8.73-4.304-13.12-6.41-3.066-1.646-5.813-3.082-8.77-4.973l-.157-.066c-5.583-2.456-10.954-5.323-16.543-7.747-6.348-2.596-12.651-5.35-19.13-7.59-5.82-1.884-11.715-3.346-17.642-4.859a610 610 0 0 1-30.638-9.677c-6.068-2.042-12.094-4.312-18.14-6.317-13.5-4.475-21.13-12.098-23.69-19.642z" style="fill:url(#m)"/><path d="M4660.243 3155.38s-50.967 51.924-67.528 66.32c-25.785 16.52-48.987 41.141-74.131 58.61l-44.741-16.675c57.01-65.852 51.227-55.738 150.12-140.603zm118.696-209.904c-78.43 92.902-65.926 85.496-126.38 149.995l42.077 28.445c11.86-12.16 29.649-32.732 39.393-43.306l2.68-52.6 28.125 8.275c24.632-26.992 50.956-62.507 50.956-62.507z" style="fill:#802f40;fill-opacity:1;fill-rule:evenodd;stroke-width:1.5;stroke-linejoin:round;stroke-dashoffset:.48"/></svg>